%TF.GenerationSoftware,KiCad,Pcbnew,8.0.1-rc1*%
%TF.CreationDate,2024-08-02T09:31:45-04:00*%
%TF.ProjectId,Schema,53636865-6d61-42e6-9b69-6361645f7063,rev?*%
%TF.SameCoordinates,Original*%
%TF.FileFunction,Copper,L2,Bot*%
%TF.FilePolarity,Positive*%
%FSLAX46Y46*%
G04 Gerber Fmt 4.6, Leading zero omitted, Abs format (unit mm)*
G04 Created by KiCad (PCBNEW 8.0.1-rc1) date 2024-08-02 09:31:45*
%MOMM*%
%LPD*%
G01*
G04 APERTURE LIST*
%TA.AperFunction,ComponentPad*%
%ADD10R,1.700000X1.700000*%
%TD*%
%TA.AperFunction,ComponentPad*%
%ADD11O,1.700000X1.700000*%
%TD*%
%TA.AperFunction,ComponentPad*%
%ADD12R,2.000000X2.000000*%
%TD*%
%TA.AperFunction,ComponentPad*%
%ADD13C,2.000000*%
%TD*%
%TA.AperFunction,ComponentPad*%
%ADD14R,3.200000X2.000000*%
%TD*%
%TA.AperFunction,ComponentPad*%
%ADD15C,1.701800*%
%TD*%
%TA.AperFunction,ViaPad*%
%ADD16C,0.600000*%
%TD*%
%TA.AperFunction,Conductor*%
%ADD17C,0.200000*%
%TD*%
%ADD18C,0.300000*%
%ADD19C,0.350000*%
%ADD20O,2.800000X1.500000*%
G04 APERTURE END LIST*
D10*
%TO.P,J4,1,Pin_1*%
%TO.N,3V3*%
X75620000Y-49360000D03*
D11*
%TO.P,J4,2,Pin_2*%
%TO.N,GND*%
X75620000Y-51900000D03*
%TO.P,J4,3,Pin_3*%
%TO.N,/GPIO14-CS*%
X75620000Y-54440000D03*
%TO.P,J4,4,Pin_4*%
%TO.N,/GPIO13-RESET*%
X75620000Y-56980000D03*
%TO.P,J4,5,Pin_5*%
%TO.N,/GPIO12-DC*%
X75620000Y-59520000D03*
%TO.P,J4,6,Pin_6*%
%TO.N,/GPIO11-SDI*%
X75620000Y-62060000D03*
%TO.P,J4,7,Pin_7*%
%TO.N,/GPIO10-SCk*%
X75620000Y-64600000D03*
%TO.P,J4,8,Pin_8*%
%TO.N,3V3*%
X75620000Y-67140000D03*
%TO.P,J4,9,Pin_9*%
%TO.N,/GPIO9-SDO*%
X75620000Y-69680000D03*
%TO.P,J4,10,Pin_10*%
%TO.N,/T_CLK*%
X75620000Y-72220000D03*
%TO.P,J4,11,Pin_11*%
%TO.N,/T_CS*%
X75620000Y-74760000D03*
%TO.P,J4,12,Pin_12*%
%TO.N,/T_DIN*%
X75620000Y-77300000D03*
%TO.P,J4,13,Pin_13*%
%TO.N,/T_DO*%
X75620000Y-79840000D03*
%TO.P,J4,14,Pin_14*%
%TO.N,/T_IRQ*%
X75620000Y-82380000D03*
%TD*%
D12*
%TO.P,SW1,A,A*%
%TO.N,/GPIO42-chA_X*%
X86280000Y-118360000D03*
D13*
%TO.P,SW1,B,B*%
%TO.N,/GPIO41-chB_X*%
X86280000Y-113360000D03*
%TO.P,SW1,C,C*%
%TO.N,GND*%
X86280000Y-115860000D03*
D14*
%TO.P,SW1,MP*%
%TO.N,N/C*%
X78780000Y-121460000D03*
X78780000Y-110260000D03*
D13*
%TO.P,SW1,S1,S1*%
%TO.N,GND*%
X71780000Y-113360000D03*
%TO.P,SW1,S2,S2*%
%TO.N,Net-(R3-Pad1)*%
X71780000Y-118360000D03*
%TD*%
D15*
%TO.P,SW3,A*%
%TO.N,N/C*%
X114269100Y-108270000D03*
%TO.P,SW3,B*%
X114269100Y-110770000D03*
%TO.P,SW3,C*%
X114269100Y-113270000D03*
%TD*%
D12*
%TO.P,SW2,A,A*%
%TO.N,/GPIO40-chA_Y*%
X153780000Y-113280000D03*
D13*
%TO.P,SW2,B,B*%
%TO.N,/GPIO39-chB_Y*%
X153780000Y-118280000D03*
%TO.P,SW2,C,C*%
%TO.N,GND*%
X153780000Y-115780000D03*
D14*
%TO.P,SW2,MP*%
%TO.N,N/C*%
X161280000Y-110180000D03*
X161280000Y-121380000D03*
D13*
%TO.P,SW2,S1,S1*%
%TO.N,GND*%
X168280000Y-118280000D03*
%TO.P,SW2,S2,S2*%
%TO.N,Net-(R16-Pad2)*%
X168280000Y-113280000D03*
%TD*%
D10*
%TO.P,J3,1,Pin_1*%
%TO.N,/FSYNC*%
X160110000Y-46030000D03*
D11*
%TO.P,J3,2,Pin_2*%
%TO.N,/NCS*%
X160110000Y-48570000D03*
%TO.P,J3,3,Pin_3*%
%TO.N,/INT*%
X160110000Y-51110000D03*
%TO.P,J3,4,Pin_4*%
%TO.N,GND*%
X160110000Y-53650000D03*
%TO.P,J3,5,Pin_5*%
%TO.N,/ECL*%
X160110000Y-56190000D03*
%TO.P,J3,6,Pin_6*%
%TO.N,/EDA*%
X160110000Y-58730000D03*
%TO.P,J3,7,Pin_7*%
%TO.N,/GPIO2-SDA*%
X160110000Y-61270000D03*
%TO.P,J3,8,Pin_8*%
%TO.N,/GPIO1-SCL*%
X160110000Y-63810000D03*
%TO.P,J3,9,Pin_9*%
%TO.N,GND*%
X160110000Y-66350000D03*
%TO.P,J3,10,Pin_10*%
%TO.N,3V3*%
X160110000Y-68890000D03*
%TD*%
D10*
%TO.P,J1,1,Pin_1*%
%TO.N,3V3*%
X112220000Y-92010000D03*
D11*
%TO.P,J1,2,Pin_2*%
X112220000Y-89470000D03*
%TO.P,J1,3,Pin_3*%
%TO.N,/RST*%
X112220000Y-86930000D03*
%TO.P,J1,4,Pin_4*%
%TO.N,/GPIO4*%
X112220000Y-84390000D03*
%TO.P,J1,5,Pin_5*%
%TO.N,/GPIO5*%
X112220000Y-81850000D03*
%TO.P,J1,6,Pin_6*%
%TO.N,/GPIO6*%
X112220000Y-79310000D03*
%TO.P,J1,7,Pin_7*%
%TO.N,/GPIO7*%
X112220000Y-76770000D03*
%TO.P,J1,8,Pin_8*%
%TO.N,/GPIO15*%
X112220000Y-74230000D03*
%TO.P,J1,9,Pin_9*%
%TO.N,/GPIO16*%
X112220000Y-71690000D03*
%TO.P,J1,10,Pin_10*%
%TO.N,/GPIO17*%
X112220000Y-69150000D03*
%TO.P,J1,11,Pin_11*%
%TO.N,/GPIO18*%
X112220000Y-66610000D03*
%TO.P,J1,12,Pin_12*%
%TO.N,/GPIO8*%
X112220000Y-64070000D03*
%TO.P,J1,13,Pin_13*%
%TO.N,/GPIO3*%
X112220000Y-61530000D03*
%TO.P,J1,14,Pin_14*%
%TO.N,/GPIO46*%
X112220000Y-58990000D03*
%TO.P,J1,15,Pin_15*%
%TO.N,/GPIO9-SDO*%
X112220000Y-56450000D03*
%TO.P,J1,16,Pin_16*%
%TO.N,/GPIO10-SCk*%
X112220000Y-53910000D03*
%TO.P,J1,17,Pin_17*%
%TO.N,/GPIO11-SDI*%
X112220000Y-51370000D03*
%TO.P,J1,18,Pin_18*%
%TO.N,/GPIO12-DC*%
X112220000Y-48830000D03*
%TO.P,J1,19,Pin_19*%
%TO.N,/GPIO13-RESET*%
X112220000Y-46290000D03*
%TO.P,J1,20,Pin_20*%
%TO.N,/GPIO14-CS*%
X112220000Y-43750000D03*
%TO.P,J1,21,Pin_21*%
%TO.N,5V*%
X112220000Y-41210000D03*
%TO.P,J1,22,Pin_22*%
%TO.N,GND*%
X112220000Y-38670000D03*
%TD*%
D10*
%TO.P,J2,1,Pin_1*%
%TO.N,GND*%
X135070000Y-38660000D03*
D11*
%TO.P,J2,2,Pin_2*%
X135070000Y-41200000D03*
%TO.P,J2,3,Pin_3*%
%TO.N,/GPIO19*%
X135070000Y-43740000D03*
%TO.P,J2,4,Pin_4*%
%TO.N,/GPIO20*%
X135070000Y-46280000D03*
%TO.P,J2,5,Pin_5*%
%TO.N,/GPIO21-BSW3*%
X135070000Y-48820000D03*
%TO.P,J2,6,Pin_6*%
%TO.N,/GPIO47-BSW2*%
X135070000Y-51360000D03*
%TO.P,J2,7,Pin_7*%
%TO.N,/GPIO48-BSW1*%
X135070000Y-53900000D03*
%TO.P,J2,8,Pin_8*%
%TO.N,/GPIO45*%
X135070000Y-56440000D03*
%TO.P,J2,9,Pin_9*%
%TO.N,/GPIO0*%
X135070000Y-58980000D03*
%TO.P,J2,10,Pin_10*%
%TO.N,/GPIO35*%
X135070000Y-61520000D03*
%TO.P,J2,11,Pin_11*%
%TO.N,/GPIO36*%
X135070000Y-64060000D03*
%TO.P,J2,12,Pin_12*%
%TO.N,/GPIO37-chB_S*%
X135070000Y-66600000D03*
%TO.P,J2,13,Pin_13*%
%TO.N,/GPIO38_chA_S*%
X135070000Y-69140000D03*
%TO.P,J2,14,Pin_14*%
%TO.N,/GPIO39-chB_Y*%
X135070000Y-71680000D03*
%TO.P,J2,15,Pin_15*%
%TO.N,/GPIO40-chA_Y*%
X135070000Y-74220000D03*
%TO.P,J2,16,Pin_16*%
%TO.N,/GPIO41-chB_X*%
X135070000Y-76760000D03*
%TO.P,J2,17,Pin_17*%
%TO.N,/GPIO42-chA_X*%
X135070000Y-79300000D03*
%TO.P,J2,18,Pin_18*%
%TO.N,/GPIO2-SDA*%
X135070000Y-81840000D03*
%TO.P,J2,19,Pin_19*%
%TO.N,/GPIO1-SCL*%
X135070000Y-84380000D03*
%TO.P,J2,20,Pin_20*%
%TO.N,/RX*%
X135070000Y-86920000D03*
%TO.P,J2,21,Pin_21*%
%TO.N,/TX*%
X135070000Y-89460000D03*
%TO.P,J2,22,Pin_22*%
%TO.N,GND*%
X135070000Y-92000000D03*
%TD*%
D16*
%TO.N,3V3*%
X81580000Y-66780000D03*
X78800000Y-46260000D03*
X78830000Y-63970000D03*
X145510000Y-94300000D03*
X151780000Y-86700000D03*
X128240000Y-110907500D03*
X145450000Y-101020000D03*
%TO.N,Net-(C5-Pad1)*%
X133730000Y-108916860D03*
X135089057Y-113960000D03*
X128270000Y-114020000D03*
%TO.N,/GPIO38_chA_S*%
X130390000Y-81010000D03*
%TO.N,/GPIO41-chB_X*%
X89990000Y-94690000D03*
X98820000Y-92300000D03*
X104220000Y-97540000D03*
%TO.N,/GPIO42-chA_X*%
X96700000Y-92640000D03*
X81955000Y-113795000D03*
X81900000Y-106690000D03*
X104200000Y-99610000D03*
%TO.N,/GPIO48-BSW1*%
X85220000Y-89230000D03*
X104250000Y-95930000D03*
%TO.N,/GPIO37-chB_S*%
X131470000Y-81880000D03*
%TO.N,/GPIO39-chB_Y*%
X149020000Y-95570000D03*
X153130000Y-98550000D03*
%TO.N,Net-(R3-Pad1)*%
X70870000Y-116760000D03*
X74805000Y-106665000D03*
%TD*%
D17*
%TO.N,3V3*%
X126880000Y-95930000D02*
X140390000Y-95930000D01*
X160110000Y-69480000D02*
X160110000Y-68890000D01*
X122740000Y-91790000D02*
X112200000Y-91790000D01*
X78800000Y-46260000D02*
X78830000Y-46290000D01*
X78830000Y-46290000D02*
X78830000Y-63970000D01*
X78830000Y-63970000D02*
X81580000Y-66720000D01*
X143880000Y-95930000D02*
X145510000Y-94300000D01*
X145450000Y-101020000D02*
X145420000Y-100990000D01*
X140390000Y-95960000D02*
X140390000Y-95930000D01*
X126960000Y-96010000D02*
X126880000Y-95930000D01*
X145420000Y-100990000D02*
X145440000Y-96220000D01*
X151780000Y-86700000D02*
X151780000Y-77810000D01*
X145450000Y-101020000D02*
X140390000Y-95960000D01*
X128240000Y-110907500D02*
X126960000Y-109627500D01*
X151780000Y-77810000D02*
X160110000Y-69480000D01*
X145440000Y-96220000D02*
X145440000Y-94370000D01*
X140390000Y-95930000D02*
X143880000Y-95930000D01*
X81580000Y-66720000D02*
X81580000Y-66780000D01*
X145440000Y-94370000D02*
X145510000Y-94300000D01*
X126960000Y-96010000D02*
X122740000Y-91790000D01*
X126960000Y-109627500D02*
X126960000Y-96010000D01*
%TO.N,GND*%
X159530000Y-66350000D02*
X138530000Y-87350000D01*
X160110000Y-66350000D02*
X159530000Y-66350000D01*
X138530000Y-88540000D02*
X135070000Y-92000000D01*
X138530000Y-87350000D02*
X138530000Y-88540000D01*
%TO.N,Net-(C5-Pad1)*%
X128350000Y-113960000D02*
X128410000Y-113960000D01*
X133730000Y-113960000D02*
X128470000Y-113960000D01*
X133730000Y-108916860D02*
X133730000Y-113960000D01*
X135200000Y-113849057D02*
X135249057Y-113849057D01*
X135089057Y-113960000D02*
X133730000Y-113960000D01*
X128270000Y-114020000D02*
X128350000Y-113960000D01*
X128470000Y-113960000D02*
X128270000Y-114020000D01*
%TO.N,Net-(C6-Pad1)*%
X114299100Y-110800000D02*
X114269100Y-110770000D01*
%TO.N,/GPIO1-SCL*%
X157470000Y-63810000D02*
X136900000Y-84380000D01*
X136900000Y-84380000D02*
X135070000Y-84380000D01*
X160110000Y-63810000D02*
X157470000Y-63810000D01*
%TO.N,/GPIO38_chA_S*%
X132040000Y-69140000D02*
X135070000Y-69140000D01*
X130390000Y-81010000D02*
X130390000Y-70790000D01*
X130390000Y-81010000D02*
X130440000Y-81060000D01*
X130390000Y-70790000D02*
X132040000Y-69140000D01*
%TO.N,/GPIO2-SDA*%
X155640000Y-61270000D02*
X135070000Y-81840000D01*
X160110000Y-61270000D02*
X155640000Y-61270000D01*
%TO.N,/GPIO41-chB_X*%
X104250000Y-97570000D02*
X104290000Y-97570000D01*
X89710000Y-104480000D02*
X89710000Y-95380000D01*
X89710000Y-95380000D02*
X89710000Y-95000000D01*
X90020000Y-94690000D02*
X89950000Y-94760000D01*
X104190000Y-97570000D02*
X104220000Y-97540000D01*
X98820000Y-92300000D02*
X104090000Y-97570000D01*
X89990000Y-94720000D02*
X89990000Y-94690000D01*
X86280000Y-107910000D02*
X88830000Y-105360000D01*
X86280000Y-113360000D02*
X86280000Y-107910000D01*
X104220000Y-97540000D02*
X104250000Y-97570000D01*
X89710000Y-95000000D02*
X89990000Y-94720000D01*
X104090000Y-97570000D02*
X104190000Y-97570000D01*
X89990000Y-94690000D02*
X90020000Y-94690000D01*
X88830000Y-105360000D02*
X89710000Y-104480000D01*
%TO.N,/GPIO42-chA_X*%
X104200000Y-99610000D02*
X104200000Y-99580000D01*
X103640000Y-99580000D02*
X104200000Y-99610000D01*
X81900000Y-106690000D02*
X81930000Y-106760000D01*
X81955000Y-113795000D02*
X81900000Y-113740000D01*
X81900000Y-113740000D02*
X81900000Y-106690000D01*
X96700000Y-92640000D02*
X103640000Y-99580000D01*
%TO.N,/GPIO48-BSW1*%
X97550000Y-89230000D02*
X104250000Y-95930000D01*
X85220000Y-89230000D02*
X97550000Y-89230000D01*
%TO.N,/GPIO37-chB_S*%
X128540000Y-82440000D02*
X128540000Y-69970000D01*
X131470000Y-81880000D02*
X130720000Y-82630000D01*
X128540000Y-69970000D02*
X131910000Y-66600000D01*
X128730000Y-82630000D02*
X128540000Y-82440000D01*
X130720000Y-82630000D02*
X128730000Y-82630000D01*
X131910000Y-66600000D02*
X135070000Y-66600000D01*
%TO.N,/GPIO39-chB_Y*%
X145940000Y-92490000D02*
X144830000Y-92490000D01*
X153160000Y-103920000D02*
X153160000Y-98680000D01*
X153130000Y-98650000D02*
X153130000Y-98550000D01*
X144830000Y-92490000D02*
X142850000Y-94470000D01*
X132640000Y-94470000D02*
X132350000Y-94180000D01*
X153160000Y-98680000D02*
X153130000Y-98650000D01*
X142850000Y-94470000D02*
X132640000Y-94470000D01*
X153030000Y-98550000D02*
X153130000Y-98650000D01*
X151310000Y-105770000D02*
X153160000Y-103920000D01*
X149020000Y-95570000D02*
X145940000Y-92490000D01*
X151310000Y-117800000D02*
X151310000Y-105770000D01*
X132350000Y-94180000D02*
X132350000Y-74400000D01*
X153780000Y-118280000D02*
X151790000Y-118280000D01*
X132350000Y-74400000D02*
X135070000Y-71680000D01*
X151790000Y-118280000D02*
X151310000Y-117800000D01*
X153130000Y-98550000D02*
X153030000Y-98550000D01*
%TO.N,Net-(R3-Pad1)*%
X74805000Y-112825000D02*
X74805000Y-106665000D01*
X70870000Y-116760000D02*
X74805000Y-112825000D01*
X74805000Y-106665000D02*
X74770000Y-106700000D01*
%TD*%
D18*
X81580000Y-66780000D03*
X78800000Y-46260000D03*
X78830000Y-63970000D03*
X145510000Y-94300000D03*
X151780000Y-86700000D03*
X128240000Y-110907500D03*
X145450000Y-101020000D03*
X133730000Y-108916860D03*
X135089057Y-113960000D03*
X128270000Y-114020000D03*
X130390000Y-81010000D03*
X89990000Y-94690000D03*
X98820000Y-92300000D03*
X104220000Y-97540000D03*
X96700000Y-92640000D03*
X81955000Y-113795000D03*
X81900000Y-106690000D03*
X104200000Y-99610000D03*
X85220000Y-89230000D03*
X104250000Y-95930000D03*
X131470000Y-81880000D03*
X149020000Y-95570000D03*
X153130000Y-98550000D03*
X70870000Y-116760000D03*
X74805000Y-106665000D03*
D19*
X148700000Y-120750000D03*
X91350000Y-120750000D03*
X166500000Y-35900000D03*
X73650000Y-35900000D03*
X75620000Y-49360000D03*
X75620000Y-51900000D03*
X75620000Y-54440000D03*
X75620000Y-56980000D03*
X75620000Y-59520000D03*
X75620000Y-62060000D03*
X75620000Y-64600000D03*
X75620000Y-67140000D03*
X75620000Y-69680000D03*
X75620000Y-72220000D03*
X75620000Y-74760000D03*
X75620000Y-77300000D03*
X75620000Y-79840000D03*
X75620000Y-82380000D03*
X86280000Y-118360000D03*
X86280000Y-113360000D03*
X86280000Y-115860000D03*
D20*
X78780000Y-121460000D03*
X78780000Y-110260000D03*
D19*
X71780000Y-113360000D03*
X71780000Y-118360000D03*
X114269100Y-108270000D03*
X114269100Y-110770000D03*
X114269100Y-113270000D03*
X153780000Y-113280000D03*
X153780000Y-118280000D03*
X153780000Y-115780000D03*
D20*
X161280000Y-110180000D03*
X161280000Y-121380000D03*
D19*
X168280000Y-118280000D03*
X168280000Y-113280000D03*
X160110000Y-46030000D03*
X160110000Y-48570000D03*
X160110000Y-51110000D03*
X160110000Y-53650000D03*
X160110000Y-56190000D03*
X160110000Y-58730000D03*
X160110000Y-61270000D03*
X160110000Y-63810000D03*
X160110000Y-66350000D03*
X160110000Y-68890000D03*
X112220000Y-92010000D03*
X112220000Y-89470000D03*
X112220000Y-86930000D03*
X112220000Y-84390000D03*
X112220000Y-81850000D03*
X112220000Y-79310000D03*
X112220000Y-76770000D03*
X112220000Y-74230000D03*
X112220000Y-71690000D03*
X112220000Y-69150000D03*
X112220000Y-66610000D03*
X112220000Y-64070000D03*
X112220000Y-61530000D03*
X112220000Y-58990000D03*
X112220000Y-56450000D03*
X112220000Y-53910000D03*
X112220000Y-51370000D03*
X112220000Y-48830000D03*
X112220000Y-46290000D03*
X112220000Y-43750000D03*
X112220000Y-41210000D03*
X112220000Y-38670000D03*
X135070000Y-38660000D03*
X135070000Y-41200000D03*
X135070000Y-43740000D03*
X135070000Y-46280000D03*
X135070000Y-48820000D03*
X135070000Y-51360000D03*
X135070000Y-53900000D03*
X135070000Y-56440000D03*
X135070000Y-58980000D03*
X135070000Y-61520000D03*
X135070000Y-64060000D03*
X135070000Y-66600000D03*
X135070000Y-69140000D03*
X135070000Y-71680000D03*
X135070000Y-74220000D03*
X135070000Y-76760000D03*
X135070000Y-79300000D03*
X135070000Y-81840000D03*
X135070000Y-84380000D03*
X135070000Y-86920000D03*
X135070000Y-89460000D03*
X135070000Y-92000000D03*
M02*
