M48
; DRILL file {KiCad 8.0.1-rc1} date 2024-09-02T14:56:07-0400
; FORMAT={-:-/ absolute / metric / decimal}
; #@! TF.CreationDate,2024-09-02T14:56:07-04:00
; #@! TF.GenerationSoftware,Kicad,Pcbnew,8.0.1-rc1
; #@! TF.FileFunction,MixedPlating,1,2
FMAT,2
METRIC
; #@! TA.AperFunction,Plated,PTH,ViaDrill
T1C0.300
; #@! TA.AperFunction,NonPlated,NPTH,ComponentDrill
T2C0.900
; #@! TA.AperFunction,NonPlated,NPTH,ComponentDrill
T3C1.200
%
G90
G05
T1
X45.6Y-83.5
X45.6Y-106.528
X55.6Y-83.5
X65.6Y-83.5
X71.0Y-106.579
X75.6Y-83.5
X77.15Y-99.0
X78.15Y-99.0
X79.15Y-98.0
X79.15Y-99.0
X80.0Y-93.65
X80.15Y-98.0
X80.15Y-99.0
X81.15Y-98.0
X81.15Y-99.0
X82.15Y-98.0
X82.15Y-99.0
X82.36Y-86.98
X83.9Y-88.8
X85.6Y-83.5
X90.465Y-94.424
X91.215Y-87.924
X92.171Y-96.88
X93.715Y-86.424
X95.6Y-83.5
X96.375Y-106.604
X96.715Y-87.924
X98.215Y-93.424
X103.215Y-86.424
X105.6Y-83.5
X113.5Y-94.4
X113.8Y-93.1
X113.9Y-95.7
X115.6Y-83.5
X115.6Y-98.2
X120.6Y-87.0
X121.825Y-106.63
X125.6Y-83.5
X135.6Y-83.5
X145.6Y-83.5
X147.2Y-106.63
X152.0Y-96.3
X155.6Y-83.5
X156.2Y-93.5
X160.2Y-91.1
X164.2Y-88.6
X165.6Y-83.5
X172.6Y-106.63
X175.6Y-83.5
X177.1Y-93.8
X177.6Y-89.8
X177.8Y-95.2
X178.774Y-88.574
X178.9Y-96.8
X180.3Y-87.2
X182.2Y-98.5
X183.9Y-98.5
X184.2Y-86.5
X185.6Y-83.5
X185.6Y-87.3
X185.7Y-97.7
X187.3Y-88.3
X188.6Y-94.8
X188.7Y-91.4
X188.9Y-93.4
X195.6Y-83.5
T2
X45.995Y-91.0
X45.995Y-94.0
T3
X55.545Y-92.5
X63.045Y-92.5
M30
