G04*
G04 #@! TF.GenerationSoftware,Altium Limited,Altium Designer,22.2.1 (43)*
G04*
G04 Layer_Color=65535*
%FSLAX25Y25*%
%MOIN*%
G70*
G04*
G04 #@! TF.SameCoordinates,0C125BAE-DB43-46C8-8EB7-A3A977E46161*
G04*
G04*
G04 #@! TF.FilePolarity,Positive*
G04*
G01*
G75*
%ADD10C,0.00709*%
%ADD11C,0.00600*%
%ADD12C,0.00700*%
D10*
X5000Y61047D02*
X53500D01*
X5000Y35457D02*
X53500D01*
X5000Y86638D02*
X53500D01*
X5000Y112228D02*
X53500D01*
X5000Y137819D02*
X53500D01*
X5000Y163409D02*
X53500D01*
X5000Y189000D02*
X53500D01*
X1500Y10000D02*
X7500D01*
X1500D02*
Y214500D01*
X52500Y10000D02*
X57500D01*
Y214500D01*
X1500D02*
X57500D01*
D11*
X19567Y8405D02*
Y10905D01*
X9567D02*
X19567D01*
X9567Y905D02*
X19567D01*
Y3405D01*
X22067Y905D01*
X29567Y8405D02*
X32067Y10905D01*
X37067D02*
X39567Y8405D01*
X22067Y10905D02*
X27067D01*
X39567Y8405D02*
X42067Y10905D01*
X32067D02*
X37067D01*
X27067D02*
X29567Y8405D01*
X19567D02*
X22067Y10905D01*
X47067D02*
X49567Y8405D01*
X42067Y10905D02*
X47067D01*
X29567Y3405D02*
X32067Y905D01*
X37067D02*
X39567Y3405D01*
X22067Y905D02*
X27067D01*
X9567D02*
Y10905D01*
X39567Y3405D02*
X42067Y905D01*
X32067D02*
X37067D01*
X27067D02*
X29567Y3405D01*
X47067Y905D02*
X49567Y3405D01*
X42067Y905D02*
X47067D01*
X49567Y3405D02*
Y8405D01*
D12*
X44699Y13200D02*
Y17199D01*
X42700Y15199D01*
X45366D01*
X32700Y16532D02*
X33366Y17199D01*
X34699D01*
X35366Y16532D01*
Y15866D01*
X34699Y15199D01*
X34033D01*
X34699D01*
X35366Y14533D01*
Y13867D01*
X34699Y13200D01*
X33366D01*
X32700Y13867D01*
X25866Y13200D02*
X23200D01*
X25866Y15866D01*
Y16532D01*
X25199Y17199D01*
X23866D01*
X23200Y16532D01*
X13700Y13200D02*
X15033D01*
X14367D01*
Y17199D01*
X13700Y16532D01*
M02*
