M48
METRIC,TZ
T1C0.300
T2C1.000
T3C1.194
T4C1.500
%
G90
G05
T1
X70870Y-116760
X74805Y-106665
X78800Y-46260
X78830Y-63970
X81580Y-66780
X81900Y-106690
X81955Y-113795
X85220Y-89230
X89990Y-94690
X96700Y-92640
X98820Y-92300
X104200Y-99610
X104220Y-97540
X104250Y-95930
X128240Y-110908
X128270Y-114020
X130390Y-81010
X131470Y-81880
X133730Y-108917
X135089Y-113960
X145450Y-101020
X145510Y-94300
X149020Y-95570
X151780Y-86700
X153130Y-98550
T2
X71780Y-113360
X71780Y-118360
X75620Y-49360
X75620Y-51900
X75620Y-54440
X75620Y-56980
X75620Y-59520
X75620Y-62060
X75620Y-64600
X75620Y-67140
X75620Y-69680
X75620Y-72220
X75620Y-74760
X75620Y-77300
X75620Y-79840
X75620Y-82380
X86280Y-113360
X86280Y-115860
X86280Y-118360
X112220Y-38670
X112220Y-41210
X112220Y-43750
X112220Y-46290
X112220Y-48830
X112220Y-51370
X112220Y-53910
X112220Y-56450
X112220Y-58990
X112220Y-61530
X112220Y-64070
X112220Y-66610
X112220Y-69150
X112220Y-71690
X112220Y-74230
X112220Y-76770
X112220Y-79310
X112220Y-81850
X112220Y-84390
X112220Y-86930
X112220Y-89470
X112220Y-92010
X135070Y-38660
X135070Y-41200
X135070Y-43740
X135070Y-46280
X135070Y-48820
X135070Y-51360
X135070Y-53900
X135070Y-56440
X135070Y-58980
X135070Y-61520
X135070Y-64060
X135070Y-66600
X135070Y-69140
X135070Y-71680
X135070Y-74220
X135070Y-76760
X135070Y-79300
X135070Y-81840
X135070Y-84380
X135070Y-86920
X135070Y-89460
X135070Y-92000
X153780Y-113280
X153780Y-115780
X153780Y-118280
X160110Y-46030
X160110Y-48570
X160110Y-51110
X160110Y-53650
X160110Y-56190
X160110Y-58730
X160110Y-61270
X160110Y-63810
X160110Y-66350
X160110Y-68890
X168280Y-113280
X168280Y-118280
T3
X114269Y-108270
X114269Y-110770
X114269Y-113270
T4
G00X79430Y-110260
M15
G01X78130Y-110260
M16
G05
G00X79430Y-121460
M15
G01X78130Y-121460
M16
G05
G00X160630Y-110180
M15
G01X161930Y-110180
M16
G05
G00X160630Y-121380
M15
G01X161930Y-121380
M16
G05
M30
