%TF.GenerationSoftware,KiCad,Pcbnew,8.0.1-rc1*%
%TF.CreationDate,2024-08-02T07:45:06-04:00*%
%TF.ProjectId,Schema,53636865-6d61-42e6-9b69-6361645f7063,rev?*%
%TF.SameCoordinates,Original*%
%TF.FileFunction,Copper,L1,Top*%
%TF.FilePolarity,Positive*%
%FSLAX46Y46*%
G04 Gerber Fmt 4.6, Leading zero omitted, Abs format (unit mm)*
G04 Created by KiCad (PCBNEW 8.0.1-rc1) date 2024-08-02 07:45:06*
%MOMM*%
%LPD*%
G01*
G04 APERTURE LIST*
G04 Aperture macros list*
%AMRoundRect*
0 Rectangle with rounded corners*
0 $1 Rounding radius*
0 $2 $3 $4 $5 $6 $7 $8 $9 X,Y pos of 4 corners*
0 Add a 4 corners polygon primitive as box body*
4,1,4,$2,$3,$4,$5,$6,$7,$8,$9,$2,$3,0*
0 Add four circle primitives for the rounded corners*
1,1,$1+$1,$2,$3*
1,1,$1+$1,$4,$5*
1,1,$1+$1,$6,$7*
1,1,$1+$1,$8,$9*
0 Add four rect primitives between the rounded corners*
20,1,$1+$1,$2,$3,$4,$5,0*
20,1,$1+$1,$4,$5,$6,$7,0*
20,1,$1+$1,$6,$7,$8,$9,0*
20,1,$1+$1,$8,$9,$2,$3,0*%
G04 Aperture macros list end*
%ADD10C,0.100000*%
%TA.AperFunction,NonConductor*%
%ADD11C,0.100000*%
%TD*%
%TA.AperFunction,SMDPad,CuDef*%
%ADD12RoundRect,0.250000X0.450000X-0.350000X0.450000X0.350000X-0.450000X0.350000X-0.450000X-0.350000X0*%
%TD*%
%TA.AperFunction,SMDPad,CuDef*%
%ADD13RoundRect,0.250000X-0.475000X0.337500X-0.475000X-0.337500X0.475000X-0.337500X0.475000X0.337500X0*%
%TD*%
%TA.AperFunction,ComponentPad*%
%ADD14R,1.700000X1.700000*%
%TD*%
%TA.AperFunction,ComponentPad*%
%ADD15O,1.700000X1.700000*%
%TD*%
%TA.AperFunction,SMDPad,CuDef*%
%ADD16RoundRect,0.250000X-0.450000X0.350000X-0.450000X-0.350000X0.450000X-0.350000X0.450000X0.350000X0*%
%TD*%
%TA.AperFunction,ComponentPad*%
%ADD17R,2.000000X2.000000*%
%TD*%
%TA.AperFunction,ComponentPad*%
%ADD18C,2.000000*%
%TD*%
%TA.AperFunction,ComponentPad*%
%ADD19R,3.200000X2.000000*%
%TD*%
%TA.AperFunction,ComponentPad*%
%ADD20C,1.701800*%
%TD*%
%TA.AperFunction,ViaPad*%
%ADD21C,0.600000*%
%TD*%
%TA.AperFunction,Conductor*%
%ADD22C,0.200000*%
%TD*%
%ADD23C,0.300000*%
%ADD24C,0.350000*%
%ADD25O,2.800000X1.500000*%
G04 APERTURE END LIST*
D10*
D11*
G36*
X110272923Y-120360481D02*
G01*
X111720062Y-120360481D01*
X111720062Y-121017006D01*
X111140474Y-121017006D01*
X111140474Y-121626636D01*
X111682693Y-121626636D01*
X111682693Y-122283161D01*
X111140474Y-122283161D01*
X111140474Y-123033475D01*
X111777215Y-123033475D01*
X111777215Y-123690000D01*
X110272923Y-123690000D01*
X110272923Y-120360481D01*
G37*
G36*
X113708688Y-120360481D02*
G01*
X113708688Y-121017006D01*
X113193579Y-121017006D01*
X113193579Y-123690000D01*
X112326029Y-123690000D01*
X112326029Y-121017006D01*
X111813119Y-121017006D01*
X111813119Y-120360481D01*
X113708688Y-120360481D01*
G37*
G36*
X115921528Y-121814214D02*
G01*
X115053977Y-121814214D01*
X115053977Y-121246350D01*
X115050687Y-121098491D01*
X115031109Y-120951041D01*
X115026133Y-120937871D01*
X114903768Y-120876322D01*
X114771447Y-120942010D01*
X114767480Y-120951060D01*
X114743620Y-121100774D01*
X114738932Y-121258151D01*
X114738904Y-121273461D01*
X114738904Y-122790942D01*
X114742922Y-122946257D01*
X114764020Y-123091904D01*
X114767480Y-123101618D01*
X114897173Y-123174159D01*
X115023935Y-123100153D01*
X115048227Y-122952548D01*
X115053713Y-122799802D01*
X115053977Y-122749909D01*
X115053977Y-122330055D01*
X115921528Y-122330055D01*
X115921528Y-122459748D01*
X115919739Y-122614283D01*
X115912870Y-122780315D01*
X115898344Y-122947256D01*
X115873156Y-123102755D01*
X115848255Y-123194675D01*
X115776927Y-123337048D01*
X115675719Y-123455658D01*
X115555020Y-123553598D01*
X115524389Y-123574228D01*
X115392131Y-123645395D01*
X115245219Y-123696228D01*
X115083653Y-123726728D01*
X114930261Y-123736735D01*
X114907431Y-123736894D01*
X114747117Y-123730408D01*
X114599565Y-123710948D01*
X114446562Y-123672823D01*
X114310229Y-123617754D01*
X114278750Y-123601339D01*
X114153009Y-123516447D01*
X114044159Y-123402817D01*
X113967795Y-123268865D01*
X113951221Y-123224717D01*
X113912613Y-123070286D01*
X113891320Y-122923565D01*
X113877671Y-122753564D01*
X113872055Y-122589318D01*
X113871353Y-122500781D01*
X113871353Y-121540907D01*
X113872510Y-121394236D01*
X113876666Y-121247393D01*
X113886112Y-121095008D01*
X113895533Y-121008946D01*
X113931859Y-120866575D01*
X114000351Y-120728800D01*
X114042812Y-120666762D01*
X114148325Y-120553452D01*
X114268217Y-120466783D01*
X114382798Y-120408108D01*
X114525179Y-120358263D01*
X114680297Y-120326879D01*
X114830793Y-120314417D01*
X114883251Y-120313586D01*
X115044492Y-120320599D01*
X115192901Y-120341636D01*
X115346797Y-120382852D01*
X115483931Y-120442386D01*
X115515596Y-120460132D01*
X115642226Y-120547890D01*
X115751248Y-120658858D01*
X115832659Y-120797287D01*
X115843126Y-120824298D01*
X115881025Y-120965894D01*
X115904301Y-121123969D01*
X115916628Y-121287154D01*
X115921222Y-121445500D01*
X115921528Y-121502072D01*
X115921528Y-121814214D01*
G37*
G36*
X118214968Y-120360481D02*
G01*
X118214968Y-123690000D01*
X117347418Y-123690000D01*
X117347418Y-122283161D01*
X117087299Y-122283161D01*
X117087299Y-123690000D01*
X116219748Y-123690000D01*
X116219748Y-120360481D01*
X117087299Y-120360481D01*
X117087299Y-121626636D01*
X117347418Y-121626636D01*
X117347418Y-120360481D01*
X118214968Y-120360481D01*
G37*
G36*
X121283635Y-123690000D02*
G01*
X120395568Y-123690000D01*
X120352337Y-123080369D01*
X120040928Y-123080369D01*
X119989637Y-123690000D01*
X119090579Y-123690000D01*
X119245897Y-122517634D01*
X120030669Y-122517634D01*
X120327424Y-122517634D01*
X120310938Y-122366440D01*
X120294452Y-122206316D01*
X120277965Y-122037262D01*
X120261479Y-121859277D01*
X120244993Y-121672363D01*
X120232628Y-121526317D01*
X120220263Y-121375247D01*
X120207898Y-121219154D01*
X120195533Y-121058039D01*
X120171673Y-121240819D01*
X120149552Y-121414093D01*
X120129169Y-121577862D01*
X120110525Y-121732126D01*
X120088372Y-121923025D01*
X120069309Y-122097025D01*
X120053338Y-122254126D01*
X120037721Y-122426740D01*
X120030669Y-122517634D01*
X119245897Y-122517634D01*
X119531681Y-120360481D01*
X120786845Y-120360481D01*
X121283635Y-123690000D01*
G37*
G36*
X123996196Y-121392163D02*
G01*
X123190195Y-121392163D01*
X123190195Y-121144501D01*
X123181509Y-120996131D01*
X123159420Y-120923949D01*
X123056106Y-120876322D01*
X122938136Y-120936406D01*
X122898820Y-121080900D01*
X122897836Y-121117390D01*
X122912210Y-121268034D01*
X122943265Y-121351863D01*
X123050657Y-121461851D01*
X123176245Y-121547820D01*
X123188729Y-121555561D01*
X123326746Y-121643099D01*
X123451367Y-121726195D01*
X123588306Y-121823819D01*
X123704316Y-121914501D01*
X123815899Y-122014158D01*
X123917794Y-122131486D01*
X123990405Y-122274113D01*
X124034999Y-122436217D01*
X124058616Y-122605332D01*
X124067417Y-122770548D01*
X124068004Y-122829776D01*
X124062783Y-122993404D01*
X124044429Y-123150005D01*
X124004050Y-123301894D01*
X123984473Y-123346350D01*
X123890967Y-123472190D01*
X123771798Y-123565069D01*
X123662072Y-123624787D01*
X123521506Y-123678979D01*
X123368537Y-123715436D01*
X123222152Y-123732953D01*
X123105931Y-123736894D01*
X122958249Y-123730583D01*
X122801491Y-123707914D01*
X122657556Y-123668759D01*
X122510956Y-123605003D01*
X122385917Y-123525134D01*
X122278526Y-123423067D01*
X122198744Y-123294595D01*
X122188555Y-123269413D01*
X122148369Y-123124900D01*
X122124928Y-122966205D01*
X122114212Y-122802372D01*
X122112351Y-122689092D01*
X122112351Y-122470739D01*
X122918353Y-122470739D01*
X122918353Y-122878136D01*
X122925759Y-123025215D01*
X122952058Y-123120669D01*
X123072958Y-123174159D01*
X123201186Y-123106748D01*
X123241650Y-122960917D01*
X123243684Y-122905980D01*
X123237308Y-122757171D01*
X123208972Y-122608708D01*
X123163084Y-122522763D01*
X123045135Y-122422024D01*
X122920579Y-122334157D01*
X122797335Y-122253313D01*
X122757885Y-122228206D01*
X122626642Y-122143421D01*
X122502239Y-122059489D01*
X122375750Y-121966665D01*
X122328506Y-121927055D01*
X122232702Y-121813665D01*
X122159189Y-121674421D01*
X122154849Y-121664005D01*
X122110255Y-121512193D01*
X122090278Y-121359556D01*
X122085973Y-121234626D01*
X122090636Y-121079566D01*
X122107386Y-120926140D01*
X122145454Y-120770034D01*
X122183426Y-120684347D01*
X122273964Y-120564271D01*
X122398299Y-120465628D01*
X122499965Y-120411772D01*
X122645308Y-120359994D01*
X122791290Y-120329791D01*
X122951646Y-120315121D01*
X123027529Y-120313586D01*
X123190195Y-120320410D01*
X123340404Y-120340881D01*
X123494500Y-120380222D01*
X123603454Y-120422763D01*
X123736547Y-120496508D01*
X123854700Y-120599548D01*
X123918527Y-120697536D01*
X123962747Y-120838744D01*
X123985274Y-120994978D01*
X123994300Y-121141819D01*
X123996196Y-121260272D01*
X123996196Y-121392163D01*
G37*
G36*
X126396615Y-120360481D02*
G01*
X125899825Y-121864040D01*
X126444242Y-123690000D01*
X125547383Y-123690000D01*
X125197138Y-122262644D01*
X125197138Y-123690000D01*
X124329588Y-123690000D01*
X124329588Y-120360481D01*
X125197138Y-120360481D01*
X125197138Y-121653747D01*
X125582554Y-120360481D01*
X126396615Y-120360481D01*
G37*
G36*
X126583461Y-120360481D02*
G01*
X128030600Y-120360481D01*
X128030600Y-121017006D01*
X127451011Y-121017006D01*
X127451011Y-121626636D01*
X127993230Y-121626636D01*
X127993230Y-122283161D01*
X127451011Y-122283161D01*
X127451011Y-123033475D01*
X128087752Y-123033475D01*
X128087752Y-123690000D01*
X126583461Y-123690000D01*
X126583461Y-120360481D01*
G37*
G36*
X130019225Y-120360481D02*
G01*
X130019225Y-121017006D01*
X129504117Y-121017006D01*
X129504117Y-123690000D01*
X128636566Y-123690000D01*
X128636566Y-121017006D01*
X128123656Y-121017006D01*
X128123656Y-120360481D01*
X130019225Y-120360481D01*
G37*
G36*
X132232065Y-121814214D02*
G01*
X131364515Y-121814214D01*
X131364515Y-121246350D01*
X131361224Y-121098491D01*
X131341647Y-120951041D01*
X131336671Y-120937871D01*
X131214305Y-120876322D01*
X131081985Y-120942010D01*
X131078018Y-120951060D01*
X131054157Y-121100774D01*
X131049469Y-121258151D01*
X131049441Y-121273461D01*
X131049441Y-122790942D01*
X131053460Y-122946257D01*
X131074557Y-123091904D01*
X131078018Y-123101618D01*
X131207711Y-123174159D01*
X131334473Y-123100153D01*
X131358764Y-122952548D01*
X131364250Y-122799802D01*
X131364515Y-122749909D01*
X131364515Y-122330055D01*
X132232065Y-122330055D01*
X132232065Y-122459748D01*
X132230276Y-122614283D01*
X132223407Y-122780315D01*
X132208881Y-122947256D01*
X132183694Y-123102755D01*
X132158792Y-123194675D01*
X132087464Y-123337048D01*
X131986256Y-123455658D01*
X131865558Y-123553598D01*
X131834926Y-123574228D01*
X131702669Y-123645395D01*
X131555757Y-123696228D01*
X131394190Y-123726728D01*
X131240798Y-123736735D01*
X131217969Y-123736894D01*
X131057654Y-123730408D01*
X130910103Y-123710948D01*
X130757100Y-123672823D01*
X130620766Y-123617754D01*
X130589288Y-123601339D01*
X130463547Y-123516447D01*
X130354697Y-123402817D01*
X130278332Y-123268865D01*
X130261758Y-123224717D01*
X130223150Y-123070286D01*
X130201857Y-122923565D01*
X130188208Y-122753564D01*
X130182593Y-122589318D01*
X130181891Y-122500781D01*
X130181891Y-121540907D01*
X130183048Y-121394236D01*
X130187204Y-121247393D01*
X130196649Y-121095008D01*
X130206071Y-121008946D01*
X130242396Y-120866575D01*
X130310888Y-120728800D01*
X130353349Y-120666762D01*
X130458862Y-120553452D01*
X130578755Y-120466783D01*
X130693335Y-120408108D01*
X130835716Y-120358263D01*
X130990834Y-120326879D01*
X131141331Y-120314417D01*
X131193789Y-120313586D01*
X131355030Y-120320599D01*
X131503438Y-120341636D01*
X131657334Y-120382852D01*
X131794469Y-120442386D01*
X131826133Y-120460132D01*
X131952763Y-120547890D01*
X132061785Y-120658858D01*
X132143196Y-120797287D01*
X132153663Y-120824298D01*
X132191563Y-120965894D01*
X132214838Y-121123969D01*
X132227165Y-121287154D01*
X132231759Y-121445500D01*
X132232065Y-121502072D01*
X132232065Y-121814214D01*
G37*
G36*
X134525505Y-120360481D02*
G01*
X134525505Y-123690000D01*
X133657955Y-123690000D01*
X133657955Y-122283161D01*
X133397836Y-122283161D01*
X133397836Y-123690000D01*
X132530286Y-123690000D01*
X132530286Y-120360481D01*
X133397836Y-120360481D01*
X133397836Y-121626636D01*
X133657955Y-121626636D01*
X133657955Y-120360481D01*
X134525505Y-120360481D01*
G37*
D12*
%TO.P,R3,1*%
%TO.N,Net-(R3-Pad1)*%
X79810000Y-96472500D03*
%TO.P,R3,2*%
%TO.N,/GPIO48-BSW1*%
X79810000Y-94472500D03*
%TD*%
%TO.P,R12,1*%
%TO.N,3V3*%
X130340000Y-110907500D03*
%TO.P,R12,2*%
%TO.N,Net-(C6-Pad1)*%
X130340000Y-108907500D03*
%TD*%
%TO.P,R10,1*%
%TO.N,3V3*%
X136840000Y-110907500D03*
%TO.P,R10,2*%
%TO.N,Net-(C5-Pad1)*%
X136840000Y-108907500D03*
%TD*%
D13*
%TO.P,C5,1*%
%TO.N,Net-(C5-Pad1)*%
X136840000Y-115832500D03*
%TO.P,C5,2*%
%TO.N,GND*%
X136840000Y-117907500D03*
%TD*%
D14*
%TO.P,J4,1,Pin_1*%
%TO.N,3V3*%
X75620000Y-49360000D03*
D15*
%TO.P,J4,2,Pin_2*%
%TO.N,GND*%
X75620000Y-51900000D03*
%TO.P,J4,3,Pin_3*%
%TO.N,/GPIO14-CS*%
X75620000Y-54440000D03*
%TO.P,J4,4,Pin_4*%
%TO.N,/GPIO13-RESET*%
X75620000Y-56980000D03*
%TO.P,J4,5,Pin_5*%
%TO.N,/GPIO12-DC*%
X75620000Y-59520000D03*
%TO.P,J4,6,Pin_6*%
%TO.N,/GPIO11-SDI*%
X75620000Y-62060000D03*
%TO.P,J4,7,Pin_7*%
%TO.N,/GPIO10-SCk*%
X75620000Y-64600000D03*
%TO.P,J4,8,Pin_8*%
%TO.N,3V3*%
X75620000Y-67140000D03*
%TO.P,J4,9,Pin_9*%
%TO.N,/GPIO9-SDO*%
X75620000Y-69680000D03*
%TO.P,J4,10,Pin_10*%
%TO.N,/T_CLK*%
X75620000Y-72220000D03*
%TO.P,J4,11,Pin_11*%
%TO.N,/T_CS*%
X75620000Y-74760000D03*
%TO.P,J4,12,Pin_12*%
%TO.N,/T_DIN*%
X75620000Y-77300000D03*
%TO.P,J4,13,Pin_13*%
%TO.N,/T_DO*%
X75620000Y-79840000D03*
%TO.P,J4,14,Pin_14*%
%TO.N,/T_IRQ*%
X75620000Y-82380000D03*
%TD*%
D12*
%TO.P,R1,1*%
%TO.N,3V3*%
X86310000Y-96472500D03*
%TO.P,R1,2*%
%TO.N,/GPIO42-chA_X*%
X86310000Y-94472500D03*
%TD*%
D16*
%TO.P,R4,1*%
%TO.N,3V3*%
X158260000Y-94340000D03*
%TO.P,R4,2*%
%TO.N,/GPIO40-chA_Y*%
X158260000Y-96340000D03*
%TD*%
%TO.P,R16,1*%
%TO.N,/GPIO47-BSW2*%
X164760000Y-94340000D03*
%TO.P,R16,2*%
%TO.N,Net-(R16-Pad2)*%
X164760000Y-96340000D03*
%TD*%
D13*
%TO.P,C8,1*%
%TO.N,3V3*%
X158260000Y-100802500D03*
%TO.P,C8,2*%
%TO.N,GND*%
X158260000Y-102877500D03*
%TD*%
D16*
%TO.P,R13,1*%
%TO.N,3V3*%
X151260000Y-94340000D03*
%TO.P,R13,2*%
%TO.N,/GPIO39-chB_Y*%
X151260000Y-96340000D03*
%TD*%
D17*
%TO.P,SW1,A,A*%
%TO.N,/GPIO42-chA_X*%
X86280000Y-118360000D03*
D18*
%TO.P,SW1,B,B*%
%TO.N,/GPIO41-chB_X*%
X86280000Y-113360000D03*
%TO.P,SW1,C,C*%
%TO.N,GND*%
X86280000Y-115860000D03*
D19*
%TO.P,SW1,MP*%
%TO.N,N/C*%
X78780000Y-121460000D03*
X78780000Y-110260000D03*
D18*
%TO.P,SW1,S1,S1*%
%TO.N,GND*%
X71780000Y-113360000D03*
%TO.P,SW1,S2,S2*%
%TO.N,Net-(R3-Pad1)*%
X71780000Y-118360000D03*
%TD*%
D13*
%TO.P,C2,1*%
%TO.N,3V3*%
X86310000Y-101472500D03*
%TO.P,C2,2*%
%TO.N,GND*%
X86310000Y-103547500D03*
%TD*%
D12*
%TO.P,R9,1*%
%TO.N,Net-(C5-Pad1)*%
X136820000Y-102980000D03*
%TO.P,R9,2*%
%TO.N,/GPIO37-chB_S*%
X136820000Y-100980000D03*
%TD*%
D13*
%TO.P,C6,1*%
%TO.N,Net-(C6-Pad1)*%
X130340000Y-115832500D03*
%TO.P,C6,2*%
%TO.N,GND*%
X130340000Y-117907500D03*
%TD*%
%TO.P,C11,1*%
%TO.N,3V3*%
X151260000Y-100765000D03*
%TO.P,C11,2*%
%TO.N,GND*%
X151260000Y-102840000D03*
%TD*%
%TO.P,C1,1*%
%TO.N,3V3*%
X92340000Y-101490000D03*
%TO.P,C1,2*%
%TO.N,GND*%
X92340000Y-103565000D03*
%TD*%
D12*
%TO.P,R2,1*%
%TO.N,3V3*%
X92310000Y-96472500D03*
%TO.P,R2,2*%
%TO.N,/GPIO41-chB_X*%
X92310000Y-94472500D03*
%TD*%
D20*
%TO.P,SW3,A*%
%TO.N,N/C*%
X114269100Y-108270000D03*
%TO.P,SW3,B*%
X114269100Y-110770000D03*
%TO.P,SW3,C*%
X114269100Y-113270000D03*
%TD*%
D17*
%TO.P,SW2,A,A*%
%TO.N,/GPIO40-chA_Y*%
X153780000Y-113280000D03*
D18*
%TO.P,SW2,B,B*%
%TO.N,/GPIO39-chB_Y*%
X153780000Y-118280000D03*
%TO.P,SW2,C,C*%
%TO.N,GND*%
X153780000Y-115780000D03*
D19*
%TO.P,SW2,MP*%
%TO.N,N/C*%
X161280000Y-110180000D03*
X161280000Y-121380000D03*
D18*
%TO.P,SW2,S1,S1*%
%TO.N,GND*%
X168280000Y-118280000D03*
%TO.P,SW2,S2,S2*%
%TO.N,Net-(R16-Pad2)*%
X168280000Y-113280000D03*
%TD*%
D16*
%TO.P,R11,1*%
%TO.N,/GPIO38_chA_S*%
X130330000Y-100980000D03*
%TO.P,R11,2*%
%TO.N,Net-(C6-Pad1)*%
X130330000Y-102980000D03*
%TD*%
D14*
%TO.P,J3,1,Pin_1*%
%TO.N,/FSYNC*%
X160110000Y-46030000D03*
D15*
%TO.P,J3,2,Pin_2*%
%TO.N,/NCS*%
X160110000Y-48570000D03*
%TO.P,J3,3,Pin_3*%
%TO.N,/INT*%
X160110000Y-51110000D03*
%TO.P,J3,4,Pin_4*%
%TO.N,GND*%
X160110000Y-53650000D03*
%TO.P,J3,5,Pin_5*%
%TO.N,/ECL*%
X160110000Y-56190000D03*
%TO.P,J3,6,Pin_6*%
%TO.N,/EDA*%
X160110000Y-58730000D03*
%TO.P,J3,7,Pin_7*%
%TO.N,/GPIO2-SDA*%
X160110000Y-61270000D03*
%TO.P,J3,8,Pin_8*%
%TO.N,/GPIO1-SCL*%
X160110000Y-63810000D03*
%TO.P,J3,9,Pin_9*%
%TO.N,GND*%
X160110000Y-66350000D03*
%TO.P,J3,10,Pin_10*%
%TO.N,3V3*%
X160110000Y-68890000D03*
%TD*%
D14*
%TO.P,J1,1,Pin_1*%
%TO.N,3V3*%
X112220000Y-92010000D03*
D15*
%TO.P,J1,2,Pin_2*%
X112220000Y-89470000D03*
%TO.P,J1,3,Pin_3*%
%TO.N,/RST*%
X112220000Y-86930000D03*
%TO.P,J1,4,Pin_4*%
%TO.N,/GPIO4*%
X112220000Y-84390000D03*
%TO.P,J1,5,Pin_5*%
%TO.N,/GPIO5*%
X112220000Y-81850000D03*
%TO.P,J1,6,Pin_6*%
%TO.N,/GPIO6*%
X112220000Y-79310000D03*
%TO.P,J1,7,Pin_7*%
%TO.N,/GPIO7*%
X112220000Y-76770000D03*
%TO.P,J1,8,Pin_8*%
%TO.N,/GPIO15*%
X112220000Y-74230000D03*
%TO.P,J1,9,Pin_9*%
%TO.N,/GPIO16*%
X112220000Y-71690000D03*
%TO.P,J1,10,Pin_10*%
%TO.N,/GPIO17*%
X112220000Y-69150000D03*
%TO.P,J1,11,Pin_11*%
%TO.N,/GPIO18*%
X112220000Y-66610000D03*
%TO.P,J1,12,Pin_12*%
%TO.N,/GPIO8*%
X112220000Y-64070000D03*
%TO.P,J1,13,Pin_13*%
%TO.N,/GPIO3*%
X112220000Y-61530000D03*
%TO.P,J1,14,Pin_14*%
%TO.N,/GPIO46*%
X112220000Y-58990000D03*
%TO.P,J1,15,Pin_15*%
%TO.N,/GPIO9-SDO*%
X112220000Y-56450000D03*
%TO.P,J1,16,Pin_16*%
%TO.N,/GPIO10-SCk*%
X112220000Y-53910000D03*
%TO.P,J1,17,Pin_17*%
%TO.N,/GPIO11-SDI*%
X112220000Y-51370000D03*
%TO.P,J1,18,Pin_18*%
%TO.N,/GPIO12-DC*%
X112220000Y-48830000D03*
%TO.P,J1,19,Pin_19*%
%TO.N,/GPIO13-RESET*%
X112220000Y-46290000D03*
%TO.P,J1,20,Pin_20*%
%TO.N,/GPIO14-CS*%
X112220000Y-43750000D03*
%TO.P,J1,21,Pin_21*%
%TO.N,5V*%
X112220000Y-41210000D03*
%TO.P,J1,22,Pin_22*%
%TO.N,GND*%
X112220000Y-38670000D03*
%TD*%
D14*
%TO.P,J2,1,Pin_1*%
%TO.N,GND*%
X135070000Y-38660000D03*
D15*
%TO.P,J2,2,Pin_2*%
X135070000Y-41200000D03*
%TO.P,J2,3,Pin_3*%
%TO.N,/GPIO19*%
X135070000Y-43740000D03*
%TO.P,J2,4,Pin_4*%
%TO.N,/GPIO20*%
X135070000Y-46280000D03*
%TO.P,J2,5,Pin_5*%
%TO.N,/GPIO21-BSW3*%
X135070000Y-48820000D03*
%TO.P,J2,6,Pin_6*%
%TO.N,/GPIO47-BSW2*%
X135070000Y-51360000D03*
%TO.P,J2,7,Pin_7*%
%TO.N,/GPIO48-BSW1*%
X135070000Y-53900000D03*
%TO.P,J2,8,Pin_8*%
%TO.N,/GPIO45*%
X135070000Y-56440000D03*
%TO.P,J2,9,Pin_9*%
%TO.N,/GPIO0*%
X135070000Y-58980000D03*
%TO.P,J2,10,Pin_10*%
%TO.N,/GPIO35*%
X135070000Y-61520000D03*
%TO.P,J2,11,Pin_11*%
%TO.N,/GPIO36*%
X135070000Y-64060000D03*
%TO.P,J2,12,Pin_12*%
%TO.N,/GPIO37-chB_S*%
X135070000Y-66600000D03*
%TO.P,J2,13,Pin_13*%
%TO.N,/GPIO38_chA_S*%
X135070000Y-69140000D03*
%TO.P,J2,14,Pin_14*%
%TO.N,/GPIO39-chB_Y*%
X135070000Y-71680000D03*
%TO.P,J2,15,Pin_15*%
%TO.N,/GPIO40-chA_Y*%
X135070000Y-74220000D03*
%TO.P,J2,16,Pin_16*%
%TO.N,/GPIO41-chB_X*%
X135070000Y-76760000D03*
%TO.P,J2,17,Pin_17*%
%TO.N,/GPIO42-chA_X*%
X135070000Y-79300000D03*
%TO.P,J2,18,Pin_18*%
%TO.N,/GPIO2-SDA*%
X135070000Y-81840000D03*
%TO.P,J2,19,Pin_19*%
%TO.N,/GPIO1-SCL*%
X135070000Y-84380000D03*
%TO.P,J2,20,Pin_20*%
%TO.N,/RX*%
X135070000Y-86920000D03*
%TO.P,J2,21,Pin_21*%
%TO.N,/TX*%
X135070000Y-89460000D03*
%TO.P,J2,22,Pin_22*%
%TO.N,GND*%
X135070000Y-92000000D03*
%TD*%
D21*
%TO.N,3V3*%
X81580000Y-66780000D03*
X78800000Y-46260000D03*
X78830000Y-63970000D03*
X145510000Y-94300000D03*
X151780000Y-86700000D03*
X128240000Y-110907500D03*
X145450000Y-101020000D03*
%TO.N,Net-(C5-Pad1)*%
X133730000Y-108916860D03*
X135089057Y-113960000D03*
X128270000Y-114020000D03*
%TO.N,/GPIO38_chA_S*%
X130390000Y-81010000D03*
%TO.N,/GPIO41-chB_X*%
X89990000Y-94690000D03*
X98820000Y-92300000D03*
X104220000Y-97540000D03*
%TO.N,/GPIO42-chA_X*%
X96700000Y-92640000D03*
X81955000Y-113795000D03*
X81900000Y-106690000D03*
X104200000Y-99610000D03*
%TO.N,/GPIO48-BSW1*%
X85220000Y-89230000D03*
X104250000Y-95930000D03*
%TO.N,/GPIO37-chB_S*%
X131470000Y-81880000D03*
%TO.N,/GPIO39-chB_Y*%
X149020000Y-95570000D03*
X153130000Y-98550000D03*
%TO.N,Net-(R3-Pad1)*%
X70870000Y-116760000D03*
X74805000Y-106665000D03*
%TD*%
D22*
%TO.N,3V3*%
X112220000Y-89470000D02*
X112220000Y-92010000D01*
%TO.N,/GPIO47-BSW2*%
X139850000Y-53570000D02*
X137640000Y-51360000D01*
X139850000Y-58280000D02*
X139850000Y-53570000D01*
X137640000Y-51360000D02*
X135070000Y-51360000D01*
X164760000Y-83190000D02*
X139850000Y-58280000D01*
X164760000Y-94340000D02*
X164760000Y-83190000D01*
%TO.N,3V3*%
X158260000Y-100802500D02*
X151297500Y-100802500D01*
X78800000Y-46190000D02*
X78810000Y-46180000D01*
X151260000Y-100765000D02*
X151260000Y-100050000D01*
X145510000Y-94300000D02*
X145550000Y-94340000D01*
X130340000Y-110907500D02*
X136840000Y-110907500D01*
X86310000Y-96472500D02*
X86310000Y-101472500D01*
X86310000Y-101472500D02*
X92322500Y-101472500D01*
X78830000Y-63970000D02*
X78700000Y-63990000D01*
X75620000Y-67140000D02*
X78700000Y-64060000D01*
X104070000Y-89540000D02*
X104140000Y-89470000D01*
X104070000Y-89270000D02*
X104070000Y-89540000D01*
X97267500Y-96472500D02*
X104070000Y-89670000D01*
X92322500Y-101472500D02*
X92340000Y-101490000D01*
X145470000Y-94340000D02*
X145510000Y-94300000D01*
X104070000Y-89670000D02*
X104070000Y-89270000D01*
X151260000Y-100050000D02*
X145510000Y-94300000D01*
X92310000Y-96472500D02*
X97267500Y-96472500D01*
X104140000Y-89470000D02*
X111980000Y-89470000D01*
X81580000Y-66780000D02*
X104070000Y-89270000D01*
X78730000Y-46260000D02*
X78800000Y-46260000D01*
X145450000Y-101020000D02*
X145480000Y-101150000D01*
X158260000Y-94340000D02*
X151260000Y-94340000D01*
X151297500Y-100802500D02*
X151260000Y-100765000D01*
X128240000Y-110907500D02*
X130340000Y-110907500D01*
X111980000Y-89470000D02*
X112200000Y-89250000D01*
X78800000Y-46260000D02*
X78800000Y-46190000D01*
X78700000Y-64060000D02*
X78830000Y-63970000D01*
X75620000Y-49360000D02*
X75630000Y-49360000D01*
X145550000Y-94340000D02*
X151260000Y-94340000D01*
X158260000Y-94340000D02*
X158260000Y-93290000D01*
X75630000Y-49360000D02*
X78730000Y-46260000D01*
X145450000Y-101020000D02*
X145450000Y-102297500D01*
X92340000Y-101490000D02*
X92340000Y-96502500D01*
X151780000Y-86810000D02*
X151780000Y-86700000D01*
X86310000Y-96472500D02*
X92310000Y-96472500D01*
X128240000Y-110907500D02*
X128172500Y-110840000D01*
X145380000Y-94340000D02*
X145470000Y-94340000D01*
X92340000Y-96502500D02*
X92310000Y-96472500D01*
X151780000Y-86700000D02*
X151670000Y-86700000D01*
X145450000Y-102297500D02*
X136840000Y-110907500D01*
X145510000Y-92860000D02*
X145510000Y-94300000D01*
X151670000Y-86700000D02*
X151670000Y-86700000D01*
X151670000Y-86700000D02*
X145510000Y-92860000D01*
X158260000Y-93290000D02*
X151780000Y-86810000D01*
%TO.N,GND*%
X147440000Y-117857500D02*
X147490000Y-117907500D01*
X82480000Y-112060000D02*
X86280000Y-115860000D01*
X135070000Y-41200000D02*
X147520000Y-53650000D01*
X130340000Y-117907500D02*
X136840000Y-117907500D01*
X151260000Y-102840000D02*
X149730000Y-102840000D01*
X158222500Y-102840000D02*
X158260000Y-102877500D01*
X92322500Y-103547500D02*
X92340000Y-103565000D01*
X88870000Y-113270000D02*
X122750647Y-113270000D01*
X75620000Y-51900000D02*
X88900000Y-38620000D01*
X138890000Y-92000000D02*
X135070000Y-92000000D01*
X149475000Y-116885000D02*
X150580000Y-115780000D01*
X147490000Y-117907500D02*
X148452500Y-117907500D01*
X92340000Y-109800000D02*
X92340000Y-103565000D01*
X156280000Y-118280000D02*
X153780000Y-115780000D01*
X136840000Y-117907500D02*
X147490000Y-117907500D01*
X86280000Y-115860000D02*
X86355000Y-115785000D01*
X88870000Y-113270000D02*
X86280000Y-115860000D01*
X86310000Y-103547500D02*
X92322500Y-103547500D01*
X150580000Y-115780000D02*
X153780000Y-115780000D01*
X122750647Y-113270000D02*
X127388147Y-117907500D01*
X127388147Y-117907500D02*
X130340000Y-117907500D01*
X149730000Y-102840000D02*
X147375000Y-100485000D01*
X88900000Y-38620000D02*
X135030000Y-38620000D01*
X71780000Y-113360000D02*
X73080000Y-112060000D01*
X147520000Y-53650000D02*
X160110000Y-53650000D01*
X86355000Y-115785000D02*
X86355000Y-115705000D01*
X148452500Y-117907500D02*
X149475000Y-116885000D01*
X73080000Y-112060000D02*
X82480000Y-112060000D01*
X135030000Y-38620000D02*
X135070000Y-38660000D01*
X151260000Y-102840000D02*
X158222500Y-102840000D01*
X168280000Y-118280000D02*
X156280000Y-118280000D01*
X147375000Y-100485000D02*
X138890000Y-92000000D01*
X147375000Y-100485000D02*
X147440000Y-100550000D01*
X88870000Y-113270000D02*
X92340000Y-109800000D01*
X147440000Y-100550000D02*
X147440000Y-117857500D01*
%TO.N,Net-(C5-Pad1)*%
X114269100Y-108270000D02*
X114285498Y-108286398D01*
X136840000Y-108907500D02*
X136840000Y-103000000D01*
X135089057Y-114081557D02*
X136840000Y-115832500D01*
X133730000Y-108916860D02*
X133746860Y-108900000D01*
X133746860Y-108900000D02*
X136832500Y-108900000D01*
X136832500Y-108900000D02*
X136840000Y-108907500D01*
X114285498Y-108286398D02*
X122566398Y-108286398D01*
X135089057Y-113960000D02*
X135089057Y-114081557D01*
X136840000Y-103000000D02*
X136820000Y-102980000D01*
X122566398Y-108286398D02*
X128170000Y-113890000D01*
%TO.N,Net-(C6-Pad1)*%
X114269100Y-110770000D02*
X122890000Y-110770000D01*
X122890000Y-110770000D02*
X127952500Y-115832500D01*
X130340000Y-115832500D02*
X130340000Y-114340000D01*
X126970000Y-110970000D02*
X129032500Y-108907500D01*
X130330000Y-108897500D02*
X130340000Y-108907500D01*
X130330000Y-102980000D02*
X130330000Y-108897500D01*
X127952500Y-115832500D02*
X130340000Y-115832500D01*
X129032500Y-108907500D02*
X130340000Y-108907500D01*
X130340000Y-114340000D02*
X126970000Y-110970000D01*
%TO.N,/GPIO10-SCk*%
X112080000Y-53910000D02*
X86310000Y-53910000D01*
X75620000Y-64600000D02*
X86310000Y-53910000D01*
X112270000Y-53720000D02*
X112080000Y-53910000D01*
%TO.N,/GPIO9-SDO*%
X112270000Y-56260000D02*
X112080000Y-56450000D01*
X112080000Y-56450000D02*
X88850000Y-56450000D01*
X88850000Y-56450000D02*
X75620000Y-69680000D01*
%TO.N,/GPIO11-SDI*%
X86310000Y-51370000D02*
X75620000Y-62060000D01*
X112270000Y-51180000D02*
X112080000Y-51370000D01*
X112080000Y-51370000D02*
X86310000Y-51370000D01*
%TO.N,/GPIO14-CS*%
X112080000Y-43750000D02*
X86310000Y-43750000D01*
X112270000Y-43560000D02*
X112080000Y-43750000D01*
X86310000Y-43750000D02*
X75620000Y-54440000D01*
%TO.N,/GPIO12-DC*%
X86310000Y-48830000D02*
X75620000Y-59520000D01*
X112220000Y-48830000D02*
X86310000Y-48830000D01*
X112270000Y-48640000D02*
X112270000Y-48780000D01*
X112270000Y-48780000D02*
X112220000Y-48830000D01*
%TO.N,/GPIO13-RESET*%
X112080000Y-46290000D02*
X86310000Y-46290000D01*
X112270000Y-46100000D02*
X112080000Y-46290000D01*
X86310000Y-46290000D02*
X75620000Y-56980000D01*
%TO.N,/GPIO40-chA_Y*%
X160180000Y-105750000D02*
X160180000Y-96350000D01*
X144230000Y-74220000D02*
X135070000Y-74220000D01*
X153780000Y-106370000D02*
X154310000Y-105840000D01*
X153780000Y-113280000D02*
X153780000Y-106370000D01*
X154310000Y-105840000D02*
X160090000Y-105840000D01*
X160180000Y-96350000D02*
X160170000Y-96340000D01*
X160090000Y-105840000D02*
X160180000Y-105750000D01*
X160170000Y-96340000D02*
X160180000Y-96330000D01*
X160180000Y-90170000D02*
X144230000Y-74220000D01*
X160180000Y-96330000D02*
X160180000Y-90170000D01*
X158260000Y-96340000D02*
X160170000Y-96340000D01*
%TO.N,/GPIO38_chA_S*%
X130330000Y-81320000D02*
X130330000Y-100980000D01*
%TO.N,/GPIO41-chB_X*%
X104220000Y-97540000D02*
X126680000Y-97540000D01*
X90207500Y-94472500D02*
X92310000Y-94472500D01*
X98820000Y-92300000D02*
X98820000Y-92240000D01*
X127460000Y-77720000D02*
X127590000Y-77590000D01*
X127590000Y-77590000D02*
X127590000Y-77580000D01*
X92310000Y-94472500D02*
X92437500Y-94472500D01*
X126680000Y-97540000D02*
X127460000Y-96760000D01*
X127460000Y-96760000D02*
X127460000Y-77720000D01*
X98820000Y-92240000D02*
X98890000Y-92170000D01*
X127590000Y-77580000D02*
X128410000Y-76760000D01*
X128410000Y-76760000D02*
X135070000Y-76760000D01*
X98760000Y-92300000D02*
X98820000Y-92300000D01*
X92310000Y-94472500D02*
X96587500Y-94472500D01*
X96587500Y-94472500D02*
X98760000Y-92300000D01*
X89990000Y-94690000D02*
X90207500Y-94472500D01*
%TO.N,/GPIO42-chA_X*%
X86310000Y-94472500D02*
X88297500Y-94472500D01*
X127550000Y-99610000D02*
X129250000Y-97910000D01*
X81955000Y-113795000D02*
X81995000Y-113795000D01*
X81900000Y-106690000D02*
X81900000Y-98882500D01*
X90870000Y-91900000D02*
X95960000Y-91900000D01*
X81955000Y-114035000D02*
X86280000Y-118360000D01*
X96700000Y-92640000D02*
X96560000Y-92500000D01*
X129250000Y-79560000D02*
X129510000Y-79300000D01*
X81900000Y-98882500D02*
X86310000Y-94472500D01*
X95960000Y-91900000D02*
X96700000Y-92640000D01*
X129510000Y-79300000D02*
X135070000Y-79300000D01*
X88297500Y-94472500D02*
X90870000Y-91900000D01*
X129250000Y-97910000D02*
X129250000Y-79560000D01*
X104200000Y-99610000D02*
X127550000Y-99610000D01*
X81955000Y-113795000D02*
X81955000Y-114035000D01*
%TO.N,/GPIO48-BSW1*%
X125360000Y-96060000D02*
X126040000Y-95380000D01*
X85220000Y-89230000D02*
X79810000Y-94472500D01*
X104560000Y-96060000D02*
X125360000Y-96060000D01*
X127490000Y-53900000D02*
X135070000Y-53900000D01*
X104250000Y-95930000D02*
X104560000Y-96060000D01*
X85002500Y-89280000D02*
X85220000Y-89230000D01*
X104250000Y-95930000D02*
X104410000Y-95910000D01*
X126040000Y-88440000D02*
X126010000Y-88410000D01*
X126010000Y-88410000D02*
X126010000Y-55380000D01*
X126040000Y-95380000D02*
X126040000Y-88440000D01*
X126010000Y-55380000D02*
X127490000Y-53900000D01*
%TO.N,/GPIO37-chB_S*%
X131440000Y-95600000D02*
X136820000Y-100980000D01*
X131470000Y-81880000D02*
X131440000Y-81910000D01*
X131440000Y-81910000D02*
X131440000Y-95600000D01*
%TO.N,/GPIO39-chB_Y*%
X149110000Y-95600000D02*
X149020000Y-95570000D01*
X151260000Y-96680000D02*
X151260000Y-96340000D01*
X149810000Y-96340000D02*
X149110000Y-95600000D01*
X151260000Y-96340000D02*
X149810000Y-96340000D01*
X149020000Y-95570000D02*
X149280000Y-95810000D01*
X153130000Y-98550000D02*
X151260000Y-96680000D01*
%TO.N,Net-(R3-Pad1)*%
X74805000Y-106665000D02*
X79810000Y-101660000D01*
X79810000Y-101660000D02*
X79810000Y-96472500D01*
X70870000Y-117450000D02*
X71780000Y-118360000D01*
X70870000Y-116760000D02*
X70870000Y-117450000D01*
%TO.N,Net-(R16-Pad2)*%
X168280000Y-113280000D02*
X164730000Y-109730000D01*
X164730000Y-96370000D02*
X164760000Y-96340000D01*
X164730000Y-109730000D02*
X164730000Y-96370000D01*
%TD*%
D23*
X81580000Y-66780000D03*
X78800000Y-46260000D03*
X78830000Y-63970000D03*
X145510000Y-94300000D03*
X151780000Y-86700000D03*
X128240000Y-110907500D03*
X145450000Y-101020000D03*
X133730000Y-108916860D03*
X135089057Y-113960000D03*
X128270000Y-114020000D03*
X130390000Y-81010000D03*
X89990000Y-94690000D03*
X98820000Y-92300000D03*
X104220000Y-97540000D03*
X96700000Y-92640000D03*
X81955000Y-113795000D03*
X81900000Y-106690000D03*
X104200000Y-99610000D03*
X85220000Y-89230000D03*
X104250000Y-95930000D03*
X131470000Y-81880000D03*
X149020000Y-95570000D03*
X153130000Y-98550000D03*
X70870000Y-116760000D03*
X74805000Y-106665000D03*
D24*
X75620000Y-49360000D03*
X75620000Y-51900000D03*
X75620000Y-54440000D03*
X75620000Y-56980000D03*
X75620000Y-59520000D03*
X75620000Y-62060000D03*
X75620000Y-64600000D03*
X75620000Y-67140000D03*
X75620000Y-69680000D03*
X75620000Y-72220000D03*
X75620000Y-74760000D03*
X75620000Y-77300000D03*
X75620000Y-79840000D03*
X75620000Y-82380000D03*
X86280000Y-118360000D03*
X86280000Y-113360000D03*
X86280000Y-115860000D03*
D25*
X78780000Y-121460000D03*
X78780000Y-110260000D03*
D24*
X71780000Y-113360000D03*
X71780000Y-118360000D03*
X114269100Y-108270000D03*
X114269100Y-110770000D03*
X114269100Y-113270000D03*
X153780000Y-113280000D03*
X153780000Y-118280000D03*
X153780000Y-115780000D03*
D25*
X161280000Y-110180000D03*
X161280000Y-121380000D03*
D24*
X168280000Y-118280000D03*
X168280000Y-113280000D03*
X160110000Y-46030000D03*
X160110000Y-48570000D03*
X160110000Y-51110000D03*
X160110000Y-53650000D03*
X160110000Y-56190000D03*
X160110000Y-58730000D03*
X160110000Y-61270000D03*
X160110000Y-63810000D03*
X160110000Y-66350000D03*
X160110000Y-68890000D03*
X112220000Y-92010000D03*
X112220000Y-89470000D03*
X112220000Y-86930000D03*
X112220000Y-84390000D03*
X112220000Y-81850000D03*
X112220000Y-79310000D03*
X112220000Y-76770000D03*
X112220000Y-74230000D03*
X112220000Y-71690000D03*
X112220000Y-69150000D03*
X112220000Y-66610000D03*
X112220000Y-64070000D03*
X112220000Y-61530000D03*
X112220000Y-58990000D03*
X112220000Y-56450000D03*
X112220000Y-53910000D03*
X112220000Y-51370000D03*
X112220000Y-48830000D03*
X112220000Y-46290000D03*
X112220000Y-43750000D03*
X112220000Y-41210000D03*
X112220000Y-38670000D03*
X135070000Y-38660000D03*
X135070000Y-41200000D03*
X135070000Y-43740000D03*
X135070000Y-46280000D03*
X135070000Y-48820000D03*
X135070000Y-51360000D03*
X135070000Y-53900000D03*
X135070000Y-56440000D03*
X135070000Y-58980000D03*
X135070000Y-61520000D03*
X135070000Y-64060000D03*
X135070000Y-66600000D03*
X135070000Y-69140000D03*
X135070000Y-71680000D03*
X135070000Y-74220000D03*
X135070000Y-76760000D03*
X135070000Y-79300000D03*
X135070000Y-81840000D03*
X135070000Y-84380000D03*
X135070000Y-86920000D03*
X135070000Y-89460000D03*
X135070000Y-92000000D03*
M02*
