%TF.GenerationSoftware,KiCad,Pcbnew,8.0.1-rc1*%
%TF.CreationDate,2024-08-02T07:45:06-04:00*%
%TF.ProjectId,Schema,53636865-6d61-42e6-9b69-6361645f7063,rev?*%
%TF.SameCoordinates,Original*%
%TF.FileFunction,Soldermask,Bot*%
%TF.FilePolarity,Negative*%
%FSLAX46Y46*%
G04 Gerber Fmt 4.6, Leading zero omitted, Abs format (unit mm)*
G04 Created by KiCad (PCBNEW 8.0.1-rc1) date 2024-08-02 07:45:06*
%MOMM*%
%LPD*%
G01*
G04 APERTURE LIST*
%ADD10R,1.700000X1.700000*%
%ADD11O,1.700000X1.700000*%
%ADD12R,2.000000X2.000000*%
%ADD13C,2.000000*%
%ADD14R,3.200000X2.000000*%
%ADD15C,1.701800*%
G04 APERTURE END LIST*
D10*
%TO.C,J4*%
X75620000Y-49360000D03*
D11*
X75620000Y-51900000D03*
X75620000Y-54440000D03*
X75620000Y-56980000D03*
X75620000Y-59520000D03*
X75620000Y-62060000D03*
X75620000Y-64600000D03*
X75620000Y-67140000D03*
X75620000Y-69680000D03*
X75620000Y-72220000D03*
X75620000Y-74760000D03*
X75620000Y-77300000D03*
X75620000Y-79840000D03*
X75620000Y-82380000D03*
%TD*%
D12*
%TO.C,SW1*%
X86280000Y-118360000D03*
D13*
X86280000Y-113360000D03*
X86280000Y-115860000D03*
D14*
X78780000Y-121460000D03*
X78780000Y-110260000D03*
D13*
X71780000Y-113360000D03*
X71780000Y-118360000D03*
%TD*%
D15*
%TO.C,SW3*%
X114269100Y-108270000D03*
X114269100Y-110770000D03*
X114269100Y-113270000D03*
%TD*%
D12*
%TO.C,SW2*%
X153780000Y-113280000D03*
D13*
X153780000Y-118280000D03*
X153780000Y-115780000D03*
D14*
X161280000Y-110180000D03*
X161280000Y-121380000D03*
D13*
X168280000Y-118280000D03*
X168280000Y-113280000D03*
%TD*%
D10*
%TO.C,J3*%
X160110000Y-46030000D03*
D11*
X160110000Y-48570000D03*
X160110000Y-51110000D03*
X160110000Y-53650000D03*
X160110000Y-56190000D03*
X160110000Y-58730000D03*
X160110000Y-61270000D03*
X160110000Y-63810000D03*
X160110000Y-66350000D03*
X160110000Y-68890000D03*
%TD*%
D10*
%TO.C,J1*%
X112220000Y-92010000D03*
D11*
X112220000Y-89470000D03*
X112220000Y-86930000D03*
X112220000Y-84390000D03*
X112220000Y-81850000D03*
X112220000Y-79310000D03*
X112220000Y-76770000D03*
X112220000Y-74230000D03*
X112220000Y-71690000D03*
X112220000Y-69150000D03*
X112220000Y-66610000D03*
X112220000Y-64070000D03*
X112220000Y-61530000D03*
X112220000Y-58990000D03*
X112220000Y-56450000D03*
X112220000Y-53910000D03*
X112220000Y-51370000D03*
X112220000Y-48830000D03*
X112220000Y-46290000D03*
X112220000Y-43750000D03*
X112220000Y-41210000D03*
X112220000Y-38670000D03*
%TD*%
D10*
%TO.C,J2*%
X135070000Y-38660000D03*
D11*
X135070000Y-41200000D03*
X135070000Y-43740000D03*
X135070000Y-46280000D03*
X135070000Y-48820000D03*
X135070000Y-51360000D03*
X135070000Y-53900000D03*
X135070000Y-56440000D03*
X135070000Y-58980000D03*
X135070000Y-61520000D03*
X135070000Y-64060000D03*
X135070000Y-66600000D03*
X135070000Y-69140000D03*
X135070000Y-71680000D03*
X135070000Y-74220000D03*
X135070000Y-76760000D03*
X135070000Y-79300000D03*
X135070000Y-81840000D03*
X135070000Y-84380000D03*
X135070000Y-86920000D03*
X135070000Y-89460000D03*
X135070000Y-92000000D03*
%TD*%
M02*
