%TF.GenerationSoftware,KiCad,Pcbnew,8.0.4-8.0.4-0~ubuntu22.04.1*%
%TF.CreationDate,2024-09-06T10:46:15-04:00*%
%TF.ProjectId,Ruler_Pannel,52756c65-725f-4506-916e-6e656c2e6b69,rev?*%
%TF.SameCoordinates,Original*%
%TF.FileFunction,Profile,NP*%
%FSLAX46Y46*%
G04 Gerber Fmt 4.6, Leading zero omitted, Abs format (unit mm)*
G04 Created by KiCad (PCBNEW 8.0.4-8.0.4-0~ubuntu22.04.1) date 2024-09-06 10:46:15*
%MOMM*%
%LPD*%
G01*
G04 APERTURE LIST*
%TA.AperFunction,Profile*%
%ADD10C,0.100000*%
%TD*%
%ADD11C,0.350000*%
G04 APERTURE END LIST*
D10*
X11871568Y-185396895D02*
X11969735Y-185476939D01*
X11688018Y-61777582D02*
X11603104Y-61871568D01*
X10500000Y-186000000D02*
X10500000Y-185629916D01*
X164003246Y-210948824D02*
X164126631Y-210920192D01*
X163752920Y-210987173D02*
X163878569Y-210971170D01*
X10500000Y-235629916D02*
X11448091Y-234928170D01*
X11202605Y-187514110D02*
X11155619Y-187631736D01*
X11523060Y-60030264D02*
X11603104Y-60128431D01*
X12177589Y-260621610D02*
X12286745Y-260685866D01*
X11688018Y-186777582D02*
X11603104Y-186871568D01*
X164600985Y-86255488D02*
X164485889Y-86202605D01*
X165222417Y-35311981D02*
X165311981Y-35222417D01*
X164928170Y-60551908D02*
X165030264Y-60476939D01*
X165920192Y-259126631D02*
X165948824Y-259003246D01*
X165948824Y-12996753D02*
X165920192Y-12873368D01*
X11969735Y-185476939D02*
X12071829Y-185551908D01*
X11028829Y-88121430D02*
X11012826Y-88247079D01*
X11688018Y-235222417D02*
X11777582Y-235311981D01*
X165128431Y-61603104D02*
X165030264Y-61523060D01*
X11114651Y-237751592D02*
X11079807Y-237873368D01*
X12071829Y-36448091D02*
X11969735Y-36523060D01*
X165311981Y-36777582D02*
X165222417Y-36688018D01*
X11523060Y-11969735D02*
X11448091Y-12071829D01*
X11003208Y-113373377D02*
X11000000Y-113500000D01*
X164485889Y-36202605D02*
X164368263Y-36155619D01*
X12071829Y-135551908D02*
X12177589Y-135621610D01*
X165311981Y-135222417D02*
X165396895Y-135128431D01*
X10500000Y-62071829D02*
X11448091Y-62071829D01*
X12873368Y-35920192D02*
X12996753Y-35948824D01*
X12071829Y-60551908D02*
X12177589Y-60621610D01*
X164822410Y-110621610D02*
X164928170Y-110551908D01*
X12751592Y-60885348D02*
X12873368Y-60920192D01*
X12873368Y-185920192D02*
X12996753Y-185948824D01*
X165311981Y-186777582D02*
X165222417Y-186688018D01*
X11314133Y-62286745D02*
X11255488Y-62399014D01*
X11777582Y-135311981D02*
X11871568Y-135396895D01*
X10500000Y-87071829D02*
X11448091Y-87071829D01*
X11051175Y-84003246D02*
X11079807Y-84126631D01*
X165030264Y-136523060D02*
X164928170Y-136448091D01*
X12399014Y-110744511D02*
X12514110Y-110797394D01*
X11871568Y-11603104D02*
X11777582Y-11688018D01*
X11028829Y-158878569D02*
X11051175Y-159003246D01*
X163626622Y-186003208D02*
X163500000Y-186000000D01*
X165996791Y-233626622D02*
X166000000Y-233500000D01*
X11202605Y-184485889D02*
X11255488Y-184600985D01*
X165797394Y-34485889D02*
X165844380Y-34368263D01*
X11523060Y-236969735D02*
X11448091Y-237071829D01*
X165844380Y-84368263D02*
X165885348Y-84248407D01*
X165948824Y-162996753D02*
X165920192Y-162873368D01*
X11777582Y-111688018D02*
X11688018Y-111777582D01*
X12399014Y-11255488D02*
X12286745Y-11314133D01*
X165987173Y-58752920D02*
X165996791Y-58626622D01*
X165987173Y-238247079D02*
X165971170Y-238121430D01*
X165396895Y-11871568D02*
X165311981Y-11777582D01*
X166500000Y-163500000D02*
X166000000Y-163500000D01*
X11003208Y-213373377D02*
X11000000Y-213500000D01*
X163626622Y-36003208D02*
X163500000Y-36000000D01*
X10500000Y-10000500D02*
X10000000Y-10000500D01*
X164368263Y-85844380D02*
X164485889Y-85797394D01*
X164368263Y-35844380D02*
X164485889Y-35797394D01*
X165222417Y-111688018D02*
X165128431Y-111603104D01*
X164822410Y-260621610D02*
X164928170Y-260551908D01*
X166500000Y-60629916D02*
X166500000Y-61000000D01*
X164822410Y-135621610D02*
X164928170Y-135551908D01*
X165797394Y-137514110D02*
X165744511Y-137399014D01*
X11871568Y-186603104D02*
X11777582Y-186688018D01*
X12177589Y-235621610D02*
X12286745Y-235685866D01*
X11688018Y-36777582D02*
X11603104Y-36871568D01*
X11255488Y-159600985D02*
X11314133Y-159713254D01*
X11448091Y-87071829D02*
X10500000Y-86370083D01*
X165128431Y-86603104D02*
X165030264Y-86523060D01*
X164928170Y-260551908D02*
X165030264Y-260476939D01*
X13247079Y-136012826D02*
X13121430Y-136028829D01*
X164248407Y-186114651D02*
X164126631Y-186079807D01*
X165685866Y-234713254D02*
X165744511Y-234600985D01*
X11314133Y-109713254D02*
X11378389Y-109822410D01*
X165885348Y-109248407D02*
X165920192Y-109126631D01*
X11114651Y-134248407D02*
X11155619Y-134368263D01*
X164600985Y-160744511D02*
X164713254Y-160685866D01*
X165030264Y-235476939D02*
X165128431Y-235396895D01*
X13247079Y-110987173D02*
X13373377Y-110996791D01*
X11314133Y-37286745D02*
X11255488Y-37399014D01*
X163878569Y-85971170D02*
X164003246Y-85948824D01*
X11448091Y-159928170D02*
X10500000Y-159928170D01*
X164368263Y-161155619D02*
X164248407Y-161114651D01*
X11003208Y-163373377D02*
X11000000Y-163500000D01*
X11969735Y-86523060D02*
X11871568Y-86603104D01*
X163752920Y-60987173D02*
X163878569Y-60971170D01*
X163500000Y-161000000D02*
X163626622Y-160996791D01*
X12873368Y-86079807D02*
X12751592Y-86114651D01*
X164928170Y-211448091D02*
X164822410Y-211378389D01*
X166000000Y-38500000D02*
X165996791Y-38373377D01*
X12514110Y-61202605D02*
X12399014Y-61255488D01*
X165797394Y-187514110D02*
X165744511Y-187399014D01*
X11079807Y-109126631D02*
X11114651Y-109248407D01*
X11003208Y-63373377D02*
X11000000Y-63500000D01*
X165971170Y-113121430D02*
X165948824Y-112996753D01*
X165030264Y-160476939D02*
X165128431Y-160396895D01*
X12514110Y-210797394D02*
X12631736Y-210844380D01*
X12631736Y-161155619D02*
X12514110Y-161202605D01*
X11012826Y-163247079D02*
X11003208Y-163373377D01*
X164485889Y-135797394D02*
X164600985Y-135744511D01*
X11523060Y-211969735D02*
X11448091Y-212071829D01*
X165476939Y-161969735D02*
X165396895Y-161871568D01*
X11871568Y-136603104D02*
X11777582Y-136688018D01*
X11079807Y-84126631D02*
X11114651Y-84248407D01*
X165551908Y-134928170D02*
X166500000Y-135629916D01*
X164822410Y-86378389D02*
X164713254Y-86314133D01*
X164248407Y-11114651D02*
X164126631Y-11079807D01*
X11079807Y-162873368D02*
X11051175Y-162996753D01*
X11202605Y-112514110D02*
X11155619Y-112631736D01*
X11079807Y-237873368D02*
X11051175Y-237996753D01*
X164126631Y-85920192D02*
X164248407Y-85885348D01*
X11448091Y-209928170D02*
X10500000Y-209928170D01*
X13121430Y-236028829D02*
X12996753Y-236051175D01*
X10500000Y-36000000D02*
X10500000Y-35629916D01*
X11079807Y-184126631D02*
X11114651Y-184248407D01*
X11012826Y-133752920D02*
X11028829Y-133878569D01*
X13121430Y-35971170D02*
X13247079Y-35987173D01*
X11012826Y-88247079D02*
X11003208Y-88373377D01*
X165551908Y-237071829D02*
X166500000Y-237071829D01*
X165744511Y-162399014D02*
X165685866Y-162286745D01*
X10500000Y-85629916D02*
X11448091Y-84928170D01*
X11603104Y-61871568D02*
X11523060Y-61969735D01*
X11051175Y-159003246D02*
X11079807Y-159126631D01*
X12071829Y-136448091D02*
X11969735Y-136523060D01*
X165948824Y-159003246D02*
X165971170Y-158878569D01*
X164713254Y-85685866D02*
X164822410Y-85621610D01*
X165396895Y-35128431D02*
X165476939Y-35030264D01*
X165920192Y-62873368D02*
X165885348Y-62751592D01*
X11155619Y-212631736D02*
X11114651Y-212751592D01*
X10500000Y-108500000D02*
X11000000Y-108500000D01*
X12399014Y-160744511D02*
X12514110Y-160797394D01*
X11448091Y-237071829D02*
X10500000Y-236370083D01*
X12631736Y-260844380D02*
X12751592Y-260885348D01*
X165621610Y-159822410D02*
X165685866Y-159713254D01*
X164368263Y-235844380D02*
X164485889Y-235797394D01*
X164126631Y-260920192D02*
X164248407Y-260885348D01*
X12873368Y-186079807D02*
X12751592Y-186114651D01*
X163500000Y-261500000D02*
X163500000Y-261000000D01*
X11523060Y-35030264D02*
X11603104Y-35128431D01*
X164713254Y-236314133D02*
X164600985Y-236255488D01*
X11603104Y-85128431D02*
X11688018Y-85222417D01*
X165844380Y-12631736D02*
X165797394Y-12514110D01*
X165551908Y-134928170D02*
X165621610Y-134822410D01*
X10500000Y-233500000D02*
X11000000Y-233500000D01*
X165551908Y-62071829D02*
X165476939Y-61969735D01*
X11969735Y-85476939D02*
X12071829Y-85551908D01*
X165222417Y-160311981D02*
X165311981Y-160222417D01*
X12996753Y-60948824D02*
X13121430Y-60971170D01*
X11871568Y-235396895D02*
X11969735Y-235476939D01*
X166500000Y-111370083D02*
X165551908Y-112071829D01*
X164822410Y-161378389D02*
X164713254Y-161314133D01*
X11155619Y-112631736D02*
X11114651Y-112751592D01*
X165396895Y-160128431D02*
X165476939Y-160030264D01*
X11079807Y-34126631D02*
X11114651Y-34248407D01*
X164928170Y-185551908D02*
X165030264Y-185476939D01*
X165744511Y-109600985D02*
X165797394Y-109485889D01*
X12399014Y-135744511D02*
X12514110Y-135797394D01*
X164126631Y-161079807D02*
X164003246Y-161051175D01*
X164248407Y-60885348D02*
X164368263Y-60844380D01*
X163626622Y-235996791D02*
X163752920Y-235987173D01*
X11051175Y-209003246D02*
X11079807Y-209126631D01*
X165128431Y-235396895D02*
X165222417Y-235311981D01*
X164713254Y-161314133D02*
X164600985Y-161255488D01*
X165885348Y-37751592D02*
X165844380Y-37631736D01*
X11603104Y-235128431D02*
X11688018Y-235222417D01*
X164126631Y-86079807D02*
X164003246Y-86051175D01*
X166500000Y-160629916D02*
X166500000Y-161000000D01*
X164822410Y-160621610D02*
X164928170Y-160551908D01*
X10500000Y-37071829D02*
X11448091Y-37071829D01*
X165844380Y-34368263D02*
X165885348Y-34248407D01*
X12286745Y-161314133D02*
X12177589Y-161378389D01*
X11314133Y-259713254D02*
X11378389Y-259822410D01*
X10500000Y-260708185D02*
X10500000Y-258500000D01*
X12996753Y-236051175D02*
X12873368Y-236079807D01*
X165128431Y-85396895D02*
X165222417Y-85311981D01*
X165128431Y-210396895D02*
X165222417Y-210311981D01*
X165128431Y-60396895D02*
X165222417Y-60311981D01*
X165915658Y-10500000D02*
X165311981Y-10778082D01*
X165987173Y-158752920D02*
X165996791Y-158626622D01*
X165551908Y-84928170D02*
X166500000Y-85629916D01*
X165744511Y-84600985D02*
X165797394Y-84485889D01*
X13247079Y-36012826D02*
X13121430Y-36028829D01*
X166000000Y-213500000D02*
X165996791Y-213373377D01*
X12514110Y-186202605D02*
X12399014Y-186255488D01*
X11255488Y-109600985D02*
X11314133Y-109713254D01*
X12514110Y-36202605D02*
X12399014Y-36255488D01*
X12071829Y-11448091D02*
X11969735Y-11523060D01*
X165128431Y-135396895D02*
X165222417Y-135311981D01*
X10500000Y-210629916D02*
X11448091Y-209928170D01*
X11155619Y-237631736D02*
X11114651Y-237751592D01*
X13121430Y-210971170D02*
X13247079Y-210987173D01*
X10500000Y-135629916D02*
X11448091Y-134928170D01*
X13373377Y-160996791D02*
X13500000Y-161000000D01*
X13247079Y-60987173D02*
X13373377Y-60996791D01*
X165128431Y-211603104D02*
X165030264Y-211523060D01*
X11051175Y-37996753D02*
X11028829Y-38121430D01*
X11155619Y-109368263D02*
X11202605Y-109485889D01*
X165396895Y-136871568D02*
X165311981Y-136777582D01*
X165996791Y-258626622D02*
X166000000Y-258500000D01*
X12751592Y-111114651D02*
X12631736Y-111155619D01*
X11003208Y-258626622D02*
X11012826Y-258752920D01*
X164822410Y-60621610D02*
X164928170Y-60551908D01*
X165744511Y-62399014D02*
X165685866Y-62286745D01*
X11448091Y-237071829D02*
X11378389Y-237177589D01*
X11202605Y-212514110D02*
X11155619Y-212631736D01*
X11378389Y-187177589D02*
X11314133Y-187286745D01*
X165551908Y-184928170D02*
X166500000Y-185629916D01*
X165311981Y-185222417D02*
X165396895Y-185128431D01*
X13373377Y-185996791D02*
X13500000Y-186000000D01*
X164126631Y-110920192D02*
X164248407Y-110885348D01*
X164928170Y-161448091D02*
X164822410Y-161378389D01*
X165996791Y-33626622D02*
X166000000Y-33500000D01*
X165971170Y-38121430D02*
X165948824Y-37996753D01*
X11603104Y-186871568D02*
X11523060Y-186969735D01*
X13373377Y-36003208D02*
X13247079Y-36012826D01*
X11079807Y-137873368D02*
X11051175Y-137996753D01*
X10500000Y-237071829D02*
X11448091Y-237071829D01*
X11114651Y-87751592D02*
X11079807Y-87873368D01*
X165996791Y-63373377D02*
X165987173Y-63247079D01*
X163500000Y-136000000D02*
X163626622Y-135996791D01*
X164126631Y-135920192D02*
X164248407Y-135885348D01*
X12399014Y-86255488D02*
X12286745Y-86314133D01*
X11523060Y-186969735D02*
X11448091Y-187071829D01*
X164928170Y-35551908D02*
X165030264Y-35476939D01*
X165551908Y-112071829D02*
X166500000Y-112071829D01*
X11155619Y-209368263D02*
X11202605Y-209485889D01*
X11603104Y-36871568D02*
X11523060Y-36969735D01*
X163878569Y-60971170D02*
X164003246Y-60948824D01*
X164485889Y-35797394D02*
X164600985Y-35744511D01*
X11448091Y-209928170D02*
X11523060Y-210030264D01*
X11202605Y-159485889D02*
X11255488Y-159600985D01*
X11051175Y-34003246D02*
X11079807Y-34126631D01*
X166500000Y-135629916D02*
X166500000Y-136000000D01*
X164822410Y-111378389D02*
X164713254Y-111314133D01*
X165551908Y-112071829D02*
X165476939Y-111969735D01*
X11688018Y-185222417D02*
X11777582Y-185311981D01*
X11314133Y-12286745D02*
X11255488Y-12399014D01*
X165685866Y-187286745D02*
X165621610Y-187177589D01*
X165551908Y-259928170D02*
X165621610Y-259822410D01*
X165744511Y-212399014D02*
X165685866Y-212286745D01*
X11603104Y-86871568D02*
X11523060Y-86969735D01*
X11448091Y-109928170D02*
X10500000Y-109928170D01*
X12751592Y-210885348D02*
X12873368Y-210920192D01*
X11000000Y-158500000D02*
X11003208Y-158626622D01*
X165797394Y-12514110D02*
X165744511Y-12399014D01*
X163878569Y-86028829D02*
X163752920Y-86012826D01*
X163878569Y-11028829D02*
X163752920Y-11012826D01*
X166500000Y-62071829D02*
X166500000Y-63500000D01*
X12514110Y-235797394D02*
X12631736Y-235844380D01*
X165311981Y-261222417D02*
X165914573Y-261500000D01*
X165920192Y-184126631D02*
X165948824Y-184003246D01*
X11603104Y-236871568D02*
X11523060Y-236969735D01*
X11000000Y-63500000D02*
X10500000Y-63500000D01*
X165396895Y-186871568D02*
X165311981Y-186777582D01*
X11688018Y-86777582D02*
X11603104Y-86871568D01*
X163500000Y-36000000D02*
X163626622Y-35996791D01*
X11051175Y-134003246D02*
X11079807Y-134126631D01*
X165885348Y-212751592D02*
X165844380Y-212631736D01*
X163752920Y-211012826D02*
X163626622Y-211003208D01*
X166500000Y-213500000D02*
X166000000Y-213500000D01*
X11448091Y-184928170D02*
X10500000Y-184928170D01*
X11012826Y-58752920D02*
X11028829Y-58878569D01*
X11114651Y-259248407D02*
X11155619Y-259368263D01*
X165621610Y-259822410D02*
X165685866Y-259713254D01*
X165551908Y-59928170D02*
X166500000Y-60629916D01*
X11314133Y-234713254D02*
X11378389Y-234822410D01*
X166500000Y-138500000D02*
X166000000Y-138500000D01*
X12286745Y-61314133D02*
X12177589Y-61378389D01*
X12996753Y-36051175D02*
X12873368Y-36079807D01*
X11777582Y-85311981D02*
X11871568Y-85396895D01*
X11688018Y-210222417D02*
X11777582Y-210311981D01*
X164248407Y-110885348D02*
X164368263Y-110844380D01*
X166500000Y-237071829D02*
X166500000Y-238500000D01*
X164368263Y-110844380D02*
X164485889Y-110797394D01*
X11003208Y-13373377D02*
X11000000Y-13500000D01*
X165744511Y-87399014D02*
X165685866Y-87286745D01*
X164485889Y-161202605D02*
X164368263Y-161155619D01*
X10500000Y-83500000D02*
X11000000Y-83500000D01*
X12751592Y-85885348D02*
X12873368Y-85920192D01*
X164822410Y-236378389D02*
X164713254Y-236314133D01*
X11012826Y-233752920D02*
X11028829Y-233878569D01*
X10500000Y-212071829D02*
X11448091Y-212071829D01*
X11523060Y-36969735D02*
X11448091Y-37071829D01*
X165551908Y-187071829D02*
X166500000Y-187071829D01*
X164248407Y-85885348D02*
X164368263Y-85844380D01*
X10500000Y-236370083D02*
X10500000Y-236000000D01*
X165948824Y-234003246D02*
X165971170Y-233878569D01*
X165311981Y-85222417D02*
X165396895Y-85128431D01*
X13500000Y-10500000D02*
X13500000Y-11000000D01*
X165987173Y-13247079D02*
X165971170Y-13121430D01*
X12996753Y-135948824D02*
X13121430Y-135971170D01*
X12996753Y-185948824D02*
X13121430Y-185971170D01*
X165311981Y-35222417D02*
X165396895Y-35128431D01*
X11314133Y-187286745D02*
X11255488Y-187399014D01*
X163878569Y-61028829D02*
X163752920Y-61012826D01*
X11448091Y-87071829D02*
X11378389Y-87177589D01*
X12873368Y-161079807D02*
X12751592Y-161114651D01*
X166500000Y-36370083D02*
X165551908Y-37071829D01*
X11777582Y-236688018D02*
X11688018Y-236777582D01*
X12514110Y-135797394D02*
X12631736Y-135844380D01*
X11969735Y-60476939D02*
X12071829Y-60551908D01*
X11003208Y-38373377D02*
X11000000Y-38500000D01*
X164485889Y-211202605D02*
X164368263Y-211155619D01*
X165744511Y-234600985D02*
X165797394Y-234485889D01*
X10500000Y-61370083D02*
X10500000Y-61000000D01*
X12177589Y-211378389D02*
X12071829Y-211448091D01*
X164713254Y-160685866D02*
X164822410Y-160621610D01*
X11028829Y-108878569D02*
X11051175Y-109003246D01*
X13500000Y-136000000D02*
X13373377Y-136003208D01*
X11448091Y-137071829D02*
X11378389Y-137177589D01*
X164713254Y-210685866D02*
X164822410Y-210621610D01*
X11314133Y-34713254D02*
X11378389Y-34822410D01*
X12514110Y-236202605D02*
X12399014Y-236255488D01*
X164126631Y-210920192D02*
X164248407Y-210885348D01*
X164003246Y-160948824D02*
X164126631Y-160920192D01*
X10500000Y-133500000D02*
X11000000Y-133500000D01*
X12996753Y-85948824D02*
X13121430Y-85971170D01*
X163500000Y-211000000D02*
X163626622Y-210996791D01*
X165551908Y-109928170D02*
X166500000Y-110629916D01*
X166000000Y-258500000D02*
X166500000Y-258500000D01*
X11084341Y-10500000D02*
X13500000Y-10500000D01*
X163878569Y-35971170D02*
X164003246Y-35948824D01*
X165551908Y-237071829D02*
X165476939Y-236969735D01*
X165476939Y-61969735D02*
X165396895Y-61871568D01*
X164600985Y-111255488D02*
X164485889Y-111202605D01*
X163752920Y-110987173D02*
X163878569Y-110971170D01*
X165476939Y-186969735D02*
X165396895Y-186871568D01*
X165885348Y-159248407D02*
X165920192Y-159126631D01*
X166000000Y-183500000D02*
X166500000Y-183500000D01*
X165030264Y-210476939D02*
X165128431Y-210396895D01*
X165396895Y-185128431D02*
X165476939Y-185030264D01*
X10500000Y-258500000D02*
X11000000Y-258500000D01*
X163626622Y-110996791D02*
X163752920Y-110987173D01*
X166000000Y-108500000D02*
X166500000Y-108500000D01*
X11448091Y-34928170D02*
X11523060Y-35030264D01*
X166500000Y-87071829D02*
X166500000Y-88500000D01*
X166500000Y-258500000D02*
X166500000Y-260708185D01*
X11448091Y-212071829D02*
X10500000Y-211370083D01*
X165920192Y-84126631D02*
X165948824Y-84003246D01*
X12071829Y-110551908D02*
X12177589Y-110621610D01*
X12873368Y-211079807D02*
X12751592Y-211114651D01*
X165685866Y-237286745D02*
X165621610Y-237177589D01*
X12071829Y-210551908D02*
X12177589Y-210621610D01*
X12514110Y-160797394D02*
X12631736Y-160844380D01*
X12177589Y-60621610D02*
X12286745Y-60685866D01*
X11000000Y-113500000D02*
X10500000Y-113500000D01*
X165971170Y-233878569D02*
X165987173Y-233752920D01*
X165685866Y-162286745D02*
X165621610Y-162177589D01*
X165971170Y-183878569D02*
X165987173Y-183752920D01*
X165128431Y-35396895D02*
X165222417Y-35311981D01*
X165971170Y-188121430D02*
X165948824Y-187996753D01*
X165744511Y-184600985D02*
X165797394Y-184485889D01*
X164713254Y-60685866D02*
X164822410Y-60621610D01*
X11114651Y-12751592D02*
X11079807Y-12873368D01*
X11314133Y-137286745D02*
X11255488Y-137399014D01*
X165685866Y-209713254D02*
X165744511Y-209600985D01*
X164248407Y-61114651D02*
X164126631Y-61079807D01*
X12873368Y-85920192D02*
X12996753Y-85948824D01*
X11079807Y-37873368D02*
X11051175Y-37996753D01*
X165128431Y-110396895D02*
X165222417Y-110311981D01*
X12631736Y-11155619D02*
X12514110Y-11202605D01*
X10500000Y-61000000D02*
X10500000Y-60629916D01*
X166000000Y-233500000D02*
X166500000Y-233500000D01*
X164928170Y-236448091D02*
X164822410Y-236378389D01*
X165621610Y-34822410D02*
X165685866Y-34713254D01*
X165920192Y-134126631D02*
X165948824Y-134003246D01*
X11871568Y-85396895D02*
X11969735Y-85476939D01*
X11003208Y-183626622D02*
X11012826Y-183752920D01*
X166500000Y-110629916D02*
X166500000Y-111000000D01*
X11777582Y-60311981D02*
X11871568Y-60396895D01*
X165685866Y-137286745D02*
X165621610Y-137177589D01*
X12286745Y-236314133D02*
X12177589Y-236378389D01*
X12631736Y-136155619D02*
X12514110Y-136202605D01*
X165476939Y-135030264D02*
X165551908Y-134928170D01*
X11051175Y-212996753D02*
X11028829Y-213121430D01*
X11202605Y-34485889D02*
X11255488Y-34600985D01*
X11871568Y-35396895D02*
X11969735Y-35476939D01*
X163752920Y-11012826D02*
X163626622Y-11003208D01*
X165744511Y-134600985D02*
X165797394Y-134485889D01*
X165685866Y-84713254D02*
X165744511Y-84600985D01*
X164822410Y-36378389D02*
X164713254Y-36314133D01*
X165920192Y-34126631D02*
X165948824Y-34003246D01*
X165222417Y-185311981D02*
X165311981Y-185222417D01*
X11202605Y-62514110D02*
X11155619Y-62631736D01*
X11202605Y-84485889D02*
X11255488Y-84600985D01*
X165885348Y-87751592D02*
X165844380Y-87631736D01*
X12873368Y-61079807D02*
X12751592Y-61114651D01*
X12399014Y-185744511D02*
X12514110Y-185797394D01*
X163626622Y-161003208D02*
X163500000Y-161000000D01*
X165971170Y-163121430D02*
X165948824Y-162996753D01*
X164126631Y-186079807D02*
X164003246Y-186051175D01*
X10500000Y-188500000D02*
X10500000Y-187071829D01*
X164126631Y-160920192D02*
X164248407Y-160885348D01*
X11688018Y-236777582D02*
X11603104Y-236871568D01*
X165311981Y-86777582D02*
X165222417Y-86688018D01*
X166500000Y-109928170D02*
X165551908Y-109928170D01*
X12631736Y-135844380D02*
X12751592Y-135885348D01*
X164600985Y-61255488D02*
X164485889Y-61202605D01*
X11003208Y-158626622D02*
X11012826Y-158752920D01*
X165030264Y-86523060D02*
X164928170Y-86448091D01*
X10500000Y-183500000D02*
X11000000Y-183500000D01*
X11448091Y-112071829D02*
X11378389Y-112177589D01*
X12071829Y-85551908D02*
X12177589Y-85621610D01*
X12996753Y-210948824D02*
X13121430Y-210971170D01*
X12631736Y-60844380D02*
X12751592Y-60885348D01*
X10500000Y-160629916D02*
X11448091Y-159928170D01*
X11871568Y-60396895D02*
X11969735Y-60476939D01*
X165744511Y-209600985D02*
X165797394Y-209485889D01*
X165685866Y-259713254D02*
X165744511Y-259600985D01*
X11003208Y-83626622D02*
X11012826Y-83752920D01*
X165948824Y-212996753D02*
X165920192Y-212873368D01*
X165551908Y-137071829D02*
X165476939Y-136969735D01*
X12514110Y-35797394D02*
X12631736Y-35844380D01*
X13247079Y-160987173D02*
X13373377Y-160996791D01*
X166500000Y-112071829D02*
X166500000Y-113500000D01*
X165685866Y-59713254D02*
X165744511Y-59600985D01*
X165476939Y-211969735D02*
X165396895Y-211871568D01*
X11777582Y-186688018D02*
X11688018Y-186777582D01*
X11079807Y-87873368D02*
X11051175Y-87996753D01*
X12071829Y-35551908D02*
X12177589Y-35621610D01*
X165885348Y-162751592D02*
X165844380Y-162631736D01*
X11202605Y-162514110D02*
X11155619Y-162631736D01*
X11523060Y-260030264D02*
X11603104Y-260128431D01*
X12996753Y-11051175D02*
X12873368Y-11079807D01*
X164003246Y-236051175D02*
X163878569Y-236028829D01*
X11114651Y-162751592D02*
X11079807Y-162873368D01*
X11114651Y-34248407D02*
X11155619Y-34368263D01*
X165551908Y-234928170D02*
X165621610Y-234822410D01*
X166500000Y-238500000D02*
X166000000Y-238500000D01*
X12071829Y-236448091D02*
X11969735Y-236523060D01*
X11255488Y-12399014D02*
X11202605Y-12514110D01*
X12286745Y-135685866D02*
X12399014Y-135744511D01*
X11114651Y-62751592D02*
X11079807Y-62873368D01*
X165920192Y-234126631D02*
X165948824Y-234003246D01*
X165920192Y-87873368D02*
X165885348Y-87751592D01*
X11603104Y-35128431D02*
X11688018Y-35222417D01*
X12873368Y-235920192D02*
X12996753Y-235948824D01*
X12873368Y-236079807D02*
X12751592Y-236114651D01*
X12996753Y-110948824D02*
X13121430Y-110971170D01*
X165948824Y-62996753D02*
X165920192Y-62873368D01*
X165128431Y-160396895D02*
X165222417Y-160311981D01*
X11155619Y-59368263D02*
X11202605Y-59485889D01*
X12631736Y-110844380D02*
X12751592Y-110885348D01*
X11523060Y-111969735D02*
X11448091Y-112071829D01*
X166000000Y-138500000D02*
X165996791Y-138373377D01*
X165621610Y-134822410D02*
X165685866Y-134713254D01*
X165685866Y-62286745D02*
X165621610Y-62177589D01*
X165971170Y-258878569D02*
X165987173Y-258752920D01*
X11777582Y-11688018D02*
X11688018Y-11777582D01*
X13373377Y-110996791D02*
X13500000Y-111000000D01*
X164600985Y-211255488D02*
X164485889Y-211202605D01*
X12996753Y-211051175D02*
X12873368Y-211079807D01*
X10500000Y-209928170D02*
X10500000Y-208500000D01*
X164822410Y-210621610D02*
X164928170Y-210551908D01*
X12286745Y-185685866D02*
X12399014Y-185744511D01*
X165971170Y-108878569D02*
X165987173Y-108752920D01*
X165030264Y-35476939D02*
X165128431Y-35396895D01*
X12996753Y-111051175D02*
X12873368Y-111079807D01*
X11114651Y-59248407D02*
X11155619Y-59368263D01*
X163626622Y-85996791D02*
X163752920Y-85987173D01*
X165476939Y-210030264D02*
X165551908Y-209928170D01*
X165311981Y-161777582D02*
X165222417Y-161688018D01*
X164713254Y-35685866D02*
X164822410Y-35621610D01*
X165996791Y-238373377D02*
X165987173Y-238247079D01*
X165948824Y-259003246D02*
X165971170Y-258878569D01*
X166311981Y-11777582D02*
X166500000Y-11291950D01*
X11314133Y-159713254D02*
X11378389Y-159822410D01*
X10000000Y-10000000D02*
X167000000Y-10000000D01*
X13247079Y-86012826D02*
X13121430Y-86028829D01*
X13121430Y-60971170D02*
X13247079Y-60987173D01*
X165844380Y-234368263D02*
X165885348Y-234248407D01*
X11051175Y-187996753D02*
X11028829Y-188121430D01*
X165885348Y-237751592D02*
X165844380Y-237631736D01*
X12751592Y-161114651D02*
X12631736Y-161155619D01*
X165396895Y-161871568D02*
X165311981Y-161777582D01*
X165476939Y-86969735D02*
X165396895Y-86871568D01*
X166311981Y-260222417D02*
X165311981Y-260222417D01*
X11079807Y-159126631D02*
X11114651Y-159248407D01*
X164248407Y-160885348D02*
X164368263Y-160844380D01*
X11969735Y-210476939D02*
X12071829Y-210551908D01*
X163752920Y-135987173D02*
X163878569Y-135971170D01*
X165222417Y-61688018D02*
X165128431Y-61603104D01*
X165311981Y-236777582D02*
X165222417Y-236688018D01*
X165222417Y-135311981D02*
X165311981Y-135222417D01*
X165551908Y-209928170D02*
X165621610Y-209822410D01*
X12286745Y-60685866D02*
X12399014Y-60744511D01*
X13247079Y-161012826D02*
X13121430Y-161028829D01*
X165396895Y-110128431D02*
X165476939Y-110030264D01*
X12996753Y-161051175D02*
X12873368Y-161079807D01*
X165222417Y-60311981D02*
X165311981Y-60222417D01*
X12514110Y-110797394D02*
X12631736Y-110844380D01*
X12631736Y-61155619D02*
X12514110Y-61202605D01*
X11378389Y-212177589D02*
X11314133Y-212286745D01*
X11000000Y-83500000D02*
X11003208Y-83626622D01*
X11378389Y-12177589D02*
X11314133Y-12286745D01*
X11202605Y-134485889D02*
X11255488Y-134600985D01*
X11523060Y-61969735D02*
X11448091Y-62071829D01*
X164713254Y-186314133D02*
X164600985Y-186255488D01*
X165685866Y-134713254D02*
X165744511Y-134600985D01*
X12873368Y-136079807D02*
X12751592Y-136114651D01*
X11378389Y-137177589D02*
X11314133Y-137286745D01*
X165885348Y-209248407D02*
X165920192Y-209126631D01*
X12286745Y-110685866D02*
X12399014Y-110744511D01*
X165476939Y-110030264D02*
X165551908Y-109928170D01*
X11777582Y-35311981D02*
X11871568Y-35396895D01*
X166500000Y-236370083D02*
X165551908Y-237071829D01*
X11155619Y-137631736D02*
X11114651Y-137751592D01*
X165996791Y-188373377D02*
X165987173Y-188247079D01*
X10500000Y-137071829D02*
X11448091Y-137071829D01*
X12177589Y-110621610D02*
X12286745Y-110685866D01*
X165948824Y-84003246D02*
X165971170Y-83878569D01*
X164368263Y-135844380D02*
X164485889Y-135797394D01*
X11688018Y-60222417D02*
X11777582Y-60311981D01*
X10500000Y-84928170D02*
X10500000Y-83500000D01*
X164928170Y-36448091D02*
X164822410Y-36378389D01*
X11255488Y-184600985D02*
X11314133Y-184713254D01*
X164928170Y-135551908D02*
X165030264Y-135476939D01*
X164713254Y-111314133D02*
X164600985Y-111255488D01*
X11448091Y-59928170D02*
X11523060Y-60030264D01*
X11255488Y-84600985D02*
X11314133Y-84713254D01*
X11255488Y-237399014D02*
X11202605Y-237514110D01*
X163500000Y-236000000D02*
X163626622Y-235996791D01*
X11255488Y-259600985D02*
X11314133Y-259713254D01*
X11523060Y-185030264D02*
X11603104Y-185128431D01*
X10500000Y-234928170D02*
X10500000Y-233500000D01*
X11202605Y-37514110D02*
X11155619Y-37631736D01*
X165987173Y-108752920D02*
X165996791Y-108626622D01*
X11079807Y-112873368D02*
X11051175Y-112996753D01*
X11114651Y-234248407D02*
X11155619Y-234368263D01*
X164126631Y-35920192D02*
X164248407Y-35885348D01*
X11051175Y-162996753D02*
X11028829Y-163121430D01*
X165621610Y-87177589D02*
X165551908Y-87071829D01*
X11523060Y-210030264D02*
X11603104Y-210128431D01*
X165971170Y-33878569D02*
X165987173Y-33752920D01*
X12399014Y-235744511D02*
X12514110Y-235797394D01*
X11255488Y-112399014D02*
X11202605Y-112514110D01*
X11378389Y-59822410D02*
X11448091Y-59928170D01*
X11202605Y-209485889D02*
X11255488Y-209600985D01*
X10688018Y-260222417D02*
X10500000Y-260708185D01*
X163752920Y-186012826D02*
X163626622Y-186003208D01*
X11523060Y-161969735D02*
X11448091Y-162071829D01*
X166000000Y-113500000D02*
X165996791Y-113373377D01*
X163878569Y-135971170D02*
X164003246Y-135948824D01*
X165996791Y-208626622D02*
X166000000Y-208500000D01*
X164713254Y-235685866D02*
X164822410Y-235621610D01*
X164126631Y-11079807D02*
X164003246Y-11051175D01*
X13121430Y-11028829D02*
X12996753Y-11051175D01*
X12996753Y-136051175D02*
X12873368Y-136079807D01*
X164713254Y-260685866D02*
X164822410Y-260621610D01*
X11079807Y-212873368D02*
X11051175Y-212996753D01*
X165030264Y-236523060D02*
X164928170Y-236448091D01*
X12286745Y-186314133D02*
X12177589Y-186378389D01*
X12751592Y-236114651D02*
X12631736Y-236155619D01*
X164600985Y-110744511D02*
X164713254Y-110685866D01*
X12996753Y-186051175D02*
X12873368Y-186079807D01*
X11000000Y-183500000D02*
X11003208Y-183626622D01*
X12631736Y-210844380D02*
X12751592Y-210885348D01*
X165222417Y-136688018D02*
X165128431Y-136603104D01*
X12514110Y-161202605D02*
X12399014Y-161255488D01*
X11688018Y-260222417D02*
X10688018Y-260222417D01*
X11155619Y-84368263D02*
X11202605Y-84485889D01*
X11969735Y-260476939D02*
X12071829Y-260551908D01*
X11871568Y-61603104D02*
X11777582Y-61688018D01*
X163878569Y-111028829D02*
X163752920Y-111012826D01*
X11777582Y-185311981D02*
X11871568Y-185396895D01*
X163752920Y-111012826D02*
X163626622Y-111003208D01*
X164713254Y-11314133D02*
X164600985Y-11255488D01*
X13121430Y-110971170D02*
X13247079Y-110987173D01*
X10500000Y-236000000D02*
X10500000Y-235629916D01*
X165797394Y-112514110D02*
X165744511Y-112399014D01*
X163878569Y-160971170D02*
X164003246Y-160948824D01*
X165128431Y-186603104D02*
X165030264Y-186523060D01*
X11003208Y-188373377D02*
X11000000Y-188500000D01*
X165920192Y-209126631D02*
X165948824Y-209003246D01*
X163752920Y-161012826D02*
X163626622Y-161003208D01*
X11051175Y-112996753D02*
X11028829Y-113121430D01*
X11000000Y-233500000D02*
X11003208Y-233626622D01*
X163500000Y-111000000D02*
X163626622Y-110996791D01*
X165996791Y-133626622D02*
X166000000Y-133500000D01*
X13500000Y-186000000D02*
X13373377Y-186003208D01*
X163878569Y-235971170D02*
X164003246Y-235948824D01*
X165621610Y-37177589D02*
X165551908Y-37071829D01*
X164485889Y-110797394D02*
X164600985Y-110744511D01*
X12996753Y-86051175D02*
X12873368Y-86079807D01*
X166500000Y-236000000D02*
X166500000Y-236370083D01*
X163752920Y-235987173D02*
X163878569Y-235971170D01*
X12399014Y-210744511D02*
X12514110Y-210797394D01*
X164248407Y-135885348D02*
X164368263Y-135844380D01*
X12751592Y-86114651D02*
X12631736Y-86155619D01*
X165030264Y-11523060D02*
X164928170Y-11448091D01*
X165844380Y-259368263D02*
X165885348Y-259248407D01*
X12751592Y-160885348D02*
X12873368Y-160920192D01*
X164126631Y-36079807D02*
X164003246Y-36051175D01*
X12751592Y-185885348D02*
X12873368Y-185920192D01*
X13247079Y-135987173D02*
X13373377Y-135996791D01*
X165311981Y-111777582D02*
X165222417Y-111688018D01*
X12751592Y-136114651D02*
X12631736Y-136155619D01*
X165222417Y-86688018D02*
X165128431Y-86603104D01*
X10500000Y-162071829D02*
X11448091Y-162071829D01*
X13121430Y-235971170D02*
X13247079Y-235987173D01*
X11114651Y-212751592D02*
X11079807Y-212873368D01*
X10500000Y-110629916D02*
X11448091Y-109928170D01*
X166500000Y-113500000D02*
X166000000Y-113500000D01*
X164822410Y-61378389D02*
X164713254Y-61314133D01*
X165885348Y-184248407D02*
X165920192Y-184126631D01*
X165971170Y-208878569D02*
X165987173Y-208752920D01*
X164485889Y-260797394D02*
X164600985Y-260744511D01*
X166500000Y-108500000D02*
X166500000Y-109928170D01*
X11003208Y-58626622D02*
X11012826Y-58752920D01*
X11777582Y-235311981D02*
X11871568Y-235396895D01*
X163752920Y-160987173D02*
X163878569Y-160971170D01*
X12751592Y-211114651D02*
X12631736Y-211155619D01*
X11003208Y-88373377D02*
X11000000Y-88500000D01*
X165996791Y-13373377D02*
X165987173Y-13247079D01*
X165885348Y-12751592D02*
X165844380Y-12631736D01*
X11028829Y-163121430D02*
X11012826Y-163247079D01*
X11003208Y-208626622D02*
X11012826Y-208752920D01*
X12399014Y-236255488D02*
X12286745Y-236314133D01*
X165128431Y-111603104D02*
X165030264Y-111523060D01*
X11155619Y-62631736D02*
X11114651Y-62751592D01*
X11378389Y-234822410D02*
X11448091Y-234928170D01*
X11079807Y-209126631D02*
X11114651Y-209248407D01*
X163626622Y-211003208D02*
X163500000Y-211000000D01*
X164822410Y-211378389D02*
X164713254Y-211314133D01*
X165685866Y-37286745D02*
X165621610Y-37177589D01*
X165920192Y-37873368D02*
X165885348Y-37751592D01*
X165948824Y-187996753D02*
X165920192Y-187873368D01*
X163752920Y-61012826D02*
X163626622Y-61003208D01*
X11012826Y-158752920D02*
X11028829Y-158878569D01*
X163626622Y-185996791D02*
X163752920Y-185987173D01*
X166500000Y-137071829D02*
X166500000Y-138500000D01*
X12514110Y-136202605D02*
X12399014Y-136255488D01*
X165476939Y-160030264D02*
X165551908Y-159928170D01*
X165030264Y-135476939D02*
X165128431Y-135396895D01*
X165744511Y-159600985D02*
X165797394Y-159485889D01*
X12514110Y-111202605D02*
X12399014Y-111255488D01*
X165797394Y-109485889D02*
X165844380Y-109368263D01*
X164126631Y-136079807D02*
X164003246Y-136051175D01*
X165948824Y-87996753D02*
X165920192Y-87873368D01*
X12071829Y-211448091D02*
X11969735Y-211523060D01*
X166500000Y-212071829D02*
X166500000Y-213500000D01*
X165551908Y-209928170D02*
X166500000Y-210629916D01*
X165996791Y-38373377D02*
X165987173Y-38247079D01*
X164600985Y-60744511D02*
X164713254Y-60685866D01*
X11378389Y-87177589D02*
X11314133Y-87286745D01*
X165797394Y-159485889D02*
X165844380Y-159368263D01*
X11255488Y-37399014D02*
X11202605Y-37514110D01*
X165987173Y-213247079D02*
X165971170Y-213121430D01*
X165621610Y-237177589D02*
X165551908Y-237071829D01*
X11255488Y-34600985D02*
X11314133Y-34713254D01*
X164600985Y-260744511D02*
X164713254Y-260685866D01*
X165128431Y-36603104D02*
X165030264Y-36523060D01*
X163626622Y-35996791D02*
X163752920Y-35987173D01*
X163878569Y-210971170D02*
X164003246Y-210948824D01*
X11000000Y-138500000D02*
X10500000Y-138500000D01*
X11079807Y-59126631D02*
X11114651Y-59248407D01*
X166500000Y-84928170D02*
X165551908Y-84928170D01*
X11202605Y-109485889D02*
X11255488Y-109600985D01*
X165971170Y-238121430D02*
X165948824Y-237996753D01*
X12873368Y-11079807D02*
X12751592Y-11114651D01*
X11448091Y-37071829D02*
X11378389Y-37177589D01*
X165311981Y-211777582D02*
X165222417Y-211688018D01*
X164600985Y-135744511D02*
X164713254Y-135685866D01*
X165948824Y-184003246D02*
X165971170Y-183878569D01*
X11688018Y-161777582D02*
X11603104Y-161871568D01*
X165885348Y-259248407D02*
X165920192Y-259126631D01*
X11448091Y-37071829D02*
X10500000Y-36370083D01*
X10500000Y-134928170D02*
X10500000Y-133500000D01*
X163500000Y-186000000D02*
X163626622Y-185996791D01*
X165885348Y-112751592D02*
X165844380Y-112631736D01*
X165311981Y-11777582D02*
X166311981Y-11777582D01*
X165621610Y-209822410D02*
X165685866Y-209713254D01*
X164248407Y-136114651D02*
X164126631Y-136079807D01*
X166500000Y-158500000D02*
X166500000Y-159928170D01*
X163626622Y-236003208D02*
X163500000Y-236000000D01*
X11012826Y-108752920D02*
X11028829Y-108878569D01*
X165797394Y-259485889D02*
X165844380Y-259368263D01*
X11871568Y-160396895D02*
X11969735Y-160476939D01*
X163626622Y-260996791D02*
X163752920Y-260987173D01*
X10500000Y-111370083D02*
X10500000Y-111000000D01*
X11871568Y-135396895D02*
X11969735Y-135476939D01*
X12399014Y-61255488D02*
X12286745Y-61314133D01*
X166500000Y-186000000D02*
X166500000Y-186370083D01*
X13373377Y-86003208D02*
X13247079Y-86012826D01*
X11448091Y-162071829D02*
X10500000Y-161370083D01*
X11688018Y-11777582D02*
X11603104Y-11871568D01*
X163878569Y-260971170D02*
X164003246Y-260948824D01*
X165987173Y-33752920D02*
X165996791Y-33626622D01*
X11603104Y-211871568D02*
X11523060Y-211969735D01*
X11114651Y-84248407D02*
X11155619Y-84368263D01*
X11028829Y-138121430D02*
X11012826Y-138247079D01*
X163878569Y-136028829D02*
X163752920Y-136012826D01*
X165621610Y-109822410D02*
X165685866Y-109713254D01*
X11448091Y-12071829D02*
X11378389Y-12177589D01*
X165476939Y-85030264D02*
X165551908Y-84928170D01*
X164248407Y-111114651D02*
X164126631Y-111079807D01*
X163878569Y-36028829D02*
X163752920Y-36012826D01*
X12286745Y-210685866D02*
X12399014Y-210744511D01*
X165551908Y-37071829D02*
X165476939Y-36969735D01*
X10500000Y-211000000D02*
X10500000Y-210629916D01*
X163878569Y-211028829D02*
X163752920Y-211012826D01*
X165551908Y-184928170D02*
X165621610Y-184822410D01*
X13500000Y-86000000D02*
X13373377Y-86003208D01*
X10500000Y-159928170D02*
X10500000Y-158500000D01*
X164126631Y-236079807D02*
X164003246Y-236051175D01*
X164126631Y-111079807D02*
X164003246Y-111051175D01*
X166000000Y-133500000D02*
X166500000Y-133500000D01*
X11012826Y-208752920D02*
X11028829Y-208878569D01*
X165311981Y-10778082D02*
X165311981Y-11777582D01*
X164485889Y-136202605D02*
X164368263Y-136155619D01*
X11777582Y-110311981D02*
X11871568Y-110396895D01*
X11202605Y-234485889D02*
X11255488Y-234600985D01*
X11012826Y-83752920D02*
X11028829Y-83878569D01*
X11314133Y-134713254D02*
X11378389Y-134822410D01*
X165971170Y-158878569D02*
X165987173Y-158752920D01*
X11969735Y-111523060D02*
X11871568Y-111603104D01*
X166000000Y-158500000D02*
X166500000Y-158500000D01*
X165987173Y-38247079D02*
X165971170Y-38121430D01*
X165551908Y-87071829D02*
X165476939Y-86969735D01*
X10500000Y-213500000D02*
X10500000Y-212071829D01*
X12399014Y-36255488D02*
X12286745Y-36314133D01*
X163878569Y-185971170D02*
X164003246Y-185948824D01*
X165920192Y-137873368D02*
X165885348Y-137751592D01*
X165685866Y-109713254D02*
X165744511Y-109600985D01*
X165030264Y-60476939D02*
X165128431Y-60396895D01*
X12751592Y-235885348D02*
X12873368Y-235920192D01*
X12399014Y-35744511D02*
X12514110Y-35797394D01*
X11155619Y-259368263D02*
X11202605Y-259485889D01*
X12873368Y-36079807D02*
X12751592Y-36114651D01*
X12286745Y-86314133D02*
X12177589Y-86378389D01*
X11202605Y-259485889D02*
X11255488Y-259600985D01*
X164248407Y-86114651D02*
X164126631Y-86079807D01*
X164368263Y-111155619D02*
X164248407Y-111114651D01*
X165844380Y-212631736D02*
X165797394Y-212514110D01*
X12996753Y-235948824D02*
X13121430Y-235971170D01*
X12177589Y-11378389D02*
X12071829Y-11448091D01*
X164003246Y-211051175D02*
X163878569Y-211028829D01*
X11378389Y-237177589D02*
X11314133Y-237286745D01*
X165396895Y-135128431D02*
X165476939Y-135030264D01*
X165844380Y-37631736D02*
X165797394Y-37514110D01*
X164368263Y-260844380D02*
X164485889Y-260797394D01*
X165222417Y-211688018D02*
X165128431Y-211603104D01*
X165396895Y-235128431D02*
X165476939Y-235030264D01*
X11523060Y-136969735D02*
X11448091Y-137071829D01*
X166000000Y-88500000D02*
X165996791Y-88373377D01*
X165844380Y-159368263D02*
X165885348Y-159248407D01*
X165744511Y-37399014D02*
X165685866Y-37286745D01*
X12996753Y-61051175D02*
X12873368Y-61079807D01*
X165920192Y-159126631D02*
X165948824Y-159003246D01*
X166500000Y-211000000D02*
X166500000Y-211370083D01*
X165222417Y-11688018D02*
X165128431Y-11603104D01*
X10500000Y-13500000D02*
X10500000Y-11291950D01*
X12071829Y-260551908D02*
X12177589Y-260621610D01*
X13500000Y-10000500D02*
X10500000Y-10000500D01*
X11155619Y-162631736D02*
X11114651Y-162751592D01*
X165844380Y-209368263D02*
X165885348Y-209248407D01*
X165311981Y-235222417D02*
X165396895Y-235128431D01*
X165396895Y-60128431D02*
X165476939Y-60030264D01*
X164713254Y-135685866D02*
X164822410Y-135621610D01*
X12631736Y-160844380D02*
X12751592Y-160885348D01*
X165920192Y-12873368D02*
X165885348Y-12751592D01*
X163500000Y-61000000D02*
X163626622Y-60996791D01*
X165844380Y-187631736D02*
X165797394Y-187514110D01*
X11202605Y-237514110D02*
X11155619Y-237631736D01*
X165551908Y-162071829D02*
X165476939Y-161969735D01*
X11603104Y-11871568D02*
X11523060Y-11969735D01*
X165797394Y-237514110D02*
X165744511Y-237399014D01*
X166000000Y-63500000D02*
X165996791Y-63373377D01*
X11448091Y-137071829D02*
X10500000Y-136370083D01*
X164368263Y-186155619D02*
X164248407Y-186114651D01*
X165987173Y-188247079D02*
X165971170Y-188121430D01*
X165971170Y-83878569D02*
X165987173Y-83752920D01*
X11688018Y-136777582D02*
X11603104Y-136871568D01*
X164003246Y-36051175D02*
X163878569Y-36028829D01*
X11871568Y-111603104D02*
X11777582Y-111688018D01*
X11448091Y-134928170D02*
X10500000Y-134928170D01*
X165971170Y-213121430D02*
X165948824Y-212996753D01*
X165797394Y-162514110D02*
X165744511Y-162399014D01*
X164713254Y-36314133D02*
X164600985Y-36255488D01*
X11603104Y-136871568D02*
X11523060Y-136969735D01*
X165222417Y-186688018D02*
X165128431Y-186603104D01*
X163500000Y-10500000D02*
X165915658Y-10500000D01*
X165996791Y-108626622D02*
X166000000Y-108500000D01*
X165797394Y-87514110D02*
X165744511Y-87399014D01*
X10500000Y-186370083D02*
X10500000Y-186000000D01*
X165551908Y-212071829D02*
X166500000Y-212071829D01*
X166500000Y-86370083D02*
X165551908Y-87071829D01*
X165996791Y-163373377D02*
X165987173Y-163247079D01*
X165797394Y-212514110D02*
X165744511Y-212399014D01*
X11603104Y-210128431D02*
X11688018Y-210222417D01*
X165920192Y-109126631D02*
X165948824Y-109003246D01*
X11448091Y-84928170D02*
X11523060Y-85030264D01*
X165948824Y-112996753D02*
X165920192Y-112873368D01*
X165844380Y-134368263D02*
X165885348Y-134248407D01*
X11003208Y-238373377D02*
X11000000Y-238500000D01*
X164485889Y-186202605D02*
X164368263Y-186155619D01*
X11688018Y-85222417D02*
X11777582Y-85311981D01*
X11079807Y-234126631D02*
X11114651Y-234248407D01*
X11202605Y-87514110D02*
X11155619Y-87631736D01*
X165222417Y-260311981D02*
X165311981Y-260222417D01*
X11777582Y-260311981D02*
X11871568Y-260396895D01*
X165987173Y-63247079D02*
X165971170Y-63121430D01*
X11448091Y-212071829D02*
X11378389Y-212177589D01*
X11114651Y-184248407D02*
X11155619Y-184368263D01*
X11255488Y-187399014D02*
X11202605Y-187514110D01*
X165621610Y-187177589D02*
X165551908Y-187071829D01*
X10500000Y-113500000D02*
X10500000Y-112071829D01*
X12286745Y-136314133D02*
X12177589Y-136378389D01*
X165476939Y-36969735D02*
X165396895Y-36871568D01*
X12071829Y-160551908D02*
X12177589Y-160621610D01*
X12071829Y-235551908D02*
X12177589Y-235621610D01*
X163752920Y-86012826D02*
X163626622Y-86003208D01*
X11114651Y-137751592D02*
X11079807Y-137873368D01*
X164600985Y-236255488D02*
X164485889Y-236202605D01*
X13373377Y-35996791D02*
X13500000Y-36000000D01*
X12751592Y-61114651D02*
X12631736Y-61155619D01*
X12071829Y-111448091D02*
X11969735Y-111523060D01*
X165396895Y-61871568D02*
X165311981Y-61777582D01*
X164003246Y-110948824D02*
X164126631Y-110920192D01*
X166500000Y-83500000D02*
X166500000Y-84928170D01*
X13247079Y-211012826D02*
X13121430Y-211028829D01*
X164368263Y-11155619D02*
X164248407Y-11114651D01*
X165030264Y-161523060D02*
X164928170Y-161448091D01*
X165396895Y-36871568D02*
X165311981Y-36777582D01*
X10500000Y-35629916D02*
X11448091Y-34928170D01*
X166500000Y-33500000D02*
X166500000Y-34928170D01*
X164248407Y-211114651D02*
X164126631Y-211079807D01*
X166000000Y-58500000D02*
X166500000Y-58500000D01*
X164928170Y-186448091D02*
X164822410Y-186378389D01*
X166500000Y-211370083D02*
X165551908Y-212071829D01*
X164928170Y-136448091D02*
X164822410Y-136378389D01*
X166500000Y-184928170D02*
X165551908Y-184928170D01*
X11051175Y-234003246D02*
X11079807Y-234126631D01*
X11314133Y-59713254D02*
X11378389Y-59822410D01*
X165844380Y-109368263D02*
X165885348Y-109248407D01*
X12177589Y-86378389D02*
X12071829Y-86448091D01*
X11688018Y-135222417D02*
X11777582Y-135311981D01*
X163878569Y-161028829D02*
X163752920Y-161012826D01*
X13500000Y-236000000D02*
X13373377Y-236003208D01*
X11051175Y-259003246D02*
X11079807Y-259126631D01*
X166500000Y-63500000D02*
X166000000Y-63500000D01*
X11255488Y-62399014D02*
X11202605Y-62514110D01*
X11523060Y-85030264D02*
X11603104Y-85128431D01*
X12631736Y-36155619D02*
X12514110Y-36202605D01*
X165311981Y-11777582D02*
X165222417Y-11688018D01*
X13373377Y-85996791D02*
X13500000Y-86000000D01*
X13121430Y-136028829D02*
X12996753Y-136051175D01*
X12071829Y-61448091D02*
X11969735Y-61523060D01*
X11000000Y-58500000D02*
X11003208Y-58626622D01*
X12514110Y-11202605D02*
X12399014Y-11255488D01*
X163878569Y-236028829D02*
X163752920Y-236012826D01*
X164368263Y-211155619D02*
X164248407Y-211114651D01*
X11051175Y-237996753D02*
X11028829Y-238121430D01*
X166000000Y-238500000D02*
X165996791Y-238373377D01*
X12631736Y-186155619D02*
X12514110Y-186202605D01*
X165551908Y-59928170D02*
X165621610Y-59822410D01*
X164600985Y-35744511D02*
X164713254Y-35685866D01*
X165685866Y-12286745D02*
X165621610Y-12177589D01*
X165128431Y-161603104D02*
X165030264Y-161523060D01*
X11079807Y-134126631D02*
X11114651Y-134248407D01*
X165987173Y-113247079D02*
X165971170Y-113121430D01*
X12399014Y-161255488D02*
X12286745Y-161314133D01*
X10500000Y-58500000D02*
X11000000Y-58500000D01*
X11028829Y-83878569D02*
X11051175Y-84003246D01*
X163752920Y-136012826D02*
X163626622Y-136003208D01*
X164928170Y-210551908D02*
X165030264Y-210476939D01*
X165621610Y-234822410D02*
X165685866Y-234713254D01*
X13373377Y-61003208D02*
X13247079Y-61012826D01*
X11871568Y-236603104D02*
X11777582Y-236688018D01*
X11448091Y-62071829D02*
X10500000Y-61370083D01*
X165128431Y-260396895D02*
X165222417Y-260311981D01*
X164485889Y-111202605D02*
X164368263Y-111155619D01*
X11871568Y-161603104D02*
X11777582Y-161688018D01*
X10500000Y-185629916D02*
X11448091Y-184928170D01*
X164248407Y-236114651D02*
X164126631Y-236079807D01*
X165551908Y-84928170D02*
X165621610Y-84822410D01*
X164822410Y-85621610D02*
X164928170Y-85551908D01*
X11155619Y-234368263D02*
X11202605Y-234485889D01*
X164485889Y-210797394D02*
X164600985Y-210744511D01*
X11314133Y-209713254D02*
X11378389Y-209822410D01*
X165987173Y-83752920D02*
X165996791Y-83626622D01*
X164368263Y-136155619D02*
X164248407Y-136114651D01*
X10500000Y-112071829D02*
X11448091Y-112071829D01*
X166500000Y-136000000D02*
X166500000Y-136370083D01*
X11871568Y-36603104D02*
X11777582Y-36688018D01*
X164600985Y-185744511D02*
X164713254Y-185685866D01*
X12071829Y-86448091D02*
X11969735Y-86523060D01*
X11028829Y-63121430D02*
X11012826Y-63247079D01*
X10500000Y-184928170D02*
X10500000Y-183500000D01*
X166500000Y-88500000D02*
X166000000Y-88500000D01*
X11079807Y-187873368D02*
X11051175Y-187996753D01*
X12631736Y-211155619D02*
X12514110Y-211202605D01*
X11777582Y-61688018D02*
X11688018Y-61777582D01*
X165222417Y-210311981D02*
X165311981Y-210222417D01*
X11012826Y-63247079D02*
X11003208Y-63373377D01*
X11314133Y-212286745D02*
X11255488Y-212399014D01*
X165920192Y-187873368D02*
X165885348Y-187751592D01*
X10500000Y-86370083D02*
X10500000Y-86000000D01*
X166500000Y-61370083D02*
X165551908Y-62071829D01*
X11688018Y-111777582D02*
X11603104Y-111871568D01*
X11028829Y-258878569D02*
X11051175Y-259003246D01*
X10500000Y-208500000D02*
X11000000Y-208500000D01*
X12631736Y-85844380D02*
X12751592Y-85885348D01*
X165476939Y-136969735D02*
X165396895Y-136871568D01*
X11448091Y-59928170D02*
X10500000Y-59928170D01*
X164003246Y-185948824D02*
X164126631Y-185920192D01*
X166500000Y-261473470D02*
X165311981Y-260222417D01*
X165222417Y-110311981D02*
X165311981Y-110222417D01*
X11028829Y-213121430D02*
X11012826Y-213247079D01*
X165996791Y-83626622D02*
X166000000Y-83500000D01*
X164126631Y-185920192D02*
X164248407Y-185885348D01*
X164003246Y-186051175D02*
X163878569Y-186028829D01*
X165685866Y-184713254D02*
X165744511Y-184600985D01*
X165128431Y-11603104D02*
X165030264Y-11523060D01*
X164928170Y-110551908D02*
X165030264Y-110476939D01*
X164600985Y-36255488D02*
X164485889Y-36202605D01*
X13247079Y-111012826D02*
X13121430Y-111028829D01*
X165797394Y-184485889D02*
X165844380Y-184368263D01*
X13247079Y-11012826D02*
X13121430Y-11028829D01*
X165685866Y-87286745D02*
X165621610Y-87177589D01*
X12177589Y-160621610D02*
X12286745Y-160685866D01*
X11155619Y-184368263D02*
X11202605Y-184485889D01*
X11255488Y-212399014D02*
X11202605Y-212514110D01*
X12514110Y-185797394D02*
X12631736Y-185844380D01*
X13247079Y-185987173D02*
X13373377Y-185996791D01*
X165996791Y-183626622D02*
X166000000Y-183500000D01*
X11000000Y-238500000D02*
X10500000Y-238500000D01*
X164822410Y-185621610D02*
X164928170Y-185551908D01*
X165685866Y-212286745D02*
X165621610Y-212177589D01*
X11688018Y-160222417D02*
X11777582Y-160311981D01*
X163878569Y-110971170D02*
X164003246Y-110948824D01*
X165621610Y-212177589D02*
X165551908Y-212071829D01*
X11000000Y-38500000D02*
X10500000Y-38500000D01*
X166500000Y-209928170D02*
X165551908Y-209928170D01*
X11378389Y-37177589D02*
X11314133Y-37286745D01*
X165476939Y-35030264D02*
X165551908Y-34928170D01*
X164822410Y-136378389D02*
X164713254Y-136314133D01*
X163752920Y-85987173D02*
X163878569Y-85971170D01*
X164928170Y-111448091D02*
X164822410Y-111378389D01*
X13500000Y-111000000D02*
X13373377Y-111003208D01*
X164248407Y-210885348D02*
X164368263Y-210844380D01*
X13121430Y-36028829D02*
X12996753Y-36051175D01*
X11000000Y-213500000D02*
X10500000Y-213500000D01*
X165885348Y-134248407D02*
X165920192Y-134126631D01*
X11603104Y-111871568D02*
X11523060Y-111969735D01*
X164928170Y-11448091D02*
X164822410Y-11378389D01*
X12873368Y-60920192D02*
X12996753Y-60948824D01*
X11871568Y-260396895D02*
X11969735Y-260476939D01*
X11871568Y-86603104D02*
X11777582Y-86688018D01*
X11448091Y-259928170D02*
X11523060Y-260030264D01*
X11969735Y-211523060D02*
X11871568Y-211603104D01*
X10500000Y-163500000D02*
X10500000Y-162071829D01*
X165476939Y-235030264D02*
X165551908Y-234928170D01*
X11688018Y-11777582D02*
X11688018Y-10778082D01*
X165948824Y-34003246D02*
X165971170Y-33878569D01*
X165030264Y-110476939D02*
X165128431Y-110396895D01*
X10500000Y-109928170D02*
X10500000Y-108500000D01*
X11114651Y-37751592D02*
X11079807Y-37873368D01*
X12286745Y-35685866D02*
X12399014Y-35744511D01*
X10500000Y-11291950D02*
X10688018Y-11777582D01*
X164485889Y-235797394D02*
X164600985Y-235744511D01*
X13121430Y-86028829D02*
X12996753Y-86051175D01*
X164713254Y-185685866D02*
X164822410Y-185621610D01*
X163752920Y-36012826D02*
X163626622Y-36003208D01*
X11523060Y-135030264D02*
X11603104Y-135128431D01*
X164713254Y-61314133D02*
X164600985Y-61255488D01*
X12751592Y-11114651D02*
X12631736Y-11155619D01*
X11523060Y-110030264D02*
X11603104Y-110128431D01*
X165987173Y-88247079D02*
X165971170Y-88121430D01*
X164003246Y-136051175D02*
X163878569Y-136028829D01*
X12514110Y-86202605D02*
X12399014Y-86255488D01*
X164368263Y-160844380D02*
X164485889Y-160797394D01*
X164126631Y-60920192D02*
X164248407Y-60885348D01*
X166500000Y-86000000D02*
X166500000Y-86370083D01*
X11114651Y-159248407D02*
X11155619Y-159368263D01*
X10500000Y-60629916D02*
X11448091Y-59928170D01*
X165222417Y-85311981D02*
X165311981Y-85222417D01*
X163626622Y-60996791D02*
X163752920Y-60987173D01*
X0Y0D02*
X0Y-272000000D01*
X11448091Y-184928170D02*
X11523060Y-185030264D01*
X165948824Y-237996753D02*
X165920192Y-237873368D01*
X165551908Y-37071829D02*
X166500000Y-37071829D01*
X12751592Y-135885348D02*
X12873368Y-135920192D01*
X11603104Y-185128431D02*
X11688018Y-185222417D01*
X165222417Y-236688018D02*
X165128431Y-236603104D01*
X165551908Y-212071829D02*
X165476939Y-211969735D01*
X165996791Y-58626622D02*
X166000000Y-58500000D01*
X165222417Y-161688018D02*
X165128431Y-161603104D01*
X165551908Y-234928170D02*
X166500000Y-235629916D01*
X11000000Y-13500000D02*
X10500000Y-13500000D01*
X11028829Y-233878569D02*
X11051175Y-234003246D01*
X12873368Y-111079807D02*
X12751592Y-111114651D01*
X163626622Y-210996791D02*
X163752920Y-210987173D01*
X11969735Y-136523060D02*
X11871568Y-136603104D01*
X165996791Y-88373377D02*
X165987173Y-88247079D01*
X166000000Y-33500000D02*
X166500000Y-33500000D01*
X12631736Y-111155619D02*
X12514110Y-111202605D01*
X164485889Y-11202605D02*
X164368263Y-11155619D01*
X166500000Y-134928170D02*
X165551908Y-134928170D01*
X165621610Y-84822410D02*
X165685866Y-84713254D01*
X165030264Y-111523060D02*
X164928170Y-111448091D01*
X164822410Y-186378389D02*
X164713254Y-186314133D01*
X164822410Y-235621610D02*
X164928170Y-235551908D01*
X165744511Y-34600985D02*
X165797394Y-34485889D01*
X163626622Y-136003208D02*
X163500000Y-136000000D01*
X164600985Y-210744511D02*
X164713254Y-210685866D01*
X166500000Y-162071829D02*
X166500000Y-163500000D01*
X165885348Y-234248407D02*
X165920192Y-234126631D01*
X12177589Y-186378389D02*
X12071829Y-186448091D01*
X163500000Y-11000000D02*
X163500000Y-10500000D01*
X165948824Y-37996753D02*
X165920192Y-37873368D01*
X11523060Y-86969735D02*
X11448091Y-87071829D01*
X11155619Y-37631736D02*
X11114651Y-37751592D01*
X164248407Y-35885348D02*
X164368263Y-35844380D01*
X165971170Y-58878569D02*
X165987173Y-58752920D01*
X166500000Y-187071829D02*
X166500000Y-188500000D01*
X13121430Y-85971170D02*
X13247079Y-85987173D01*
X13121430Y-135971170D02*
X13247079Y-135987173D01*
X165685866Y-112286745D02*
X165621610Y-112177589D01*
X12177589Y-185621610D02*
X12286745Y-185685866D01*
X165551908Y-159928170D02*
X165621610Y-159822410D01*
X12286745Y-11314133D02*
X12177589Y-11378389D01*
X13373377Y-210996791D02*
X13500000Y-211000000D01*
X12751592Y-260885348D02*
X12873368Y-260920192D01*
X165987173Y-208752920D02*
X165996791Y-208626622D01*
X13121430Y-260971170D02*
X13247079Y-260987173D01*
X165797394Y-59485889D02*
X165844380Y-59368263D01*
X166500000Y-161370083D02*
X165551908Y-162071829D01*
X165621610Y-62177589D02*
X165551908Y-62071829D01*
X11314133Y-112286745D02*
X11255488Y-112399014D01*
X11079807Y-62873368D02*
X11051175Y-62996753D01*
X11378389Y-109822410D02*
X11448091Y-109928170D01*
X164248407Y-235885348D02*
X164368263Y-235844380D01*
X11378389Y-62177589D02*
X11314133Y-62286745D01*
X11969735Y-186523060D02*
X11871568Y-186603104D01*
X11085426Y-261500000D02*
X11688018Y-261222417D01*
X13247079Y-61012826D02*
X13121430Y-61028829D01*
X11448091Y-162071829D02*
X11378389Y-162177589D01*
X11448091Y-84928170D02*
X10500000Y-84928170D01*
X11028829Y-113121430D02*
X11012826Y-113247079D01*
X165396895Y-210128431D02*
X165476939Y-210030264D01*
X11012826Y-33752920D02*
X11028829Y-33878569D01*
X165996791Y-138373377D02*
X165987173Y-138247079D01*
X12286745Y-211314133D02*
X12177589Y-211378389D01*
X11777582Y-36688018D02*
X11688018Y-36777582D01*
X165685866Y-159713254D02*
X165744511Y-159600985D01*
X11378389Y-34822410D02*
X11448091Y-34928170D01*
X164713254Y-110685866D02*
X164822410Y-110621610D01*
X11688018Y-211777582D02*
X11603104Y-211871568D01*
X11603104Y-260128431D02*
X11688018Y-260222417D01*
X11028829Y-183878569D02*
X11051175Y-184003246D01*
X165844380Y-237631736D02*
X165797394Y-237514110D01*
X13373377Y-161003208D02*
X13247079Y-161012826D01*
X165621610Y-59822410D02*
X165685866Y-59713254D01*
X11314133Y-162286745D02*
X11255488Y-162399014D01*
X11000000Y-163500000D02*
X10500000Y-163500000D01*
X165311981Y-61777582D02*
X165222417Y-61688018D01*
X10688018Y-11777582D02*
X11688018Y-11777582D01*
X164003246Y-35948824D02*
X164126631Y-35920192D01*
X12399014Y-260744511D02*
X12514110Y-260797394D01*
X166500000Y-133500000D02*
X166500000Y-134928170D01*
X164600985Y-186255488D02*
X164485889Y-186202605D01*
X165030264Y-211523060D02*
X164928170Y-211448091D01*
X165551908Y-109928170D02*
X165621610Y-109822410D01*
X12286745Y-235685866D02*
X12399014Y-235744511D01*
X11255488Y-59600985D02*
X11314133Y-59713254D01*
X10500000Y-88500000D02*
X10500000Y-87071829D01*
X164600985Y-136255488D02*
X164485889Y-136202605D01*
X11871568Y-210396895D02*
X11969735Y-210476939D01*
X164003246Y-111051175D02*
X163878569Y-111028829D01*
X11255488Y-162399014D02*
X11202605Y-162514110D01*
X11003208Y-108626622D02*
X11012826Y-108752920D01*
X12399014Y-111255488D02*
X12286745Y-111314133D01*
X11202605Y-137514110D02*
X11155619Y-137631736D01*
X165797394Y-84485889D02*
X165844380Y-84368263D01*
X13247079Y-236012826D02*
X13121430Y-236028829D01*
X13373377Y-236003208D02*
X13247079Y-236012826D01*
X165885348Y-59248407D02*
X165920192Y-59126631D01*
X11079807Y-12873368D02*
X11051175Y-12996753D01*
X165971170Y-13121430D02*
X165948824Y-12996753D01*
X10500000Y-138500000D02*
X10500000Y-137071829D01*
X13247079Y-235987173D02*
X13373377Y-235996791D01*
X165685866Y-34713254D02*
X165744511Y-34600985D01*
X166000000Y-188500000D02*
X165996791Y-188373377D01*
X11688018Y-35222417D02*
X11777582Y-35311981D01*
X10500000Y-161370083D02*
X10500000Y-161000000D01*
X11688018Y-261222417D02*
X11688018Y-260222417D01*
X11969735Y-110476939D02*
X12071829Y-110551908D01*
X11969735Y-36523060D02*
X11871568Y-36603104D01*
X164600985Y-235744511D02*
X164713254Y-235685866D01*
X11028829Y-208878569D02*
X11051175Y-209003246D01*
X165396895Y-236871568D02*
X165311981Y-236777582D01*
X164485889Y-61202605D02*
X164368263Y-61155619D01*
X12873368Y-260920192D02*
X12996753Y-260948824D01*
X164822410Y-35621610D02*
X164928170Y-35551908D01*
X165551908Y-87071829D02*
X166500000Y-87071829D01*
X164713254Y-211314133D02*
X164600985Y-211255488D01*
X165948824Y-137996753D02*
X165920192Y-137873368D01*
X165030264Y-186523060D02*
X164928170Y-186448091D01*
X12631736Y-185844380D02*
X12751592Y-185885348D01*
X11448091Y-234928170D02*
X10500000Y-234928170D01*
X13373377Y-211003208D02*
X13247079Y-211012826D01*
X165551908Y-159928170D02*
X166500000Y-160629916D01*
X166500000Y-59928170D02*
X165551908Y-59928170D01*
X13247079Y-260987173D02*
X13373377Y-260996791D01*
X164928170Y-85551908D02*
X165030264Y-85476939D01*
X165885348Y-187751592D02*
X165844380Y-187631736D01*
X163626622Y-11003208D02*
X163500000Y-11000000D01*
X11114651Y-209248407D02*
X11155619Y-209368263D01*
X12996753Y-260948824D02*
X13121430Y-260971170D01*
X11969735Y-235476939D02*
X12071829Y-235551908D01*
X165311981Y-210222417D02*
X165396895Y-210128431D01*
X164126631Y-61079807D02*
X164003246Y-61051175D01*
X163500000Y-86000000D02*
X163626622Y-85996791D01*
X165311981Y-260222417D02*
X165311981Y-261222417D01*
X10500000Y-136000000D02*
X10500000Y-135629916D01*
X12286745Y-111314133D02*
X12177589Y-111378389D01*
X164003246Y-161051175D02*
X163878569Y-161028829D01*
X11114651Y-187751592D02*
X11079807Y-187873368D01*
X12177589Y-210621610D02*
X12286745Y-210685866D01*
X13121430Y-185971170D02*
X13247079Y-185987173D01*
X164003246Y-61051175D02*
X163878569Y-61028829D01*
X165396895Y-211871568D02*
X165311981Y-211777582D01*
X163752920Y-236012826D02*
X163626622Y-236003208D01*
X165621610Y-112177589D02*
X165551908Y-112071829D01*
X165920192Y-112873368D02*
X165885348Y-112751592D01*
X13373377Y-60996791D02*
X13500000Y-61000000D01*
X165987173Y-183752920D02*
X165996791Y-183626622D01*
X12177589Y-236378389D02*
X12071829Y-236448091D01*
X165844380Y-62631736D02*
X165797394Y-62514110D01*
X11871568Y-110396895D02*
X11969735Y-110476939D01*
X165948824Y-109003246D02*
X165971170Y-108878569D01*
X165844380Y-87631736D02*
X165797394Y-87514110D01*
X11378389Y-209822410D02*
X11448091Y-209928170D01*
X12873368Y-210920192D02*
X12996753Y-210948824D01*
X165987173Y-138247079D02*
X165971170Y-138121430D01*
X12751592Y-36114651D02*
X12631736Y-36155619D01*
X164368263Y-60844380D02*
X164485889Y-60797394D01*
X11003208Y-133626622D02*
X11012826Y-133752920D01*
X166500000Y-188500000D02*
X166000000Y-188500000D01*
X11000000Y-108500000D02*
X11003208Y-108626622D01*
X165621610Y-137177589D02*
X165551908Y-137071829D01*
X166500000Y-186370083D02*
X165551908Y-187071829D01*
X13373377Y-235996791D02*
X13500000Y-236000000D01*
X165476939Y-236969735D02*
X165396895Y-236871568D01*
X11448091Y-234928170D02*
X11523060Y-235030264D01*
X10500000Y-187071829D02*
X11448091Y-187071829D01*
X11012826Y-183752920D02*
X11028829Y-183878569D01*
X11028829Y-38121430D02*
X11012826Y-38247079D01*
X165551908Y-62071829D02*
X166500000Y-62071829D01*
X11523060Y-160030264D02*
X11603104Y-160128431D01*
X11255488Y-209600985D02*
X11314133Y-209713254D01*
X11603104Y-160128431D02*
X11688018Y-160222417D01*
X165551908Y-162071829D02*
X166500000Y-162071829D01*
X11114651Y-109248407D02*
X11155619Y-109368263D01*
X11012826Y-213247079D02*
X11003208Y-213373377D01*
X164368263Y-61155619D02*
X164248407Y-61114651D01*
X11314133Y-84713254D02*
X11378389Y-84822410D01*
X12751592Y-35885348D02*
X12873368Y-35920192D01*
X12399014Y-211255488D02*
X12286745Y-211314133D01*
X166500000Y-185629916D02*
X166500000Y-186000000D01*
X165396895Y-111871568D02*
X165311981Y-111777582D01*
X163752920Y-260987173D02*
X163878569Y-260971170D01*
X165885348Y-84248407D02*
X165920192Y-84126631D01*
X165971170Y-133878569D02*
X165987173Y-133752920D01*
X13373377Y-260996791D02*
X13500000Y-261000000D01*
X164485889Y-160797394D02*
X164600985Y-160744511D01*
X165797394Y-134485889D02*
X165844380Y-134368263D01*
X11378389Y-184822410D02*
X11448091Y-184928170D01*
X11688018Y-260222417D02*
X11777582Y-260311981D01*
X165744511Y-137399014D02*
X165685866Y-137286745D01*
X164126631Y-211079807D02*
X164003246Y-211051175D01*
X11155619Y-34368263D02*
X11202605Y-34485889D01*
X13500000Y-36000000D02*
X13373377Y-36003208D01*
X165311981Y-260222417D02*
X166500000Y-261473470D01*
X165551908Y-34928170D02*
X166500000Y-35629916D01*
X165128431Y-236603104D02*
X165030264Y-236523060D01*
X11314133Y-184713254D02*
X11378389Y-184822410D01*
X165797394Y-37514110D02*
X165744511Y-37399014D01*
X10500000Y-158500000D02*
X11000000Y-158500000D01*
X11255488Y-87399014D02*
X11202605Y-87514110D01*
X12071829Y-185551908D02*
X12177589Y-185621610D01*
X11448091Y-187071829D02*
X10500000Y-186370083D01*
X12514110Y-85797394D02*
X12631736Y-85844380D01*
X165797394Y-209485889D02*
X165844380Y-209368263D01*
X163626622Y-61003208D02*
X163500000Y-61000000D01*
X12996753Y-160948824D02*
X13121430Y-160971170D01*
X164368263Y-236155619D02*
X164248407Y-236114651D01*
X13121430Y-186028829D02*
X12996753Y-186051175D01*
X11378389Y-259822410D02*
X11448091Y-259928170D01*
X11051175Y-109003246D02*
X11079807Y-109126631D01*
X166500000Y-234928170D02*
X165551908Y-234928170D01*
X165996791Y-113373377D02*
X165987173Y-113247079D01*
X163752920Y-35987173D02*
X163878569Y-35971170D01*
X11688018Y-110222417D02*
X11777582Y-110311981D01*
X11255488Y-137399014D02*
X11202605Y-137514110D01*
X11777582Y-210311981D02*
X11871568Y-210396895D01*
X11603104Y-161871568D02*
X11523060Y-161969735D01*
X10500000Y-36370083D02*
X10500000Y-36000000D01*
X166500000Y-34928170D02*
X165551908Y-34928170D01*
X11448091Y-134928170D02*
X11523060Y-135030264D01*
X13373377Y-186003208D02*
X13247079Y-186012826D01*
X11051175Y-184003246D02*
X11079807Y-184126631D01*
X165987173Y-133752920D02*
X165996791Y-133626622D01*
X165987173Y-258752920D02*
X165996791Y-258626622D01*
X11051175Y-59003246D02*
X11079807Y-59126631D01*
X165797394Y-62514110D02*
X165744511Y-62399014D01*
X11000000Y-33500000D02*
X11003208Y-33626622D01*
X165920192Y-212873368D02*
X165885348Y-212751592D01*
X166500000Y-58500000D02*
X166500000Y-59928170D01*
X164368263Y-185844380D02*
X164485889Y-185797394D01*
X164600985Y-85744511D02*
X164713254Y-85685866D01*
X165844380Y-184368263D02*
X165885348Y-184248407D01*
X164368263Y-210844380D02*
X164485889Y-210797394D01*
X11777582Y-161688018D02*
X11688018Y-161777582D01*
X164003246Y-135948824D02*
X164126631Y-135920192D01*
X165128431Y-136603104D02*
X165030264Y-136523060D01*
X165971170Y-88121430D02*
X165948824Y-87996753D01*
X12286745Y-36314133D02*
X12177589Y-36378389D01*
X11969735Y-160476939D02*
X12071829Y-160551908D01*
X165128431Y-185396895D02*
X165222417Y-185311981D01*
X165030264Y-36523060D02*
X164928170Y-36448091D01*
X11012826Y-138247079D02*
X11003208Y-138373377D01*
X12177589Y-135621610D02*
X12286745Y-135685866D01*
X11969735Y-11523060D02*
X11871568Y-11603104D01*
X13247079Y-210987173D02*
X13373377Y-210996791D01*
X11012826Y-38247079D02*
X11003208Y-38373377D01*
X177000000Y-272000000D02*
X177000000Y0D01*
X164485889Y-185797394D02*
X164600985Y-185744511D01*
X165920192Y-59126631D02*
X165948824Y-59003246D01*
X11003208Y-33626622D02*
X11012826Y-33752920D01*
X12399014Y-60744511D02*
X12514110Y-60797394D01*
X165844380Y-112631736D02*
X165797394Y-112514110D01*
X164713254Y-136314133D02*
X164600985Y-136255488D01*
X165551908Y-187071829D02*
X165476939Y-186969735D01*
X12514110Y-211202605D02*
X12399014Y-211255488D01*
X165948824Y-134003246D02*
X165971170Y-133878569D01*
X166500000Y-208500000D02*
X166500000Y-209928170D01*
X163626622Y-135996791D02*
X163752920Y-135987173D01*
X165914573Y-261500000D02*
X163500000Y-261500000D01*
X11777582Y-86688018D02*
X11688018Y-86777582D01*
X12177589Y-36378389D02*
X12071829Y-36448091D01*
X164368263Y-36155619D02*
X164248407Y-36114651D01*
X165311981Y-110222417D02*
X165396895Y-110128431D01*
X11003208Y-138373377D02*
X11000000Y-138500000D01*
X166500000Y-13500000D02*
X166000000Y-13500000D01*
X165844380Y-59368263D02*
X165885348Y-59248407D01*
X11378389Y-84822410D02*
X11448091Y-84928170D01*
X11448091Y-187071829D02*
X11378389Y-187177589D01*
X11051175Y-12996753D02*
X11028829Y-13121430D01*
X165844380Y-137631736D02*
X165797394Y-137514110D01*
X10500000Y-136370083D02*
X10500000Y-136000000D01*
X165030264Y-85476939D02*
X165128431Y-85396895D01*
X11051175Y-62996753D02*
X11028829Y-63121430D01*
X165744511Y-259600985D02*
X165797394Y-259485889D01*
X165030264Y-61523060D02*
X164928170Y-61448091D01*
X165551908Y-34928170D02*
X165621610Y-34822410D01*
X11155619Y-134368263D02*
X11202605Y-134485889D01*
X167000000Y-10000500D02*
X166500000Y-10000500D01*
X12631736Y-236155619D02*
X12514110Y-236202605D01*
X165744511Y-112399014D02*
X165685866Y-112286745D01*
X12177589Y-136378389D02*
X12071829Y-136448091D01*
X11777582Y-136688018D02*
X11688018Y-136777582D01*
X12286745Y-160685866D02*
X12399014Y-160744511D01*
X165920192Y-237873368D02*
X165885348Y-237751592D01*
X11378389Y-162177589D02*
X11314133Y-162286745D01*
X13500000Y-61000000D02*
X13373377Y-61003208D01*
X163500000Y-261000000D02*
X163626622Y-260996791D01*
X165744511Y-237399014D02*
X165685866Y-237286745D01*
X13247079Y-85987173D02*
X13373377Y-85996791D01*
X165744511Y-59600985D02*
X165797394Y-59485889D01*
X13373377Y-111003208D02*
X13247079Y-111012826D01*
X164485889Y-86202605D02*
X164368263Y-86155619D01*
X11871568Y-211603104D02*
X11777582Y-211688018D01*
X165987173Y-233752920D02*
X165996791Y-233626622D01*
X164600985Y-11255488D02*
X164485889Y-11202605D01*
X165476939Y-11969735D02*
X165396895Y-11871568D01*
X166500000Y-233500000D02*
X166500000Y-234928170D01*
X10500000Y-238500000D02*
X10500000Y-237071829D01*
X13247079Y-35987173D02*
X13373377Y-35996791D01*
X12177589Y-111378389D02*
X12071829Y-111448091D01*
X10500000Y-33500000D02*
X11000000Y-33500000D01*
X166500000Y-210629916D02*
X166500000Y-211000000D01*
X11777582Y-211688018D02*
X11688018Y-211777582D01*
X12631736Y-235844380D02*
X12751592Y-235885348D01*
X11255488Y-234600985D02*
X11314133Y-234713254D01*
X11012826Y-13247079D02*
X11003208Y-13373377D01*
X11155619Y-187631736D02*
X11114651Y-187751592D01*
X12071829Y-161448091D02*
X11969735Y-161523060D01*
X163500000Y-10000500D02*
X13500000Y-10000500D01*
X165971170Y-138121430D02*
X165948824Y-137996753D01*
X166000000Y-83500000D02*
X166500000Y-83500000D01*
X164822410Y-11378389D02*
X164713254Y-11314133D01*
X11012826Y-258752920D02*
X11028829Y-258878569D01*
X10500000Y-59928170D02*
X10500000Y-58500000D01*
X165311981Y-260222417D02*
X165396895Y-260128431D01*
X165551908Y-12071829D02*
X165476939Y-11969735D01*
X164248407Y-161114651D02*
X164126631Y-161079807D01*
X12996753Y-35948824D02*
X13121430Y-35971170D01*
X165396895Y-85128431D02*
X165476939Y-85030264D01*
X11448091Y-34928170D02*
X10500000Y-34928170D01*
X165030264Y-185476939D02*
X165128431Y-185396895D01*
X166500000Y-11291950D02*
X166500000Y-13500000D01*
X11028829Y-13121430D02*
X11012826Y-13247079D01*
X11777582Y-160311981D02*
X11871568Y-160396895D01*
X13121430Y-61028829D02*
X12996753Y-61051175D01*
X10500000Y-63500000D02*
X10500000Y-62071829D01*
X13121430Y-161028829D02*
X12996753Y-161051175D01*
X165476939Y-185030264D02*
X165551908Y-184928170D01*
X11969735Y-61523060D02*
X11871568Y-61603104D01*
X13500000Y-161000000D02*
X13373377Y-161003208D01*
X13373377Y-11003208D02*
X13247079Y-11012826D01*
X11448091Y-62071829D02*
X11378389Y-62177589D01*
X163878569Y-186028829D02*
X163752920Y-186012826D01*
X164248407Y-260885348D02*
X164368263Y-260844380D01*
X165551908Y-137071829D02*
X166500000Y-137071829D01*
X13500000Y-211000000D02*
X13373377Y-211003208D01*
X163626622Y-160996791D02*
X163752920Y-160987173D01*
X11448091Y-159928170D02*
X11523060Y-160030264D01*
X164485889Y-236202605D02*
X164368263Y-236155619D01*
X12071829Y-186448091D02*
X11969735Y-186523060D01*
X164003246Y-60948824D02*
X164126631Y-60920192D01*
X165885348Y-137751592D02*
X165844380Y-137631736D01*
X164485889Y-60797394D02*
X164600985Y-60744511D01*
X164713254Y-86314133D02*
X164600985Y-86255488D01*
X166500000Y-38500000D02*
X166000000Y-38500000D01*
X164368263Y-86155619D02*
X164248407Y-86114651D01*
X11523060Y-235030264D02*
X11603104Y-235128431D01*
X11114651Y-112751592D02*
X11079807Y-112873368D01*
X164928170Y-61448091D02*
X164822410Y-61378389D01*
X11012826Y-188247079D02*
X11003208Y-188373377D01*
X166500000Y-235629916D02*
X166500000Y-236000000D01*
X166500000Y-183500000D02*
X166500000Y-184928170D01*
X12873368Y-160920192D02*
X12996753Y-160948824D01*
X12514110Y-260797394D02*
X12631736Y-260844380D01*
X165920192Y-162873368D02*
X165885348Y-162751592D01*
X163626622Y-86003208D02*
X163500000Y-86000000D01*
X11448091Y-112071829D02*
X10500000Y-111370083D01*
X11969735Y-135476939D02*
X12071829Y-135551908D01*
X164928170Y-160551908D02*
X165030264Y-160476939D01*
X13500000Y-11000000D02*
X13373377Y-11003208D01*
X165396895Y-86871568D02*
X165311981Y-86777582D01*
X164126631Y-235920192D02*
X164248407Y-235885348D01*
X166500000Y-161000000D02*
X166500000Y-161370083D01*
X165797394Y-234485889D02*
X165844380Y-234368263D01*
X12399014Y-85744511D02*
X12514110Y-85797394D01*
X165744511Y-187399014D02*
X165685866Y-187286745D01*
X10500000Y-86000000D02*
X10500000Y-85629916D01*
X166000000Y-13500000D02*
X165996791Y-13373377D01*
X165621610Y-12177589D02*
X165551908Y-12071829D01*
X13121430Y-160971170D02*
X13247079Y-160987173D01*
X166000000Y-208500000D02*
X166500000Y-208500000D01*
X12514110Y-60797394D02*
X12631736Y-60844380D01*
X12399014Y-136255488D02*
X12286745Y-136314133D01*
X11969735Y-161523060D02*
X11871568Y-161603104D01*
X12631736Y-86155619D02*
X12514110Y-86202605D01*
X165030264Y-260476939D02*
X165128431Y-260396895D01*
X164003246Y-260948824D02*
X164126631Y-260920192D01*
X12177589Y-61378389D02*
X12071829Y-61448091D01*
X165996791Y-213373377D02*
X165987173Y-213247079D01*
X13373377Y-136003208D02*
X13247079Y-136012826D01*
X11079807Y-259126631D02*
X11114651Y-259248407D01*
X12873368Y-135920192D02*
X12996753Y-135948824D01*
X166500000Y-159928170D02*
X165551908Y-159928170D01*
X165311981Y-160222417D02*
X165396895Y-160128431D01*
X163626622Y-111003208D02*
X163500000Y-111000000D01*
X12177589Y-161378389D02*
X12071829Y-161448091D01*
X12177589Y-85621610D02*
X12286745Y-85685866D01*
X12751592Y-110885348D02*
X12873368Y-110920192D01*
X166500000Y-61000000D02*
X166500000Y-61370083D01*
X166000000Y-163500000D02*
X165996791Y-163373377D01*
X165948824Y-59003246D02*
X165971170Y-58878569D01*
X10500000Y-211370083D02*
X10500000Y-211000000D01*
X164248407Y-185885348D02*
X164368263Y-185844380D01*
X165396895Y-260128431D02*
X165476939Y-260030264D01*
X166500000Y-136370083D02*
X165551908Y-137071829D01*
X177000000Y0D02*
X0Y0D01*
X164003246Y-86051175D02*
X163878569Y-86028829D01*
X11378389Y-159822410D02*
X11448091Y-159928170D01*
X11202605Y-59485889D02*
X11255488Y-59600985D01*
X13247079Y-186012826D02*
X13121430Y-186028829D01*
X11378389Y-112177589D02*
X11314133Y-112286745D01*
X11028829Y-33878569D02*
X11051175Y-34003246D01*
X165621610Y-162177589D02*
X165551908Y-162071829D01*
X166500000Y-85629916D02*
X166500000Y-86000000D01*
X12751592Y-186114651D02*
X12631736Y-186155619D01*
X11255488Y-134600985D02*
X11314133Y-134713254D01*
X11603104Y-110128431D02*
X11688018Y-110222417D01*
X164003246Y-85948824D02*
X164126631Y-85920192D01*
X13121430Y-111028829D02*
X12996753Y-111051175D01*
X165222417Y-36688018D02*
X165128431Y-36603104D01*
X11314133Y-237286745D02*
X11255488Y-237399014D01*
X165948824Y-209003246D02*
X165971170Y-208878569D01*
X165885348Y-62751592D02*
X165844380Y-62631736D01*
X165311981Y-60222417D02*
X165396895Y-60128431D01*
X164928170Y-235551908D02*
X165030264Y-235476939D01*
X10500000Y-38500000D02*
X10500000Y-37071829D01*
X165844380Y-162631736D02*
X165797394Y-162514110D01*
X11028829Y-133878569D02*
X11051175Y-134003246D01*
X10500000Y-34928170D02*
X10500000Y-33500000D01*
X165744511Y-12399014D02*
X165685866Y-12286745D01*
X165476939Y-260030264D02*
X165551908Y-259928170D01*
X165987173Y-163247079D02*
X165971170Y-163121430D01*
X11012826Y-113247079D02*
X11003208Y-113373377D01*
X11000000Y-188500000D02*
X10500000Y-188500000D01*
X164248407Y-36114651D02*
X164126631Y-36079807D01*
X11000000Y-258500000D02*
X11003208Y-258626622D01*
X12286745Y-260685866D02*
X12399014Y-260744511D01*
X12177589Y-35621610D02*
X12286745Y-35685866D01*
X10500000Y-161000000D02*
X10500000Y-160629916D01*
X11688018Y-10778082D02*
X11084341Y-10500000D01*
X11012826Y-238247079D02*
X11003208Y-238373377D01*
X165996791Y-158626622D02*
X166000000Y-158500000D01*
X11000000Y-133500000D02*
X11003208Y-133626622D01*
X11603104Y-135128431D02*
X11688018Y-135222417D01*
X11000000Y-88500000D02*
X10500000Y-88500000D01*
X166500000Y-37071829D02*
X166500000Y-38500000D01*
X164600985Y-161255488D02*
X164485889Y-161202605D01*
X11000000Y-208500000D02*
X11003208Y-208626622D01*
X165476939Y-111969735D02*
X165396895Y-111871568D01*
X12873368Y-110920192D02*
X12996753Y-110948824D01*
X11028829Y-188121430D02*
X11012826Y-188247079D01*
X166500000Y-10000500D02*
X163500000Y-10000500D01*
X164485889Y-85797394D02*
X164600985Y-85744511D01*
X13500000Y-261500000D02*
X11085426Y-261500000D01*
X11969735Y-236523060D02*
X11871568Y-236603104D01*
X11028829Y-58878569D02*
X11051175Y-59003246D01*
X11155619Y-87631736D02*
X11114651Y-87751592D01*
X165621610Y-184822410D02*
X165685866Y-184713254D01*
X13500000Y-261000000D02*
X13500000Y-261500000D01*
X11155619Y-12631736D02*
X11114651Y-12751592D01*
X163752920Y-185987173D02*
X163878569Y-185971170D01*
X11028829Y-238121430D02*
X11012826Y-238247079D01*
X13121430Y-211028829D02*
X12996753Y-211051175D01*
X11003208Y-233626622D02*
X11012826Y-233752920D01*
X12399014Y-186255488D02*
X12286745Y-186314133D01*
X10500000Y-111000000D02*
X10500000Y-110629916D01*
X166500000Y-36000000D02*
X166500000Y-36370083D01*
X164003246Y-235948824D02*
X164126631Y-235920192D01*
X11202605Y-12514110D02*
X11155619Y-12631736D01*
X165885348Y-34248407D02*
X165920192Y-34126631D01*
X11969735Y-35476939D02*
X12071829Y-35551908D01*
X165971170Y-63121430D02*
X165948824Y-62996753D01*
X11603104Y-60128431D02*
X11688018Y-60222417D01*
X13373377Y-135996791D02*
X13500000Y-136000000D01*
X0Y-272000000D02*
X177000000Y-272000000D01*
X11155619Y-159368263D02*
X11202605Y-159485889D01*
X12631736Y-35844380D02*
X12751592Y-35885348D01*
X166500000Y-260708185D02*
X166311981Y-260222417D01*
X165222417Y-235311981D02*
X165311981Y-235222417D01*
X11448091Y-109928170D02*
X11523060Y-110030264D01*
X166500000Y-35629916D02*
X166500000Y-36000000D01*
X164003246Y-11051175D02*
X163878569Y-11028829D01*
X166500000Y-111000000D02*
X166500000Y-111370083D01*
X164928170Y-86448091D02*
X164822410Y-86378389D01*
X165476939Y-60030264D02*
X165551908Y-59928170D01*
X11378389Y-134822410D02*
X11448091Y-134928170D01*
X11051175Y-137996753D02*
X11028829Y-138121430D01*
X12286745Y-85685866D02*
X12399014Y-85744511D01*
X11314133Y-87286745D02*
X11255488Y-87399014D01*
X11051175Y-87996753D02*
X11028829Y-88121430D01*
X165311981Y-136777582D02*
X165222417Y-136688018D01*
D11*
X14555000Y-103900000D03*
X162445000Y-18100000D03*
X105605000Y-141600000D03*
X71395000Y-180400000D03*
X153555000Y-98500000D03*
X146055000Y-98500000D03*
X14555000Y-191300000D03*
X153555000Y-48500000D03*
X146055000Y-48500000D03*
X162445000Y-80700000D03*
X14555000Y-91300000D03*
X163105000Y-150000000D03*
X163105000Y-147000000D03*
X162445000Y-218100000D03*
X71395000Y-130400000D03*
X71395000Y-30400000D03*
X13895000Y-22000000D03*
X13895000Y-25000000D03*
X14555000Y-41300000D03*
X23445000Y-123500000D03*
X30945000Y-123500000D03*
X23445000Y-223500000D03*
X30945000Y-223500000D03*
X162445000Y-118100000D03*
X163105000Y-50000000D03*
X163105000Y-47000000D03*
X162445000Y-130700000D03*
X13895000Y-122000000D03*
X13895000Y-125000000D03*
X105605000Y-241600000D03*
X162445000Y-123900000D03*
X23445000Y-73500000D03*
X30945000Y-73500000D03*
X71395000Y-80400000D03*
X162445000Y-68100000D03*
X14555000Y-241300000D03*
X163105000Y-100000000D03*
X163105000Y-97000000D03*
X13895000Y-222000000D03*
X13895000Y-225000000D03*
X105605000Y-41600000D03*
X162445000Y-30700000D03*
X153555000Y-148500000D03*
X146055000Y-148500000D03*
X14555000Y-53900000D03*
X162445000Y-73900000D03*
X13895000Y-72000000D03*
X13895000Y-75000000D03*
X13895000Y-172000000D03*
X13895000Y-175000000D03*
X14555000Y-153900000D03*
X23445000Y-23500000D03*
X30945000Y-23500000D03*
X14555000Y-203900000D03*
X153555000Y-248500000D03*
X146055000Y-248500000D03*
X163105000Y-200000000D03*
X163105000Y-197000000D03*
X14555000Y-48100000D03*
X71395000Y-230400000D03*
X162445000Y-23900000D03*
X162445000Y-168100000D03*
X162445000Y-223900000D03*
X14555000Y-248100000D03*
X14555000Y-253900000D03*
X162445000Y-173900000D03*
X14555000Y-148100000D03*
X14555000Y-98100000D03*
X14555000Y-198100000D03*
X105605000Y-91600000D03*
X162445000Y-180700000D03*
X153555000Y-198500000D03*
X146055000Y-198500000D03*
X23445000Y-173500000D03*
X30945000Y-173500000D03*
X105605000Y-191600000D03*
X162445000Y-230700000D03*
X163105000Y-250000000D03*
X163105000Y-247000000D03*
X14555000Y-141300000D03*
M02*
