M48
; DRILL file {KiCad 8.0.4-8.0.4-0~ubuntu22.04.1} date 2024-09-06T10:46:15-0400
; FORMAT={-:-/ absolute / metric / decimal}
; #@! TF.CreationDate,2024-09-06T10:46:15-04:00
; #@! TF.GenerationSoftware,Kicad,Pcbnew,8.0.4-8.0.4-0~ubuntu22.04.1
; #@! TF.FileFunction,NonPlated,1,2,NPTH
FMAT,2
METRIC
; #@! TA.AperFunction,NonPlated,NPTH,ComponentDrill
T1C0.900
; #@! TA.AperFunction,NonPlated,NPTH,ComponentDrill
T2C1.200
%
G90
G05
T1
X13.895Y-22.0
X13.895Y-25.0
X13.895Y-72.0
X13.895Y-75.0
X13.895Y-122.0
X13.895Y-125.0
X13.895Y-172.0
X13.895Y-175.0
X13.895Y-222.0
X13.895Y-225.0
X163.105Y-47.0
X163.105Y-50.0
X163.105Y-97.0
X163.105Y-100.0
X163.105Y-147.0
X163.105Y-150.0
X163.105Y-197.0
X163.105Y-200.0
X163.105Y-247.0
X163.105Y-250.0
T2
X23.445Y-23.5
X23.445Y-73.5
X23.445Y-123.5
X23.445Y-173.5
X23.445Y-223.5
X30.945Y-23.5
X30.945Y-73.5
X30.945Y-123.5
X30.945Y-173.5
X30.945Y-223.5
X146.055Y-48.5
X146.055Y-98.5
X146.055Y-148.5
X146.055Y-198.5
X146.055Y-248.5
X153.555Y-48.5
X153.555Y-98.5
X153.555Y-148.5
X153.555Y-198.5
X153.555Y-248.5
M30
