M48
; DRILL file {KiCad 8.0.1-rc1} date 2024-08-02T09:31:45-0400
; FORMAT={-:-/ absolute / metric / decimal}
; #@! TF.CreationDate,2024-08-02T09:31:45-04:00
; #@! TF.GenerationSoftware,Kicad,Pcbnew,8.0.1-rc1
; #@! TF.FileFunction,Plated,1,2,PTH
FMAT,2
METRIC
; #@! TA.AperFunction,Plated,PTH,ViaDrill
T1C0.300
; #@! TA.AperFunction,Plated,PTH,ComponentDrill
T2C1.000
; #@! TA.AperFunction,Plated,PTH,ComponentDrill
T3C1.194
; #@! TA.AperFunction,Plated,PTH,ComponentDrill
T4C1.500
%
G90
G05
T1
X70.87Y-116.76
X74.805Y-106.665
X78.8Y-46.26
X78.83Y-63.97
X81.58Y-66.78
X81.9Y-106.69
X81.955Y-113.795
X85.22Y-89.23
X89.99Y-94.69
X96.7Y-92.64
X98.82Y-92.3
X104.2Y-99.61
X104.22Y-97.54
X104.25Y-95.93
X128.24Y-110.907
X128.27Y-114.02
X130.39Y-81.01
X131.47Y-81.88
X133.73Y-108.917
X135.089Y-113.96
X145.45Y-101.02
X145.51Y-94.3
X149.02Y-95.57
X151.78Y-86.7
X153.13Y-98.55
T2
X71.78Y-113.36
X71.78Y-118.36
X75.62Y-49.36
X75.62Y-51.9
X75.62Y-54.44
X75.62Y-56.98
X75.62Y-59.52
X75.62Y-62.06
X75.62Y-64.6
X75.62Y-67.14
X75.62Y-69.68
X75.62Y-72.22
X75.62Y-74.76
X75.62Y-77.3
X75.62Y-79.84
X75.62Y-82.38
X86.28Y-113.36
X86.28Y-115.86
X86.28Y-118.36
X112.22Y-38.67
X112.22Y-41.21
X112.22Y-43.75
X112.22Y-46.29
X112.22Y-48.83
X112.22Y-51.37
X112.22Y-53.91
X112.22Y-56.45
X112.22Y-58.99
X112.22Y-61.53
X112.22Y-64.07
X112.22Y-66.61
X112.22Y-69.15
X112.22Y-71.69
X112.22Y-74.23
X112.22Y-76.77
X112.22Y-79.31
X112.22Y-81.85
X112.22Y-84.39
X112.22Y-86.93
X112.22Y-89.47
X112.22Y-92.01
X135.07Y-38.66
X135.07Y-41.2
X135.07Y-43.74
X135.07Y-46.28
X135.07Y-48.82
X135.07Y-51.36
X135.07Y-53.9
X135.07Y-56.44
X135.07Y-58.98
X135.07Y-61.52
X135.07Y-64.06
X135.07Y-66.6
X135.07Y-69.14
X135.07Y-71.68
X135.07Y-74.22
X135.07Y-76.76
X135.07Y-79.3
X135.07Y-81.84
X135.07Y-84.38
X135.07Y-86.92
X135.07Y-89.46
X135.07Y-92.0
X153.78Y-113.28
X153.78Y-115.78
X153.78Y-118.28
X160.11Y-46.03
X160.11Y-48.57
X160.11Y-51.11
X160.11Y-53.65
X160.11Y-56.19
X160.11Y-58.73
X160.11Y-61.27
X160.11Y-63.81
X160.11Y-66.35
X160.11Y-68.89
X168.28Y-113.28
X168.28Y-118.28
T3
X114.269Y-108.27
X114.269Y-110.77
X114.269Y-113.27
T4
G00X79.43Y-110.26
M15
G01X78.13Y-110.26
M16
G05
G00X79.43Y-121.46
M15
G01X78.13Y-121.46
M16
G05
G00X160.63Y-110.18
M15
G01X161.93Y-110.18
M16
G05
G00X160.63Y-121.38
M15
G01X161.93Y-121.38
M16
G05
M30
