%TF.GenerationSoftware,KiCad,Pcbnew,8.0.4-8.0.4-0~ubuntu22.04.1*%
%TF.CreationDate,2024-09-06T10:46:14-04:00*%
%TF.ProjectId,Ruler_Pannel,52756c65-725f-4506-916e-6e656c2e6b69,rev?*%
%TF.SameCoordinates,Original*%
%TF.FileFunction,Soldermask,Top*%
%TF.FilePolarity,Negative*%
%FSLAX46Y46*%
G04 Gerber Fmt 4.6, Leading zero omitted, Abs format (unit mm)*
G04 Created by KiCad (PCBNEW 8.0.4-8.0.4-0~ubuntu22.04.1) date 2024-09-06 10:46:14*
%MOMM*%
%LPD*%
G01*
G04 APERTURE LIST*
G04 Aperture macros list*
%AMRoundRect*
0 Rectangle with rounded corners*
0 $1 Rounding radius*
0 $2 $3 $4 $5 $6 $7 $8 $9 X,Y pos of 4 corners*
0 Add a 4 corners polygon primitive as box body*
4,1,4,$2,$3,$4,$5,$6,$7,$8,$9,$2,$3,0*
0 Add four circle primitives for the rounded corners*
1,1,$1+$1,$2,$3*
1,1,$1+$1,$4,$5*
1,1,$1+$1,$6,$7*
1,1,$1+$1,$8,$9*
0 Add four rect primitives between the rounded corners*
20,1,$1+$1,$2,$3,$4,$5,0*
20,1,$1+$1,$4,$5,$6,$7,0*
20,1,$1+$1,$6,$7,$8,$9,0*
20,1,$1+$1,$8,$9,$2,$3,0*%
G04 Aperture macros list end*
%ADD10C,3.800000*%
%ADD11RoundRect,0.237500X0.237500X-0.250000X0.237500X0.250000X-0.237500X0.250000X-0.237500X-0.250000X0*%
%ADD12RoundRect,0.237500X0.250000X0.237500X-0.250000X0.237500X-0.250000X-0.237500X0.250000X-0.237500X0*%
%ADD13RoundRect,0.150000X0.587500X0.150000X-0.587500X0.150000X-0.587500X-0.150000X0.587500X-0.150000X0*%
%ADD14RoundRect,0.250000X-0.300000X-0.300000X0.300000X-0.300000X0.300000X0.300000X-0.300000X0.300000X0*%
%ADD15RoundRect,0.237500X-0.237500X0.250000X-0.237500X-0.250000X0.237500X-0.250000X0.237500X0.250000X0*%
%ADD16RoundRect,0.150000X-0.587500X-0.150000X0.587500X-0.150000X0.587500X0.150000X-0.587500X0.150000X0*%
%ADD17RoundRect,0.150000X0.150000X-0.512500X0.150000X0.512500X-0.150000X0.512500X-0.150000X-0.512500X0*%
%ADD18RoundRect,0.237500X0.092993X0.361130X-0.372191X0.023153X-0.092993X-0.361130X0.372191X-0.023153X0*%
%ADD19RoundRect,0.237500X-0.092993X-0.361130X0.372191X-0.023153X0.092993X0.361130X-0.372191X0.023153X0*%
%ADD20C,2.000000*%
%ADD21RoundRect,0.150000X0.825000X0.150000X-0.825000X0.150000X-0.825000X-0.150000X0.825000X-0.150000X0*%
%ADD22RoundRect,0.237500X-0.287500X-0.237500X0.287500X-0.237500X0.287500X0.237500X-0.287500X0.237500X0*%
%ADD23RoundRect,0.237500X-0.237500X0.287500X-0.237500X-0.287500X0.237500X-0.287500X0.237500X0.287500X0*%
%ADD24RoundRect,0.237500X-0.314718X0.200037X-0.137034X-0.346820X0.314718X-0.200037X0.137034X0.346820X0*%
%ADD25RoundRect,0.250000X0.550000X-1.500000X0.550000X1.500000X-0.550000X1.500000X-0.550000X-1.500000X0*%
%ADD26C,1.200000*%
%ADD27RoundRect,0.575000X1.600000X0.575000X-1.600000X0.575000X-1.600000X-0.575000X1.600000X-0.575000X0*%
%ADD28RoundRect,0.575000X1.445000X0.575000X-1.445000X0.575000X-1.445000X-0.575000X1.445000X-0.575000X0*%
%ADD29RoundRect,0.237500X-0.137034X0.346820X-0.314718X-0.200037X0.137034X-0.346820X0.314718X0.200037X0*%
%ADD30RoundRect,0.237500X0.314718X-0.200037X0.137034X0.346820X-0.314718X0.200037X-0.137034X-0.346820X0*%
%ADD31RoundRect,0.150000X-0.150000X0.512500X-0.150000X-0.512500X0.150000X-0.512500X0.150000X0.512500X0*%
%ADD32RoundRect,0.150000X0.850000X0.150000X-0.850000X0.150000X-0.850000X-0.150000X0.850000X-0.150000X0*%
%ADD33C,5.600000*%
%ADD34RoundRect,0.237500X0.372191X0.023153X-0.092993X0.361130X-0.372191X-0.023153X0.092993X-0.361130X0*%
%ADD35RoundRect,0.237500X-0.372191X-0.023153X0.092993X-0.361130X0.372191X0.023153X-0.092993X0.361130X0*%
%ADD36RoundRect,0.250000X-0.450000X0.325000X-0.450000X-0.325000X0.450000X-0.325000X0.450000X0.325000X0*%
%ADD37RoundRect,0.237500X0.287500X0.237500X-0.287500X0.237500X-0.287500X-0.237500X0.287500X-0.237500X0*%
%ADD38RoundRect,0.250000X0.300000X0.300000X-0.300000X0.300000X-0.300000X-0.300000X0.300000X-0.300000X0*%
%ADD39RoundRect,0.237500X-0.250000X-0.237500X0.250000X-0.237500X0.250000X0.237500X-0.250000X0.237500X0*%
%ADD40RoundRect,0.250000X0.300000X-0.300000X0.300000X0.300000X-0.300000X0.300000X-0.300000X-0.300000X0*%
%ADD41RoundRect,0.237500X0.237500X-0.287500X0.237500X0.287500X-0.237500X0.287500X-0.237500X-0.287500X0*%
%ADD42RoundRect,0.225000X0.225000X0.250000X-0.225000X0.250000X-0.225000X-0.250000X0.225000X-0.250000X0*%
%ADD43R,0.800000X1.000000*%
%ADD44C,0.900000*%
%ADD45R,1.500000X0.700000*%
%ADD46RoundRect,0.225000X-0.225000X-0.250000X0.225000X-0.250000X0.225000X0.250000X-0.225000X0.250000X0*%
%ADD47RoundRect,0.250000X-0.300000X0.300000X-0.300000X-0.300000X0.300000X-0.300000X0.300000X0.300000X0*%
%ADD48RoundRect,0.250000X-0.550000X1.500000X-0.550000X-1.500000X0.550000X-1.500000X0.550000X1.500000X0*%
%ADD49RoundRect,0.150000X-0.825000X-0.150000X0.825000X-0.150000X0.825000X0.150000X-0.825000X0.150000X0*%
%ADD50RoundRect,0.250000X0.450000X-0.325000X0.450000X0.325000X-0.450000X0.325000X-0.450000X-0.325000X0*%
%ADD51RoundRect,0.150000X-0.850000X-0.150000X0.850000X-0.150000X0.850000X0.150000X-0.850000X0.150000X0*%
%ADD52RoundRect,0.575000X-1.600000X-0.575000X1.600000X-0.575000X1.600000X0.575000X-1.600000X0.575000X0*%
%ADD53RoundRect,0.575000X-1.445000X-0.575000X1.445000X-0.575000X1.445000X0.575000X-1.445000X0.575000X0*%
%ADD54RoundRect,0.237500X0.137034X-0.346820X0.314718X0.200037X-0.137034X0.346820X-0.314718X-0.200037X0*%
%ADD55C,4.700000*%
G04 APERTURE END LIST*
D10*
%TO.C,M2*%
X74555000Y-123900000D03*
%TD*%
D11*
%TO.C,R19*%
X111520000Y-147702500D03*
X111520000Y-145877500D03*
%TD*%
D12*
%TO.C,R12*%
X102412500Y-171000000D03*
X100587500Y-171000000D03*
%TD*%
D13*
%TO.C,Q2*%
X114175000Y-166950000D03*
X114175000Y-165050000D03*
X112300000Y-166000000D03*
%TD*%
D14*
%TO.C,D5*%
X135300000Y-70900000D03*
X138100000Y-70900000D03*
%TD*%
D15*
%TO.C,R2*%
X123115000Y-97011082D03*
X123115000Y-98836082D03*
%TD*%
D16*
%TO.C,Q2*%
X182825000Y-95050000D03*
X182825000Y-96950000D03*
X184700000Y-96000000D03*
%TD*%
D15*
%TO.C,R20*%
X109700000Y-95862500D03*
X109700000Y-97687500D03*
%TD*%
D13*
%TO.C,Q5*%
X102175000Y-74450000D03*
X102175000Y-72550000D03*
X100300000Y-73500000D03*
%TD*%
D17*
%TO.C,U3*%
X107187500Y-143050000D03*
X108137500Y-143050000D03*
X109087500Y-143050000D03*
X109087500Y-140775000D03*
X107187500Y-140775000D03*
%TD*%
D18*
%TO.C,D18*%
X90864990Y-223611925D03*
X89449212Y-224640549D03*
%TD*%
D16*
%TO.C,Q4*%
X190825000Y-40050000D03*
X190825000Y-41950000D03*
X192700000Y-41000000D03*
%TD*%
D10*
%TO.C,M2*%
X222445000Y-38100000D03*
%TD*%
D19*
%TO.C,D13*%
X81245220Y-63414313D03*
X82660998Y-62385689D03*
%TD*%
D20*
%TO.C,REF\u002A\u002A*%
X165605000Y-161600000D03*
%TD*%
D21*
%TO.C,U2*%
X177360000Y-271481418D03*
X177360000Y-270211418D03*
X177360000Y-268941418D03*
X177360000Y-267671418D03*
X172410000Y-267671418D03*
X172410000Y-268941418D03*
X172410000Y-270211418D03*
X172410000Y-271481418D03*
%TD*%
D22*
%TO.C,C4*%
X107175000Y-88000000D03*
X108925000Y-88000000D03*
%TD*%
D23*
%TO.C,C5*%
X111550000Y-191125000D03*
X111550000Y-192875000D03*
%TD*%
D24*
%TO.C,D12*%
X217319400Y-240441588D03*
X217860180Y-242105936D03*
%TD*%
D12*
%TO.C,R8*%
X105887500Y-273550000D03*
X104062500Y-273550000D03*
%TD*%
D25*
%TO.C,C1*%
X130915000Y-245123582D03*
X130915000Y-239723582D03*
%TD*%
D20*
%TO.C,REF\u002A\u002A*%
X131395000Y-200400000D03*
%TD*%
D26*
%TO.C,BT1*%
X213555000Y-118500000D03*
X206055000Y-118500000D03*
D27*
X201990000Y-118500000D03*
D28*
X217955000Y-118500000D03*
%TD*%
D29*
%TO.C,D15*%
X92995391Y-69894064D03*
X92454611Y-71558412D03*
%TD*%
D30*
%TO.C,D17*%
X204570390Y-246532174D03*
X204029610Y-244867826D03*
%TD*%
D31*
%TO.C,U3*%
X189812500Y-168950000D03*
X188862500Y-168950000D03*
X187912500Y-168950000D03*
X187912500Y-171225000D03*
X189812500Y-171225000D03*
%TD*%
D32*
%TO.C,U1*%
X148500000Y-247945000D03*
X148500000Y-246675000D03*
X148500000Y-245405000D03*
X148500000Y-244135000D03*
X148500000Y-242865000D03*
X148500000Y-241595000D03*
X148500000Y-240325000D03*
X148500000Y-239055000D03*
X143500000Y-239055000D03*
X143500000Y-240325000D03*
X143500000Y-241595000D03*
X143500000Y-242865000D03*
X143500000Y-244135000D03*
X143500000Y-245405000D03*
X143500000Y-246675000D03*
X143500000Y-247945000D03*
%TD*%
D33*
%TO.C,M3*%
X74555000Y-211300000D03*
%TD*%
D11*
%TO.C,R3*%
X119115000Y-98836082D03*
X119115000Y-97011082D03*
%TD*%
D13*
%TO.C,Q1*%
X118175000Y-164450000D03*
X118175000Y-162550000D03*
X116300000Y-163500000D03*
%TD*%
D34*
%TO.C,D19*%
X82635997Y-274640549D03*
X81220219Y-273611925D03*
%TD*%
D35*
%TO.C,D19*%
X214364003Y-37359451D03*
X215779781Y-38388075D03*
%TD*%
D36*
%TO.C,L1*%
X104050000Y-90975000D03*
X104050000Y-93025000D03*
%TD*%
D12*
%TO.C,R4*%
X121887500Y-263550000D03*
X120062500Y-263550000D03*
%TD*%
D14*
%TO.C,D5*%
X135300000Y-270900000D03*
X138100000Y-270900000D03*
%TD*%
D37*
%TO.C,D11*%
X86942605Y-75563119D03*
X85192605Y-75563119D03*
%TD*%
D32*
%TO.C,U1*%
X148500000Y-147945000D03*
X148500000Y-146675000D03*
X148500000Y-145405000D03*
X148500000Y-144135000D03*
X148500000Y-142865000D03*
X148500000Y-141595000D03*
X148500000Y-140325000D03*
X148500000Y-139055000D03*
X143500000Y-139055000D03*
X143500000Y-140325000D03*
X143500000Y-141595000D03*
X143500000Y-142865000D03*
X143500000Y-144135000D03*
X143500000Y-145405000D03*
X143500000Y-146675000D03*
X143500000Y-147945000D03*
%TD*%
D11*
%TO.C,R1*%
X121115000Y-148836082D03*
X121115000Y-147011082D03*
%TD*%
D35*
%TO.C,D19*%
X214364003Y-237359451D03*
X215779781Y-238388075D03*
%TD*%
D25*
%TO.C,C1*%
X130915000Y-45123582D03*
X130915000Y-39723582D03*
%TD*%
D12*
%TO.C,R4*%
X121887500Y-63550000D03*
X120062500Y-63550000D03*
%TD*%
D26*
%TO.C,BT1*%
X213555000Y-68500000D03*
X206055000Y-68500000D03*
D27*
X201990000Y-68500000D03*
D28*
X217955000Y-68500000D03*
%TD*%
D33*
%TO.C,M3*%
X222445000Y-100700000D03*
%TD*%
D38*
%TO.C,D5*%
X161700000Y-41100000D03*
X158900000Y-41100000D03*
%TD*%
D39*
%TO.C,R11*%
X190587500Y-93500000D03*
X192412500Y-93500000D03*
%TD*%
D40*
%TO.C,D22*%
X198500000Y-219800000D03*
X198500000Y-217000000D03*
%TD*%
D13*
%TO.C,Q4*%
X106175000Y-171950000D03*
X106175000Y-170050000D03*
X104300000Y-171000000D03*
%TD*%
D39*
%TO.C,R12*%
X194587500Y-141000000D03*
X196412500Y-141000000D03*
%TD*%
D38*
%TO.C,D10*%
X173600000Y-243600000D03*
X170800000Y-243600000D03*
%TD*%
D11*
%TO.C,R20*%
X187300000Y-216137500D03*
X187300000Y-214312500D03*
%TD*%
D39*
%TO.C,R8*%
X191112500Y-38450000D03*
X192937500Y-38450000D03*
%TD*%
D34*
%TO.C,D19*%
X82635997Y-124640549D03*
X81220219Y-123611925D03*
%TD*%
D12*
%TO.C,R5*%
X117887500Y-216050000D03*
X116062500Y-216050000D03*
%TD*%
D14*
%TO.C,D7*%
X125900000Y-65900000D03*
X128700000Y-65900000D03*
%TD*%
D39*
%TO.C,R12*%
X194587500Y-241000000D03*
X196412500Y-241000000D03*
%TD*%
D12*
%TO.C,R8*%
X105887500Y-223550000D03*
X104062500Y-223550000D03*
%TD*%
%TO.C,R10*%
X110412500Y-216000000D03*
X108587500Y-216000000D03*
%TD*%
D39*
%TO.C,R6*%
X183112500Y-143450000D03*
X184937500Y-143450000D03*
%TD*%
%TO.C,R4*%
X175112500Y-248450000D03*
X176937500Y-248450000D03*
%TD*%
D14*
%TO.C,D10*%
X123400000Y-168400000D03*
X126200000Y-168400000D03*
%TD*%
D39*
%TO.C,R6*%
X183112500Y-243450000D03*
X184937500Y-243450000D03*
%TD*%
D38*
%TO.C,D1*%
X159255000Y-43600000D03*
X156455000Y-43600000D03*
%TD*%
D19*
%TO.C,D13*%
X81245220Y-163414313D03*
X82660998Y-162385689D03*
%TD*%
D18*
%TO.C,D18*%
X90864990Y-123611925D03*
X89449212Y-124640549D03*
%TD*%
D14*
%TO.C,D8*%
X118400000Y-73400000D03*
X121200000Y-73400000D03*
%TD*%
D40*
%TO.C,D21*%
X105700000Y-48477500D03*
X105700000Y-45677500D03*
%TD*%
D36*
%TO.C,L1*%
X104050000Y-190975000D03*
X104050000Y-193025000D03*
%TD*%
D11*
%TO.C,R2*%
X173885000Y-114988918D03*
X173885000Y-113163918D03*
%TD*%
D37*
%TO.C,D16*%
X211832395Y-50536881D03*
X210082395Y-50536881D03*
%TD*%
D39*
%TO.C,R11*%
X190587500Y-193500000D03*
X192412500Y-193500000D03*
%TD*%
D33*
%TO.C,M3*%
X74555000Y-111300000D03*
%TD*%
D37*
%TO.C,C4*%
X189825000Y-224000000D03*
X188075000Y-224000000D03*
%TD*%
D11*
%TO.C,R3*%
X119115000Y-198836082D03*
X119115000Y-197011082D03*
%TD*%
D41*
%TO.C,C5*%
X185450000Y-170875000D03*
X185450000Y-169125000D03*
%TD*%
D42*
%TO.C,C2*%
X120665000Y-187423582D03*
X119115000Y-187423582D03*
%TD*%
D16*
%TO.C,Q1*%
X178825000Y-247550000D03*
X178825000Y-249450000D03*
X180700000Y-248500000D03*
%TD*%
D37*
%TO.C,C4*%
X189825000Y-174000000D03*
X188075000Y-174000000D03*
%TD*%
D43*
%TO.C,SW1*%
X221995000Y-172150000D03*
X224205000Y-172150000D03*
D44*
X223105000Y-170000000D03*
X223105000Y-167000000D03*
D43*
X221995000Y-164850000D03*
X224205000Y-164850000D03*
D45*
X221345000Y-170750000D03*
X221345000Y-167750000D03*
X221345000Y-166250000D03*
%TD*%
D12*
%TO.C,R6*%
X113887500Y-268550000D03*
X112062500Y-268550000D03*
%TD*%
D10*
%TO.C,M2*%
X222445000Y-238100000D03*
%TD*%
D15*
%TO.C,R2*%
X123115000Y-47011082D03*
X123115000Y-48836082D03*
%TD*%
D12*
%TO.C,R10*%
X110412500Y-66000000D03*
X108587500Y-66000000D03*
%TD*%
D14*
%TO.C,D9*%
X120900000Y-120900000D03*
X123700000Y-120900000D03*
%TD*%
D46*
%TO.C,C2*%
X176335000Y-174576418D03*
X177885000Y-174576418D03*
%TD*%
D47*
%TO.C,D21*%
X191300000Y-213522500D03*
X191300000Y-216322500D03*
%TD*%
D23*
%TO.C,C3*%
X189100000Y-164332500D03*
X189100000Y-166082500D03*
%TD*%
D13*
%TO.C,Q4*%
X106175000Y-121950000D03*
X106175000Y-120050000D03*
X104300000Y-121000000D03*
%TD*%
D24*
%TO.C,D12*%
X217319400Y-140441588D03*
X217860180Y-142105936D03*
%TD*%
D37*
%TO.C,D16*%
X211832395Y-100536881D03*
X210082395Y-100536881D03*
%TD*%
D38*
%TO.C,D2*%
X154355000Y-48600000D03*
X151555000Y-48600000D03*
%TD*%
D29*
%TO.C,D20*%
X217885181Y-44867826D03*
X217344401Y-46532174D03*
%TD*%
D18*
%TO.C,D13*%
X215754780Y-248585687D03*
X214339002Y-249614311D03*
%TD*%
D48*
%TO.C,C1*%
X166085000Y-166876418D03*
X166085000Y-172276418D03*
%TD*%
D11*
%TO.C,R1*%
X121115000Y-248836082D03*
X121115000Y-247011082D03*
%TD*%
D12*
%TO.C,R5*%
X117887500Y-166050000D03*
X116062500Y-166050000D03*
%TD*%
D39*
%TO.C,R13*%
X198587500Y-38500000D03*
X200412500Y-38500000D03*
%TD*%
D14*
%TO.C,D6*%
X128400000Y-113400000D03*
X131200000Y-113400000D03*
%TD*%
%TO.C,D9*%
X120900000Y-170900000D03*
X123700000Y-170900000D03*
%TD*%
%TO.C,D10*%
X123400000Y-68400000D03*
X126200000Y-68400000D03*
%TD*%
D49*
%TO.C,U2*%
X119640000Y-190518582D03*
X119640000Y-191788582D03*
X119640000Y-193058582D03*
X119640000Y-194328582D03*
X124590000Y-194328582D03*
X124590000Y-193058582D03*
X124590000Y-191788582D03*
X124590000Y-190518582D03*
%TD*%
D25*
%TO.C,C1*%
X130915000Y-95123582D03*
X130915000Y-89723582D03*
%TD*%
D50*
%TO.C,L1*%
X192950000Y-171025000D03*
X192950000Y-168975000D03*
%TD*%
D38*
%TO.C,D9*%
X176100000Y-241100000D03*
X173300000Y-241100000D03*
%TD*%
D11*
%TO.C,R20*%
X187300000Y-166137500D03*
X187300000Y-164312500D03*
%TD*%
D34*
%TO.C,D14*%
X207525787Y-199614311D03*
X206110009Y-198585687D03*
%TD*%
D15*
%TO.C,R20*%
X109700000Y-145862500D03*
X109700000Y-147687500D03*
%TD*%
D39*
%TO.C,R8*%
X191112500Y-238450000D03*
X192937500Y-238450000D03*
%TD*%
D31*
%TO.C,U3*%
X189812500Y-268950000D03*
X188862500Y-268950000D03*
X187912500Y-268950000D03*
X187912500Y-271225000D03*
X189812500Y-271225000D03*
%TD*%
D20*
%TO.C,REF\u002A\u002A*%
X131395000Y-150400000D03*
%TD*%
D14*
%TO.C,D2*%
X142645000Y-263400000D03*
X145445000Y-263400000D03*
%TD*%
D13*
%TO.C,Q2*%
X114175000Y-116950000D03*
X114175000Y-115050000D03*
X112300000Y-116000000D03*
%TD*%
D39*
%TO.C,R9*%
X182587500Y-148500000D03*
X184412500Y-148500000D03*
%TD*%
D41*
%TO.C,C5*%
X185450000Y-70875000D03*
X185450000Y-69125000D03*
%TD*%
D36*
%TO.C,L1*%
X104050000Y-40975000D03*
X104050000Y-43025000D03*
%TD*%
D42*
%TO.C,C2*%
X120665000Y-37423582D03*
X119115000Y-37423582D03*
%TD*%
D31*
%TO.C,U3*%
X189812500Y-68950000D03*
X188862500Y-68950000D03*
X187912500Y-68950000D03*
X187912500Y-71225000D03*
X189812500Y-71225000D03*
%TD*%
D46*
%TO.C,C2*%
X176335000Y-224576418D03*
X177885000Y-224576418D03*
%TD*%
D13*
%TO.C,Q3*%
X110175000Y-219450000D03*
X110175000Y-217550000D03*
X108300000Y-218500000D03*
%TD*%
D18*
%TO.C,D18*%
X90864990Y-173611925D03*
X89449212Y-174640549D03*
%TD*%
D47*
%TO.C,D22*%
X98500000Y-42200000D03*
X98500000Y-45000000D03*
%TD*%
D49*
%TO.C,U2*%
X119640000Y-140518582D03*
X119640000Y-141788582D03*
X119640000Y-143058582D03*
X119640000Y-144328582D03*
X124590000Y-144328582D03*
X124590000Y-143058582D03*
X124590000Y-141788582D03*
X124590000Y-140518582D03*
%TD*%
D18*
%TO.C,D13*%
X215754780Y-98585687D03*
X214339002Y-99614311D03*
%TD*%
D11*
%TO.C,R3*%
X119115000Y-48836082D03*
X119115000Y-47011082D03*
%TD*%
D14*
%TO.C,D3*%
X140245000Y-265900000D03*
X143045000Y-265900000D03*
%TD*%
D21*
%TO.C,U2*%
X177360000Y-221481418D03*
X177360000Y-220211418D03*
X177360000Y-218941418D03*
X177360000Y-217671418D03*
X172410000Y-217671418D03*
X172410000Y-218941418D03*
X172410000Y-220211418D03*
X172410000Y-221481418D03*
%TD*%
D51*
%TO.C,U1*%
X148500000Y-64055000D03*
X148500000Y-65325000D03*
X148500000Y-66595000D03*
X148500000Y-67865000D03*
X148500000Y-69135000D03*
X148500000Y-70405000D03*
X148500000Y-71675000D03*
X148500000Y-72945000D03*
X153500000Y-72945000D03*
X153500000Y-71675000D03*
X153500000Y-70405000D03*
X153500000Y-69135000D03*
X153500000Y-67865000D03*
X153500000Y-66595000D03*
X153500000Y-65325000D03*
X153500000Y-64055000D03*
%TD*%
D47*
%TO.C,D22*%
X98500000Y-92200000D03*
X98500000Y-95000000D03*
%TD*%
D20*
%TO.C,REF\u002A\u002A*%
X131395000Y-50400000D03*
%TD*%
D16*
%TO.C,Q4*%
X190825000Y-90050000D03*
X190825000Y-91950000D03*
X192700000Y-91000000D03*
%TD*%
D38*
%TO.C,D8*%
X178600000Y-188600000D03*
X175800000Y-188600000D03*
%TD*%
%TO.C,D4*%
X164000000Y-38600000D03*
X161200000Y-38600000D03*
%TD*%
D14*
%TO.C,D2*%
X142645000Y-63400000D03*
X145445000Y-63400000D03*
%TD*%
D34*
%TO.C,D14*%
X207525787Y-49614311D03*
X206110009Y-48585687D03*
%TD*%
D24*
%TO.C,D12*%
X217319400Y-90441588D03*
X217860180Y-92105936D03*
%TD*%
D22*
%TO.C,D11*%
X210057395Y-186436881D03*
X211807395Y-186436881D03*
%TD*%
D39*
%TO.C,R10*%
X186587500Y-146000000D03*
X188412500Y-146000000D03*
%TD*%
D11*
%TO.C,R3*%
X119115000Y-148836082D03*
X119115000Y-147011082D03*
%TD*%
D38*
%TO.C,D8*%
X178600000Y-88600000D03*
X175800000Y-88600000D03*
%TD*%
D39*
%TO.C,R13*%
X198587500Y-238500000D03*
X200412500Y-238500000D03*
%TD*%
D43*
%TO.C,SW1*%
X75005000Y-39850000D03*
X72795000Y-39850000D03*
D44*
X73895000Y-42000000D03*
X73895000Y-45000000D03*
D43*
X75005000Y-47150000D03*
X72795000Y-47150000D03*
D45*
X75655000Y-41250000D03*
X75655000Y-44250000D03*
X75655000Y-45750000D03*
%TD*%
D22*
%TO.C,D11*%
X210057395Y-36436881D03*
X211807395Y-36436881D03*
%TD*%
D14*
%TO.C,D6*%
X128400000Y-213400000D03*
X131200000Y-213400000D03*
%TD*%
D41*
%TO.C,C3*%
X107900000Y-147667500D03*
X107900000Y-145917500D03*
%TD*%
D38*
%TO.C,D6*%
X168600000Y-148600000D03*
X165800000Y-148600000D03*
%TD*%
D33*
%TO.C,M3*%
X74555000Y-61300000D03*
%TD*%
D26*
%TO.C,BT1*%
X83445000Y-143500000D03*
X90945000Y-143500000D03*
D52*
X95010000Y-143500000D03*
D53*
X79045000Y-143500000D03*
%TD*%
D12*
%TO.C,R8*%
X105887500Y-173550000D03*
X104062500Y-173550000D03*
%TD*%
D26*
%TO.C,BT1*%
X83445000Y-243500000D03*
X90945000Y-243500000D03*
D52*
X95010000Y-243500000D03*
D53*
X79045000Y-243500000D03*
%TD*%
D54*
%TO.C,D15*%
X204004609Y-92105936D03*
X204545389Y-90441588D03*
%TD*%
D12*
%TO.C,R4*%
X121887500Y-113550000D03*
X120062500Y-113550000D03*
%TD*%
%TO.C,R4*%
X121887500Y-213550000D03*
X120062500Y-213550000D03*
%TD*%
D16*
%TO.C,Q4*%
X190825000Y-140050000D03*
X190825000Y-141950000D03*
X192700000Y-141000000D03*
%TD*%
D12*
%TO.C,R10*%
X110412500Y-166000000D03*
X108587500Y-166000000D03*
%TD*%
D16*
%TO.C,Q4*%
X190825000Y-190050000D03*
X190825000Y-191950000D03*
X192700000Y-191000000D03*
%TD*%
D10*
%TO.C,M2*%
X222445000Y-138100000D03*
%TD*%
D39*
%TO.C,R13*%
X198587500Y-188500000D03*
X200412500Y-188500000D03*
%TD*%
D43*
%TO.C,SW1*%
X221995000Y-72150000D03*
X224205000Y-72150000D03*
D44*
X223105000Y-70000000D03*
X223105000Y-67000000D03*
D43*
X221995000Y-64850000D03*
X224205000Y-64850000D03*
D45*
X221345000Y-70750000D03*
X221345000Y-67750000D03*
X221345000Y-66250000D03*
%TD*%
D16*
%TO.C,Q3*%
X186825000Y-42550000D03*
X186825000Y-44450000D03*
X188700000Y-43500000D03*
%TD*%
D14*
%TO.C,D8*%
X118400000Y-173400000D03*
X121200000Y-173400000D03*
%TD*%
D38*
%TO.C,D4*%
X164000000Y-138600000D03*
X161200000Y-138600000D03*
%TD*%
D18*
%TO.C,D13*%
X215754780Y-198585687D03*
X214339002Y-199614311D03*
%TD*%
D11*
%TO.C,R1*%
X121115000Y-198836082D03*
X121115000Y-197011082D03*
%TD*%
D23*
%TO.C,C3*%
X189100000Y-214332500D03*
X189100000Y-216082500D03*
%TD*%
D14*
%TO.C,D3*%
X140245000Y-165900000D03*
X143045000Y-165900000D03*
%TD*%
D24*
%TO.C,D12*%
X217319400Y-40441588D03*
X217860180Y-42105936D03*
%TD*%
D40*
%TO.C,D22*%
X198500000Y-169800000D03*
X198500000Y-167000000D03*
%TD*%
D38*
%TO.C,D8*%
X178600000Y-238600000D03*
X175800000Y-238600000D03*
%TD*%
%TO.C,D10*%
X173600000Y-143600000D03*
X170800000Y-143600000D03*
%TD*%
D17*
%TO.C,U3*%
X107187500Y-243050000D03*
X108137500Y-243050000D03*
X109087500Y-243050000D03*
X109087500Y-240775000D03*
X107187500Y-240775000D03*
%TD*%
D19*
%TO.C,D13*%
X81245220Y-213414313D03*
X82660998Y-212385689D03*
%TD*%
D16*
%TO.C,Q2*%
X182825000Y-145050000D03*
X182825000Y-146950000D03*
X184700000Y-146000000D03*
%TD*%
D39*
%TO.C,R10*%
X186587500Y-246000000D03*
X188412500Y-246000000D03*
%TD*%
D14*
%TO.C,D4*%
X133000000Y-123400000D03*
X135800000Y-123400000D03*
%TD*%
D13*
%TO.C,Q2*%
X114175000Y-216950000D03*
X114175000Y-215050000D03*
X112300000Y-216000000D03*
%TD*%
D24*
%TO.C,D17*%
X92429610Y-165467826D03*
X92970390Y-167132174D03*
%TD*%
D15*
%TO.C,R2*%
X123115000Y-247011082D03*
X123115000Y-248836082D03*
%TD*%
D16*
%TO.C,Q1*%
X178825000Y-197550000D03*
X178825000Y-199450000D03*
X180700000Y-198500000D03*
%TD*%
D33*
%TO.C,M3*%
X222445000Y-150700000D03*
%TD*%
D12*
%TO.C,R7*%
X109887500Y-71050000D03*
X108062500Y-71050000D03*
%TD*%
D35*
%TO.C,D14*%
X89474213Y-162385689D03*
X90889991Y-163414313D03*
%TD*%
%TO.C,D19*%
X214364003Y-87359451D03*
X215779781Y-88388075D03*
%TD*%
D38*
%TO.C,D1*%
X159255000Y-243600000D03*
X156455000Y-243600000D03*
%TD*%
D29*
%TO.C,D20*%
X217885181Y-144867826D03*
X217344401Y-146532174D03*
%TD*%
D22*
%TO.C,C4*%
X107175000Y-238000000D03*
X108925000Y-238000000D03*
%TD*%
D38*
%TO.C,D8*%
X178600000Y-38600000D03*
X175800000Y-38600000D03*
%TD*%
D34*
%TO.C,D19*%
X82635997Y-224640549D03*
X81220219Y-223611925D03*
%TD*%
D43*
%TO.C,SW1*%
X75005000Y-139850000D03*
X72795000Y-139850000D03*
D44*
X73895000Y-142000000D03*
X73895000Y-145000000D03*
D43*
X75005000Y-147150000D03*
X72795000Y-147150000D03*
D45*
X75655000Y-141250000D03*
X75655000Y-144250000D03*
X75655000Y-145750000D03*
%TD*%
D20*
%TO.C,REF\u002A\u002A*%
X165605000Y-261600000D03*
%TD*%
D14*
%TO.C,D10*%
X123400000Y-268400000D03*
X126200000Y-268400000D03*
%TD*%
D49*
%TO.C,U2*%
X119640000Y-240518582D03*
X119640000Y-241788582D03*
X119640000Y-243058582D03*
X119640000Y-244328582D03*
X124590000Y-244328582D03*
X124590000Y-243058582D03*
X124590000Y-241788582D03*
X124590000Y-240518582D03*
%TD*%
D12*
%TO.C,R11*%
X106412500Y-68500000D03*
X104587500Y-68500000D03*
%TD*%
%TO.C,R7*%
X109887500Y-171050000D03*
X108062500Y-171050000D03*
%TD*%
%TO.C,R6*%
X113887500Y-218550000D03*
X112062500Y-218550000D03*
%TD*%
D34*
%TO.C,D14*%
X207525787Y-149614311D03*
X206110009Y-148585687D03*
%TD*%
D41*
%TO.C,C5*%
X185450000Y-220875000D03*
X185450000Y-219125000D03*
%TD*%
D15*
%TO.C,R19*%
X185480000Y-114297500D03*
X185480000Y-116122500D03*
%TD*%
D55*
%TO.C,M2\u002C5*%
X222445000Y-143900000D03*
%TD*%
D26*
%TO.C,BT1*%
X83445000Y-93500000D03*
X90945000Y-93500000D03*
D52*
X95010000Y-93500000D03*
D53*
X79045000Y-93500000D03*
%TD*%
D39*
%TO.C,R7*%
X187112500Y-240950000D03*
X188937500Y-240950000D03*
%TD*%
D17*
%TO.C,U3*%
X107187500Y-43050000D03*
X108137500Y-43050000D03*
X109087500Y-43050000D03*
X109087500Y-40775000D03*
X107187500Y-40775000D03*
%TD*%
D54*
%TO.C,D20*%
X79114819Y-267132174D03*
X79655599Y-265467826D03*
%TD*%
D12*
%TO.C,R13*%
X98412500Y-123500000D03*
X96587500Y-123500000D03*
%TD*%
D16*
%TO.C,Q3*%
X186825000Y-192550000D03*
X186825000Y-194450000D03*
X188700000Y-193500000D03*
%TD*%
D39*
%TO.C,R4*%
X175112500Y-148450000D03*
X176937500Y-148450000D03*
%TD*%
D11*
%TO.C,R19*%
X111520000Y-97702500D03*
X111520000Y-95877500D03*
%TD*%
D20*
%TO.C,REF\u002A\u002A*%
X131395000Y-100400000D03*
%TD*%
D38*
%TO.C,D5*%
X161700000Y-191100000D03*
X158900000Y-191100000D03*
%TD*%
D10*
%TO.C,M2*%
X222445000Y-88100000D03*
%TD*%
D33*
%TO.C,M3*%
X74555000Y-261300000D03*
%TD*%
D12*
%TO.C,R9*%
X114412500Y-113500000D03*
X112587500Y-113500000D03*
%TD*%
D11*
%TO.C,R2*%
X173885000Y-164988918D03*
X173885000Y-163163918D03*
%TD*%
D43*
%TO.C,SW1*%
X221995000Y-122150000D03*
X224205000Y-122150000D03*
D44*
X223105000Y-120000000D03*
X223105000Y-117000000D03*
D43*
X221995000Y-114850000D03*
X224205000Y-114850000D03*
D45*
X221345000Y-120750000D03*
X221345000Y-117750000D03*
X221345000Y-116250000D03*
%TD*%
D39*
%TO.C,R6*%
X183112500Y-93450000D03*
X184937500Y-93450000D03*
%TD*%
D12*
%TO.C,R9*%
X114412500Y-63500000D03*
X112587500Y-63500000D03*
%TD*%
D19*
%TO.C,D13*%
X81245220Y-263414313D03*
X82660998Y-262385689D03*
%TD*%
D41*
%TO.C,C5*%
X185450000Y-120875000D03*
X185450000Y-119125000D03*
%TD*%
D24*
%TO.C,D12*%
X217319400Y-190441588D03*
X217860180Y-192105936D03*
%TD*%
D15*
%TO.C,R2*%
X123115000Y-147011082D03*
X123115000Y-148836082D03*
%TD*%
D16*
%TO.C,Q1*%
X178825000Y-47550000D03*
X178825000Y-49450000D03*
X180700000Y-48500000D03*
%TD*%
D13*
%TO.C,Q4*%
X106175000Y-221950000D03*
X106175000Y-220050000D03*
X104300000Y-221000000D03*
%TD*%
D38*
%TO.C,D1*%
X159255000Y-143600000D03*
X156455000Y-143600000D03*
%TD*%
D14*
%TO.C,D7*%
X125900000Y-165900000D03*
X128700000Y-165900000D03*
%TD*%
D37*
%TO.C,D16*%
X211832395Y-200536881D03*
X210082395Y-200536881D03*
%TD*%
D38*
%TO.C,D3*%
X156755000Y-246100000D03*
X153955000Y-246100000D03*
%TD*%
D14*
%TO.C,D7*%
X125900000Y-215900000D03*
X128700000Y-215900000D03*
%TD*%
D22*
%TO.C,D11*%
X210057395Y-236436881D03*
X211807395Y-236436881D03*
%TD*%
D38*
%TO.C,D9*%
X176100000Y-141100000D03*
X173300000Y-141100000D03*
%TD*%
D12*
%TO.C,R13*%
X98412500Y-73500000D03*
X96587500Y-73500000D03*
%TD*%
D39*
%TO.C,R11*%
X190587500Y-143500000D03*
X192412500Y-143500000D03*
%TD*%
%TO.C,R5*%
X179112500Y-45950000D03*
X180937500Y-45950000D03*
%TD*%
D49*
%TO.C,U2*%
X119640000Y-40518582D03*
X119640000Y-41788582D03*
X119640000Y-43058582D03*
X119640000Y-44328582D03*
X124590000Y-44328582D03*
X124590000Y-43058582D03*
X124590000Y-41788582D03*
X124590000Y-40518582D03*
%TD*%
D47*
%TO.C,D21*%
X191300000Y-263522500D03*
X191300000Y-266322500D03*
%TD*%
D22*
%TO.C,C4*%
X107175000Y-138000000D03*
X108925000Y-138000000D03*
%TD*%
D12*
%TO.C,R11*%
X106412500Y-268500000D03*
X104587500Y-268500000D03*
%TD*%
D39*
%TO.C,R5*%
X179112500Y-245950000D03*
X180937500Y-245950000D03*
%TD*%
D43*
%TO.C,SW1*%
X75005000Y-239850000D03*
X72795000Y-239850000D03*
D44*
X73895000Y-242000000D03*
X73895000Y-245000000D03*
D43*
X75005000Y-247150000D03*
X72795000Y-247150000D03*
D45*
X75655000Y-241250000D03*
X75655000Y-244250000D03*
X75655000Y-245750000D03*
%TD*%
D16*
%TO.C,Q1*%
X178825000Y-147550000D03*
X178825000Y-149450000D03*
X180700000Y-148500000D03*
%TD*%
D15*
%TO.C,R3*%
X177885000Y-163163918D03*
X177885000Y-164988918D03*
%TD*%
D18*
%TO.C,D13*%
X215754780Y-148585687D03*
X214339002Y-149614311D03*
%TD*%
D29*
%TO.C,D20*%
X217885181Y-244867826D03*
X217344401Y-246532174D03*
%TD*%
D12*
%TO.C,R8*%
X105887500Y-123550000D03*
X104062500Y-123550000D03*
%TD*%
D14*
%TO.C,D4*%
X133000000Y-173400000D03*
X135800000Y-173400000D03*
%TD*%
D16*
%TO.C,Q5*%
X194825000Y-137550000D03*
X194825000Y-139450000D03*
X196700000Y-138500000D03*
%TD*%
D35*
%TO.C,D14*%
X89474213Y-62385689D03*
X90889991Y-63414313D03*
%TD*%
D51*
%TO.C,U1*%
X148500000Y-164055000D03*
X148500000Y-165325000D03*
X148500000Y-166595000D03*
X148500000Y-167865000D03*
X148500000Y-169135000D03*
X148500000Y-170405000D03*
X148500000Y-171675000D03*
X148500000Y-172945000D03*
X153500000Y-172945000D03*
X153500000Y-171675000D03*
X153500000Y-170405000D03*
X153500000Y-169135000D03*
X153500000Y-167865000D03*
X153500000Y-166595000D03*
X153500000Y-165325000D03*
X153500000Y-164055000D03*
%TD*%
D14*
%TO.C,D2*%
X142645000Y-163400000D03*
X145445000Y-163400000D03*
%TD*%
D16*
%TO.C,Q4*%
X190825000Y-240050000D03*
X190825000Y-241950000D03*
X192700000Y-241000000D03*
%TD*%
D31*
%TO.C,U3*%
X189812500Y-118950000D03*
X188862500Y-118950000D03*
X187912500Y-118950000D03*
X187912500Y-121225000D03*
X189812500Y-121225000D03*
%TD*%
D38*
%TO.C,D3*%
X156755000Y-146100000D03*
X153955000Y-146100000D03*
%TD*%
D37*
%TO.C,C4*%
X189825000Y-74000000D03*
X188075000Y-74000000D03*
%TD*%
D20*
%TO.C,REF\u002A\u002A*%
X165605000Y-61600000D03*
%TD*%
D11*
%TO.C,R19*%
X111520000Y-47702500D03*
X111520000Y-45877500D03*
%TD*%
D39*
%TO.C,R13*%
X198587500Y-88500000D03*
X200412500Y-88500000D03*
%TD*%
D38*
%TO.C,D2*%
X154355000Y-148600000D03*
X151555000Y-148600000D03*
%TD*%
D13*
%TO.C,Q1*%
X118175000Y-114450000D03*
X118175000Y-112550000D03*
X116300000Y-113500000D03*
%TD*%
D38*
%TO.C,D4*%
X164000000Y-238600000D03*
X161200000Y-238600000D03*
%TD*%
D15*
%TO.C,R19*%
X185480000Y-164297500D03*
X185480000Y-166122500D03*
%TD*%
D14*
%TO.C,D9*%
X120900000Y-220900000D03*
X123700000Y-220900000D03*
%TD*%
D50*
%TO.C,L1*%
X192950000Y-271025000D03*
X192950000Y-268975000D03*
%TD*%
D39*
%TO.C,R4*%
X175112500Y-98450000D03*
X176937500Y-98450000D03*
%TD*%
D49*
%TO.C,U2*%
X119640000Y-90518582D03*
X119640000Y-91788582D03*
X119640000Y-93058582D03*
X119640000Y-94328582D03*
X124590000Y-94328582D03*
X124590000Y-93058582D03*
X124590000Y-91788582D03*
X124590000Y-90518582D03*
%TD*%
D31*
%TO.C,U3*%
X189812500Y-218950000D03*
X188862500Y-218950000D03*
X187912500Y-218950000D03*
X187912500Y-221225000D03*
X189812500Y-221225000D03*
%TD*%
D39*
%TO.C,R5*%
X179112500Y-145950000D03*
X180937500Y-145950000D03*
%TD*%
D16*
%TO.C,Q5*%
X194825000Y-187550000D03*
X194825000Y-189450000D03*
X196700000Y-188500000D03*
%TD*%
D15*
%TO.C,R19*%
X185480000Y-64297500D03*
X185480000Y-66122500D03*
%TD*%
D14*
%TO.C,D2*%
X142645000Y-213400000D03*
X145445000Y-213400000D03*
%TD*%
D30*
%TO.C,D17*%
X204570390Y-96532174D03*
X204029610Y-94867826D03*
%TD*%
D33*
%TO.C,M3*%
X222445000Y-50700000D03*
%TD*%
D39*
%TO.C,R6*%
X183112500Y-43450000D03*
X184937500Y-43450000D03*
%TD*%
D11*
%TO.C,R19*%
X111520000Y-197702500D03*
X111520000Y-195877500D03*
%TD*%
D38*
%TO.C,D6*%
X168600000Y-248600000D03*
X165800000Y-248600000D03*
%TD*%
D13*
%TO.C,Q3*%
X110175000Y-119450000D03*
X110175000Y-117550000D03*
X108300000Y-118500000D03*
%TD*%
D38*
%TO.C,D9*%
X176100000Y-41100000D03*
X173300000Y-41100000D03*
%TD*%
%TO.C,D2*%
X154355000Y-198600000D03*
X151555000Y-198600000D03*
%TD*%
D21*
%TO.C,U2*%
X177360000Y-121481418D03*
X177360000Y-120211418D03*
X177360000Y-118941418D03*
X177360000Y-117671418D03*
X172410000Y-117671418D03*
X172410000Y-118941418D03*
X172410000Y-120211418D03*
X172410000Y-121481418D03*
%TD*%
D40*
%TO.C,D21*%
X105700000Y-248477500D03*
X105700000Y-245677500D03*
%TD*%
D15*
%TO.C,R20*%
X109700000Y-195862500D03*
X109700000Y-197687500D03*
%TD*%
D50*
%TO.C,L1*%
X192950000Y-121025000D03*
X192950000Y-118975000D03*
%TD*%
D38*
%TO.C,D9*%
X176100000Y-191100000D03*
X173300000Y-191100000D03*
%TD*%
D26*
%TO.C,BT1*%
X213555000Y-168500000D03*
X206055000Y-168500000D03*
D27*
X201990000Y-168500000D03*
D28*
X217955000Y-168500000D03*
%TD*%
D16*
%TO.C,Q1*%
X178825000Y-97550000D03*
X178825000Y-99450000D03*
X180700000Y-98500000D03*
%TD*%
D40*
%TO.C,D21*%
X105700000Y-148477500D03*
X105700000Y-145677500D03*
%TD*%
D15*
%TO.C,R19*%
X185480000Y-264297500D03*
X185480000Y-266122500D03*
%TD*%
D19*
%TO.C,D18*%
X206135010Y-188388075D03*
X207550788Y-187359451D03*
%TD*%
D39*
%TO.C,R9*%
X182587500Y-248500000D03*
X184412500Y-248500000D03*
%TD*%
%TO.C,R8*%
X191112500Y-138450000D03*
X192937500Y-138450000D03*
%TD*%
D14*
%TO.C,D4*%
X133000000Y-223400000D03*
X135800000Y-223400000D03*
%TD*%
D23*
%TO.C,C5*%
X111550000Y-141125000D03*
X111550000Y-142875000D03*
%TD*%
D39*
%TO.C,R10*%
X186587500Y-196000000D03*
X188412500Y-196000000D03*
%TD*%
D11*
%TO.C,R19*%
X111520000Y-247702500D03*
X111520000Y-245877500D03*
%TD*%
D22*
%TO.C,C4*%
X107175000Y-188000000D03*
X108925000Y-188000000D03*
%TD*%
D40*
%TO.C,D21*%
X105700000Y-98477500D03*
X105700000Y-95677500D03*
%TD*%
D15*
%TO.C,R3*%
X177885000Y-213163918D03*
X177885000Y-214988918D03*
%TD*%
D38*
%TO.C,D10*%
X173600000Y-93600000D03*
X170800000Y-93600000D03*
%TD*%
D12*
%TO.C,R10*%
X110412500Y-116000000D03*
X108587500Y-116000000D03*
%TD*%
D38*
%TO.C,D5*%
X161700000Y-141100000D03*
X158900000Y-141100000D03*
%TD*%
D14*
%TO.C,D8*%
X118400000Y-273400000D03*
X121200000Y-273400000D03*
%TD*%
D29*
%TO.C,D15*%
X92995391Y-169894064D03*
X92454611Y-171558412D03*
%TD*%
D38*
%TO.C,D10*%
X173600000Y-193600000D03*
X170800000Y-193600000D03*
%TD*%
%TO.C,D1*%
X159255000Y-93600000D03*
X156455000Y-93600000D03*
%TD*%
%TO.C,D7*%
X171100000Y-96100000D03*
X168300000Y-96100000D03*
%TD*%
D19*
%TO.C,D18*%
X206135010Y-38388075D03*
X207550788Y-37359451D03*
%TD*%
D14*
%TO.C,D2*%
X142645000Y-113400000D03*
X145445000Y-113400000D03*
%TD*%
D29*
%TO.C,D15*%
X92995391Y-219894064D03*
X92454611Y-221558412D03*
%TD*%
D54*
%TO.C,D15*%
X204004609Y-192105936D03*
X204545389Y-190441588D03*
%TD*%
D39*
%TO.C,R10*%
X186587500Y-96000000D03*
X188412500Y-96000000D03*
%TD*%
D13*
%TO.C,Q5*%
X102175000Y-124450000D03*
X102175000Y-122550000D03*
X100300000Y-123500000D03*
%TD*%
D14*
%TO.C,D9*%
X120900000Y-70900000D03*
X123700000Y-70900000D03*
%TD*%
D12*
%TO.C,R7*%
X109887500Y-121050000D03*
X108062500Y-121050000D03*
%TD*%
D21*
%TO.C,U2*%
X177360000Y-71481418D03*
X177360000Y-70211418D03*
X177360000Y-68941418D03*
X177360000Y-67671418D03*
X172410000Y-67671418D03*
X172410000Y-68941418D03*
X172410000Y-70211418D03*
X172410000Y-71481418D03*
%TD*%
D14*
%TO.C,D3*%
X140245000Y-115900000D03*
X143045000Y-115900000D03*
%TD*%
%TO.C,D5*%
X135300000Y-120900000D03*
X138100000Y-120900000D03*
%TD*%
D12*
%TO.C,R9*%
X114412500Y-263500000D03*
X112587500Y-263500000D03*
%TD*%
D13*
%TO.C,Q2*%
X114175000Y-66950000D03*
X114175000Y-65050000D03*
X112300000Y-66000000D03*
%TD*%
D20*
%TO.C,KiKit_FID_T_1*%
X75000000Y-28000000D03*
%TD*%
D16*
%TO.C,Q3*%
X186825000Y-92550000D03*
X186825000Y-94450000D03*
X188700000Y-93500000D03*
%TD*%
D13*
%TO.C,Q1*%
X118175000Y-64450000D03*
X118175000Y-62550000D03*
X116300000Y-63500000D03*
%TD*%
D30*
%TO.C,D17*%
X204570390Y-46532174D03*
X204029610Y-44867826D03*
%TD*%
D14*
%TO.C,D3*%
X140245000Y-65900000D03*
X143045000Y-65900000D03*
%TD*%
%TO.C,D10*%
X123400000Y-118400000D03*
X126200000Y-118400000D03*
%TD*%
D51*
%TO.C,U1*%
X148500000Y-214055000D03*
X148500000Y-215325000D03*
X148500000Y-216595000D03*
X148500000Y-217865000D03*
X148500000Y-219135000D03*
X148500000Y-220405000D03*
X148500000Y-221675000D03*
X148500000Y-222945000D03*
X153500000Y-222945000D03*
X153500000Y-221675000D03*
X153500000Y-220405000D03*
X153500000Y-219135000D03*
X153500000Y-217865000D03*
X153500000Y-216595000D03*
X153500000Y-215325000D03*
X153500000Y-214055000D03*
%TD*%
D39*
%TO.C,R12*%
X194587500Y-91000000D03*
X196412500Y-91000000D03*
%TD*%
D12*
%TO.C,R5*%
X117887500Y-266050000D03*
X116062500Y-266050000D03*
%TD*%
D15*
%TO.C,R1*%
X175885000Y-113163918D03*
X175885000Y-114988918D03*
%TD*%
D39*
%TO.C,R7*%
X187112500Y-40950000D03*
X188937500Y-40950000D03*
%TD*%
D13*
%TO.C,Q3*%
X110175000Y-269450000D03*
X110175000Y-267550000D03*
X108300000Y-268500000D03*
%TD*%
D37*
%TO.C,D11*%
X86942605Y-175563119D03*
X85192605Y-175563119D03*
%TD*%
D39*
%TO.C,R5*%
X179112500Y-195950000D03*
X180937500Y-195950000D03*
%TD*%
D15*
%TO.C,R1*%
X175885000Y-163163918D03*
X175885000Y-164988918D03*
%TD*%
D47*
%TO.C,D21*%
X191300000Y-163522500D03*
X191300000Y-166322500D03*
%TD*%
D10*
%TO.C,M2*%
X74555000Y-73900000D03*
%TD*%
D30*
%TO.C,D12*%
X79680600Y-221558412D03*
X79139820Y-219894064D03*
%TD*%
D14*
%TO.C,D8*%
X118400000Y-123400000D03*
X121200000Y-123400000D03*
%TD*%
D55*
%TO.C,M2\u002C5*%
X222445000Y-93900000D03*
%TD*%
D22*
%TO.C,C4*%
X107175000Y-38000000D03*
X108925000Y-38000000D03*
%TD*%
D43*
%TO.C,SW1*%
X75005000Y-89850000D03*
X72795000Y-89850000D03*
D44*
X73895000Y-92000000D03*
X73895000Y-95000000D03*
D43*
X75005000Y-97150000D03*
X72795000Y-97150000D03*
D45*
X75655000Y-91250000D03*
X75655000Y-94250000D03*
X75655000Y-95750000D03*
%TD*%
D40*
%TO.C,D22*%
X198500000Y-269800000D03*
X198500000Y-267000000D03*
%TD*%
D23*
%TO.C,C5*%
X111550000Y-41125000D03*
X111550000Y-42875000D03*
%TD*%
D32*
%TO.C,U1*%
X148500000Y-97945000D03*
X148500000Y-96675000D03*
X148500000Y-95405000D03*
X148500000Y-94135000D03*
X148500000Y-92865000D03*
X148500000Y-91595000D03*
X148500000Y-90325000D03*
X148500000Y-89055000D03*
X143500000Y-89055000D03*
X143500000Y-90325000D03*
X143500000Y-91595000D03*
X143500000Y-92865000D03*
X143500000Y-94135000D03*
X143500000Y-95405000D03*
X143500000Y-96675000D03*
X143500000Y-97945000D03*
%TD*%
D11*
%TO.C,R20*%
X187300000Y-116137500D03*
X187300000Y-114312500D03*
%TD*%
D39*
%TO.C,R13*%
X198587500Y-138500000D03*
X200412500Y-138500000D03*
%TD*%
D47*
%TO.C,D22*%
X98500000Y-192200000D03*
X98500000Y-195000000D03*
%TD*%
D54*
%TO.C,D15*%
X204004609Y-42105936D03*
X204545389Y-40441588D03*
%TD*%
D39*
%TO.C,R12*%
X194587500Y-41000000D03*
X196412500Y-41000000D03*
%TD*%
D35*
%TO.C,D14*%
X89474213Y-262385689D03*
X90889991Y-263414313D03*
%TD*%
D48*
%TO.C,C1*%
X166085000Y-216876418D03*
X166085000Y-222276418D03*
%TD*%
D46*
%TO.C,C2*%
X176335000Y-124576418D03*
X177885000Y-124576418D03*
%TD*%
D38*
%TO.C,D7*%
X171100000Y-46100000D03*
X168300000Y-46100000D03*
%TD*%
D22*
%TO.C,D16*%
X85167605Y-161463119D03*
X86917605Y-161463119D03*
%TD*%
D15*
%TO.C,R20*%
X109700000Y-245862500D03*
X109700000Y-247687500D03*
%TD*%
D30*
%TO.C,D12*%
X79680600Y-271558412D03*
X79139820Y-269894064D03*
%TD*%
D39*
%TO.C,R4*%
X175112500Y-48450000D03*
X176937500Y-48450000D03*
%TD*%
D13*
%TO.C,Q5*%
X102175000Y-174450000D03*
X102175000Y-172550000D03*
X100300000Y-173500000D03*
%TD*%
D37*
%TO.C,C4*%
X189825000Y-124000000D03*
X188075000Y-124000000D03*
%TD*%
D16*
%TO.C,Q5*%
X194825000Y-87550000D03*
X194825000Y-89450000D03*
X196700000Y-88500000D03*
%TD*%
D43*
%TO.C,SW1*%
X75005000Y-189850000D03*
X72795000Y-189850000D03*
D44*
X73895000Y-192000000D03*
X73895000Y-195000000D03*
D43*
X75005000Y-197150000D03*
X72795000Y-197150000D03*
D45*
X75655000Y-191250000D03*
X75655000Y-194250000D03*
X75655000Y-195750000D03*
%TD*%
D19*
%TO.C,D18*%
X206135010Y-88388075D03*
X207550788Y-87359451D03*
%TD*%
D40*
%TO.C,D22*%
X198500000Y-119800000D03*
X198500000Y-117000000D03*
%TD*%
D15*
%TO.C,R3*%
X177885000Y-113163918D03*
X177885000Y-114988918D03*
%TD*%
D54*
%TO.C,D15*%
X204004609Y-142105936D03*
X204545389Y-140441588D03*
%TD*%
D12*
%TO.C,R9*%
X114412500Y-163500000D03*
X112587500Y-163500000D03*
%TD*%
D34*
%TO.C,D19*%
X82635997Y-174640549D03*
X81220219Y-173611925D03*
%TD*%
D14*
%TO.C,D4*%
X133000000Y-73400000D03*
X135800000Y-73400000D03*
%TD*%
D22*
%TO.C,D16*%
X85167605Y-261463119D03*
X86917605Y-261463119D03*
%TD*%
D41*
%TO.C,C3*%
X107900000Y-47667500D03*
X107900000Y-45917500D03*
%TD*%
D14*
%TO.C,D10*%
X123400000Y-218400000D03*
X126200000Y-218400000D03*
%TD*%
D13*
%TO.C,Q5*%
X102175000Y-224450000D03*
X102175000Y-222550000D03*
X100300000Y-223500000D03*
%TD*%
D23*
%TO.C,C5*%
X111550000Y-241125000D03*
X111550000Y-242875000D03*
%TD*%
D38*
%TO.C,D1*%
X159255000Y-193600000D03*
X156455000Y-193600000D03*
%TD*%
D12*
%TO.C,R11*%
X106412500Y-118500000D03*
X104587500Y-118500000D03*
%TD*%
D35*
%TO.C,D19*%
X214364003Y-187359451D03*
X215779781Y-188388075D03*
%TD*%
D10*
%TO.C,M2*%
X74555000Y-173900000D03*
%TD*%
D26*
%TO.C,BT1*%
X83445000Y-43500000D03*
X90945000Y-43500000D03*
D52*
X95010000Y-43500000D03*
D53*
X79045000Y-43500000D03*
%TD*%
D22*
%TO.C,D16*%
X85167605Y-61463119D03*
X86917605Y-61463119D03*
%TD*%
D38*
%TO.C,D7*%
X171100000Y-146100000D03*
X168300000Y-146100000D03*
%TD*%
D12*
%TO.C,R5*%
X117887500Y-116050000D03*
X116062500Y-116050000D03*
%TD*%
D15*
%TO.C,R1*%
X175885000Y-213163918D03*
X175885000Y-214988918D03*
%TD*%
D42*
%TO.C,C2*%
X120665000Y-237423582D03*
X119115000Y-237423582D03*
%TD*%
D14*
%TO.C,D7*%
X125900000Y-265900000D03*
X128700000Y-265900000D03*
%TD*%
D39*
%TO.C,R7*%
X187112500Y-190950000D03*
X188937500Y-190950000D03*
%TD*%
%TO.C,R12*%
X194587500Y-191000000D03*
X196412500Y-191000000D03*
%TD*%
D15*
%TO.C,R1*%
X175885000Y-263163918D03*
X175885000Y-264988918D03*
%TD*%
D32*
%TO.C,U1*%
X148500000Y-47945000D03*
X148500000Y-46675000D03*
X148500000Y-45405000D03*
X148500000Y-44135000D03*
X148500000Y-42865000D03*
X148500000Y-41595000D03*
X148500000Y-40325000D03*
X148500000Y-39055000D03*
X143500000Y-39055000D03*
X143500000Y-40325000D03*
X143500000Y-41595000D03*
X143500000Y-42865000D03*
X143500000Y-44135000D03*
X143500000Y-45405000D03*
X143500000Y-46675000D03*
X143500000Y-47945000D03*
%TD*%
D14*
%TO.C,D1*%
X137745000Y-68400000D03*
X140545000Y-68400000D03*
%TD*%
%TO.C,D1*%
X137745000Y-168400000D03*
X140545000Y-168400000D03*
%TD*%
D12*
%TO.C,R6*%
X113887500Y-118550000D03*
X112062500Y-118550000D03*
%TD*%
D23*
%TO.C,C3*%
X189100000Y-264332500D03*
X189100000Y-266082500D03*
%TD*%
D24*
%TO.C,D17*%
X92429610Y-215467826D03*
X92970390Y-217132174D03*
%TD*%
D10*
%TO.C,M2*%
X74555000Y-223900000D03*
%TD*%
D30*
%TO.C,D12*%
X79680600Y-171558412D03*
X79139820Y-169894064D03*
%TD*%
D16*
%TO.C,Q2*%
X182825000Y-245050000D03*
X182825000Y-246950000D03*
X184700000Y-246000000D03*
%TD*%
D14*
%TO.C,D4*%
X133000000Y-273400000D03*
X135800000Y-273400000D03*
%TD*%
D42*
%TO.C,C2*%
X120665000Y-87423582D03*
X119115000Y-87423582D03*
%TD*%
D14*
%TO.C,D9*%
X120900000Y-270900000D03*
X123700000Y-270900000D03*
%TD*%
D48*
%TO.C,C1*%
X166085000Y-116876418D03*
X166085000Y-122276418D03*
%TD*%
D38*
%TO.C,D5*%
X161700000Y-91100000D03*
X158900000Y-91100000D03*
%TD*%
%TO.C,D9*%
X176100000Y-91100000D03*
X173300000Y-91100000D03*
%TD*%
D12*
%TO.C,R4*%
X121887500Y-163550000D03*
X120062500Y-163550000D03*
%TD*%
D26*
%TO.C,BT1*%
X213555000Y-268500000D03*
X206055000Y-268500000D03*
D27*
X201990000Y-268500000D03*
D28*
X217955000Y-268500000D03*
%TD*%
D14*
%TO.C,D1*%
X137745000Y-218400000D03*
X140545000Y-218400000D03*
%TD*%
D47*
%TO.C,D22*%
X98500000Y-142200000D03*
X98500000Y-145000000D03*
%TD*%
D38*
%TO.C,D4*%
X164000000Y-88600000D03*
X161200000Y-88600000D03*
%TD*%
D11*
%TO.C,R2*%
X173885000Y-214988918D03*
X173885000Y-213163918D03*
%TD*%
D16*
%TO.C,Q5*%
X194825000Y-37550000D03*
X194825000Y-39450000D03*
X196700000Y-38500000D03*
%TD*%
D39*
%TO.C,R11*%
X190587500Y-43500000D03*
X192412500Y-43500000D03*
%TD*%
D11*
%TO.C,R3*%
X119115000Y-248836082D03*
X119115000Y-247011082D03*
%TD*%
D43*
%TO.C,SW1*%
X221995000Y-222150000D03*
X224205000Y-222150000D03*
D44*
X223105000Y-220000000D03*
X223105000Y-217000000D03*
D43*
X221995000Y-214850000D03*
X224205000Y-214850000D03*
D45*
X221345000Y-220750000D03*
X221345000Y-217750000D03*
X221345000Y-216250000D03*
%TD*%
D11*
%TO.C,R20*%
X187300000Y-266137500D03*
X187300000Y-264312500D03*
%TD*%
D16*
%TO.C,Q5*%
X194825000Y-237550000D03*
X194825000Y-239450000D03*
X196700000Y-238500000D03*
%TD*%
D15*
%TO.C,R3*%
X177885000Y-263163918D03*
X177885000Y-264988918D03*
%TD*%
D29*
%TO.C,D15*%
X92995391Y-119894064D03*
X92454611Y-121558412D03*
%TD*%
D19*
%TO.C,D18*%
X206135010Y-238388075D03*
X207550788Y-237359451D03*
%TD*%
D24*
%TO.C,D17*%
X92429610Y-265467826D03*
X92970390Y-267132174D03*
%TD*%
D18*
%TO.C,D18*%
X90864990Y-273611925D03*
X89449212Y-274640549D03*
%TD*%
D39*
%TO.C,R5*%
X179112500Y-95950000D03*
X180937500Y-95950000D03*
%TD*%
%TO.C,R10*%
X186587500Y-46000000D03*
X188412500Y-46000000D03*
%TD*%
D13*
%TO.C,Q4*%
X106175000Y-71950000D03*
X106175000Y-70050000D03*
X104300000Y-71000000D03*
%TD*%
%TO.C,Q4*%
X106175000Y-271950000D03*
X106175000Y-270050000D03*
X104300000Y-271000000D03*
%TD*%
D12*
%TO.C,R12*%
X102412500Y-121000000D03*
X100587500Y-121000000D03*
%TD*%
D38*
%TO.C,D2*%
X154355000Y-248600000D03*
X151555000Y-248600000D03*
%TD*%
D35*
%TO.C,D14*%
X89474213Y-212385689D03*
X90889991Y-213414313D03*
%TD*%
D55*
%TO.C,M2\u002C5*%
X74555000Y-68100000D03*
%TD*%
D30*
%TO.C,D12*%
X79680600Y-121558412D03*
X79139820Y-119894064D03*
%TD*%
D12*
%TO.C,R6*%
X113887500Y-68550000D03*
X112062500Y-68550000D03*
%TD*%
D20*
%TO.C,REF\u002A\u002A*%
X131395000Y-250400000D03*
%TD*%
D14*
%TO.C,D6*%
X128400000Y-163400000D03*
X131200000Y-163400000D03*
%TD*%
D55*
%TO.C,M2\u002C5*%
X222445000Y-43900000D03*
%TD*%
D46*
%TO.C,C2*%
X176335000Y-74576418D03*
X177885000Y-74576418D03*
%TD*%
D40*
%TO.C,D21*%
X105700000Y-198477500D03*
X105700000Y-195677500D03*
%TD*%
D30*
%TO.C,D17*%
X204570390Y-146532174D03*
X204029610Y-144867826D03*
%TD*%
D10*
%TO.C,M2*%
X222445000Y-188100000D03*
%TD*%
D19*
%TO.C,D13*%
X81245220Y-113414313D03*
X82660998Y-112385689D03*
%TD*%
D34*
%TO.C,D14*%
X207525787Y-99614311D03*
X206110009Y-98585687D03*
%TD*%
D14*
%TO.C,D7*%
X125900000Y-115900000D03*
X128700000Y-115900000D03*
%TD*%
D23*
%TO.C,C3*%
X189100000Y-114332500D03*
X189100000Y-116082500D03*
%TD*%
D46*
%TO.C,C2*%
X176335000Y-274576418D03*
X177885000Y-274576418D03*
%TD*%
D38*
%TO.C,D4*%
X164000000Y-188600000D03*
X161200000Y-188600000D03*
%TD*%
%TO.C,D10*%
X173600000Y-43600000D03*
X170800000Y-43600000D03*
%TD*%
D14*
%TO.C,D5*%
X135300000Y-220900000D03*
X138100000Y-220900000D03*
%TD*%
D11*
%TO.C,R20*%
X187300000Y-66137500D03*
X187300000Y-64312500D03*
%TD*%
D55*
%TO.C,M2\u002C5*%
X222445000Y-243900000D03*
%TD*%
D25*
%TO.C,C1*%
X130915000Y-145123582D03*
X130915000Y-139723582D03*
%TD*%
D12*
%TO.C,R11*%
X106412500Y-218500000D03*
X104587500Y-218500000D03*
%TD*%
D11*
%TO.C,R2*%
X173885000Y-264988918D03*
X173885000Y-263163918D03*
%TD*%
D47*
%TO.C,D21*%
X191300000Y-113522500D03*
X191300000Y-116322500D03*
%TD*%
D12*
%TO.C,R12*%
X102412500Y-71000000D03*
X100587500Y-71000000D03*
%TD*%
%TO.C,R8*%
X105887500Y-73550000D03*
X104062500Y-73550000D03*
%TD*%
D55*
%TO.C,M2\u002C5*%
X74555000Y-268100000D03*
%TD*%
D36*
%TO.C,L1*%
X104050000Y-140975000D03*
X104050000Y-143025000D03*
%TD*%
D17*
%TO.C,U3*%
X107187500Y-193050000D03*
X108137500Y-193050000D03*
X109087500Y-193050000D03*
X109087500Y-190775000D03*
X107187500Y-190775000D03*
%TD*%
D38*
%TO.C,D6*%
X168600000Y-198600000D03*
X165800000Y-198600000D03*
%TD*%
D54*
%TO.C,D20*%
X79114819Y-67132174D03*
X79655599Y-65467826D03*
%TD*%
D38*
%TO.C,D3*%
X156755000Y-96100000D03*
X153955000Y-96100000D03*
%TD*%
D10*
%TO.C,M2*%
X74555000Y-273900000D03*
%TD*%
D20*
%TO.C,KiKit_FID_T_2*%
X222000000Y-28000000D03*
%TD*%
D54*
%TO.C,D20*%
X79114819Y-217132174D03*
X79655599Y-215467826D03*
%TD*%
D23*
%TO.C,C5*%
X111550000Y-91125000D03*
X111550000Y-92875000D03*
%TD*%
D11*
%TO.C,R1*%
X121115000Y-98836082D03*
X121115000Y-97011082D03*
%TD*%
D38*
%TO.C,D3*%
X156755000Y-46100000D03*
X153955000Y-46100000D03*
%TD*%
D14*
%TO.C,D6*%
X128400000Y-263400000D03*
X131200000Y-263400000D03*
%TD*%
D29*
%TO.C,D20*%
X217885181Y-194867826D03*
X217344401Y-196532174D03*
%TD*%
D22*
%TO.C,D11*%
X210057395Y-86436881D03*
X211807395Y-86436881D03*
%TD*%
D13*
%TO.C,Q1*%
X118175000Y-214450000D03*
X118175000Y-212550000D03*
X116300000Y-213500000D03*
%TD*%
D29*
%TO.C,D20*%
X217885181Y-94867826D03*
X217344401Y-96532174D03*
%TD*%
D41*
%TO.C,C3*%
X107900000Y-247667500D03*
X107900000Y-245917500D03*
%TD*%
D40*
%TO.C,D22*%
X198500000Y-69800000D03*
X198500000Y-67000000D03*
%TD*%
D15*
%TO.C,R20*%
X109700000Y-45862500D03*
X109700000Y-47687500D03*
%TD*%
D38*
%TO.C,D8*%
X178600000Y-138600000D03*
X175800000Y-138600000D03*
%TD*%
D37*
%TO.C,D16*%
X211832395Y-150536881D03*
X210082395Y-150536881D03*
%TD*%
D15*
%TO.C,R3*%
X177885000Y-63163918D03*
X177885000Y-64988918D03*
%TD*%
D55*
%TO.C,M2\u002C5*%
X222445000Y-193900000D03*
%TD*%
D38*
%TO.C,D2*%
X154355000Y-98600000D03*
X151555000Y-98600000D03*
%TD*%
D15*
%TO.C,R1*%
X175885000Y-63163918D03*
X175885000Y-64988918D03*
%TD*%
D37*
%TO.C,D11*%
X86942605Y-125563119D03*
X85192605Y-125563119D03*
%TD*%
D55*
%TO.C,M2\u002C5*%
X74555000Y-168100000D03*
%TD*%
D21*
%TO.C,U2*%
X177360000Y-171481418D03*
X177360000Y-170211418D03*
X177360000Y-168941418D03*
X177360000Y-167671418D03*
X172410000Y-167671418D03*
X172410000Y-168941418D03*
X172410000Y-170211418D03*
X172410000Y-171481418D03*
%TD*%
D15*
%TO.C,R19*%
X185480000Y-214297500D03*
X185480000Y-216122500D03*
%TD*%
D12*
%TO.C,R10*%
X110412500Y-266000000D03*
X108587500Y-266000000D03*
%TD*%
D22*
%TO.C,D16*%
X85167605Y-211463119D03*
X86917605Y-211463119D03*
%TD*%
D51*
%TO.C,U1*%
X148500000Y-114055000D03*
X148500000Y-115325000D03*
X148500000Y-116595000D03*
X148500000Y-117865000D03*
X148500000Y-119135000D03*
X148500000Y-120405000D03*
X148500000Y-121675000D03*
X148500000Y-122945000D03*
X153500000Y-122945000D03*
X153500000Y-121675000D03*
X153500000Y-120405000D03*
X153500000Y-119135000D03*
X153500000Y-117865000D03*
X153500000Y-116595000D03*
X153500000Y-115325000D03*
X153500000Y-114055000D03*
%TD*%
D50*
%TO.C,L1*%
X192950000Y-221025000D03*
X192950000Y-218975000D03*
%TD*%
D41*
%TO.C,C5*%
X185450000Y-270875000D03*
X185450000Y-269125000D03*
%TD*%
D16*
%TO.C,Q2*%
X182825000Y-45050000D03*
X182825000Y-46950000D03*
X184700000Y-46000000D03*
%TD*%
D12*
%TO.C,R13*%
X98412500Y-173500000D03*
X96587500Y-173500000D03*
%TD*%
D36*
%TO.C,L1*%
X104050000Y-240975000D03*
X104050000Y-243025000D03*
%TD*%
D39*
%TO.C,R8*%
X191112500Y-188450000D03*
X192937500Y-188450000D03*
%TD*%
D13*
%TO.C,Q3*%
X110175000Y-69450000D03*
X110175000Y-67550000D03*
X108300000Y-68500000D03*
%TD*%
D41*
%TO.C,C3*%
X107900000Y-97667500D03*
X107900000Y-95917500D03*
%TD*%
D12*
%TO.C,R13*%
X98412500Y-223500000D03*
X96587500Y-223500000D03*
%TD*%
D39*
%TO.C,R4*%
X175112500Y-198450000D03*
X176937500Y-198450000D03*
%TD*%
D38*
%TO.C,D6*%
X168600000Y-48600000D03*
X165800000Y-48600000D03*
%TD*%
D25*
%TO.C,C1*%
X130915000Y-195123582D03*
X130915000Y-189723582D03*
%TD*%
D16*
%TO.C,Q2*%
X182825000Y-195050000D03*
X182825000Y-196950000D03*
X184700000Y-196000000D03*
%TD*%
%TO.C,Q3*%
X186825000Y-242550000D03*
X186825000Y-244450000D03*
X188700000Y-243500000D03*
%TD*%
D17*
%TO.C,U3*%
X107187500Y-93050000D03*
X108137500Y-93050000D03*
X109087500Y-93050000D03*
X109087500Y-90775000D03*
X107187500Y-90775000D03*
%TD*%
D39*
%TO.C,R9*%
X182587500Y-48500000D03*
X184412500Y-48500000D03*
%TD*%
D37*
%TO.C,D11*%
X86942605Y-275563119D03*
X85192605Y-275563119D03*
%TD*%
D47*
%TO.C,D21*%
X191300000Y-63522500D03*
X191300000Y-66322500D03*
%TD*%
D48*
%TO.C,C1*%
X166085000Y-266876418D03*
X166085000Y-272276418D03*
%TD*%
D42*
%TO.C,C2*%
X120665000Y-137423582D03*
X119115000Y-137423582D03*
%TD*%
D12*
%TO.C,R5*%
X117887500Y-66050000D03*
X116062500Y-66050000D03*
%TD*%
D20*
%TO.C,KiKit_FID_T_3*%
X75000000Y-284000000D03*
%TD*%
D13*
%TO.C,Q3*%
X110175000Y-169450000D03*
X110175000Y-167550000D03*
X108300000Y-168500000D03*
%TD*%
D55*
%TO.C,M2\u002C5*%
X74555000Y-118100000D03*
%TD*%
D18*
%TO.C,D18*%
X90864990Y-73611925D03*
X89449212Y-74640549D03*
%TD*%
D11*
%TO.C,R1*%
X121115000Y-48836082D03*
X121115000Y-47011082D03*
%TD*%
D12*
%TO.C,R11*%
X106412500Y-168500000D03*
X104587500Y-168500000D03*
%TD*%
D35*
%TO.C,D19*%
X214364003Y-137359451D03*
X215779781Y-138388075D03*
%TD*%
D55*
%TO.C,M2\u002C5*%
X74555000Y-218100000D03*
%TD*%
D15*
%TO.C,R2*%
X123115000Y-197011082D03*
X123115000Y-198836082D03*
%TD*%
D37*
%TO.C,D11*%
X86942605Y-225563119D03*
X85192605Y-225563119D03*
%TD*%
D19*
%TO.C,D18*%
X206135010Y-138388075D03*
X207550788Y-137359451D03*
%TD*%
D20*
%TO.C,REF\u002A\u002A*%
X165605000Y-111600000D03*
%TD*%
D14*
%TO.C,D8*%
X118400000Y-223400000D03*
X121200000Y-223400000D03*
%TD*%
D16*
%TO.C,Q3*%
X186825000Y-142550000D03*
X186825000Y-144450000D03*
X188700000Y-143500000D03*
%TD*%
D54*
%TO.C,D20*%
X79114819Y-167132174D03*
X79655599Y-165467826D03*
%TD*%
D14*
%TO.C,D5*%
X135300000Y-170900000D03*
X138100000Y-170900000D03*
%TD*%
D38*
%TO.C,D3*%
X156755000Y-196100000D03*
X153955000Y-196100000D03*
%TD*%
D29*
%TO.C,D15*%
X92995391Y-269894064D03*
X92454611Y-271558412D03*
%TD*%
D39*
%TO.C,R7*%
X187112500Y-140950000D03*
X188937500Y-140950000D03*
%TD*%
D12*
%TO.C,R7*%
X109887500Y-221050000D03*
X108062500Y-221050000D03*
%TD*%
D34*
%TO.C,D14*%
X207525787Y-249614311D03*
X206110009Y-248585687D03*
%TD*%
D48*
%TO.C,C1*%
X166085000Y-66876418D03*
X166085000Y-72276418D03*
%TD*%
D37*
%TO.C,C4*%
X189825000Y-274000000D03*
X188075000Y-274000000D03*
%TD*%
D38*
%TO.C,D6*%
X168600000Y-98600000D03*
X165800000Y-98600000D03*
%TD*%
D14*
%TO.C,D1*%
X137745000Y-118400000D03*
X140545000Y-118400000D03*
%TD*%
D12*
%TO.C,R7*%
X109887500Y-271050000D03*
X108062500Y-271050000D03*
%TD*%
D35*
%TO.C,D14*%
X89474213Y-112385689D03*
X90889991Y-113414313D03*
%TD*%
D33*
%TO.C,M3*%
X222445000Y-200700000D03*
%TD*%
D14*
%TO.C,D3*%
X140245000Y-215900000D03*
X143045000Y-215900000D03*
%TD*%
D26*
%TO.C,BT1*%
X213555000Y-218500000D03*
X206055000Y-218500000D03*
D27*
X201990000Y-218500000D03*
D28*
X217955000Y-218500000D03*
%TD*%
D39*
%TO.C,R9*%
X182587500Y-98500000D03*
X184412500Y-98500000D03*
%TD*%
D47*
%TO.C,D22*%
X98500000Y-242200000D03*
X98500000Y-245000000D03*
%TD*%
D22*
%TO.C,D11*%
X210057395Y-136436881D03*
X211807395Y-136436881D03*
%TD*%
D14*
%TO.C,D1*%
X137745000Y-268400000D03*
X140545000Y-268400000D03*
%TD*%
D50*
%TO.C,L1*%
X192950000Y-71025000D03*
X192950000Y-68975000D03*
%TD*%
D51*
%TO.C,U1*%
X148500000Y-264055000D03*
X148500000Y-265325000D03*
X148500000Y-266595000D03*
X148500000Y-267865000D03*
X148500000Y-269135000D03*
X148500000Y-270405000D03*
X148500000Y-271675000D03*
X148500000Y-272945000D03*
X153500000Y-272945000D03*
X153500000Y-271675000D03*
X153500000Y-270405000D03*
X153500000Y-269135000D03*
X153500000Y-267865000D03*
X153500000Y-266595000D03*
X153500000Y-265325000D03*
X153500000Y-264055000D03*
%TD*%
D12*
%TO.C,R9*%
X114412500Y-213500000D03*
X112587500Y-213500000D03*
%TD*%
D24*
%TO.C,D17*%
X92429610Y-115467826D03*
X92970390Y-117132174D03*
%TD*%
D38*
%TO.C,D7*%
X171100000Y-246100000D03*
X168300000Y-246100000D03*
%TD*%
D39*
%TO.C,R9*%
X182587500Y-198500000D03*
X184412500Y-198500000D03*
%TD*%
D38*
%TO.C,D5*%
X161700000Y-241100000D03*
X158900000Y-241100000D03*
%TD*%
D39*
%TO.C,R6*%
X183112500Y-193450000D03*
X184937500Y-193450000D03*
%TD*%
%TO.C,R7*%
X187112500Y-90950000D03*
X188937500Y-90950000D03*
%TD*%
D13*
%TO.C,Q5*%
X102175000Y-274450000D03*
X102175000Y-272550000D03*
X100300000Y-273500000D03*
%TD*%
D26*
%TO.C,BT1*%
X83445000Y-193500000D03*
X90945000Y-193500000D03*
D52*
X95010000Y-193500000D03*
D53*
X79045000Y-193500000D03*
%TD*%
D22*
%TO.C,D16*%
X85167605Y-111463119D03*
X86917605Y-111463119D03*
%TD*%
D23*
%TO.C,C3*%
X189100000Y-64332500D03*
X189100000Y-66082500D03*
%TD*%
D32*
%TO.C,U1*%
X148500000Y-197945000D03*
X148500000Y-196675000D03*
X148500000Y-195405000D03*
X148500000Y-194135000D03*
X148500000Y-192865000D03*
X148500000Y-191595000D03*
X148500000Y-190325000D03*
X148500000Y-189055000D03*
X143500000Y-189055000D03*
X143500000Y-190325000D03*
X143500000Y-191595000D03*
X143500000Y-192865000D03*
X143500000Y-194135000D03*
X143500000Y-195405000D03*
X143500000Y-196675000D03*
X143500000Y-197945000D03*
%TD*%
D12*
%TO.C,R12*%
X102412500Y-271000000D03*
X100587500Y-271000000D03*
%TD*%
D11*
%TO.C,R2*%
X173885000Y-64988918D03*
X173885000Y-63163918D03*
%TD*%
D39*
%TO.C,R8*%
X191112500Y-88450000D03*
X192937500Y-88450000D03*
%TD*%
D20*
%TO.C,REF\u002A\u002A*%
X165605000Y-211600000D03*
%TD*%
D12*
%TO.C,R13*%
X98412500Y-273500000D03*
X96587500Y-273500000D03*
%TD*%
D33*
%TO.C,M3*%
X222445000Y-250700000D03*
%TD*%
D38*
%TO.C,D7*%
X171100000Y-196100000D03*
X168300000Y-196100000D03*
%TD*%
D54*
%TO.C,D20*%
X79114819Y-117132174D03*
X79655599Y-115467826D03*
%TD*%
D12*
%TO.C,R12*%
X102412500Y-221000000D03*
X100587500Y-221000000D03*
%TD*%
D43*
%TO.C,SW1*%
X221995000Y-272150000D03*
X224205000Y-272150000D03*
D44*
X223105000Y-270000000D03*
X223105000Y-267000000D03*
D43*
X221995000Y-264850000D03*
X224205000Y-264850000D03*
D45*
X221345000Y-270750000D03*
X221345000Y-267750000D03*
X221345000Y-266250000D03*
%TD*%
D13*
%TO.C,Q1*%
X118175000Y-264450000D03*
X118175000Y-262550000D03*
X116300000Y-263500000D03*
%TD*%
D39*
%TO.C,R11*%
X190587500Y-243500000D03*
X192412500Y-243500000D03*
%TD*%
D30*
%TO.C,D12*%
X79680600Y-71558412D03*
X79139820Y-69894064D03*
%TD*%
D54*
%TO.C,D15*%
X204004609Y-242105936D03*
X204545389Y-240441588D03*
%TD*%
D24*
%TO.C,D17*%
X92429610Y-65467826D03*
X92970390Y-67132174D03*
%TD*%
D41*
%TO.C,C3*%
X107900000Y-197667500D03*
X107900000Y-195917500D03*
%TD*%
D34*
%TO.C,D19*%
X82635997Y-74640549D03*
X81220219Y-73611925D03*
%TD*%
D33*
%TO.C,M3*%
X74555000Y-161300000D03*
%TD*%
D12*
%TO.C,R6*%
X113887500Y-168550000D03*
X112062500Y-168550000D03*
%TD*%
D30*
%TO.C,D17*%
X204570390Y-196532174D03*
X204029610Y-194867826D03*
%TD*%
D14*
%TO.C,D6*%
X128400000Y-63400000D03*
X131200000Y-63400000D03*
%TD*%
D18*
%TO.C,D13*%
X215754780Y-48585687D03*
X214339002Y-49614311D03*
%TD*%
D13*
%TO.C,Q2*%
X114175000Y-266950000D03*
X114175000Y-265050000D03*
X112300000Y-266000000D03*
%TD*%
D37*
%TO.C,D16*%
X211832395Y-250536881D03*
X210082395Y-250536881D03*
%TD*%
M02*
