M48
METRIC,TZ
T1C0.300
%
G90
G05
T1
X45600Y-83500
X45600Y-106528
X55600Y-83500
X65600Y-83500
X71000Y-106579
X75600Y-83500
X77150Y-99000
X78150Y-99000
X79150Y-98000
X79150Y-99000
X80000Y-93650
X80150Y-98000
X80150Y-99000
X81150Y-98000
X81150Y-99000
X82150Y-98000
X82150Y-99000
X82360Y-86980
X83900Y-88800
X85600Y-83500
X90465Y-94424
X91215Y-87924
X92171Y-96880
X93715Y-86424
X95600Y-83500
X96375Y-106604
X96715Y-87924
X98215Y-93424
X103215Y-86424
X105600Y-83500
X113500Y-94400
X113800Y-93100
X113900Y-95700
X115600Y-83500
X115600Y-98200
X120600Y-87000
X121825Y-106630
X125600Y-83500
X135600Y-83500
X145600Y-83500
X147200Y-106630
X152000Y-96300
X155600Y-83500
X156200Y-93500
X160200Y-91100
X164200Y-88600
X165600Y-83500
X172600Y-106630
X175600Y-83500
X177100Y-93800
X177600Y-89800
X177800Y-95200
X178774Y-88574
X178900Y-96800
X180300Y-87200
X182200Y-98500
X183900Y-98500
X184200Y-86500
X185600Y-83500
X185600Y-87300
X185700Y-97700
X187300Y-88300
X188600Y-94800
X188700Y-91400
X188900Y-93400
X195600Y-83500
M30
