999
"DXF R12 Output" (www.mydxf.blogspot.com)
 0 
SECTION
 2 
HEADER
 9 
$ACADVER
 1 
AC1009
 9 
$EXTMIN
 10 
 0 
 20 
 0 
 9 
$EXTMAX
 10 
 8.5 
 20 
 11 
 0 
ENDSEC
 0 
SECTION
 2 
ENTITIES
0
LINE
8
Layer 1
10
0.793749
20
297.794000
11
-0.793749
21
296.206000
0
LINE
8
Layer 1
10
0.000000
20
298.323000
11
0.000000
21
295.677000
0
LINE
8
Layer 1
10
2.116660
20
295.942000
11
1.058330
21
294.883670
0
LINE
8
Layer 1
10
1.587500
20
296.471000
11
0.529170
21
295.412670
0
LINE
8
Layer 1
10
1.058330
20
297.000000
11
0.000000
21
295.941670
0
LINE
8
MODELSKETCH_VISIBLE
10
12.668000
20
28.133400
11
25.596800
21
28.133400
0
LINE
8
MODELSKETCH_VISIBLE
10
9.132350
20
24.595900
11
12.667970
21
28.133370
0
LINE
8
MODELSKETCH_VISIBLE
10
9.132350
20
18.669300
11
9.132350
21
24.595900
0
LINE
8
MODELSKETCH_VISIBLE
10
12.668000
20
15.131800
11
9.132350
21
18.669300
0
LINE
8
MODELSKETCH_VISIBLE
10
25.596800
20
15.131800
11
12.668000
21
15.131800
0
LINE
8
MODELSKETCH_VISIBLE
10
29.132300
20
18.669300
11
25.596760
21
15.131830
0
LINE
8
MODELSKETCH_VISIBLE
10
29.132300
20
24.595900
11
29.132300
21
18.669300
0
LINE
8
MODELSKETCH_VISIBLE
10
25.596800
20
28.133400
11
29.132340
21
24.595930
0
LINE
8
MODELSKETCH_VISIBLE
10
80.132100
20
29.133500
11
66.132300
21
43.132600
0
LINE
8
MODELSKETCH_VISIBLE
10
80.132100
20
14.131700
11
80.132100
21
29.133500
0
LINE
8
MODELSKETCH_VISIBLE
10
0.132292
20
29.133500
11
0.132292
21
14.131700
0
LINE
8
MODELSKETCH_VISIBLE
10
0.132292
20
14.131700
11
14.132392
21
0.132600
0
LINE
8
MODELSKETCH_VISIBLE
10
14.132400
20
43.132600
11
0.132292
21
29.133500
0
LINE
8
MODELSKETCH_VISIBLE
10
66.132300
20
43.132600
11
14.132400
21
43.132600
0
LINE
8
MODELSKETCH_VISIBLE
10
14.132400
20
0.132582
11
66.132300
21
0.132582
0
LINE
8
MODELSKETCH_VISIBLE
10
66.132300
20
0.132582
11
80.132200
21
14.131682
 0 
ENDSEC
 0 
EOF