G04*
G04 #@! TF.GenerationSoftware,Altium Limited,Altium Designer,22.2.1 (43)*
G04*
G04 Layer_Color=8388736*
%FSLAX44Y44*%
%MOMM*%
G71*
G04*
G04 #@! TF.SameCoordinates,B40B3F92-3463-4CDB-AABD-E14D81B53C36*
G04*
G04*
G04 #@! TF.FilePolarity,Negative*
G04*
G01*
G75*
%ADD20C,1.4032*%
G04:AMPARAMS|DCode=21|XSize=1.1532mm|YSize=1.0532mm|CornerRadius=0.3141mm|HoleSize=0mm|Usage=FLASHONLY|Rotation=90.000|XOffset=0mm|YOffset=0mm|HoleType=Round|Shape=RoundedRectangle|*
%AMROUNDEDRECTD21*
21,1,1.1532,0.4250,0,0,90.0*
21,1,0.5250,1.0532,0,0,90.0*
1,1,0.6282,0.2125,0.2625*
1,1,0.6282,0.2125,-0.2625*
1,1,0.6282,-0.2125,-0.2625*
1,1,0.6282,-0.2125,0.2625*
%
%ADD21ROUNDEDRECTD21*%
%ADD22R,0.5080X1.1049*%
G04:AMPARAMS|DCode=23|XSize=1.2032mm|YSize=1.1032mm|CornerRadius=0.3266mm|HoleSize=0mm|Usage=FLASHONLY|Rotation=0.000|XOffset=0mm|YOffset=0mm|HoleType=Round|Shape=RoundedRectangle|*
%AMROUNDEDRECTD23*
21,1,1.2032,0.4500,0,0,0.0*
21,1,0.5500,1.1032,0,0,0.0*
1,1,0.6532,0.2750,-0.2250*
1,1,0.6532,-0.2750,-0.2250*
1,1,0.6532,-0.2750,0.2250*
1,1,0.6532,0.2750,0.2250*
%
%ADD23ROUNDEDRECTD23*%
G04:AMPARAMS|DCode=24|XSize=1.2032mm|YSize=1.1032mm|CornerRadius=0.3266mm|HoleSize=0mm|Usage=FLASHONLY|Rotation=270.000|XOffset=0mm|YOffset=0mm|HoleType=Round|Shape=RoundedRectangle|*
%AMROUNDEDRECTD24*
21,1,1.2032,0.4500,0,0,270.0*
21,1,0.5500,1.1032,0,0,270.0*
1,1,0.6532,-0.2250,-0.2750*
1,1,0.6532,-0.2250,0.2750*
1,1,0.6532,0.2250,0.2750*
1,1,0.6532,0.2250,-0.2750*
%
%ADD24ROUNDEDRECTD24*%
%ADD25R,1.2500X0.4000*%
%ADD26R,1.2500X0.7000*%
%ADD27R,1.7032X1.7032*%
%ADD28O,1.6032X0.5032*%
%ADD29O,0.5032X1.6032*%
%ADD30R,1.2032X2.2032*%
%ADD31R,1.0032X1.5032*%
%ADD32R,0.8032X1.5032*%
%ADD33R,1.1032X1.5032*%
%ADD34R,0.5032X0.9032*%
%ADD35R,0.5032X1.2032*%
%ADD36C,5.2032*%
%ADD37R,2.2032X2.2032*%
%ADD38C,2.2032*%
%ADD39C,0.9032*%
%ADD40C,1.7272*%
G04:AMPARAMS|DCode=41|XSize=2.7032mm|YSize=3.2032mm|CornerRadius=1.3516mm|HoleSize=0mm|Usage=FLASHONLY|Rotation=180.000|XOffset=0mm|YOffset=0mm|HoleType=Round|Shape=RoundedRectangle|*
%AMROUNDEDRECTD41*
21,1,2.7032,0.5000,0,0,180.0*
21,1,0.0000,3.2032,0,0,180.0*
1,1,2.7032,0.0000,0.2500*
1,1,2.7032,0.0000,0.2500*
1,1,2.7032,0.0000,-0.2500*
1,1,2.7032,0.0000,-0.2500*
%
%ADD41ROUNDEDRECTD41*%
G36*
X128650Y315970D02*
X117250D01*
Y332370D01*
X128650D01*
Y315970D01*
D02*
G37*
G36*
X119650Y363020D02*
Y340320D01*
X113650Y334320D01*
Y315970D01*
X102250D01*
Y334320D01*
X96250Y340320D01*
Y363020D01*
X105600Y372370D01*
X110300D01*
X119650Y363020D01*
D02*
G37*
G36*
X98650Y315970D02*
X87250D01*
Y332370D01*
X98650D01*
Y315970D01*
D02*
G37*
D20*
X683260Y368300D02*
D03*
X336550Y350520D02*
D03*
X655320Y269240D02*
D03*
X675640Y279400D02*
D03*
Y295910D02*
D03*
Y312420D02*
D03*
X699770Y193040D02*
D03*
X700000Y209550D02*
D03*
Y226060D02*
D03*
Y242570D02*
D03*
X671830Y236220D02*
D03*
X720090Y106680D02*
D03*
X680720Y95250D02*
D03*
X679450Y128270D02*
D03*
D21*
X335580Y307340D02*
D03*
X322580D02*
D03*
X668500Y154940D02*
D03*
X681500D02*
D03*
X47140Y306070D02*
D03*
X34140D02*
D03*
X46990Y287020D02*
D03*
X33990D02*
D03*
X486560Y267970D02*
D03*
X473560D02*
D03*
X473560Y307340D02*
D03*
X486560D02*
D03*
X343050Y99060D02*
D03*
X330050D02*
D03*
X356500Y120000D02*
D03*
X343500D02*
D03*
X304650D02*
D03*
X317650D02*
D03*
X504280Y133970D02*
D03*
X491280D02*
D03*
X504280Y118970D02*
D03*
X491280D02*
D03*
X504280Y103970D02*
D03*
X491280D02*
D03*
X504280Y88970D02*
D03*
X491280D02*
D03*
X504280Y73970D02*
D03*
X491280D02*
D03*
X507850Y163830D02*
D03*
X520850D02*
D03*
D22*
X763360Y211900D02*
D03*
X742860D02*
D03*
X753110Y186880D02*
D03*
D23*
X533400Y207880D02*
D03*
Y221380D02*
D03*
X64770Y331870D02*
D03*
Y318370D02*
D03*
X574040Y282810D02*
D03*
Y296310D02*
D03*
X546100Y262490D02*
D03*
Y275990D02*
D03*
D24*
X668250Y176530D02*
D03*
X681750D02*
D03*
X113430Y298450D02*
D03*
X99930D02*
D03*
X486810Y287020D02*
D03*
X473310D02*
D03*
X383140Y120650D02*
D03*
X396640D02*
D03*
X681750Y259080D02*
D03*
X668250D02*
D03*
X464420Y165100D02*
D03*
X477920D02*
D03*
D25*
X73630Y197500D02*
D03*
Y202500D02*
D03*
Y207500D02*
D03*
Y212500D02*
D03*
Y217500D02*
D03*
Y222500D02*
D03*
Y227500D02*
D03*
Y232500D02*
D03*
D26*
Y191000D02*
D03*
Y183000D02*
D03*
Y239000D02*
D03*
Y247000D02*
D03*
D27*
X28580Y163800D02*
D03*
Y266200D02*
D03*
X67880Y163800D02*
D03*
Y266200D02*
D03*
D28*
X558000Y242500D02*
D03*
Y237500D02*
D03*
Y232500D02*
D03*
Y227500D02*
D03*
Y222500D02*
D03*
Y217500D02*
D03*
Y212500D02*
D03*
Y207500D02*
D03*
Y202500D02*
D03*
Y197500D02*
D03*
Y192500D02*
D03*
Y187500D02*
D03*
X642000D02*
D03*
Y192500D02*
D03*
Y197500D02*
D03*
Y202500D02*
D03*
Y207500D02*
D03*
Y212500D02*
D03*
Y217500D02*
D03*
Y222500D02*
D03*
Y227500D02*
D03*
Y232500D02*
D03*
Y237500D02*
D03*
Y242500D02*
D03*
D29*
X572500Y173000D02*
D03*
X577500D02*
D03*
X582500D02*
D03*
X587500D02*
D03*
X592500D02*
D03*
X597500D02*
D03*
X602500D02*
D03*
X607500D02*
D03*
X612500D02*
D03*
X617500D02*
D03*
X622500D02*
D03*
X627500D02*
D03*
Y257000D02*
D03*
X622500D02*
D03*
X617500D02*
D03*
X612500D02*
D03*
X607500D02*
D03*
X602500D02*
D03*
X597500D02*
D03*
X592500D02*
D03*
X587500D02*
D03*
X582500D02*
D03*
X577500D02*
D03*
X572500D02*
D03*
D30*
X473000Y190000D02*
D03*
X517000D02*
D03*
Y240000D02*
D03*
X473000D02*
D03*
D31*
X655872Y20500D02*
D03*
X597872D02*
D03*
X539872D02*
D03*
X481872D02*
D03*
X423872D02*
D03*
X365872D02*
D03*
X307872D02*
D03*
X249872D02*
D03*
X624128Y409500D02*
D03*
X566128D02*
D03*
X508128D02*
D03*
X450128D02*
D03*
X392128D02*
D03*
X334128D02*
D03*
X276128D02*
D03*
X218128D02*
D03*
D32*
X645950Y20500D02*
D03*
X635900D02*
D03*
X587950D02*
D03*
X577900D02*
D03*
X529950D02*
D03*
X519900D02*
D03*
X471950D02*
D03*
X461900D02*
D03*
X413950D02*
D03*
X403900D02*
D03*
X355950D02*
D03*
X345900D02*
D03*
X297950D02*
D03*
X287900D02*
D03*
X239950D02*
D03*
X229900D02*
D03*
X644100Y409500D02*
D03*
X634050D02*
D03*
X586100D02*
D03*
X576050D02*
D03*
X528100D02*
D03*
X518050D02*
D03*
X470100D02*
D03*
X460050D02*
D03*
X412100D02*
D03*
X402050D02*
D03*
X354100D02*
D03*
X344050D02*
D03*
X296100D02*
D03*
X286050D02*
D03*
X238100D02*
D03*
X228050D02*
D03*
D33*
X624702Y20500D02*
D03*
X566702D02*
D03*
X508702D02*
D03*
X450702D02*
D03*
X392702D02*
D03*
X334702D02*
D03*
X276702D02*
D03*
X218702D02*
D03*
X655298Y409500D02*
D03*
X597298D02*
D03*
X539298D02*
D03*
X481298D02*
D03*
X423298D02*
D03*
X365298D02*
D03*
X307298D02*
D03*
X249298D02*
D03*
D34*
X390050Y74930D02*
D03*
X395050D02*
D03*
X400050D02*
D03*
X405050D02*
D03*
X410050D02*
D03*
D35*
X382150Y48430D02*
D03*
X417950D02*
D03*
D36*
X290000Y335000D02*
D03*
X725000Y320000D02*
D03*
X73000Y105000D02*
D03*
X560000Y65000D02*
D03*
D37*
X760730Y269240D02*
D03*
X630000Y60000D02*
D03*
Y370000D02*
D03*
D38*
X760730Y243840D02*
D03*
X630000Y136200D02*
D03*
Y110800D02*
D03*
Y85400D02*
D03*
X148000Y33000D02*
D03*
X198000D02*
D03*
Y397000D02*
D03*
X148000D02*
D03*
X165000Y313690D02*
D03*
X215000D02*
D03*
X630000Y344600D02*
D03*
Y319200D02*
D03*
Y293800D02*
D03*
D39*
X62880Y186100D02*
D03*
Y243900D02*
D03*
D40*
X400000Y215000D02*
D03*
X429970Y153280D02*
D03*
X409970D02*
D03*
X389970D02*
D03*
X369970D02*
D03*
X354000Y276720D02*
D03*
X374000D02*
D03*
X394000D02*
D03*
X414000D02*
D03*
X190000Y99860D02*
D03*
X165000Y124860D02*
D03*
X190000D02*
D03*
X215000D02*
D03*
D41*
X145000Y104860D02*
D03*
X235000D02*
D03*
M02*
