G04*
G04 #@! TF.GenerationSoftware,Altium Limited,Altium Designer,22.2.1 (43)*
G04*
G04 Layer_Physical_Order=1*
G04 Layer_Color=255*
%FSLAX44Y44*%
%MOMM*%
G71*
G04*
G04 #@! TF.SameCoordinates,B40B3F92-3463-4CDB-AABD-E14D81B53C36*
G04*
G04*
G04 #@! TF.FilePolarity,Positive*
G04*
G01*
G75*
%ADD10C,0.2000*%
%ADD11C,0.2500*%
%ADD12C,0.2540*%
%ADD22R,0.5080X1.1049*%
%ADD42C,1.2000*%
G04:AMPARAMS|DCode=43|XSize=0.95mm|YSize=0.85mm|CornerRadius=0.2125mm|HoleSize=0mm|Usage=FLASHONLY|Rotation=90.000|XOffset=0mm|YOffset=0mm|HoleType=Round|Shape=RoundedRectangle|*
%AMROUNDEDRECTD43*
21,1,0.9500,0.4250,0,0,90.0*
21,1,0.5250,0.8500,0,0,90.0*
1,1,0.4250,0.2125,0.2625*
1,1,0.4250,0.2125,-0.2625*
1,1,0.4250,-0.2125,-0.2625*
1,1,0.4250,-0.2125,0.2625*
%
%ADD43ROUNDEDRECTD43*%
G04:AMPARAMS|DCode=44|XSize=1mm|YSize=0.9mm|CornerRadius=0.225mm|HoleSize=0mm|Usage=FLASHONLY|Rotation=0.000|XOffset=0mm|YOffset=0mm|HoleType=Round|Shape=RoundedRectangle|*
%AMROUNDEDRECTD44*
21,1,1.0000,0.4500,0,0,0.0*
21,1,0.5500,0.9000,0,0,0.0*
1,1,0.4500,0.2750,-0.2250*
1,1,0.4500,-0.2750,-0.2250*
1,1,0.4500,-0.2750,0.2250*
1,1,0.4500,0.2750,0.2250*
%
%ADD44ROUNDEDRECTD44*%
G04:AMPARAMS|DCode=45|XSize=1mm|YSize=0.9mm|CornerRadius=0.225mm|HoleSize=0mm|Usage=FLASHONLY|Rotation=270.000|XOffset=0mm|YOffset=0mm|HoleType=Round|Shape=RoundedRectangle|*
%AMROUNDEDRECTD45*
21,1,1.0000,0.4500,0,0,270.0*
21,1,0.5500,0.9000,0,0,270.0*
1,1,0.4500,-0.2250,-0.2750*
1,1,0.4500,-0.2250,0.2750*
1,1,0.4500,0.2250,0.2750*
1,1,0.4500,0.2250,-0.2750*
%
%ADD45ROUNDEDRECTD45*%
%ADD46R,1.0000X1.5000*%
%ADD47R,1.1500X0.3000*%
%ADD48R,1.1500X0.6000*%
%ADD49R,1.5000X1.5000*%
%ADD50O,1.4000X0.3000*%
%ADD51O,0.3000X1.4000*%
%ADD52R,1.0000X2.0000*%
%ADD53R,0.8000X1.3000*%
%ADD54R,0.6000X1.3000*%
%ADD55R,0.9000X1.3000*%
%ADD56R,0.3000X0.7000*%
%ADD57R,0.3000X1.0000*%
%ADD58C,0.3810*%
%ADD59C,0.3500*%
%ADD60C,5.0000*%
%ADD61R,2.0000X2.0000*%
%ADD62C,2.0000*%
%ADD63C,0.7000*%
%ADD64C,1.5240*%
G04:AMPARAMS|DCode=65|XSize=2.5mm|YSize=3mm|CornerRadius=1.25mm|HoleSize=0mm|Usage=FLASHONLY|Rotation=180.000|XOffset=0mm|YOffset=0mm|HoleType=Round|Shape=RoundedRectangle|*
%AMROUNDEDRECTD65*
21,1,2.5000,0.5000,0,0,180.0*
21,1,0.0000,3.0000,0,0,180.0*
1,1,2.5000,0.0000,0.2500*
1,1,2.5000,0.0000,0.2500*
1,1,2.5000,0.0000,-0.2500*
1,1,2.5000,0.0000,-0.2500*
%
%ADD65ROUNDEDRECTD65*%
%ADD66C,1.2700*%
G36*
X799998Y290009D02*
Y139991D01*
X660000Y-0D01*
X140001D01*
X61356Y78639D01*
X62076Y79716D01*
X64463Y78727D01*
X68678Y77715D01*
X71730Y77475D01*
Y103730D01*
X45475D01*
X45715Y100679D01*
X46727Y96463D01*
X47717Y94074D01*
X46640Y93354D01*
X0Y139991D01*
Y290009D01*
X140001Y430000D01*
X660000D01*
X799998Y290009D01*
D02*
G37*
%LPC*%
G36*
X149270Y409481D02*
Y398270D01*
X160481D01*
X160217Y400274D01*
X158954Y403324D01*
X156944Y405944D01*
X154324Y407954D01*
X151274Y409217D01*
X149270Y409481D01*
D02*
G37*
G36*
X146730Y409481D02*
X144726Y409217D01*
X141676Y407954D01*
X139056Y405944D01*
X137046Y403324D01*
X135783Y400274D01*
X135519Y398270D01*
X146730D01*
Y409481D01*
D02*
G37*
G36*
Y395730D02*
X135519D01*
X135783Y393726D01*
X137046Y390676D01*
X139056Y388056D01*
X141676Y386046D01*
X144726Y384783D01*
X146730Y384519D01*
Y395730D01*
D02*
G37*
G36*
X160481D02*
X149270D01*
Y384519D01*
X151274Y384783D01*
X154324Y386046D01*
X156944Y388056D01*
X158954Y390676D01*
X160217Y393726D01*
X160481Y395730D01*
D02*
G37*
G36*
X229870Y426172D02*
X202975D01*
X201241Y425827D01*
X199771Y424845D01*
X199771Y424845D01*
X146841Y371915D01*
X144780Y372187D01*
X142459Y371881D01*
X140297Y370985D01*
X138440Y369560D01*
X137015Y367703D01*
X136119Y365541D01*
X135813Y363220D01*
X136119Y360899D01*
X137015Y358737D01*
X137092Y358636D01*
X136530Y357497D01*
X121540D01*
Y362670D01*
X121343Y363661D01*
X120781Y364501D01*
X111781Y373501D01*
X110941Y374063D01*
X109950Y374260D01*
X105950D01*
X104959Y374063D01*
X104119Y373501D01*
X95119Y364501D01*
X94557Y363661D01*
X94360Y362670D01*
Y357592D01*
X86460D01*
X84726Y357247D01*
X83255Y356265D01*
X83255Y356265D01*
X65995Y339004D01*
X62020D01*
X60151Y338632D01*
X58567Y337573D01*
X57508Y335989D01*
X57136Y334120D01*
Y329620D01*
X57508Y327751D01*
X58567Y326167D01*
X59183Y325755D01*
Y324485D01*
X58567Y324073D01*
X57508Y322489D01*
X57136Y320620D01*
Y319640D01*
X64770D01*
X72404D01*
Y320620D01*
X72032Y322489D01*
X70973Y324073D01*
X70357Y324485D01*
Y325755D01*
X70973Y326167D01*
X72032Y327751D01*
X72404Y329620D01*
Y332594D01*
X88337Y348528D01*
X94360D01*
Y340670D01*
X94557Y339679D01*
X95119Y338839D01*
X98574Y335383D01*
X98088Y334210D01*
X94220D01*
Y324170D01*
Y314130D01*
X110326D01*
X110812Y312957D01*
X110225Y312370D01*
X109243Y310899D01*
X108898Y309165D01*
Y305436D01*
X107727Y304653D01*
X107315Y304037D01*
X106045D01*
X105633Y304653D01*
X104049Y305712D01*
X102180Y306084D01*
X101200D01*
Y298450D01*
Y290816D01*
X102180D01*
X104049Y291188D01*
X105633Y292247D01*
X106045Y292863D01*
X107315D01*
X107727Y292247D01*
X107842Y292170D01*
X107966Y290906D01*
X82351Y265290D01*
X81369Y263820D01*
X81024Y262086D01*
Y252540D01*
X74900D01*
Y247000D01*
X72360D01*
Y252540D01*
X65340D01*
Y250864D01*
X64070Y249822D01*
X62880Y250058D01*
X60759Y249636D01*
X59489Y250310D01*
Y256160D01*
X77920D01*
Y276240D01*
X59489D01*
Y297330D01*
X59215Y298711D01*
X58432Y299882D01*
X54021Y304293D01*
Y308695D01*
X53659Y310515D01*
X52628Y312058D01*
X51085Y313089D01*
X49265Y313451D01*
X45015D01*
X43195Y313089D01*
X41652Y312058D01*
X41275Y311495D01*
X40005D01*
X39628Y312058D01*
X38085Y313089D01*
X36265Y313451D01*
X35410D01*
Y306070D01*
Y298689D01*
X36265D01*
X38085Y299051D01*
X39628Y300082D01*
X40005Y300646D01*
X41275D01*
X41652Y300082D01*
X43195Y299051D01*
X45015Y298689D01*
X49265D01*
X49392Y298714D01*
X52271Y295835D01*
Y294494D01*
X51151Y293895D01*
X50935Y294039D01*
X49115Y294401D01*
X44865D01*
X43045Y294039D01*
X41502Y293008D01*
X41125Y292444D01*
X39855D01*
X39478Y293008D01*
X37935Y294039D01*
X36115Y294401D01*
X35260D01*
Y287020D01*
Y279639D01*
X36115D01*
X37935Y280001D01*
X39478Y281032D01*
X39855Y281595D01*
X41125D01*
X41502Y281032D01*
X43045Y280001D01*
X43381Y279934D01*
Y221205D01*
X38551Y216376D01*
X37769Y215205D01*
X37494Y213823D01*
Y207514D01*
X37769Y206133D01*
X38551Y204962D01*
X48565Y194948D01*
X49736Y194165D01*
X51118Y193891D01*
X64345D01*
X64647Y193047D01*
X63691Y192097D01*
X62880Y192258D01*
X60523Y191790D01*
X58525Y190455D01*
X57190Y188457D01*
X56722Y186100D01*
X57190Y183743D01*
X58525Y181745D01*
X60523Y180410D01*
X62880Y179942D01*
X64070Y180178D01*
X65340Y179136D01*
Y177460D01*
X72360D01*
Y183000D01*
X74900D01*
Y177460D01*
X78753D01*
Y174765D01*
X77920Y173840D01*
X57840D01*
Y173021D01*
X56667Y172535D01*
X43579Y185622D01*
X42408Y186405D01*
X41027Y186679D01*
X34325D01*
X23589Y197415D01*
Y213587D01*
X24335Y214085D01*
X25670Y216083D01*
X26138Y218440D01*
X25670Y220797D01*
X24335Y222795D01*
X22337Y224130D01*
X19980Y224598D01*
X17623Y224130D01*
X15625Y222795D01*
X14290Y220797D01*
X13822Y218440D01*
X14105Y217015D01*
X13494Y215870D01*
X13155Y215779D01*
X11123Y215375D01*
X9125Y214040D01*
X7790Y212042D01*
X7322Y209686D01*
X7790Y207329D01*
X9125Y205331D01*
X9871Y204833D01*
Y196763D01*
X10145Y195382D01*
X10928Y194211D01*
X28621Y176518D01*
X29792Y175735D01*
X31173Y175461D01*
X31173Y175461D01*
X36996D01*
X37231Y175110D01*
X36552Y173840D01*
X18540D01*
Y153760D01*
X38620D01*
Y172920D01*
X39890Y173446D01*
X49771Y163565D01*
Y153400D01*
X50045Y152019D01*
X50828Y150848D01*
X65988Y135688D01*
X67159Y134905D01*
X68541Y134631D01*
X78705D01*
X80510Y132826D01*
X79865Y131674D01*
X77322Y132285D01*
X74270Y132525D01*
Y106270D01*
X100525D01*
X100285Y109321D01*
X99674Y111865D01*
X100826Y112510D01*
X133028Y80308D01*
X134199Y79525D01*
X135580Y79251D01*
X253079D01*
X253464Y77981D01*
X252718Y77482D01*
X211845Y36609D01*
X210078D01*
X208954Y39324D01*
X206944Y41944D01*
X204324Y43954D01*
X201274Y45217D01*
X198000Y45648D01*
X194726Y45217D01*
X191676Y43954D01*
X189056Y41944D01*
X187046Y39324D01*
X185783Y36274D01*
X185352Y33000D01*
X185783Y29726D01*
X187046Y26676D01*
X189056Y24056D01*
X191676Y22046D01*
X194726Y20783D01*
X198000Y20352D01*
X201274Y20783D01*
X204324Y22046D01*
X206944Y24056D01*
X208954Y26676D01*
X210078Y29391D01*
X211662D01*
Y14627D01*
X172782D01*
X159475Y27934D01*
X160217Y29726D01*
X160648Y33000D01*
X160217Y36274D01*
X158954Y39324D01*
X156944Y41944D01*
X154324Y43954D01*
X151274Y45217D01*
X148000Y45648D01*
X144726Y45217D01*
X142934Y44475D01*
X123604Y63805D01*
X124231Y65319D01*
X124537Y67640D01*
X124231Y69961D01*
X123335Y72123D01*
X121910Y73980D01*
X120053Y75405D01*
X117891Y76301D01*
X115570Y76607D01*
X113249Y76301D01*
X111087Y75405D01*
X109230Y73980D01*
X107805Y72123D01*
X106909Y69961D01*
X106603Y67640D01*
X106909Y65319D01*
X107805Y63157D01*
X109230Y61300D01*
X111087Y59875D01*
X113249Y58979D01*
X115570Y58673D01*
X115877Y58714D01*
X136525Y38066D01*
X135783Y36274D01*
X135352Y33000D01*
X135783Y29726D01*
X137046Y26676D01*
X139056Y24056D01*
X141676Y22046D01*
X144726Y20783D01*
X148000Y20352D01*
X151274Y20783D01*
X153066Y21525D01*
X167700Y6890D01*
X169171Y5908D01*
X170905Y5563D01*
X224819D01*
X226554Y5908D01*
X228024Y6890D01*
X230312Y9178D01*
X230312Y9178D01*
X231294Y10648D01*
X231455Y11460D01*
X239175D01*
X239398Y11127D01*
X242077Y8448D01*
X243248Y7665D01*
X244629Y7391D01*
X255115D01*
X256496Y7665D01*
X257667Y8448D01*
X266110Y16891D01*
X269662D01*
Y11460D01*
X297175D01*
X297398Y11127D01*
X300077Y8448D01*
X301248Y7665D01*
X302629Y7391D01*
X313115D01*
X314496Y7665D01*
X315667Y8448D01*
X324110Y16891D01*
X327662D01*
Y11460D01*
X355175D01*
X355398Y11127D01*
X358077Y8448D01*
X359248Y7665D01*
X360629Y7391D01*
X371115D01*
X372496Y7665D01*
X373667Y8448D01*
X382110Y16891D01*
X385662D01*
Y11460D01*
X413175D01*
X413398Y11127D01*
X416077Y8448D01*
X417248Y7665D01*
X418629Y7391D01*
X429115D01*
X430496Y7665D01*
X431667Y8448D01*
X440110Y16891D01*
X443662D01*
Y11460D01*
X471175D01*
X471398Y11127D01*
X474077Y8448D01*
X475248Y7665D01*
X476629Y7391D01*
X487115D01*
X488496Y7665D01*
X489667Y8448D01*
X498110Y16891D01*
X501662D01*
Y11460D01*
X529175D01*
X529398Y11127D01*
X532077Y8448D01*
X533248Y7665D01*
X534629Y7391D01*
X545115D01*
X546496Y7665D01*
X547667Y8448D01*
X556110Y16891D01*
X559662D01*
Y11460D01*
X587175D01*
X587398Y11127D01*
X590077Y8448D01*
X591248Y7665D01*
X592629Y7391D01*
X603115D01*
X604496Y7665D01*
X605667Y8448D01*
X614110Y16891D01*
X617662D01*
Y11460D01*
X654602D01*
Y20500D01*
Y29540D01*
X652254D01*
X651768Y30713D01*
X682002Y60948D01*
X682785Y62119D01*
X683059Y63500D01*
Y86975D01*
X685027Y87790D01*
X686811Y89159D01*
X688180Y90943D01*
X689040Y93021D01*
X689334Y95250D01*
X689040Y97479D01*
X688180Y99557D01*
X686811Y101341D01*
X685027Y102710D01*
X684329Y102999D01*
Y105903D01*
X717562Y139136D01*
X718345Y140307D01*
X718619Y141688D01*
Y146277D01*
X719365Y146775D01*
X720699Y148773D01*
X721168Y151130D01*
X720699Y153487D01*
X719365Y155485D01*
X717367Y156819D01*
X716398Y157012D01*
X715980Y158390D01*
X723295Y165705D01*
X724277Y167176D01*
X724622Y168910D01*
X724622Y168910D01*
Y204914D01*
X725837Y205282D01*
X725895Y205195D01*
X727893Y203860D01*
X730250Y203392D01*
X732607Y203860D01*
X734605Y205195D01*
X735103Y205941D01*
X737780D01*
Y203835D01*
X747940D01*
Y219964D01*
X737780D01*
Y213159D01*
X735103D01*
X734605Y213905D01*
X732607Y215240D01*
X730250Y215708D01*
X727893Y215240D01*
X725895Y213905D01*
X725837Y213818D01*
X724622Y214186D01*
Y226723D01*
X748744Y250845D01*
X749776Y250164D01*
X748513Y247114D01*
X748082Y243840D01*
X748513Y240566D01*
X749776Y237516D01*
X751786Y234896D01*
X754406Y232886D01*
X757456Y231623D01*
X758193Y231526D01*
Y212535D01*
X758280Y212097D01*
Y203835D01*
X768440D01*
Y219964D01*
X767257D01*
Y233042D01*
X769674Y234896D01*
X771684Y237516D01*
X772947Y240566D01*
X773378Y243840D01*
X772947Y247114D01*
X771684Y250164D01*
X769674Y252784D01*
X767054Y254794D01*
X765518Y255430D01*
X765770Y256700D01*
X773270D01*
Y281780D01*
X748190D01*
Y263109D01*
X716885Y231805D01*
X715903Y230334D01*
X715558Y228600D01*
Y170787D01*
X709579Y164808D01*
X708453Y165410D01*
X708434Y165562D01*
X708468Y165735D01*
X708321Y166477D01*
X708303Y166623D01*
X711552Y169873D01*
X712335Y171044D01*
X712609Y172425D01*
Y246298D01*
X712335Y247679D01*
X711552Y248850D01*
X706280Y254122D01*
X705109Y254905D01*
X703728Y255179D01*
X696272D01*
X696272Y255179D01*
X694891Y254905D01*
X693720Y254122D01*
X680424Y240826D01*
X678872Y241071D01*
X677921Y242311D01*
X676137Y243680D01*
X674059Y244540D01*
X671830Y244834D01*
X669601Y244540D01*
X667523Y243680D01*
X665739Y242311D01*
X664370Y240527D01*
X663510Y238449D01*
X663216Y236220D01*
X663119Y236109D01*
X652344D01*
X652244Y236230D01*
X649190D01*
X649077Y236306D01*
X647500Y236620D01*
X642000D01*
X636500D01*
X634924Y236306D01*
X634810Y236230D01*
X632634D01*
X632694Y235924D01*
X633312Y235000D01*
X632694Y234076D01*
X632381Y232500D01*
X632486Y231970D01*
X632327Y230643D01*
X631157Y229861D01*
X621088Y219792D01*
X619681Y220072D01*
X618060Y219750D01*
X616790Y220658D01*
Y231299D01*
X616515Y232680D01*
X615733Y233851D01*
X611867Y237717D01*
X612353Y238891D01*
X631656D01*
X631756Y238770D01*
X634810D01*
X634924Y238694D01*
X636500Y238380D01*
X642000D01*
X647500D01*
X649077Y238694D01*
X649190Y238770D01*
X652428D01*
X652620Y238980D01*
X653551Y239165D01*
X654722Y239948D01*
X666220Y251446D01*
X670500D01*
X672369Y251818D01*
X673953Y252877D01*
X674365Y253493D01*
X675635D01*
X676047Y252877D01*
X677631Y251818D01*
X679500Y251446D01*
X680480D01*
Y259080D01*
Y266714D01*
X679500D01*
X677631Y266342D01*
X676047Y265283D01*
X675635Y264667D01*
X674365D01*
X673953Y265283D01*
X672369Y266342D01*
X670500Y266714D01*
X666000D01*
X664792Y266474D01*
X664532Y266595D01*
X663700Y267465D01*
X663934Y269240D01*
X663640Y271469D01*
X662780Y273547D01*
X662032Y274521D01*
X662659Y275791D01*
X667891D01*
X668180Y275093D01*
X669549Y273309D01*
X671333Y271940D01*
X673411Y271080D01*
X675640Y270786D01*
X677869Y271080D01*
X679947Y271940D01*
X681731Y273309D01*
X683100Y275093D01*
X683960Y277171D01*
X684254Y279400D01*
X683960Y281629D01*
X683100Y283707D01*
X681731Y285491D01*
X679947Y286860D01*
X679560Y287020D01*
Y288290D01*
X679947Y288450D01*
X681731Y289819D01*
X683100Y291603D01*
X683960Y293681D01*
X684254Y295910D01*
X683960Y298139D01*
X683100Y300217D01*
X681731Y302001D01*
X679947Y303370D01*
X679560Y303530D01*
Y304800D01*
X679947Y304960D01*
X681731Y306329D01*
X683100Y308113D01*
X683960Y310191D01*
X684254Y312420D01*
X683960Y314649D01*
X683100Y316727D01*
X681731Y318511D01*
X679947Y319880D01*
X677869Y320740D01*
X675640Y321034D01*
X673411Y320740D01*
X671333Y319880D01*
X669549Y318511D01*
X668180Y316727D01*
X667399Y314840D01*
X665816D01*
X664435Y314566D01*
X663264Y313783D01*
X643854Y294373D01*
X642513Y294828D01*
X642217Y297074D01*
X640954Y300124D01*
X638944Y302744D01*
X636324Y304754D01*
X633767Y305813D01*
Y307187D01*
X636324Y308246D01*
X638944Y310256D01*
X640954Y312876D01*
X642217Y315926D01*
X642648Y319200D01*
X642217Y322474D01*
X640954Y325524D01*
X638944Y328144D01*
X636324Y330154D01*
X633767Y331213D01*
Y332587D01*
X636324Y333646D01*
X638944Y335656D01*
X640954Y338276D01*
X642217Y341326D01*
X642648Y344600D01*
X642217Y347874D01*
X640954Y350924D01*
X638944Y353544D01*
X636324Y355554D01*
X634788Y356190D01*
X635041Y357460D01*
X642540D01*
Y382540D01*
X643619Y383000D01*
X662233D01*
X674912Y370321D01*
X674646Y368300D01*
X674940Y366071D01*
X675800Y363993D01*
X677169Y362209D01*
X678953Y360840D01*
X681031Y359980D01*
X683260Y359686D01*
X685489Y359980D01*
X687567Y360840D01*
X689351Y362209D01*
X690720Y363993D01*
X691580Y366071D01*
X691874Y368300D01*
X691580Y370529D01*
X690720Y372607D01*
X689351Y374391D01*
X687567Y375760D01*
X685489Y376620D01*
X683260Y376914D01*
X681031Y376620D01*
X680019Y376201D01*
X666588Y389632D01*
X665328Y390474D01*
X663842Y390770D01*
X646647D01*
X646161Y391943D01*
X654678Y400460D01*
X662338D01*
Y418540D01*
X634825D01*
X634602Y418873D01*
X631923Y421552D01*
X630752Y422335D01*
X629371Y422609D01*
X618885D01*
X617504Y422335D01*
X616333Y421552D01*
X607890Y413109D01*
X604338D01*
Y418540D01*
X576825D01*
X576602Y418873D01*
X573923Y421552D01*
X572752Y422335D01*
X571371Y422609D01*
X560885D01*
X559504Y422335D01*
X558333Y421552D01*
X549890Y413109D01*
X546338D01*
Y418540D01*
X518825D01*
X518602Y418873D01*
X515923Y421552D01*
X514752Y422335D01*
X513371Y422609D01*
X502885D01*
X501504Y422335D01*
X500333Y421552D01*
X491890Y413109D01*
X488338D01*
Y418540D01*
X460825D01*
X460602Y418873D01*
X457923Y421552D01*
X456752Y422335D01*
X455371Y422609D01*
X444885D01*
X443504Y422335D01*
X442333Y421552D01*
X433890Y413109D01*
X430338D01*
Y418540D01*
X402825D01*
X402602Y418873D01*
X399923Y421552D01*
X398752Y422335D01*
X397371Y422609D01*
X386885D01*
X385504Y422335D01*
X384333Y421552D01*
X375890Y413109D01*
X372338D01*
Y418540D01*
X344825D01*
X344602Y418873D01*
X341923Y421552D01*
X340752Y422335D01*
X339371Y422609D01*
X328885D01*
X327504Y422335D01*
X326333Y421552D01*
X317890Y413109D01*
X314338D01*
Y418540D01*
X286825D01*
X286602Y418873D01*
X283923Y421552D01*
X282752Y422335D01*
X281371Y422609D01*
X270885D01*
X269504Y422335D01*
X268333Y421552D01*
X259890Y413109D01*
X256338D01*
Y418540D01*
X239304D01*
X239142Y419352D01*
X238160Y420822D01*
X238160Y420822D01*
X235872Y423110D01*
X234402Y424092D01*
X233685Y424235D01*
X233075Y424845D01*
X231604Y425827D01*
X229870Y426172D01*
D02*
G37*
G36*
X91680Y334210D02*
X85410D01*
Y325440D01*
X91680D01*
Y334210D01*
D02*
G37*
G36*
X726270Y347525D02*
Y321270D01*
X752525D01*
X752285Y324322D01*
X751273Y328537D01*
X749614Y332542D01*
X747349Y336238D01*
X744534Y339534D01*
X741238Y342349D01*
X737542Y344614D01*
X733537Y346273D01*
X729322Y347285D01*
X726270Y347525D01*
D02*
G37*
G36*
X723730D02*
X720678Y347285D01*
X716463Y346273D01*
X712458Y344614D01*
X708762Y342349D01*
X705466Y339534D01*
X702651Y336238D01*
X700386Y332542D01*
X698727Y328537D01*
X697715Y324322D01*
X697475Y321270D01*
X723730D01*
Y347525D01*
D02*
G37*
G36*
X91680Y322900D02*
X85410D01*
Y314130D01*
X91680D01*
Y322900D01*
D02*
G37*
G36*
X72404Y317100D02*
X66040D01*
Y311236D01*
X67520D01*
X69389Y311608D01*
X70973Y312667D01*
X72032Y314251D01*
X72404Y316120D01*
Y317100D01*
D02*
G37*
G36*
X63500D02*
X57136D01*
Y316120D01*
X57508Y314251D01*
X58567Y312667D01*
X60151Y311608D01*
X62020Y311236D01*
X63500D01*
Y317100D01*
D02*
G37*
G36*
X32870Y313451D02*
X32015D01*
X30195Y313089D01*
X28652Y312058D01*
X27621Y310515D01*
X27259Y308695D01*
Y307340D01*
X32870D01*
Y313451D01*
D02*
G37*
G36*
X98660Y306084D02*
X97680D01*
X95811Y305712D01*
X94227Y304653D01*
X93168Y303069D01*
X92796Y301200D01*
Y299720D01*
X98660D01*
Y306084D01*
D02*
G37*
G36*
X32870Y304800D02*
X27259D01*
Y303445D01*
X27621Y301625D01*
X28652Y300082D01*
X30195Y299051D01*
X32015Y298689D01*
X32870D01*
Y304800D01*
D02*
G37*
G36*
X752525Y318730D02*
X726270D01*
Y292475D01*
X729322Y292715D01*
X733537Y293727D01*
X737542Y295386D01*
X741238Y297651D01*
X744534Y300466D01*
X747349Y303762D01*
X749614Y307458D01*
X751273Y311463D01*
X752285Y315679D01*
X752525Y318730D01*
D02*
G37*
G36*
X723730D02*
X697475D01*
X697715Y315679D01*
X698727Y311463D01*
X700386Y307458D01*
X702651Y303762D01*
X705466Y300466D01*
X708762Y297651D01*
X712458Y295386D01*
X716463Y293727D01*
X720678Y292715D01*
X723730Y292475D01*
Y318730D01*
D02*
G37*
G36*
X98660Y297180D02*
X92796D01*
Y295700D01*
X93168Y293831D01*
X94227Y292247D01*
X95811Y291188D01*
X97680Y290816D01*
X98660D01*
Y297180D01*
D02*
G37*
G36*
X32720Y294401D02*
X31865D01*
X30045Y294039D01*
X28502Y293008D01*
X27471Y291465D01*
X27109Y289645D01*
Y288290D01*
X32720D01*
Y294401D01*
D02*
G37*
G36*
Y285750D02*
X27109D01*
Y284395D01*
X27471Y282575D01*
X28502Y281032D01*
X30045Y280001D01*
X31865Y279639D01*
X32720D01*
Y285750D01*
D02*
G37*
G36*
X684000Y266714D02*
X683020D01*
Y260350D01*
X688884D01*
Y261830D01*
X688512Y263699D01*
X687453Y265283D01*
X685869Y266342D01*
X684000Y266714D01*
D02*
G37*
G36*
X38620Y276240D02*
X18540D01*
Y256160D01*
X38620D01*
Y276240D01*
D02*
G37*
G36*
X688884Y257810D02*
X683020D01*
Y251446D01*
X684000D01*
X685869Y251818D01*
X687453Y252877D01*
X688512Y254461D01*
X688884Y256330D01*
Y257810D01*
D02*
G37*
G36*
X758190Y194945D02*
X754380D01*
Y188151D01*
X758190D01*
Y194945D01*
D02*
G37*
G36*
X751840D02*
X748030D01*
Y188151D01*
X751840D01*
Y194945D01*
D02*
G37*
G36*
X758190Y185611D02*
X754380D01*
Y178816D01*
X758190D01*
Y185611D01*
D02*
G37*
G36*
X751840D02*
X748030D01*
Y178816D01*
X751840D01*
Y185611D01*
D02*
G37*
G36*
X721360Y115126D02*
Y107950D01*
X728537D01*
X728410Y108909D01*
X727550Y110987D01*
X726181Y112771D01*
X724397Y114140D01*
X722319Y115000D01*
X721360Y115126D01*
D02*
G37*
G36*
X718820Y115126D02*
X717861Y115000D01*
X715783Y114140D01*
X713999Y112771D01*
X712630Y110987D01*
X711770Y108909D01*
X711644Y107950D01*
X718820D01*
Y115126D01*
D02*
G37*
G36*
X71730Y132525D02*
X68678Y132285D01*
X64463Y131273D01*
X60458Y129614D01*
X56762Y127349D01*
X53466Y124534D01*
X50651Y121238D01*
X48386Y117542D01*
X46727Y113537D01*
X45715Y109321D01*
X45475Y106270D01*
X71730D01*
Y132525D01*
D02*
G37*
G36*
X718820Y105410D02*
X711644D01*
X711770Y104451D01*
X712630Y102373D01*
X713999Y100589D01*
X715783Y99220D01*
X717861Y98360D01*
X718820Y98233D01*
Y105410D01*
D02*
G37*
G36*
X728537D02*
X721360D01*
Y98233D01*
X722319Y98360D01*
X724397Y99220D01*
X726181Y100589D01*
X727550Y102373D01*
X728410Y104451D01*
X728537Y105410D01*
D02*
G37*
G36*
X100525Y103730D02*
X74270D01*
Y77475D01*
X77322Y77715D01*
X81537Y78727D01*
X85542Y80386D01*
X89238Y82651D01*
X92534Y85466D01*
X95349Y88762D01*
X97614Y92458D01*
X99273Y96463D01*
X100285Y100679D01*
X100525Y103730D01*
D02*
G37*
G36*
X662412Y29540D02*
X657142D01*
Y21770D01*
X662412D01*
Y29540D01*
D02*
G37*
G36*
Y19230D02*
X657142D01*
Y11460D01*
X662412D01*
Y19230D01*
D02*
G37*
%LPD*%
G36*
X185490Y395949D02*
X185783Y393726D01*
X187046Y390676D01*
X189056Y388056D01*
X191676Y386046D01*
X194726Y384783D01*
X198000Y384352D01*
X201274Y384783D01*
X203988Y385907D01*
X231129Y358767D01*
X230602Y357497D01*
X153030D01*
X152468Y358636D01*
X152545Y358737D01*
X153441Y360899D01*
X153747Y363220D01*
X153441Y365541D01*
X153396Y365651D01*
X184149Y396404D01*
X185490Y395949D01*
D02*
G37*
G36*
X211588Y410770D02*
X218128D01*
Y409500D01*
X219398D01*
Y400460D01*
X223518D01*
Y387900D01*
X223863Y386166D01*
X224845Y384695D01*
X230124Y379417D01*
X230530Y377373D01*
X231865Y375375D01*
X233863Y374040D01*
X236220Y373572D01*
X238577Y374040D01*
X240575Y375375D01*
X241910Y377373D01*
X242378Y379730D01*
X241910Y382087D01*
X240575Y384085D01*
X238577Y385420D01*
X236533Y385826D01*
X232582Y389777D01*
Y400460D01*
X236544D01*
X236706Y399648D01*
X237688Y398178D01*
X239976Y395890D01*
X239976Y395890D01*
X241446Y394908D01*
X243181Y394563D01*
X243181Y394563D01*
X290667D01*
X292402Y394908D01*
X293872Y395890D01*
X295924Y397942D01*
X297976Y395890D01*
X297976Y395890D01*
X299446Y394908D01*
X301181Y394563D01*
X301181Y394563D01*
X348667D01*
X350402Y394908D01*
X351872Y395890D01*
X353924Y397942D01*
X355976Y395890D01*
X355976Y395890D01*
X357446Y394908D01*
X359181Y394563D01*
X359181Y394563D01*
X406668D01*
X408402Y394908D01*
X409872Y395890D01*
X411924Y397942D01*
X413976Y395890D01*
X413976Y395890D01*
X415446Y394908D01*
X417180Y394563D01*
X417181Y394563D01*
X464668D01*
X466402Y394908D01*
X467872Y395890D01*
X469924Y397942D01*
X471976Y395890D01*
X471976Y395890D01*
X473446Y394908D01*
X475181Y394563D01*
X475181Y394563D01*
X522668D01*
X524402Y394908D01*
X525872Y395890D01*
X527924Y397942D01*
X529976Y395890D01*
X529976Y395890D01*
X531446Y394908D01*
X533181Y394563D01*
X533181Y394563D01*
X580667D01*
X582402Y394908D01*
X583872Y395890D01*
X585924Y397942D01*
X587976Y395890D01*
X587976Y395890D01*
X589446Y394908D01*
X591181Y394563D01*
X591181Y394563D01*
X636134D01*
X636620Y393390D01*
X634000Y390770D01*
X622261D01*
X620774Y390474D01*
X619514Y389632D01*
X605113Y375231D01*
X604271Y373971D01*
X603975Y372484D01*
Y303218D01*
X602802Y302732D01*
X578854Y326680D01*
X579080Y327811D01*
X578611Y330168D01*
X577276Y332166D01*
X575278Y333501D01*
X572921Y333969D01*
X570564Y333501D01*
X568567Y332166D01*
X567649Y330792D01*
X566109Y330536D01*
X557542Y339102D01*
X556371Y339885D01*
X554990Y340159D01*
X413830D01*
X412449Y339885D01*
X411278Y339102D01*
X358167Y285991D01*
X356652Y286618D01*
X354000Y286968D01*
X351348Y286618D01*
X348876Y285595D01*
X346754Y283966D01*
X345125Y281844D01*
X344101Y279372D01*
X343752Y276720D01*
X344101Y274068D01*
X345125Y271596D01*
X346500Y269804D01*
X346035Y268534D01*
X339605D01*
X339315Y268728D01*
Y300279D01*
X339525Y300321D01*
X341068Y301352D01*
X342099Y302895D01*
X342461Y304715D01*
Y309965D01*
X342099Y311785D01*
X341068Y313328D01*
X339525Y314359D01*
X337705Y314721D01*
X333455D01*
X331635Y314359D01*
X330092Y313328D01*
X329715Y312764D01*
X328445D01*
X328068Y313328D01*
X326525Y314359D01*
X324705Y314721D01*
X320455D01*
X318635Y314359D01*
X317092Y313328D01*
X316061Y311785D01*
X315699Y309965D01*
Y305563D01*
X314735Y304599D01*
X277085D01*
X256173Y325511D01*
X256348Y326390D01*
X255879Y328747D01*
X254545Y330745D01*
X252547Y332080D01*
X250190Y332548D01*
X247833Y332080D01*
X245835Y330745D01*
X244501Y328747D01*
X244032Y326390D01*
X244501Y324033D01*
X245835Y322035D01*
X247833Y320700D01*
X250190Y320232D01*
X251069Y320406D01*
X273038Y298438D01*
X274209Y297655D01*
X275590Y297381D01*
X316230D01*
X317611Y297655D01*
X318782Y298438D01*
X320328Y299984D01*
X320455Y299959D01*
X324705D01*
X326525Y300321D01*
X328068Y301352D01*
X328445Y301915D01*
X329715D01*
X330092Y301352D01*
X331545Y300380D01*
Y268929D01*
X330925Y268515D01*
X329590Y266517D01*
X329122Y264160D01*
X329590Y261803D01*
X330925Y259805D01*
X332923Y258470D01*
X335280Y258002D01*
X337637Y258470D01*
X339605Y259786D01*
X349460D01*
Y172172D01*
X319667D01*
X318446Y171929D01*
X317435Y172632D01*
X317274Y172892D01*
X316840Y175077D01*
X315505Y177075D01*
X314759Y177573D01*
Y228510D01*
X314485Y229891D01*
X313702Y231062D01*
X230552Y314212D01*
X229381Y314994D01*
X228000Y315269D01*
X227440D01*
X227217Y316964D01*
X225954Y320014D01*
X223944Y322634D01*
X221324Y324644D01*
X218274Y325907D01*
X215000Y326338D01*
X211726Y325907D01*
X208676Y324644D01*
X206056Y322634D01*
X204046Y320014D01*
X202783Y316964D01*
X202352Y313690D01*
X202783Y310416D01*
X204046Y307366D01*
X206056Y304746D01*
X208676Y302736D01*
X211726Y301473D01*
X215000Y301042D01*
X218274Y301473D01*
X221324Y302736D01*
X223944Y304746D01*
X225710Y307049D01*
X226821Y307302D01*
X227288Y307268D01*
X250784Y283771D01*
X250298Y282598D01*
X125357Y282598D01*
X125357Y282598D01*
X125356Y282598D01*
X124863Y282499D01*
X124366Y282400D01*
X124366Y282400D01*
X124365Y282400D01*
X123975Y282140D01*
X123526Y281839D01*
X123525Y281839D01*
X123525Y281839D01*
X91261Y249558D01*
X90088Y250044D01*
Y260208D01*
X116635Y286755D01*
X116635Y286755D01*
X117617Y288226D01*
X117962Y289960D01*
X117962Y289960D01*
Y291464D01*
X119133Y292247D01*
X120192Y293831D01*
X120564Y295700D01*
Y301200D01*
X120192Y303069D01*
X119133Y304653D01*
X117962Y305436D01*
Y307288D01*
X123060Y312385D01*
X124042Y313856D01*
X124097Y314130D01*
X130490D01*
Y319638D01*
X131130D01*
X132864Y319983D01*
X134335Y320965D01*
X142520Y329151D01*
X144780Y328853D01*
X147101Y329159D01*
X149263Y330055D01*
X151120Y331480D01*
X152545Y333337D01*
X153441Y335499D01*
X153747Y337820D01*
X153441Y340141D01*
X152545Y342303D01*
X151120Y344160D01*
X149263Y345585D01*
X147101Y346481D01*
X144780Y346787D01*
X142459Y346481D01*
X140297Y345585D01*
X138440Y344160D01*
X137015Y342303D01*
X136119Y340141D01*
X135813Y337820D01*
X136111Y335560D01*
X131663Y331113D01*
X130490Y331599D01*
Y334210D01*
X117812D01*
X117326Y335383D01*
X120781Y338839D01*
X121343Y339679D01*
X121540Y340670D01*
Y348433D01*
X252947D01*
X254682Y348778D01*
X256152Y349760D01*
X272700Y366308D01*
X314353D01*
X328193Y352468D01*
X327936Y350520D01*
X328230Y348291D01*
X329090Y346213D01*
X330459Y344429D01*
X332243Y343060D01*
X334321Y342200D01*
X336550Y341906D01*
X338779Y342200D01*
X340857Y343060D01*
X342641Y344429D01*
X344010Y346213D01*
X344179Y346623D01*
X490599D01*
X491500Y345450D01*
X493357Y344025D01*
X495519Y343129D01*
X497840Y342823D01*
X500161Y343129D01*
X502323Y344025D01*
X504180Y345450D01*
X505605Y347307D01*
X506501Y349469D01*
X506807Y351790D01*
X506501Y354111D01*
X505605Y356273D01*
X504180Y358130D01*
X502323Y359555D01*
X500161Y360451D01*
X497840Y360757D01*
X495519Y360451D01*
X493357Y359555D01*
X491500Y358130D01*
X490075Y356273D01*
X489832Y355687D01*
X343350D01*
X342641Y356611D01*
X340857Y357980D01*
X338779Y358840D01*
X336550Y359134D01*
X334602Y358877D01*
X319435Y374045D01*
X317964Y375027D01*
X316230Y375372D01*
X270822D01*
X270822Y375372D01*
X269088Y375027D01*
X267618Y374045D01*
X267617Y374045D01*
X256999Y363426D01*
X255453Y363676D01*
X254545Y365035D01*
X252547Y366370D01*
X250190Y366838D01*
X247833Y366370D01*
X245835Y365035D01*
X245337Y364289D01*
X235815D01*
X209093Y391012D01*
X210217Y393726D01*
X210648Y397000D01*
X210217Y400274D01*
X208954Y403324D01*
X206944Y405944D01*
X204324Y407954D01*
X201274Y409217D01*
X199051Y409510D01*
X198596Y410851D01*
X204853Y417108D01*
X211588D01*
Y410770D01*
D02*
G37*
G36*
X118950Y362670D02*
Y340670D01*
X112950Y334670D01*
Y329692D01*
X102950D01*
Y334670D01*
X96950Y340670D01*
Y362670D01*
X105950Y371670D01*
X109950D01*
X118950Y362670D01*
D02*
G37*
G36*
X577746Y308689D02*
X577220Y307419D01*
X513360D01*
X511979Y307145D01*
X510808Y306362D01*
X495075Y290629D01*
X493773D01*
X493572Y291639D01*
X492513Y293223D01*
X490929Y294282D01*
X489060Y294654D01*
X484560D01*
X482691Y294282D01*
X481107Y293223D01*
X480695Y292607D01*
X479425D01*
X479013Y293223D01*
X477429Y294282D01*
X475560Y294654D01*
X474580D01*
Y287020D01*
Y279386D01*
X475560D01*
X477429Y279758D01*
X479013Y280817D01*
X479425Y281433D01*
X480695D01*
X481107Y280817D01*
X482691Y279758D01*
X483076Y279681D01*
Y275081D01*
X482615Y274989D01*
X481072Y273958D01*
X480695Y273395D01*
X479425D01*
X479048Y273958D01*
X477505Y274989D01*
X475685Y275351D01*
X474830D01*
Y267970D01*
Y260589D01*
X475685D01*
X477505Y260951D01*
X479048Y261982D01*
X479425Y262546D01*
X480695D01*
X481072Y261982D01*
X482397Y261096D01*
X482580Y260100D01*
X482562Y259666D01*
X475436Y252540D01*
X465460D01*
Y227460D01*
X480540D01*
Y247436D01*
X489112Y256008D01*
X489895Y257179D01*
X490169Y258560D01*
Y260884D01*
X490505Y260951D01*
X492048Y261982D01*
X493079Y263525D01*
X493441Y265345D01*
Y270595D01*
X493079Y272415D01*
X492048Y273958D01*
X490505Y274989D01*
X490294Y275031D01*
Y279632D01*
X490929Y279758D01*
X492513Y280817D01*
X493572Y282401D01*
X493773Y283411D01*
X496570D01*
X497951Y283685D01*
X499122Y284468D01*
X514855Y300201D01*
X546317D01*
X546749Y298931D01*
X546110Y298440D01*
X544685Y296583D01*
X543789Y294421D01*
X543483Y292100D01*
X543789Y289779D01*
X544685Y287617D01*
X546110Y285760D01*
X547889Y284394D01*
X547896Y284259D01*
X547370Y283333D01*
Y277260D01*
X553734D01*
Y278240D01*
X553362Y280109D01*
X552303Y281693D01*
X551971Y281915D01*
X552431Y283136D01*
X552450Y283133D01*
X554771Y283439D01*
X554809Y283455D01*
X557838Y280426D01*
X557838Y280426D01*
X559309Y279443D01*
X561043Y279099D01*
X566697D01*
X566778Y278691D01*
X567837Y277107D01*
X569421Y276048D01*
X570431Y275847D01*
Y273353D01*
X569948Y272870D01*
X569165Y271699D01*
X568891Y270318D01*
Y264370D01*
X568694Y264076D01*
X568381Y262500D01*
Y251500D01*
X568694Y249924D01*
X568773Y249806D01*
Y243207D01*
X567503Y243082D01*
X567306Y244076D01*
X566413Y245413D01*
X565076Y246306D01*
X563500Y246619D01*
X553485D01*
X549709Y250395D01*
Y255527D01*
X550719Y255728D01*
X552303Y256787D01*
X553362Y258371D01*
X553734Y260240D01*
Y264740D01*
X553362Y266609D01*
X552303Y268193D01*
X551687Y268605D01*
Y269875D01*
X552303Y270287D01*
X553362Y271871D01*
X553734Y273740D01*
Y274720D01*
X538466D01*
Y273740D01*
X538838Y271871D01*
X539897Y270287D01*
X540513Y269875D01*
Y268605D01*
X539897Y268193D01*
X538838Y266609D01*
X538466Y264740D01*
Y260240D01*
X538838Y258371D01*
X539897Y256787D01*
X541481Y255728D01*
X542491Y255527D01*
Y248900D01*
X542765Y247519D01*
X543548Y246348D01*
X548625Y241270D01*
X548694Y240924D01*
X549312Y240000D01*
X548694Y239076D01*
X548381Y237500D01*
X548694Y235924D01*
X549312Y235000D01*
X548694Y234076D01*
X548381Y232500D01*
X548694Y230924D01*
X549312Y230000D01*
X548694Y229076D01*
X548381Y227500D01*
X548694Y225924D01*
X549312Y225000D01*
X548694Y224076D01*
X548381Y222500D01*
X548694Y220924D01*
X549312Y220000D01*
X548694Y219076D01*
X548558Y218391D01*
X547187Y217780D01*
X544830Y218248D01*
X542473Y217780D01*
X541997Y217461D01*
X540854Y218225D01*
X541034Y219130D01*
Y220110D01*
X533400D01*
Y221380D01*
X532130D01*
Y228514D01*
X530650D01*
X528781Y228142D01*
X527197Y227083D01*
X526138Y225499D01*
X525766Y223630D01*
Y220644D01*
X524496Y220118D01*
X520609Y224005D01*
Y227460D01*
X524540D01*
Y252540D01*
X509460D01*
Y227460D01*
X513391D01*
Y222510D01*
X513665Y221129D01*
X514448Y219958D01*
X515326Y219079D01*
X514958Y217864D01*
X514533Y217780D01*
X512535Y216445D01*
X511200Y214447D01*
X510732Y212090D01*
X510847Y211512D01*
X496624Y197289D01*
X495786Y196035D01*
X495492Y194556D01*
Y188637D01*
X479589Y172734D01*
X477532D01*
Y177460D01*
X480540D01*
Y202540D01*
X465460D01*
Y177460D01*
X468468D01*
Y173377D01*
X467486Y172572D01*
X466670Y172734D01*
X465690D01*
Y165100D01*
X464420D01*
Y163830D01*
X457286D01*
Y162350D01*
X457658Y160481D01*
X458717Y158897D01*
X459236Y158549D01*
X458851Y157279D01*
X445379D01*
X443998Y157005D01*
X442827Y156222D01*
X441194Y154590D01*
X439991Y154998D01*
X439869Y155932D01*
X438845Y158404D01*
X437216Y160526D01*
X435094Y162155D01*
X432622Y163179D01*
X429970Y163528D01*
X427318Y163179D01*
X424846Y162155D01*
X422724Y160526D01*
X421095Y158404D01*
X420657Y157347D01*
X419283D01*
X418845Y158404D01*
X417216Y160526D01*
X415094Y162155D01*
X412622Y163179D01*
X409970Y163528D01*
X407318Y163179D01*
X404846Y162155D01*
X402724Y160526D01*
X401095Y158404D01*
X400657Y157347D01*
X399283D01*
X398845Y158404D01*
X397216Y160526D01*
X395094Y162155D01*
X392622Y163179D01*
X389970Y163528D01*
X389097Y163413D01*
X384223Y168287D01*
X384709Y169460D01*
X450540D01*
Y260540D01*
X405802D01*
X405276Y261810D01*
X410598Y267132D01*
X411348Y266821D01*
X414000Y266472D01*
X416652Y266821D01*
X419124Y267845D01*
X421246Y269474D01*
X422875Y271596D01*
X423185Y272346D01*
X443440D01*
X445114Y272679D01*
X446533Y273627D01*
X465978Y293073D01*
X466965Y292263D01*
X466548Y291639D01*
X466176Y289770D01*
Y288290D01*
X472040D01*
Y294654D01*
X471060D01*
X469191Y294282D01*
X468567Y293865D01*
X467757Y294852D01*
X472864Y299959D01*
X475685D01*
X477505Y300321D01*
X479048Y301352D01*
X479425Y301915D01*
X480695D01*
X481072Y301352D01*
X482615Y300321D01*
X484435Y299959D01*
X488685D01*
X490505Y300321D01*
X492048Y301352D01*
X493079Y302895D01*
X493093Y302966D01*
X494785D01*
X496753Y301651D01*
X499110Y301182D01*
X501467Y301651D01*
X503465Y302985D01*
X504799Y304983D01*
X505268Y307340D01*
X504799Y309697D01*
X503465Y311695D01*
X501467Y313029D01*
X499110Y313498D01*
X496753Y313029D01*
X494785Y311714D01*
X493093D01*
X493079Y311785D01*
X492048Y313328D01*
X490505Y314359D01*
X488685Y314721D01*
X484435D01*
X482615Y314359D01*
X481072Y313328D01*
X480695Y312764D01*
X479425D01*
X479048Y313328D01*
X477505Y314359D01*
X475685Y314721D01*
X471435D01*
X469615Y314359D01*
X468072Y313328D01*
X467041Y311785D01*
X466679Y309965D01*
Y306144D01*
X441628Y281094D01*
X423185D01*
X422875Y281844D01*
X421246Y283966D01*
X419124Y285595D01*
X416652Y286618D01*
X414000Y286968D01*
X411348Y286618D01*
X408876Y285595D01*
X406754Y283966D01*
X405125Y281844D01*
X404687Y280787D01*
X403313D01*
X402875Y281844D01*
X401246Y283966D01*
X399124Y285595D01*
X396652Y286618D01*
X395270Y286800D01*
Y276720D01*
X392730D01*
Y286800D01*
X391348Y286618D01*
X388876Y285595D01*
X386754Y283966D01*
X385125Y281844D01*
X384687Y280787D01*
X383313D01*
X382875Y281844D01*
X381246Y283966D01*
X380157Y284802D01*
X380074Y286069D01*
X419325Y325321D01*
X546327D01*
X546825Y324575D01*
X548823Y323241D01*
X551180Y322772D01*
X553537Y323241D01*
X555535Y324575D01*
X556870Y326573D01*
X557068Y327571D01*
X558446Y327990D01*
X577746Y308689D01*
D02*
G37*
G36*
X589481Y288190D02*
Y279173D01*
X588735Y278675D01*
X587401Y276677D01*
X586932Y274320D01*
X587401Y271963D01*
X588735Y269965D01*
X589082Y269734D01*
Y267599D01*
X587812Y266557D01*
X587500Y266619D01*
X585924Y266306D01*
X585000Y265688D01*
X584076Y266306D01*
X582500Y266619D01*
X580924Y266306D01*
X580000Y265688D01*
X579076Y266306D01*
X578770Y266367D01*
Y264190D01*
X578694Y264076D01*
X578380Y262500D01*
Y257000D01*
X576620D01*
Y262500D01*
X576306Y264076D01*
X576230Y264190D01*
Y267244D01*
X576109Y267344D01*
Y268823D01*
X576592Y269306D01*
X577375Y270477D01*
X577649Y271858D01*
Y275847D01*
X578659Y276048D01*
X580243Y277107D01*
X581302Y278691D01*
X581674Y280560D01*
Y285060D01*
X581302Y286929D01*
X580243Y288513D01*
X579627Y288925D01*
Y290195D01*
X580243Y290607D01*
X581302Y292191D01*
X581674Y294060D01*
Y294337D01*
X582847Y294823D01*
X589481Y288190D01*
D02*
G37*
G36*
X661116Y261322D02*
Y256551D01*
X650675Y246109D01*
X649370D01*
X649076Y246306D01*
X647500Y246619D01*
X636500D01*
X634924Y246306D01*
X634630Y246109D01*
X577299D01*
X577287Y246142D01*
X577318Y246325D01*
X578147Y247509D01*
X579076Y247694D01*
X580000Y248312D01*
X580924Y247694D01*
X582500Y247381D01*
X584076Y247694D01*
X585000Y248312D01*
X585924Y247694D01*
X587500Y247381D01*
X589076Y247694D01*
X590000Y248312D01*
X590924Y247694D01*
X592500Y247381D01*
X594076Y247694D01*
X595000Y248312D01*
X595924Y247694D01*
X597500Y247381D01*
X599076Y247694D01*
X600000Y248312D01*
X600924Y247694D01*
X602500Y247381D01*
X604076Y247694D01*
X605000Y248312D01*
X605924Y247694D01*
X607500Y247381D01*
X609076Y247694D01*
X610000Y248312D01*
X610924Y247694D01*
X612500Y247381D01*
X614076Y247694D01*
X615000Y248312D01*
X615924Y247694D01*
X617500Y247381D01*
X619076Y247694D01*
X620000Y248312D01*
X620924Y247694D01*
X622500Y247381D01*
X624076Y247694D01*
X625000Y248312D01*
X625924Y247694D01*
X627500Y247381D01*
X629076Y247694D01*
X630413Y248587D01*
X631306Y249924D01*
X631619Y251500D01*
Y253391D01*
X643080D01*
X644461Y253665D01*
X645632Y254448D01*
X652393Y261209D01*
X653091Y260920D01*
X655320Y260626D01*
X657549Y260920D01*
X659627Y261780D01*
X659918Y262004D01*
X661116Y261322D01*
D02*
G37*
G36*
X609571Y229804D02*
Y213500D01*
X608398Y213014D01*
X597969Y223443D01*
Y225017D01*
X598715Y225515D01*
X600050Y227513D01*
X600518Y229870D01*
X600050Y232227D01*
X598715Y234225D01*
X596717Y235560D01*
X594360Y236028D01*
X592003Y235560D01*
X590005Y234225D01*
X588671Y232227D01*
X588202Y229870D01*
X588376Y228995D01*
X587860Y228479D01*
X585503Y228010D01*
X583505Y226675D01*
X582170Y224677D01*
X581702Y222320D01*
X581876Y221441D01*
X577165Y216730D01*
X575992Y217216D01*
Y238891D01*
X600485D01*
X609571Y229804D01*
D02*
G37*
G36*
X525766Y208640D02*
Y205630D01*
X526138Y203761D01*
X527197Y202177D01*
X528781Y201118D01*
X530650Y200746D01*
X532331D01*
Y183105D01*
X528050Y178825D01*
X525963Y178410D01*
X525810Y178307D01*
X524540Y178986D01*
Y188730D01*
X518270D01*
Y177460D01*
X522696D01*
X523374Y176190D01*
X522631Y175077D01*
X522162Y172720D01*
X522213Y172462D01*
X521167Y171211D01*
X518725D01*
X516905Y170849D01*
X515362Y169818D01*
X514985Y169254D01*
X513715D01*
X513338Y169818D01*
X511795Y170849D01*
X509975Y171211D01*
X505725D01*
X503905Y170849D01*
X502362Y169818D01*
X501813Y168997D01*
X488441D01*
X487955Y170170D01*
X502089Y184304D01*
X502926Y185558D01*
X503221Y187036D01*
Y192956D01*
X508287Y198022D01*
X509460Y197536D01*
Y191270D01*
X515730D01*
Y202540D01*
X514464D01*
X513978Y203713D01*
X516312Y206047D01*
X516890Y205932D01*
X519247Y206401D01*
X521245Y207735D01*
X522579Y209733D01*
X522664Y210158D01*
X523879Y210526D01*
X525766Y208640D01*
D02*
G37*
G36*
X705391Y185153D02*
Y173920D01*
X703189Y171719D01*
X702310Y171893D01*
X699953Y171425D01*
X697955Y170090D01*
X696620Y168092D01*
X696152Y165735D01*
X696620Y163378D01*
X697955Y161380D01*
X699953Y160046D01*
X702310Y159577D01*
X702611Y159637D01*
X703237Y158466D01*
X681398Y136627D01*
X679450Y136884D01*
X677221Y136590D01*
X675143Y135730D01*
X673359Y134361D01*
X671990Y132577D01*
X671130Y130499D01*
X670836Y128270D01*
X671093Y126322D01*
X666340Y121570D01*
X665358Y120099D01*
X665013Y118365D01*
Y75900D01*
X643713Y54600D01*
X642540Y55086D01*
Y72540D01*
X635041D01*
X634788Y73810D01*
X636324Y74446D01*
X638944Y76456D01*
X640954Y79076D01*
X642217Y82126D01*
X642648Y85400D01*
X642217Y88674D01*
X640954Y91724D01*
X638944Y94344D01*
X636324Y96354D01*
X633767Y97413D01*
Y98787D01*
X636324Y99846D01*
X638944Y101856D01*
X640954Y104476D01*
X642217Y107526D01*
X642648Y110800D01*
X642217Y114074D01*
X640954Y117124D01*
X638944Y119744D01*
X636324Y121754D01*
X633767Y122813D01*
Y124187D01*
X636324Y125246D01*
X638944Y127256D01*
X640954Y129876D01*
X642217Y132926D01*
X642648Y136200D01*
X642217Y139474D01*
X640954Y142524D01*
X638944Y145144D01*
X636324Y147154D01*
X633274Y148417D01*
X630000Y148848D01*
X626726Y148417D01*
X623676Y147154D01*
X621056Y145144D01*
X619580Y143220D01*
X601025D01*
X596301Y147944D01*
Y149643D01*
X597571Y150052D01*
X599330Y148876D01*
X601687Y148408D01*
X604043Y148876D01*
X606041Y150211D01*
X606926Y151536D01*
X607251Y151705D01*
X608472Y151879D01*
X608551Y151855D01*
X609279Y151368D01*
X609312Y151362D01*
X609613Y151161D01*
X610994Y150886D01*
X616379D01*
X617424Y151094D01*
X637879D01*
X639071Y151331D01*
X661814D01*
X661981Y150495D01*
X663012Y148952D01*
X664555Y147921D01*
X666375Y147559D01*
X670625D01*
X672445Y147921D01*
X673988Y148952D01*
X674365Y149515D01*
X675635D01*
X676012Y148952D01*
X677555Y147921D01*
X679375Y147559D01*
X680230D01*
Y154940D01*
Y162321D01*
X679375D01*
X677555Y161959D01*
X676012Y160928D01*
X675635Y160364D01*
X674365D01*
X673988Y160928D01*
X672445Y161959D01*
X670625Y162321D01*
X666375D01*
X664555Y161959D01*
X663012Y160928D01*
X661981Y159385D01*
X661814Y158549D01*
X638116D01*
X636925Y158312D01*
X620570D01*
X619564Y159582D01*
X619845Y160995D01*
X619411Y163178D01*
X619806Y163620D01*
X620440Y164017D01*
X620924Y163694D01*
X621230Y163633D01*
Y165810D01*
X621306Y165924D01*
X621620Y167500D01*
Y173000D01*
X623380D01*
Y167500D01*
X623694Y165924D01*
X623770Y165810D01*
Y163633D01*
X624076Y163694D01*
X625000Y164312D01*
X625924Y163694D01*
X627500Y163381D01*
X629076Y163694D01*
X630413Y164587D01*
X631306Y165924D01*
X631619Y167500D01*
Y169391D01*
X646253D01*
X647634Y169665D01*
X648805Y170448D01*
X651278Y172921D01*
X661287D01*
X661488Y171911D01*
X662547Y170327D01*
X664131Y169268D01*
X666000Y168896D01*
X670500D01*
X672369Y169268D01*
X673953Y170327D01*
X674365Y170943D01*
X675635D01*
X676047Y170327D01*
X677631Y169268D01*
X679500Y168896D01*
X680480D01*
Y176530D01*
X681750D01*
Y177800D01*
X688884D01*
Y179280D01*
X688512Y181149D01*
X687529Y182621D01*
X687659Y183162D01*
X688007Y183891D01*
X692582D01*
X693963Y184165D01*
X695134Y184948D01*
X695678Y185491D01*
X697541Y184720D01*
X699770Y184426D01*
X701999Y184720D01*
X704077Y185580D01*
X704252Y185714D01*
X705391Y185153D01*
D02*
G37*
G36*
X570249Y182717D02*
X570139Y182607D01*
X569357Y181437D01*
X569252Y180911D01*
X568694Y180076D01*
X568381Y178500D01*
Y167500D01*
X568694Y165924D01*
X569587Y164587D01*
X570924Y163694D01*
X572500Y163381D01*
X572909Y163462D01*
X573891Y162656D01*
Y139640D01*
X572771Y139041D01*
X572559Y139183D01*
X570202Y139652D01*
X567861Y139186D01*
X567507Y140360D01*
X569505Y141695D01*
X570840Y143693D01*
X571308Y146050D01*
X570840Y148407D01*
X569505Y150405D01*
X567507Y151740D01*
X565150Y152208D01*
X562793Y151740D01*
X560795Y150405D01*
X559460Y148407D01*
X558992Y146050D01*
X559166Y145171D01*
X536575Y122579D01*
X510966D01*
X510799Y123415D01*
X509768Y124958D01*
X508562Y125764D01*
X508496Y125996D01*
Y126944D01*
X508562Y127176D01*
X509768Y127982D01*
X510799Y129525D01*
X510966Y130361D01*
X532750D01*
X534131Y130635D01*
X535302Y131418D01*
X547761Y143876D01*
X548640Y143702D01*
X550997Y144171D01*
X552995Y145505D01*
X554329Y147503D01*
X554798Y149860D01*
X554329Y152217D01*
X552995Y154215D01*
X550997Y155549D01*
X548640Y156018D01*
X546283Y155549D01*
X545761Y155200D01*
X544951Y156187D01*
X551838Y163074D01*
X552222D01*
X553903Y161950D01*
X556260Y161482D01*
X558617Y161950D01*
X560615Y163285D01*
X561950Y165283D01*
X562418Y167640D01*
X561950Y169997D01*
X560615Y171995D01*
X558953Y173105D01*
X558139Y174173D01*
X558608Y176530D01*
X558139Y178887D01*
X556805Y180885D01*
X554969Y182111D01*
X554976Y182745D01*
X555181Y183381D01*
X563500D01*
X565076Y183694D01*
X565370Y183891D01*
X569763D01*
X570249Y182717D01*
D02*
G37*
G36*
X307541Y227015D02*
Y177573D01*
X306795Y177075D01*
X305460Y175077D01*
X304992Y172720D01*
X305460Y170363D01*
X306795Y168365D01*
X308793Y167031D01*
X310510Y166689D01*
X310941Y165324D01*
X305496Y159879D01*
X304281Y160247D01*
X304139Y160957D01*
X302805Y162955D01*
X300807Y164289D01*
X298450Y164758D01*
X297516Y164573D01*
X296988Y165100D01*
X296520Y167457D01*
X295185Y169455D01*
X293187Y170790D01*
X290830Y171258D01*
X288473Y170790D01*
X286475Y169455D01*
X285140Y167457D01*
X284672Y165100D01*
X284846Y164221D01*
X265205Y144579D01*
X181110D01*
X179729Y144305D01*
X178558Y143522D01*
X169167Y134131D01*
X167652Y134759D01*
X165000Y135108D01*
X162348Y134759D01*
X159876Y133735D01*
X157754Y132106D01*
X156125Y129984D01*
X155101Y127512D01*
X154752Y124860D01*
X155101Y122208D01*
X156125Y119736D01*
X157754Y117614D01*
X159876Y115985D01*
X162348Y114962D01*
X165000Y114612D01*
X167652Y114962D01*
X170124Y115985D01*
X172246Y117614D01*
X173875Y119736D01*
X174898Y122208D01*
X175248Y124860D01*
X174898Y127512D01*
X174271Y129027D01*
X182605Y137361D01*
X192827D01*
X193313Y136187D01*
X191973Y134848D01*
X190000Y135108D01*
X187348Y134759D01*
X184876Y133735D01*
X182754Y132106D01*
X181125Y129984D01*
X180102Y127512D01*
X179752Y124860D01*
X180102Y122208D01*
X181125Y119736D01*
X182754Y117614D01*
X184876Y115985D01*
X187348Y114962D01*
X190000Y114612D01*
X192652Y114962D01*
X195124Y115985D01*
X197246Y117614D01*
X198875Y119736D01*
X199898Y122208D01*
X200248Y124860D01*
X199898Y127512D01*
X198875Y129984D01*
X198199Y130865D01*
X200695Y133361D01*
X207413D01*
X207680Y132574D01*
X207742Y132091D01*
X206125Y129984D01*
X205102Y127512D01*
X204752Y124860D01*
X205102Y122208D01*
X206125Y119736D01*
X207754Y117614D01*
X209876Y115985D01*
X212348Y114962D01*
X215000Y114612D01*
X217652Y114962D01*
X220124Y115985D01*
X222246Y117614D01*
X223875Y119736D01*
X223918Y119840D01*
X224480Y119826D01*
X224921Y118545D01*
X224314Y118046D01*
X222434Y115756D01*
X221038Y113143D01*
X220178Y110308D01*
X219887Y107360D01*
Y102360D01*
X220178Y99412D01*
X221038Y96577D01*
X222434Y93964D01*
X224260Y91739D01*
X224199Y91316D01*
X223896Y90469D01*
X196538D01*
X196107Y91739D01*
X197246Y92614D01*
X198875Y94736D01*
X199898Y97208D01*
X200248Y99860D01*
X199898Y102512D01*
X198875Y104984D01*
X197246Y107106D01*
X195124Y108735D01*
X192652Y109759D01*
X190000Y110108D01*
X187348Y109759D01*
X184876Y108735D01*
X182754Y107106D01*
X181125Y104984D01*
X180102Y102512D01*
X179752Y99860D01*
X180102Y97208D01*
X181125Y94736D01*
X182754Y92614D01*
X183893Y91739D01*
X183462Y90469D01*
X156104D01*
X155801Y91316D01*
X155740Y91739D01*
X157566Y93964D01*
X158962Y96577D01*
X159822Y99412D01*
X160113Y102360D01*
Y107360D01*
X159822Y110308D01*
X158962Y113143D01*
X157566Y115756D01*
X155686Y118046D01*
X153396Y119926D01*
X150783Y121322D01*
X147948Y122182D01*
X145000Y122473D01*
X142052Y122182D01*
X139217Y121322D01*
X136604Y119926D01*
X134314Y118046D01*
X132434Y115756D01*
X131038Y113143D01*
X130178Y110308D01*
X129887Y107360D01*
Y102360D01*
X130024Y100974D01*
X128804Y100397D01*
X84409Y144792D01*
X83238Y145575D01*
X81857Y145849D01*
X71692D01*
X64955Y152587D01*
X65441Y153760D01*
X77920D01*
Y165384D01*
X78154Y165567D01*
X79866Y165292D01*
X80080Y164970D01*
X106901Y138150D01*
X106603Y135890D01*
X106909Y133569D01*
X107805Y131407D01*
X109230Y129550D01*
X111087Y128125D01*
X113249Y127229D01*
X115570Y126923D01*
X117891Y127229D01*
X120053Y128125D01*
X121910Y129550D01*
X123335Y131407D01*
X124231Y133569D01*
X124537Y135890D01*
X124231Y138211D01*
X123335Y140373D01*
X121910Y142230D01*
X120053Y143655D01*
X117891Y144551D01*
X115570Y144857D01*
X113310Y144559D01*
X87817Y170052D01*
Y182092D01*
X89087Y182618D01*
X123525Y148161D01*
X123526Y148161D01*
X123526Y148161D01*
X123933Y147889D01*
X124366Y147600D01*
X124366Y147600D01*
X124366Y147599D01*
X124845Y147504D01*
X125357Y147402D01*
X125357Y147402D01*
X125357Y147402D01*
X254645Y147403D01*
X254645Y147403D01*
X254646Y147403D01*
X255130Y147499D01*
X255636Y147600D01*
X255636Y147600D01*
X255637Y147600D01*
X256048Y147875D01*
X256476Y148161D01*
X256476Y148161D01*
X256476Y148162D01*
X291832Y183536D01*
X292104Y183944D01*
X292393Y184376D01*
X292393Y184376D01*
X292393Y184377D01*
X292490Y184866D01*
X292590Y185367D01*
X292590Y240306D01*
X293764Y240792D01*
X307541Y227015D01*
D02*
G37*
G36*
X401095Y148156D02*
X402724Y146034D01*
X404846Y144405D01*
X407318Y143382D01*
X409970Y143032D01*
X412622Y143382D01*
X415094Y144405D01*
X417216Y146034D01*
X418845Y148156D01*
X419283Y149213D01*
X420657D01*
X421095Y148156D01*
X422724Y146034D01*
X424846Y144405D01*
X427318Y143382D01*
X428252Y143258D01*
X428660Y142056D01*
X405044Y118439D01*
X403774Y118965D01*
Y119380D01*
X397910D01*
Y112810D01*
X398351Y111746D01*
X377074Y90469D01*
X345605D01*
X345480Y91739D01*
X346995Y92041D01*
X348538Y93072D01*
X349569Y94615D01*
X349681Y95175D01*
X362050D01*
X363537Y95471D01*
X364797Y96313D01*
X381500Y113016D01*
X385390D01*
X387259Y113388D01*
X388843Y114447D01*
X389255Y115063D01*
X390525D01*
X390937Y114447D01*
X392521Y113388D01*
X394390Y113016D01*
X395370D01*
Y120650D01*
Y128284D01*
X394390D01*
X392521Y127912D01*
X390937Y126853D01*
X390525Y126237D01*
X389255D01*
X388843Y126853D01*
X387672Y127636D01*
Y141480D01*
X389311Y143119D01*
X389970Y143032D01*
X392622Y143382D01*
X395094Y144405D01*
X397216Y146034D01*
X398845Y148156D01*
X399283Y149213D01*
X400657D01*
X401095Y148156D01*
D02*
G37*
G36*
X567845Y139183D02*
X565847Y137848D01*
X564512Y135850D01*
X564044Y133493D01*
X564218Y132614D01*
X539184Y107579D01*
X510966D01*
X510799Y108415D01*
X509768Y109958D01*
X508562Y110764D01*
X508496Y110996D01*
Y111944D01*
X508562Y112176D01*
X509768Y112982D01*
X510799Y114525D01*
X510966Y115361D01*
X538070D01*
X539451Y115635D01*
X540622Y116418D01*
X564271Y140066D01*
X565150Y139892D01*
X567491Y140357D01*
X567845Y139183D01*
D02*
G37*
G36*
X543300Y152739D02*
X542951Y152217D01*
X542482Y149860D01*
X542657Y148981D01*
X531255Y137579D01*
X510966D01*
X510799Y138415D01*
X509768Y139958D01*
X508225Y140989D01*
X506405Y141351D01*
X502155D01*
X500335Y140989D01*
X498792Y139958D01*
X498415Y139395D01*
X497145D01*
X496768Y139958D01*
X495225Y140989D01*
X493405Y141351D01*
X489155D01*
X487335Y140989D01*
X485792Y139958D01*
X484761Y138415D01*
X484594Y137579D01*
X444564D01*
X444078Y138753D01*
X451386Y146061D01*
X533330D01*
X534711Y146335D01*
X535882Y147118D01*
X542313Y153549D01*
X543300Y152739D01*
D02*
G37*
G36*
X364433Y161838D02*
X362724Y160526D01*
X361095Y158404D01*
X360071Y155932D01*
X359722Y153280D01*
X360071Y150628D01*
X361095Y148156D01*
X362724Y146034D01*
X364846Y144405D01*
X366361Y143778D01*
Y135465D01*
X358277Y127381D01*
X354375D01*
X352555Y127019D01*
X351012Y125988D01*
X350635Y125424D01*
X349365D01*
X348988Y125988D01*
X347445Y127019D01*
X345625Y127381D01*
X341723D01*
X341429Y127675D01*
Y145007D01*
X342175Y145505D01*
X343509Y147503D01*
X343978Y149860D01*
X343509Y152217D01*
X342175Y154215D01*
X340177Y155549D01*
X339630Y155658D01*
X339144Y156832D01*
X339700Y157663D01*
X340168Y160020D01*
X339807Y161838D01*
X340622Y163108D01*
X364002D01*
X364433Y161838D01*
D02*
G37*
G36*
X328213Y161838D02*
X327852Y160020D01*
X327962Y159466D01*
X314903Y146407D01*
X314061Y145147D01*
X313765Y143660D01*
Y127031D01*
X313705Y127019D01*
X312162Y125988D01*
X311785Y125424D01*
X310515D01*
X310138Y125988D01*
X308595Y127019D01*
X306775Y127381D01*
X302525D01*
X300705Y127019D01*
X299162Y125988D01*
X298131Y124445D01*
X297769Y122625D01*
Y117723D01*
X279926Y99881D01*
X278630Y100138D01*
X276273Y99670D01*
X274275Y98335D01*
X272941Y96337D01*
X272472Y93980D01*
X272917Y91739D01*
X272868Y91412D01*
X272365Y90469D01*
X246104D01*
X245801Y91316D01*
X245740Y91739D01*
X247566Y93964D01*
X248962Y96577D01*
X249822Y99412D01*
X250113Y102360D01*
Y107360D01*
X249822Y110308D01*
X248962Y113143D01*
X247566Y115756D01*
X245686Y118046D01*
X244454Y119058D01*
X244908Y120328D01*
X276887D01*
X278621Y120673D01*
X280091Y121655D01*
X321544Y163108D01*
X327398D01*
X328213Y161838D01*
D02*
G37*
G36*
X484761Y129525D02*
X485792Y127982D01*
X486998Y127176D01*
X487064Y126944D01*
Y125996D01*
X486998Y125764D01*
X485792Y124958D01*
X484761Y123415D01*
X484594Y122579D01*
X438250D01*
X437764Y123753D01*
X444372Y130361D01*
X484594D01*
X484761Y129525D01*
D02*
G37*
G36*
X709128Y149742D02*
X709321Y148773D01*
X710655Y146775D01*
X711401Y146277D01*
Y143183D01*
X678168Y109950D01*
X677385Y108779D01*
X677111Y107398D01*
Y102999D01*
X676413Y102710D01*
X675347Y101892D01*
X674077Y102518D01*
Y116488D01*
X677502Y119913D01*
X679450Y119656D01*
X681679Y119950D01*
X683757Y120810D01*
X685541Y122179D01*
X686910Y123963D01*
X687770Y126041D01*
X688064Y128270D01*
X687807Y130218D01*
X707750Y150160D01*
X709128Y149742D01*
D02*
G37*
G36*
X573891Y117025D02*
Y100680D01*
X574165Y99299D01*
X574948Y98128D01*
X615619Y57456D01*
X616790Y56674D01*
X617460Y56541D01*
Y47460D01*
X634914D01*
X635400Y46287D01*
X632695Y43582D01*
X631713Y42112D01*
X631368Y40377D01*
Y35887D01*
X630819Y35437D01*
X583333D01*
X583332Y35437D01*
X581598Y35092D01*
X580128Y34110D01*
X580128Y34110D01*
X578076Y32058D01*
X576024Y34110D01*
X574554Y35092D01*
X572820Y35437D01*
X525333D01*
X525332Y35437D01*
X523598Y35092D01*
X522128Y34110D01*
X522128Y34110D01*
X520076Y32058D01*
X518024Y34110D01*
X516554Y35092D01*
X514819Y35437D01*
X467333D01*
X467332Y35437D01*
X465598Y35092D01*
X464128Y34110D01*
X464128Y34110D01*
X462076Y32058D01*
X460024Y34110D01*
X458554Y35092D01*
X456819Y35437D01*
X409333D01*
X409333Y35437D01*
X407598Y35092D01*
X406128Y34110D01*
X406128Y34110D01*
X404076Y32058D01*
X402024Y34110D01*
X400554Y35092D01*
X398819Y35437D01*
X351333D01*
X351333Y35437D01*
X349598Y35092D01*
X348128Y34110D01*
X348128Y34110D01*
X346076Y32058D01*
X344024Y34110D01*
X342554Y35092D01*
X340820Y35437D01*
X293333D01*
X293333Y35437D01*
X291598Y35092D01*
X290128Y34110D01*
X290128Y34110D01*
X288076Y32058D01*
X286024Y34110D01*
X284554Y35092D01*
X282819Y35437D01*
X237883D01*
X237397Y36610D01*
X259755Y58968D01*
X285471D01*
X287203Y57811D01*
X289560Y57342D01*
X291917Y57811D01*
X293915Y59145D01*
X295250Y61143D01*
X295718Y63500D01*
X295250Y65857D01*
X293915Y67855D01*
X291917Y69190D01*
X289560Y69658D01*
X287203Y69190D01*
X285471Y68032D01*
X281339D01*
X280568Y69210D01*
X280579Y69302D01*
X282485Y70575D01*
X283820Y72573D01*
X284288Y74930D01*
X283820Y77287D01*
X283256Y78131D01*
X283854Y79251D01*
X383080D01*
X384462Y79525D01*
X384740Y79711D01*
X386010Y79033D01*
Y68890D01*
X414090D01*
Y70361D01*
X484594D01*
X484761Y69525D01*
X485792Y67982D01*
X487335Y66951D01*
X489155Y66589D01*
X493405D01*
X495225Y66951D01*
X496768Y67982D01*
X497145Y68545D01*
X498415D01*
X498792Y67982D01*
X500335Y66951D01*
X502155Y66589D01*
X506405D01*
X508225Y66951D01*
X509768Y67982D01*
X510799Y69525D01*
X510966Y70361D01*
X521010D01*
X522391Y70635D01*
X523562Y71418D01*
X569351Y117206D01*
X570230Y117032D01*
X572587Y117500D01*
X572771Y117623D01*
X573891Y117025D01*
D02*
G37*
G36*
X596977Y137058D02*
X598148Y136276D01*
X599530Y136001D01*
X617378D01*
X617783Y132926D01*
X619046Y129876D01*
X621056Y127256D01*
X623676Y125246D01*
X626233Y124187D01*
Y122813D01*
X623676Y121754D01*
X621056Y119744D01*
X619046Y117124D01*
X617922Y114409D01*
X600625D01*
X591109Y123925D01*
Y141267D01*
X592283Y141753D01*
X596977Y137058D01*
D02*
G37*
G36*
X484761Y114525D02*
X485792Y112982D01*
X486998Y112176D01*
X487064Y111944D01*
Y110996D01*
X486998Y110764D01*
X485792Y109958D01*
X484761Y108415D01*
X484594Y107579D01*
X428907D01*
X428421Y108753D01*
X435029Y115361D01*
X484594D01*
X484761Y114525D01*
D02*
G37*
G36*
X331791Y150512D02*
X331662Y149860D01*
X332131Y147503D01*
X333465Y145505D01*
X334211Y145007D01*
Y126180D01*
X334485Y124799D01*
X335268Y123628D01*
X336619Y122277D01*
Y117375D01*
X336981Y115555D01*
X338012Y114012D01*
X339555Y112981D01*
X341375Y112619D01*
X345625D01*
X347445Y112981D01*
X348988Y114012D01*
X349365Y114576D01*
X350635D01*
X351012Y114012D01*
X352555Y112981D01*
X354375Y112619D01*
X358625D01*
X360445Y112981D01*
X361988Y114012D01*
X363019Y115555D01*
X363381Y117375D01*
Y122277D01*
X372522Y131418D01*
X373305Y132589D01*
X373579Y133970D01*
Y143778D01*
X375094Y144405D01*
X377216Y146034D01*
X378845Y148156D01*
X379283Y149213D01*
X380657D01*
X381095Y148156D01*
X381284Y147910D01*
X379935Y146562D01*
X378953Y145091D01*
X378608Y143357D01*
Y127636D01*
X377437Y126853D01*
X376378Y125269D01*
X376006Y123400D01*
Y118510D01*
X360441Y102945D01*
X349681D01*
X349569Y103505D01*
X348538Y105048D01*
X346995Y106079D01*
X345175Y106441D01*
X340925D01*
X339105Y106079D01*
X337562Y105048D01*
X337185Y104485D01*
X335915D01*
X335538Y105048D01*
X333995Y106079D01*
X332175Y106441D01*
X328162D01*
X322320Y112284D01*
X322444Y113548D01*
X323138Y114012D01*
X324169Y115555D01*
X324531Y117375D01*
Y122625D01*
X324169Y124445D01*
X323138Y125988D01*
X321595Y127019D01*
X321535Y127031D01*
Y142051D01*
X330621Y151137D01*
X331791Y150512D01*
D02*
G37*
G36*
X484761Y99525D02*
X485792Y97982D01*
X486998Y97176D01*
X487064Y96944D01*
Y95996D01*
X486998Y95764D01*
X485792Y94958D01*
X484761Y93415D01*
X484594Y92579D01*
X419564D01*
X419078Y93753D01*
X425686Y100361D01*
X484594D01*
X484761Y99525D01*
D02*
G37*
G36*
X312162Y114012D02*
X313705Y112981D01*
X313765Y112969D01*
Y111460D01*
X314061Y109973D01*
X314903Y108713D01*
X323169Y100448D01*
Y96435D01*
X323531Y94615D01*
X324562Y93072D01*
X326105Y92041D01*
X327620Y91739D01*
X327495Y90469D01*
X284896D01*
X284391Y91412D01*
X284343Y91739D01*
X284788Y93980D01*
X284697Y94442D01*
X302873Y112619D01*
X306775D01*
X308595Y112981D01*
X310138Y114012D01*
X310515Y114576D01*
X311785D01*
X312162Y114012D01*
D02*
G37*
G36*
X599130Y107191D02*
X617922D01*
X619046Y104476D01*
X621056Y101856D01*
X623676Y99846D01*
X626233Y98787D01*
Y97413D01*
X623676Y96354D01*
X621056Y94344D01*
X619046Y91724D01*
X617922Y89009D01*
X614595D01*
X597233Y106372D01*
X597419Y106766D01*
X597981Y107419D01*
X599130Y107191D01*
D02*
G37*
G36*
X540819Y99938D02*
X541082Y99146D01*
X519515Y77579D01*
X510966D01*
X510799Y78415D01*
X509768Y79958D01*
X508562Y80764D01*
X508496Y80996D01*
Y81944D01*
X508562Y82176D01*
X509768Y82982D01*
X510799Y84525D01*
X511161Y86345D01*
Y87700D01*
X504280D01*
Y90240D01*
X511161D01*
Y91595D01*
X510799Y93415D01*
X509768Y94958D01*
X508562Y95764D01*
X508496Y95996D01*
Y96944D01*
X508562Y97176D01*
X509768Y97982D01*
X510799Y99525D01*
X510966Y100361D01*
X540500D01*
X540819Y99938D01*
D02*
G37*
G36*
X484761Y84525D02*
X485792Y82982D01*
X486998Y82176D01*
X487064Y81944D01*
Y80996D01*
X486998Y80764D01*
X485792Y79958D01*
X484761Y78415D01*
X484594Y77579D01*
X414090D01*
Y80970D01*
X413611D01*
X413125Y82143D01*
X416342Y85361D01*
X484594D01*
X484761Y84525D01*
D02*
G37*
G36*
X610548Y82848D02*
X611719Y82065D01*
X613100Y81791D01*
X617922D01*
X619046Y79076D01*
X621056Y76456D01*
X623676Y74446D01*
X625212Y73810D01*
X624959Y72540D01*
X617460D01*
Y67484D01*
X616287Y66998D01*
X581109Y102175D01*
Y110627D01*
X582283Y111113D01*
X610548Y82848D01*
D02*
G37*
%LPC*%
G36*
X216858Y408230D02*
X211588D01*
Y400460D01*
X216858D01*
Y408230D01*
D02*
G37*
G36*
X291270Y362525D02*
Y336270D01*
X317525D01*
X317285Y339322D01*
X316273Y343537D01*
X314614Y347542D01*
X312349Y351238D01*
X309534Y354534D01*
X306238Y357349D01*
X302542Y359614D01*
X298537Y361273D01*
X294321Y362285D01*
X291270Y362525D01*
D02*
G37*
G36*
X288730D02*
X285679Y362285D01*
X281463Y361273D01*
X277458Y359614D01*
X273762Y357349D01*
X270466Y354534D01*
X267651Y351238D01*
X265386Y347542D01*
X263727Y343537D01*
X262715Y339322D01*
X262475Y336270D01*
X288730D01*
Y362525D01*
D02*
G37*
G36*
X166270Y326171D02*
Y314960D01*
X177481D01*
X177217Y316964D01*
X175954Y320014D01*
X173944Y322634D01*
X171324Y324644D01*
X168274Y325907D01*
X166270Y326171D01*
D02*
G37*
G36*
X163730D02*
X161726Y325907D01*
X158676Y324644D01*
X156056Y322634D01*
X154046Y320014D01*
X152783Y316964D01*
X152519Y314960D01*
X163730D01*
Y326171D01*
D02*
G37*
G36*
X317525Y333730D02*
X291270D01*
Y307475D01*
X294321Y307715D01*
X298537Y308727D01*
X302542Y310386D01*
X306238Y312651D01*
X309534Y315466D01*
X312349Y318762D01*
X314614Y322458D01*
X316273Y326463D01*
X317285Y330678D01*
X317525Y333730D01*
D02*
G37*
G36*
X288730D02*
X262475D01*
X262715Y330678D01*
X263727Y326463D01*
X265386Y322458D01*
X267651Y318762D01*
X270466Y315466D01*
X273762Y312651D01*
X277458Y310386D01*
X281463Y308727D01*
X285679Y307715D01*
X288730Y307475D01*
Y333730D01*
D02*
G37*
G36*
X177481Y312420D02*
X166270D01*
Y301209D01*
X168274Y301473D01*
X171324Y302736D01*
X173944Y304746D01*
X175954Y307366D01*
X177217Y310416D01*
X177481Y312420D01*
D02*
G37*
G36*
X163730D02*
X152519D01*
X152783Y310416D01*
X154046Y307366D01*
X156056Y304746D01*
X158676Y302736D01*
X161726Y301473D01*
X163730Y301209D01*
Y312420D01*
D02*
G37*
G36*
X472040Y285750D02*
X466176D01*
Y284270D01*
X466548Y282401D01*
X467607Y280817D01*
X469191Y279758D01*
X471060Y279386D01*
X472040D01*
Y285750D01*
D02*
G37*
G36*
X544830Y283124D02*
X543350D01*
X541481Y282752D01*
X539897Y281693D01*
X538838Y280109D01*
X538466Y278240D01*
Y277260D01*
X544830D01*
Y283124D01*
D02*
G37*
G36*
X472290Y275351D02*
X471435D01*
X469615Y274989D01*
X468072Y273958D01*
X467041Y272415D01*
X466679Y270595D01*
Y269240D01*
X472290D01*
Y275351D01*
D02*
G37*
G36*
Y266700D02*
X466679D01*
Y265345D01*
X467041Y263525D01*
X468072Y261982D01*
X469615Y260951D01*
X471435Y260589D01*
X472290D01*
Y266700D01*
D02*
G37*
G36*
X536150Y228514D02*
X534670D01*
Y222650D01*
X541034D01*
Y223630D01*
X540662Y225499D01*
X539603Y227083D01*
X538019Y228142D01*
X536150Y228514D01*
D02*
G37*
G36*
X463150Y172734D02*
X462170D01*
X460301Y172362D01*
X458717Y171303D01*
X457658Y169719D01*
X457286Y167850D01*
Y166370D01*
X463150D01*
Y172734D01*
D02*
G37*
G36*
X524540Y202540D02*
X518270D01*
Y191270D01*
X524540D01*
Y202540D01*
D02*
G37*
G36*
X515730Y188730D02*
X509460D01*
Y177460D01*
X515730D01*
Y188730D01*
D02*
G37*
G36*
X688884Y175260D02*
X683020D01*
Y168896D01*
X684000D01*
X685869Y169268D01*
X687453Y170327D01*
X688512Y171911D01*
X688884Y173780D01*
Y175260D01*
D02*
G37*
G36*
X683625Y162321D02*
X682770D01*
Y156210D01*
X688381D01*
Y157565D01*
X688019Y159385D01*
X686988Y160928D01*
X685445Y161959D01*
X683625Y162321D01*
D02*
G37*
G36*
X688381Y153670D02*
X682770D01*
Y147559D01*
X683625D01*
X685445Y147921D01*
X686988Y148952D01*
X688019Y150495D01*
X688381Y152315D01*
Y153670D01*
D02*
G37*
G36*
X398890Y128284D02*
X397910D01*
Y121920D01*
X403774D01*
Y123400D01*
X403402Y125269D01*
X402343Y126853D01*
X400759Y127912D01*
X398890Y128284D01*
D02*
G37*
G36*
X561270Y92525D02*
Y66270D01*
X587525D01*
X587285Y69321D01*
X586273Y73537D01*
X584614Y77542D01*
X582349Y81238D01*
X579534Y84534D01*
X576238Y87349D01*
X572542Y89614D01*
X568537Y91273D01*
X564322Y92285D01*
X561270Y92525D01*
D02*
G37*
G36*
X558730D02*
X555678Y92285D01*
X551463Y91273D01*
X547458Y89614D01*
X543762Y87349D01*
X540466Y84534D01*
X537651Y81238D01*
X535386Y77542D01*
X533727Y73537D01*
X532715Y69321D01*
X532475Y66270D01*
X558730D01*
Y92525D01*
D02*
G37*
G36*
X421990Y55970D02*
X413910D01*
Y40890D01*
X421990D01*
Y55970D01*
D02*
G37*
G36*
X386190D02*
X378110D01*
Y40890D01*
X386190D01*
Y55970D01*
D02*
G37*
G36*
X587525Y63730D02*
X561270D01*
Y37475D01*
X564322Y37715D01*
X568537Y38727D01*
X572542Y40386D01*
X576238Y42651D01*
X579534Y45466D01*
X582349Y48762D01*
X584614Y52458D01*
X586273Y56463D01*
X587285Y60679D01*
X587525Y63730D01*
D02*
G37*
G36*
X558730D02*
X532475D01*
X532715Y60679D01*
X533727Y56463D01*
X535386Y52458D01*
X537651Y48762D01*
X540466Y45466D01*
X543762Y42651D01*
X547458Y40386D01*
X551463Y38727D01*
X555678Y37715D01*
X558730Y37475D01*
Y63730D01*
D02*
G37*
%LPD*%
D10*
X68541Y138240D02*
X80200D01*
X135580Y82860D02*
X383080D01*
X80200Y138240D02*
X135580Y82860D01*
X70197Y142240D02*
X81857D01*
X137237Y86860D02*
X378569D01*
X81857Y142240D02*
X137237Y86860D01*
X57380Y155057D02*
X70197Y142240D01*
X53380Y153400D02*
X68541Y138240D01*
X32830Y183070D02*
X41027D01*
X378569Y86860D02*
X445379Y153670D01*
X529590D02*
X552450Y176530D01*
X39370Y179070D02*
X53380Y165060D01*
X41027Y183070D02*
X57380Y166717D01*
X53380Y153400D02*
Y165060D01*
X31173Y179070D02*
X39370D01*
X57380Y155057D02*
Y166717D01*
X445379Y153670D02*
X529590D01*
X275590Y300990D02*
X316230D01*
X322580Y307340D01*
X250190Y326390D02*
X275590Y300990D01*
X234320Y360680D02*
X250190D01*
X198000Y397000D02*
X234320Y360680D01*
X521010Y73970D02*
X570230Y123190D01*
X504280Y73970D02*
X521010D01*
X504280Y103970D02*
X540679D01*
X570202Y133493D01*
X504280Y118970D02*
X538070D01*
X565150Y146050D01*
X504280Y133970D02*
X532750D01*
X548640Y149860D01*
X424190Y103970D02*
X491280D01*
X400550Y80330D02*
X424190Y103970D01*
X442877Y133970D02*
X491280D01*
X390337Y81430D02*
X442877Y133970D01*
X390337Y75217D02*
Y81430D01*
X390050Y74930D02*
X390337Y75217D01*
X395550Y75430D02*
Y80986D01*
X433534Y118970D02*
X491280D01*
X395550Y80986D02*
X433534Y118970D01*
X383080Y82860D02*
X449891Y149670D01*
X395050Y74930D02*
X395550Y75430D01*
X449891Y149670D02*
X533330D01*
X400550Y75430D02*
Y80330D01*
X400050Y74930D02*
X400550Y75430D01*
X414847Y88970D02*
X491280D01*
X410050Y74470D02*
X410550Y73970D01*
X405550Y79673D02*
X414847Y88970D01*
X410550Y73970D02*
X491280D01*
X410050Y74470D02*
Y74930D01*
X405050D02*
X405550Y75430D01*
Y79673D01*
X702310Y165735D02*
X709000Y172425D01*
Y246298D01*
X696272Y251570D02*
X703728D01*
X709000Y246298D01*
X681055Y236353D02*
X696272Y251570D01*
X681055Y232717D02*
Y236353D01*
X665838Y217500D02*
X681055Y232717D01*
X642000Y217500D02*
X665838D01*
X715010Y141688D02*
Y151130D01*
X680720Y107398D02*
X715010Y141688D01*
X680720Y95250D02*
Y107398D01*
X572453Y242500D02*
X601980D01*
X613181Y203127D02*
Y231299D01*
X601980Y242500D02*
X613181Y231299D01*
X601980Y242500D02*
X642000D01*
X613181Y203127D02*
X627500Y188808D01*
Y173000D02*
Y188808D01*
X627380Y198120D02*
X627776Y198516D01*
X608330Y190500D02*
Y207978D01*
X594360Y221948D02*
X608330Y207978D01*
X627530Y197970D02*
X627776Y197724D01*
Y205140D02*
X634945Y212309D01*
X627776Y198516D02*
Y205140D01*
X557809Y212309D02*
X558000Y212500D01*
X545049Y212309D02*
X557809D01*
X544830Y212090D02*
X545049Y212309D01*
X520850Y164790D02*
X528320Y172260D01*
X572383Y242570D02*
Y256883D01*
Y210019D02*
Y242570D01*
X572453Y242500D01*
X568420Y192500D02*
X587642Y211722D01*
X576383Y208362D02*
Y210843D01*
X594360Y221948D02*
Y229870D01*
X576383Y210843D02*
X587860Y222320D01*
X587642Y211722D02*
Y212783D01*
X599590Y271628D02*
Y291950D01*
X603590Y269971D02*
Y296840D01*
X572921Y327509D02*
X603590Y296840D01*
X554990Y336550D02*
X599590Y291950D01*
X592691Y273921D02*
X593090Y274320D01*
X592691Y257191D02*
Y273921D01*
X592500Y257000D02*
X592691Y257191D01*
X602500Y268881D02*
X603590Y269971D01*
X597500Y257000D02*
Y269538D01*
X593090Y274320D02*
Y289685D01*
X597500Y269538D02*
X599590Y271628D01*
X578965Y303810D02*
X593090Y289685D01*
X602500Y257000D02*
Y268881D01*
X634945Y212309D02*
X641809D01*
X642000Y212500D01*
X619681Y213914D02*
X620314D01*
X626260Y209847D02*
Y213624D01*
X585594Y190322D02*
X595129Y199857D01*
Y201538D01*
X621030Y204470D02*
Y204617D01*
X620314Y213914D02*
X633709Y227309D01*
X595129Y201538D02*
X599478Y205887D01*
X621030Y204617D02*
X626260Y209847D01*
X599478Y205887D02*
Y206382D01*
X633709Y227309D02*
X641809D01*
X626260Y213624D02*
X634945Y222309D01*
X572383Y256883D02*
X572500Y257000D01*
X558191Y202691D02*
X565055D01*
X558000Y202500D02*
X558191Y202691D01*
Y197691D02*
X565712D01*
X576383Y208362D01*
X565055Y202691D02*
X572383Y210019D01*
X513360Y303810D02*
X578965D01*
X486810Y287020D02*
X496570D01*
X513360Y303810D01*
X417830Y328930D02*
X551180D01*
X572921Y327509D02*
Y327811D01*
X500380Y336550D02*
X554990D01*
X375410Y286511D02*
X417830Y328930D01*
X374000Y276720D02*
X375410Y278130D01*
Y286511D01*
X413830Y336550D02*
X500380D01*
X354000Y276720D02*
X413830Y336550D01*
X730250Y209550D02*
X741320D01*
X607500Y157863D02*
X610660Y154703D01*
X616379Y154495D02*
X616587Y154703D01*
X610994Y154495D02*
X616379D01*
X607187Y158303D02*
X607500Y157990D01*
X607187Y158303D02*
Y163688D01*
X610787Y154703D02*
X610994Y154495D01*
X616587Y154703D02*
X637879D01*
X638116Y154940D01*
X668500D01*
X610660Y154703D02*
X610787D01*
X607500Y157863D02*
Y157990D01*
X645950Y20500D02*
Y30000D01*
X679450Y63500D02*
Y93980D01*
X645950Y30000D02*
X679450Y63500D01*
X632050Y411500D02*
X634050Y409500D01*
X632050Y411500D02*
Y416321D01*
X629371Y419000D02*
X632050Y416321D01*
X618885Y419000D02*
X629371D01*
X609385Y409500D02*
X618885Y419000D01*
X597298Y409500D02*
X609385D01*
X551385D02*
X560885Y419000D01*
X571371D01*
X574050Y411500D02*
X576050Y409500D01*
X539298D02*
X551385D01*
X571371Y419000D02*
X574050Y416321D01*
Y411500D02*
Y416321D01*
X516050Y411500D02*
X518050Y409500D01*
X516050Y411500D02*
Y416321D01*
X513371Y419000D02*
X516050Y416321D01*
X502885Y419000D02*
X513371D01*
X493385Y409500D02*
X502885Y419000D01*
X481298Y409500D02*
X493385D01*
X458050Y411500D02*
X460050Y409500D01*
X444885Y419000D02*
X455371D01*
X458050Y416321D01*
X435385Y409500D02*
X444885Y419000D01*
X458050Y411500D02*
Y416321D01*
X423298Y409500D02*
X435385D01*
X386885Y419000D02*
X397371D01*
X400050Y416321D01*
Y411500D02*
Y416321D01*
Y411500D02*
X402050Y409500D01*
X365298D02*
X377385D01*
X386885Y419000D01*
X342050Y411500D02*
Y416321D01*
X339371Y419000D02*
X342050Y416321D01*
X328885Y419000D02*
X339371D01*
X319385Y409500D02*
X328885Y419000D01*
X342050Y411500D02*
X344050Y409500D01*
X307298D02*
X319385D01*
X284050Y411500D02*
Y416321D01*
X249298Y409500D02*
X261385D01*
X270885Y419000D01*
X281371D01*
X284050Y416321D01*
Y411500D02*
X286050Y409500D01*
X528320Y173990D02*
X535940Y181610D01*
X528320Y172720D02*
Y173990D01*
X520850Y163830D02*
X523405Y166385D01*
X535940Y181610D02*
Y204070D01*
X520850Y163830D02*
Y164790D01*
X528320Y172260D02*
Y172720D01*
X337820Y126180D02*
X343500Y120500D01*
X337820Y126180D02*
Y149860D01*
X486685Y268095D02*
Y286895D01*
X486560Y267970D02*
X486685Y268095D01*
Y286895D02*
X486810Y287020D01*
X473000Y245000D02*
X486560Y258560D01*
X473000Y240000D02*
Y245000D01*
X486560Y258560D02*
Y267970D01*
X517000Y222510D02*
X535440Y204070D01*
X535940D01*
X517000Y222510D02*
Y240000D01*
X533330Y149670D02*
X550343Y166683D01*
X266700Y140970D02*
X290830Y165100D01*
X255270Y74930D02*
X278130D01*
X213340Y33000D02*
X255270Y74930D01*
X198000Y33000D02*
X213340D01*
X278630Y93980D02*
X279130D01*
X278130D02*
X278630D01*
X279130D02*
X304650Y119500D01*
Y120000D01*
X356500Y120500D02*
X369970Y133970D01*
Y153280D01*
X356500Y120000D02*
Y120500D01*
X343500Y120000D02*
Y120500D01*
X228000Y311660D02*
X311150Y228510D01*
X215000Y313690D02*
X217031Y311660D01*
X228000D01*
X311150Y172720D02*
Y228510D01*
X589950Y13679D02*
X592629Y11000D01*
X603115D01*
X587950Y20500D02*
X589950Y18500D01*
Y13679D02*
Y18500D01*
X603115Y11000D02*
X612615Y20500D01*
X624702D01*
X545115Y11000D02*
X554615Y20500D01*
X566702D01*
X529950D02*
X531950Y18500D01*
Y13679D02*
Y18500D01*
Y13679D02*
X534629Y11000D01*
X545115D01*
X473950Y13679D02*
Y18500D01*
Y13679D02*
X476629Y11000D01*
X487115D02*
X496615Y20500D01*
X508702D01*
X471950D02*
X473950Y18500D01*
X476629Y11000D02*
X487115D01*
X418629D02*
X429115D01*
X438615Y20500D01*
X450702D01*
X413950D02*
X415950Y18500D01*
Y13679D02*
Y18500D01*
Y13679D02*
X418629Y11000D01*
X357950Y13679D02*
X360629Y11000D01*
X371115D02*
X380615Y20500D01*
X355950D02*
X357950Y18500D01*
Y13679D02*
Y18500D01*
X360629Y11000D02*
X371115D01*
X380615Y20500D02*
X392702D01*
X299950Y13679D02*
Y18500D01*
Y13679D02*
X302629Y11000D01*
X297950Y20500D02*
X299950Y18500D01*
X302629Y11000D02*
X313115D01*
X322615Y20500D01*
X334702D01*
X241950Y13679D02*
X244629Y11000D01*
X255115D01*
X264615Y20500D02*
X276702D01*
X239950D02*
X241950Y18500D01*
Y13679D02*
Y18500D01*
X255115Y11000D02*
X264615Y20500D01*
X298300Y158600D02*
X298450D01*
X276670Y136970D02*
X298300Y158600D01*
X190000Y127770D02*
X199200Y136970D01*
X190000Y124860D02*
Y127770D01*
X199200Y136970D02*
X276670D01*
X165000Y124860D02*
X181110Y140970D01*
X266700D01*
X550343Y166683D02*
X555303D01*
X556260Y167640D01*
X634945Y222309D02*
X641809D01*
X642000Y222500D01*
X641809Y227309D02*
X642000Y227500D01*
X597691Y186211D02*
X598170Y186690D01*
X597691Y173191D02*
Y186211D01*
X573580Y187500D02*
X588629Y202549D01*
X558000Y192500D02*
X568420D01*
X558000Y187500D02*
X573580D01*
X572500Y173000D02*
X572691Y173191D01*
Y180055D01*
X582958Y190322D02*
X585594D01*
X572691Y180055D02*
X582958Y190322D01*
X13480Y196763D02*
X31173Y179070D01*
X19980Y195920D02*
X32830Y183070D01*
X13480Y196763D02*
Y209686D01*
X19980Y195920D02*
Y218440D01*
X577500Y100680D02*
Y173000D01*
X582500Y116000D02*
Y173000D01*
X577500Y100680D02*
X618172Y60008D01*
X587500Y122430D02*
X599130Y110800D01*
X582500Y116000D02*
X613100Y85400D01*
X587500Y122430D02*
Y173000D01*
X41103Y207514D02*
Y213823D01*
X46990Y219710D01*
Y287020D01*
X51118Y197500D02*
X73630D01*
X41103Y207514D02*
X51118Y197500D01*
X47140Y306070D02*
X55880Y297330D01*
Y241708D02*
X64880Y232708D01*
X55880Y241708D02*
Y297330D01*
X643080Y257000D02*
X655320Y269240D01*
X627500Y257000D02*
X643080D01*
X634133Y279549D02*
X665816Y311231D01*
X674451D01*
X640341Y270771D02*
X648970Y279400D01*
X629407Y270771D02*
X640341D01*
X648970Y279400D02*
X675640D01*
X622691Y264055D02*
X629407Y270771D01*
X622691Y257191D02*
Y264055D01*
X628528Y275549D02*
X637499D01*
X622500Y257000D02*
X622691Y257191D01*
X617691Y264712D02*
X628528Y275549D01*
X612691Y265369D02*
X626871Y279549D01*
X617691Y257191D02*
Y264712D01*
X612691Y257191D02*
Y265369D01*
X626871Y279549D02*
X634133D01*
X657860Y295910D02*
X675640D01*
X637499Y275549D02*
X657860Y295910D01*
X617500Y257000D02*
X617691Y257191D01*
X674451Y311231D02*
X675640Y312420D01*
X612500Y257000D02*
X612691Y257191D01*
X665404Y232500D02*
X669124Y236220D01*
X671830D01*
X642000Y232500D02*
X665404D01*
X545252Y204070D02*
X546822Y202500D01*
X558000D01*
X535940Y204070D02*
X545252D01*
X546100Y248900D02*
Y262490D01*
Y248900D02*
X552500Y242500D01*
X558000D01*
X574040Y271858D02*
Y282810D01*
X572500Y270318D02*
X574040Y271858D01*
X572500Y257000D02*
Y270318D01*
X668250Y258580D02*
Y259080D01*
X642000Y242500D02*
X652170D01*
X668250Y258580D01*
X627500Y173000D02*
X646253D01*
X649783Y176530D02*
X668250D01*
X646253Y173000D02*
X649783Y176530D01*
X607500Y164001D02*
Y173000D01*
X607187Y163688D02*
X607500Y164001D01*
X612691Y163344D02*
Y172809D01*
X613687Y160995D02*
Y162348D01*
X612691Y163344D02*
X613687Y162348D01*
X602309Y155188D02*
Y172809D01*
X601687Y154566D02*
X602309Y155188D01*
X741320Y209550D02*
X742860Y211090D01*
Y211900D01*
X656471Y209586D02*
X657824D01*
X654385Y207500D02*
X656471Y209586D01*
X642000Y207500D02*
X654385D01*
X659930Y202500D02*
X700000Y242570D01*
X642000Y202500D02*
X659930D01*
X671440Y197500D02*
X700000Y226060D01*
X642000Y197500D02*
X671440D01*
X682950Y192500D02*
X700000Y209550D01*
X642000Y192500D02*
X682950D01*
X698122Y193040D02*
X699770D01*
X642000Y187500D02*
X692582D01*
X698122Y193040D01*
X597500Y173000D02*
X597691Y173191D01*
X612500Y173000D02*
X612691Y172809D01*
X602309D02*
X602500Y173000D01*
X592691Y146449D02*
Y172809D01*
Y146449D02*
X599530Y139610D01*
X592500Y173000D02*
X592691Y172809D01*
X558000Y197500D02*
X558191Y197691D01*
X629992Y60008D02*
X630000Y60000D01*
X618172Y60008D02*
X629992D01*
X599530Y139610D02*
X626590D01*
X599130Y110800D02*
X630000D01*
X613100Y85400D02*
X630000D01*
X626590Y139610D02*
X630000Y136200D01*
X64880Y229757D02*
Y232708D01*
X66637Y228000D02*
X73130D01*
X73630Y227500D01*
X64880Y229757D02*
X66637Y228000D01*
D11*
X516890Y212090D02*
X518160Y213360D01*
X499356Y194556D02*
X516890Y212090D01*
X499356Y187036D02*
Y194556D01*
X477920Y165100D02*
Y165600D01*
X499356Y187036D01*
D12*
X663842Y386885D02*
X682843Y367883D01*
X635609Y386885D02*
X663842D01*
X607860Y268202D02*
Y372484D01*
X607500Y257000D02*
Y267842D01*
X607860Y268202D01*
Y372484D02*
X622261Y386885D01*
X343050Y99060D02*
X362050D01*
X383140Y120150D01*
Y120650D01*
X317650Y111460D02*
X327098Y102012D01*
X327135D01*
X330050Y99097D01*
X317650Y111460D02*
Y120000D01*
X330050Y99060D02*
Y99097D01*
X335430Y264310D02*
Y307190D01*
X335280Y264160D02*
X335430Y264310D01*
Y307190D02*
X335580Y307340D01*
X473560Y306840D02*
Y307340D01*
X317650Y143660D02*
X334010Y160020D01*
X317650Y120000D02*
Y143660D01*
X652068Y406270D02*
X655298Y409500D01*
X652068Y403344D02*
Y406270D01*
X635609Y386885D02*
X652068Y403344D01*
X622261Y386885D02*
X635609D01*
X48217Y210820D02*
X61644D01*
X47603Y210207D02*
X48217Y210820D01*
X58955Y228749D02*
X65204Y222500D01*
X58459Y228749D02*
X58955D01*
X59690Y204050D02*
X60897D01*
X63127Y206280D01*
X63525D01*
X61644Y210820D02*
X63324Y212500D01*
X63525Y206280D02*
X64745Y207500D01*
X63324Y212500D02*
X73630D01*
X59690Y218440D02*
X60400Y217730D01*
X65204Y222500D02*
X73630D01*
X60400Y217730D02*
X73400D01*
X73630Y217500D01*
X64745Y207500D02*
X73630D01*
D22*
X763360Y211900D02*
D03*
X742860D02*
D03*
X753110Y186880D02*
D03*
D42*
X683260Y368300D02*
D03*
X336550Y350520D02*
D03*
X655320Y269240D02*
D03*
X675640Y279400D02*
D03*
Y295910D02*
D03*
Y312420D02*
D03*
X699770Y193040D02*
D03*
X700000Y209550D02*
D03*
Y226060D02*
D03*
Y242570D02*
D03*
X671830Y236220D02*
D03*
X720090Y106680D02*
D03*
X680720Y95250D02*
D03*
X679450Y128270D02*
D03*
D43*
X335580Y307340D02*
D03*
X322580D02*
D03*
X668500Y154940D02*
D03*
X681500D02*
D03*
X47140Y306070D02*
D03*
X34140D02*
D03*
X46990Y287020D02*
D03*
X33990D02*
D03*
X486560Y267970D02*
D03*
X473560D02*
D03*
X473560Y307340D02*
D03*
X486560D02*
D03*
X343050Y99060D02*
D03*
X330050D02*
D03*
X356500Y120000D02*
D03*
X343500D02*
D03*
X304650D02*
D03*
X317650D02*
D03*
X504280Y133970D02*
D03*
X491280D02*
D03*
X504280Y118970D02*
D03*
X491280D02*
D03*
X504280Y103970D02*
D03*
X491280D02*
D03*
X504280Y88970D02*
D03*
X491280D02*
D03*
X504280Y73970D02*
D03*
X491280D02*
D03*
X507850Y163830D02*
D03*
X520850D02*
D03*
D44*
X533400Y207880D02*
D03*
Y221380D02*
D03*
X64770Y331870D02*
D03*
Y318370D02*
D03*
X574040Y282810D02*
D03*
Y296310D02*
D03*
X546100Y262490D02*
D03*
Y275990D02*
D03*
D45*
X668250Y176530D02*
D03*
X681750D02*
D03*
X113430Y298450D02*
D03*
X99930D02*
D03*
X486810Y287020D02*
D03*
X473310D02*
D03*
X383140Y120650D02*
D03*
X396640D02*
D03*
X681750Y259080D02*
D03*
X668250D02*
D03*
X464420Y165100D02*
D03*
X477920D02*
D03*
D46*
X107950Y324170D02*
D03*
X122950D02*
D03*
X92950D02*
D03*
D47*
X73630Y197500D02*
D03*
Y202500D02*
D03*
Y207500D02*
D03*
Y212500D02*
D03*
Y217500D02*
D03*
Y222500D02*
D03*
Y227500D02*
D03*
Y232500D02*
D03*
D48*
Y191000D02*
D03*
Y183000D02*
D03*
Y239000D02*
D03*
Y247000D02*
D03*
D49*
X28580Y163800D02*
D03*
Y266200D02*
D03*
X67880Y163800D02*
D03*
Y266200D02*
D03*
D50*
X558000Y242500D02*
D03*
Y237500D02*
D03*
Y232500D02*
D03*
Y227500D02*
D03*
Y222500D02*
D03*
Y217500D02*
D03*
Y212500D02*
D03*
Y207500D02*
D03*
Y202500D02*
D03*
Y197500D02*
D03*
Y192500D02*
D03*
Y187500D02*
D03*
X642000D02*
D03*
Y192500D02*
D03*
Y197500D02*
D03*
Y202500D02*
D03*
Y207500D02*
D03*
Y212500D02*
D03*
Y217500D02*
D03*
Y222500D02*
D03*
Y227500D02*
D03*
Y232500D02*
D03*
Y237500D02*
D03*
Y242500D02*
D03*
D51*
X572500Y173000D02*
D03*
X577500D02*
D03*
X582500D02*
D03*
X587500D02*
D03*
X592500D02*
D03*
X597500D02*
D03*
X602500D02*
D03*
X607500D02*
D03*
X612500D02*
D03*
X617500D02*
D03*
X622500D02*
D03*
X627500D02*
D03*
Y257000D02*
D03*
X622500D02*
D03*
X617500D02*
D03*
X612500D02*
D03*
X607500D02*
D03*
X602500D02*
D03*
X597500D02*
D03*
X592500D02*
D03*
X587500D02*
D03*
X582500D02*
D03*
X577500D02*
D03*
X572500D02*
D03*
D52*
X473000Y190000D02*
D03*
X517000D02*
D03*
Y240000D02*
D03*
X473000D02*
D03*
D53*
X655872Y20500D02*
D03*
X597872D02*
D03*
X539872D02*
D03*
X481872D02*
D03*
X423872D02*
D03*
X365872D02*
D03*
X307872D02*
D03*
X249872D02*
D03*
X624128Y409500D02*
D03*
X566128D02*
D03*
X508128D02*
D03*
X450128D02*
D03*
X392128D02*
D03*
X334128D02*
D03*
X276128D02*
D03*
X218128D02*
D03*
D54*
X645950Y20500D02*
D03*
X635900D02*
D03*
X587950D02*
D03*
X577900D02*
D03*
X529950D02*
D03*
X519900D02*
D03*
X471950D02*
D03*
X461900D02*
D03*
X413950D02*
D03*
X403900D02*
D03*
X355950D02*
D03*
X345900D02*
D03*
X297950D02*
D03*
X287900D02*
D03*
X239950D02*
D03*
X229900D02*
D03*
X644100Y409500D02*
D03*
X634050D02*
D03*
X586100D02*
D03*
X576050D02*
D03*
X528100D02*
D03*
X518050D02*
D03*
X470100D02*
D03*
X460050D02*
D03*
X412100D02*
D03*
X402050D02*
D03*
X354100D02*
D03*
X344050D02*
D03*
X296100D02*
D03*
X286050D02*
D03*
X238100D02*
D03*
X228050D02*
D03*
D55*
X624702Y20500D02*
D03*
X566702D02*
D03*
X508702D02*
D03*
X450702D02*
D03*
X392702D02*
D03*
X334702D02*
D03*
X276702D02*
D03*
X218702D02*
D03*
X655298Y409500D02*
D03*
X597298D02*
D03*
X539298D02*
D03*
X481298D02*
D03*
X423298D02*
D03*
X365298D02*
D03*
X307298D02*
D03*
X249298D02*
D03*
D56*
X390050Y74930D02*
D03*
X395050D02*
D03*
X400050D02*
D03*
X405050D02*
D03*
X410050D02*
D03*
D57*
X382150Y48430D02*
D03*
X417950D02*
D03*
D58*
X83285Y168175D02*
Y194382D01*
Y168175D02*
X115570Y135890D01*
X270822Y370840D02*
X316230D01*
X252947Y352965D02*
X270822Y370840D01*
X316230D02*
X336550Y350520D01*
X337185Y351155D02*
X497205D01*
X336550Y350520D02*
X337185Y351155D01*
X497205D02*
X497840Y351790D01*
X107950Y353060D02*
X108045Y352965D01*
X252947D01*
X144780Y363445D02*
X202975Y421640D01*
X144780Y363220D02*
Y363445D01*
X202975Y421640D02*
X229870D01*
X477920Y165600D02*
Y165787D01*
X561043Y283631D02*
X573219D01*
X552450Y292100D02*
X552574D01*
X573219Y283631D02*
X574040Y282810D01*
X552574Y292100D02*
X561043Y283631D01*
X720090Y228600D02*
X760730Y269240D01*
X720090Y168910D02*
Y228600D01*
X635900Y24000D02*
Y40377D01*
Y20500D02*
Y24000D01*
X669545Y118365D02*
X720090Y168910D01*
X669545Y74022D02*
Y118365D01*
X635900Y40377D02*
X669545Y74022D01*
X383140Y143357D02*
X389970Y150187D01*
X383140Y120650D02*
Y143357D01*
X389970Y150187D02*
Y153280D01*
X640955Y402855D02*
X644100Y406000D01*
X638667Y399095D02*
X640955Y401382D01*
Y402855D01*
X591181Y399095D02*
X638667D01*
X588893Y401382D02*
X591181Y399095D01*
X588893Y401382D02*
Y403207D01*
X586100Y406000D02*
X588893Y403207D01*
X586100Y406000D02*
Y409500D01*
X644100Y406000D02*
Y409500D01*
X585005Y403433D02*
Y408405D01*
X580667Y399095D02*
X585005Y403433D01*
X533181Y399095D02*
X580667D01*
X530893Y401382D02*
X533181Y399095D01*
X528100Y406000D02*
X530893Y403207D01*
Y401382D02*
Y403207D01*
X528100Y406000D02*
Y409500D01*
X524955Y402855D02*
X528100Y406000D01*
X524955Y401382D02*
Y402855D01*
X522668Y399095D02*
X524955Y401382D01*
X475181Y399095D02*
X522668D01*
X472893Y401382D02*
X475181Y399095D01*
X472893Y401382D02*
Y403207D01*
X470100Y406000D02*
X472893Y403207D01*
X470100Y406000D02*
Y409500D01*
X466955Y402855D02*
X470100Y406000D01*
X466955Y401382D02*
Y402855D01*
X417180Y399095D02*
X464668D01*
X414893Y401382D02*
X417180Y399095D01*
X464668D02*
X466955Y401382D01*
X412100Y406000D02*
X414893Y403207D01*
X412100Y406000D02*
Y409500D01*
X414893Y401382D02*
Y403207D01*
X408955Y401382D02*
Y402855D01*
X359181Y399095D02*
X406668D01*
X408955Y402855D02*
X412100Y406000D01*
X356893Y401382D02*
X359181Y399095D01*
X356893Y401382D02*
Y403207D01*
X354100Y406000D02*
X356893Y403207D01*
X406668Y399095D02*
X408955Y401382D01*
X354100Y406000D02*
Y409500D01*
X350955Y402855D02*
X354100Y406000D01*
X350955Y401382D02*
Y402855D01*
X348667Y399095D02*
X350955Y401382D01*
X301181Y399095D02*
X348667D01*
X298893Y401382D02*
X301181Y399095D01*
X298893Y401382D02*
Y403207D01*
X296100Y406000D02*
X298893Y403207D01*
X296100Y406000D02*
Y409500D01*
X290667Y399095D02*
X292955Y401382D01*
X243181Y399095D02*
X290667D01*
X240893Y401382D02*
X243181Y399095D01*
X240893Y401382D02*
Y403207D01*
X238100Y406000D02*
X240893Y403207D01*
X292955Y402855D02*
X296100Y406000D01*
X238100D02*
Y409500D01*
X292955Y401382D02*
Y402855D01*
X229870Y421640D02*
X231605Y419905D01*
X238100Y409500D02*
Y413000D01*
X234955Y416145D02*
X238100Y413000D01*
X234955Y416145D02*
Y417617D01*
X232668Y419905D02*
X234955Y417617D01*
X231605Y419905D02*
X232668D01*
X113430Y298450D02*
Y309165D01*
Y289960D02*
Y298450D01*
X131130Y324170D02*
X144780Y337820D01*
X473000Y170707D02*
X477920Y165787D01*
X473000Y170707D02*
Y190000D01*
X478555Y164465D02*
X507215D01*
X507850Y163830D01*
X477920Y165100D02*
X478555Y164465D01*
X115570Y65430D02*
Y67640D01*
Y65430D02*
X148000Y33000D01*
X228050Y387900D02*
X236220Y379730D01*
X228050Y387900D02*
Y409500D01*
X257878Y63500D02*
X289560D01*
X222995Y26793D02*
Y28617D01*
X257878Y63500D01*
X218702Y22500D02*
X222995Y26793D01*
X218702Y20500D02*
Y22500D01*
X224819Y10095D02*
X227107Y12383D01*
Y14207D01*
X229900Y17000D01*
X148000Y33000D02*
X170905Y10095D01*
X224819D01*
X229900Y17000D02*
Y20500D01*
X581045Y27145D02*
Y28617D01*
X583332Y30905D01*
X577900Y24000D02*
X581045Y27145D01*
X633107Y26793D02*
X635900Y24000D01*
X633107Y26793D02*
Y28617D01*
X630819Y30905D02*
X633107Y28617D01*
X583332Y30905D02*
X630819D01*
X576805Y21595D02*
Y26920D01*
X523045Y28617D02*
X525332Y30905D01*
X572820D02*
X576805Y26920D01*
X523045Y27145D02*
Y28617D01*
X519900Y24000D02*
X523045Y27145D01*
X525332Y30905D02*
X572820D01*
X519900Y20500D02*
Y24000D01*
X517107Y26793D02*
X519900Y24000D01*
X514819Y30905D02*
X517107Y28617D01*
X467332Y30905D02*
X514819D01*
X465045Y28617D02*
X467332Y30905D01*
X517107Y26793D02*
Y28617D01*
X465045Y27145D02*
Y28617D01*
X461900Y24000D02*
X465045Y27145D01*
X460805Y21595D02*
Y26920D01*
X456819Y30905D02*
X460805Y26920D01*
X409333Y30905D02*
X456819D01*
X407045Y28617D02*
X409333Y30905D01*
X407045Y27145D02*
Y28617D01*
X403900Y24000D02*
X407045Y27145D01*
X403900Y20500D02*
Y24000D01*
X401107Y26793D02*
Y28617D01*
Y26793D02*
X403900Y24000D01*
X398819Y30905D02*
X401107Y28617D01*
X351333Y30905D02*
X398819D01*
X345900Y24000D02*
X349045Y27145D01*
Y28617D02*
X351333Y30905D01*
X349045Y27145D02*
Y28617D01*
X344805Y21595D02*
Y26920D01*
X340820Y30905D02*
X344805Y26920D01*
X291045Y28617D02*
X293333Y30905D01*
X340820D01*
X291045Y27145D02*
Y28617D01*
X287900Y24000D02*
X291045Y27145D01*
X287900Y20500D02*
Y24000D01*
X233045Y27145D02*
Y28617D01*
X235333Y30905D01*
X282819D01*
X285107Y28617D01*
X229900Y24000D02*
X233045Y27145D01*
X285107Y26793D02*
Y28617D01*
X229900Y20500D02*
Y24000D01*
X285107Y26793D02*
X287900Y24000D01*
X215000Y124860D02*
X276887D01*
X319667Y167640D01*
X378460D01*
X389970Y156130D01*
Y153280D02*
Y156130D01*
X760730Y243840D02*
X762725Y241845D01*
Y212535D02*
X763360Y211900D01*
X762725Y212535D02*
Y241845D01*
X122950Y324170D02*
X131130D01*
X86460Y353060D02*
X107950D01*
X74725Y237905D02*
X80997D01*
X83285Y194382D02*
Y235618D01*
X73630Y239000D02*
X74725Y237905D01*
Y240095D02*
X80997D01*
X73630Y239000D02*
X74725Y240095D01*
X64770Y331870D02*
X65270D01*
X86460Y353060D01*
X64770Y318370D02*
X65270D01*
X82958Y300682D01*
X92950D01*
X95182Y298450D02*
X99930D01*
X92950Y300682D02*
Y324170D01*
Y300682D02*
X95182Y298450D01*
X85556Y262086D02*
X113430Y289960D01*
X85556Y244653D02*
Y262086D01*
X113430Y309165D02*
X119855Y315590D01*
Y321075D01*
X122950Y324170D01*
X80997Y240095D02*
X85556Y244653D01*
X74725Y192095D02*
X80997D01*
X83285Y194382D01*
X73630Y191000D02*
X74725Y192095D01*
X80997Y237905D02*
X83285Y235618D01*
D59*
X486560Y307340D02*
X499110D01*
X401440Y264160D02*
X414000Y276720D01*
X335280Y264160D02*
X401440D01*
X443440Y276720D02*
X473560Y306840D01*
X414000Y276720D02*
X443440D01*
D60*
X290000Y335000D02*
D03*
X725000Y320000D02*
D03*
X73000Y105000D02*
D03*
X560000Y65000D02*
D03*
D61*
X760730Y269240D02*
D03*
X630000Y60000D02*
D03*
Y370000D02*
D03*
D62*
X760730Y243840D02*
D03*
X630000Y136200D02*
D03*
Y110800D02*
D03*
Y85400D02*
D03*
X148000Y33000D02*
D03*
X198000D02*
D03*
Y397000D02*
D03*
X148000D02*
D03*
X165000Y313690D02*
D03*
X215000D02*
D03*
X630000Y344600D02*
D03*
Y319200D02*
D03*
Y293800D02*
D03*
D63*
X62880Y186100D02*
D03*
Y243900D02*
D03*
X92710Y73660D02*
D03*
X99539Y141449D02*
D03*
X208280Y361950D02*
D03*
X250190Y360680D02*
D03*
X272220Y336052D02*
D03*
X351790Y157480D02*
D03*
Y107950D02*
D03*
X309880Y99060D02*
D03*
X173990Y369570D02*
D03*
X124645Y381719D02*
D03*
X457645Y182586D02*
D03*
X379487Y100323D02*
D03*
X654820Y166275D02*
D03*
X656183Y140661D02*
D03*
X651006Y77171D02*
D03*
X500732Y176882D02*
D03*
X457491Y268826D02*
D03*
X505469Y218169D02*
D03*
X534451Y238140D02*
D03*
X519595Y290258D02*
D03*
X511199Y316322D02*
D03*
X551084Y316751D02*
D03*
X443008Y314606D02*
D03*
X403980Y302169D02*
D03*
X652780Y255270D02*
D03*
X579029Y233909D02*
D03*
X771520Y183803D02*
D03*
X778456Y141260D02*
D03*
X678110Y40452D02*
D03*
X146323Y11782D02*
D03*
X176381Y27504D02*
D03*
X214299Y63573D02*
D03*
X145861Y65423D02*
D03*
X44450Y125730D02*
D03*
X264160Y106680D02*
D03*
X137160Y132080D02*
D03*
X265166Y378946D02*
D03*
X358114Y311895D02*
D03*
X526613Y356178D02*
D03*
X520443Y383230D02*
D03*
X594005Y380620D02*
D03*
X588310Y344788D02*
D03*
X661670Y363220D02*
D03*
X654050Y330200D02*
D03*
X730250Y339090D02*
D03*
X720090Y271780D02*
D03*
X701040Y137160D02*
D03*
X610870Y77470D02*
D03*
X609600Y101600D02*
D03*
X608330Y121920D02*
D03*
X420370Y81280D02*
D03*
X429260Y96520D02*
D03*
X438150Y111760D02*
D03*
X450850Y127000D02*
D03*
X457200Y142240D02*
D03*
X521970Y111760D02*
D03*
Y127000D02*
D03*
Y142240D02*
D03*
X562610Y90170D02*
D03*
X508000Y41910D02*
D03*
X599440Y45720D02*
D03*
X441960Y62230D02*
D03*
X361950Y69850D02*
D03*
X351790Y41910D02*
D03*
X259080Y45720D02*
D03*
X302260Y74930D02*
D03*
X702310Y165735D02*
D03*
X715010Y151130D02*
D03*
X608330Y190500D02*
D03*
X627776Y197724D02*
D03*
X544830Y212090D02*
D03*
X516890D02*
D03*
X594360Y229870D02*
D03*
X587642Y212783D02*
D03*
X587860Y222320D02*
D03*
X593090Y274320D02*
D03*
X599478Y206382D02*
D03*
X619681Y213914D02*
D03*
X621030Y204470D02*
D03*
X499110Y307340D02*
D03*
X551180Y328930D02*
D03*
X572921Y327811D02*
D03*
X335280Y264160D02*
D03*
X730250Y209550D02*
D03*
X528320Y172720D02*
D03*
X548640Y149860D02*
D03*
X334010Y160020D02*
D03*
X337820Y149860D02*
D03*
X236220Y379730D02*
D03*
X290830Y165100D02*
D03*
X289560Y63500D02*
D03*
X278130Y74930D02*
D03*
X278630Y93980D02*
D03*
X311150Y172720D02*
D03*
X250190Y326390D02*
D03*
X298450Y158600D02*
D03*
X556260Y167640D02*
D03*
X588629Y202549D02*
D03*
X598170Y186690D02*
D03*
X552450Y176530D02*
D03*
X13480Y209686D02*
D03*
X570230Y123190D02*
D03*
X47603Y210207D02*
D03*
X613687Y160995D02*
D03*
X601687Y154566D02*
D03*
X657824Y209586D02*
D03*
X570202Y133493D02*
D03*
X565150Y146050D02*
D03*
X58459Y228749D02*
D03*
X19980Y218440D02*
D03*
X59690Y204050D02*
D03*
Y218440D02*
D03*
D64*
X400000Y215000D02*
D03*
X429970Y153280D02*
D03*
X409970D02*
D03*
X389970D02*
D03*
X369970D02*
D03*
X354000Y276720D02*
D03*
X374000D02*
D03*
X394000D02*
D03*
X414000D02*
D03*
X190000Y99860D02*
D03*
X165000Y124860D02*
D03*
X190000D02*
D03*
X215000D02*
D03*
D65*
X145000Y104860D02*
D03*
X235000D02*
D03*
D66*
X115570Y135890D02*
D03*
X144780Y363220D02*
D03*
X552450Y292100D02*
D03*
X497840Y351790D02*
D03*
X144780Y337820D02*
D03*
X115570Y67640D02*
D03*
M02*
