M48
;Layer_Color=9474304
;FILE_FORMAT=4:4
METRIC,LZ
;TYPE=PLATED
T1F00S00C0.3000
T2F00S00C0.5000
T3F00S00C0.8000
T4F00S00C1.0000
T5F00S00C1.1000
T7F00S00C3.5000
;TYPE=NON_PLATED
T8F00S00C0.7000
%
T01
X00508Y0004191
X0052197Y0011176
Y00127
Y0014224
X0054864Y0014986
X0056515Y0014605
X00570202Y00133493
X0057023Y0012319
X0060833Y0012192
X006096Y001016
X0061087Y0007747
X00651006Y00077171
X0067811Y00040452
X0059944Y0004572
X0056261Y0009017
X0055626Y0016764
X0055245Y0017653
X0052832Y0017272
X00500732Y00176882
X00505469Y00218169
X0051689Y0021209
X0054483
X00534451Y0023814
X00579029Y00233909
X0059436Y0022987
X0058786Y0022232
X00587642Y00212783
X00588629Y00202549
X00599478Y00206382
X0059817Y0018669
X0060833Y001905
X00627776Y00197724
X0062103Y0020447
X00619681Y00213914
X00657824Y00209586
X0065482Y00166275
X00656183Y00140661
X0070104Y0013716
X0071501Y0015113
X0070231Y00165735
X0073025Y0020955
X0077152Y00183803
X00778456Y0014126
X00613687Y00160995
X00601687Y00154566
X0059309Y0027432
X0065278Y0025527
X0072009Y0027178
X00519595Y00290258
X00457491Y00268826
X00457645Y00182586
X004572Y0014224
X0045085Y00127
X0043815Y0011176
X0042926Y0009652
X0042037Y0008128
X0044196Y0006223
X0036195Y0006985
X0035179Y0004191
Y0010795
X00379487Y00100323
X0030988Y0009906
X0030226Y0007493
X0028956Y000635
X0027813Y0007493
X0027863Y0009398
X0026416Y0010668
X0025908Y0004572
X00214299Y00063573
X00145861Y00065423
X00146323Y00011782
X00176381Y00027504
X0009271Y0007366
X00099539Y00141449
X0013716Y0013208
X0029083Y001651
X0029845Y001586
X0031115Y0017272
X0033401Y0016002
X0033782Y0014986
X0035179Y0015748
X0033528Y0026416
X00058459Y00228749
X0005969Y0021844
Y0020405
X00047603Y00210207
X0001348Y00209686
X0001998Y0021844
X0004445Y0012573
X00124645Y00381719
X0017399Y0036957
X0020828Y0036195
X0025019Y0036068
X0023622Y0037973
X00265166Y00378946
X0027222Y00336052
X0025019Y0032639
X00358114Y00311895
X0040398Y00302169
X00443008Y00314606
X0049911Y0030734
X00511199Y00316322
X00551084Y00316751
X0055118Y0032893
X00572921Y00327811
X0058831Y00344788
X00594005Y0038062
X00520443Y0038323
X00526613Y00356178
X0066167Y0036322
X0065405Y003302
X0073025Y0033909
T02
X0055245Y002921
X0011557Y0013589
Y0006764
X0014478Y0033782
Y0036322
X0049784Y0035179
T03
X0036997Y0015328
X0038997
X0040997
X0042997
X00414Y0027672
X00394
X00374
X00354
T04
X0063Y0006
Y000854
Y001108
Y001362
Y002938
X0076073Y0026924
Y0024384
X00215Y0012486
X0019
Y0009986
X00165Y0012486
X0063Y003192
Y003446
Y0037
T05
X00148Y00033
X00198
X00215Y0031369
X00165
X00148Y00397
X00198
T07
X0056Y00065
X00073Y00105
X0029Y00335
X00725Y0032
T08
X0006288Y001861
Y002439
M30
