G04*
G04 #@! TF.GenerationSoftware,Altium Limited,Altium Designer,22.2.1 (43)*
G04*
G04 Layer_Physical_Order=2*
G04 Layer_Color=16711680*
%FSLAX44Y44*%
%MOMM*%
G71*
G04*
G04 #@! TF.SameCoordinates,B40B3F92-3463-4CDB-AABD-E14D81B53C36*
G04*
G04*
G04 #@! TF.FilePolarity,Positive*
G04*
G01*
G75*
%ADD10C,0.2000*%
%ADD11C,0.2500*%
%ADD12C,0.2540*%
%ADD58C,0.3810*%
%ADD59C,0.3500*%
%ADD60C,5.0000*%
%ADD61R,2.0000X2.0000*%
%ADD62C,2.0000*%
%ADD63C,0.7000*%
%ADD64C,1.5240*%
G04:AMPARAMS|DCode=65|XSize=2.5mm|YSize=3mm|CornerRadius=1.25mm|HoleSize=0mm|Usage=FLASHONLY|Rotation=180.000|XOffset=0mm|YOffset=0mm|HoleType=Round|Shape=RoundedRectangle|*
%AMROUNDEDRECTD65*
21,1,2.5000,0.5000,0,0,180.0*
21,1,0.0000,3.0000,0,0,180.0*
1,1,2.5000,0.0000,0.2500*
1,1,2.5000,0.0000,0.2500*
1,1,2.5000,0.0000,-0.2500*
1,1,2.5000,0.0000,-0.2500*
%
%ADD65ROUNDEDRECTD65*%
%ADD66C,1.2700*%
%ADD67R,0.5650X0.2000*%
%ADD68R,0.5650X0.4000*%
%ADD69R,3.0000X1.9000*%
%ADD70C,2.3000*%
G36*
X799998Y290009D02*
Y139991D01*
X660000Y-0D01*
X140001D01*
X61356Y78639D01*
X62076Y79716D01*
X64463Y78727D01*
X68678Y77715D01*
X71730Y77475D01*
Y103730D01*
X45475D01*
X45715Y100679D01*
X46727Y96463D01*
X47717Y94074D01*
X46640Y93354D01*
X0Y139991D01*
Y290009D01*
X140001Y430000D01*
X660000D01*
X799998Y290009D01*
D02*
G37*
%LPC*%
G36*
X149270Y409481D02*
Y398270D01*
X160481D01*
X160217Y400274D01*
X158954Y403324D01*
X156944Y405944D01*
X154324Y407954D01*
X151274Y409217D01*
X149270Y409481D01*
D02*
G37*
G36*
X146730Y409481D02*
X144726Y409217D01*
X141676Y407954D01*
X139056Y405944D01*
X137046Y403324D01*
X135783Y400274D01*
X135519Y398270D01*
X146730D01*
Y409481D01*
D02*
G37*
G36*
Y395730D02*
X135519D01*
X135783Y393726D01*
X137046Y390676D01*
X139056Y388056D01*
X141676Y386046D01*
X144726Y384783D01*
X146730Y384519D01*
Y395730D01*
D02*
G37*
G36*
X160481D02*
X149270D01*
Y384519D01*
X151274Y384783D01*
X154324Y386046D01*
X156944Y388056D01*
X158954Y390676D01*
X160217Y393726D01*
X160481Y395730D01*
D02*
G37*
G36*
X198000Y409648D02*
X194726Y409217D01*
X191676Y407954D01*
X189056Y405944D01*
X187046Y403324D01*
X185783Y400274D01*
X185352Y397000D01*
X185783Y393726D01*
X187046Y390676D01*
X189056Y388056D01*
X191676Y386046D01*
X194726Y384783D01*
X198000Y384352D01*
X201274Y384783D01*
X204324Y386046D01*
X206944Y388056D01*
X208954Y390676D01*
X210217Y393726D01*
X210648Y397000D01*
X210217Y400274D01*
X208954Y403324D01*
X206944Y405944D01*
X204324Y407954D01*
X201274Y409217D01*
X198000Y409648D01*
D02*
G37*
G36*
X291270Y362525D02*
Y336270D01*
X317525D01*
X317285Y339322D01*
X316273Y343537D01*
X314614Y347542D01*
X312349Y351238D01*
X309534Y354534D01*
X306238Y357349D01*
X302542Y359614D01*
X298537Y361273D01*
X294321Y362285D01*
X291270Y362525D01*
D02*
G37*
G36*
X288730D02*
X285679Y362285D01*
X281463Y361273D01*
X277458Y359614D01*
X273762Y357349D01*
X270466Y354534D01*
X267651Y351238D01*
X265386Y347542D01*
X263727Y343537D01*
X262715Y339322D01*
X262475Y336270D01*
X288730D01*
Y362525D01*
D02*
G37*
G36*
X144780Y372187D02*
X142459Y371881D01*
X140297Y370985D01*
X138440Y369560D01*
X137015Y367703D01*
X136119Y365541D01*
X135813Y363220D01*
X136119Y360899D01*
X137015Y358737D01*
X138440Y356880D01*
X140248Y355492D01*
Y345548D01*
X138440Y344160D01*
X137015Y342303D01*
X136119Y340141D01*
X135813Y337820D01*
X136119Y335499D01*
X137015Y333337D01*
X138440Y331480D01*
X140297Y330055D01*
X142459Y329159D01*
X144780Y328853D01*
X147101Y329159D01*
X149263Y330055D01*
X151120Y331480D01*
X152545Y333337D01*
X153441Y335499D01*
X153747Y337820D01*
X153441Y340141D01*
X152545Y342303D01*
X151120Y344160D01*
X149312Y345548D01*
Y355492D01*
X151120Y356880D01*
X152545Y358737D01*
X153441Y360899D01*
X153747Y363220D01*
X153441Y365541D01*
X152545Y367703D01*
X151120Y369560D01*
X149263Y370985D01*
X147101Y371881D01*
X144780Y372187D01*
D02*
G37*
G36*
X551180Y335088D02*
X548823Y334619D01*
X546825Y333285D01*
X545490Y331287D01*
X545022Y328930D01*
X545490Y326573D01*
X546825Y324575D01*
X548823Y323241D01*
X551180Y322772D01*
X553537Y323241D01*
X555535Y324575D01*
X555659Y324761D01*
X567695D01*
X568567Y323457D01*
X570564Y322122D01*
X572921Y321653D01*
X575278Y322122D01*
X577276Y323457D01*
X578611Y325454D01*
X579080Y327811D01*
X578611Y330168D01*
X577276Y332166D01*
X575278Y333501D01*
X572921Y333969D01*
X570564Y333501D01*
X568567Y332166D01*
X568442Y331980D01*
X556406D01*
X555535Y333285D01*
X553537Y334619D01*
X551180Y335088D01*
D02*
G37*
G36*
X726270Y347525D02*
Y321270D01*
X752525D01*
X752285Y324322D01*
X751273Y328537D01*
X749614Y332542D01*
X747349Y336238D01*
X744534Y339534D01*
X741238Y342349D01*
X737542Y344614D01*
X733537Y346273D01*
X729322Y347285D01*
X726270Y347525D01*
D02*
G37*
G36*
X723730D02*
X720678Y347285D01*
X716463Y346273D01*
X712458Y344614D01*
X708762Y342349D01*
X705466Y339534D01*
X702651Y336238D01*
X700386Y332542D01*
X698727Y328537D01*
X697715Y324322D01*
X697475Y321270D01*
X723730D01*
Y347525D01*
D02*
G37*
G36*
X250190Y366838D02*
X247833Y366370D01*
X245835Y365035D01*
X244501Y363037D01*
X244032Y360680D01*
X244501Y358323D01*
X245835Y356325D01*
X246581Y355827D01*
Y331243D01*
X245835Y330745D01*
X244501Y328747D01*
X244032Y326390D01*
X244501Y324033D01*
X245835Y322035D01*
X247833Y320700D01*
X250190Y320232D01*
X252547Y320700D01*
X254545Y322035D01*
X255879Y324033D01*
X256348Y326390D01*
X255879Y328747D01*
X254545Y330745D01*
X253799Y331243D01*
Y355827D01*
X254545Y356325D01*
X255879Y358323D01*
X256348Y360680D01*
X255879Y363037D01*
X254545Y365035D01*
X252547Y366370D01*
X250190Y366838D01*
D02*
G37*
G36*
X166270Y326171D02*
Y314960D01*
X177481D01*
X177217Y316964D01*
X175954Y320014D01*
X173944Y322634D01*
X171324Y324644D01*
X168274Y325907D01*
X166270Y326171D01*
D02*
G37*
G36*
X163730D02*
X161726Y325907D01*
X158676Y324644D01*
X156056Y322634D01*
X154046Y320014D01*
X152783Y316964D01*
X152519Y314960D01*
X163730D01*
Y326171D01*
D02*
G37*
G36*
X317525Y333730D02*
X291270D01*
Y307475D01*
X294321Y307715D01*
X298537Y308727D01*
X302542Y310386D01*
X306238Y312651D01*
X309534Y315466D01*
X312349Y318762D01*
X314614Y322458D01*
X316273Y326463D01*
X317285Y330678D01*
X317525Y333730D01*
D02*
G37*
G36*
X288730D02*
X262475D01*
X262715Y330678D01*
X263727Y326463D01*
X265386Y322458D01*
X267651Y318762D01*
X270466Y315466D01*
X273762Y312651D01*
X277458Y310386D01*
X281463Y308727D01*
X285679Y307715D01*
X288730Y307475D01*
Y333730D01*
D02*
G37*
G36*
X177481Y312420D02*
X166270D01*
Y301209D01*
X168274Y301473D01*
X171324Y302736D01*
X173944Y304746D01*
X175954Y307366D01*
X177217Y310416D01*
X177481Y312420D01*
D02*
G37*
G36*
X163730D02*
X152519D01*
X152783Y310416D01*
X154046Y307366D01*
X156056Y304746D01*
X158676Y302736D01*
X161726Y301473D01*
X163730Y301209D01*
Y312420D01*
D02*
G37*
G36*
X215000Y326338D02*
X211726Y325907D01*
X208676Y324644D01*
X206056Y322634D01*
X204046Y320014D01*
X202783Y316964D01*
X202352Y313690D01*
X202783Y310416D01*
X204046Y307366D01*
X206056Y304746D01*
X208676Y302736D01*
X211726Y301473D01*
X215000Y301042D01*
X218274Y301473D01*
X221324Y302736D01*
X223944Y304746D01*
X225954Y307366D01*
X227217Y310416D01*
X227648Y313690D01*
X227217Y316964D01*
X225954Y320014D01*
X223944Y322634D01*
X221324Y324644D01*
X218274Y325907D01*
X215000Y326338D01*
D02*
G37*
G36*
X752525Y318730D02*
X726270D01*
Y292475D01*
X729322Y292715D01*
X733537Y293727D01*
X737542Y295386D01*
X741238Y297651D01*
X744534Y300466D01*
X747349Y303762D01*
X749614Y307458D01*
X751273Y311463D01*
X752285Y315679D01*
X752525Y318730D01*
D02*
G37*
G36*
X723730D02*
X697475D01*
X697715Y315679D01*
X698727Y311463D01*
X700386Y307458D01*
X702651Y303762D01*
X705466Y300466D01*
X708762Y297651D01*
X712458Y295386D01*
X716463Y293727D01*
X720678Y292715D01*
X723730Y292475D01*
Y318730D01*
D02*
G37*
G36*
X497840Y360757D02*
X495519Y360451D01*
X493357Y359555D01*
X491500Y358130D01*
X490075Y356273D01*
X489179Y354111D01*
X488873Y351790D01*
X489179Y349469D01*
X490075Y347307D01*
X491500Y345450D01*
X493357Y344025D01*
X495519Y343129D01*
X497840Y342823D01*
X500100Y343121D01*
X545532Y297688D01*
X544685Y296583D01*
X543789Y294421D01*
X543483Y292100D01*
X543789Y289779D01*
X544685Y287617D01*
X546110Y285760D01*
X547967Y284335D01*
X550129Y283439D01*
X552450Y283133D01*
X554771Y283439D01*
X556933Y284335D01*
X558790Y285760D01*
X560215Y287617D01*
X561111Y289779D01*
X561417Y292100D01*
X561111Y294421D01*
X560215Y296583D01*
X558790Y298440D01*
X556933Y299865D01*
X554865Y300722D01*
X553954Y302086D01*
X553954Y302086D01*
X506509Y349530D01*
X506807Y351790D01*
X506501Y354111D01*
X505605Y356273D01*
X504180Y358130D01*
X502323Y359555D01*
X500161Y360451D01*
X497840Y360757D01*
D02*
G37*
G36*
X414000Y286968D02*
X411348Y286618D01*
X408876Y285595D01*
X406754Y283966D01*
X405125Y281844D01*
X404687Y280787D01*
X403313D01*
X402875Y281844D01*
X401246Y283966D01*
X399124Y285595D01*
X396652Y286618D01*
X395270Y286800D01*
Y276720D01*
Y266639D01*
X396652Y266821D01*
X399124Y267845D01*
X401246Y269474D01*
X402875Y271596D01*
X403313Y272653D01*
X404687D01*
X405125Y271596D01*
X406754Y269474D01*
X408876Y267845D01*
X411348Y266821D01*
X414000Y266472D01*
X416652Y266821D01*
X419124Y267845D01*
X421246Y269474D01*
X422875Y271596D01*
X423899Y274068D01*
X424248Y276720D01*
X423899Y279372D01*
X422875Y281844D01*
X421246Y283966D01*
X419124Y285595D01*
X416652Y286618D01*
X414000Y286968D01*
D02*
G37*
G36*
X374000D02*
X371348Y286618D01*
X368876Y285595D01*
X366754Y283966D01*
X365125Y281844D01*
X364687Y280787D01*
X363313D01*
X362875Y281844D01*
X361246Y283966D01*
X359124Y285595D01*
X356652Y286618D01*
X354000Y286968D01*
X351348Y286618D01*
X348876Y285595D01*
X346754Y283966D01*
X345125Y281844D01*
X344101Y279372D01*
X343752Y276720D01*
X344101Y274068D01*
X345125Y271596D01*
X346754Y269474D01*
X348876Y267845D01*
X351348Y266821D01*
X354000Y266472D01*
X356652Y266821D01*
X359124Y267845D01*
X361246Y269474D01*
X362875Y271596D01*
X363313Y272653D01*
X364687D01*
X365125Y271596D01*
X366754Y269474D01*
X368876Y267845D01*
X371348Y266821D01*
X374000Y266472D01*
X376652Y266821D01*
X379124Y267845D01*
X381246Y269474D01*
X382875Y271596D01*
X383313Y272653D01*
X384687D01*
X385125Y271596D01*
X386754Y269474D01*
X388876Y267845D01*
X391348Y266821D01*
X392730Y266639D01*
Y276720D01*
Y286800D01*
X391348Y286618D01*
X388876Y285595D01*
X386754Y283966D01*
X385125Y281844D01*
X384687Y280787D01*
X383313D01*
X382875Y281844D01*
X381246Y283966D01*
X379124Y285595D01*
X376652Y286618D01*
X374000Y286968D01*
D02*
G37*
G36*
X642540Y382540D02*
X617460D01*
Y362564D01*
X584038Y329142D01*
X583255Y327971D01*
X582981Y326590D01*
Y251053D01*
X583255Y249672D01*
X584038Y248501D01*
X584251Y248288D01*
Y227173D01*
X583505Y226675D01*
X582170Y224677D01*
X581702Y222320D01*
X582170Y219964D01*
X583115Y218550D01*
X583288Y217138D01*
X581953Y215140D01*
X581484Y212783D01*
X581953Y210426D01*
X583288Y208428D01*
X583866Y208042D01*
X583969Y206446D01*
X582940Y204906D01*
X582471Y202549D01*
X582940Y200193D01*
X584275Y198195D01*
X586273Y196860D01*
X586714Y196772D01*
X587083Y195557D01*
X571666Y180139D01*
X557303D01*
X556805Y180885D01*
X554807Y182220D01*
X552450Y182688D01*
X550093Y182220D01*
X548095Y180885D01*
X546760Y178887D01*
X546292Y176530D01*
X546760Y174173D01*
X548095Y172175D01*
X550093Y170840D01*
X550466Y169471D01*
X550102Y167640D01*
X550570Y165283D01*
X551905Y163285D01*
X553903Y161950D01*
X556260Y161482D01*
X558617Y161950D01*
X560615Y163285D01*
X561950Y165283D01*
X562206Y166571D01*
X571150D01*
X571676Y165301D01*
X562598Y156222D01*
X561815Y155051D01*
X561541Y153670D01*
Y150903D01*
X560795Y150405D01*
X559460Y148407D01*
X558992Y146050D01*
X559460Y143693D01*
X560795Y141695D01*
X562793Y140360D01*
X565150Y139892D01*
X567491Y140357D01*
X567845Y139183D01*
X565847Y137848D01*
X564512Y135850D01*
X564044Y133493D01*
X564512Y131137D01*
X565847Y129139D01*
X566104Y128967D01*
Y127697D01*
X565875Y127545D01*
X564540Y125547D01*
X564072Y123190D01*
X564540Y120833D01*
X565875Y118835D01*
X567873Y117500D01*
X570230Y117032D01*
X572587Y117500D01*
X574585Y118835D01*
X575919Y120833D01*
X576388Y123190D01*
X576226Y124007D01*
X600803Y148583D01*
X601687Y148408D01*
X604043Y148876D01*
X606041Y150211D01*
X607376Y152209D01*
X607845Y154566D01*
X607651Y155541D01*
X608634Y156792D01*
X609226Y156799D01*
X609332Y156641D01*
X611330Y155306D01*
X613687Y154837D01*
X616044Y155306D01*
X618041Y156641D01*
X619376Y158638D01*
X619845Y160995D01*
X619376Y163352D01*
X618041Y165350D01*
X616044Y166685D01*
X613687Y167153D01*
X611330Y166685D01*
X609332Y165350D01*
X609031Y164899D01*
X597999D01*
X596617Y164625D01*
X595446Y163842D01*
X571081Y139477D01*
X570202Y139652D01*
X567861Y139186D01*
X567507Y140360D01*
X569505Y141695D01*
X570840Y143693D01*
X571308Y146050D01*
X570840Y148407D01*
X569505Y150405D01*
X568759Y150903D01*
Y152175D01*
X597291Y180707D01*
X598170Y180532D01*
X600527Y181000D01*
X602525Y182335D01*
X603859Y184333D01*
X603968Y184880D01*
X605142Y185366D01*
X605973Y184811D01*
X608330Y184342D01*
X610687Y184811D01*
X612685Y186145D01*
X614020Y188143D01*
X614488Y190500D01*
X614314Y191379D01*
X617049Y194115D01*
X622923D01*
X623421Y193370D01*
X625419Y192035D01*
X627776Y191566D01*
X630132Y192035D01*
X632130Y193370D01*
X633465Y195368D01*
X633934Y197724D01*
X633465Y200081D01*
X632130Y202079D01*
X630132Y203414D01*
X628344Y203769D01*
X627554Y204248D01*
X627075Y205038D01*
X626720Y206827D01*
X625385Y208825D01*
X624112Y209675D01*
X625370Y211557D01*
X625839Y213914D01*
X625370Y216271D01*
X624035Y218269D01*
X622461Y219321D01*
X622127Y220782D01*
X622312Y220968D01*
X623095Y222139D01*
X623369Y223520D01*
Y280207D01*
X624425Y280912D01*
X626335Y280121D01*
X630000Y279639D01*
X633665Y280121D01*
X637081Y281536D01*
X640014Y283787D01*
X642264Y286719D01*
X643679Y290135D01*
X644161Y293800D01*
X643679Y297465D01*
X642264Y300881D01*
X640014Y303813D01*
X637506Y305738D01*
X637411Y306004D01*
Y306996D01*
X637506Y307262D01*
X640014Y309187D01*
X642264Y312119D01*
X643679Y315535D01*
X644161Y319200D01*
X643679Y322865D01*
X642264Y326281D01*
X640014Y329213D01*
X637506Y331138D01*
X637411Y331404D01*
Y332396D01*
X637506Y332662D01*
X640014Y334587D01*
X642264Y337519D01*
X643679Y340935D01*
X644161Y344600D01*
X643679Y348265D01*
X642264Y351681D01*
X640014Y354613D01*
X637959Y356190D01*
X638390Y357460D01*
X642540D01*
Y382540D01*
D02*
G37*
G36*
X236220Y385888D02*
X233863Y385420D01*
X231865Y384085D01*
X230530Y382087D01*
X230062Y379730D01*
X230530Y377373D01*
X231688Y375641D01*
Y310731D01*
X232033Y308997D01*
X233015Y307527D01*
X289355Y251187D01*
X289286Y250808D01*
X287918Y250380D01*
X256477Y281839D01*
X256477Y281839D01*
X256476Y281839D01*
X256048Y282125D01*
X255637Y282400D01*
X255637Y282401D01*
X255636Y282401D01*
X255130Y282501D01*
X254646Y282598D01*
X254646Y282598D01*
X254645Y282598D01*
X125357Y282598D01*
X125357Y282598D01*
X125356Y282598D01*
X124863Y282499D01*
X124366Y282400D01*
X124366Y282400D01*
X124365Y282400D01*
X123975Y282140D01*
X123526Y281839D01*
X123525Y281839D01*
X123525Y281839D01*
X88169Y246464D01*
X87882Y246035D01*
X87608Y245624D01*
X87608Y245624D01*
X87608Y245624D01*
X87511Y245135D01*
X87411Y244633D01*
Y185367D01*
X87513Y184856D01*
X87608Y184377D01*
X87608Y184376D01*
X87608Y184376D01*
X87897Y183944D01*
X88169Y183536D01*
X123525Y148161D01*
X123526Y148161D01*
X123526Y148161D01*
X123933Y147889D01*
X124366Y147600D01*
X124366Y147600D01*
X124366Y147599D01*
X124845Y147504D01*
X125357Y147402D01*
X125357Y147402D01*
X125357Y147402D01*
X254645Y147403D01*
X254645Y147403D01*
X254646Y147403D01*
X255130Y147499D01*
X255636Y147600D01*
X255636Y147600D01*
X255637Y147600D01*
X256048Y147875D01*
X256476Y148161D01*
X256476Y148161D01*
X256476Y148162D01*
X277719Y169416D01*
X278893Y168930D01*
Y119333D01*
X279238Y117598D01*
X280220Y116128D01*
X285028Y111320D01*
Y97563D01*
X283758Y97177D01*
X282985Y98335D01*
X280987Y99670D01*
X278630Y100138D01*
X276273Y99670D01*
X274275Y98335D01*
X272941Y96337D01*
X272472Y93980D01*
X272941Y91623D01*
X274275Y89625D01*
X274771Y89295D01*
Y79950D01*
X273775Y79285D01*
X272440Y77287D01*
X271972Y74930D01*
X272440Y72573D01*
X273775Y70575D01*
X275773Y69240D01*
X278130Y68772D01*
X280487Y69240D01*
X282485Y70575D01*
X283758Y72481D01*
X283850Y72492D01*
X285028Y71721D01*
Y67589D01*
X283871Y65857D01*
X283402Y63500D01*
X283871Y61143D01*
X285205Y59145D01*
X287203Y57811D01*
X289560Y57342D01*
X291917Y57811D01*
X293915Y59145D01*
X295250Y61143D01*
X295718Y63500D01*
X295250Y65857D01*
X294092Y67589D01*
Y113198D01*
X293747Y114932D01*
X292765Y116402D01*
X292765Y116403D01*
X287957Y121210D01*
Y158344D01*
X289227Y159261D01*
X290830Y158942D01*
X291764Y159128D01*
X292292Y158600D01*
X292761Y156243D01*
X294095Y154245D01*
X296093Y152910D01*
X298450Y152442D01*
X299454Y152641D01*
X321298Y130798D01*
X322469Y130015D01*
X323850Y129741D01*
X410040D01*
X411421Y130015D01*
X412592Y130798D01*
X425803Y144009D01*
X427318Y143382D01*
X429970Y143032D01*
X432622Y143382D01*
X435094Y144405D01*
X437216Y146034D01*
X438845Y148156D01*
X439869Y150628D01*
X440218Y153280D01*
X439869Y155932D01*
X438845Y158404D01*
X437216Y160526D01*
X436236Y161278D01*
X436667Y162548D01*
X462712D01*
X464386Y162881D01*
X465805Y163829D01*
X482225Y180250D01*
X483173Y181668D01*
X483506Y183342D01*
Y187960D01*
X497540D01*
Y212040D01*
X462460D01*
Y187960D01*
X474758D01*
Y185154D01*
X460901Y171296D01*
X450540D01*
Y260540D01*
X349460D01*
Y169460D01*
X380725D01*
X381211Y168287D01*
X375083Y162159D01*
X372622Y163179D01*
X369970Y163528D01*
X367318Y163179D01*
X364846Y162155D01*
X362724Y160526D01*
X361095Y158404D01*
X360071Y155932D01*
X359722Y153280D01*
X360071Y150628D01*
X361095Y148156D01*
X362724Y146034D01*
X363052Y145782D01*
X362644Y144579D01*
X342901D01*
X342404Y145849D01*
X343509Y147503D01*
X343978Y149860D01*
X343509Y152217D01*
X342175Y154215D01*
X340177Y155549D01*
X339630Y155658D01*
X339144Y156832D01*
X339700Y157663D01*
X340168Y160020D01*
X339700Y162377D01*
X338530Y164128D01*
Y259067D01*
X339635Y259805D01*
X340970Y261803D01*
X341438Y264160D01*
X340970Y266517D01*
X339635Y268515D01*
X337637Y269849D01*
X335280Y270318D01*
X332923Y269849D01*
X330925Y268515D01*
X329590Y266517D01*
X329122Y264160D01*
X329590Y261803D01*
X330760Y260052D01*
Y165113D01*
X329655Y164375D01*
X328350Y162421D01*
X328205Y162246D01*
X326996Y161979D01*
X317134Y171841D01*
X317308Y172720D01*
X316840Y175077D01*
X315505Y177075D01*
X313507Y178410D01*
X311150Y178878D01*
X308793Y178410D01*
X306795Y177075D01*
X305460Y175077D01*
X304992Y172720D01*
X305460Y170363D01*
X305838Y169798D01*
X305075Y168655D01*
X304800Y168709D01*
X295683D01*
X295185Y169455D01*
X293187Y170790D01*
X290830Y171258D01*
X290296Y171152D01*
X289670Y172323D01*
X297650Y180302D01*
X298633Y181773D01*
X298978Y183507D01*
X298978Y183507D01*
Y252506D01*
X298978Y252506D01*
X298633Y254240D01*
X297650Y255710D01*
X240752Y312609D01*
Y375641D01*
X241910Y377373D01*
X242378Y379730D01*
X241910Y382087D01*
X240575Y384085D01*
X238577Y385420D01*
X236220Y385888D01*
D02*
G37*
G36*
X62880Y250058D02*
X60523Y249590D01*
X58525Y248255D01*
X57190Y246257D01*
X56722Y243900D01*
X57190Y241543D01*
X58525Y239545D01*
X60523Y238210D01*
X62880Y237742D01*
X65237Y238210D01*
X67235Y239545D01*
X68570Y241543D01*
X69038Y243900D01*
X68570Y246257D01*
X67235Y248255D01*
X65237Y249590D01*
X62880Y250058D01*
D02*
G37*
G36*
X773270Y281780D02*
X748190D01*
Y256700D01*
X752340D01*
X752771Y255430D01*
X750717Y253853D01*
X748466Y250921D01*
X747051Y247505D01*
X746569Y243840D01*
X747051Y240175D01*
X748466Y236759D01*
X750717Y233827D01*
X753649Y231576D01*
X757065Y230161D01*
X760730Y229679D01*
X764395Y230161D01*
X767811Y231576D01*
X770743Y233827D01*
X772994Y236759D01*
X774409Y240175D01*
X774891Y243840D01*
X774409Y247505D01*
X772994Y250921D01*
X770743Y253853D01*
X768689Y255430D01*
X769120Y256700D01*
X773270D01*
Y281780D01*
D02*
G37*
G36*
X499110Y313498D02*
X496753Y313029D01*
X494755Y311695D01*
X493420Y309697D01*
X492952Y307340D01*
X493056Y306817D01*
X490157Y303919D01*
X489209Y302500D01*
X488876Y300826D01*
Y242040D01*
X462460D01*
Y217960D01*
X497540D01*
Y237328D01*
X497624Y237750D01*
Y299014D01*
X499961Y301351D01*
X501467Y301651D01*
X503465Y302985D01*
X504799Y304983D01*
X505268Y307340D01*
X504799Y309697D01*
X503465Y311695D01*
X501467Y313029D01*
X499110Y313498D01*
D02*
G37*
G36*
X544830Y218248D02*
X542473Y217780D01*
X540475Y216445D01*
X540148Y215954D01*
X521572D01*
X521245Y216445D01*
X519247Y217780D01*
X516890Y218248D01*
X514533Y217780D01*
X512535Y216445D01*
X511200Y214447D01*
X510732Y212090D01*
X511200Y209733D01*
X512535Y207735D01*
X514533Y206401D01*
X516890Y205932D01*
X519247Y206401D01*
X521245Y207735D01*
X521572Y208226D01*
X540148D01*
X540475Y207735D01*
X542473Y206401D01*
X544830Y205932D01*
X547187Y206401D01*
X549185Y207735D01*
X550519Y209733D01*
X550988Y212090D01*
X550519Y214447D01*
X549185Y216445D01*
X547187Y217780D01*
X544830Y218248D01*
D02*
G37*
G36*
X657824Y215744D02*
X655467Y215276D01*
X653469Y213941D01*
X652134Y211943D01*
X651665Y209586D01*
X652134Y207229D01*
X653469Y205232D01*
X655467Y203897D01*
X657824Y203428D01*
X660181Y203897D01*
X662178Y205232D01*
X662664Y205959D01*
X725385D01*
X725895Y205195D01*
X727893Y203860D01*
X730250Y203392D01*
X732607Y203860D01*
X734605Y205195D01*
X735939Y207193D01*
X736408Y209550D01*
X735939Y211907D01*
X734605Y213905D01*
X732607Y215240D01*
X730250Y215708D01*
X727893Y215240D01*
X725895Y213905D01*
X725409Y213178D01*
X662689D01*
X662178Y213941D01*
X660181Y215276D01*
X657824Y215744D01*
D02*
G37*
G36*
X58459Y234907D02*
X56102Y234438D01*
X54104Y233103D01*
X53400Y232049D01*
X20788D01*
X19406Y231775D01*
X18235Y230992D01*
X10928Y223685D01*
X10145Y222514D01*
X9871Y221132D01*
Y215748D01*
X10083Y214680D01*
X9125Y214040D01*
X7790Y212042D01*
X7322Y209686D01*
X7790Y207329D01*
X9125Y205331D01*
X11123Y203996D01*
X13480Y203527D01*
X15837Y203996D01*
X17835Y205331D01*
X18204Y205885D01*
X18235Y205888D01*
X19406Y205105D01*
X20788Y204831D01*
X43257D01*
X44429Y205064D01*
X45247Y204517D01*
X47603Y204048D01*
X49960Y204517D01*
X51958Y205852D01*
X52236Y206268D01*
X52412Y206371D01*
X53802Y206326D01*
X53943Y206116D01*
X53532Y204050D01*
X54001Y201693D01*
X55335Y199695D01*
X57333Y198360D01*
X59690Y197892D01*
X62047Y198360D01*
X64045Y199695D01*
X65380Y201693D01*
X65848Y204050D01*
X65380Y206407D01*
X64045Y208405D01*
X62047Y209739D01*
X62002Y209748D01*
X61286Y210821D01*
X60755Y211352D01*
X61124Y212567D01*
X62047Y212750D01*
X64045Y214085D01*
X65380Y216083D01*
X65848Y218440D01*
X65380Y220797D01*
X64045Y222795D01*
X62813Y223617D01*
Y224394D01*
X64148Y226392D01*
X64617Y228749D01*
X64148Y231105D01*
X62813Y233103D01*
X60815Y234438D01*
X58459Y234907D01*
D02*
G37*
G36*
X62880Y192258D02*
X60523Y191790D01*
X58525Y190455D01*
X57190Y188457D01*
X56722Y186100D01*
X57190Y183743D01*
X58525Y181745D01*
X60523Y180410D01*
X62880Y179942D01*
X65237Y180410D01*
X67235Y181745D01*
X68570Y183743D01*
X69038Y186100D01*
X68570Y188457D01*
X67235Y190455D01*
X65237Y191790D01*
X62880Y192258D01*
D02*
G37*
G36*
X702310Y171893D02*
X699953Y171425D01*
X697955Y170090D01*
X696620Y168092D01*
X696152Y165735D01*
X696620Y163378D01*
X697955Y161380D01*
X699953Y160046D01*
X701248Y159788D01*
X709026Y152009D01*
X708852Y151130D01*
X709321Y148773D01*
X710655Y146775D01*
X712653Y145441D01*
X715010Y144972D01*
X717367Y145441D01*
X719365Y146775D01*
X720699Y148773D01*
X721168Y151130D01*
X720699Y153487D01*
X719365Y155485D01*
X717367Y156819D01*
X715010Y157288D01*
X714131Y157114D01*
X707946Y163298D01*
X707999Y163378D01*
X708468Y165735D01*
X707999Y168092D01*
X706665Y170090D01*
X704667Y171425D01*
X702310Y171893D01*
D02*
G37*
G36*
X528320Y178878D02*
X525963Y178410D01*
X523965Y177075D01*
X522631Y175077D01*
X522162Y172720D01*
X522631Y170363D01*
X523965Y168365D01*
X525963Y167031D01*
X526564Y166911D01*
X526725Y166671D01*
X542657Y150739D01*
X542482Y149860D01*
X542951Y147503D01*
X544285Y145505D01*
X546283Y144171D01*
X548640Y143702D01*
X550997Y144171D01*
X552995Y145505D01*
X554329Y147503D01*
X554798Y149860D01*
X554329Y152217D01*
X552995Y154215D01*
X550997Y155549D01*
X548640Y156018D01*
X547761Y155843D01*
X533702Y169903D01*
X534010Y170363D01*
X534478Y172720D01*
X534010Y175077D01*
X532675Y177075D01*
X530677Y178410D01*
X528320Y178878D01*
D02*
G37*
G36*
X190000Y135108D02*
X187348Y134759D01*
X184876Y133735D01*
X182754Y132106D01*
X181125Y129984D01*
X180102Y127512D01*
X179752Y124860D01*
X180102Y122208D01*
X181125Y119736D01*
X182754Y117614D01*
X184876Y115985D01*
X187348Y114962D01*
X190000Y114612D01*
X192652Y114962D01*
X195124Y115985D01*
X197246Y117614D01*
X198875Y119736D01*
X199898Y122208D01*
X200248Y124860D01*
X199898Y127512D01*
X198875Y129984D01*
X197246Y132106D01*
X195124Y133735D01*
X192652Y134759D01*
X190000Y135108D01*
D02*
G37*
G36*
X165000D02*
X162348Y134759D01*
X159876Y133735D01*
X157754Y132106D01*
X156125Y129984D01*
X155101Y127512D01*
X154752Y124860D01*
X155101Y122208D01*
X156125Y119736D01*
X157754Y117614D01*
X159876Y115985D01*
X162348Y114962D01*
X165000Y114612D01*
X167652Y114962D01*
X170124Y115985D01*
X172246Y117614D01*
X173875Y119736D01*
X174898Y122208D01*
X175248Y124860D01*
X174898Y127512D01*
X173875Y129984D01*
X172246Y132106D01*
X170124Y133735D01*
X167652Y134759D01*
X165000Y135108D01*
D02*
G37*
G36*
X74270Y132525D02*
Y106270D01*
X100525D01*
X100285Y109321D01*
X99273Y113537D01*
X97614Y117542D01*
X95349Y121238D01*
X92534Y124534D01*
X89238Y127349D01*
X85542Y129614D01*
X81537Y131273D01*
X77322Y132285D01*
X74270Y132525D01*
D02*
G37*
G36*
X71730D02*
X68678Y132285D01*
X64463Y131273D01*
X60458Y129614D01*
X56762Y127349D01*
X53466Y124534D01*
X50651Y121238D01*
X48386Y117542D01*
X46727Y113537D01*
X45715Y109321D01*
X45475Y106270D01*
X71730D01*
Y132525D01*
D02*
G37*
G36*
X190000Y110108D02*
X187348Y109759D01*
X184876Y108735D01*
X182754Y107106D01*
X181125Y104984D01*
X180102Y102512D01*
X179752Y99860D01*
X180102Y97208D01*
X181125Y94736D01*
X182754Y92614D01*
X184876Y90985D01*
X187348Y89962D01*
X190000Y89612D01*
X192652Y89962D01*
X195124Y90985D01*
X197246Y92614D01*
X198875Y94736D01*
X199898Y97208D01*
X200248Y99860D01*
X199898Y102512D01*
X198875Y104984D01*
X197246Y107106D01*
X195124Y108735D01*
X192652Y109759D01*
X190000Y110108D01*
D02*
G37*
G36*
X215000Y135108D02*
X212348Y134759D01*
X209876Y133735D01*
X207754Y132106D01*
X206125Y129984D01*
X205102Y127512D01*
X204752Y124860D01*
X205102Y122208D01*
X206125Y119736D01*
X207754Y117614D01*
X209876Y115985D01*
X210468Y115740D01*
Y101877D01*
X153066Y44475D01*
X151274Y45217D01*
X148000Y45648D01*
X144726Y45217D01*
X141676Y43954D01*
X139056Y41944D01*
X137046Y39324D01*
X135783Y36274D01*
X135352Y33000D01*
X135783Y29726D01*
X137046Y26676D01*
X139056Y24056D01*
X141676Y22046D01*
X144726Y20783D01*
X148000Y20352D01*
X151274Y20783D01*
X154324Y22046D01*
X156944Y24056D01*
X158954Y26676D01*
X160217Y29726D01*
X160648Y33000D01*
X160217Y36274D01*
X159475Y38066D01*
X218205Y96795D01*
X218205Y96795D01*
X219187Y98266D01*
X219191Y98288D01*
X220499Y98352D01*
X221038Y96577D01*
X222434Y93964D01*
X224314Y91674D01*
X226604Y89794D01*
X229217Y88398D01*
X232052Y87538D01*
X235000Y87247D01*
X237948Y87538D01*
X240783Y88398D01*
X243396Y89794D01*
X245686Y91674D01*
X247566Y93964D01*
X248962Y96577D01*
X249822Y99412D01*
X250113Y102360D01*
Y107360D01*
X249822Y110308D01*
X248962Y113143D01*
X247566Y115756D01*
X245686Y118046D01*
X243396Y119926D01*
X240783Y121322D01*
X237948Y122182D01*
X235000Y122473D01*
X232052Y122182D01*
X229217Y121322D01*
X226604Y119926D01*
X224314Y118046D01*
X222434Y115756D01*
X221038Y113143D01*
X220802Y112367D01*
X219532Y112555D01*
Y115740D01*
X220124Y115985D01*
X222246Y117614D01*
X223875Y119736D01*
X224898Y122208D01*
X225248Y124860D01*
X224898Y127512D01*
X223875Y129984D01*
X222246Y132106D01*
X220124Y133735D01*
X217652Y134759D01*
X215000Y135108D01*
D02*
G37*
G36*
X145000Y122473D02*
X142052Y122182D01*
X139217Y121322D01*
X136604Y119926D01*
X134314Y118046D01*
X132434Y115756D01*
X131038Y113143D01*
X130178Y110308D01*
X129887Y107360D01*
Y102360D01*
X130178Y99412D01*
X131038Y96577D01*
X132434Y93964D01*
X134314Y91674D01*
X136604Y89794D01*
X139217Y88398D01*
X142052Y87538D01*
X145000Y87247D01*
X147948Y87538D01*
X150783Y88398D01*
X153396Y89794D01*
X155686Y91674D01*
X157566Y93964D01*
X158962Y96577D01*
X159822Y99412D01*
X160113Y102360D01*
Y107360D01*
X159822Y110308D01*
X158962Y113143D01*
X157566Y115756D01*
X155686Y118046D01*
X153396Y119926D01*
X150783Y121322D01*
X147948Y122182D01*
X145000Y122473D01*
D02*
G37*
G36*
X100525Y103730D02*
X74270D01*
Y77475D01*
X77322Y77715D01*
X81537Y78727D01*
X85542Y80386D01*
X89238Y82651D01*
X92534Y85466D01*
X95349Y88762D01*
X97614Y92458D01*
X99273Y96463D01*
X100285Y100679D01*
X100525Y103730D01*
D02*
G37*
G36*
X561270Y92525D02*
Y66270D01*
X587525D01*
X587285Y69321D01*
X586273Y73537D01*
X584614Y77542D01*
X582349Y81238D01*
X579534Y84534D01*
X576238Y87349D01*
X572542Y89614D01*
X568537Y91273D01*
X564322Y92285D01*
X561270Y92525D01*
D02*
G37*
G36*
X558730D02*
X555678Y92285D01*
X551463Y91273D01*
X547458Y89614D01*
X543762Y87349D01*
X540466Y84534D01*
X537651Y81238D01*
X535386Y77542D01*
X533727Y73537D01*
X532715Y69321D01*
X532475Y66270D01*
X558730D01*
Y92525D01*
D02*
G37*
G36*
X115570Y144857D02*
X113249Y144551D01*
X111087Y143655D01*
X109230Y142230D01*
X107805Y140373D01*
X106909Y138211D01*
X106603Y135890D01*
X106909Y133569D01*
X107805Y131407D01*
X109230Y129550D01*
X111038Y128162D01*
Y75368D01*
X109230Y73980D01*
X107805Y72123D01*
X106909Y69961D01*
X106603Y67640D01*
X106909Y65319D01*
X107805Y63157D01*
X109230Y61300D01*
X111087Y59875D01*
X113249Y58979D01*
X115570Y58673D01*
X117891Y58979D01*
X120053Y59875D01*
X121910Y61300D01*
X123335Y63157D01*
X124231Y65319D01*
X124537Y67640D01*
X124231Y69961D01*
X123335Y72123D01*
X121910Y73980D01*
X120102Y75368D01*
Y128162D01*
X121910Y129550D01*
X123335Y131407D01*
X124231Y133569D01*
X124537Y135890D01*
X124231Y138211D01*
X123335Y140373D01*
X121910Y142230D01*
X120053Y143655D01*
X117891Y144551D01*
X115570Y144857D01*
D02*
G37*
G36*
X630000Y150361D02*
X626335Y149879D01*
X622919Y148464D01*
X619987Y146213D01*
X617736Y143281D01*
X616321Y139865D01*
X615839Y136200D01*
X616321Y132535D01*
X617736Y129119D01*
X619987Y126187D01*
X622494Y124262D01*
X622589Y123996D01*
Y123004D01*
X622494Y122738D01*
X619987Y120813D01*
X617736Y117881D01*
X616321Y114465D01*
X615839Y110800D01*
X616321Y107135D01*
X617736Y103719D01*
X619987Y100787D01*
X622494Y98862D01*
X622589Y98596D01*
Y97604D01*
X622494Y97338D01*
X619987Y95413D01*
X617736Y92481D01*
X616321Y89065D01*
X615839Y85400D01*
X616321Y81735D01*
X617736Y78319D01*
X619987Y75387D01*
X622041Y73810D01*
X621610Y72540D01*
X617460D01*
Y47460D01*
X642540D01*
Y72540D01*
X638390D01*
X637959Y73810D01*
X640014Y75387D01*
X642264Y78319D01*
X643679Y81735D01*
X644161Y85400D01*
X643679Y89065D01*
X642264Y92481D01*
X640014Y95413D01*
X637506Y97338D01*
X637411Y97604D01*
Y98596D01*
X637506Y98862D01*
X640014Y100787D01*
X642264Y103719D01*
X643679Y107135D01*
X644161Y110800D01*
X643679Y114465D01*
X642264Y117881D01*
X640014Y120813D01*
X637506Y122738D01*
X637411Y123004D01*
Y123996D01*
X637506Y124262D01*
X640014Y126187D01*
X642264Y129119D01*
X643679Y132535D01*
X644161Y136200D01*
X643679Y139865D01*
X642264Y143281D01*
X640014Y146213D01*
X637081Y148464D01*
X633665Y149879D01*
X630000Y150361D01*
D02*
G37*
G36*
X587525Y63730D02*
X561270D01*
Y37475D01*
X564322Y37715D01*
X568537Y38727D01*
X572542Y40386D01*
X576238Y42651D01*
X579534Y45466D01*
X582349Y48762D01*
X584614Y52458D01*
X586273Y56463D01*
X587285Y60679D01*
X587525Y63730D01*
D02*
G37*
G36*
X558730D02*
X532475D01*
X532715Y60679D01*
X533727Y56463D01*
X535386Y52458D01*
X537651Y48762D01*
X540466Y45466D01*
X543762Y42651D01*
X547458Y40386D01*
X551463Y38727D01*
X555678Y37715D01*
X558730Y37475D01*
Y63730D01*
D02*
G37*
G36*
X198000Y45648D02*
X194726Y45217D01*
X191676Y43954D01*
X189056Y41944D01*
X187046Y39324D01*
X185783Y36274D01*
X185352Y33000D01*
X185783Y29726D01*
X187046Y26676D01*
X189056Y24056D01*
X191676Y22046D01*
X194726Y20783D01*
X198000Y20352D01*
X201274Y20783D01*
X204324Y22046D01*
X206944Y24056D01*
X208954Y26676D01*
X210217Y29726D01*
X210648Y33000D01*
X210217Y36274D01*
X208954Y39324D01*
X206944Y41944D01*
X204324Y43954D01*
X201274Y45217D01*
X198000Y45648D01*
D02*
G37*
%LPD*%
D10*
X250190Y326390D02*
Y360680D01*
X702310Y165735D02*
Y167640D01*
Y163830D02*
Y165735D01*
Y163830D02*
X715010Y151130D01*
X608330Y190500D02*
X615554Y197724D01*
X627776D01*
X593090Y274320D02*
X593725Y273685D01*
Y230505D02*
X594360Y229870D01*
X593725Y230505D02*
Y273685D01*
X587860Y222320D02*
Y249783D01*
X592378Y217240D02*
X593796D01*
X600860Y224304D01*
X587920Y212783D02*
X592378Y217240D01*
X586590Y251053D02*
X587860Y249783D01*
X587642Y212783D02*
X587920D01*
X600860Y224304D02*
Y321460D01*
X618747Y339347D01*
X586590Y326590D02*
X630000Y370000D01*
X586590Y251053D02*
Y326590D01*
X594142Y210095D02*
Y211929D01*
X608330Y226117D01*
X599478Y197190D02*
X610758Y208470D01*
X588629Y202549D02*
Y203045D01*
X595478Y193190D02*
X601134D01*
X592978Y207393D02*
Y208930D01*
X599478Y206382D02*
X608525Y215429D01*
X608330Y226117D02*
Y309880D01*
X611670Y215429D02*
X619760Y223520D01*
X599478Y206382D02*
Y206382D01*
X572468Y170180D02*
X595478Y193190D01*
X614237Y208470D02*
X619681Y213914D01*
X608525Y215429D02*
X611670D01*
X601134Y193190D02*
X612414Y204470D01*
X573161Y176530D02*
X593821Y197190D01*
X588629Y203045D02*
X592978Y207393D01*
X612414Y204470D02*
X621030D01*
X610758Y208470D02*
X614237D01*
X592978Y208930D02*
X594142Y210095D01*
X593821Y197190D02*
X599478D01*
X619760Y223520D02*
Y285191D01*
X551180Y328930D02*
X551739Y328371D01*
X572362D01*
X572921Y327811D01*
X657842Y209568D02*
X730232D01*
X657824Y209586D02*
X657842Y209568D01*
X730232D02*
X730250Y209550D01*
X529277Y169223D02*
X548640Y149860D01*
X528320Y172720D02*
X529277Y171763D01*
Y169223D02*
Y171763D01*
X311150Y172720D02*
X333053Y150817D01*
X336863D02*
X337820Y149860D01*
X333053Y150817D02*
X336863D01*
X290830Y165100D02*
X304800D01*
X278380Y75180D02*
Y93730D01*
X278630Y93980D01*
X278130Y74930D02*
X278380Y75180D01*
X304800Y165100D02*
X328930Y140970D01*
X401320D01*
X298450Y158600D02*
X298600D01*
X323850Y133350D01*
X409970Y149697D02*
Y153280D01*
X404599Y144326D02*
X409970Y149697D01*
X404599Y143366D02*
Y144326D01*
X401762Y140528D02*
X404599Y143366D01*
X401320Y140970D02*
X401762Y140528D01*
X323850Y133350D02*
X410040D01*
X429970Y153280D01*
X556260Y167640D02*
X557392D01*
X559932Y170180D02*
X572468D01*
X557392Y167640D02*
X559932Y170180D01*
X565150Y153670D02*
X598170Y186690D01*
X565150Y146050D02*
Y153670D01*
X552450Y176530D02*
X573161D01*
X22860Y215357D02*
Y218440D01*
Y221523D01*
X13480Y215748D02*
X17865Y211362D01*
X28845Y228440D02*
X58150D01*
X28845Y223440D02*
X37195D01*
X24777D02*
X28845D01*
X14437Y210642D02*
X17146D01*
X13480Y209686D02*
X14437Y210642D01*
X17146D02*
X17865Y211362D01*
X20788Y208440D02*
X28845D01*
X17865Y211362D02*
X20788Y208440D01*
X17865Y211362D02*
Y211362D01*
X28845Y213440D02*
X37195D01*
X24777D02*
X28845D01*
X570230Y123190D02*
X570305D01*
X601681Y154566D01*
X46647Y209250D02*
X47603Y210207D01*
X44067Y209250D02*
X46647D01*
X613392Y161290D02*
X613687Y160995D01*
X597999Y161290D02*
X613392D01*
X601681Y154566D02*
X601687D01*
X570202Y133493D02*
X597999Y161290D01*
X619760Y285191D02*
X628369Y293800D01*
X630000D01*
X608330Y309880D02*
X615500Y317050D01*
X624317Y344600D02*
X630000D01*
X619064Y339347D02*
X624317Y344600D01*
X618747Y339347D02*
X619064D01*
X615500Y317050D02*
X627850D01*
X630000Y319200D01*
X58150Y228440D02*
X58459Y228749D01*
X20788Y228440D02*
X28845D01*
X13480Y221132D02*
X20788Y228440D01*
X28845Y208440D02*
X37195D01*
X13480Y215748D02*
Y221132D01*
X22860Y221523D02*
X24777Y223440D01*
X22860Y215357D02*
X24777Y213440D01*
X19980Y218440D02*
X22860D01*
X37195Y223440D02*
X54690D01*
X59690Y218440D01*
X58733Y205007D02*
X59690Y204050D01*
X58733Y205007D02*
Y208269D01*
X50296Y216707D02*
X58733Y208269D01*
X37195Y213440D02*
X41645D01*
X44911Y216707D02*
X50296D01*
X41645Y213440D02*
X44911Y216707D01*
X43257Y208440D02*
X44067Y209250D01*
X37195Y208440D02*
X43257D01*
D11*
X516890Y212090D02*
X544830D01*
D12*
X334645Y263525D02*
X335280Y264160D01*
X334645Y160655D02*
Y263525D01*
X334010Y160020D02*
X334645Y160655D01*
X480000Y230000D02*
X484950Y234950D01*
D58*
X115570Y67640D02*
Y135890D01*
X144780Y337820D02*
Y361950D01*
X550749Y293801D02*
X552450Y292100D01*
X497840Y351790D02*
X550749Y298881D01*
Y293801D02*
Y298881D01*
X148000Y33000D02*
X215000Y100000D01*
Y124860D01*
X236220Y310731D02*
Y379730D01*
X294445Y183507D02*
Y252506D01*
X236220Y310731D02*
X294445Y252506D01*
X283425Y119333D02*
Y172486D01*
Y119333D02*
X289560Y113198D01*
X283425Y172486D02*
X294445Y183507D01*
X289560Y63500D02*
Y113198D01*
D59*
X484950Y234950D02*
X490450D01*
X493250Y237750D02*
Y300826D01*
X499110Y306686D02*
Y307340D01*
X490450Y234950D02*
X493250Y237750D01*
Y300826D02*
X499110Y306686D01*
X386032Y166922D02*
X462712D01*
X479132Y183342D01*
X369970Y153280D02*
X372390D01*
X479132Y199132D02*
X480000Y200000D01*
X372390Y153280D02*
X386032Y166922D01*
X479132Y183342D02*
Y199132D01*
D60*
X290000Y335000D02*
D03*
X725000Y320000D02*
D03*
X73000Y105000D02*
D03*
X560000Y65000D02*
D03*
D61*
X760730Y269240D02*
D03*
X630000Y60000D02*
D03*
Y370000D02*
D03*
D62*
X148000Y33000D02*
D03*
X198000D02*
D03*
Y397000D02*
D03*
X148000D02*
D03*
X165000Y313690D02*
D03*
X215000D02*
D03*
D63*
X62880Y186100D02*
D03*
Y243900D02*
D03*
X92710Y73660D02*
D03*
X99539Y141449D02*
D03*
X208280Y361950D02*
D03*
X250190Y360680D02*
D03*
X272220Y336052D02*
D03*
X351790Y157480D02*
D03*
Y107950D02*
D03*
X309880Y99060D02*
D03*
X173990Y369570D02*
D03*
X124645Y381719D02*
D03*
X457645Y182586D02*
D03*
X379487Y100323D02*
D03*
X654820Y166275D02*
D03*
X656183Y140661D02*
D03*
X651006Y77171D02*
D03*
X500732Y176882D02*
D03*
X457491Y268826D02*
D03*
X505469Y218169D02*
D03*
X534451Y238140D02*
D03*
X519595Y290258D02*
D03*
X511199Y316322D02*
D03*
X551084Y316751D02*
D03*
X443008Y314606D02*
D03*
X403980Y302169D02*
D03*
X652780Y255270D02*
D03*
X579029Y233909D02*
D03*
X771520Y183803D02*
D03*
X778456Y141260D02*
D03*
X678110Y40452D02*
D03*
X146323Y11782D02*
D03*
X176381Y27504D02*
D03*
X214299Y63573D02*
D03*
X145861Y65423D02*
D03*
X44450Y125730D02*
D03*
X264160Y106680D02*
D03*
X137160Y132080D02*
D03*
X265166Y378946D02*
D03*
X358114Y311895D02*
D03*
X526613Y356178D02*
D03*
X520443Y383230D02*
D03*
X594005Y380620D02*
D03*
X588310Y344788D02*
D03*
X661670Y363220D02*
D03*
X654050Y330200D02*
D03*
X730250Y339090D02*
D03*
X720090Y271780D02*
D03*
X701040Y137160D02*
D03*
X610870Y77470D02*
D03*
X609600Y101600D02*
D03*
X608330Y121920D02*
D03*
X420370Y81280D02*
D03*
X429260Y96520D02*
D03*
X438150Y111760D02*
D03*
X450850Y127000D02*
D03*
X457200Y142240D02*
D03*
X521970Y111760D02*
D03*
Y127000D02*
D03*
Y142240D02*
D03*
X562610Y90170D02*
D03*
X508000Y41910D02*
D03*
X599440Y45720D02*
D03*
X441960Y62230D02*
D03*
X361950Y69850D02*
D03*
X351790Y41910D02*
D03*
X259080Y45720D02*
D03*
X302260Y74930D02*
D03*
X702310Y165735D02*
D03*
X715010Y151130D02*
D03*
X608330Y190500D02*
D03*
X627776Y197724D02*
D03*
X544830Y212090D02*
D03*
X516890D02*
D03*
X594360Y229870D02*
D03*
X587642Y212783D02*
D03*
X587860Y222320D02*
D03*
X593090Y274320D02*
D03*
X599478Y206382D02*
D03*
X619681Y213914D02*
D03*
X621030Y204470D02*
D03*
X499110Y307340D02*
D03*
X551180Y328930D02*
D03*
X572921Y327811D02*
D03*
X335280Y264160D02*
D03*
X730250Y209550D02*
D03*
X528320Y172720D02*
D03*
X548640Y149860D02*
D03*
X334010Y160020D02*
D03*
X337820Y149860D02*
D03*
X236220Y379730D02*
D03*
X290830Y165100D02*
D03*
X289560Y63500D02*
D03*
X278130Y74930D02*
D03*
X278630Y93980D02*
D03*
X311150Y172720D02*
D03*
X250190Y326390D02*
D03*
X298450Y158600D02*
D03*
X556260Y167640D02*
D03*
X588629Y202549D02*
D03*
X598170Y186690D02*
D03*
X552450Y176530D02*
D03*
X13480Y209686D02*
D03*
X570230Y123190D02*
D03*
X47603Y210207D02*
D03*
X613687Y160995D02*
D03*
X601687Y154566D02*
D03*
X657824Y209586D02*
D03*
X570202Y133493D02*
D03*
X565150Y146050D02*
D03*
X58459Y228749D02*
D03*
X19980Y218440D02*
D03*
X59690Y204050D02*
D03*
Y218440D02*
D03*
D64*
X400000Y215000D02*
D03*
X429970Y153280D02*
D03*
X409970D02*
D03*
X389970D02*
D03*
X369970D02*
D03*
X354000Y276720D02*
D03*
X374000D02*
D03*
X394000D02*
D03*
X414000D02*
D03*
X190000Y99860D02*
D03*
X165000Y124860D02*
D03*
X190000D02*
D03*
X215000D02*
D03*
D65*
X145000Y104860D02*
D03*
X235000D02*
D03*
D66*
X115570Y135890D02*
D03*
X144780Y363220D02*
D03*
X552450Y292100D02*
D03*
X497840Y351790D02*
D03*
X144780Y337820D02*
D03*
X115570Y67640D02*
D03*
D67*
X37195Y208440D02*
D03*
Y213440D02*
D03*
Y223440D02*
D03*
Y228440D02*
D03*
X28845D02*
D03*
Y223440D02*
D03*
Y213440D02*
D03*
Y208440D02*
D03*
D68*
X37195Y218440D02*
D03*
X28845D02*
D03*
D69*
X480000Y230000D02*
D03*
Y200000D02*
D03*
D70*
X760730Y243840D02*
D03*
X630000Y136200D02*
D03*
Y110800D02*
D03*
Y85400D02*
D03*
Y344600D02*
D03*
Y319200D02*
D03*
Y293800D02*
D03*
M02*
