M48
; DRILL file {KiCad 8.0.4-8.0.4-0~ubuntu22.04.1} date 2024-09-06T10:46:15-0400
; FORMAT={-:-/ absolute / metric / decimal}
; #@! TF.CreationDate,2024-09-06T10:46:15-04:00
; #@! TF.GenerationSoftware,Kicad,Pcbnew,8.0.4-8.0.4-0~ubuntu22.04.1
; #@! TF.FileFunction,MixedPlating,1,2
FMAT,2
METRIC
; #@! TA.AperFunction,Plated,PTH,ViaDrill
T1C0.300
; #@! TA.AperFunction,Plated,PTH,ComponentDrill
T2C1.000
; #@! TA.AperFunction,Plated,PTH,ComponentDrill
T3C2.200
; #@! TA.AperFunction,Plated,PTH,ComponentDrill
T4C2.700
; #@! TA.AperFunction,Plated,PTH,ComponentDrill
T5C3.200
; #@! TA.AperFunction,NonPlated,NPTH,ComponentDrill
T6C0.900
; #@! TA.AperFunction,NonPlated,NPTH,ComponentDrill
T7C1.200
%
G90
G05
T1
X13.5Y-14.5
X13.5Y-57.5
X13.5Y-64.5
X13.5Y-107.5
X13.5Y-114.5
X13.5Y-157.5
X13.5Y-164.5
X13.5Y-207.5
X13.5Y-214.5
X13.5Y-257.5
X13.598Y-32.582
X13.598Y-82.582
X13.598Y-132.582
X13.598Y-182.582
X13.598Y-232.582
X20.2Y-47.6
X20.2Y-97.6
X20.2Y-147.6
X20.2Y-197.6
X20.2Y-247.6
X20.4Y-49.6
X20.4Y-99.6
X20.4Y-149.6
X20.4Y-199.6
X20.4Y-249.6
X20.5Y-46.2
X20.5Y-96.2
X20.5Y-146.2
X20.5Y-196.2
X20.5Y-246.2
X21.8Y-52.7
X21.8Y-102.7
X21.8Y-152.7
X21.8Y-202.7
X21.8Y-252.7
X23.4Y-43.3
X23.4Y-93.3
X23.4Y-143.3
X23.4Y-193.3
X23.4Y-243.3
X23.5Y-14.5
X23.5Y-53.7
X23.5Y-57.5
X23.5Y-64.5
X23.5Y-103.7
X23.5Y-107.5
X23.5Y-114.5
X23.5Y-153.7
X23.5Y-157.5
X23.5Y-164.5
X23.5Y-203.7
X23.5Y-207.5
X23.5Y-214.5
X23.5Y-253.7
X23.5Y-257.5
X24.9Y-54.5
X24.9Y-104.5
X24.9Y-154.5
X24.9Y-204.5
X24.9Y-254.5
X25.2Y-42.5
X25.2Y-92.5
X25.2Y-142.5
X25.2Y-192.5
X25.2Y-242.5
X26.9Y-42.5
X26.9Y-92.5
X26.9Y-142.5
X26.9Y-192.5
X26.9Y-242.5
X28.8Y-53.8
X28.8Y-103.8
X28.8Y-153.8
X28.8Y-203.8
X28.8Y-253.8
X30.2Y-44.2
X30.2Y-94.2
X30.2Y-144.2
X30.2Y-194.2
X30.2Y-244.2
X30.326Y-52.426
X30.326Y-102.426
X30.326Y-152.426
X30.326Y-202.426
X30.326Y-252.426
X31.3Y-45.8
X31.3Y-95.8
X31.3Y-145.8
X31.3Y-195.8
X31.3Y-245.8
X31.5Y-51.2
X31.5Y-101.2
X31.5Y-151.2
X31.5Y-201.2
X31.5Y-251.2
X32.0Y-47.2
X32.0Y-97.2
X32.0Y-147.2
X32.0Y-197.2
X32.0Y-247.2
X33.5Y-14.5
X33.5Y-57.5
X33.5Y-64.5
X33.5Y-107.5
X33.5Y-114.5
X33.5Y-157.5
X33.5Y-164.5
X33.5Y-207.5
X33.5Y-214.5
X33.5Y-257.5
X36.402Y-39.317
X36.402Y-89.317
X36.402Y-139.317
X36.402Y-189.317
X36.402Y-239.317
X38.998Y-32.633
X38.998Y-82.633
X38.998Y-132.633
X38.998Y-182.633
X38.998Y-232.633
X43.5Y-14.5
X43.5Y-57.5
X43.5Y-64.5
X43.5Y-107.5
X43.5Y-114.5
X43.5Y-157.5
X43.5Y-164.5
X43.5Y-207.5
X43.5Y-214.5
X43.5Y-257.5
X44.9Y-52.4
X44.9Y-102.4
X44.9Y-152.4
X44.9Y-202.4
X44.9Y-252.4
X45.05Y-30.0
X45.05Y-80.0
X45.05Y-130.0
X45.05Y-180.0
X45.05Y-230.0
X46.05Y-30.0
X46.05Y-80.0
X46.05Y-130.0
X46.05Y-180.0
X46.05Y-230.0
X47.05Y-29.0
X47.05Y-30.0
X47.05Y-79.0
X47.05Y-80.0
X47.05Y-129.0
X47.05Y-130.0
X47.05Y-179.0
X47.05Y-180.0
X47.05Y-229.0
X47.05Y-230.0
X47.9Y-24.65
X47.9Y-74.65
X47.9Y-124.65
X47.9Y-174.65
X47.9Y-224.65
X48.05Y-29.0
X48.05Y-30.0
X48.05Y-79.0
X48.05Y-80.0
X48.05Y-129.0
X48.05Y-130.0
X48.05Y-179.0
X48.05Y-180.0
X48.05Y-229.0
X48.05Y-230.0
X48.9Y-49.9
X48.9Y-99.9
X48.9Y-149.9
X48.9Y-199.9
X48.9Y-249.9
X49.05Y-29.0
X49.05Y-30.0
X49.05Y-79.0
X49.05Y-80.0
X49.05Y-129.0
X49.05Y-130.0
X49.05Y-179.0
X49.05Y-180.0
X49.05Y-229.0
X49.05Y-230.0
X50.05Y-29.0
X50.05Y-30.0
X50.05Y-79.0
X50.05Y-80.0
X50.05Y-129.0
X50.05Y-130.0
X50.05Y-179.0
X50.05Y-180.0
X50.05Y-229.0
X50.05Y-230.0
X50.26Y-17.98
X50.26Y-67.98
X50.26Y-117.98
X50.26Y-167.98
X50.26Y-217.98
X51.8Y-19.8
X51.8Y-69.8
X51.8Y-119.8
X51.8Y-169.8
X51.8Y-219.8
X52.9Y-47.5
X52.9Y-97.5
X52.9Y-147.5
X52.9Y-197.5
X52.9Y-247.5
X53.5Y-14.5
X53.5Y-57.5
X53.5Y-64.5
X53.5Y-107.5
X53.5Y-114.5
X53.5Y-157.5
X53.5Y-164.5
X53.5Y-207.5
X53.5Y-214.5
X53.5Y-257.5
X57.1Y-44.7
X57.1Y-94.7
X57.1Y-144.7
X57.1Y-194.7
X57.1Y-244.7
X58.365Y-25.424
X58.365Y-75.424
X58.365Y-125.424
X58.365Y-175.424
X58.365Y-225.424
X59.115Y-18.924
X59.115Y-68.924
X59.115Y-118.924
X59.115Y-168.924
X59.115Y-218.924
X60.071Y-27.88
X60.071Y-77.88
X60.071Y-127.88
X60.071Y-177.88
X60.071Y-227.88
X61.615Y-17.424
X61.615Y-67.424
X61.615Y-117.424
X61.615Y-167.424
X61.615Y-217.424
X61.802Y-39.317
X61.802Y-89.317
X61.802Y-139.317
X61.802Y-189.317
X61.802Y-239.317
X63.5Y-14.5
X63.5Y-57.5
X63.5Y-64.5
X63.5Y-107.5
X63.5Y-114.5
X63.5Y-157.5
X63.5Y-164.5
X63.5Y-207.5
X63.5Y-214.5
X63.5Y-257.5
X64.373Y-32.658
X64.373Y-82.658
X64.373Y-132.658
X64.373Y-182.658
X64.373Y-232.658
X64.615Y-18.924
X64.615Y-68.924
X64.615Y-118.924
X64.615Y-168.924
X64.615Y-218.924
X66.115Y-24.424
X66.115Y-74.424
X66.115Y-124.424
X66.115Y-174.424
X66.115Y-224.424
X71.115Y-17.424
X71.115Y-67.424
X71.115Y-117.424
X71.115Y-167.424
X71.115Y-217.424
X73.5Y-14.5
X73.5Y-57.5
X73.5Y-64.5
X73.5Y-107.5
X73.5Y-114.5
X73.5Y-157.5
X73.5Y-164.5
X73.5Y-207.5
X73.5Y-214.5
X73.5Y-257.5
X81.4Y-25.4
X81.4Y-75.4
X81.4Y-125.4
X81.4Y-175.4
X81.4Y-225.4
X81.7Y-24.1
X81.7Y-74.1
X81.7Y-124.1
X81.7Y-174.1
X81.7Y-224.1
X81.8Y-26.7
X81.8Y-76.7
X81.8Y-126.7
X81.8Y-176.7
X81.8Y-226.7
X83.5Y-14.5
X83.5Y-29.2
X83.5Y-57.5
X83.5Y-64.5
X83.5Y-79.2
X83.5Y-107.5
X83.5Y-114.5
X83.5Y-129.2
X83.5Y-157.5
X83.5Y-164.5
X83.5Y-179.2
X83.5Y-207.5
X83.5Y-214.5
X83.5Y-229.2
X83.5Y-257.5
X87.177Y-39.317
X87.177Y-89.317
X87.177Y-139.317
X87.177Y-189.317
X87.177Y-239.317
X88.5Y-18.0
X88.5Y-54.0
X88.5Y-68.0
X88.5Y-104.0
X88.5Y-118.0
X88.5Y-154.0
X88.5Y-168.0
X88.5Y-204.0
X88.5Y-218.0
X88.5Y-254.0
X89.823Y-32.683
X89.823Y-82.683
X89.823Y-132.683
X89.823Y-182.683
X89.823Y-232.683
X93.5Y-14.5
X93.5Y-42.8
X93.5Y-57.5
X93.5Y-64.5
X93.5Y-92.8
X93.5Y-107.5
X93.5Y-114.5
X93.5Y-142.8
X93.5Y-157.5
X93.5Y-164.5
X93.5Y-192.8
X93.5Y-207.5
X93.5Y-214.5
X93.5Y-242.8
X93.5Y-257.5
X95.2Y-45.3
X95.2Y-95.3
X95.2Y-145.3
X95.2Y-195.3
X95.2Y-245.3
X95.3Y-47.9
X95.3Y-97.9
X95.3Y-147.9
X95.3Y-197.9
X95.3Y-247.9
X95.6Y-46.6
X95.6Y-96.6
X95.6Y-146.6
X95.6Y-196.6
X95.6Y-246.6
X103.5Y-14.5
X103.5Y-57.5
X103.5Y-64.5
X103.5Y-107.5
X103.5Y-114.5
X103.5Y-157.5
X103.5Y-164.5
X103.5Y-207.5
X103.5Y-214.5
X103.5Y-257.5
X105.885Y-54.576
X105.885Y-104.576
X105.885Y-154.576
X105.885Y-204.576
X105.885Y-254.576
X110.885Y-47.576
X110.885Y-97.576
X110.885Y-147.576
X110.885Y-197.576
X110.885Y-247.576
X112.385Y-53.076
X112.385Y-103.076
X112.385Y-153.076
X112.385Y-203.076
X112.385Y-253.076
X112.627Y-39.342
X112.627Y-89.342
X112.627Y-139.342
X112.627Y-189.342
X112.627Y-239.342
X113.5Y-14.5
X113.5Y-57.5
X113.5Y-64.5
X113.5Y-107.5
X113.5Y-114.5
X113.5Y-157.5
X113.5Y-164.5
X113.5Y-207.5
X113.5Y-214.5
X113.5Y-257.5
X115.198Y-32.683
X115.198Y-82.683
X115.198Y-132.683
X115.198Y-182.683
X115.198Y-232.683
X115.385Y-54.576
X115.385Y-104.576
X115.385Y-154.576
X115.385Y-204.576
X115.385Y-254.576
X116.929Y-44.12
X116.929Y-94.12
X116.929Y-144.12
X116.929Y-194.12
X116.929Y-244.12
X117.885Y-53.076
X117.885Y-103.076
X117.885Y-153.076
X117.885Y-203.076
X117.885Y-253.076
X118.635Y-46.576
X118.635Y-96.576
X118.635Y-146.576
X118.635Y-196.576
X118.635Y-246.576
X119.9Y-27.3
X119.9Y-77.3
X119.9Y-127.3
X119.9Y-177.3
X119.9Y-227.3
X123.5Y-14.5
X123.5Y-57.5
X123.5Y-64.5
X123.5Y-107.5
X123.5Y-114.5
X123.5Y-157.5
X123.5Y-164.5
X123.5Y-207.5
X123.5Y-214.5
X123.5Y-257.5
X124.1Y-24.5
X124.1Y-74.5
X124.1Y-124.5
X124.1Y-174.5
X124.1Y-224.5
X125.2Y-52.2
X125.2Y-102.2
X125.2Y-152.2
X125.2Y-202.2
X125.2Y-252.2
X126.74Y-54.02
X126.74Y-104.02
X126.74Y-154.02
X126.74Y-204.02
X126.74Y-254.02
X126.95Y-42.0
X126.95Y-43.0
X126.95Y-92.0
X126.95Y-93.0
X126.95Y-142.0
X126.95Y-143.0
X126.95Y-192.0
X126.95Y-193.0
X126.95Y-242.0
X126.95Y-243.0
X127.95Y-42.0
X127.95Y-43.0
X127.95Y-92.0
X127.95Y-93.0
X127.95Y-142.0
X127.95Y-143.0
X127.95Y-192.0
X127.95Y-193.0
X127.95Y-242.0
X127.95Y-243.0
X128.1Y-22.1
X128.1Y-72.1
X128.1Y-122.1
X128.1Y-172.1
X128.1Y-222.1
X128.95Y-42.0
X128.95Y-43.0
X128.95Y-92.0
X128.95Y-93.0
X128.95Y-142.0
X128.95Y-143.0
X128.95Y-192.0
X128.95Y-193.0
X128.95Y-242.0
X128.95Y-243.0
X129.1Y-47.35
X129.1Y-97.35
X129.1Y-147.35
X129.1Y-197.35
X129.1Y-247.35
X129.95Y-42.0
X129.95Y-43.0
X129.95Y-92.0
X129.95Y-93.0
X129.95Y-142.0
X129.95Y-143.0
X129.95Y-192.0
X129.95Y-193.0
X129.95Y-242.0
X129.95Y-243.0
X130.95Y-42.0
X130.95Y-92.0
X130.95Y-142.0
X130.95Y-192.0
X130.95Y-242.0
X131.95Y-42.0
X131.95Y-92.0
X131.95Y-142.0
X131.95Y-192.0
X131.95Y-242.0
X132.1Y-19.6
X132.1Y-69.6
X132.1Y-119.6
X132.1Y-169.6
X132.1Y-219.6
X133.5Y-14.5
X133.5Y-57.5
X133.5Y-64.5
X133.5Y-107.5
X133.5Y-114.5
X133.5Y-157.5
X133.5Y-164.5
X133.5Y-207.5
X133.5Y-214.5
X133.5Y-257.5
X138.002Y-39.367
X138.002Y-89.367
X138.002Y-139.367
X138.002Y-189.367
X138.002Y-239.367
X140.598Y-32.683
X140.598Y-82.683
X140.598Y-132.683
X140.598Y-182.683
X140.598Y-232.683
X143.5Y-14.5
X143.5Y-57.5
X143.5Y-64.5
X143.5Y-107.5
X143.5Y-114.5
X143.5Y-157.5
X143.5Y-164.5
X143.5Y-207.5
X143.5Y-214.5
X143.5Y-257.5
X145.0Y-24.8
X145.0Y-74.8
X145.0Y-124.8
X145.0Y-174.8
X145.0Y-224.8
X145.5Y-20.8
X145.5Y-70.8
X145.5Y-120.8
X145.5Y-170.8
X145.5Y-220.8
X145.7Y-26.2
X145.7Y-76.2
X145.7Y-126.2
X145.7Y-176.2
X145.7Y-226.2
X146.674Y-19.574
X146.674Y-69.574
X146.674Y-119.574
X146.674Y-169.574
X146.674Y-219.574
X146.8Y-27.8
X146.8Y-77.8
X146.8Y-127.8
X146.8Y-177.8
X146.8Y-227.8
X148.2Y-18.2
X148.2Y-68.2
X148.2Y-118.2
X148.2Y-168.2
X148.2Y-218.2
X150.1Y-29.5
X150.1Y-79.5
X150.1Y-129.5
X150.1Y-179.5
X150.1Y-229.5
X151.8Y-29.5
X151.8Y-79.5
X151.8Y-129.5
X151.8Y-179.5
X151.8Y-229.5
X152.1Y-17.5
X152.1Y-67.5
X152.1Y-117.5
X152.1Y-167.5
X152.1Y-217.5
X153.5Y-14.5
X153.5Y-18.3
X153.5Y-57.5
X153.5Y-64.5
X153.5Y-68.3
X153.5Y-107.5
X153.5Y-114.5
X153.5Y-118.3
X153.5Y-157.5
X153.5Y-164.5
X153.5Y-168.3
X153.5Y-207.5
X153.5Y-214.5
X153.5Y-218.3
X153.5Y-257.5
X153.6Y-28.7
X153.6Y-78.7
X153.6Y-128.7
X153.6Y-178.7
X153.6Y-228.7
X155.2Y-19.3
X155.2Y-69.3
X155.2Y-119.3
X155.2Y-169.3
X155.2Y-219.3
X156.5Y-25.8
X156.5Y-75.8
X156.5Y-125.8
X156.5Y-175.8
X156.5Y-225.8
X156.6Y-22.4
X156.6Y-72.4
X156.6Y-122.4
X156.6Y-172.4
X156.6Y-222.4
X156.8Y-24.4
X156.8Y-74.4
X156.8Y-124.4
X156.8Y-174.4
X156.8Y-224.4
X163.402Y-39.418
X163.402Y-89.418
X163.402Y-139.418
X163.402Y-189.418
X163.402Y-239.418
X163.5Y-14.5
X163.5Y-57.5
X163.5Y-64.5
X163.5Y-107.5
X163.5Y-114.5
X163.5Y-157.5
X163.5Y-164.5
X163.5Y-207.5
X163.5Y-214.5
X163.5Y-257.5
T2
X71.395Y-30.4
X71.395Y-80.4
X71.395Y-130.4
X71.395Y-180.4
X71.395Y-230.4
X105.605Y-41.6
X105.605Y-91.6
X105.605Y-141.6
X105.605Y-191.6
X105.605Y-241.6
T3
X14.555Y-53.9
X14.555Y-103.9
X14.555Y-153.9
X14.555Y-203.9
X14.555Y-253.9
X162.445Y-18.1
X162.445Y-68.1
X162.445Y-118.1
X162.445Y-168.1
X162.445Y-218.1
T4
X14.555Y-48.1
X14.555Y-98.1
X14.555Y-148.1
X14.555Y-198.1
X14.555Y-248.1
X162.445Y-23.9
X162.445Y-73.9
X162.445Y-123.9
X162.445Y-173.9
X162.445Y-223.9
T5
X14.555Y-41.3
X14.555Y-91.3
X14.555Y-141.3
X14.555Y-191.3
X14.555Y-241.3
X162.445Y-30.7
X162.445Y-80.7
X162.445Y-130.7
X162.445Y-180.7
X162.445Y-230.7
T6
X13.895Y-22.0
X13.895Y-25.0
X13.895Y-72.0
X13.895Y-75.0
X13.895Y-122.0
X13.895Y-125.0
X13.895Y-172.0
X13.895Y-175.0
X13.895Y-222.0
X13.895Y-225.0
X163.105Y-47.0
X163.105Y-50.0
X163.105Y-97.0
X163.105Y-100.0
X163.105Y-147.0
X163.105Y-150.0
X163.105Y-197.0
X163.105Y-200.0
X163.105Y-247.0
X163.105Y-250.0
T7
X23.445Y-23.5
X23.445Y-73.5
X23.445Y-123.5
X23.445Y-173.5
X23.445Y-223.5
X30.945Y-23.5
X30.945Y-73.5
X30.945Y-123.5
X30.945Y-173.5
X30.945Y-223.5
X146.055Y-48.5
X146.055Y-98.5
X146.055Y-148.5
X146.055Y-198.5
X146.055Y-248.5
X153.555Y-48.5
X153.555Y-98.5
X153.555Y-148.5
X153.555Y-198.5
X153.555Y-248.5
M30
