M48
METRIC,TZ
T1C0.900
T2C1.200
%
G90
G05
T1
X13895Y-22000
X13895Y-25000
X13895Y-72000
X13895Y-75000
X13895Y-122000
X13895Y-125000
X13895Y-172000
X13895Y-175000
X13895Y-222000
X13895Y-225000
X163105Y-47000
X163105Y-50000
X163105Y-97000
X163105Y-100000
X163105Y-147000
X163105Y-150000
X163105Y-197000
X163105Y-200000
X163105Y-247000
X163105Y-250000
T2
X23445Y-23500
X23445Y-73500
X23445Y-123500
X23445Y-173500
X23445Y-223500
X30945Y-23500
X30945Y-73500
X30945Y-123500
X30945Y-173500
X30945Y-223500
X146055Y-48500
X146055Y-98500
X146055Y-148500
X146055Y-198500
X146055Y-248500
X153555Y-48500
X153555Y-98500
X153555Y-148500
X153555Y-198500
X153555Y-248500
M30
