M48
METRIC,TZ
T1C0.300
T2C1.000
T3C2.200
T4C2.700
T5C3.200
%
G90
G05
T1
X13500Y-14500
X13500Y-57500
X13500Y-64500
X13500Y-107500
X13500Y-114500
X13500Y-157500
X13500Y-164500
X13500Y-207500
X13500Y-214500
X13500Y-257500
X13598Y-32582
X13598Y-82582
X13598Y-132582
X13598Y-182582
X13598Y-232582
X20200Y-47600
X20200Y-97600
X20200Y-147600
X20200Y-197600
X20200Y-247600
X20400Y-49600
X20400Y-99600
X20400Y-149600
X20400Y-199600
X20400Y-249600
X20500Y-46200
X20500Y-96200
X20500Y-146200
X20500Y-196200
X20500Y-246200
X21800Y-52700
X21800Y-102700
X21800Y-152700
X21800Y-202700
X21800Y-252700
X23400Y-43300
X23400Y-93300
X23400Y-143300
X23400Y-193300
X23400Y-243300
X23500Y-14500
X23500Y-53700
X23500Y-57500
X23500Y-64500
X23500Y-103700
X23500Y-107500
X23500Y-114500
X23500Y-153700
X23500Y-157500
X23500Y-164500
X23500Y-203700
X23500Y-207500
X23500Y-214500
X23500Y-253700
X23500Y-257500
X24900Y-54500
X24900Y-104500
X24900Y-154500
X24900Y-204500
X24900Y-254500
X25200Y-42500
X25200Y-92500
X25200Y-142500
X25200Y-192500
X25200Y-242500
X26900Y-42500
X26900Y-92500
X26900Y-142500
X26900Y-192500
X26900Y-242500
X28800Y-53800
X28800Y-103800
X28800Y-153800
X28800Y-203800
X28800Y-253800
X30200Y-44200
X30200Y-94200
X30200Y-144200
X30200Y-194200
X30200Y-244200
X30326Y-52426
X30326Y-102426
X30326Y-152426
X30326Y-202426
X30326Y-252426
X31300Y-45800
X31300Y-95800
X31300Y-145800
X31300Y-195800
X31300Y-245800
X31500Y-51200
X31500Y-101200
X31500Y-151200
X31500Y-201200
X31500Y-251200
X32000Y-47200
X32000Y-97200
X32000Y-147200
X32000Y-197200
X32000Y-247200
X33500Y-14500
X33500Y-57500
X33500Y-64500
X33500Y-107500
X33500Y-114500
X33500Y-157500
X33500Y-164500
X33500Y-207500
X33500Y-214500
X33500Y-257500
X36402Y-39317
X36402Y-89317
X36402Y-139317
X36402Y-189317
X36402Y-239317
X38998Y-32633
X38998Y-82633
X38998Y-132633
X38998Y-182633
X38998Y-232633
X43500Y-14500
X43500Y-57500
X43500Y-64500
X43500Y-107500
X43500Y-114500
X43500Y-157500
X43500Y-164500
X43500Y-207500
X43500Y-214500
X43500Y-257500
X44900Y-52400
X44900Y-102400
X44900Y-152400
X44900Y-202400
X44900Y-252400
X45050Y-30000
X45050Y-80000
X45050Y-130000
X45050Y-180000
X45050Y-230000
X46050Y-30000
X46050Y-80000
X46050Y-130000
X46050Y-180000
X46050Y-230000
X47050Y-29000
X47050Y-30000
X47050Y-79000
X47050Y-80000
X47050Y-129000
X47050Y-130000
X47050Y-179000
X47050Y-180000
X47050Y-229000
X47050Y-230000
X47900Y-24650
X47900Y-74650
X47900Y-124650
X47900Y-174650
X47900Y-224650
X48050Y-29000
X48050Y-30000
X48050Y-79000
X48050Y-80000
X48050Y-129000
X48050Y-130000
X48050Y-179000
X48050Y-180000
X48050Y-229000
X48050Y-230000
X48900Y-49900
X48900Y-99900
X48900Y-149900
X48900Y-199900
X48900Y-249900
X49050Y-29000
X49050Y-30000
X49050Y-79000
X49050Y-80000
X49050Y-129000
X49050Y-130000
X49050Y-179000
X49050Y-180000
X49050Y-229000
X49050Y-230000
X50050Y-29000
X50050Y-30000
X50050Y-79000
X50050Y-80000
X50050Y-129000
X50050Y-130000
X50050Y-179000
X50050Y-180000
X50050Y-229000
X50050Y-230000
X50260Y-17980
X50260Y-67980
X50260Y-117980
X50260Y-167980
X50260Y-217980
X51800Y-19800
X51800Y-69800
X51800Y-119800
X51800Y-169800
X51800Y-219800
X52900Y-47500
X52900Y-97500
X52900Y-147500
X52900Y-197500
X52900Y-247500
X53500Y-14500
X53500Y-57500
X53500Y-64500
X53500Y-107500
X53500Y-114500
X53500Y-157500
X53500Y-164500
X53500Y-207500
X53500Y-214500
X53500Y-257500
X57100Y-44700
X57100Y-94700
X57100Y-144700
X57100Y-194700
X57100Y-244700
X58365Y-25424
X58365Y-75424
X58365Y-125424
X58365Y-175424
X58365Y-225424
X59115Y-18924
X59115Y-68924
X59115Y-118924
X59115Y-168924
X59115Y-218924
X60071Y-27880
X60071Y-77880
X60071Y-127880
X60071Y-177880
X60071Y-227880
X61615Y-17424
X61615Y-67424
X61615Y-117424
X61615Y-167424
X61615Y-217424
X61802Y-39317
X61802Y-89317
X61802Y-139317
X61802Y-189317
X61802Y-239317
X63500Y-14500
X63500Y-57500
X63500Y-64500
X63500Y-107500
X63500Y-114500
X63500Y-157500
X63500Y-164500
X63500Y-207500
X63500Y-214500
X63500Y-257500
X64373Y-32658
X64373Y-82658
X64373Y-132658
X64373Y-182658
X64373Y-232658
X64615Y-18924
X64615Y-68924
X64615Y-118924
X64615Y-168924
X64615Y-218924
X66115Y-24424
X66115Y-74424
X66115Y-124424
X66115Y-174424
X66115Y-224424
X71115Y-17424
X71115Y-67424
X71115Y-117424
X71115Y-167424
X71115Y-217424
X73500Y-14500
X73500Y-57500
X73500Y-64500
X73500Y-107500
X73500Y-114500
X73500Y-157500
X73500Y-164500
X73500Y-207500
X73500Y-214500
X73500Y-257500
X81400Y-25400
X81400Y-75400
X81400Y-125400
X81400Y-175400
X81400Y-225400
X81700Y-24100
X81700Y-74100
X81700Y-124100
X81700Y-174100
X81700Y-224100
X81800Y-26700
X81800Y-76700
X81800Y-126700
X81800Y-176700
X81800Y-226700
X83500Y-14500
X83500Y-29200
X83500Y-57500
X83500Y-64500
X83500Y-79200
X83500Y-107500
X83500Y-114500
X83500Y-129200
X83500Y-157500
X83500Y-164500
X83500Y-179200
X83500Y-207500
X83500Y-214500
X83500Y-229200
X83500Y-257500
X87177Y-39317
X87177Y-89317
X87177Y-139317
X87177Y-189317
X87177Y-239317
X88500Y-18000
X88500Y-54000
X88500Y-68000
X88500Y-104000
X88500Y-118000
X88500Y-154000
X88500Y-168000
X88500Y-204000
X88500Y-218000
X88500Y-254000
X89823Y-32683
X89823Y-82683
X89823Y-132683
X89823Y-182683
X89823Y-232683
X93500Y-14500
X93500Y-42800
X93500Y-57500
X93500Y-64500
X93500Y-92800
X93500Y-107500
X93500Y-114500
X93500Y-142800
X93500Y-157500
X93500Y-164500
X93500Y-192800
X93500Y-207500
X93500Y-214500
X93500Y-242800
X93500Y-257500
X95200Y-45300
X95200Y-95300
X95200Y-145300
X95200Y-195300
X95200Y-245300
X95300Y-47900
X95300Y-97900
X95300Y-147900
X95300Y-197900
X95300Y-247900
X95600Y-46600
X95600Y-96600
X95600Y-146600
X95600Y-196600
X95600Y-246600
X103500Y-14500
X103500Y-57500
X103500Y-64500
X103500Y-107500
X103500Y-114500
X103500Y-157500
X103500Y-164500
X103500Y-207500
X103500Y-214500
X103500Y-257500
X105885Y-54576
X105885Y-104576
X105885Y-154576
X105885Y-204576
X105885Y-254576
X110885Y-47576
X110885Y-97576
X110885Y-147576
X110885Y-197576
X110885Y-247576
X112385Y-53076
X112385Y-103076
X112385Y-153076
X112385Y-203076
X112385Y-253076
X112627Y-39342
X112627Y-89342
X112627Y-139342
X112627Y-189342
X112627Y-239342
X113500Y-14500
X113500Y-57500
X113500Y-64500
X113500Y-107500
X113500Y-114500
X113500Y-157500
X113500Y-164500
X113500Y-207500
X113500Y-214500
X113500Y-257500
X115198Y-32683
X115198Y-82683
X115198Y-132683
X115198Y-182683
X115198Y-232683
X115385Y-54576
X115385Y-104576
X115385Y-154576
X115385Y-204576
X115385Y-254576
X116929Y-44120
X116929Y-94120
X116929Y-144120
X116929Y-194120
X116929Y-244120
X117885Y-53076
X117885Y-103076
X117885Y-153076
X117885Y-203076
X117885Y-253076
X118635Y-46576
X118635Y-96576
X118635Y-146576
X118635Y-196576
X118635Y-246576
X119900Y-27300
X119900Y-77300
X119900Y-127300
X119900Y-177300
X119900Y-227300
X123500Y-14500
X123500Y-57500
X123500Y-64500
X123500Y-107500
X123500Y-114500
X123500Y-157500
X123500Y-164500
X123500Y-207500
X123500Y-214500
X123500Y-257500
X124100Y-24500
X124100Y-74500
X124100Y-124500
X124100Y-174500
X124100Y-224500
X125200Y-52200
X125200Y-102200
X125200Y-152200
X125200Y-202200
X125200Y-252200
X126740Y-54020
X126740Y-104020
X126740Y-154020
X126740Y-204020
X126740Y-254020
X126950Y-42000
X126950Y-43000
X126950Y-92000
X126950Y-93000
X126950Y-142000
X126950Y-143000
X126950Y-192000
X126950Y-193000
X126950Y-242000
X126950Y-243000
X127950Y-42000
X127950Y-43000
X127950Y-92000
X127950Y-93000
X127950Y-142000
X127950Y-143000
X127950Y-192000
X127950Y-193000
X127950Y-242000
X127950Y-243000
X128100Y-22100
X128100Y-72100
X128100Y-122100
X128100Y-172100
X128100Y-222100
X128950Y-42000
X128950Y-43000
X128950Y-92000
X128950Y-93000
X128950Y-142000
X128950Y-143000
X128950Y-192000
X128950Y-193000
X128950Y-242000
X128950Y-243000
X129100Y-47350
X129100Y-97350
X129100Y-147350
X129100Y-197350
X129100Y-247350
X129950Y-42000
X129950Y-43000
X129950Y-92000
X129950Y-93000
X129950Y-142000
X129950Y-143000
X129950Y-192000
X129950Y-193000
X129950Y-242000
X129950Y-243000
X130950Y-42000
X130950Y-92000
X130950Y-142000
X130950Y-192000
X130950Y-242000
X131950Y-42000
X131950Y-92000
X131950Y-142000
X131950Y-192000
X131950Y-242000
X132100Y-19600
X132100Y-69600
X132100Y-119600
X132100Y-169600
X132100Y-219600
X133500Y-14500
X133500Y-57500
X133500Y-64500
X133500Y-107500
X133500Y-114500
X133500Y-157500
X133500Y-164500
X133500Y-207500
X133500Y-214500
X133500Y-257500
X138002Y-39367
X138002Y-89367
X138002Y-139367
X138002Y-189367
X138002Y-239367
X140598Y-32683
X140598Y-82683
X140598Y-132683
X140598Y-182683
X140598Y-232683
X143500Y-14500
X143500Y-57500
X143500Y-64500
X143500Y-107500
X143500Y-114500
X143500Y-157500
X143500Y-164500
X143500Y-207500
X143500Y-214500
X143500Y-257500
X145000Y-24800
X145000Y-74800
X145000Y-124800
X145000Y-174800
X145000Y-224800
X145500Y-20800
X145500Y-70800
X145500Y-120800
X145500Y-170800
X145500Y-220800
X145700Y-26200
X145700Y-76200
X145700Y-126200
X145700Y-176200
X145700Y-226200
X146674Y-19574
X146674Y-69574
X146674Y-119574
X146674Y-169574
X146674Y-219574
X146800Y-27800
X146800Y-77800
X146800Y-127800
X146800Y-177800
X146800Y-227800
X148200Y-18200
X148200Y-68200
X148200Y-118200
X148200Y-168200
X148200Y-218200
X150100Y-29500
X150100Y-79500
X150100Y-129500
X150100Y-179500
X150100Y-229500
X151800Y-29500
X151800Y-79500
X151800Y-129500
X151800Y-179500
X151800Y-229500
X152100Y-17500
X152100Y-67500
X152100Y-117500
X152100Y-167500
X152100Y-217500
X153500Y-14500
X153500Y-18300
X153500Y-57500
X153500Y-64500
X153500Y-68300
X153500Y-107500
X153500Y-114500
X153500Y-118300
X153500Y-157500
X153500Y-164500
X153500Y-168300
X153500Y-207500
X153500Y-214500
X153500Y-218300
X153500Y-257500
X153600Y-28700
X153600Y-78700
X153600Y-128700
X153600Y-178700
X153600Y-228700
X155200Y-19300
X155200Y-69300
X155200Y-119300
X155200Y-169300
X155200Y-219300
X156500Y-25800
X156500Y-75800
X156500Y-125800
X156500Y-175800
X156500Y-225800
X156600Y-22400
X156600Y-72400
X156600Y-122400
X156600Y-172400
X156600Y-222400
X156800Y-24400
X156800Y-74400
X156800Y-124400
X156800Y-174400
X156800Y-224400
X163402Y-39418
X163402Y-89418
X163402Y-139418
X163402Y-189418
X163402Y-239418
X163500Y-14500
X163500Y-57500
X163500Y-64500
X163500Y-107500
X163500Y-114500
X163500Y-157500
X163500Y-164500
X163500Y-207500
X163500Y-214500
X163500Y-257500
T2
X71395Y-30400
X71395Y-80400
X71395Y-130400
X71395Y-180400
X71395Y-230400
X105605Y-41600
X105605Y-91600
X105605Y-141600
X105605Y-191600
X105605Y-241600
T3
X14555Y-53900
X14555Y-103900
X14555Y-153900
X14555Y-203900
X14555Y-253900
X162445Y-18100
X162445Y-68100
X162445Y-118100
X162445Y-168100
X162445Y-218100
T4
X14555Y-48100
X14555Y-98100
X14555Y-148100
X14555Y-198100
X14555Y-248100
X162445Y-23900
X162445Y-73900
X162445Y-123900
X162445Y-173900
X162445Y-223900
T5
X14555Y-41300
X14555Y-91300
X14555Y-141300
X14555Y-191300
X14555Y-241300
X162445Y-30700
X162445Y-80700
X162445Y-130700
X162445Y-180700
X162445Y-230700
M30
