G04*
G04 #@! TF.GenerationSoftware,Altium Limited,Altium Designer,22.2.1 (43)*
G04*
G04 Layer_Color=32896*
%FSLAX44Y44*%
%MOMM*%
G71*
G04*
G04 #@! TF.SameCoordinates,B40B3F92-3463-4CDB-AABD-E14D81B53C36*
G04*
G04*
G04 #@! TF.FilePolarity,Positive*
G04*
G01*
G75*
%ADD10C,0.2000*%
%ADD14C,0.1800*%
%ADD16C,0.1270*%
%ADD18C,0.1778*%
D10*
X21520Y208440D02*
G03*
X21520Y208440I-1000J0D01*
G01*
D14*
X460500Y186000D02*
Y239708D01*
Y186000D02*
X499500D01*
Y244000D01*
X465361D02*
X499500D01*
X460500Y239708D02*
X465361Y244000D01*
D16*
X28020Y232640D02*
X38020D01*
X28020Y204240D02*
X38020D01*
D18*
X486865Y261815D02*
Y251658D01*
X481787D01*
X480094Y253351D01*
Y260122D01*
X481787Y261815D01*
X486865D01*
X476708Y251658D02*
X473323D01*
X475016D01*
Y261815D01*
X476708Y260122D01*
X461473Y251658D02*
X468245D01*
X461473Y258429D01*
Y260122D01*
X463166Y261815D01*
X466552D01*
X468245Y260122D01*
X33729Y250639D02*
Y240482D01*
X28651D01*
X26958Y242175D01*
Y248946D01*
X28651Y250639D01*
X33729D01*
X23572Y240482D02*
X20187D01*
X21880D01*
Y250639D01*
X23572Y248946D01*
M02*
