G04*
G04 #@! TF.GenerationSoftware,Altium Limited,Altium Designer,22.2.1 (43)*
G04*
G04 Layer_Color=65535*
%FSLAX44Y44*%
%MOMM*%
G71*
G04*
G04 #@! TF.SameCoordinates,B40B3F92-3463-4CDB-AABD-E14D81B53C36*
G04*
G04*
G04 #@! TF.FilePolarity,Positive*
G04*
G01*
G75*
%ADD10C,0.2000*%
%ADD11C,0.2500*%
%ADD12C,0.2540*%
%ADD13C,0.1500*%
%ADD14C,0.1800*%
%ADD15C,0.1524*%
%ADD16C,0.1270*%
%ADD17C,0.1000*%
%ADD18C,0.1778*%
%ADD19C,0.0762*%
D10*
X93950Y310170D02*
G03*
X93950Y310170I-1000J0D01*
G01*
X86380Y247500D02*
G03*
X86380Y247500I-1000J0D01*
G01*
X628250Y33000D02*
G03*
X628250Y33000I-1000J0D01*
G01*
X570250D02*
G03*
X570250Y33000I-1000J0D01*
G01*
X512250D02*
G03*
X512250Y33000I-1000J0D01*
G01*
X454250D02*
G03*
X454250Y33000I-1000J0D01*
G01*
X396250D02*
G03*
X396250Y33000I-1000J0D01*
G01*
X338250D02*
G03*
X338250Y33000I-1000J0D01*
G01*
X280250D02*
G03*
X280250Y33000I-1000J0D01*
G01*
X222250D02*
G03*
X222250Y33000I-1000J0D01*
G01*
X653750Y397000D02*
G03*
X653750Y397000I-1000J0D01*
G01*
X595750D02*
G03*
X595750Y397000I-1000J0D01*
G01*
X537750D02*
G03*
X537750Y397000I-1000J0D01*
G01*
X479750D02*
G03*
X479750Y397000I-1000J0D01*
G01*
X421750D02*
G03*
X421750Y397000I-1000J0D01*
G01*
X363750D02*
G03*
X363750Y397000I-1000J0D01*
G01*
X305750D02*
G03*
X305750Y397000I-1000J0D01*
G01*
X247750D02*
G03*
X247750Y397000I-1000J0D01*
G01*
X390050Y83930D02*
G03*
X390050Y84930I0J500D01*
G01*
D02*
G03*
X390050Y83930I0J-500D01*
G01*
X569000Y187500D02*
Y242500D01*
X631000Y187500D02*
Y242500D01*
X572500Y246000D02*
X627500D01*
X572500Y184000D02*
X627500D01*
X569000Y242500D02*
X572500Y246000D01*
X627500D02*
X631000Y242500D01*
X569000Y187500D02*
X572500Y184000D01*
X627500D02*
X631000Y187500D01*
X569000Y242500D02*
X584000D01*
Y237500D02*
Y242500D01*
X569000Y237500D02*
X584000D01*
D11*
X559250Y249500D02*
G03*
X559250Y249500I-1250J0D01*
G01*
D12*
X503246Y190000D02*
G03*
X503246Y190000I-8246J0D01*
G01*
Y240000D02*
G03*
X503246Y240000I-8246J0D01*
G01*
X348211Y156000D02*
G03*
X348211Y156000I-7211J0D01*
G01*
X254000Y79860D02*
Y138860D01*
X125000Y79860D02*
Y138860D01*
Y79860D02*
X254000D01*
X125000Y138860D02*
X254000D01*
D13*
X316380Y300340D02*
Y302260D01*
Y300340D02*
X341780D01*
Y302260D01*
Y312420D02*
Y314340D01*
X316380D02*
X341780D01*
X316380Y312420D02*
Y314340D01*
X329080Y300340D02*
Y314340D01*
X526400Y214630D02*
X540400D01*
X537400Y228630D02*
X540400D01*
Y200630D02*
Y228630D01*
X537400Y200630D02*
X540400D01*
X526400D02*
X529400D01*
X526400D02*
Y228630D01*
X529400D01*
X675000Y169530D02*
Y183530D01*
X689000Y169530D02*
Y172530D01*
X661000Y169530D02*
X689000D01*
X661000D02*
Y172530D01*
Y180530D02*
Y183530D01*
X689000D01*
Y180530D02*
Y183530D01*
X687700Y160020D02*
Y161940D01*
X662300D02*
X687700D01*
X662300Y160020D02*
Y161940D01*
Y147940D02*
Y149860D01*
Y147940D02*
X687700D01*
Y149860D01*
X675000Y147940D02*
Y161940D01*
X106680Y291450D02*
Y305450D01*
X92680Y302450D02*
Y305450D01*
X120680D01*
Y302450D02*
Y305450D01*
Y291450D02*
Y294450D01*
X92680Y291450D02*
X120680D01*
X92680D02*
Y294450D01*
X57770Y325120D02*
X71770D01*
X57770Y311120D02*
X60770D01*
X57770D02*
Y339120D01*
X60770D01*
X68770D02*
X71770D01*
Y311120D02*
Y339120D01*
X68770Y311120D02*
X71770D01*
X27940Y299070D02*
Y300990D01*
Y299070D02*
X53340D01*
Y300990D01*
Y311150D02*
Y313070D01*
X27940D02*
X53340D01*
X27940Y311150D02*
Y313070D01*
X40640Y299070D02*
Y313070D01*
X27790Y280020D02*
Y281940D01*
Y280020D02*
X53190D01*
Y281940D01*
Y292100D02*
Y294020D01*
X27790D02*
X53190D01*
X27790Y292100D02*
Y294020D01*
X40490Y280020D02*
Y294020D01*
X567040Y289560D02*
X581040D01*
X578040Y303560D02*
X581040D01*
Y275560D02*
Y303560D01*
X578040Y275560D02*
X581040D01*
X567040D02*
X570040D01*
X567040D02*
Y303560D01*
X570040D01*
X539100Y269240D02*
X553100D01*
X550100Y283240D02*
X553100D01*
Y255240D02*
Y283240D01*
X550100Y255240D02*
X553100D01*
X539100D02*
X542100D01*
X539100D02*
Y283240D01*
X542100D01*
X467360Y260970D02*
Y262890D01*
Y260970D02*
X492760D01*
Y262890D01*
Y273050D02*
Y274970D01*
X467360D02*
X492760D01*
X467360Y273050D02*
Y274970D01*
X480060Y260970D02*
Y274970D01*
Y280020D02*
Y294020D01*
X466060Y291020D02*
Y294020D01*
X494060D01*
Y291020D02*
Y294020D01*
Y280020D02*
Y283020D01*
X466060Y280020D02*
X494060D01*
X466060D02*
Y283020D01*
X492760Y312420D02*
Y314340D01*
X467360D02*
X492760D01*
X467360Y312420D02*
Y314340D01*
Y300340D02*
Y302260D01*
Y300340D02*
X492760D01*
Y302260D01*
X480060Y300340D02*
Y314340D01*
X323850Y92060D02*
Y93980D01*
Y92060D02*
X349250D01*
Y93980D01*
Y104140D02*
Y106060D01*
X323850D02*
X349250D01*
X323850Y104140D02*
Y106060D01*
X336550Y92060D02*
Y106060D01*
X389890Y113650D02*
Y127650D01*
X403890Y113650D02*
Y116650D01*
X375890Y113650D02*
X403890D01*
X375890D02*
Y116650D01*
Y124650D02*
Y127650D01*
X403890D01*
Y124650D02*
Y127650D01*
X337300Y113000D02*
Y114920D01*
Y113000D02*
X362700D01*
Y114920D01*
Y125080D02*
Y127000D01*
X337300D02*
X362700D01*
X337300Y125080D02*
Y127000D01*
X350000Y113000D02*
Y127000D01*
X323850Y125080D02*
Y127000D01*
X298450D02*
X323850D01*
X298450Y125080D02*
Y127000D01*
Y113000D02*
Y114920D01*
Y113000D02*
X323850D01*
Y114920D01*
X311150Y113000D02*
Y127000D01*
X497780Y126970D02*
Y140970D01*
X510480Y126970D02*
Y128890D01*
X485080Y126970D02*
X510480D01*
X485080D02*
Y128890D01*
Y139050D02*
Y140970D01*
X510480D01*
Y139050D02*
Y140970D01*
X497780Y111970D02*
Y125970D01*
X510480Y111970D02*
Y113890D01*
X485080Y111970D02*
X510480D01*
X485080D02*
Y113890D01*
Y124050D02*
Y125970D01*
X510480D01*
Y124050D02*
Y125970D01*
X497780Y96970D02*
Y110970D01*
X510480Y96970D02*
Y98890D01*
X485080Y96970D02*
X510480D01*
X485080D02*
Y98890D01*
Y109050D02*
Y110970D01*
X510480D01*
Y109050D02*
Y110970D01*
X497780Y81970D02*
Y95970D01*
X510480Y81970D02*
Y83890D01*
X485080Y81970D02*
X510480D01*
X485080D02*
Y83890D01*
Y94050D02*
Y95970D01*
X510480D01*
Y94050D02*
Y95970D01*
X497780Y66970D02*
Y80970D01*
X510480Y66970D02*
Y68890D01*
X485080Y66970D02*
X510480D01*
X485080D02*
Y68890D01*
Y79050D02*
Y80970D01*
X510480D01*
Y79050D02*
Y80970D01*
X689000Y263080D02*
Y266080D01*
X661000D02*
X689000D01*
X661000Y263080D02*
Y266080D01*
Y252080D02*
Y255080D01*
Y252080D02*
X689000D01*
Y255080D01*
X675000Y252080D02*
Y266080D01*
X514350Y156830D02*
Y170830D01*
X501650Y168910D02*
Y170830D01*
X527050D01*
Y168910D02*
Y170830D01*
Y156830D02*
Y158750D01*
X501650Y156830D02*
X527050D01*
X501650D02*
Y158750D01*
X457170Y158100D02*
Y161100D01*
Y158100D02*
X485170D01*
Y161100D01*
Y169100D02*
Y172100D01*
X457170D02*
X485170D01*
X457170Y169100D02*
Y172100D01*
X471170Y158100D02*
Y172100D01*
D14*
X433070Y19050D02*
X439420Y35560D01*
X474980Y144780D02*
X478790Y153670D01*
X468630Y144780D02*
X474980D01*
X57150Y287020D02*
X63500Y284480D01*
X55880Y304800D02*
X62230Y302260D01*
X205500Y46000D02*
Y65500D01*
X140500D02*
X205500D01*
X140500Y46000D02*
Y65500D01*
Y500D02*
Y20000D01*
Y500D02*
X205500D01*
Y20000D01*
X140500Y364500D02*
Y384000D01*
Y364500D02*
X205500D01*
Y384000D01*
Y410000D02*
Y429500D01*
X140500D02*
X205500D01*
X140500Y410000D02*
Y429500D01*
X222500Y326690D02*
Y346190D01*
X157500D02*
X222500D01*
X157500Y326690D02*
Y346190D01*
Y281190D02*
Y300690D01*
Y281190D02*
X222500D01*
Y300690D01*
X504190Y256540D02*
X513080Y265430D01*
X494030Y214630D02*
X497840Y208280D01*
X486410Y214630D02*
X494030D01*
D15*
X767080Y256540D02*
X773430D01*
Y281940D01*
X748030Y256540D02*
Y281940D01*
Y256540D02*
X754380D01*
X748030Y250190D02*
X754380Y256540D01*
X773430Y237490D02*
Y250190D01*
X767080Y231140D02*
X773430Y237490D01*
X767080Y256540D02*
X773430Y250190D01*
X748030Y237490D02*
Y250190D01*
Y281940D02*
X773430D01*
X748030Y237490D02*
X754380Y231140D01*
X767080D01*
X758977Y191135D02*
X769366D01*
X736854D02*
Y207645D01*
Y191135D02*
X747243D01*
X769366D02*
Y207645D01*
X748727D02*
X757493D01*
X623650Y148900D02*
X636350D01*
X642700Y129850D02*
Y142550D01*
X636350Y148900D02*
X642700Y142550D01*
X636350Y98100D02*
X642700Y91750D01*
Y104450D02*
Y117150D01*
X636350Y123500D02*
X642700Y129850D01*
X617300Y47300D02*
X642700D01*
Y79050D02*
Y91750D01*
X636350Y123500D02*
X642700Y117150D01*
X636350Y98100D02*
X642700Y104450D01*
X617300Y129850D02*
Y142550D01*
X623650Y148900D01*
X617300Y79050D02*
X623650Y72700D01*
X617300Y91750D02*
X623650Y98100D01*
X617300Y104450D02*
Y117150D01*
Y129850D02*
X623650Y123500D01*
X617300Y79050D02*
Y91750D01*
Y117150D02*
X623650Y123500D01*
X617300Y104450D02*
X623650Y98100D01*
X636350Y72700D02*
X642700Y79050D01*
X636350Y72700D02*
X642700D01*
Y47300D02*
Y72700D01*
X617300Y47300D02*
Y72700D01*
X623650D01*
X636350Y357300D02*
X642700D01*
Y382700D01*
X617300Y357300D02*
Y382700D01*
Y357300D02*
X623650D01*
X617300Y350950D02*
X623650Y357300D01*
X636350Y331900D02*
X642700Y325550D01*
X636350Y306500D02*
X642700Y312850D01*
Y338250D02*
Y350950D01*
X636350Y306500D02*
X642700Y300150D01*
Y312850D02*
Y325550D01*
X636350Y331900D02*
X642700Y338250D01*
X636350Y357300D02*
X642700Y350950D01*
X636350Y281100D02*
X642700Y287450D01*
Y300150D01*
X617300Y325550D02*
X623650Y331900D01*
X617300Y312850D02*
X623650Y306500D01*
X617300Y338250D02*
Y350950D01*
Y382700D02*
X642700D01*
X617300Y300150D02*
X623650Y306500D01*
X617300Y312850D02*
Y325550D01*
Y338250D02*
X623650Y331900D01*
X617300Y287450D02*
X623650Y281100D01*
X617300Y287450D02*
Y300150D01*
X623650Y281100D02*
X636350D01*
D16*
X122150Y335720D02*
X130450D01*
X85450D02*
X93750D01*
X122150Y360720D02*
X130450D01*
X85450D02*
X93750D01*
X130450Y335720D02*
Y360720D01*
X85450Y335720D02*
Y360720D01*
X80Y170300D02*
X17945D01*
X39215D02*
X57245D01*
X80Y259700D02*
X17945D01*
X39215D02*
X57245D01*
X661000Y3500D02*
Y20500D01*
X619000Y3500D02*
Y20500D01*
Y3500D02*
X661000D01*
X603000D02*
Y20500D01*
X561000Y3500D02*
Y20500D01*
Y3500D02*
X603000D01*
X545000D02*
Y20500D01*
X503000Y3500D02*
Y20500D01*
Y3500D02*
X545000D01*
X487000D02*
Y20500D01*
X445000Y3500D02*
Y20500D01*
Y3500D02*
X487000D01*
X429000D02*
Y20500D01*
X387000Y3500D02*
Y20500D01*
Y3500D02*
X429000D01*
X371000D02*
Y20500D01*
X329000Y3500D02*
Y20500D01*
Y3500D02*
X371000D01*
X313000D02*
Y20500D01*
X271000Y3500D02*
Y20500D01*
Y3500D02*
X313000D01*
X255000D02*
Y20500D01*
X213000Y3500D02*
Y20500D01*
Y3500D02*
X255000D01*
X619000Y426500D02*
X661000D01*
Y409500D02*
Y426500D01*
X619000Y409500D02*
Y426500D01*
X561000D02*
X603000D01*
Y409500D02*
Y426500D01*
X561000Y409500D02*
Y426500D01*
X503000D02*
X545000D01*
Y409500D02*
Y426500D01*
X503000Y409500D02*
Y426500D01*
X445000D02*
X487000D01*
Y409500D02*
Y426500D01*
X445000Y409500D02*
Y426500D01*
X387000D02*
X429000D01*
Y409500D02*
Y426500D01*
X387000Y409500D02*
Y426500D01*
X329000D02*
X371000D01*
Y409500D02*
Y426500D01*
X329000Y409500D02*
Y426500D01*
X271000D02*
X313000D01*
Y409500D02*
Y426500D01*
X271000Y409500D02*
Y426500D01*
X213000D02*
X255000D01*
Y409500D02*
Y426500D01*
X213000Y409500D02*
Y426500D01*
D17*
X515000Y175000D02*
X515028Y177852D01*
X475000Y175000D02*
X475028Y177852D01*
X475000Y202000D02*
X475028Y204852D01*
X515000Y202000D02*
X515028Y204852D01*
X475028Y204852D02*
X515028Y204852D01*
X475000Y175000D02*
X515000D01*
X474972Y252148D02*
X475000Y255000D01*
X514972Y252148D02*
X515000Y255000D01*
X514972Y225148D02*
X515000Y228000D01*
X474972Y225148D02*
X475000Y228000D01*
X474972Y225148D02*
X514972Y225148D01*
X475000Y255000D02*
X515000D01*
X379050Y38930D02*
Y72930D01*
Y38930D02*
X421050D01*
Y72930D01*
D18*
X372618Y342984D02*
Y353140D01*
X377696D01*
X379389Y351447D01*
Y348062D01*
X377696Y346369D01*
X372618D01*
X376004D02*
X379389Y342984D01*
X387853D02*
X384468D01*
X382775Y344676D01*
Y348062D01*
X384468Y349755D01*
X387853D01*
X389546Y348062D01*
Y346369D01*
X382775D01*
X392931Y342984D02*
Y349755D01*
X398010D01*
X399703Y348062D01*
Y342984D01*
X404781Y349755D02*
X408167D01*
X409859Y348062D01*
Y342984D01*
X404781D01*
X403088Y344676D01*
X404781Y346369D01*
X409859D01*
X413245Y349755D02*
Y344676D01*
X414938Y342984D01*
X420016D01*
Y349755D01*
X430173Y353140D02*
Y342984D01*
X425094D01*
X423402Y344676D01*
Y348062D01*
X425094Y349755D01*
X430173D01*
X440330Y351447D02*
X438637Y353140D01*
X435251D01*
X433558Y351447D01*
Y344676D01*
X435251Y342984D01*
X438637D01*
X440330Y344676D01*
Y348062D01*
X436944D01*
X445408Y349755D02*
X448793D01*
X450486Y348062D01*
Y342984D01*
X445408D01*
X443715Y344676D01*
X445408Y346369D01*
X450486D01*
X457257Y339598D02*
X458950D01*
X460643Y341291D01*
Y349755D01*
X455565D01*
X453872Y348062D01*
Y344676D01*
X455565Y342984D01*
X460643D01*
X464029D02*
Y349755D01*
X469107D01*
X470800Y348062D01*
Y342984D01*
X475878D02*
X479264D01*
X480956Y344676D01*
Y348062D01*
X479264Y349755D01*
X475878D01*
X474185Y348062D01*
Y344676D01*
X475878Y342984D01*
X484342D02*
Y349755D01*
X489420D01*
X491113Y348062D01*
Y342984D01*
X494499Y341291D02*
X501270D01*
X511427Y342984D02*
X504655D01*
X511427Y349755D01*
Y351447D01*
X509734Y353140D01*
X506348D01*
X504655Y351447D01*
X514812D02*
X516505Y353140D01*
X519891D01*
X521583Y351447D01*
Y344676D01*
X519891Y342984D01*
X516505D01*
X514812Y344676D01*
Y351447D01*
X531740Y342984D02*
X524969D01*
X531740Y349755D01*
Y351447D01*
X530047Y353140D01*
X526662D01*
X524969Y351447D01*
X540204Y342984D02*
Y353140D01*
X535126Y348062D01*
X541897D01*
X378119Y367535D02*
X376426Y369227D01*
X373041D01*
X371348Y367535D01*
Y360764D01*
X373041Y359071D01*
X376426D01*
X378119Y360764D01*
X388276Y367535D02*
X386583Y369227D01*
X383198D01*
X381505Y367535D01*
Y360764D01*
X383198Y359071D01*
X386583D01*
X388276Y360764D01*
X391661Y369227D02*
X395047D01*
X393354D01*
Y359071D01*
X391661D01*
X395047D01*
X400125Y357378D02*
X406897D01*
X410282Y369227D02*
Y360764D01*
X411975Y359071D01*
X415360D01*
X417053Y360764D01*
Y369227D01*
X420439D02*
Y359071D01*
X425517D01*
X427210Y360764D01*
Y367535D01*
X425517Y369227D01*
X420439D01*
X437367D02*
X430596D01*
Y359071D01*
X437367D01*
X430596Y364149D02*
X433981D01*
X447523Y367535D02*
X445831Y369227D01*
X442445D01*
X440752Y367535D01*
Y365842D01*
X442445Y364149D01*
X445831D01*
X447523Y362456D01*
Y360764D01*
X445831Y359071D01*
X442445D01*
X440752Y360764D01*
X450909Y357378D02*
X457680D01*
X461066Y369227D02*
Y359071D01*
Y364149D01*
X467837D01*
Y369227D01*
Y359071D01*
X472915Y365842D02*
X476301D01*
X477994Y364149D01*
Y359071D01*
X472915D01*
X471222Y360764D01*
X472915Y362456D01*
X477994D01*
X488150Y365842D02*
X483072D01*
X481379Y364149D01*
Y360764D01*
X483072Y359071D01*
X488150D01*
X491536D02*
Y369227D01*
Y362456D02*
X496614Y365842D01*
X491536Y362456D02*
X496614Y359071D01*
X506771D02*
X503385D01*
X501693Y360764D01*
Y364149D01*
X503385Y365842D01*
X506771D01*
X508464Y364149D01*
Y362456D01*
X501693D01*
X511849Y365842D02*
Y359071D01*
Y362456D01*
X513542Y364149D01*
X515235Y365842D01*
X516928D01*
X522006Y359071D02*
Y369227D01*
X525392Y365842D01*
X528777Y369227D01*
Y359071D01*
X533856D02*
X537241D01*
X538934Y360764D01*
Y364149D01*
X537241Y365842D01*
X533856D01*
X532163Y364149D01*
Y360764D01*
X533856Y359071D01*
X542319Y365842D02*
Y360764D01*
X544012Y359071D01*
X549091D01*
Y365842D01*
X552476Y359071D02*
X557555D01*
X559247Y360764D01*
X557555Y362456D01*
X554169D01*
X552476Y364149D01*
X554169Y365842D01*
X559247D01*
X567711Y359071D02*
X564326D01*
X562633Y360764D01*
Y364149D01*
X564326Y365842D01*
X567711D01*
X569404Y364149D01*
Y362456D01*
X562633D01*
X475486Y83058D02*
Y93215D01*
X470408Y88136D01*
X477179D01*
X470408Y106762D02*
X472101Y108455D01*
X475486D01*
X477179Y106762D01*
Y105069D01*
X475486Y103376D01*
X473794D01*
X475486D01*
X477179Y101684D01*
Y99991D01*
X475486Y98298D01*
X472101D01*
X470408Y99991D01*
X477179Y112268D02*
X470408D01*
X477179Y119039D01*
Y120732D01*
X475486Y122425D01*
X472101D01*
X470408Y120732D01*
X514858Y77975D02*
Y67818D01*
X521629D01*
X525015D02*
X531786Y74589D01*
X535171Y67818D02*
Y77975D01*
X540250D01*
X541943Y76282D01*
Y72896D01*
X540250Y71204D01*
X535171D01*
X538557D02*
X541943Y67818D01*
X521629Y92792D02*
X519936Y94485D01*
X516551D01*
X514858Y92792D01*
Y86021D01*
X516551Y84328D01*
X519936D01*
X521629Y86021D01*
Y89406D01*
X518244D01*
X525015Y84328D02*
Y94485D01*
X531786Y84328D01*
Y94485D01*
X535171D02*
Y84328D01*
X540250D01*
X541943Y86021D01*
Y92792D01*
X540250Y94485D01*
X535171D01*
X514858Y109725D02*
Y99568D01*
X519936D01*
X521629Y101261D01*
Y102954D01*
X519936Y104646D01*
X514858D01*
X519936D01*
X521629Y106339D01*
Y108032D01*
X519936Y109725D01*
X514858D01*
X525015D02*
X531786D01*
X528400D01*
Y99568D01*
X535171D02*
Y109725D01*
X541943Y99568D01*
Y109725D01*
X514858Y124965D02*
Y116501D01*
X516551Y114808D01*
X519936D01*
X521629Y116501D01*
Y124965D01*
X525015Y114808D02*
X531786Y121579D01*
X535171Y124965D02*
Y114808D01*
X540250D01*
X541943Y116501D01*
Y123272D01*
X540250Y124965D01*
X535171D01*
X516128Y135126D02*
X522899D01*
X519514Y138512D02*
Y131741D01*
X526285Y138512D02*
X527977Y140205D01*
X531363D01*
X533056Y138512D01*
Y136819D01*
X531363Y135126D01*
X529670D01*
X531363D01*
X533056Y133434D01*
Y131741D01*
X531363Y130048D01*
X527977D01*
X526285Y131741D01*
X477179Y79245D02*
X470408D01*
Y74166D01*
X473794Y75859D01*
X475486D01*
X477179Y74166D01*
Y70781D01*
X475486Y69088D01*
X472101D01*
X470408Y70781D01*
X472948Y127508D02*
X476334D01*
X474641D01*
Y137665D01*
X472948Y135972D01*
X455168Y208788D02*
Y218945D01*
X460246D01*
X461939Y217252D01*
Y213866D01*
X460246Y212174D01*
X455168D01*
X458554D02*
X461939Y208788D01*
X472096Y217252D02*
X470403Y218945D01*
X467018D01*
X465325Y217252D01*
Y215559D01*
X467018Y213866D01*
X470403D01*
X472096Y212174D01*
Y210481D01*
X470403Y208788D01*
X467018D01*
X465325Y210481D01*
X475481Y218945D02*
X482253D01*
X478867D01*
Y208788D01*
X498348Y278635D02*
Y268478D01*
X503426D01*
X505119Y270171D01*
Y271864D01*
X503426Y273556D01*
X498348D01*
X503426D01*
X505119Y275249D01*
Y276942D01*
X503426Y278635D01*
X498348D01*
X513583D02*
X510197D01*
X508505Y276942D01*
Y270171D01*
X510197Y268478D01*
X513583D01*
X515276Y270171D01*
Y276942D01*
X513583Y278635D01*
X523740D02*
X520354D01*
X518661Y276942D01*
Y270171D01*
X520354Y268478D01*
X523740D01*
X525433Y270171D01*
Y276942D01*
X523740Y278635D01*
X528818D02*
X535589D01*
X532204D01*
Y268478D01*
X669721Y346712D02*
Y356868D01*
X676492Y346712D01*
Y356868D01*
X686649D02*
X679878D01*
Y346712D01*
X686649D01*
X679878Y351790D02*
X683263D01*
X695113Y356868D02*
X691727D01*
X690034Y355176D01*
Y348404D01*
X691727Y346712D01*
X695113D01*
X696806Y348404D01*
Y355176D01*
X695113Y356868D01*
X700191Y346712D02*
Y356868D01*
X705269D01*
X706962Y355176D01*
Y351790D01*
X705269Y350097D01*
X700191D01*
X710348Y356868D02*
X717119Y346712D01*
Y356868D02*
X710348Y346712D01*
X733639Y125306D02*
X731946Y126998D01*
X728560D01*
X726868Y125306D01*
Y118534D01*
X728560Y116842D01*
X731946D01*
X733639Y118534D01*
Y121920D01*
X730253D01*
X737024Y116842D02*
Y126998D01*
X743796Y116842D01*
Y126998D01*
X747181D02*
Y116842D01*
X752260D01*
X753952Y118534D01*
Y125306D01*
X752260Y126998D01*
X747181D01*
X687496Y130810D02*
X694267D01*
X690882Y134196D02*
Y127424D01*
X704424Y135888D02*
X697653D01*
Y130810D01*
X701038Y132503D01*
X702731D01*
X704424Y130810D01*
Y127424D01*
X702731Y125732D01*
X699346D01*
X697653Y127424D01*
X312426Y363220D02*
X319197D01*
X315811Y366606D02*
Y359834D01*
X322583Y366606D02*
X324275Y368298D01*
X327661D01*
X329354Y366606D01*
Y364913D01*
X327661Y363220D01*
X325968D01*
X327661D01*
X329354Y361527D01*
Y359834D01*
X327661Y358142D01*
X324275D01*
X322583Y359834D01*
X332739Y358142D02*
Y359834D01*
X334432D01*
Y358142D01*
X332739D01*
X341203Y366606D02*
X342896Y368298D01*
X346282D01*
X347974Y366606D01*
Y364913D01*
X346282Y363220D01*
X344589D01*
X346282D01*
X347974Y361527D01*
Y359834D01*
X346282Y358142D01*
X342896D01*
X341203Y359834D01*
X288919Y44081D02*
Y33924D01*
X293997D01*
X295690Y35617D01*
Y42388D01*
X293997Y44081D01*
X288919D01*
X299076Y33924D02*
X302461D01*
X300769D01*
Y44081D01*
X299076Y42388D01*
X307540Y33924D02*
X310925D01*
X309233D01*
Y44081D01*
X307540Y42388D01*
X230753Y44081D02*
Y33924D01*
X235832D01*
X237524Y35617D01*
Y42388D01*
X235832Y44081D01*
X230753D01*
X240910Y33924D02*
X244295D01*
X242603D01*
Y44081D01*
X240910Y42388D01*
X249374D02*
X251067Y44081D01*
X254452D01*
X256145Y42388D01*
Y35617D01*
X254452Y33924D01*
X251067D01*
X249374Y35617D01*
Y42388D01*
X658291Y73238D02*
Y83395D01*
X665062Y73238D01*
Y83395D01*
X675219D02*
X668448D01*
Y73238D01*
X675219D01*
X668448Y78316D02*
X671833D01*
X683683Y83395D02*
X680297D01*
X678604Y81702D01*
Y74931D01*
X680297Y73238D01*
X683683D01*
X685376Y74931D01*
Y81702D01*
X683683Y83395D01*
X688761Y71545D02*
X695532D01*
X705689Y83395D02*
X698918D01*
Y73238D01*
X705689D01*
X698918Y78316D02*
X702303D01*
X636899Y44081D02*
Y33924D01*
X641977D01*
X643670Y35617D01*
Y42388D01*
X641977Y44081D01*
X636899D01*
X647056Y33924D02*
X650441D01*
X648749D01*
Y44081D01*
X647056Y42388D01*
X655520D02*
X657213Y44081D01*
X660598D01*
X662291Y42388D01*
Y40695D01*
X660598Y39002D01*
X662291Y37310D01*
Y35617D01*
X660598Y33924D01*
X657213D01*
X655520Y35617D01*
Y37310D01*
X657213Y39002D01*
X655520Y40695D01*
Y42388D01*
X657213Y39002D02*
X660598D01*
X578733Y44081D02*
Y33924D01*
X583811D01*
X585504Y35617D01*
Y42388D01*
X583811Y44081D01*
X578733D01*
X588890Y33924D02*
X592275D01*
X590583D01*
Y44081D01*
X588890Y42388D01*
X597354Y44081D02*
X604125D01*
Y42388D01*
X597354Y35617D01*
Y33924D01*
X520821Y44081D02*
Y33924D01*
X525900D01*
X527592Y35617D01*
Y42388D01*
X525900Y44081D01*
X520821D01*
X530978Y33924D02*
X534363D01*
X532671D01*
Y44081D01*
X530978Y42388D01*
X546213Y44081D02*
X542827Y42388D01*
X539442Y39002D01*
Y35617D01*
X541135Y33924D01*
X544520D01*
X546213Y35617D01*
Y37310D01*
X544520Y39002D01*
X539442D01*
X462909Y44081D02*
Y33924D01*
X467988D01*
X469680Y35617D01*
Y42388D01*
X467988Y44081D01*
X462909D01*
X473066Y33924D02*
X476451D01*
X474759D01*
Y44081D01*
X473066Y42388D01*
X488301Y44081D02*
X481530D01*
Y39002D01*
X484915Y40695D01*
X486608D01*
X488301Y39002D01*
Y35617D01*
X486608Y33924D01*
X483223D01*
X481530Y35617D01*
X430534Y50798D02*
Y40642D01*
X435612D01*
X437305Y42334D01*
Y49106D01*
X435612Y50798D01*
X430534D01*
X440691Y40642D02*
X444076D01*
X442384D01*
Y50798D01*
X440691Y49106D01*
X454233Y40642D02*
Y50798D01*
X449155Y45720D01*
X455926D01*
X346831Y44081D02*
Y33924D01*
X351909D01*
X353602Y35617D01*
Y42388D01*
X351909Y44081D01*
X346831D01*
X356988Y33924D02*
X360373D01*
X358681D01*
Y44081D01*
X356988Y42388D01*
X365452D02*
X367145Y44081D01*
X370530D01*
X372223Y42388D01*
Y40695D01*
X370530Y39002D01*
X368837D01*
X370530D01*
X372223Y37310D01*
Y35617D01*
X370530Y33924D01*
X367145D01*
X365452Y35617D01*
X214237Y394910D02*
Y384753D01*
X219315D01*
X221008Y386446D01*
Y393217D01*
X219315Y394910D01*
X214237D01*
X224394Y386446D02*
X226087Y384753D01*
X229472D01*
X231165Y386446D01*
Y393217D01*
X229472Y394910D01*
X226087D01*
X224394Y393217D01*
Y391524D01*
X226087Y389832D01*
X231165D01*
X272403Y394910D02*
Y384753D01*
X277481D01*
X279174Y386446D01*
Y393217D01*
X277481Y394910D01*
X272403D01*
X282560Y393217D02*
X284253Y394910D01*
X287638D01*
X289331Y393217D01*
Y391524D01*
X287638Y389832D01*
X289331Y388139D01*
Y386446D01*
X287638Y384753D01*
X284253D01*
X282560Y386446D01*
Y388139D01*
X284253Y389832D01*
X282560Y391524D01*
Y393217D01*
X284253Y389832D02*
X287638D01*
X330315Y394910D02*
Y384753D01*
X335393D01*
X337086Y386446D01*
Y393217D01*
X335393Y394910D01*
X330315D01*
X340472D02*
X347243D01*
Y393217D01*
X340472Y386446D01*
Y384753D01*
X388227Y394910D02*
Y384753D01*
X393306D01*
X394998Y386446D01*
Y393217D01*
X393306Y394910D01*
X388227D01*
X405155D02*
X401769Y393217D01*
X398384Y389832D01*
Y386446D01*
X400077Y384753D01*
X403462D01*
X405155Y386446D01*
Y388139D01*
X403462Y389832D01*
X398384D01*
X446393Y394910D02*
Y384753D01*
X451471D01*
X453164Y386446D01*
Y393217D01*
X451471Y394910D01*
X446393D01*
X463321D02*
X456550D01*
Y389832D01*
X459935Y391524D01*
X461628D01*
X463321Y389832D01*
Y386446D01*
X461628Y384753D01*
X458243D01*
X456550Y386446D01*
X504305Y394910D02*
Y384753D01*
X509384D01*
X511076Y386446D01*
Y393217D01*
X509384Y394910D01*
X504305D01*
X519540Y384753D02*
Y394910D01*
X514462Y389832D01*
X521233D01*
X562217Y394910D02*
Y384753D01*
X567295D01*
X568988Y386446D01*
Y393217D01*
X567295Y394910D01*
X562217D01*
X572374Y393217D02*
X574067Y394910D01*
X577452D01*
X579145Y393217D01*
Y391524D01*
X577452Y389832D01*
X575759D01*
X577452D01*
X579145Y388139D01*
Y386446D01*
X577452Y384753D01*
X574067D01*
X572374Y386446D01*
X664636Y398778D02*
Y388622D01*
X669714D01*
X671407Y390314D01*
Y397086D01*
X669714Y398778D01*
X664636D01*
X681564Y388622D02*
X674793D01*
X681564Y395393D01*
Y397086D01*
X679871Y398778D01*
X676486D01*
X674793Y397086D01*
X86360Y168908D02*
X82974D01*
X84667D01*
Y160444D01*
X82974Y158752D01*
X81282D01*
X79589Y160444D01*
X89746Y158752D02*
X93131D01*
X91438D01*
Y168908D01*
X89746Y167216D01*
X326816Y187958D02*
Y179494D01*
X328509Y177802D01*
X331894D01*
X333587Y179494D01*
Y187958D01*
X336973Y186266D02*
X338666Y187958D01*
X342051D01*
X343744Y186266D01*
Y184573D01*
X342051Y182880D01*
X340358D01*
X342051D01*
X343744Y181187D01*
Y179494D01*
X342051Y177802D01*
X338666D01*
X336973Y179494D01*
X778089Y271782D02*
Y281938D01*
X781474Y278553D01*
X784860Y281938D01*
Y271782D01*
X788246D02*
X791631D01*
X789938D01*
Y281938D01*
X788246Y280246D01*
X671407Y223096D02*
X669714Y224788D01*
X666329D01*
X664636Y223096D01*
Y221403D01*
X666329Y219710D01*
X669714D01*
X671407Y218017D01*
Y216324D01*
X669714Y214632D01*
X666329D01*
X664636Y216324D01*
X679871Y224788D02*
X676486D01*
X674793Y223096D01*
Y216324D01*
X676486Y214632D01*
X679871D01*
X681564Y216324D01*
Y223096D01*
X679871Y224788D01*
X653627Y287866D02*
X651934Y289558D01*
X648549D01*
X646856Y287866D01*
Y286173D01*
X648549Y284480D01*
X651934D01*
X653627Y282787D01*
Y281094D01*
X651934Y279402D01*
X648549D01*
X646856Y281094D01*
X657013Y289558D02*
Y279402D01*
Y282787D01*
X663784Y289558D01*
X658706Y284480D01*
X663784Y279402D01*
X778936Y191768D02*
Y183304D01*
X780629Y181612D01*
X784014D01*
X785707Y183304D01*
Y191768D01*
X795864Y181612D02*
X789093D01*
X795864Y188383D01*
Y190076D01*
X794171Y191768D01*
X790786D01*
X789093Y190076D01*
X550759Y180338D02*
Y171874D01*
X552452Y170182D01*
X555837D01*
X557530Y171874D01*
Y180338D01*
X560916Y170182D02*
X564301D01*
X562608D01*
Y180338D01*
X560916Y178646D01*
X218020Y373802D02*
X216328Y375495D01*
X212942D01*
X211249Y373802D01*
Y372109D01*
X212942Y370416D01*
X216328D01*
X218020Y368724D01*
Y367031D01*
X216328Y365338D01*
X212942D01*
X211249Y367031D01*
X221406Y375495D02*
Y365338D01*
X224792Y368724D01*
X228177Y365338D01*
Y375495D01*
X231563Y363645D02*
X238334D01*
X241719Y365338D02*
Y375495D01*
X246798D01*
X248491Y373802D01*
Y370416D01*
X246798Y368724D01*
X241719D01*
X245105D02*
X248491Y365338D01*
X216751Y63922D02*
X215058Y65615D01*
X211672D01*
X209979Y63922D01*
Y62229D01*
X211672Y60536D01*
X215058D01*
X216751Y58844D01*
Y57151D01*
X215058Y55458D01*
X211672D01*
X209979Y57151D01*
X220136Y65615D02*
Y55458D01*
X223522Y58844D01*
X226907Y55458D01*
Y65615D01*
X230293Y53765D02*
X237064D01*
X240450Y65615D02*
Y55458D01*
X247221D01*
X234531Y297602D02*
X232838Y299295D01*
X229452D01*
X227759Y297602D01*
Y295909D01*
X229452Y294216D01*
X232838D01*
X234531Y292524D01*
Y290831D01*
X232838Y289138D01*
X229452D01*
X227759Y290831D01*
X237916Y299295D02*
Y289138D01*
X241302Y292524D01*
X244687Y289138D01*
Y299295D01*
X248073Y287445D02*
X254844D01*
X258230Y289138D02*
Y299295D01*
X261615Y295909D01*
X265001Y299295D01*
Y289138D01*
X694269Y281938D02*
X692576Y283631D01*
X689191D01*
X687498Y281938D01*
Y280246D01*
X689191Y278553D01*
X692576D01*
X694269Y276860D01*
Y275167D01*
X692576Y273474D01*
X689191D01*
X687498Y275167D01*
X697654Y270089D02*
Y280246D01*
X702733D01*
X704426Y278553D01*
Y275167D01*
X702733Y273474D01*
X697654D01*
X707811Y283631D02*
X714582D01*
Y281938D01*
X707811Y275167D01*
Y273474D01*
X691729Y295908D02*
X690036Y297601D01*
X686650D01*
X684958Y295908D01*
Y294216D01*
X686650Y292523D01*
X690036D01*
X691729Y290830D01*
Y289137D01*
X690036Y287444D01*
X686650D01*
X684958Y289137D01*
X695114Y284059D02*
Y294216D01*
X700193D01*
X701886Y292523D01*
Y289137D01*
X700193Y287444D01*
X695114D01*
X712042Y297601D02*
X708657Y295908D01*
X705271Y292523D01*
Y289137D01*
X706964Y287444D01*
X710350D01*
X712042Y289137D01*
Y290830D01*
X710350Y292523D01*
X705271D01*
X671409Y332738D02*
X669716Y334431D01*
X666330D01*
X664638Y332738D01*
Y331046D01*
X666330Y329353D01*
X669716D01*
X671409Y327660D01*
Y325967D01*
X669716Y324274D01*
X666330D01*
X664638Y325967D01*
X674794Y320889D02*
Y331046D01*
X679873D01*
X681566Y329353D01*
Y325967D01*
X679873Y324274D01*
X674794D01*
X691722Y334431D02*
X684951D01*
Y329353D01*
X688337Y331046D01*
X690030D01*
X691722Y329353D01*
Y325967D01*
X690030Y324274D01*
X686644D01*
X684951Y325967D01*
X714108Y199670D02*
X712415Y201363D01*
X709030D01*
X707337Y199670D01*
Y197977D01*
X709030Y196285D01*
X712415D01*
X714108Y194592D01*
Y192899D01*
X712415Y191206D01*
X709030D01*
X707337Y192899D01*
X717494Y187821D02*
Y197977D01*
X722572D01*
X724265Y196285D01*
Y192899D01*
X722572Y191206D01*
X717494D01*
X732729D02*
Y201363D01*
X727651Y196285D01*
X734422D01*
X714108Y216180D02*
X712415Y217873D01*
X709030D01*
X707337Y216180D01*
Y214487D01*
X709030Y212794D01*
X712415D01*
X714108Y211102D01*
Y209409D01*
X712415Y207716D01*
X709030D01*
X707337Y209409D01*
X717494Y204331D02*
Y214487D01*
X722572D01*
X724265Y212794D01*
Y209409D01*
X722572Y207716D01*
X717494D01*
X727651Y216180D02*
X729343Y217873D01*
X732729D01*
X734422Y216180D01*
Y214487D01*
X732729Y212794D01*
X731036D01*
X732729D01*
X734422Y211102D01*
Y209409D01*
X732729Y207716D01*
X729343D01*
X727651Y209409D01*
X714108Y232690D02*
X712415Y234383D01*
X709030D01*
X707337Y232690D01*
Y230997D01*
X709030Y229305D01*
X712415D01*
X714108Y227612D01*
Y225919D01*
X712415Y224226D01*
X709030D01*
X707337Y225919D01*
X717494Y220841D02*
Y230997D01*
X722572D01*
X724265Y229305D01*
Y225919D01*
X722572Y224226D01*
X717494D01*
X734422D02*
X727651D01*
X734422Y230997D01*
Y232690D01*
X732729Y234383D01*
X729343D01*
X727651Y232690D01*
X714108Y249200D02*
X712415Y250893D01*
X709030D01*
X707337Y249200D01*
Y247507D01*
X709030Y245814D01*
X712415D01*
X714108Y244122D01*
Y242429D01*
X712415Y240736D01*
X709030D01*
X707337Y242429D01*
X717494Y237351D02*
Y247507D01*
X722572D01*
X724265Y245814D01*
Y242429D01*
X722572Y240736D01*
X717494D01*
X727651D02*
X731036D01*
X729343D01*
Y250893D01*
X727651Y249200D01*
X317504Y318772D02*
Y328928D01*
X322583D01*
X324275Y327236D01*
Y323850D01*
X322583Y322157D01*
X317504D01*
X320890D02*
X324275Y318772D01*
X327661D02*
X331046D01*
X329354D01*
Y328928D01*
X327661Y327236D01*
X336125D02*
X337818Y328928D01*
X341203D01*
X342896Y327236D01*
Y320464D01*
X341203Y318772D01*
X337818D01*
X336125Y320464D01*
Y327236D01*
X442669Y302966D02*
Y313123D01*
X447747D01*
X449440Y311430D01*
Y308044D01*
X447747Y306352D01*
X442669D01*
X446055D02*
X449440Y302966D01*
X452826Y304659D02*
X454519Y302966D01*
X457904D01*
X459597Y304659D01*
Y311430D01*
X457904Y313123D01*
X454519D01*
X452826Y311430D01*
Y309737D01*
X454519Y308044D01*
X459597D01*
X299159Y130754D02*
Y140911D01*
X304237D01*
X305930Y139218D01*
Y135833D01*
X304237Y134140D01*
X299159D01*
X302545D02*
X305930Y130754D01*
X309316Y139218D02*
X311009Y140911D01*
X314394D01*
X316087Y139218D01*
Y137525D01*
X314394Y135833D01*
X316087Y134140D01*
Y132447D01*
X314394Y130754D01*
X311009D01*
X309316Y132447D01*
Y134140D01*
X311009Y135833D01*
X309316Y137525D01*
Y139218D01*
X311009Y135833D02*
X314394D01*
X326816Y77472D02*
Y87628D01*
X331894D01*
X333587Y85936D01*
Y82550D01*
X331894Y80857D01*
X326816D01*
X330202D02*
X333587Y77472D01*
X336973Y87628D02*
X343744D01*
Y85936D01*
X336973Y79164D01*
Y77472D01*
X338021Y130754D02*
Y140911D01*
X343100D01*
X344792Y139218D01*
Y135833D01*
X343100Y134140D01*
X338021D01*
X341407D02*
X344792Y130754D01*
X354949Y140911D02*
X351563Y139218D01*
X348178Y135833D01*
Y132447D01*
X349871Y130754D01*
X353256D01*
X354949Y132447D01*
Y134140D01*
X353256Y135833D01*
X348178D01*
X531286Y151132D02*
Y161288D01*
X536364D01*
X538057Y159596D01*
Y156210D01*
X536364Y154517D01*
X531286D01*
X534672D02*
X538057Y151132D01*
X548214Y161288D02*
X541443D01*
Y156210D01*
X544828Y157903D01*
X546521D01*
X548214Y156210D01*
Y152824D01*
X546521Y151132D01*
X543136D01*
X541443Y152824D01*
X442669Y263596D02*
Y273753D01*
X447747D01*
X449440Y272060D01*
Y268675D01*
X447747Y266982D01*
X442669D01*
X446055D02*
X449440Y263596D01*
X457904D02*
Y273753D01*
X452826Y268675D01*
X459597D01*
X692576Y149862D02*
Y160018D01*
X697654D01*
X699347Y158326D01*
Y154940D01*
X697654Y153247D01*
X692576D01*
X695962D02*
X699347Y149862D01*
X702733Y158326D02*
X704426Y160018D01*
X707811D01*
X709504Y158326D01*
Y156633D01*
X707811Y154940D01*
X706118D01*
X707811D01*
X709504Y153247D01*
Y151554D01*
X707811Y149862D01*
X704426D01*
X702733Y151554D01*
X66495Y278836D02*
Y288993D01*
X71574D01*
X73266Y287300D01*
Y283915D01*
X71574Y282222D01*
X66495D01*
X69881D02*
X73266Y278836D01*
X83423D02*
X76652D01*
X83423Y285607D01*
Y287300D01*
X81730Y288993D01*
X78345D01*
X76652Y287300D01*
X66749Y297886D02*
Y308043D01*
X71828D01*
X73520Y306350D01*
Y302964D01*
X71828Y301272D01*
X66749D01*
X70135D02*
X73520Y297886D01*
X76906D02*
X80291D01*
X78599D01*
Y308043D01*
X76906Y306350D01*
X411057Y92708D02*
X407672D01*
X409364D01*
Y84244D01*
X407672Y82552D01*
X405979D01*
X404286Y84244D01*
X419521Y82552D02*
Y92708D01*
X414443Y87630D01*
X421214D01*
X601557Y71118D02*
X598172D01*
X599864D01*
Y62654D01*
X598172Y60962D01*
X596479D01*
X594786Y62654D01*
X604943Y69426D02*
X606636Y71118D01*
X610021D01*
X611714Y69426D01*
Y67733D01*
X610021Y66040D01*
X608328D01*
X610021D01*
X611714Y64347D01*
Y62654D01*
X610021Y60962D01*
X606636D01*
X604943Y62654D01*
X602827Y377188D02*
X599442D01*
X601134D01*
Y368724D01*
X599442Y367032D01*
X597749D01*
X596056Y368724D01*
X612984Y367032D02*
X606213D01*
X612984Y373803D01*
Y375496D01*
X611291Y377188D01*
X607906D01*
X606213Y375496D01*
X113030Y137158D02*
X106259D01*
Y127002D01*
X113030D01*
X106259Y132080D02*
X109644D01*
X116416Y127002D02*
X119801D01*
X118108D01*
Y137158D01*
X116416Y135466D01*
X383654Y139980D02*
X381962Y141673D01*
X378576D01*
X376883Y139980D01*
Y133209D01*
X378576Y131516D01*
X381962D01*
X383654Y133209D01*
X387040Y131516D02*
X390425D01*
X388733D01*
Y141673D01*
X387040Y139980D01*
X395504D02*
X397197Y141673D01*
X400582D01*
X402275Y139980D01*
Y133209D01*
X400582Y131516D01*
X397197D01*
X395504Y133209D01*
Y139980D01*
X454237Y148166D02*
X452544Y149858D01*
X449159D01*
X447466Y148166D01*
Y141394D01*
X449159Y139702D01*
X452544D01*
X454237Y141394D01*
X457623D02*
X459316Y139702D01*
X462701D01*
X464394Y141394D01*
Y148166D01*
X462701Y149858D01*
X459316D01*
X457623Y148166D01*
Y146473D01*
X459316Y144780D01*
X464394D01*
X701887Y263736D02*
X700194Y265428D01*
X696809D01*
X695116Y263736D01*
Y256964D01*
X696809Y255272D01*
X700194D01*
X701887Y256964D01*
X705273Y263736D02*
X706966Y265428D01*
X710351D01*
X712044Y263736D01*
Y262043D01*
X710351Y260350D01*
X712044Y258657D01*
Y256964D01*
X710351Y255272D01*
X706966D01*
X705273Y256964D01*
Y258657D01*
X706966Y260350D01*
X705273Y262043D01*
Y263736D01*
X706966Y260350D02*
X710351D01*
X572347Y318346D02*
X570654Y320038D01*
X567269D01*
X565576Y318346D01*
Y311574D01*
X567269Y309882D01*
X570654D01*
X572347Y311574D01*
X575733Y320038D02*
X582504D01*
Y318346D01*
X575733Y311574D01*
Y309882D01*
X534247Y240876D02*
X532554Y242568D01*
X529169D01*
X527476Y240876D01*
Y234104D01*
X529169Y232412D01*
X532554D01*
X534247Y234104D01*
X544404Y242568D02*
X541018Y240876D01*
X537633Y237490D01*
Y234104D01*
X539326Y232412D01*
X542711D01*
X544404Y234104D01*
Y235797D01*
X542711Y237490D01*
X537633D01*
X701887Y179916D02*
X700194Y181608D01*
X696809D01*
X695116Y179916D01*
Y173144D01*
X696809Y171452D01*
X700194D01*
X701887Y173144D01*
X712044Y181608D02*
X705273D01*
Y176530D01*
X708658Y178223D01*
X710351D01*
X712044Y176530D01*
Y173144D01*
X710351Y171452D01*
X706966D01*
X705273Y173144D01*
X544407Y296756D02*
X542714Y298448D01*
X539329D01*
X537636Y296756D01*
Y289984D01*
X539329Y288292D01*
X542714D01*
X544407Y289984D01*
X552871Y288292D02*
Y298448D01*
X547793Y293370D01*
X554564D01*
X448424Y291110D02*
X446731Y292803D01*
X443346D01*
X441653Y291110D01*
Y284339D01*
X443346Y282646D01*
X446731D01*
X448424Y284339D01*
X451810Y291110D02*
X453503Y292803D01*
X456888D01*
X458581Y291110D01*
Y289417D01*
X456888Y287724D01*
X455195D01*
X456888D01*
X458581Y286032D01*
Y284339D01*
X456888Y282646D01*
X453503D01*
X451810Y284339D01*
X71967Y351366D02*
X70274Y353058D01*
X66889D01*
X65196Y351366D01*
Y344594D01*
X66889Y342902D01*
X70274D01*
X71967Y344594D01*
X82124Y342902D02*
X75353D01*
X82124Y349673D01*
Y351366D01*
X80431Y353058D01*
X77046D01*
X75353Y351366D01*
X133350Y301836D02*
X131657Y303528D01*
X128272D01*
X126579Y301836D01*
Y295064D01*
X128272Y293372D01*
X131657D01*
X133350Y295064D01*
X136736Y293372D02*
X140121D01*
X138428D01*
Y303528D01*
X136736Y301836D01*
X102449Y386078D02*
Y375922D01*
X107527D01*
X109220Y377614D01*
Y379307D01*
X107527Y381000D01*
X102449D01*
X107527D01*
X109220Y382693D01*
Y384386D01*
X107527Y386078D01*
X102449D01*
X112606Y375922D02*
X115991D01*
X114298D01*
Y386078D01*
X112606Y384386D01*
D19*
X777750Y217614D02*
X769286Y209151D01*
Y217614D02*
X777750Y209151D01*
X773518Y217614D02*
Y209151D01*
X769286Y213382D02*
X777750D01*
M02*
