%TF.GenerationSoftware,KiCad,Pcbnew,8.0.2*%
%TF.CreationDate,2024-07-02T22:35:23-04:00*%
%TF.ProjectId,HackerMouseProject,4861636b-6572-44d6-9f75-736550726f6a,rev?*%
%TF.SameCoordinates,Original*%
%TF.FileFunction,Copper,L2,Inr*%
%TF.FilePolarity,Positive*%
%FSLAX46Y46*%
G04 Gerber Fmt 4.6, Leading zero omitted, Abs format (unit mm)*
G04 Created by KiCad (PCBNEW 8.0.2) date 2024-07-02 22:35:23*
%MOMM*%
%LPD*%
G01*
G04 APERTURE LIST*
%TA.AperFunction,ComponentPad*%
%ADD10R,1.450000X1.450000*%
%TD*%
%TA.AperFunction,ComponentPad*%
%ADD11C,1.450000*%
%TD*%
%TA.AperFunction,ComponentPad*%
%ADD12O,3.000000X1.500000*%
%TD*%
%TA.AperFunction,ComponentPad*%
%ADD13O,1.500000X3.000000*%
%TD*%
%TA.AperFunction,ComponentPad*%
%ADD14R,1.498000X1.498000*%
%TD*%
%TA.AperFunction,ComponentPad*%
%ADD15C,1.498000*%
%TD*%
%TA.AperFunction,ComponentPad*%
%ADD16O,0.775000X1.550000*%
%TD*%
%TA.AperFunction,ComponentPad*%
%ADD17O,1.300000X0.950000*%
%TD*%
%TA.AperFunction,ViaPad*%
%ADD18C,0.400000*%
%TD*%
G04 APERTURE END LIST*
D10*
%TO.N,+5V*%
%TO.C,J6*%
X168000000Y-104770000D03*
D11*
%TO.N,GND*%
X168000000Y-102230000D03*
%TD*%
D12*
%TO.N,/JOY_X*%
%TO.C,S1*%
X184000000Y-44250000D03*
%TO.N,GND*%
X184000000Y-46250000D03*
%TO.N,+3V3*%
X184000000Y-42250000D03*
D13*
%TO.N,/JOY_Y*%
X175000000Y-53250000D03*
%TO.N,+3V3*%
X177000000Y-53250000D03*
%TO.N,GND*%
X173000000Y-53250000D03*
%TD*%
D10*
%TO.N,/GPIO21*%
%TO.C,J5*%
X162000000Y-49810000D03*
D11*
%TO.N,/GPIO33*%
X162000000Y-47270000D03*
%TO.N,/GPIO34*%
X162000000Y-44730000D03*
%TO.N,/GPIO35*%
X162000000Y-42190000D03*
%TD*%
D14*
%TO.N,/BOOT*%
%TO.C,SW3*%
X161750000Y-93250000D03*
D15*
%TO.N,unconnected-(SW3-Pad2)*%
X168250000Y-93250000D03*
%TO.N,unconnected-(SW3-Pad3)*%
X161750000Y-97750000D03*
%TO.N,GND*%
X168250000Y-97750000D03*
%TD*%
D10*
%TO.N,/GPIO36*%
%TO.C,J4*%
X188000000Y-49810000D03*
D11*
%TO.N,/GPIO37*%
X188000000Y-47270000D03*
%TO.N,/GPIO38*%
X188000000Y-44730000D03*
%TO.N,/GPIO45*%
X188000000Y-42190000D03*
%TD*%
D14*
%TO.N,Net-(R1-Pad2)*%
%TO.C,SW1*%
X181750000Y-93250000D03*
D15*
%TO.N,unconnected-(SW1-Pad2)*%
X188250000Y-93250000D03*
%TO.N,unconnected-(SW1-Pad3)*%
X181750000Y-97750000D03*
%TO.N,GND*%
X188250000Y-97750000D03*
%TD*%
D16*
%TO.N,GND*%
%TO.C,J1*%
X171500000Y-106750000D03*
X178500000Y-106750000D03*
D17*
X172500000Y-104050000D03*
X177500000Y-104050000D03*
%TD*%
D10*
%TO.N,/ESP_RX*%
%TO.C,J2*%
X182000000Y-104770000D03*
D11*
%TO.N,/ESP_TX*%
X182000000Y-102230000D03*
%TD*%
D10*
%TO.N,/CS1*%
%TO.C,J3*%
X162000000Y-73650000D03*
D11*
%TO.N,/SCK*%
X162000000Y-71110000D03*
%TO.N,/MOSI*%
X162000000Y-68570000D03*
%TO.N,/MISO*%
X162000000Y-66030000D03*
%TO.N,+5V*%
X162000000Y-63490000D03*
%TO.N,GND*%
X162000000Y-60950000D03*
%TD*%
D18*
%TO.N,GND*%
X183000000Y-35500000D03*
X161250000Y-58750000D03*
X186000000Y-79250000D03*
X184000000Y-62750000D03*
X180500000Y-56750000D03*
X176610000Y-91610000D03*
X161750000Y-85000000D03*
X170500000Y-102250000D03*
X177250000Y-64250000D03*
X178750000Y-63000000D03*
X170500000Y-99500000D03*
X170260000Y-95220000D03*
X186500000Y-54750000D03*
X185000000Y-74500000D03*
X180000000Y-91750000D03*
X182500000Y-62750000D03*
X186750000Y-69000000D03*
X185500000Y-70750000D03*
X174500000Y-46750000D03*
X178500000Y-65000000D03*
X184250000Y-69250000D03*
X176000000Y-45250000D03*
X168750000Y-83000000D03*
X176150000Y-86070000D03*
X184250000Y-52500000D03*
X168000000Y-79000000D03*
X182750000Y-87250000D03*
X184000000Y-71250000D03*
X176960000Y-93150000D03*
X172500000Y-68750000D03*
X185250000Y-69250000D03*
X178500000Y-65750000D03*
X183250000Y-69250000D03*
X161000000Y-53250000D03*
X181750000Y-62000000D03*
X177750000Y-98500000D03*
X161750000Y-83500000D03*
X188000000Y-74750000D03*
X172500000Y-69750000D03*
X185500000Y-65750000D03*
X186500000Y-65500000D03*
X184500000Y-65000000D03*
X184250000Y-62000000D03*
X181250000Y-58000000D03*
X164250000Y-63500000D03*
X178000000Y-43500000D03*
X189500000Y-66000000D03*
X161000000Y-56250000D03*
X176350000Y-84390000D03*
X188500000Y-67250000D03*
X179500000Y-62250000D03*
X183500000Y-75000000D03*
X182250000Y-65000000D03*
X187500000Y-70750000D03*
X179250000Y-65000000D03*
X185500000Y-53500000D03*
X184500000Y-56750000D03*
X180250000Y-59250000D03*
X165750000Y-48750000D03*
X178500000Y-66500000D03*
X173180000Y-85080000D03*
X161610000Y-100350000D03*
X182250000Y-95500000D03*
X172500000Y-71750000D03*
X185250000Y-77250000D03*
X180000000Y-67250000D03*
X188000000Y-78750000D03*
X182000000Y-59250000D03*
X185500000Y-55500000D03*
X188000000Y-85250000D03*
X165020000Y-93740000D03*
X181500000Y-87500000D03*
X178500000Y-67250000D03*
X166000000Y-56750000D03*
X181500000Y-70250000D03*
X181500000Y-65750000D03*
X169500000Y-36000000D03*
X181500000Y-48750000D03*
X185500000Y-62750000D03*
X185500000Y-62000000D03*
X174750000Y-50750000D03*
X161750000Y-77750000D03*
X164500000Y-71750000D03*
X181500000Y-72250000D03*
X179500000Y-58000000D03*
X186000000Y-73500000D03*
X185500000Y-75000000D03*
X186500000Y-56750000D03*
X182000000Y-100000000D03*
X164500000Y-41500000D03*
X180750000Y-65750000D03*
X188750000Y-55000000D03*
X188000000Y-80750000D03*
X184750000Y-62750000D03*
X188500000Y-65500000D03*
X164250000Y-62000000D03*
X167750000Y-44500000D03*
X181500000Y-68750000D03*
X183500000Y-55750000D03*
X188500000Y-69000000D03*
X179750000Y-94250000D03*
X186000000Y-65000000D03*
X165750000Y-45500000D03*
X183250000Y-60750000D03*
X185500000Y-74000000D03*
X176500000Y-82500000D03*
X180750000Y-65000000D03*
X180000000Y-77000000D03*
X186250000Y-52500000D03*
X168750000Y-85250000D03*
X185000000Y-71250000D03*
X187500000Y-65500000D03*
X178750000Y-62250000D03*
X169500000Y-40000000D03*
X186000000Y-95500000D03*
X180250000Y-40500000D03*
X175500000Y-76750000D03*
X178500000Y-59250000D03*
X178000000Y-63500000D03*
X183000000Y-58000000D03*
X178250000Y-102000000D03*
X183500000Y-53500000D03*
X181000000Y-69750000D03*
X168000000Y-77000000D03*
X178000000Y-62750000D03*
X188200000Y-72250000D03*
X182500000Y-56750000D03*
X169000000Y-52750000D03*
X167500000Y-65500000D03*
X186750000Y-67250000D03*
X181500000Y-55750000D03*
X187500000Y-53750000D03*
X186500000Y-70750000D03*
X177500000Y-70500000D03*
X176750000Y-80750000D03*
X186000000Y-98250000D03*
X181500000Y-71250000D03*
X162310000Y-101510000D03*
X172500000Y-39000000D03*
X180000000Y-72250000D03*
X182234959Y-69225614D03*
X184500000Y-54500000D03*
X185500000Y-73000000D03*
X182500000Y-54500000D03*
X187500000Y-55750000D03*
X164500000Y-70000000D03*
X183250000Y-62750000D03*
X180500000Y-71750000D03*
X181750000Y-62750000D03*
X168000000Y-71500000D03*
X186000000Y-70250000D03*
X161750000Y-80750000D03*
X173640000Y-91060000D03*
X175710000Y-87410000D03*
X186000000Y-101250000D03*
X181500000Y-65000000D03*
X189000000Y-65000000D03*
X184000000Y-74500000D03*
X185250000Y-51500000D03*
X178500000Y-60750000D03*
X183250000Y-76750000D03*
X169750000Y-55250000D03*
X188000000Y-89000000D03*
X168000000Y-59000000D03*
X182000000Y-107750000D03*
X185500000Y-69750000D03*
X169000000Y-47500000D03*
X185250000Y-65000000D03*
X168500000Y-107500000D03*
X169000000Y-75000000D03*
X183000000Y-71250000D03*
X181250000Y-88750000D03*
X183750000Y-65000000D03*
X182000000Y-72750000D03*
X188000000Y-77000000D03*
X180000000Y-65000000D03*
X188000000Y-90750000D03*
X183000000Y-65000000D03*
X179500000Y-63000000D03*
X182500000Y-75000000D03*
X188000000Y-82750000D03*
X167500000Y-37250000D03*
X188250000Y-73250000D03*
X175710000Y-87410000D03*
X173000000Y-42000000D03*
X177250000Y-63500000D03*
X184000000Y-59250000D03*
X179250000Y-65750000D03*
X183000000Y-74500000D03*
X165630000Y-99940000D03*
X185250000Y-58000000D03*
X188000000Y-75750000D03*
X175750000Y-77750000D03*
X188250000Y-71250000D03*
X188000000Y-65000000D03*
X170750000Y-75000000D03*
X183000000Y-62000000D03*
X172500000Y-72500000D03*
X171500000Y-67000000D03*
X184500000Y-75000000D03*
X183000000Y-80750000D03*
X180000000Y-51250000D03*
X168750000Y-81500000D03*
X182000000Y-71750000D03*
X161750000Y-79500000D03*
X164500000Y-65000000D03*
X165870000Y-97640000D03*
X188000000Y-87250000D03*
X161750000Y-82000000D03*
X180500000Y-70750000D03*
X183000000Y-82750000D03*
X172970000Y-92830000D03*
X181500000Y-67250000D03*
X175250000Y-49000000D03*
X187000000Y-65000000D03*
%TO.N,+3V3*%
X177500000Y-72500000D03*
X168750000Y-86750000D03*
X177500000Y-69250000D03*
X165250000Y-86750000D03*
X166000000Y-65250000D03*
X166000000Y-72000000D03*
%TO.N,/RESET*%
X176500000Y-68500000D03*
X185750000Y-85000000D03*
%TO.N,/GPIO34*%
X175750000Y-75750000D03*
%TO.N,/GPIO33*%
X175500000Y-73500000D03*
%TO.N,/GPIO21*%
X170250000Y-73500000D03*
%TO.N,/GPIO35*%
X176250000Y-76000000D03*
%TO.N,/GPIO36*%
X177113910Y-76113910D03*
%TO.N,/GPIO45*%
X179500000Y-70500000D03*
%TO.N,/GPIO37*%
X173250000Y-48500000D03*
X178000000Y-76000000D03*
X171500000Y-51750000D03*
%TO.N,/GPIO38*%
X177750000Y-57250000D03*
X179500000Y-73250000D03*
%TO.N,/MISO*%
X168250000Y-68000000D03*
%TO.N,/CS1*%
X168500000Y-69750000D03*
%TO.N,/ESP_RX*%
X179750000Y-71250000D03*
%TO.N,/ESP_TX*%
X177500000Y-71750000D03*
%TO.N,/BOOT*%
X174750000Y-97000000D03*
X173500000Y-68500000D03*
%TO.N,/BUT_1*%
X174000000Y-56000000D03*
X173750000Y-65500000D03*
X174000000Y-60000000D03*
%TO.N,/BUT_2*%
X170337500Y-59500000D03*
X173000000Y-65750000D03*
X168000000Y-56000000D03*
%TO.N,/JOY_Y*%
X174500000Y-65500000D03*
%TO.N,/JOY_X*%
X175000000Y-66000000D03*
%TO.N,/SPICS0*%
X173000000Y-81000000D03*
X173250000Y-73500000D03*
%TO.N,/SPIQ*%
X174250000Y-73500000D03*
X174250000Y-82250000D03*
%TD*%
%TA.AperFunction,Conductor*%
%TO.N,GND*%
G36*
X189692539Y-34270185D02*
G01*
X189738294Y-34322989D01*
X189749500Y-34374500D01*
X189749500Y-59299829D01*
X189787636Y-59391897D01*
X189858103Y-59462364D01*
X189923452Y-59489432D01*
X189977856Y-59533273D01*
X189999921Y-59599567D01*
X190000000Y-59603993D01*
X190000000Y-77646006D01*
X189980315Y-77713045D01*
X189927511Y-77758800D01*
X189923453Y-77760567D01*
X189858102Y-77787636D01*
X189787636Y-77858102D01*
X189749500Y-77950170D01*
X189749500Y-93212890D01*
X189739249Y-93247799D01*
X189747069Y-93262677D01*
X189749500Y-93287109D01*
X189749500Y-97718629D01*
X189741411Y-97746174D01*
X189747069Y-97756938D01*
X189749500Y-97781370D01*
X189749500Y-108625500D01*
X189729815Y-108692539D01*
X189677011Y-108738294D01*
X189625500Y-108749500D01*
X160374500Y-108749500D01*
X160307461Y-108729815D01*
X160261706Y-108677011D01*
X160250500Y-108625500D01*
X160250500Y-105500000D01*
X160744473Y-105500000D01*
X160764563Y-105832136D01*
X160764563Y-105832141D01*
X160764564Y-105832142D01*
X160824544Y-106159441D01*
X160824545Y-106159445D01*
X160824546Y-106159449D01*
X160923530Y-106477104D01*
X160923534Y-106477116D01*
X160923537Y-106477123D01*
X161060102Y-106780557D01*
X161192760Y-107000000D01*
X161232251Y-107065326D01*
X161437460Y-107327255D01*
X161672744Y-107562539D01*
X161934673Y-107767748D01*
X161934678Y-107767751D01*
X161934682Y-107767754D01*
X162219443Y-107939898D01*
X162522877Y-108076463D01*
X162522890Y-108076467D01*
X162522895Y-108076469D01*
X162734665Y-108142458D01*
X162840559Y-108175456D01*
X163167858Y-108235436D01*
X163500000Y-108255527D01*
X163832142Y-108235436D01*
X164159441Y-108175456D01*
X164477123Y-108076463D01*
X164780557Y-107939898D01*
X165065318Y-107767754D01*
X165327252Y-107562542D01*
X165562542Y-107327252D01*
X165767754Y-107065318D01*
X165939898Y-106780557D01*
X166076463Y-106477123D01*
X166139420Y-106275084D01*
X170612500Y-106275084D01*
X170612500Y-106500000D01*
X171250000Y-106500000D01*
X171250000Y-107000000D01*
X170612500Y-107000000D01*
X170612500Y-107224915D01*
X170646604Y-107396366D01*
X170646606Y-107396374D01*
X170713506Y-107557886D01*
X170713511Y-107557895D01*
X170810633Y-107703247D01*
X170810636Y-107703251D01*
X170934248Y-107826863D01*
X170934252Y-107826866D01*
X171079604Y-107923988D01*
X171079617Y-107923995D01*
X171241120Y-107990891D01*
X171241128Y-107990893D01*
X171250000Y-107992658D01*
X171250000Y-107124728D01*
X171288060Y-107216614D01*
X171358386Y-107286940D01*
X171450272Y-107325000D01*
X171549728Y-107325000D01*
X171641614Y-107286940D01*
X171711940Y-107216614D01*
X171750000Y-107124728D01*
X171750000Y-107992657D01*
X171758871Y-107990893D01*
X171758879Y-107990891D01*
X171920382Y-107923995D01*
X171920395Y-107923988D01*
X172065747Y-107826866D01*
X172065751Y-107826863D01*
X172189363Y-107703251D01*
X172189366Y-107703247D01*
X172286488Y-107557895D01*
X172286493Y-107557886D01*
X172353393Y-107396374D01*
X172353395Y-107396366D01*
X172387499Y-107224915D01*
X172387500Y-107224912D01*
X172387500Y-107000000D01*
X171750000Y-107000000D01*
X171750000Y-106500000D01*
X172387500Y-106500000D01*
X172387500Y-106275088D01*
X172387499Y-106275084D01*
X177612500Y-106275084D01*
X177612500Y-106500000D01*
X178250000Y-106500000D01*
X178250000Y-107000000D01*
X177612500Y-107000000D01*
X177612500Y-107224915D01*
X177646604Y-107396366D01*
X177646606Y-107396374D01*
X177713506Y-107557886D01*
X177713511Y-107557895D01*
X177810633Y-107703247D01*
X177810636Y-107703251D01*
X177934248Y-107826863D01*
X177934252Y-107826866D01*
X178079604Y-107923988D01*
X178079617Y-107923995D01*
X178241120Y-107990891D01*
X178241128Y-107990893D01*
X178250000Y-107992658D01*
X178250000Y-107124728D01*
X178288060Y-107216614D01*
X178358386Y-107286940D01*
X178450272Y-107325000D01*
X178549728Y-107325000D01*
X178641614Y-107286940D01*
X178711940Y-107216614D01*
X178750000Y-107124728D01*
X178750000Y-107992657D01*
X178758871Y-107990893D01*
X178758879Y-107990891D01*
X178920382Y-107923995D01*
X178920395Y-107923988D01*
X179065747Y-107826866D01*
X179065751Y-107826863D01*
X179189363Y-107703251D01*
X179189366Y-107703247D01*
X179286488Y-107557895D01*
X179286493Y-107557886D01*
X179353393Y-107396374D01*
X179353395Y-107396366D01*
X179387499Y-107224915D01*
X179387500Y-107224912D01*
X179387500Y-107000000D01*
X178750000Y-107000000D01*
X178750000Y-106500000D01*
X179387500Y-106500000D01*
X179387500Y-106275088D01*
X179387499Y-106275084D01*
X179353395Y-106103633D01*
X179353393Y-106103625D01*
X179286493Y-105942113D01*
X179286488Y-105942104D01*
X179189366Y-105796752D01*
X179189363Y-105796748D01*
X179065751Y-105673136D01*
X179065747Y-105673133D01*
X178920395Y-105576011D01*
X178920385Y-105576006D01*
X178758871Y-105509105D01*
X178750000Y-105507339D01*
X178750000Y-106375272D01*
X178711940Y-106283386D01*
X178641614Y-106213060D01*
X178549728Y-106175000D01*
X178450272Y-106175000D01*
X178358386Y-106213060D01*
X178288060Y-106283386D01*
X178250000Y-106375272D01*
X178250000Y-105507340D01*
X178249999Y-105507339D01*
X178241128Y-105509105D01*
X178079614Y-105576006D01*
X178079604Y-105576011D01*
X177934252Y-105673133D01*
X177934248Y-105673136D01*
X177810636Y-105796748D01*
X177810633Y-105796752D01*
X177713511Y-105942104D01*
X177713506Y-105942113D01*
X177646606Y-106103625D01*
X177646604Y-106103633D01*
X177612500Y-106275084D01*
X172387499Y-106275084D01*
X172353395Y-106103633D01*
X172353393Y-106103625D01*
X172286493Y-105942113D01*
X172286488Y-105942104D01*
X172189366Y-105796752D01*
X172189363Y-105796748D01*
X172065751Y-105673136D01*
X172065747Y-105673133D01*
X171920395Y-105576011D01*
X171920385Y-105576006D01*
X171758871Y-105509105D01*
X171750000Y-105507339D01*
X171750000Y-106375272D01*
X171711940Y-106283386D01*
X171641614Y-106213060D01*
X171549728Y-106175000D01*
X171450272Y-106175000D01*
X171358386Y-106213060D01*
X171288060Y-106283386D01*
X171250000Y-106375272D01*
X171250000Y-105507340D01*
X171249999Y-105507339D01*
X171241128Y-105509105D01*
X171079614Y-105576006D01*
X171079604Y-105576011D01*
X170934252Y-105673133D01*
X170934248Y-105673136D01*
X170810636Y-105796748D01*
X170810633Y-105796752D01*
X170713511Y-105942104D01*
X170713506Y-105942113D01*
X170646606Y-106103625D01*
X170646604Y-106103633D01*
X170612500Y-106275084D01*
X166139420Y-106275084D01*
X166175456Y-106159441D01*
X166235436Y-105832142D01*
X166255527Y-105500000D01*
X166235436Y-105167858D01*
X166175456Y-104840559D01*
X166076463Y-104522877D01*
X165939898Y-104219443D01*
X165767754Y-103934682D01*
X165767751Y-103934678D01*
X165767748Y-103934673D01*
X165562539Y-103672744D01*
X165327255Y-103437460D01*
X165065326Y-103232251D01*
X164988758Y-103185964D01*
X164780557Y-103060102D01*
X164477123Y-102923537D01*
X164477116Y-102923534D01*
X164477104Y-102923530D01*
X164159449Y-102824546D01*
X164159445Y-102824545D01*
X164159441Y-102824544D01*
X163832142Y-102764564D01*
X163832141Y-102764563D01*
X163832136Y-102764563D01*
X163500000Y-102744473D01*
X163167863Y-102764563D01*
X163167858Y-102764564D01*
X162840559Y-102824544D01*
X162840556Y-102824544D01*
X162840550Y-102824546D01*
X162522895Y-102923530D01*
X162522879Y-102923536D01*
X162522877Y-102923537D01*
X162329656Y-103010498D01*
X162219447Y-103060100D01*
X162219445Y-103060101D01*
X161934673Y-103232251D01*
X161672744Y-103437460D01*
X161437460Y-103672744D01*
X161232251Y-103934673D01*
X161194496Y-103997128D01*
X161060102Y-104219443D01*
X160928504Y-104511842D01*
X160923536Y-104522880D01*
X160923530Y-104522895D01*
X160824546Y-104840550D01*
X160824544Y-104840556D01*
X160824544Y-104840559D01*
X160797610Y-104987531D01*
X160764563Y-105167863D01*
X160744473Y-105500000D01*
X160250500Y-105500000D01*
X160250500Y-102229999D01*
X166770321Y-102229999D01*
X166770321Y-102230000D01*
X166789002Y-102443527D01*
X166789004Y-102443537D01*
X166844477Y-102650567D01*
X166844481Y-102650576D01*
X166935066Y-102844838D01*
X166935067Y-102844840D01*
X166974825Y-102901620D01*
X166974826Y-102901621D01*
X167476212Y-102400234D01*
X167487482Y-102442292D01*
X167559890Y-102567708D01*
X167662292Y-102670110D01*
X167787708Y-102742518D01*
X167829764Y-102753787D01*
X167328377Y-103255173D01*
X167385160Y-103294933D01*
X167413435Y-103308117D01*
X167465875Y-103354289D01*
X167485028Y-103421482D01*
X167464813Y-103488364D01*
X167411648Y-103533699D01*
X167361033Y-103544500D01*
X167227130Y-103544500D01*
X167227123Y-103544501D01*
X167167516Y-103550908D01*
X167032671Y-103601202D01*
X167032664Y-103601206D01*
X166917455Y-103687452D01*
X166917452Y-103687455D01*
X166831206Y-103802664D01*
X166831202Y-103802671D01*
X166780908Y-103937517D01*
X166774501Y-103997116D01*
X166774501Y-103997123D01*
X166774500Y-103997135D01*
X166774500Y-105542870D01*
X166774501Y-105542876D01*
X166780908Y-105602483D01*
X166831202Y-105737328D01*
X166831206Y-105737335D01*
X166917452Y-105852544D01*
X166917455Y-105852547D01*
X167032664Y-105938793D01*
X167032671Y-105938797D01*
X167167517Y-105989091D01*
X167167516Y-105989091D01*
X167174444Y-105989835D01*
X167227127Y-105995500D01*
X168772872Y-105995499D01*
X168832483Y-105989091D01*
X168967331Y-105938796D01*
X169082546Y-105852546D01*
X169168796Y-105737331D01*
X169219091Y-105602483D01*
X169225500Y-105542873D01*
X169225499Y-103997128D01*
X169219091Y-103937517D01*
X169218030Y-103934673D01*
X169168797Y-103802671D01*
X169168793Y-103802664D01*
X169166799Y-103800000D01*
X171380626Y-103800000D01*
X172209943Y-103800000D01*
X172169225Y-103816866D01*
X172091866Y-103894225D01*
X172050000Y-103995299D01*
X172050000Y-104104701D01*
X172091866Y-104205775D01*
X172169225Y-104283134D01*
X172209943Y-104300000D01*
X171380626Y-104300000D01*
X171387466Y-104334389D01*
X171387468Y-104334397D01*
X171460964Y-104511833D01*
X171460969Y-104511842D01*
X171567667Y-104671526D01*
X171567670Y-104671530D01*
X171703469Y-104807329D01*
X171703473Y-104807332D01*
X171863157Y-104914030D01*
X171863166Y-104914035D01*
X172040602Y-104987531D01*
X172040610Y-104987533D01*
X172228966Y-105024999D01*
X172228970Y-105025000D01*
X172250000Y-105025000D01*
X172250000Y-104316591D01*
X172270299Y-104325000D01*
X172729701Y-104325000D01*
X172750000Y-104316591D01*
X172750000Y-105025000D01*
X172771030Y-105025000D01*
X172771033Y-105024999D01*
X172959389Y-104987533D01*
X172959397Y-104987531D01*
X173136833Y-104914035D01*
X173136842Y-104914030D01*
X173296526Y-104807332D01*
X173296530Y-104807329D01*
X173432329Y-104671530D01*
X173432332Y-104671526D01*
X173539030Y-104511842D01*
X173539035Y-104511833D01*
X173612531Y-104334397D01*
X173612533Y-104334389D01*
X173619374Y-104300000D01*
X172790057Y-104300000D01*
X172830775Y-104283134D01*
X172908134Y-104205775D01*
X172950000Y-104104701D01*
X172950000Y-103995299D01*
X172908134Y-103894225D01*
X172830775Y-103816866D01*
X172790057Y-103800000D01*
X173619374Y-103800000D01*
X176380626Y-103800000D01*
X177209943Y-103800000D01*
X177169225Y-103816866D01*
X177091866Y-103894225D01*
X177050000Y-103995299D01*
X177050000Y-104104701D01*
X177091866Y-104205775D01*
X177169225Y-104283134D01*
X177209943Y-104300000D01*
X176380626Y-104300000D01*
X176387466Y-104334389D01*
X176387468Y-104334397D01*
X176460964Y-104511833D01*
X176460969Y-104511842D01*
X176567667Y-104671526D01*
X176567670Y-104671530D01*
X176703469Y-104807329D01*
X176703473Y-104807332D01*
X176863157Y-104914030D01*
X176863166Y-104914035D01*
X177040602Y-104987531D01*
X177040610Y-104987533D01*
X177228966Y-105024999D01*
X177228970Y-105025000D01*
X177250000Y-105025000D01*
X177250000Y-104316591D01*
X177270299Y-104325000D01*
X177729701Y-104325000D01*
X177750000Y-104316591D01*
X177750000Y-105025000D01*
X177771030Y-105025000D01*
X177771033Y-105024999D01*
X177959389Y-104987533D01*
X177959397Y-104987531D01*
X178136833Y-104914035D01*
X178136842Y-104914030D01*
X178296526Y-104807332D01*
X178296530Y-104807329D01*
X178432329Y-104671530D01*
X178432332Y-104671526D01*
X178539030Y-104511842D01*
X178539035Y-104511833D01*
X178612531Y-104334397D01*
X178612533Y-104334389D01*
X178619374Y-104300000D01*
X177790057Y-104300000D01*
X177830775Y-104283134D01*
X177908134Y-104205775D01*
X177950000Y-104104701D01*
X177950000Y-103995299D01*
X177908134Y-103894225D01*
X177830775Y-103816866D01*
X177790057Y-103800000D01*
X178619374Y-103800000D01*
X178612533Y-103765610D01*
X178612531Y-103765602D01*
X178539035Y-103588166D01*
X178539030Y-103588157D01*
X178432332Y-103428473D01*
X178432329Y-103428469D01*
X178296530Y-103292670D01*
X178296526Y-103292667D01*
X178136842Y-103185969D01*
X178136833Y-103185964D01*
X177959397Y-103112468D01*
X177959389Y-103112466D01*
X177771033Y-103075000D01*
X177750000Y-103075000D01*
X177750000Y-103783408D01*
X177729701Y-103775000D01*
X177270299Y-103775000D01*
X177250000Y-103783408D01*
X177250000Y-103075000D01*
X177228966Y-103075000D01*
X177040610Y-103112466D01*
X177040602Y-103112468D01*
X176863166Y-103185964D01*
X176863157Y-103185969D01*
X176703473Y-103292667D01*
X176703469Y-103292670D01*
X176567670Y-103428469D01*
X176567667Y-103428473D01*
X176460969Y-103588157D01*
X176460964Y-103588166D01*
X176387468Y-103765602D01*
X176387466Y-103765610D01*
X176380626Y-103800000D01*
X173619374Y-103800000D01*
X173612533Y-103765610D01*
X173612531Y-103765602D01*
X173539035Y-103588166D01*
X173539030Y-103588157D01*
X173432332Y-103428473D01*
X173432329Y-103428469D01*
X173296530Y-103292670D01*
X173296526Y-103292667D01*
X173136842Y-103185969D01*
X173136833Y-103185964D01*
X172959397Y-103112468D01*
X172959389Y-103112466D01*
X172771033Y-103075000D01*
X172750000Y-103075000D01*
X172750000Y-103783408D01*
X172729701Y-103775000D01*
X172270299Y-103775000D01*
X172250000Y-103783408D01*
X172250000Y-103075000D01*
X172228966Y-103075000D01*
X172040610Y-103112466D01*
X172040602Y-103112468D01*
X171863166Y-103185964D01*
X171863157Y-103185969D01*
X171703473Y-103292667D01*
X171703469Y-103292670D01*
X171567670Y-103428469D01*
X171567667Y-103428473D01*
X171460969Y-103588157D01*
X171460964Y-103588166D01*
X171387468Y-103765602D01*
X171387466Y-103765610D01*
X171380626Y-103800000D01*
X169166799Y-103800000D01*
X169082547Y-103687455D01*
X169082544Y-103687452D01*
X168967335Y-103601206D01*
X168967328Y-103601202D01*
X168832482Y-103550908D01*
X168832483Y-103550908D01*
X168772883Y-103544501D01*
X168772881Y-103544500D01*
X168772873Y-103544500D01*
X168772865Y-103544500D01*
X168638968Y-103544500D01*
X168571929Y-103524815D01*
X168526174Y-103472011D01*
X168516230Y-103402853D01*
X168545255Y-103339297D01*
X168586565Y-103308117D01*
X168614839Y-103294932D01*
X168671621Y-103255173D01*
X168170235Y-102753787D01*
X168212292Y-102742518D01*
X168337708Y-102670110D01*
X168440110Y-102567708D01*
X168512518Y-102442292D01*
X168523787Y-102400234D01*
X169025173Y-102901621D01*
X169064933Y-102844839D01*
X169155518Y-102650576D01*
X169155522Y-102650567D01*
X169210995Y-102443537D01*
X169210997Y-102443527D01*
X169229679Y-102230000D01*
X169229679Y-102229999D01*
X169229679Y-102229998D01*
X180769819Y-102229998D01*
X180769819Y-102230001D01*
X180788507Y-102443613D01*
X180788509Y-102443624D01*
X180844005Y-102650739D01*
X180844007Y-102650743D01*
X180844008Y-102650747D01*
X180887713Y-102744473D01*
X180934631Y-102845090D01*
X180934632Y-102845091D01*
X181057627Y-103020745D01*
X181209255Y-103172373D01*
X181384909Y-103295368D01*
X181412252Y-103308118D01*
X181464691Y-103354288D01*
X181483845Y-103421481D01*
X181463631Y-103488363D01*
X181410467Y-103533698D01*
X181359850Y-103544500D01*
X181227130Y-103544500D01*
X181227123Y-103544501D01*
X181167516Y-103550908D01*
X181032671Y-103601202D01*
X181032664Y-103601206D01*
X180917455Y-103687452D01*
X180917452Y-103687455D01*
X180831206Y-103802664D01*
X180831202Y-103802671D01*
X180780908Y-103937517D01*
X180774501Y-103997116D01*
X180774501Y-103997123D01*
X180774500Y-103997135D01*
X180774500Y-105542870D01*
X180774501Y-105542876D01*
X180780908Y-105602483D01*
X180831202Y-105737328D01*
X180831206Y-105737335D01*
X180917452Y-105852544D01*
X180917455Y-105852547D01*
X181032664Y-105938793D01*
X181032671Y-105938797D01*
X181167517Y-105989091D01*
X181167516Y-105989091D01*
X181174444Y-105989835D01*
X181227127Y-105995500D01*
X182772872Y-105995499D01*
X182832483Y-105989091D01*
X182967331Y-105938796D01*
X183082546Y-105852546D01*
X183168796Y-105737331D01*
X183219091Y-105602483D01*
X183225500Y-105542873D01*
X183225500Y-105500000D01*
X183744473Y-105500000D01*
X183764563Y-105832136D01*
X183764563Y-105832141D01*
X183764564Y-105832142D01*
X183824544Y-106159441D01*
X183824545Y-106159445D01*
X183824546Y-106159449D01*
X183923530Y-106477104D01*
X183923534Y-106477116D01*
X183923537Y-106477123D01*
X184060102Y-106780557D01*
X184192760Y-107000000D01*
X184232251Y-107065326D01*
X184437460Y-107327255D01*
X184672744Y-107562539D01*
X184934673Y-107767748D01*
X184934678Y-107767751D01*
X184934682Y-107767754D01*
X185219443Y-107939898D01*
X185522877Y-108076463D01*
X185522890Y-108076467D01*
X185522895Y-108076469D01*
X185734665Y-108142458D01*
X185840559Y-108175456D01*
X186167858Y-108235436D01*
X186500000Y-108255527D01*
X186832142Y-108235436D01*
X187159441Y-108175456D01*
X187477123Y-108076463D01*
X187780557Y-107939898D01*
X188065318Y-107767754D01*
X188327252Y-107562542D01*
X188562542Y-107327252D01*
X188767754Y-107065318D01*
X188939898Y-106780557D01*
X189076463Y-106477123D01*
X189175456Y-106159441D01*
X189235436Y-105832142D01*
X189255527Y-105500000D01*
X189235436Y-105167858D01*
X189175456Y-104840559D01*
X189076463Y-104522877D01*
X188939898Y-104219443D01*
X188767754Y-103934682D01*
X188767751Y-103934678D01*
X188767748Y-103934673D01*
X188562539Y-103672744D01*
X188327255Y-103437460D01*
X188065326Y-103232251D01*
X187988758Y-103185964D01*
X187780557Y-103060102D01*
X187477123Y-102923537D01*
X187477116Y-102923534D01*
X187477104Y-102923530D01*
X187159449Y-102824546D01*
X187159445Y-102824545D01*
X187159441Y-102824544D01*
X186832142Y-102764564D01*
X186832141Y-102764563D01*
X186832136Y-102764563D01*
X186500000Y-102744473D01*
X186167863Y-102764563D01*
X186167858Y-102764564D01*
X185840559Y-102824544D01*
X185840556Y-102824544D01*
X185840550Y-102824546D01*
X185522895Y-102923530D01*
X185522879Y-102923536D01*
X185522877Y-102923537D01*
X185329656Y-103010498D01*
X185219447Y-103060100D01*
X185219445Y-103060101D01*
X184934673Y-103232251D01*
X184672744Y-103437460D01*
X184437460Y-103672744D01*
X184232251Y-103934673D01*
X184194496Y-103997128D01*
X184060102Y-104219443D01*
X183928504Y-104511842D01*
X183923536Y-104522880D01*
X183923530Y-104522895D01*
X183824546Y-104840550D01*
X183824544Y-104840556D01*
X183824544Y-104840559D01*
X183797610Y-104987531D01*
X183764563Y-105167863D01*
X183744473Y-105500000D01*
X183225500Y-105500000D01*
X183225499Y-103997128D01*
X183219091Y-103937517D01*
X183218030Y-103934673D01*
X183168797Y-103802671D01*
X183168793Y-103802664D01*
X183082547Y-103687455D01*
X183082544Y-103687452D01*
X182967335Y-103601206D01*
X182967328Y-103601202D01*
X182832482Y-103550908D01*
X182832483Y-103550908D01*
X182772883Y-103544501D01*
X182772881Y-103544500D01*
X182772873Y-103544500D01*
X182772865Y-103544500D01*
X182640152Y-103544500D01*
X182573113Y-103524815D01*
X182527358Y-103472011D01*
X182517414Y-103402853D01*
X182546439Y-103339297D01*
X182587746Y-103308119D01*
X182615091Y-103295368D01*
X182790745Y-103172373D01*
X182942373Y-103020745D01*
X183065368Y-102845091D01*
X183155992Y-102650747D01*
X183211492Y-102443619D01*
X183230181Y-102230000D01*
X183211492Y-102016381D01*
X183155992Y-101809253D01*
X183065368Y-101614910D01*
X182942373Y-101439255D01*
X182790745Y-101287627D01*
X182672492Y-101204825D01*
X182615090Y-101164631D01*
X182517919Y-101119320D01*
X182420747Y-101074008D01*
X182420743Y-101074007D01*
X182420739Y-101074005D01*
X182213624Y-101018509D01*
X182213620Y-101018508D01*
X182213619Y-101018508D01*
X182213618Y-101018507D01*
X182213613Y-101018507D01*
X182000002Y-100999819D01*
X181999998Y-100999819D01*
X181786386Y-101018507D01*
X181786375Y-101018509D01*
X181579260Y-101074005D01*
X181579251Y-101074009D01*
X181384910Y-101164631D01*
X181384908Y-101164632D01*
X181209259Y-101287623D01*
X181209253Y-101287628D01*
X181057628Y-101439253D01*
X181057623Y-101439259D01*
X180934632Y-101614908D01*
X180934631Y-101614910D01*
X180844009Y-101809251D01*
X180844005Y-101809260D01*
X180788509Y-102016375D01*
X180788507Y-102016386D01*
X180769819Y-102229998D01*
X169229679Y-102229998D01*
X169210997Y-102016472D01*
X169210995Y-102016462D01*
X169155522Y-101809432D01*
X169155518Y-101809423D01*
X169064933Y-101615162D01*
X169025172Y-101558379D01*
X168523787Y-102059764D01*
X168512518Y-102017708D01*
X168440110Y-101892292D01*
X168337708Y-101789890D01*
X168212292Y-101717482D01*
X168170235Y-101706212D01*
X168671621Y-101204826D01*
X168671620Y-101204825D01*
X168614840Y-101165067D01*
X168614838Y-101165066D01*
X168420576Y-101074481D01*
X168420567Y-101074477D01*
X168213537Y-101019004D01*
X168213527Y-101019002D01*
X168000001Y-101000321D01*
X167999999Y-101000321D01*
X167786472Y-101019002D01*
X167786462Y-101019004D01*
X167579432Y-101074477D01*
X167579423Y-101074481D01*
X167385162Y-101165066D01*
X167328378Y-101204826D01*
X167829765Y-101706212D01*
X167787708Y-101717482D01*
X167662292Y-101789890D01*
X167559890Y-101892292D01*
X167487482Y-102017708D01*
X167476212Y-102059764D01*
X166974826Y-101558378D01*
X166935066Y-101615162D01*
X166844481Y-101809423D01*
X166844477Y-101809432D01*
X166789004Y-102016462D01*
X166789002Y-102016472D01*
X166770321Y-102229999D01*
X160250500Y-102229999D01*
X160250500Y-97787109D01*
X160260750Y-97752199D01*
X160257387Y-97745801D01*
X160489381Y-97745801D01*
X160493477Y-97752174D01*
X160498028Y-97776302D01*
X160514781Y-97967796D01*
X160514783Y-97967807D01*
X160571366Y-98178979D01*
X160571368Y-98178983D01*
X160571369Y-98178987D01*
X160663649Y-98376882D01*
X160663768Y-98377137D01*
X160663770Y-98377141D01*
X160789167Y-98556226D01*
X160789172Y-98556232D01*
X160943767Y-98710827D01*
X160943773Y-98710832D01*
X161122858Y-98836229D01*
X161122860Y-98836230D01*
X161122863Y-98836232D01*
X161321013Y-98928631D01*
X161532198Y-98985218D01*
X161687770Y-98998828D01*
X161749998Y-99004273D01*
X161750000Y-99004273D01*
X161750002Y-99004273D01*
X161804450Y-98999509D01*
X161967802Y-98985218D01*
X162178987Y-98928631D01*
X162377137Y-98836232D01*
X162556231Y-98710829D01*
X162710829Y-98556231D01*
X162836232Y-98377137D01*
X162928631Y-98178987D01*
X162985218Y-97967802D01*
X163004273Y-97750000D01*
X163004273Y-97749999D01*
X166996229Y-97749999D01*
X166996229Y-97750000D01*
X167015276Y-97967710D01*
X167015278Y-97967720D01*
X167071838Y-98178807D01*
X167071843Y-98178821D01*
X167164200Y-98376882D01*
X167164201Y-98376884D01*
X167207592Y-98438853D01*
X167771119Y-97875326D01*
X167788734Y-97941063D01*
X167853902Y-98053937D01*
X167946063Y-98146098D01*
X168058937Y-98211266D01*
X168124672Y-98228880D01*
X167561145Y-98792406D01*
X167623115Y-98835798D01*
X167623117Y-98835799D01*
X167821178Y-98928156D01*
X167821192Y-98928161D01*
X168032279Y-98984721D01*
X168032289Y-98984723D01*
X168249999Y-99003771D01*
X168250001Y-99003771D01*
X168467710Y-98984723D01*
X168467720Y-98984721D01*
X168678807Y-98928161D01*
X168678821Y-98928156D01*
X168876883Y-98835799D01*
X168876890Y-98835795D01*
X168938853Y-98792406D01*
X168375327Y-98228879D01*
X168441063Y-98211266D01*
X168553937Y-98146098D01*
X168646098Y-98053937D01*
X168711266Y-97941063D01*
X168728880Y-97875327D01*
X169292406Y-98438853D01*
X169335795Y-98376890D01*
X169335799Y-98376883D01*
X169428156Y-98178821D01*
X169428161Y-98178807D01*
X169484721Y-97967720D01*
X169484723Y-97967710D01*
X169503771Y-97750000D01*
X169503771Y-97749999D01*
X169503771Y-97749998D01*
X180495727Y-97749998D01*
X180495727Y-97750001D01*
X180514781Y-97967796D01*
X180514783Y-97967807D01*
X180571366Y-98178979D01*
X180571368Y-98178983D01*
X180571369Y-98178987D01*
X180663649Y-98376882D01*
X180663768Y-98377137D01*
X180663770Y-98377141D01*
X180789167Y-98556226D01*
X180789172Y-98556232D01*
X180943767Y-98710827D01*
X180943773Y-98710832D01*
X181122858Y-98836229D01*
X181122860Y-98836230D01*
X181122863Y-98836232D01*
X181321013Y-98928631D01*
X181532198Y-98985218D01*
X181687770Y-98998828D01*
X181749998Y-99004273D01*
X181750000Y-99004273D01*
X181750002Y-99004273D01*
X181804450Y-98999509D01*
X181967802Y-98985218D01*
X182178987Y-98928631D01*
X182377137Y-98836232D01*
X182556231Y-98710829D01*
X182710829Y-98556231D01*
X182836232Y-98377137D01*
X182928631Y-98178987D01*
X182985218Y-97967802D01*
X183004273Y-97750000D01*
X183004273Y-97749999D01*
X186996229Y-97749999D01*
X186996229Y-97750000D01*
X187015276Y-97967710D01*
X187015278Y-97967720D01*
X187071838Y-98178807D01*
X187071843Y-98178821D01*
X187164200Y-98376882D01*
X187164201Y-98376884D01*
X187207592Y-98438853D01*
X187771119Y-97875326D01*
X187788734Y-97941063D01*
X187853902Y-98053937D01*
X187946063Y-98146098D01*
X188058937Y-98211266D01*
X188124672Y-98228880D01*
X187561145Y-98792406D01*
X187623115Y-98835798D01*
X187623117Y-98835799D01*
X187821178Y-98928156D01*
X187821192Y-98928161D01*
X188032279Y-98984721D01*
X188032289Y-98984723D01*
X188249999Y-99003771D01*
X188250001Y-99003771D01*
X188467710Y-98984723D01*
X188467720Y-98984721D01*
X188678807Y-98928161D01*
X188678821Y-98928156D01*
X188876883Y-98835799D01*
X188876890Y-98835795D01*
X188938853Y-98792406D01*
X188375327Y-98228879D01*
X188441063Y-98211266D01*
X188553937Y-98146098D01*
X188646098Y-98053937D01*
X188711266Y-97941063D01*
X188728880Y-97875327D01*
X189292406Y-98438853D01*
X189335795Y-98376890D01*
X189335799Y-98376883D01*
X189428156Y-98178821D01*
X189428161Y-98178807D01*
X189484721Y-97967720D01*
X189484723Y-97967710D01*
X189501972Y-97770562D01*
X189507827Y-97755593D01*
X189506523Y-97753564D01*
X189501972Y-97729437D01*
X189484723Y-97532289D01*
X189484721Y-97532279D01*
X189428161Y-97321192D01*
X189428156Y-97321178D01*
X189335801Y-97123121D01*
X189292405Y-97061145D01*
X188728879Y-97624671D01*
X188711266Y-97558937D01*
X188646098Y-97446063D01*
X188553937Y-97353902D01*
X188441063Y-97288734D01*
X188375326Y-97271119D01*
X188938853Y-96707592D01*
X188876884Y-96664201D01*
X188876882Y-96664200D01*
X188678821Y-96571843D01*
X188678807Y-96571838D01*
X188467720Y-96515278D01*
X188467710Y-96515276D01*
X188250001Y-96496229D01*
X188249999Y-96496229D01*
X188032289Y-96515276D01*
X188032279Y-96515278D01*
X187821192Y-96571838D01*
X187821178Y-96571843D01*
X187623114Y-96664202D01*
X187561145Y-96707591D01*
X188124673Y-97271119D01*
X188058937Y-97288734D01*
X187946063Y-97353902D01*
X187853902Y-97446063D01*
X187788734Y-97558937D01*
X187771119Y-97624673D01*
X187207591Y-97061145D01*
X187164202Y-97123114D01*
X187071843Y-97321178D01*
X187071838Y-97321192D01*
X187015278Y-97532279D01*
X187015276Y-97532289D01*
X186996229Y-97749999D01*
X183004273Y-97749999D01*
X183001528Y-97718629D01*
X182985218Y-97532203D01*
X182985218Y-97532198D01*
X182930485Y-97327931D01*
X182928633Y-97321020D01*
X182928632Y-97321019D01*
X182928631Y-97321013D01*
X182836232Y-97122864D01*
X182710829Y-96943769D01*
X182556231Y-96789171D01*
X182556227Y-96789168D01*
X182556226Y-96789167D01*
X182377141Y-96663770D01*
X182377137Y-96663768D01*
X182377133Y-96663766D01*
X182178987Y-96571369D01*
X182178983Y-96571368D01*
X182178979Y-96571366D01*
X181967807Y-96514783D01*
X181967803Y-96514782D01*
X181967802Y-96514782D01*
X181967801Y-96514781D01*
X181967796Y-96514781D01*
X181750002Y-96495727D01*
X181749998Y-96495727D01*
X181532203Y-96514781D01*
X181532192Y-96514783D01*
X181321020Y-96571366D01*
X181321011Y-96571370D01*
X181122866Y-96663766D01*
X180943766Y-96789172D01*
X180789172Y-96943766D01*
X180663766Y-97122866D01*
X180571370Y-97321011D01*
X180571366Y-97321020D01*
X180514783Y-97532192D01*
X180514781Y-97532203D01*
X180495727Y-97749998D01*
X169503771Y-97749998D01*
X169484723Y-97532289D01*
X169484721Y-97532279D01*
X169428161Y-97321192D01*
X169428156Y-97321178D01*
X169335801Y-97123121D01*
X169292405Y-97061145D01*
X168728879Y-97624671D01*
X168711266Y-97558937D01*
X168646098Y-97446063D01*
X168553937Y-97353902D01*
X168441063Y-97288734D01*
X168375326Y-97271119D01*
X168646445Y-97000000D01*
X174044355Y-97000000D01*
X174064859Y-97168869D01*
X174064860Y-97168874D01*
X174125182Y-97327931D01*
X174187475Y-97418177D01*
X174221817Y-97467929D01*
X174294465Y-97532289D01*
X174349150Y-97580736D01*
X174499773Y-97659789D01*
X174499775Y-97659790D01*
X174664944Y-97700500D01*
X174835056Y-97700500D01*
X175000225Y-97659790D01*
X175079692Y-97618081D01*
X175150849Y-97580736D01*
X175150850Y-97580734D01*
X175150852Y-97580734D01*
X175278183Y-97467929D01*
X175374818Y-97327930D01*
X175435140Y-97168872D01*
X175455645Y-97000000D01*
X175435140Y-96831128D01*
X175419226Y-96789167D01*
X175413231Y-96773358D01*
X175374818Y-96672070D01*
X175369386Y-96664201D01*
X175340476Y-96622318D01*
X175278183Y-96532071D01*
X175150852Y-96419266D01*
X175150849Y-96419263D01*
X175000226Y-96340210D01*
X174835056Y-96299500D01*
X174664944Y-96299500D01*
X174499773Y-96340210D01*
X174349150Y-96419263D01*
X174221816Y-96532072D01*
X174125182Y-96672068D01*
X174064860Y-96831125D01*
X174064859Y-96831130D01*
X174044355Y-97000000D01*
X168646445Y-97000000D01*
X168938853Y-96707592D01*
X168876884Y-96664201D01*
X168876882Y-96664200D01*
X168678821Y-96571843D01*
X168678807Y-96571838D01*
X168467720Y-96515278D01*
X168467710Y-96515276D01*
X168250001Y-96496229D01*
X168249999Y-96496229D01*
X168032289Y-96515276D01*
X168032279Y-96515278D01*
X167821192Y-96571838D01*
X167821178Y-96571843D01*
X167623114Y-96664202D01*
X167561145Y-96707591D01*
X168124673Y-97271119D01*
X168058937Y-97288734D01*
X167946063Y-97353902D01*
X167853902Y-97446063D01*
X167788734Y-97558937D01*
X167771119Y-97624673D01*
X167207591Y-97061145D01*
X167164202Y-97123114D01*
X167071843Y-97321178D01*
X167071838Y-97321192D01*
X167015278Y-97532279D01*
X167015276Y-97532289D01*
X166996229Y-97749999D01*
X163004273Y-97749999D01*
X163001528Y-97718629D01*
X162985218Y-97532203D01*
X162985218Y-97532198D01*
X162930485Y-97327931D01*
X162928633Y-97321020D01*
X162928632Y-97321019D01*
X162928631Y-97321013D01*
X162836232Y-97122864D01*
X162710829Y-96943769D01*
X162556231Y-96789171D01*
X162556227Y-96789168D01*
X162556226Y-96789167D01*
X162377141Y-96663770D01*
X162377137Y-96663768D01*
X162377133Y-96663766D01*
X162178987Y-96571369D01*
X162178983Y-96571368D01*
X162178979Y-96571366D01*
X161967807Y-96514783D01*
X161967803Y-96514782D01*
X161967802Y-96514782D01*
X161967801Y-96514781D01*
X161967796Y-96514781D01*
X161750002Y-96495727D01*
X161749998Y-96495727D01*
X161532203Y-96514781D01*
X161532192Y-96514783D01*
X161321020Y-96571366D01*
X161321011Y-96571370D01*
X161122866Y-96663766D01*
X160943766Y-96789172D01*
X160789172Y-96943766D01*
X160663766Y-97122866D01*
X160571370Y-97321011D01*
X160571366Y-97321020D01*
X160514783Y-97532192D01*
X160514781Y-97532203D01*
X160498028Y-97723697D01*
X160489381Y-97745801D01*
X160257387Y-97745801D01*
X160252931Y-97737322D01*
X160250500Y-97712890D01*
X160250500Y-92453135D01*
X160500500Y-92453135D01*
X160500500Y-94046870D01*
X160500501Y-94046876D01*
X160506908Y-94106483D01*
X160557202Y-94241328D01*
X160557206Y-94241335D01*
X160643452Y-94356544D01*
X160643455Y-94356547D01*
X160758664Y-94442793D01*
X160758671Y-94442797D01*
X160893517Y-94493091D01*
X160893516Y-94493091D01*
X160900444Y-94493835D01*
X160953127Y-94499500D01*
X162546872Y-94499499D01*
X162606483Y-94493091D01*
X162741331Y-94442796D01*
X162856546Y-94356546D01*
X162942796Y-94241331D01*
X162993091Y-94106483D01*
X162999500Y-94046873D01*
X162999499Y-93249998D01*
X166995727Y-93249998D01*
X166995727Y-93250001D01*
X167014781Y-93467796D01*
X167014783Y-93467807D01*
X167071366Y-93678979D01*
X167071368Y-93678983D01*
X167071369Y-93678987D01*
X167163768Y-93877137D01*
X167163770Y-93877141D01*
X167289167Y-94056226D01*
X167289172Y-94056232D01*
X167443767Y-94210827D01*
X167443773Y-94210832D01*
X167622858Y-94336229D01*
X167622860Y-94336230D01*
X167622863Y-94336232D01*
X167821013Y-94428631D01*
X168032198Y-94485218D01*
X168187770Y-94498828D01*
X168249998Y-94504273D01*
X168250000Y-94504273D01*
X168250002Y-94504273D01*
X168304579Y-94499498D01*
X168467802Y-94485218D01*
X168678987Y-94428631D01*
X168877137Y-94336232D01*
X169056231Y-94210829D01*
X169210829Y-94056231D01*
X169336232Y-93877137D01*
X169428631Y-93678987D01*
X169485218Y-93467802D01*
X169504273Y-93250000D01*
X169504080Y-93247799D01*
X169485218Y-93032203D01*
X169485218Y-93032198D01*
X169428631Y-92821013D01*
X169336232Y-92622864D01*
X169217387Y-92453135D01*
X180500500Y-92453135D01*
X180500500Y-94046870D01*
X180500501Y-94046876D01*
X180506908Y-94106483D01*
X180557202Y-94241328D01*
X180557206Y-94241335D01*
X180643452Y-94356544D01*
X180643455Y-94356547D01*
X180758664Y-94442793D01*
X180758671Y-94442797D01*
X180893517Y-94493091D01*
X180893516Y-94493091D01*
X180900444Y-94493835D01*
X180953127Y-94499500D01*
X182546872Y-94499499D01*
X182606483Y-94493091D01*
X182741331Y-94442796D01*
X182856546Y-94356546D01*
X182942796Y-94241331D01*
X182993091Y-94106483D01*
X182999500Y-94046873D01*
X182999499Y-93249998D01*
X186995727Y-93249998D01*
X186995727Y-93250001D01*
X187014781Y-93467796D01*
X187014783Y-93467807D01*
X187071366Y-93678979D01*
X187071368Y-93678983D01*
X187071369Y-93678987D01*
X187163768Y-93877137D01*
X187163770Y-93877141D01*
X187289167Y-94056226D01*
X187289172Y-94056232D01*
X187443767Y-94210827D01*
X187443773Y-94210832D01*
X187622858Y-94336229D01*
X187622860Y-94336230D01*
X187622863Y-94336232D01*
X187821013Y-94428631D01*
X188032198Y-94485218D01*
X188187770Y-94498828D01*
X188249998Y-94504273D01*
X188250000Y-94504273D01*
X188250002Y-94504273D01*
X188304579Y-94499498D01*
X188467802Y-94485218D01*
X188678987Y-94428631D01*
X188877137Y-94336232D01*
X189056231Y-94210829D01*
X189210829Y-94056231D01*
X189336232Y-93877137D01*
X189428631Y-93678987D01*
X189485218Y-93467802D01*
X189501972Y-93276302D01*
X189510618Y-93254197D01*
X189506523Y-93247825D01*
X189501972Y-93223697D01*
X189485218Y-93032203D01*
X189485218Y-93032198D01*
X189428631Y-92821013D01*
X189336232Y-92622864D01*
X189210829Y-92443769D01*
X189056231Y-92289171D01*
X189056227Y-92289168D01*
X189056226Y-92289167D01*
X188877141Y-92163770D01*
X188877137Y-92163768D01*
X188877133Y-92163766D01*
X188678987Y-92071369D01*
X188678983Y-92071368D01*
X188678979Y-92071366D01*
X188467807Y-92014783D01*
X188467803Y-92014782D01*
X188467802Y-92014782D01*
X188467801Y-92014781D01*
X188467796Y-92014781D01*
X188250002Y-91995727D01*
X188249998Y-91995727D01*
X188032203Y-92014781D01*
X188032192Y-92014783D01*
X187821020Y-92071366D01*
X187821011Y-92071370D01*
X187622866Y-92163766D01*
X187443766Y-92289172D01*
X187289172Y-92443766D01*
X187163766Y-92622866D01*
X187071370Y-92821011D01*
X187071366Y-92821020D01*
X187014783Y-93032192D01*
X187014781Y-93032203D01*
X186995727Y-93249998D01*
X182999499Y-93249998D01*
X182999499Y-92453128D01*
X182993091Y-92393517D01*
X182954172Y-92289171D01*
X182942797Y-92258671D01*
X182942793Y-92258664D01*
X182856547Y-92143455D01*
X182856544Y-92143452D01*
X182741335Y-92057206D01*
X182741328Y-92057202D01*
X182606482Y-92006908D01*
X182606483Y-92006908D01*
X182546883Y-92000501D01*
X182546881Y-92000500D01*
X182546873Y-92000500D01*
X182546864Y-92000500D01*
X180953129Y-92000500D01*
X180953123Y-92000501D01*
X180893516Y-92006908D01*
X180758671Y-92057202D01*
X180758664Y-92057206D01*
X180643455Y-92143452D01*
X180643452Y-92143455D01*
X180557206Y-92258664D01*
X180557202Y-92258671D01*
X180506908Y-92393517D01*
X180501506Y-92443766D01*
X180500501Y-92453123D01*
X180500500Y-92453135D01*
X169217387Y-92453135D01*
X169210829Y-92443769D01*
X169056231Y-92289171D01*
X169056227Y-92289168D01*
X169056226Y-92289167D01*
X168877141Y-92163770D01*
X168877137Y-92163768D01*
X168877133Y-92163766D01*
X168678987Y-92071369D01*
X168678983Y-92071368D01*
X168678979Y-92071366D01*
X168467807Y-92014783D01*
X168467803Y-92014782D01*
X168467802Y-92014782D01*
X168467801Y-92014781D01*
X168467796Y-92014781D01*
X168250002Y-91995727D01*
X168249998Y-91995727D01*
X168032203Y-92014781D01*
X168032192Y-92014783D01*
X167821020Y-92071366D01*
X167821011Y-92071370D01*
X167622866Y-92163766D01*
X167443766Y-92289172D01*
X167289172Y-92443766D01*
X167163766Y-92622866D01*
X167071370Y-92821011D01*
X167071366Y-92821020D01*
X167014783Y-93032192D01*
X167014781Y-93032203D01*
X166995727Y-93249998D01*
X162999499Y-93249998D01*
X162999499Y-92453128D01*
X162993091Y-92393517D01*
X162954172Y-92289171D01*
X162942797Y-92258671D01*
X162942793Y-92258664D01*
X162856547Y-92143455D01*
X162856544Y-92143452D01*
X162741335Y-92057206D01*
X162741328Y-92057202D01*
X162606482Y-92006908D01*
X162606483Y-92006908D01*
X162546883Y-92000501D01*
X162546881Y-92000500D01*
X162546873Y-92000500D01*
X162546864Y-92000500D01*
X160953129Y-92000500D01*
X160953123Y-92000501D01*
X160893516Y-92006908D01*
X160758671Y-92057202D01*
X160758664Y-92057206D01*
X160643455Y-92143452D01*
X160643452Y-92143455D01*
X160557206Y-92258664D01*
X160557202Y-92258671D01*
X160506908Y-92393517D01*
X160501506Y-92443766D01*
X160500501Y-92453123D01*
X160500500Y-92453135D01*
X160250500Y-92453135D01*
X160250500Y-86750000D01*
X164544355Y-86750000D01*
X164564859Y-86918869D01*
X164564860Y-86918874D01*
X164625182Y-87077931D01*
X164687475Y-87168177D01*
X164721817Y-87217929D01*
X164827505Y-87311560D01*
X164849150Y-87330736D01*
X164999773Y-87409789D01*
X164999775Y-87409790D01*
X165164944Y-87450500D01*
X165335056Y-87450500D01*
X165500225Y-87409790D01*
X165579692Y-87368081D01*
X165650849Y-87330736D01*
X165650850Y-87330734D01*
X165650852Y-87330734D01*
X165778183Y-87217929D01*
X165874818Y-87077930D01*
X165935140Y-86918872D01*
X165955645Y-86750000D01*
X168044355Y-86750000D01*
X168064859Y-86918869D01*
X168064860Y-86918874D01*
X168125182Y-87077931D01*
X168187475Y-87168177D01*
X168221817Y-87217929D01*
X168327505Y-87311560D01*
X168349150Y-87330736D01*
X168499773Y-87409789D01*
X168499775Y-87409790D01*
X168664944Y-87450500D01*
X168835056Y-87450500D01*
X169000225Y-87409790D01*
X169079692Y-87368081D01*
X169150849Y-87330736D01*
X169150850Y-87330734D01*
X169150852Y-87330734D01*
X169278183Y-87217929D01*
X169374818Y-87077930D01*
X169435140Y-86918872D01*
X169455645Y-86750000D01*
X169435140Y-86581128D01*
X169374818Y-86422070D01*
X169278183Y-86282071D01*
X169150852Y-86169266D01*
X169150849Y-86169263D01*
X169000226Y-86090210D01*
X168835056Y-86049500D01*
X168664944Y-86049500D01*
X168499773Y-86090210D01*
X168349150Y-86169263D01*
X168221816Y-86282072D01*
X168125182Y-86422068D01*
X168064860Y-86581125D01*
X168064859Y-86581130D01*
X168044355Y-86750000D01*
X165955645Y-86750000D01*
X165935140Y-86581128D01*
X165874818Y-86422070D01*
X165778183Y-86282071D01*
X165650852Y-86169266D01*
X165650849Y-86169263D01*
X165500226Y-86090210D01*
X165335056Y-86049500D01*
X165164944Y-86049500D01*
X164999773Y-86090210D01*
X164849150Y-86169263D01*
X164721816Y-86282072D01*
X164625182Y-86422068D01*
X164564860Y-86581125D01*
X164564859Y-86581130D01*
X164544355Y-86750000D01*
X160250500Y-86750000D01*
X160250500Y-85000000D01*
X185044355Y-85000000D01*
X185064859Y-85168869D01*
X185064860Y-85168874D01*
X185125182Y-85327931D01*
X185187475Y-85418177D01*
X185221817Y-85467929D01*
X185327505Y-85561560D01*
X185349150Y-85580736D01*
X185499773Y-85659789D01*
X185499775Y-85659790D01*
X185664944Y-85700500D01*
X185835056Y-85700500D01*
X186000225Y-85659790D01*
X186079692Y-85618081D01*
X186150849Y-85580736D01*
X186150850Y-85580734D01*
X186150852Y-85580734D01*
X186278183Y-85467929D01*
X186374818Y-85327930D01*
X186435140Y-85168872D01*
X186455645Y-85000000D01*
X186435140Y-84831128D01*
X186374818Y-84672070D01*
X186278183Y-84532071D01*
X186150852Y-84419266D01*
X186150849Y-84419263D01*
X186000226Y-84340210D01*
X185835056Y-84299500D01*
X185664944Y-84299500D01*
X185499773Y-84340210D01*
X185349150Y-84419263D01*
X185221816Y-84532072D01*
X185125182Y-84672068D01*
X185064860Y-84831125D01*
X185064859Y-84831130D01*
X185044355Y-85000000D01*
X160250500Y-85000000D01*
X160250500Y-82250000D01*
X173544355Y-82250000D01*
X173564859Y-82418869D01*
X173564860Y-82418874D01*
X173625182Y-82577931D01*
X173687475Y-82668177D01*
X173721817Y-82717929D01*
X173827505Y-82811560D01*
X173849150Y-82830736D01*
X173999773Y-82909789D01*
X173999775Y-82909790D01*
X174164944Y-82950500D01*
X174335056Y-82950500D01*
X174500225Y-82909790D01*
X174579692Y-82868081D01*
X174650849Y-82830736D01*
X174650850Y-82830734D01*
X174650852Y-82830734D01*
X174778183Y-82717929D01*
X174874818Y-82577930D01*
X174935140Y-82418872D01*
X174955645Y-82250000D01*
X174935140Y-82081128D01*
X174874818Y-81922070D01*
X174778183Y-81782071D01*
X174650852Y-81669266D01*
X174650849Y-81669263D01*
X174500226Y-81590210D01*
X174335056Y-81549500D01*
X174164944Y-81549500D01*
X173999773Y-81590210D01*
X173849150Y-81669263D01*
X173721816Y-81782072D01*
X173625182Y-81922068D01*
X173564860Y-82081125D01*
X173564859Y-82081130D01*
X173544355Y-82250000D01*
X160250500Y-82250000D01*
X160250500Y-81000000D01*
X172294355Y-81000000D01*
X172314859Y-81168869D01*
X172314860Y-81168874D01*
X172375182Y-81327931D01*
X172437475Y-81418177D01*
X172471817Y-81467929D01*
X172563892Y-81549500D01*
X172599150Y-81580736D01*
X172749773Y-81659789D01*
X172749775Y-81659790D01*
X172914944Y-81700500D01*
X173085056Y-81700500D01*
X173250225Y-81659790D01*
X173329692Y-81618081D01*
X173400849Y-81580736D01*
X173400850Y-81580734D01*
X173400852Y-81580734D01*
X173528183Y-81467929D01*
X173624818Y-81327930D01*
X173685140Y-81168872D01*
X173705645Y-81000000D01*
X173685140Y-80831128D01*
X173624818Y-80672070D01*
X173528183Y-80532071D01*
X173400852Y-80419266D01*
X173400849Y-80419263D01*
X173250226Y-80340210D01*
X173085056Y-80299500D01*
X172914944Y-80299500D01*
X172749773Y-80340210D01*
X172599150Y-80419263D01*
X172471816Y-80532072D01*
X172375182Y-80672068D01*
X172314860Y-80831125D01*
X172314859Y-80831130D01*
X172294355Y-81000000D01*
X160250500Y-81000000D01*
X160250500Y-75750000D01*
X175044355Y-75750000D01*
X175064859Y-75918869D01*
X175064860Y-75918874D01*
X175125182Y-76077931D01*
X175187475Y-76168177D01*
X175221817Y-76217929D01*
X175327505Y-76311560D01*
X175349150Y-76330736D01*
X175499773Y-76409789D01*
X175499775Y-76409790D01*
X175664944Y-76450500D01*
X175664948Y-76450500D01*
X175669686Y-76451075D01*
X175733866Y-76478693D01*
X175736974Y-76481357D01*
X175849147Y-76580733D01*
X175849149Y-76580735D01*
X175952687Y-76635076D01*
X175999775Y-76659790D01*
X176164944Y-76700500D01*
X176335056Y-76700500D01*
X176500225Y-76659790D01*
X176533385Y-76642385D01*
X176601892Y-76628660D01*
X176666945Y-76654151D01*
X176673238Y-76659367D01*
X176713057Y-76694643D01*
X176713059Y-76694645D01*
X176863683Y-76773699D01*
X176863685Y-76773700D01*
X177028854Y-76814410D01*
X177198966Y-76814410D01*
X177364135Y-76773700D01*
X177453457Y-76726819D01*
X177514755Y-76694648D01*
X177514757Y-76694646D01*
X177514762Y-76694644D01*
X177562833Y-76652056D01*
X177626064Y-76622335D01*
X177695328Y-76631517D01*
X177702674Y-76635069D01*
X177749775Y-76659790D01*
X177914944Y-76700500D01*
X178085056Y-76700500D01*
X178250225Y-76659790D01*
X178359173Y-76602609D01*
X178400849Y-76580736D01*
X178400850Y-76580734D01*
X178400852Y-76580734D01*
X178528183Y-76467929D01*
X178624818Y-76327930D01*
X178685140Y-76168872D01*
X178705645Y-76000000D01*
X178685140Y-75831128D01*
X178624818Y-75672070D01*
X178528183Y-75532071D01*
X178400852Y-75419266D01*
X178400849Y-75419263D01*
X178250226Y-75340210D01*
X178085056Y-75299500D01*
X177914944Y-75299500D01*
X177749773Y-75340210D01*
X177599151Y-75419263D01*
X177599149Y-75419265D01*
X177551075Y-75461854D01*
X177487841Y-75491574D01*
X177418578Y-75482390D01*
X177411224Y-75478834D01*
X177364133Y-75454119D01*
X177198966Y-75413410D01*
X177028854Y-75413410D01*
X176863685Y-75454120D01*
X176830521Y-75471525D01*
X176762012Y-75485248D01*
X176696960Y-75459754D01*
X176690671Y-75454542D01*
X176650852Y-75419266D01*
X176650850Y-75419264D01*
X176500226Y-75340210D01*
X176417640Y-75319855D01*
X176335056Y-75299500D01*
X176335055Y-75299500D01*
X176330304Y-75298923D01*
X176266126Y-75271300D01*
X176263025Y-75268642D01*
X176150852Y-75169266D01*
X176150850Y-75169264D01*
X176000226Y-75090210D01*
X175835056Y-75049500D01*
X175664944Y-75049500D01*
X175499773Y-75090210D01*
X175349150Y-75169263D01*
X175221816Y-75282072D01*
X175125182Y-75422068D01*
X175064860Y-75581125D01*
X175064859Y-75581130D01*
X175044355Y-75750000D01*
X160250500Y-75750000D01*
X160250500Y-63489998D01*
X160769819Y-63489998D01*
X160769819Y-63490001D01*
X160788507Y-63703613D01*
X160788509Y-63703624D01*
X160844005Y-63910739D01*
X160844007Y-63910743D01*
X160844008Y-63910747D01*
X160889320Y-64007919D01*
X160934631Y-64105090D01*
X161057627Y-64280745D01*
X161209254Y-64432372D01*
X161384909Y-64555368D01*
X161582740Y-64647618D01*
X161635179Y-64693790D01*
X161654331Y-64760984D01*
X161634115Y-64827865D01*
X161582740Y-64872382D01*
X161384910Y-64964631D01*
X161384908Y-64964632D01*
X161209259Y-65087623D01*
X161209253Y-65087628D01*
X161057628Y-65239253D01*
X161057623Y-65239259D01*
X160934632Y-65414908D01*
X160934631Y-65414910D01*
X160844009Y-65609251D01*
X160844005Y-65609260D01*
X160788509Y-65816375D01*
X160788507Y-65816386D01*
X160769819Y-66029998D01*
X160769819Y-66030001D01*
X160788507Y-66243613D01*
X160788509Y-66243624D01*
X160844005Y-66450739D01*
X160844007Y-66450743D01*
X160844008Y-66450747D01*
X160889320Y-66547919D01*
X160934631Y-66645090D01*
X161057627Y-66820745D01*
X161209254Y-66972372D01*
X161384909Y-67095368D01*
X161582740Y-67187618D01*
X161635179Y-67233790D01*
X161654331Y-67300984D01*
X161634115Y-67367865D01*
X161582740Y-67412382D01*
X161384910Y-67504631D01*
X161384908Y-67504632D01*
X161209259Y-67627623D01*
X161209253Y-67627628D01*
X161057628Y-67779253D01*
X161057623Y-67779259D01*
X160934632Y-67954908D01*
X160934631Y-67954910D01*
X160844009Y-68149251D01*
X160844005Y-68149260D01*
X160788509Y-68356375D01*
X160788507Y-68356386D01*
X160769819Y-68569998D01*
X160769819Y-68570001D01*
X160788507Y-68783613D01*
X160788509Y-68783624D01*
X160844005Y-68990739D01*
X160844007Y-68990743D01*
X160844008Y-68990747D01*
X160871405Y-69049500D01*
X160934631Y-69185090D01*
X161002539Y-69282072D01*
X161057627Y-69360745D01*
X161209255Y-69512373D01*
X161307447Y-69581128D01*
X161384909Y-69635368D01*
X161582740Y-69727618D01*
X161635179Y-69773790D01*
X161654331Y-69840984D01*
X161634115Y-69907865D01*
X161582740Y-69952382D01*
X161384910Y-70044631D01*
X161384908Y-70044632D01*
X161209259Y-70167623D01*
X161209253Y-70167628D01*
X161057628Y-70319253D01*
X161057623Y-70319259D01*
X160934632Y-70494908D01*
X160934631Y-70494910D01*
X160844009Y-70689251D01*
X160844005Y-70689260D01*
X160788509Y-70896375D01*
X160788507Y-70896386D01*
X160769819Y-71109998D01*
X160769819Y-71110001D01*
X160788507Y-71323613D01*
X160788509Y-71323624D01*
X160844005Y-71530739D01*
X160844007Y-71530743D01*
X160844008Y-71530747D01*
X160867500Y-71581125D01*
X160934631Y-71725090D01*
X161008604Y-71830734D01*
X161057627Y-71900745D01*
X161209255Y-72052373D01*
X161384909Y-72175368D01*
X161412252Y-72188118D01*
X161464691Y-72234288D01*
X161483845Y-72301481D01*
X161463631Y-72368363D01*
X161410467Y-72413698D01*
X161359850Y-72424500D01*
X161227130Y-72424500D01*
X161227123Y-72424501D01*
X161167516Y-72430908D01*
X161032671Y-72481202D01*
X161032664Y-72481206D01*
X160917455Y-72567452D01*
X160917452Y-72567455D01*
X160831206Y-72682664D01*
X160831202Y-72682671D01*
X160780908Y-72817517D01*
X160774501Y-72877116D01*
X160774501Y-72877123D01*
X160774500Y-72877135D01*
X160774500Y-74422870D01*
X160774501Y-74422876D01*
X160780908Y-74482483D01*
X160831202Y-74617328D01*
X160831206Y-74617335D01*
X160917452Y-74732544D01*
X160917455Y-74732547D01*
X161032664Y-74818793D01*
X161032671Y-74818797D01*
X161167517Y-74869091D01*
X161167516Y-74869091D01*
X161174444Y-74869835D01*
X161227127Y-74875500D01*
X162772872Y-74875499D01*
X162832483Y-74869091D01*
X162967331Y-74818796D01*
X163082546Y-74732546D01*
X163168796Y-74617331D01*
X163219091Y-74482483D01*
X163225500Y-74422873D01*
X163225499Y-73500000D01*
X169544355Y-73500000D01*
X169564859Y-73668869D01*
X169564860Y-73668874D01*
X169625182Y-73827931D01*
X169681686Y-73909789D01*
X169721817Y-73967929D01*
X169809043Y-74045204D01*
X169849150Y-74080736D01*
X169999773Y-74159789D01*
X169999775Y-74159790D01*
X170164944Y-74200500D01*
X170335056Y-74200500D01*
X170500225Y-74159790D01*
X170579692Y-74118081D01*
X170650849Y-74080736D01*
X170650850Y-74080734D01*
X170650852Y-74080734D01*
X170778183Y-73967929D01*
X170874818Y-73827930D01*
X170935140Y-73668872D01*
X170955645Y-73500000D01*
X172544355Y-73500000D01*
X172564859Y-73668869D01*
X172564860Y-73668874D01*
X172625182Y-73827931D01*
X172681686Y-73909789D01*
X172721817Y-73967929D01*
X172809043Y-74045204D01*
X172849150Y-74080736D01*
X172999773Y-74159789D01*
X172999775Y-74159790D01*
X173164944Y-74200500D01*
X173335056Y-74200500D01*
X173500225Y-74159790D01*
X173589547Y-74112909D01*
X173650845Y-74080738D01*
X173650846Y-74080736D01*
X173650852Y-74080734D01*
X173667773Y-74065742D01*
X173731004Y-74036022D01*
X173800267Y-74045204D01*
X173832224Y-74065741D01*
X173849148Y-74080734D01*
X173849150Y-74080735D01*
X173849154Y-74080738D01*
X173999773Y-74159789D01*
X173999775Y-74159790D01*
X174164944Y-74200500D01*
X174335056Y-74200500D01*
X174500225Y-74159790D01*
X174579692Y-74118081D01*
X174650849Y-74080736D01*
X174650850Y-74080734D01*
X174650852Y-74080734D01*
X174778183Y-73967929D01*
X174778186Y-73967925D01*
X174782184Y-73963413D01*
X174841373Y-73926286D01*
X174911239Y-73927052D01*
X174967816Y-73963413D01*
X174971813Y-73967925D01*
X174971816Y-73967927D01*
X174971817Y-73967929D01*
X174999999Y-73992896D01*
X175099150Y-74080736D01*
X175249773Y-74159789D01*
X175249775Y-74159790D01*
X175414944Y-74200500D01*
X175585056Y-74200500D01*
X175750225Y-74159790D01*
X175829692Y-74118081D01*
X175900849Y-74080736D01*
X175900850Y-74080734D01*
X175900852Y-74080734D01*
X176028183Y-73967929D01*
X176124818Y-73827930D01*
X176185140Y-73668872D01*
X176205645Y-73500000D01*
X176185140Y-73331128D01*
X176154373Y-73250000D01*
X178794355Y-73250000D01*
X178814859Y-73418869D01*
X178814860Y-73418874D01*
X178875182Y-73577931D01*
X178937475Y-73668177D01*
X178971817Y-73717929D01*
X179077505Y-73811560D01*
X179099150Y-73830736D01*
X179249773Y-73909789D01*
X179249775Y-73909790D01*
X179414944Y-73950500D01*
X179585056Y-73950500D01*
X179750225Y-73909790D01*
X179829692Y-73868081D01*
X179900849Y-73830736D01*
X179900850Y-73830734D01*
X179900852Y-73830734D01*
X180028183Y-73717929D01*
X180124818Y-73577930D01*
X180185140Y-73418872D01*
X180205645Y-73250000D01*
X180185140Y-73081128D01*
X180124818Y-72922070D01*
X180122881Y-72919264D01*
X180090476Y-72872318D01*
X180028183Y-72782071D01*
X179900852Y-72669266D01*
X179900849Y-72669263D01*
X179750226Y-72590210D01*
X179585056Y-72549500D01*
X179414944Y-72549500D01*
X179249773Y-72590210D01*
X179099150Y-72669263D01*
X178971816Y-72782072D01*
X178875182Y-72922068D01*
X178814860Y-73081125D01*
X178814859Y-73081130D01*
X178794355Y-73250000D01*
X176154373Y-73250000D01*
X176124818Y-73172070D01*
X176028183Y-73032071D01*
X175933316Y-72948026D01*
X175900849Y-72919263D01*
X175750226Y-72840210D01*
X175585056Y-72799500D01*
X175414944Y-72799500D01*
X175249773Y-72840210D01*
X175099150Y-72919263D01*
X174971813Y-73032074D01*
X174967812Y-73036591D01*
X174908621Y-73073715D01*
X174838756Y-73072945D01*
X174782188Y-73036591D01*
X174778186Y-73032074D01*
X174650849Y-72919263D01*
X174500226Y-72840210D01*
X174335056Y-72799500D01*
X174164944Y-72799500D01*
X173999773Y-72840210D01*
X173849150Y-72919264D01*
X173832227Y-72934257D01*
X173768993Y-72963978D01*
X173699730Y-72954794D01*
X173667773Y-72934257D01*
X173650852Y-72919266D01*
X173650850Y-72919265D01*
X173650849Y-72919264D01*
X173500226Y-72840210D01*
X173335056Y-72799500D01*
X173164944Y-72799500D01*
X172999773Y-72840210D01*
X172849150Y-72919263D01*
X172721816Y-73032072D01*
X172625182Y-73172068D01*
X172564860Y-73331125D01*
X172564859Y-73331130D01*
X172544355Y-73500000D01*
X170955645Y-73500000D01*
X170935140Y-73331128D01*
X170874818Y-73172070D01*
X170778183Y-73032071D01*
X170683316Y-72948026D01*
X170650849Y-72919263D01*
X170500226Y-72840210D01*
X170335056Y-72799500D01*
X170164944Y-72799500D01*
X169999773Y-72840210D01*
X169849150Y-72919263D01*
X169721816Y-73032072D01*
X169625182Y-73172068D01*
X169564860Y-73331125D01*
X169564859Y-73331130D01*
X169544355Y-73500000D01*
X163225499Y-73500000D01*
X163225499Y-72877128D01*
X163219091Y-72817517D01*
X163168796Y-72682669D01*
X163168795Y-72682668D01*
X163168793Y-72682664D01*
X163082547Y-72567455D01*
X163082544Y-72567452D01*
X162967335Y-72481206D01*
X162967328Y-72481202D01*
X162832482Y-72430908D01*
X162832483Y-72430908D01*
X162772883Y-72424501D01*
X162772881Y-72424500D01*
X162772873Y-72424500D01*
X162772865Y-72424500D01*
X162640152Y-72424500D01*
X162573113Y-72404815D01*
X162527358Y-72352011D01*
X162517414Y-72282853D01*
X162546439Y-72219297D01*
X162587746Y-72188119D01*
X162615091Y-72175368D01*
X162790745Y-72052373D01*
X162843118Y-72000000D01*
X165294355Y-72000000D01*
X165314859Y-72168869D01*
X165314860Y-72168874D01*
X165375182Y-72327931D01*
X165383638Y-72340181D01*
X165471817Y-72467929D01*
X165563892Y-72549500D01*
X165599150Y-72580736D01*
X165749773Y-72659789D01*
X165749775Y-72659790D01*
X165914944Y-72700500D01*
X166085056Y-72700500D01*
X166250225Y-72659790D01*
X166329692Y-72618081D01*
X166400849Y-72580736D01*
X166400850Y-72580734D01*
X166400852Y-72580734D01*
X166528183Y-72467929D01*
X166624818Y-72327930D01*
X166685140Y-72168872D01*
X166705645Y-72000000D01*
X166685140Y-71831128D01*
X166654373Y-71750000D01*
X176794355Y-71750000D01*
X176814859Y-71918869D01*
X176814861Y-71918877D01*
X176876357Y-72081030D01*
X176881724Y-72150693D01*
X176876357Y-72168970D01*
X176814861Y-72331122D01*
X176814859Y-72331130D01*
X176794355Y-72500000D01*
X176814859Y-72668869D01*
X176814860Y-72668874D01*
X176875182Y-72827931D01*
X176909140Y-72877127D01*
X176971817Y-72967929D01*
X177044219Y-73032071D01*
X177099150Y-73080736D01*
X177249773Y-73159789D01*
X177249775Y-73159790D01*
X177414944Y-73200500D01*
X177585056Y-73200500D01*
X177750225Y-73159790D01*
X177829692Y-73118081D01*
X177900849Y-73080736D01*
X177900850Y-73080734D01*
X177900852Y-73080734D01*
X178028183Y-72967929D01*
X178124818Y-72827930D01*
X178185140Y-72668872D01*
X178205645Y-72500000D01*
X178185140Y-72331128D01*
X178124818Y-72172070D01*
X178124816Y-72172067D01*
X178123642Y-72168971D01*
X178118275Y-72099308D01*
X178123642Y-72081029D01*
X178124816Y-72077932D01*
X178124818Y-72077930D01*
X178185140Y-71918872D01*
X178205645Y-71750000D01*
X178185140Y-71581128D01*
X178124818Y-71422070D01*
X178122880Y-71419263D01*
X178090476Y-71372318D01*
X178028183Y-71282071D01*
X177900852Y-71169266D01*
X177900849Y-71169263D01*
X177750226Y-71090210D01*
X177585056Y-71049500D01*
X177414944Y-71049500D01*
X177249773Y-71090210D01*
X177099150Y-71169263D01*
X176971816Y-71282072D01*
X176875182Y-71422068D01*
X176814860Y-71581125D01*
X176814859Y-71581130D01*
X176794355Y-71750000D01*
X166654373Y-71750000D01*
X166624818Y-71672070D01*
X166528183Y-71532071D01*
X166400852Y-71419266D01*
X166400849Y-71419263D01*
X166250226Y-71340210D01*
X166085056Y-71299500D01*
X165914944Y-71299500D01*
X165749773Y-71340210D01*
X165599150Y-71419263D01*
X165482638Y-71522484D01*
X165473312Y-71530747D01*
X165471816Y-71532072D01*
X165375182Y-71672068D01*
X165314860Y-71831125D01*
X165314859Y-71831130D01*
X165294355Y-72000000D01*
X162843118Y-72000000D01*
X162942373Y-71900745D01*
X163065368Y-71725091D01*
X163155992Y-71530747D01*
X163211492Y-71323619D01*
X163230181Y-71110000D01*
X163211492Y-70896381D01*
X163155992Y-70689253D01*
X163067742Y-70500000D01*
X178794355Y-70500000D01*
X178814859Y-70668869D01*
X178814860Y-70668874D01*
X178875182Y-70827931D01*
X178971818Y-70967930D01*
X179019519Y-71010190D01*
X179056646Y-71069379D01*
X179060388Y-71117951D01*
X179044355Y-71249999D01*
X179064859Y-71418869D01*
X179064860Y-71418874D01*
X179125182Y-71577931D01*
X179187475Y-71668177D01*
X179221817Y-71717929D01*
X179327505Y-71811560D01*
X179349150Y-71830736D01*
X179482541Y-71900745D01*
X179499775Y-71909790D01*
X179664944Y-71950500D01*
X179835056Y-71950500D01*
X180000225Y-71909790D01*
X180079692Y-71868081D01*
X180150849Y-71830736D01*
X180150850Y-71830734D01*
X180150852Y-71830734D01*
X180278183Y-71717929D01*
X180374818Y-71577930D01*
X180435140Y-71418872D01*
X180455645Y-71250000D01*
X180435140Y-71081128D01*
X180374818Y-70922070D01*
X180357089Y-70896386D01*
X180309837Y-70827930D01*
X180278183Y-70782071D01*
X180278181Y-70782069D01*
X180230480Y-70739809D01*
X180193353Y-70680620D01*
X180189611Y-70632047D01*
X180205645Y-70500000D01*
X180185140Y-70331128D01*
X180180636Y-70319253D01*
X180124817Y-70172068D01*
X180036853Y-70044632D01*
X180028183Y-70032071D01*
X179900852Y-69919266D01*
X179900849Y-69919263D01*
X179750226Y-69840210D01*
X179585056Y-69799500D01*
X179414944Y-69799500D01*
X179249773Y-69840210D01*
X179099150Y-69919263D01*
X178971816Y-70032072D01*
X178875182Y-70172068D01*
X178814860Y-70331125D01*
X178814859Y-70331130D01*
X178794355Y-70500000D01*
X163067742Y-70500000D01*
X163065368Y-70494910D01*
X163005766Y-70409790D01*
X162942376Y-70319259D01*
X162942371Y-70319253D01*
X162790745Y-70167627D01*
X162790739Y-70167623D01*
X162615091Y-70044632D01*
X162420747Y-69954008D01*
X162420744Y-69954007D01*
X162417259Y-69952382D01*
X162364820Y-69906210D01*
X162345668Y-69839016D01*
X162365884Y-69772135D01*
X162391429Y-69750000D01*
X167794355Y-69750000D01*
X167814859Y-69918869D01*
X167814860Y-69918874D01*
X167875182Y-70077931D01*
X167937093Y-70167623D01*
X167971817Y-70217929D01*
X168077505Y-70311560D01*
X168099150Y-70330736D01*
X168249773Y-70409789D01*
X168249775Y-70409790D01*
X168414944Y-70450500D01*
X168585056Y-70450500D01*
X168750225Y-70409790D01*
X168829692Y-70368081D01*
X168900849Y-70330736D01*
X168900850Y-70330734D01*
X168900852Y-70330734D01*
X169028183Y-70217929D01*
X169124818Y-70077930D01*
X169185140Y-69918872D01*
X169205645Y-69750000D01*
X169185140Y-69581128D01*
X169124818Y-69422070D01*
X169122608Y-69418869D01*
X169034205Y-69290796D01*
X169028183Y-69282071D01*
X168900852Y-69169266D01*
X168900849Y-69169263D01*
X168750226Y-69090210D01*
X168585056Y-69049500D01*
X168414944Y-69049500D01*
X168249773Y-69090210D01*
X168099150Y-69169263D01*
X167971816Y-69282072D01*
X167875182Y-69422068D01*
X167814860Y-69581125D01*
X167814859Y-69581130D01*
X167794355Y-69750000D01*
X162391429Y-69750000D01*
X162417259Y-69727618D01*
X162420744Y-69725992D01*
X162420747Y-69725992D01*
X162615091Y-69635368D01*
X162790745Y-69512373D01*
X162942373Y-69360745D01*
X163065368Y-69185091D01*
X163155992Y-68990747D01*
X163211492Y-68783619D01*
X163230181Y-68570000D01*
X163211492Y-68356381D01*
X163162105Y-68172068D01*
X163155994Y-68149260D01*
X163155993Y-68149259D01*
X163155992Y-68149253D01*
X163086394Y-68000000D01*
X167544355Y-68000000D01*
X167564859Y-68168869D01*
X167564860Y-68168874D01*
X167625182Y-68327931D01*
X167687475Y-68418177D01*
X167721817Y-68467929D01*
X167782019Y-68521263D01*
X167849150Y-68580736D01*
X167999773Y-68659789D01*
X167999775Y-68659790D01*
X168164944Y-68700500D01*
X168335056Y-68700500D01*
X168500225Y-68659790D01*
X168579692Y-68618081D01*
X168650849Y-68580736D01*
X168650850Y-68580734D01*
X168650852Y-68580734D01*
X168741982Y-68500000D01*
X172794355Y-68500000D01*
X172814859Y-68668869D01*
X172814860Y-68668874D01*
X172875182Y-68827931D01*
X172937475Y-68918177D01*
X172971817Y-68967929D01*
X173063892Y-69049500D01*
X173099150Y-69080736D01*
X173249773Y-69159789D01*
X173249775Y-69159790D01*
X173414944Y-69200500D01*
X173585056Y-69200500D01*
X173750225Y-69159790D01*
X173829692Y-69118081D01*
X173900849Y-69080736D01*
X173900850Y-69080734D01*
X173900852Y-69080734D01*
X174028183Y-68967929D01*
X174124818Y-68827930D01*
X174185140Y-68668872D01*
X174205645Y-68500000D01*
X175794355Y-68500000D01*
X175814859Y-68668869D01*
X175814860Y-68668874D01*
X175875182Y-68827931D01*
X175937475Y-68918177D01*
X175971817Y-68967929D01*
X176063892Y-69049500D01*
X176099150Y-69080736D01*
X176249773Y-69159789D01*
X176249775Y-69159790D01*
X176414944Y-69200500D01*
X176585056Y-69200500D01*
X176646538Y-69185346D01*
X176716339Y-69188415D01*
X176773401Y-69228735D01*
X176799308Y-69290796D01*
X176814859Y-69418868D01*
X176814860Y-69418874D01*
X176875182Y-69577931D01*
X176914828Y-69635367D01*
X176971817Y-69717929D01*
X177043565Y-69781492D01*
X177099150Y-69830736D01*
X177228279Y-69898508D01*
X177249775Y-69909790D01*
X177414944Y-69950500D01*
X177585056Y-69950500D01*
X177750225Y-69909790D01*
X177829692Y-69868081D01*
X177900849Y-69830736D01*
X177900850Y-69830734D01*
X177900852Y-69830734D01*
X178028183Y-69717929D01*
X178124818Y-69577930D01*
X178185140Y-69418872D01*
X178205645Y-69250000D01*
X178185140Y-69081128D01*
X178124818Y-68922070D01*
X178028183Y-68782071D01*
X177900852Y-68669266D01*
X177900849Y-68669263D01*
X177750226Y-68590210D01*
X177585056Y-68549500D01*
X177414944Y-68549500D01*
X177414940Y-68549500D01*
X177353460Y-68564653D01*
X177283658Y-68561583D01*
X177226597Y-68521263D01*
X177200691Y-68459202D01*
X177188206Y-68356381D01*
X177185140Y-68331128D01*
X177124818Y-68172070D01*
X177122608Y-68168869D01*
X177090476Y-68122318D01*
X177028183Y-68032071D01*
X176900852Y-67919266D01*
X176900849Y-67919263D01*
X176750226Y-67840210D01*
X176585056Y-67799500D01*
X176414944Y-67799500D01*
X176249773Y-67840210D01*
X176099150Y-67919263D01*
X175971816Y-68032072D01*
X175875182Y-68172068D01*
X175814860Y-68331125D01*
X175814859Y-68331130D01*
X175794355Y-68500000D01*
X174205645Y-68500000D01*
X174185140Y-68331128D01*
X174124818Y-68172070D01*
X174122608Y-68168869D01*
X174090476Y-68122318D01*
X174028183Y-68032071D01*
X173900852Y-67919266D01*
X173900849Y-67919263D01*
X173750226Y-67840210D01*
X173585056Y-67799500D01*
X173414944Y-67799500D01*
X173249773Y-67840210D01*
X173099150Y-67919263D01*
X172971816Y-68032072D01*
X172875182Y-68172068D01*
X172814860Y-68331125D01*
X172814859Y-68331130D01*
X172794355Y-68500000D01*
X168741982Y-68500000D01*
X168778183Y-68467929D01*
X168874818Y-68327930D01*
X168935140Y-68168872D01*
X168955645Y-68000000D01*
X168935140Y-67831128D01*
X168874818Y-67672070D01*
X168778183Y-67532071D01*
X168650852Y-67419266D01*
X168650849Y-67419263D01*
X168500226Y-67340210D01*
X168335056Y-67299500D01*
X168164944Y-67299500D01*
X167999773Y-67340210D01*
X167849150Y-67419263D01*
X167721816Y-67532072D01*
X167625182Y-67672068D01*
X167564860Y-67831125D01*
X167564859Y-67831130D01*
X167544355Y-68000000D01*
X163086394Y-68000000D01*
X163065368Y-67954910D01*
X162978696Y-67831130D01*
X162942376Y-67779259D01*
X162942371Y-67779253D01*
X162790745Y-67627627D01*
X162790739Y-67627623D01*
X162615091Y-67504632D01*
X162420747Y-67414008D01*
X162420744Y-67414007D01*
X162417259Y-67412382D01*
X162364820Y-67366210D01*
X162345668Y-67299016D01*
X162365884Y-67232135D01*
X162417259Y-67187618D01*
X162420744Y-67185992D01*
X162420747Y-67185992D01*
X162615091Y-67095368D01*
X162790745Y-66972373D01*
X162942373Y-66820745D01*
X163065368Y-66645091D01*
X163155992Y-66450747D01*
X163211492Y-66243619D01*
X163230181Y-66030000D01*
X163211492Y-65816381D01*
X163155992Y-65609253D01*
X163065368Y-65414910D01*
X163013062Y-65340210D01*
X162949897Y-65250000D01*
X165294355Y-65250000D01*
X165314859Y-65418869D01*
X165314860Y-65418874D01*
X165375182Y-65577931D01*
X165437475Y-65668177D01*
X165471817Y-65717929D01*
X165577505Y-65811560D01*
X165599150Y-65830736D01*
X165749773Y-65909789D01*
X165749775Y-65909790D01*
X165914944Y-65950500D01*
X166085056Y-65950500D01*
X166250225Y-65909790D01*
X166329692Y-65868081D01*
X166400849Y-65830736D01*
X166400850Y-65830734D01*
X166400852Y-65830734D01*
X166491982Y-65750000D01*
X172294355Y-65750000D01*
X172314859Y-65918869D01*
X172314860Y-65918874D01*
X172375182Y-66077931D01*
X172431686Y-66159789D01*
X172471817Y-66217929D01*
X172577505Y-66311560D01*
X172599150Y-66330736D01*
X172749773Y-66409789D01*
X172749775Y-66409790D01*
X172914944Y-66450500D01*
X173085056Y-66450500D01*
X173250225Y-66409790D01*
X173400852Y-66330734D01*
X173524629Y-66221077D01*
X173587861Y-66191356D01*
X173636532Y-66193497D01*
X173664941Y-66200499D01*
X173664942Y-66200500D01*
X173664944Y-66200500D01*
X173835056Y-66200500D01*
X174000225Y-66159790D01*
X174067374Y-66124546D01*
X174135881Y-66110821D01*
X174182625Y-66124546D01*
X174249775Y-66159790D01*
X174254578Y-66160973D01*
X174314959Y-66196127D01*
X174340848Y-66237399D01*
X174375183Y-66327932D01*
X174423499Y-66397929D01*
X174471817Y-66467929D01*
X174577505Y-66561560D01*
X174599150Y-66580736D01*
X174749773Y-66659789D01*
X174749775Y-66659790D01*
X174914944Y-66700500D01*
X175085056Y-66700500D01*
X175250225Y-66659790D01*
X175329692Y-66618081D01*
X175400849Y-66580736D01*
X175400850Y-66580734D01*
X175400852Y-66580734D01*
X175528183Y-66467929D01*
X175624818Y-66327930D01*
X175685140Y-66168872D01*
X175705645Y-66000000D01*
X175685140Y-65831128D01*
X175624818Y-65672070D01*
X175528183Y-65532071D01*
X175400852Y-65419266D01*
X175400849Y-65419263D01*
X175250224Y-65340209D01*
X175245409Y-65339022D01*
X175185031Y-65303862D01*
X175159150Y-65262598D01*
X175124818Y-65172070D01*
X175122880Y-65169263D01*
X175090476Y-65122318D01*
X175028183Y-65032071D01*
X174900852Y-64919266D01*
X174900849Y-64919263D01*
X174750226Y-64840210D01*
X174585056Y-64799500D01*
X174414944Y-64799500D01*
X174249774Y-64840209D01*
X174249774Y-64840210D01*
X174182624Y-64875452D01*
X174114115Y-64889176D01*
X174067376Y-64875452D01*
X174000225Y-64840210D01*
X174000225Y-64840209D01*
X173835056Y-64799500D01*
X173664944Y-64799500D01*
X173499773Y-64840210D01*
X173349150Y-64919264D01*
X173225371Y-65028922D01*
X173162137Y-65058643D01*
X173113470Y-65056503D01*
X173085057Y-65049500D01*
X173085056Y-65049500D01*
X172914944Y-65049500D01*
X172749773Y-65090210D01*
X172599150Y-65169263D01*
X172471816Y-65282072D01*
X172375182Y-65422068D01*
X172314860Y-65581125D01*
X172314859Y-65581130D01*
X172294355Y-65750000D01*
X166491982Y-65750000D01*
X166528183Y-65717929D01*
X166624818Y-65577930D01*
X166685140Y-65418872D01*
X166705645Y-65250000D01*
X166685140Y-65081128D01*
X166624818Y-64922070D01*
X166622881Y-64919264D01*
X166590476Y-64872318D01*
X166528183Y-64782071D01*
X166400852Y-64669266D01*
X166400849Y-64669263D01*
X166250226Y-64590210D01*
X166085056Y-64549500D01*
X165914944Y-64549500D01*
X165749773Y-64590210D01*
X165599150Y-64669263D01*
X165471816Y-64782072D01*
X165375182Y-64922068D01*
X165314860Y-65081125D01*
X165314859Y-65081130D01*
X165294355Y-65250000D01*
X162949897Y-65250000D01*
X162942376Y-65239259D01*
X162942371Y-65239253D01*
X162790745Y-65087627D01*
X162781466Y-65081130D01*
X162615091Y-64964632D01*
X162420747Y-64874008D01*
X162420744Y-64874007D01*
X162417259Y-64872382D01*
X162364820Y-64826210D01*
X162345668Y-64759016D01*
X162365884Y-64692135D01*
X162417259Y-64647618D01*
X162420744Y-64645992D01*
X162420747Y-64645992D01*
X162615091Y-64555368D01*
X162790745Y-64432373D01*
X162942373Y-64280745D01*
X163065368Y-64105091D01*
X163155992Y-63910747D01*
X163211492Y-63703619D01*
X163230181Y-63490000D01*
X163211492Y-63276381D01*
X163155992Y-63069253D01*
X163065368Y-62874910D01*
X162942373Y-62699255D01*
X162790745Y-62547627D01*
X162615091Y-62424632D01*
X162615092Y-62424632D01*
X162615090Y-62424631D01*
X162416667Y-62332105D01*
X162364228Y-62285933D01*
X162345076Y-62218739D01*
X162365292Y-62151858D01*
X162416668Y-62107341D01*
X162614836Y-62014934D01*
X162614838Y-62014933D01*
X162671621Y-61975173D01*
X162170235Y-61473787D01*
X162212292Y-61462518D01*
X162337708Y-61390110D01*
X162440110Y-61287708D01*
X162512518Y-61162292D01*
X162523787Y-61120234D01*
X163025173Y-61621621D01*
X163064933Y-61564839D01*
X163155518Y-61370576D01*
X163155522Y-61370567D01*
X163210995Y-61163537D01*
X163210997Y-61163527D01*
X163229679Y-60950000D01*
X163229679Y-60949999D01*
X163210997Y-60736472D01*
X163210995Y-60736462D01*
X163155522Y-60529432D01*
X163155518Y-60529423D01*
X163064933Y-60335162D01*
X163025172Y-60278379D01*
X162523787Y-60779764D01*
X162512518Y-60737708D01*
X162440110Y-60612292D01*
X162337708Y-60509890D01*
X162212292Y-60437482D01*
X162170235Y-60426212D01*
X162671621Y-59924826D01*
X162671620Y-59924825D01*
X162614840Y-59885067D01*
X162614838Y-59885066D01*
X162420576Y-59794481D01*
X162420567Y-59794477D01*
X162213537Y-59739004D01*
X162213527Y-59739002D01*
X162000001Y-59720321D01*
X161999999Y-59720321D01*
X161786472Y-59739002D01*
X161786462Y-59739004D01*
X161579432Y-59794477D01*
X161579423Y-59794481D01*
X161385162Y-59885066D01*
X161328378Y-59924826D01*
X161829765Y-60426212D01*
X161787708Y-60437482D01*
X161662292Y-60509890D01*
X161559890Y-60612292D01*
X161487482Y-60737708D01*
X161476212Y-60779764D01*
X160974826Y-60278378D01*
X160935066Y-60335162D01*
X160844481Y-60529423D01*
X160844477Y-60529432D01*
X160789004Y-60736462D01*
X160789002Y-60736472D01*
X160770321Y-60949999D01*
X160770321Y-60950000D01*
X160789002Y-61163527D01*
X160789004Y-61163537D01*
X160844477Y-61370567D01*
X160844481Y-61370576D01*
X160935066Y-61564838D01*
X160935067Y-61564840D01*
X160974825Y-61621620D01*
X160974826Y-61621621D01*
X161476212Y-61120234D01*
X161487482Y-61162292D01*
X161559890Y-61287708D01*
X161662292Y-61390110D01*
X161787708Y-61462518D01*
X161829764Y-61473787D01*
X161328377Y-61975173D01*
X161385161Y-62014933D01*
X161385165Y-62014935D01*
X161583331Y-62107341D01*
X161635771Y-62153513D01*
X161654923Y-62220706D01*
X161634708Y-62287588D01*
X161583332Y-62332105D01*
X161384910Y-62424631D01*
X161384908Y-62424632D01*
X161209259Y-62547623D01*
X161209253Y-62547628D01*
X161057628Y-62699253D01*
X161057623Y-62699259D01*
X160934632Y-62874908D01*
X160934631Y-62874910D01*
X160844009Y-63069251D01*
X160844005Y-63069260D01*
X160788509Y-63276375D01*
X160788507Y-63276386D01*
X160769819Y-63489998D01*
X160250500Y-63489998D01*
X160250500Y-59500000D01*
X169631855Y-59500000D01*
X169652359Y-59668869D01*
X169652360Y-59668874D01*
X169712682Y-59827931D01*
X169752120Y-59885066D01*
X169809317Y-59967929D01*
X169915005Y-60061560D01*
X169936650Y-60080736D01*
X170087273Y-60159789D01*
X170087275Y-60159790D01*
X170252444Y-60200500D01*
X170422556Y-60200500D01*
X170587725Y-60159790D01*
X170667192Y-60118081D01*
X170738349Y-60080736D01*
X170738350Y-60080734D01*
X170738352Y-60080734D01*
X170829482Y-60000000D01*
X173294355Y-60000000D01*
X173314859Y-60168869D01*
X173314860Y-60168874D01*
X173375182Y-60327931D01*
X173424929Y-60400000D01*
X173471817Y-60467929D01*
X173541230Y-60529423D01*
X173599150Y-60580736D01*
X173749773Y-60659789D01*
X173749775Y-60659790D01*
X173914944Y-60700500D01*
X174085056Y-60700500D01*
X174250225Y-60659790D01*
X174370914Y-60596447D01*
X174400849Y-60580736D01*
X174400850Y-60580734D01*
X174400852Y-60580734D01*
X174528183Y-60467929D01*
X174624818Y-60327930D01*
X174685140Y-60168872D01*
X174705645Y-60000000D01*
X174685140Y-59831128D01*
X174624818Y-59672070D01*
X174622608Y-59668869D01*
X174590476Y-59622318D01*
X174528183Y-59532071D01*
X174400852Y-59419266D01*
X174400849Y-59419263D01*
X174250226Y-59340210D01*
X174085056Y-59299500D01*
X173914944Y-59299500D01*
X173749773Y-59340210D01*
X173599150Y-59419263D01*
X173471816Y-59532072D01*
X173375182Y-59672068D01*
X173314860Y-59831125D01*
X173314859Y-59831130D01*
X173294355Y-60000000D01*
X170829482Y-60000000D01*
X170865683Y-59967929D01*
X170962318Y-59827930D01*
X171022640Y-59668872D01*
X171043145Y-59500000D01*
X171022640Y-59331128D01*
X170962318Y-59172070D01*
X170865683Y-59032071D01*
X170738352Y-58919266D01*
X170738349Y-58919263D01*
X170587726Y-58840210D01*
X170422556Y-58799500D01*
X170252444Y-58799500D01*
X170087273Y-58840210D01*
X169936650Y-58919263D01*
X169809316Y-59032072D01*
X169712682Y-59172068D01*
X169652360Y-59331125D01*
X169652359Y-59331130D01*
X169631855Y-59500000D01*
X160250500Y-59500000D01*
X160250500Y-57250000D01*
X177044355Y-57250000D01*
X177064859Y-57418869D01*
X177064860Y-57418874D01*
X177125182Y-57577931D01*
X177187475Y-57668177D01*
X177221817Y-57717929D01*
X177327505Y-57811560D01*
X177349150Y-57830736D01*
X177499773Y-57909789D01*
X177499775Y-57909790D01*
X177664944Y-57950500D01*
X177835056Y-57950500D01*
X178000225Y-57909790D01*
X178079692Y-57868081D01*
X178150849Y-57830736D01*
X178150850Y-57830734D01*
X178150852Y-57830734D01*
X178278183Y-57717929D01*
X178374818Y-57577930D01*
X178435140Y-57418872D01*
X178455645Y-57250000D01*
X178435140Y-57081128D01*
X178374818Y-56922070D01*
X178278183Y-56782071D01*
X178150852Y-56669266D01*
X178150849Y-56669263D01*
X178000226Y-56590210D01*
X177835056Y-56549500D01*
X177664944Y-56549500D01*
X177499773Y-56590210D01*
X177349150Y-56669263D01*
X177221816Y-56782072D01*
X177125182Y-56922068D01*
X177064860Y-57081125D01*
X177064859Y-57081130D01*
X177044355Y-57250000D01*
X160250500Y-57250000D01*
X160250500Y-56000000D01*
X167294355Y-56000000D01*
X167314859Y-56168869D01*
X167314860Y-56168874D01*
X167375182Y-56327931D01*
X167437475Y-56418177D01*
X167471817Y-56467929D01*
X167563892Y-56549500D01*
X167599150Y-56580736D01*
X167749773Y-56659789D01*
X167749775Y-56659790D01*
X167914944Y-56700500D01*
X168085056Y-56700500D01*
X168250225Y-56659790D01*
X168329692Y-56618081D01*
X168400849Y-56580736D01*
X168400850Y-56580734D01*
X168400852Y-56580734D01*
X168528183Y-56467929D01*
X168624818Y-56327930D01*
X168685140Y-56168872D01*
X168705645Y-56000000D01*
X173294355Y-56000000D01*
X173314859Y-56168869D01*
X173314860Y-56168874D01*
X173375182Y-56327931D01*
X173437475Y-56418177D01*
X173471817Y-56467929D01*
X173563892Y-56549500D01*
X173599150Y-56580736D01*
X173749773Y-56659789D01*
X173749775Y-56659790D01*
X173914944Y-56700500D01*
X174085056Y-56700500D01*
X174250225Y-56659790D01*
X174329692Y-56618081D01*
X174400849Y-56580736D01*
X174400850Y-56580734D01*
X174400852Y-56580734D01*
X174528183Y-56467929D01*
X174624818Y-56327930D01*
X174685140Y-56168872D01*
X174705645Y-56000000D01*
X174685140Y-55831128D01*
X174624818Y-55672070D01*
X174528183Y-55532071D01*
X174400852Y-55419266D01*
X174400849Y-55419263D01*
X174250226Y-55340210D01*
X174085056Y-55299500D01*
X173914944Y-55299500D01*
X173749773Y-55340210D01*
X173599150Y-55419263D01*
X173471816Y-55532072D01*
X173375182Y-55672068D01*
X173314860Y-55831125D01*
X173314859Y-55831130D01*
X173294355Y-56000000D01*
X168705645Y-56000000D01*
X168685140Y-55831128D01*
X168624818Y-55672070D01*
X168528183Y-55532071D01*
X168400852Y-55419266D01*
X168400849Y-55419263D01*
X168250226Y-55340210D01*
X168085056Y-55299500D01*
X167914944Y-55299500D01*
X167749773Y-55340210D01*
X167599150Y-55419263D01*
X167471816Y-55532072D01*
X167375182Y-55672068D01*
X167314860Y-55831125D01*
X167314859Y-55831130D01*
X167294355Y-56000000D01*
X160250500Y-56000000D01*
X160250500Y-51750000D01*
X170794355Y-51750000D01*
X170814859Y-51918869D01*
X170814860Y-51918874D01*
X170875182Y-52077931D01*
X170937475Y-52168177D01*
X170971817Y-52217929D01*
X171077505Y-52311560D01*
X171099150Y-52330736D01*
X171234138Y-52401583D01*
X171249775Y-52409790D01*
X171414944Y-52450500D01*
X171585057Y-52450500D01*
X171585057Y-52450499D01*
X171596323Y-52447723D01*
X171666125Y-52450790D01*
X171723188Y-52491109D01*
X171749394Y-52555878D01*
X171750000Y-52568119D01*
X171750000Y-53000000D01*
X172624722Y-53000000D01*
X172580667Y-53076306D01*
X172550000Y-53190756D01*
X172550000Y-53309244D01*
X172580667Y-53423694D01*
X172624722Y-53500000D01*
X171750000Y-53500000D01*
X171750000Y-54098382D01*
X171780778Y-54292705D01*
X171841581Y-54479835D01*
X171930904Y-54655143D01*
X172046555Y-54814321D01*
X172185678Y-54953444D01*
X172344856Y-55069095D01*
X172520162Y-55158418D01*
X172707283Y-55219218D01*
X172750000Y-55225984D01*
X172750000Y-53625277D01*
X172826306Y-53669333D01*
X172940756Y-53700000D01*
X173059244Y-53700000D01*
X173173694Y-53669333D01*
X173250000Y-53625277D01*
X173250000Y-55225983D01*
X173292716Y-55219218D01*
X173479837Y-55158418D01*
X173655143Y-55069095D01*
X173814321Y-54953444D01*
X173814322Y-54953443D01*
X173911965Y-54855801D01*
X173973288Y-54822316D01*
X174042980Y-54827300D01*
X174087327Y-54855801D01*
X174185354Y-54953828D01*
X174344595Y-55069524D01*
X174427455Y-55111743D01*
X174519970Y-55158882D01*
X174519972Y-55158882D01*
X174519975Y-55158884D01*
X174620317Y-55191487D01*
X174707173Y-55219709D01*
X174901578Y-55250500D01*
X174901583Y-55250500D01*
X175098422Y-55250500D01*
X175292826Y-55219709D01*
X175294337Y-55219218D01*
X175480025Y-55158884D01*
X175655405Y-55069524D01*
X175814646Y-54953828D01*
X175912319Y-54856155D01*
X175973642Y-54822670D01*
X176043334Y-54827654D01*
X176087681Y-54856155D01*
X176185354Y-54953828D01*
X176344595Y-55069524D01*
X176427455Y-55111743D01*
X176519970Y-55158882D01*
X176519972Y-55158882D01*
X176519975Y-55158884D01*
X176620317Y-55191487D01*
X176707173Y-55219709D01*
X176901578Y-55250500D01*
X176901583Y-55250500D01*
X177098422Y-55250500D01*
X177292826Y-55219709D01*
X177294337Y-55219218D01*
X177480025Y-55158884D01*
X177655405Y-55069524D01*
X177814646Y-54953828D01*
X177953828Y-54814646D01*
X178069524Y-54655405D01*
X178158884Y-54480025D01*
X178219709Y-54292826D01*
X178219728Y-54292705D01*
X178250500Y-54098422D01*
X178250500Y-52401577D01*
X178219709Y-52207173D01*
X178158882Y-52019970D01*
X178069523Y-51844594D01*
X177953828Y-51685354D01*
X177814646Y-51546172D01*
X177655405Y-51430476D01*
X177480029Y-51341117D01*
X177292826Y-51280290D01*
X177098422Y-51249500D01*
X177098417Y-51249500D01*
X176901583Y-51249500D01*
X176901578Y-51249500D01*
X176707173Y-51280290D01*
X176519970Y-51341117D01*
X176344594Y-51430476D01*
X176253741Y-51496485D01*
X176185354Y-51546172D01*
X176185352Y-51546174D01*
X176185351Y-51546174D01*
X176087681Y-51643845D01*
X176026358Y-51677330D01*
X175956666Y-51672346D01*
X175912319Y-51643845D01*
X175814648Y-51546174D01*
X175814646Y-51546172D01*
X175655405Y-51430476D01*
X175480029Y-51341117D01*
X175292826Y-51280290D01*
X175098422Y-51249500D01*
X175098417Y-51249500D01*
X174901583Y-51249500D01*
X174901578Y-51249500D01*
X174707173Y-51280290D01*
X174519970Y-51341117D01*
X174344594Y-51430476D01*
X174253741Y-51496485D01*
X174185354Y-51546172D01*
X174185352Y-51546174D01*
X174185350Y-51546175D01*
X174087325Y-51644199D01*
X174026002Y-51677683D01*
X173956310Y-51672698D01*
X173911964Y-51644198D01*
X173814321Y-51546555D01*
X173655143Y-51430904D01*
X173479835Y-51341581D01*
X173292705Y-51280778D01*
X173250000Y-51274014D01*
X173250000Y-52874722D01*
X173173694Y-52830667D01*
X173059244Y-52800000D01*
X172940756Y-52800000D01*
X172826306Y-52830667D01*
X172750000Y-52874722D01*
X172750000Y-51274014D01*
X172749999Y-51274014D01*
X172707294Y-51280778D01*
X172520164Y-51341581D01*
X172344854Y-51430905D01*
X172304946Y-51459900D01*
X172239140Y-51483379D01*
X172171086Y-51467553D01*
X172131356Y-51426671D01*
X172129079Y-51428243D01*
X172069260Y-51341581D01*
X172028183Y-51282071D01*
X171933316Y-51198026D01*
X171900849Y-51169263D01*
X171750226Y-51090210D01*
X171585056Y-51049500D01*
X171414944Y-51049500D01*
X171249773Y-51090210D01*
X171099150Y-51169263D01*
X170971816Y-51282072D01*
X170875182Y-51422068D01*
X170814860Y-51581125D01*
X170814859Y-51581130D01*
X170794355Y-51750000D01*
X160250500Y-51750000D01*
X160250500Y-42189998D01*
X160769819Y-42189998D01*
X160769819Y-42190001D01*
X160788507Y-42403613D01*
X160788509Y-42403624D01*
X160844005Y-42610739D01*
X160844007Y-42610743D01*
X160844008Y-42610747D01*
X160889320Y-42707919D01*
X160934631Y-42805090D01*
X161057627Y-42980745D01*
X161209254Y-43132372D01*
X161384909Y-43255368D01*
X161582740Y-43347618D01*
X161635179Y-43393790D01*
X161654331Y-43460984D01*
X161634115Y-43527865D01*
X161582740Y-43572382D01*
X161384910Y-43664631D01*
X161384908Y-43664632D01*
X161209259Y-43787623D01*
X161209253Y-43787628D01*
X161057628Y-43939253D01*
X161057623Y-43939259D01*
X160934632Y-44114908D01*
X160934631Y-44114910D01*
X160844009Y-44309251D01*
X160844005Y-44309260D01*
X160788509Y-44516375D01*
X160788507Y-44516386D01*
X160769819Y-44729998D01*
X160769819Y-44730001D01*
X160788507Y-44943613D01*
X160788509Y-44943624D01*
X160844005Y-45150739D01*
X160844007Y-45150743D01*
X160844008Y-45150747D01*
X160868760Y-45203828D01*
X160934631Y-45345090D01*
X161057627Y-45520745D01*
X161209254Y-45672372D01*
X161384909Y-45795368D01*
X161582740Y-45887618D01*
X161635179Y-45933790D01*
X161654331Y-46000984D01*
X161634115Y-46067865D01*
X161582740Y-46112382D01*
X161384910Y-46204631D01*
X161384908Y-46204632D01*
X161209259Y-46327623D01*
X161209253Y-46327628D01*
X161057628Y-46479253D01*
X161057623Y-46479259D01*
X160934632Y-46654908D01*
X160934631Y-46654910D01*
X160844009Y-46849251D01*
X160844005Y-46849260D01*
X160788509Y-47056375D01*
X160788507Y-47056386D01*
X160769819Y-47269998D01*
X160769819Y-47270001D01*
X160788507Y-47483613D01*
X160788509Y-47483624D01*
X160844005Y-47690739D01*
X160844007Y-47690743D01*
X160844008Y-47690747D01*
X160889320Y-47787919D01*
X160934631Y-47885090D01*
X161037549Y-48032071D01*
X161057627Y-48060745D01*
X161209255Y-48212373D01*
X161384909Y-48335368D01*
X161412252Y-48348118D01*
X161464691Y-48394288D01*
X161483845Y-48461481D01*
X161463631Y-48528363D01*
X161410467Y-48573698D01*
X161359850Y-48584500D01*
X161227130Y-48584500D01*
X161227123Y-48584501D01*
X161167516Y-48590908D01*
X161032671Y-48641202D01*
X161032664Y-48641206D01*
X160917455Y-48727452D01*
X160917452Y-48727455D01*
X160831206Y-48842664D01*
X160831202Y-48842671D01*
X160780908Y-48977517D01*
X160774501Y-49037116D01*
X160774501Y-49037123D01*
X160774500Y-49037135D01*
X160774500Y-50582870D01*
X160774501Y-50582876D01*
X160780908Y-50642483D01*
X160831202Y-50777328D01*
X160831206Y-50777335D01*
X160917452Y-50892544D01*
X160917455Y-50892547D01*
X161032664Y-50978793D01*
X161032671Y-50978797D01*
X161167517Y-51029091D01*
X161167516Y-51029091D01*
X161174444Y-51029835D01*
X161227127Y-51035500D01*
X162772872Y-51035499D01*
X162832483Y-51029091D01*
X162967331Y-50978796D01*
X163082546Y-50892546D01*
X163168796Y-50777331D01*
X163219091Y-50642483D01*
X163225500Y-50582873D01*
X163225500Y-50146530D01*
X167949500Y-50146530D01*
X167949500Y-50353469D01*
X167989868Y-50556412D01*
X167989870Y-50556420D01*
X168000828Y-50582876D01*
X168069059Y-50747598D01*
X168126541Y-50833626D01*
X168184024Y-50919657D01*
X168330342Y-51065975D01*
X168330345Y-51065977D01*
X168502402Y-51180941D01*
X168693580Y-51260130D01*
X168896530Y-51300499D01*
X168896534Y-51300500D01*
X168896535Y-51300500D01*
X169103466Y-51300500D01*
X169103467Y-51300499D01*
X169306420Y-51260130D01*
X169497598Y-51180941D01*
X169669655Y-51065977D01*
X169815977Y-50919655D01*
X169930941Y-50747598D01*
X170010130Y-50556420D01*
X170050500Y-50353465D01*
X170050500Y-50146535D01*
X170010130Y-49943580D01*
X169930941Y-49752402D01*
X169815977Y-49580345D01*
X169815975Y-49580342D01*
X169669657Y-49434024D01*
X169583626Y-49376541D01*
X169497598Y-49319059D01*
X169306420Y-49239870D01*
X169306412Y-49239868D01*
X169103469Y-49199500D01*
X169103465Y-49199500D01*
X168896535Y-49199500D01*
X168896530Y-49199500D01*
X168693587Y-49239868D01*
X168693579Y-49239870D01*
X168502403Y-49319058D01*
X168330342Y-49434024D01*
X168184024Y-49580342D01*
X168069058Y-49752403D01*
X167989870Y-49943579D01*
X167989868Y-49943587D01*
X167949500Y-50146530D01*
X163225500Y-50146530D01*
X163225499Y-49037128D01*
X163219091Y-48977517D01*
X163215514Y-48967927D01*
X163168797Y-48842671D01*
X163168793Y-48842664D01*
X163082547Y-48727455D01*
X163082544Y-48727452D01*
X162967335Y-48641206D01*
X162967328Y-48641202D01*
X162832482Y-48590908D01*
X162832483Y-48590908D01*
X162772883Y-48584501D01*
X162772881Y-48584500D01*
X162772873Y-48584500D01*
X162772865Y-48584500D01*
X162640152Y-48584500D01*
X162573113Y-48564815D01*
X162527358Y-48512011D01*
X162525631Y-48500000D01*
X172544355Y-48500000D01*
X172564859Y-48668869D01*
X172564860Y-48668874D01*
X172625182Y-48827931D01*
X172687475Y-48918177D01*
X172721817Y-48967929D01*
X172799926Y-49037127D01*
X172849150Y-49080736D01*
X172999773Y-49159789D01*
X172999775Y-49159790D01*
X173164944Y-49200500D01*
X173335056Y-49200500D01*
X173500225Y-49159790D01*
X173579692Y-49118081D01*
X173650849Y-49080736D01*
X173650850Y-49080734D01*
X173650852Y-49080734D01*
X173778183Y-48967929D01*
X173874818Y-48827930D01*
X173935140Y-48668872D01*
X173955645Y-48500000D01*
X173935140Y-48331128D01*
X173874818Y-48172070D01*
X173778183Y-48032071D01*
X173650852Y-47919266D01*
X173650849Y-47919263D01*
X173500226Y-47840210D01*
X173335056Y-47799500D01*
X173164944Y-47799500D01*
X172999773Y-47840210D01*
X172849150Y-47919263D01*
X172721816Y-48032072D01*
X172625182Y-48172068D01*
X172564860Y-48331125D01*
X172564859Y-48331130D01*
X172544355Y-48500000D01*
X162525631Y-48500000D01*
X162517414Y-48442853D01*
X162546439Y-48379297D01*
X162587746Y-48348119D01*
X162615091Y-48335368D01*
X162790745Y-48212373D01*
X162942373Y-48060745D01*
X163065368Y-47885091D01*
X163155992Y-47690747D01*
X163211492Y-47483619D01*
X163230181Y-47270000D01*
X163211492Y-47056381D01*
X163155992Y-46849253D01*
X163065368Y-46654910D01*
X162975318Y-46526306D01*
X162942376Y-46479259D01*
X162942371Y-46479253D01*
X162790745Y-46327627D01*
X162790739Y-46327623D01*
X162615091Y-46204632D01*
X162420747Y-46114008D01*
X162420744Y-46114007D01*
X162417259Y-46112382D01*
X162364820Y-46066210D01*
X162345668Y-45999016D01*
X162365884Y-45932135D01*
X162417259Y-45887618D01*
X162420744Y-45885992D01*
X162420747Y-45885992D01*
X162615091Y-45795368D01*
X162790745Y-45672373D01*
X162942373Y-45520745D01*
X163065368Y-45345091D01*
X163155992Y-45150747D01*
X163211492Y-44943619D01*
X163227511Y-44760517D01*
X163230181Y-44730001D01*
X163230181Y-44729998D01*
X163224841Y-44668966D01*
X163211492Y-44516381D01*
X163155992Y-44309253D01*
X163065368Y-44114910D01*
X162954919Y-43957173D01*
X162942376Y-43939259D01*
X162942371Y-43939253D01*
X162790745Y-43787627D01*
X162765528Y-43769970D01*
X162615091Y-43664632D01*
X162420747Y-43574008D01*
X162420744Y-43574007D01*
X162417259Y-43572382D01*
X162364820Y-43526210D01*
X162345668Y-43459016D01*
X162365884Y-43392135D01*
X162417259Y-43347618D01*
X162420744Y-43345992D01*
X162420747Y-43345992D01*
X162615091Y-43255368D01*
X162790745Y-43132373D01*
X162942373Y-42980745D01*
X163065368Y-42805091D01*
X163155992Y-42610747D01*
X163209433Y-42411304D01*
X165849500Y-42411304D01*
X165849500Y-42588695D01*
X165884103Y-42762658D01*
X165884106Y-42762667D01*
X165951983Y-42926540D01*
X165951990Y-42926553D01*
X166050535Y-43074034D01*
X166050538Y-43074038D01*
X166175961Y-43199461D01*
X166175965Y-43199464D01*
X166323446Y-43298009D01*
X166323459Y-43298016D01*
X166419221Y-43337681D01*
X166487334Y-43365894D01*
X166487336Y-43365894D01*
X166487341Y-43365896D01*
X166661304Y-43400499D01*
X166661307Y-43400500D01*
X166661309Y-43400500D01*
X166838693Y-43400500D01*
X166838694Y-43400499D01*
X166896682Y-43388964D01*
X167012658Y-43365896D01*
X167012661Y-43365894D01*
X167012666Y-43365894D01*
X167176547Y-43298013D01*
X167324035Y-43199464D01*
X167449464Y-43074035D01*
X167548013Y-42926547D01*
X167615894Y-42762666D01*
X167621696Y-42733501D01*
X167638964Y-42646682D01*
X167650500Y-42588691D01*
X167650500Y-42421153D01*
X169949500Y-42421153D01*
X169949500Y-42578846D01*
X169980261Y-42733489D01*
X169980264Y-42733501D01*
X170040602Y-42879172D01*
X170040609Y-42879185D01*
X170128210Y-43010288D01*
X170128213Y-43010292D01*
X170239707Y-43121786D01*
X170239711Y-43121789D01*
X170370814Y-43209390D01*
X170370827Y-43209397D01*
X170516498Y-43269735D01*
X170516503Y-43269737D01*
X170649400Y-43296172D01*
X170671153Y-43300499D01*
X170671156Y-43300500D01*
X170671158Y-43300500D01*
X170828844Y-43300500D01*
X170828845Y-43300499D01*
X170983497Y-43269737D01*
X171129179Y-43209394D01*
X171260289Y-43121789D01*
X171371789Y-43010289D01*
X171459394Y-42879179D01*
X171519737Y-42733497D01*
X171550500Y-42578842D01*
X171550500Y-42421158D01*
X171550500Y-42421155D01*
X171550499Y-42421153D01*
X171519738Y-42266510D01*
X171519737Y-42266503D01*
X171472136Y-42151583D01*
X171472134Y-42151577D01*
X181999500Y-42151577D01*
X181999500Y-42348422D01*
X182030290Y-42542826D01*
X182091117Y-42730029D01*
X182167110Y-42879172D01*
X182180476Y-42905405D01*
X182296172Y-43064646D01*
X182296174Y-43064648D01*
X182393845Y-43162319D01*
X182427330Y-43223642D01*
X182422346Y-43293334D01*
X182393845Y-43337681D01*
X182296174Y-43435351D01*
X182296174Y-43435352D01*
X182296172Y-43435354D01*
X182277551Y-43460984D01*
X182180476Y-43594594D01*
X182091117Y-43769970D01*
X182030290Y-43957173D01*
X181999500Y-44151577D01*
X181999500Y-44348422D01*
X182030290Y-44542826D01*
X182091117Y-44730029D01*
X182180476Y-44905405D01*
X182296172Y-45064646D01*
X182296174Y-45064648D01*
X182394198Y-45162672D01*
X182427683Y-45223995D01*
X182422699Y-45293687D01*
X182394199Y-45338033D01*
X182296557Y-45435676D01*
X182296555Y-45435678D01*
X182180904Y-45594856D01*
X182091581Y-45770162D01*
X182030781Y-45957283D01*
X182024016Y-46000000D01*
X183624722Y-46000000D01*
X183580667Y-46076306D01*
X183550000Y-46190756D01*
X183550000Y-46309244D01*
X183580667Y-46423694D01*
X183624722Y-46500000D01*
X182024016Y-46500000D01*
X182030781Y-46542716D01*
X182091581Y-46729837D01*
X182180904Y-46905143D01*
X182296555Y-47064321D01*
X182435678Y-47203444D01*
X182594856Y-47319095D01*
X182770164Y-47408418D01*
X182957294Y-47469221D01*
X183151618Y-47500000D01*
X183750000Y-47500000D01*
X183750000Y-46625277D01*
X183826306Y-46669333D01*
X183940756Y-46700000D01*
X184059244Y-46700000D01*
X184173694Y-46669333D01*
X184250000Y-46625277D01*
X184250000Y-47500000D01*
X184848382Y-47500000D01*
X185042705Y-47469221D01*
X185229835Y-47408418D01*
X185405143Y-47319095D01*
X185564321Y-47203444D01*
X185703444Y-47064321D01*
X185819095Y-46905143D01*
X185908418Y-46729837D01*
X185969218Y-46542716D01*
X185975984Y-46500000D01*
X184375278Y-46500000D01*
X184419333Y-46423694D01*
X184450000Y-46309244D01*
X184450000Y-46190756D01*
X184419333Y-46076306D01*
X184375278Y-46000000D01*
X185975984Y-46000000D01*
X185969218Y-45957283D01*
X185908418Y-45770162D01*
X185819095Y-45594856D01*
X185703444Y-45435678D01*
X185605801Y-45338035D01*
X185572316Y-45276712D01*
X185577300Y-45207020D01*
X185605801Y-45162673D01*
X185617735Y-45150739D01*
X185703828Y-45064646D01*
X185819524Y-44905405D01*
X185908884Y-44730025D01*
X185969709Y-44542826D01*
X185973897Y-44516386D01*
X186000500Y-44348422D01*
X186000500Y-44151577D01*
X185969709Y-43957173D01*
X185914620Y-43787628D01*
X185908884Y-43769975D01*
X185908882Y-43769972D01*
X185908882Y-43769970D01*
X185819523Y-43594594D01*
X185703828Y-43435354D01*
X185606155Y-43337681D01*
X185572670Y-43276358D01*
X185577654Y-43206666D01*
X185606155Y-43162319D01*
X185646688Y-43121786D01*
X185703828Y-43064646D01*
X185819524Y-42905405D01*
X185908884Y-42730025D01*
X185969709Y-42542826D01*
X186000500Y-42348422D01*
X186000500Y-42189998D01*
X186769819Y-42189998D01*
X186769819Y-42190001D01*
X186788507Y-42403613D01*
X186788509Y-42403624D01*
X186844005Y-42610739D01*
X186844007Y-42610743D01*
X186844008Y-42610747D01*
X186889320Y-42707919D01*
X186934631Y-42805090D01*
X187057627Y-42980745D01*
X187209254Y-43132372D01*
X187384909Y-43255368D01*
X187582740Y-43347618D01*
X187635179Y-43393790D01*
X187654331Y-43460984D01*
X187634115Y-43527865D01*
X187582740Y-43572382D01*
X187384910Y-43664631D01*
X187384908Y-43664632D01*
X187209259Y-43787623D01*
X187209253Y-43787628D01*
X187057628Y-43939253D01*
X187057623Y-43939259D01*
X186934632Y-44114908D01*
X186934631Y-44114910D01*
X186844009Y-44309251D01*
X186844005Y-44309260D01*
X186788509Y-44516375D01*
X186788507Y-44516386D01*
X186769819Y-44729998D01*
X186769819Y-44730001D01*
X186788507Y-44943613D01*
X186788509Y-44943624D01*
X186844005Y-45150739D01*
X186844007Y-45150743D01*
X186844008Y-45150747D01*
X186868760Y-45203828D01*
X186934631Y-45345090D01*
X187057627Y-45520745D01*
X187209254Y-45672372D01*
X187384909Y-45795368D01*
X187582740Y-45887618D01*
X187635179Y-45933790D01*
X187654331Y-46000984D01*
X187634115Y-46067865D01*
X187582740Y-46112382D01*
X187384910Y-46204631D01*
X187384908Y-46204632D01*
X187209259Y-46327623D01*
X187209253Y-46327628D01*
X187057628Y-46479253D01*
X187057623Y-46479259D01*
X186934632Y-46654908D01*
X186934631Y-46654910D01*
X186844009Y-46849251D01*
X186844005Y-46849260D01*
X186788509Y-47056375D01*
X186788507Y-47056386D01*
X186769819Y-47269998D01*
X186769819Y-47270001D01*
X186788507Y-47483613D01*
X186788509Y-47483624D01*
X186844005Y-47690739D01*
X186844007Y-47690743D01*
X186844008Y-47690747D01*
X186889320Y-47787919D01*
X186934631Y-47885090D01*
X187037549Y-48032071D01*
X187057627Y-48060745D01*
X187209255Y-48212373D01*
X187384909Y-48335368D01*
X187412252Y-48348118D01*
X187464691Y-48394288D01*
X187483845Y-48461481D01*
X187463631Y-48528363D01*
X187410467Y-48573698D01*
X187359850Y-48584500D01*
X187227130Y-48584500D01*
X187227123Y-48584501D01*
X187167516Y-48590908D01*
X187032671Y-48641202D01*
X187032664Y-48641206D01*
X186917455Y-48727452D01*
X186917452Y-48727455D01*
X186831206Y-48842664D01*
X186831202Y-48842671D01*
X186780908Y-48977517D01*
X186774501Y-49037116D01*
X186774501Y-49037123D01*
X186774500Y-49037135D01*
X186774500Y-50582870D01*
X186774501Y-50582876D01*
X186780908Y-50642483D01*
X186831202Y-50777328D01*
X186831206Y-50777335D01*
X186917452Y-50892544D01*
X186917455Y-50892547D01*
X187032664Y-50978793D01*
X187032671Y-50978797D01*
X187167517Y-51029091D01*
X187167516Y-51029091D01*
X187174444Y-51029835D01*
X187227127Y-51035500D01*
X188772872Y-51035499D01*
X188832483Y-51029091D01*
X188967331Y-50978796D01*
X189082546Y-50892546D01*
X189168796Y-50777331D01*
X189219091Y-50642483D01*
X189225500Y-50582873D01*
X189225499Y-49037128D01*
X189219091Y-48977517D01*
X189215514Y-48967927D01*
X189168797Y-48842671D01*
X189168793Y-48842664D01*
X189082547Y-48727455D01*
X189082544Y-48727452D01*
X188967335Y-48641206D01*
X188967328Y-48641202D01*
X188832482Y-48590908D01*
X188832483Y-48590908D01*
X188772883Y-48584501D01*
X188772881Y-48584500D01*
X188772873Y-48584500D01*
X188772865Y-48584500D01*
X188640152Y-48584500D01*
X188573113Y-48564815D01*
X188527358Y-48512011D01*
X188517414Y-48442853D01*
X188546439Y-48379297D01*
X188587746Y-48348119D01*
X188615091Y-48335368D01*
X188790745Y-48212373D01*
X188942373Y-48060745D01*
X189065368Y-47885091D01*
X189155992Y-47690747D01*
X189211492Y-47483619D01*
X189230181Y-47270000D01*
X189211492Y-47056381D01*
X189155992Y-46849253D01*
X189065368Y-46654910D01*
X188975318Y-46526306D01*
X188942376Y-46479259D01*
X188942371Y-46479253D01*
X188790745Y-46327627D01*
X188790739Y-46327623D01*
X188615091Y-46204632D01*
X188420747Y-46114008D01*
X188420744Y-46114007D01*
X188417259Y-46112382D01*
X188364820Y-46066210D01*
X188345668Y-45999016D01*
X188365884Y-45932135D01*
X188417259Y-45887618D01*
X188420744Y-45885992D01*
X188420747Y-45885992D01*
X188615091Y-45795368D01*
X188790745Y-45672373D01*
X188942373Y-45520745D01*
X189065368Y-45345091D01*
X189155992Y-45150747D01*
X189211492Y-44943619D01*
X189227511Y-44760517D01*
X189230181Y-44730001D01*
X189230181Y-44729998D01*
X189224841Y-44668966D01*
X189211492Y-44516381D01*
X189155992Y-44309253D01*
X189065368Y-44114910D01*
X188954919Y-43957173D01*
X188942376Y-43939259D01*
X188942371Y-43939253D01*
X188790745Y-43787627D01*
X188765528Y-43769970D01*
X188615091Y-43664632D01*
X188420747Y-43574008D01*
X188420744Y-43574007D01*
X188417259Y-43572382D01*
X188364820Y-43526210D01*
X188345668Y-43459016D01*
X188365884Y-43392135D01*
X188417259Y-43347618D01*
X188420744Y-43345992D01*
X188420747Y-43345992D01*
X188615091Y-43255368D01*
X188790745Y-43132373D01*
X188942373Y-42980745D01*
X189065368Y-42805091D01*
X189155992Y-42610747D01*
X189211492Y-42403619D01*
X189230181Y-42190000D01*
X189226819Y-42151577D01*
X189219985Y-42073459D01*
X189211492Y-41976381D01*
X189161714Y-41790606D01*
X189155994Y-41769260D01*
X189155993Y-41769259D01*
X189155992Y-41769253D01*
X189065368Y-41574910D01*
X188967648Y-41435352D01*
X188942376Y-41399259D01*
X188942371Y-41399253D01*
X188790745Y-41247627D01*
X188615090Y-41124631D01*
X188517919Y-41079320D01*
X188420747Y-41034008D01*
X188420743Y-41034007D01*
X188420739Y-41034005D01*
X188213624Y-40978509D01*
X188213620Y-40978508D01*
X188213619Y-40978508D01*
X188213618Y-40978507D01*
X188213613Y-40978507D01*
X188000002Y-40959819D01*
X187999998Y-40959819D01*
X187786386Y-40978507D01*
X187786375Y-40978509D01*
X187579260Y-41034005D01*
X187579251Y-41034009D01*
X187384910Y-41124631D01*
X187384908Y-41124632D01*
X187209259Y-41247623D01*
X187209253Y-41247628D01*
X187057628Y-41399253D01*
X187057623Y-41399259D01*
X186934632Y-41574908D01*
X186934631Y-41574910D01*
X186844009Y-41769251D01*
X186844005Y-41769260D01*
X186788509Y-41976375D01*
X186788507Y-41976386D01*
X186769819Y-42189998D01*
X186000500Y-42189998D01*
X186000500Y-42151577D01*
X185969709Y-41957173D01*
X185941487Y-41870317D01*
X185908884Y-41769975D01*
X185908882Y-41769972D01*
X185908882Y-41769970D01*
X185861743Y-41677455D01*
X185819524Y-41594595D01*
X185703828Y-41435354D01*
X185564646Y-41296172D01*
X185405405Y-41180476D01*
X185230029Y-41091117D01*
X185042826Y-41030290D01*
X184848422Y-40999500D01*
X184848417Y-40999500D01*
X183151583Y-40999500D01*
X183151578Y-40999500D01*
X182957173Y-41030290D01*
X182769970Y-41091117D01*
X182594594Y-41180476D01*
X182503741Y-41246485D01*
X182435354Y-41296172D01*
X182435352Y-41296174D01*
X182435351Y-41296174D01*
X182296174Y-41435351D01*
X182296174Y-41435352D01*
X182296172Y-41435354D01*
X182246485Y-41503741D01*
X182180476Y-41594594D01*
X182091117Y-41769970D01*
X182030290Y-41957173D01*
X181999500Y-42151577D01*
X171472134Y-42151577D01*
X171459397Y-42120827D01*
X171459390Y-42120814D01*
X171371789Y-41989711D01*
X171371786Y-41989707D01*
X171260292Y-41878213D01*
X171260288Y-41878210D01*
X171129185Y-41790609D01*
X171129172Y-41790602D01*
X170983501Y-41730264D01*
X170983489Y-41730261D01*
X170828845Y-41699500D01*
X170828842Y-41699500D01*
X170671158Y-41699500D01*
X170671155Y-41699500D01*
X170516510Y-41730261D01*
X170516498Y-41730264D01*
X170370827Y-41790602D01*
X170370814Y-41790609D01*
X170239711Y-41878210D01*
X170239707Y-41878213D01*
X170128213Y-41989707D01*
X170128210Y-41989711D01*
X170040609Y-42120814D01*
X170040602Y-42120827D01*
X169980264Y-42266498D01*
X169980261Y-42266510D01*
X169949500Y-42421153D01*
X167650500Y-42421153D01*
X167650500Y-42411309D01*
X167650500Y-42411306D01*
X167650499Y-42411304D01*
X167615896Y-42237341D01*
X167615893Y-42237332D01*
X167548016Y-42073459D01*
X167548009Y-42073446D01*
X167449464Y-41925965D01*
X167449461Y-41925961D01*
X167324038Y-41800538D01*
X167324034Y-41800535D01*
X167176553Y-41701990D01*
X167176540Y-41701983D01*
X167012667Y-41634106D01*
X167012658Y-41634103D01*
X166838694Y-41599500D01*
X166838691Y-41599500D01*
X166661309Y-41599500D01*
X166661306Y-41599500D01*
X166487341Y-41634103D01*
X166487332Y-41634106D01*
X166323459Y-41701983D01*
X166323446Y-41701990D01*
X166175965Y-41800535D01*
X166175961Y-41800538D01*
X166050538Y-41925961D01*
X166050535Y-41925965D01*
X165951990Y-42073446D01*
X165951983Y-42073459D01*
X165884106Y-42237332D01*
X165884103Y-42237341D01*
X165849500Y-42411304D01*
X163209433Y-42411304D01*
X163211492Y-42403619D01*
X163230181Y-42190000D01*
X163226819Y-42151577D01*
X163219985Y-42073459D01*
X163211492Y-41976381D01*
X163161714Y-41790606D01*
X163155994Y-41769260D01*
X163155993Y-41769259D01*
X163155992Y-41769253D01*
X163065368Y-41574910D01*
X162967648Y-41435352D01*
X162942376Y-41399259D01*
X162942371Y-41399253D01*
X162790745Y-41247627D01*
X162615090Y-41124631D01*
X162517919Y-41079320D01*
X162420747Y-41034008D01*
X162420743Y-41034007D01*
X162420739Y-41034005D01*
X162213624Y-40978509D01*
X162213620Y-40978508D01*
X162213619Y-40978508D01*
X162213618Y-40978507D01*
X162213613Y-40978507D01*
X162000002Y-40959819D01*
X161999998Y-40959819D01*
X161786386Y-40978507D01*
X161786375Y-40978509D01*
X161579260Y-41034005D01*
X161579251Y-41034009D01*
X161384910Y-41124631D01*
X161384908Y-41124632D01*
X161209259Y-41247623D01*
X161209253Y-41247628D01*
X161057628Y-41399253D01*
X161057623Y-41399259D01*
X160934632Y-41574908D01*
X160934631Y-41574910D01*
X160844009Y-41769251D01*
X160844005Y-41769260D01*
X160788509Y-41976375D01*
X160788507Y-41976386D01*
X160769819Y-42189998D01*
X160250500Y-42189998D01*
X160250500Y-37500000D01*
X160744473Y-37500000D01*
X160764563Y-37832136D01*
X160764563Y-37832141D01*
X160764564Y-37832142D01*
X160824544Y-38159441D01*
X160824545Y-38159445D01*
X160824546Y-38159449D01*
X160923530Y-38477104D01*
X160923534Y-38477116D01*
X160923537Y-38477123D01*
X161060102Y-38780557D01*
X161232246Y-39065318D01*
X161232251Y-39065326D01*
X161437460Y-39327255D01*
X161672744Y-39562539D01*
X161934673Y-39767748D01*
X161934678Y-39767751D01*
X161934682Y-39767754D01*
X162219443Y-39939898D01*
X162522877Y-40076463D01*
X162522890Y-40076467D01*
X162522895Y-40076469D01*
X162734665Y-40142458D01*
X162840559Y-40175456D01*
X163167858Y-40235436D01*
X163500000Y-40255527D01*
X163832142Y-40235436D01*
X164159441Y-40175456D01*
X164477123Y-40076463D01*
X164780557Y-39939898D01*
X165065318Y-39767754D01*
X165327252Y-39562542D01*
X165562542Y-39327252D01*
X165767238Y-39065977D01*
X165767748Y-39065326D01*
X165767748Y-39065324D01*
X165767754Y-39065318D01*
X165939898Y-38780557D01*
X165993570Y-38661304D01*
X173099500Y-38661304D01*
X173099500Y-38838695D01*
X173134103Y-39012658D01*
X173134106Y-39012667D01*
X173201983Y-39176540D01*
X173201990Y-39176553D01*
X173300535Y-39324034D01*
X173300538Y-39324038D01*
X173425961Y-39449461D01*
X173425965Y-39449464D01*
X173573446Y-39548009D01*
X173573459Y-39548016D01*
X173608529Y-39562542D01*
X173737334Y-39615894D01*
X173737336Y-39615894D01*
X173737341Y-39615896D01*
X173911304Y-39650499D01*
X173911307Y-39650500D01*
X173911309Y-39650500D01*
X174088693Y-39650500D01*
X174088694Y-39650499D01*
X174146682Y-39638964D01*
X174262658Y-39615896D01*
X174262661Y-39615894D01*
X174262666Y-39615894D01*
X174426547Y-39548013D01*
X174574035Y-39449464D01*
X174699464Y-39324035D01*
X174798013Y-39176547D01*
X174865894Y-39012666D01*
X174871696Y-38983501D01*
X174900499Y-38838695D01*
X174900500Y-38838693D01*
X174900500Y-38671153D01*
X177199500Y-38671153D01*
X177199500Y-38828846D01*
X177230261Y-38983489D01*
X177230264Y-38983501D01*
X177290602Y-39129172D01*
X177290609Y-39129185D01*
X177378210Y-39260288D01*
X177378213Y-39260292D01*
X177489707Y-39371786D01*
X177489711Y-39371789D01*
X177620814Y-39459390D01*
X177620827Y-39459397D01*
X177766498Y-39519735D01*
X177766503Y-39519737D01*
X177908635Y-39548009D01*
X177921153Y-39550499D01*
X177921156Y-39550500D01*
X177921158Y-39550500D01*
X178078844Y-39550500D01*
X178078845Y-39550499D01*
X178233497Y-39519737D01*
X178379179Y-39459394D01*
X178510289Y-39371789D01*
X178621789Y-39260289D01*
X178709394Y-39129179D01*
X178769737Y-38983497D01*
X178800500Y-38828842D01*
X178800500Y-38671158D01*
X178800500Y-38671155D01*
X178800499Y-38671153D01*
X178769738Y-38516510D01*
X178769737Y-38516503D01*
X178757654Y-38487332D01*
X178709397Y-38370827D01*
X178709390Y-38370814D01*
X178621789Y-38239711D01*
X178621786Y-38239707D01*
X178528609Y-38146530D01*
X179949500Y-38146530D01*
X179949500Y-38353469D01*
X179976129Y-38487341D01*
X179989870Y-38556420D01*
X180069059Y-38747598D01*
X180123344Y-38828842D01*
X180184024Y-38919657D01*
X180330342Y-39065975D01*
X180330345Y-39065977D01*
X180502402Y-39180941D01*
X180693580Y-39260130D01*
X180896530Y-39300499D01*
X180896534Y-39300500D01*
X180896535Y-39300500D01*
X181103466Y-39300500D01*
X181103467Y-39300499D01*
X181306420Y-39260130D01*
X181497598Y-39180941D01*
X181669655Y-39065977D01*
X181815977Y-38919655D01*
X181930941Y-38747598D01*
X182010130Y-38556420D01*
X182050500Y-38353465D01*
X182050500Y-38146535D01*
X182010130Y-37943580D01*
X181930941Y-37752402D01*
X181815977Y-37580345D01*
X181815975Y-37580342D01*
X181735633Y-37500000D01*
X183744473Y-37500000D01*
X183764563Y-37832136D01*
X183764563Y-37832141D01*
X183764564Y-37832142D01*
X183824544Y-38159441D01*
X183824545Y-38159445D01*
X183824546Y-38159449D01*
X183923530Y-38477104D01*
X183923534Y-38477116D01*
X183923537Y-38477123D01*
X184060102Y-38780557D01*
X184232246Y-39065318D01*
X184232251Y-39065326D01*
X184437460Y-39327255D01*
X184672744Y-39562539D01*
X184934673Y-39767748D01*
X184934678Y-39767751D01*
X184934682Y-39767754D01*
X185219443Y-39939898D01*
X185522877Y-40076463D01*
X185522890Y-40076467D01*
X185522895Y-40076469D01*
X185734665Y-40142458D01*
X185840559Y-40175456D01*
X186167858Y-40235436D01*
X186500000Y-40255527D01*
X186832142Y-40235436D01*
X187159441Y-40175456D01*
X187477123Y-40076463D01*
X187780557Y-39939898D01*
X188065318Y-39767754D01*
X188327252Y-39562542D01*
X188562542Y-39327252D01*
X188767238Y-39065977D01*
X188767748Y-39065326D01*
X188767748Y-39065324D01*
X188767754Y-39065318D01*
X188939898Y-38780557D01*
X189076463Y-38477123D01*
X189175456Y-38159441D01*
X189235436Y-37832142D01*
X189255527Y-37500000D01*
X189235436Y-37167858D01*
X189175456Y-36840559D01*
X189076463Y-36522877D01*
X188939898Y-36219443D01*
X188767754Y-35934682D01*
X188767751Y-35934678D01*
X188767748Y-35934673D01*
X188562539Y-35672744D01*
X188327255Y-35437460D01*
X188065326Y-35232251D01*
X188065318Y-35232246D01*
X187780557Y-35060102D01*
X187477123Y-34923537D01*
X187477116Y-34923534D01*
X187477104Y-34923530D01*
X187159449Y-34824546D01*
X187159445Y-34824545D01*
X187159441Y-34824544D01*
X186832142Y-34764564D01*
X186832141Y-34764563D01*
X186832136Y-34764563D01*
X186500000Y-34744473D01*
X186167863Y-34764563D01*
X186167858Y-34764564D01*
X185840559Y-34824544D01*
X185840556Y-34824544D01*
X185840550Y-34824546D01*
X185522895Y-34923530D01*
X185522879Y-34923536D01*
X185522877Y-34923537D01*
X185329656Y-35010498D01*
X185219447Y-35060100D01*
X185219445Y-35060101D01*
X184934673Y-35232251D01*
X184672744Y-35437460D01*
X184437460Y-35672744D01*
X184232251Y-35934673D01*
X184060101Y-36219445D01*
X184060100Y-36219447D01*
X183923536Y-36522880D01*
X183923530Y-36522895D01*
X183824546Y-36840550D01*
X183824544Y-36840556D01*
X183824544Y-36840559D01*
X183776122Y-37104786D01*
X183764563Y-37167863D01*
X183744473Y-37500000D01*
X181735633Y-37500000D01*
X181669657Y-37434024D01*
X181583626Y-37376541D01*
X181497598Y-37319059D01*
X181306420Y-37239870D01*
X181306412Y-37239868D01*
X181103469Y-37199500D01*
X181103465Y-37199500D01*
X180896535Y-37199500D01*
X180896530Y-37199500D01*
X180693587Y-37239868D01*
X180693579Y-37239870D01*
X180502403Y-37319058D01*
X180330342Y-37434024D01*
X180184024Y-37580342D01*
X180069058Y-37752403D01*
X179989870Y-37943579D01*
X179989868Y-37943587D01*
X179949500Y-38146530D01*
X178528609Y-38146530D01*
X178510292Y-38128213D01*
X178510288Y-38128210D01*
X178379185Y-38040609D01*
X178379172Y-38040602D01*
X178233501Y-37980264D01*
X178233489Y-37980261D01*
X178078845Y-37949500D01*
X178078842Y-37949500D01*
X177921158Y-37949500D01*
X177921155Y-37949500D01*
X177766510Y-37980261D01*
X177766498Y-37980264D01*
X177620827Y-38040602D01*
X177620814Y-38040609D01*
X177489711Y-38128210D01*
X177489707Y-38128213D01*
X177378213Y-38239707D01*
X177378210Y-38239711D01*
X177290609Y-38370814D01*
X177290602Y-38370827D01*
X177230264Y-38516498D01*
X177230261Y-38516510D01*
X177199500Y-38671153D01*
X174900500Y-38671153D01*
X174900500Y-38661306D01*
X174900499Y-38661304D01*
X174865896Y-38487341D01*
X174865893Y-38487332D01*
X174861664Y-38477123D01*
X174817636Y-38370827D01*
X174798016Y-38323459D01*
X174798009Y-38323446D01*
X174699464Y-38175965D01*
X174699461Y-38175961D01*
X174574038Y-38050538D01*
X174574034Y-38050535D01*
X174426553Y-37951990D01*
X174426540Y-37951983D01*
X174262667Y-37884106D01*
X174262658Y-37884103D01*
X174088694Y-37849500D01*
X174088691Y-37849500D01*
X173911309Y-37849500D01*
X173911306Y-37849500D01*
X173737341Y-37884103D01*
X173737332Y-37884106D01*
X173573459Y-37951983D01*
X173573446Y-37951990D01*
X173425965Y-38050535D01*
X173425961Y-38050538D01*
X173300538Y-38175961D01*
X173300535Y-38175965D01*
X173201990Y-38323446D01*
X173201983Y-38323459D01*
X173134106Y-38487332D01*
X173134103Y-38487341D01*
X173099500Y-38661304D01*
X165993570Y-38661304D01*
X166076463Y-38477123D01*
X166175456Y-38159441D01*
X166235436Y-37832142D01*
X166255527Y-37500000D01*
X166235436Y-37167858D01*
X166175456Y-36840559D01*
X166076463Y-36522877D01*
X165939898Y-36219443D01*
X165767754Y-35934682D01*
X165767751Y-35934678D01*
X165767748Y-35934673D01*
X165562539Y-35672744D01*
X165327255Y-35437460D01*
X165065326Y-35232251D01*
X165065318Y-35232246D01*
X164780557Y-35060102D01*
X164477123Y-34923537D01*
X164477116Y-34923534D01*
X164477104Y-34923530D01*
X164159449Y-34824546D01*
X164159445Y-34824545D01*
X164159441Y-34824544D01*
X163832142Y-34764564D01*
X163832141Y-34764563D01*
X163832136Y-34764563D01*
X163500000Y-34744473D01*
X163167863Y-34764563D01*
X163167858Y-34764564D01*
X162840559Y-34824544D01*
X162840556Y-34824544D01*
X162840550Y-34824546D01*
X162522895Y-34923530D01*
X162522879Y-34923536D01*
X162522877Y-34923537D01*
X162329656Y-35010498D01*
X162219447Y-35060100D01*
X162219445Y-35060101D01*
X161934673Y-35232251D01*
X161672744Y-35437460D01*
X161437460Y-35672744D01*
X161232251Y-35934673D01*
X161060101Y-36219445D01*
X161060100Y-36219447D01*
X160923536Y-36522880D01*
X160923530Y-36522895D01*
X160824546Y-36840550D01*
X160824544Y-36840556D01*
X160824544Y-36840559D01*
X160776122Y-37104786D01*
X160764563Y-37167863D01*
X160744473Y-37500000D01*
X160250500Y-37500000D01*
X160250500Y-34374500D01*
X160270185Y-34307461D01*
X160322989Y-34261706D01*
X160374500Y-34250500D01*
X189625500Y-34250500D01*
X189692539Y-34270185D01*
G37*
%TD.AperFunction*%
%TD*%
M02*
