M48
; DRILL file {KiCad 8.0.2} date 2024-06-27T19:58:17-0400
; FORMAT={-:-/ absolute / inch / decimal}
; #@! TF.CreationDate,2024-06-27T19:58:17-04:00
; #@! TF.GenerationSoftware,Kicad,Pcbnew,8.0.2
; #@! TF.FileFunction,Plated,1,4,PTH
FMAT,2
INCH
; #@! TA.AperFunction,Plated,PTH,ViaDrill
T1C0.0098
; #@! TA.AperFunction,Plated,PTH,ComponentDrill
T2C0.0197
; #@! TA.AperFunction,Plated,PTH,ComponentDrill
T3C0.0217
; #@! TA.AperFunction,Plated,PTH,ComponentDrill
T4C0.0354
; #@! TA.AperFunction,Plated,PTH,ComponentDrill
T5C0.0390
; #@! TA.AperFunction,Plated,PTH,ComponentDrill
T6C0.0433
%
G90
G05
T1
X6.5059Y-3.4154
X6.5354Y-2.5689
X6.5354Y-2.8346
X6.6142Y-2.2047
X6.624Y-2.6772
X6.6339Y-2.7461
X6.6437Y-3.2087
X6.6437Y-3.2382
X6.6437Y-3.2677
X6.6437Y-3.2972
X6.6437Y-3.3268
X6.6437Y-3.3563
X6.6437Y-3.4154
X6.7028Y-2.8937
X6.7062Y-2.3425
X6.752Y-2.0374
X6.752Y-2.6378
X6.7913Y-2.7067
X6.7913Y-2.7461
X6.7913Y-2.8248
X6.7913Y-2.8543
X6.811Y-2.5886
X6.811Y-3.189
X6.8209Y-1.9094
X6.8209Y-2.8937
X6.8307Y-2.6969
X6.8406Y-2.5787
X6.8504Y-2.2047
X6.8504Y-2.3622
X6.8602Y-2.8937
X6.8602Y-3.2382
X6.8701Y-2.5787
X6.8799Y-3.8189
X6.8898Y-2.5984
X6.9094Y-2.8937
X6.9193Y-2.9823
X6.939Y-2.9921
X6.9488Y-2.6969
X6.973Y-2.9966
X6.9783Y-2.5
X6.9783Y-2.5295
X6.9882Y-2.7264
X6.9882Y-2.7756
X6.9882Y-2.8248
X6.9882Y-2.8543
X6.998Y-2.2539
X7.0079Y-2.4705
X7.0079Y-2.5
X7.0079Y-2.9921
X7.0276Y-2.5591
X7.0276Y-2.5886
X7.0276Y-2.6181
X7.0276Y-2.6476
X7.0374Y-2.4508
X7.0374Y-2.4803
X7.0571Y-2.5591
X7.0571Y-2.5886
X7.0669Y-2.4508
X7.0669Y-2.4803
X7.0669Y-2.7756
X7.0669Y-2.8839
X7.0768Y-2.8051
X7.0866Y-2.5591
X7.0866Y-2.6476
X7.0866Y-2.7657
X7.0866Y-2.8445
X7.1063Y-2.7854
X7.1063Y-2.8248
X7.1161Y-2.5591
X7.1161Y-2.5886
X7.126Y-2.7461
X7.1457Y-2.5591
X7.1457Y-2.5886
X7.1457Y-2.6476
X7.1457Y-2.7067
X7.1457Y-2.7657
X7.1457Y-2.8051
X7.1457Y-2.8445
X7.1555Y-2.4409
X7.1555Y-2.4705
X7.1654Y-2.8248
X7.1654Y-2.8642
X7.1654Y-2.9331
X7.1746Y-2.7254
X7.1752Y-2.5591
X7.185Y-2.4705
X7.185Y-2.9528
X7.2047Y-2.4409
X7.2047Y-2.5591
X7.2047Y-2.8051
X7.2047Y-2.9331
X7.2146Y-2.4705
X7.2146Y-2.7264
X7.2244Y-2.9528
X7.2343Y-2.5591
X7.2441Y-2.4705
X7.2441Y-2.8051
X7.2441Y-2.9331
X7.2539Y-2.4409
X7.2539Y-2.7264
X7.2638Y-2.5591
X7.2638Y-2.9528
X7.2736Y-2.4705
X7.2835Y-2.8051
X7.2835Y-2.9331
X7.2933Y-2.5591
X7.2933Y-2.7264
X7.3031Y-2.4409
X7.3031Y-2.4705
X7.3031Y-2.5886
X7.3031Y-2.7461
X7.3031Y-2.7854
X7.3031Y-2.874
X7.3031Y-2.9134
X7.3031Y-2.9528
X7.313Y-3.3465
X7.3228Y-2.5591
X7.3228Y-2.7657
X7.3228Y-2.8051
X7.3228Y-2.8543
X7.3228Y-2.8937
X7.3228Y-2.9331
X7.3425Y-2.5787
X7.3425Y-2.7854
X7.3622Y-2.5591
X7.3819Y-2.5787
X7.3819Y-2.7854
X7.4016Y-2.5591
X7.4016Y-2.8051
X7.4016Y-2.8445
X7.4016Y-2.8839
X7.4213Y-2.5787
X7.4409Y-2.5591
X7.4606Y-2.5984
T4
X6.811Y-2.0965
X6.8898Y-2.0965
X6.9685Y-2.0965
X7.2441Y-1.6634
X7.2441Y-1.7421
X7.2441Y-1.8209
T5
X6.3681Y-3.6713
X6.3681Y-3.8484
X6.624Y-3.6713
X6.624Y-3.8484
X7.1555Y-3.6713
X7.1555Y-3.8484
X7.4114Y-3.6713
X7.4114Y-3.8484
T6
X6.378Y-1.661
X6.378Y-1.761
X6.378Y-1.861
X6.378Y-1.961
X6.378Y-2.3996
X6.378Y-2.4996
X6.378Y-2.5996
X6.378Y-2.6996
X6.378Y-2.7996
X6.378Y-2.8996
X6.6142Y-4.0248
X6.6142Y-4.1248
X7.1654Y-4.0248
X7.1654Y-4.1248
X7.4016Y-1.661
X7.4016Y-1.761
X7.4016Y-1.861
X7.4016Y-1.961
T2
G00X6.752Y-4.1673
M15
G01X6.752Y-4.1929
M16
G05
G00X7.0276Y-4.1673
M15
G01X7.0276Y-4.1929
M16
G05
T3
G00X6.7844Y-4.0738
M15
G01X6.7982Y-4.0738
M16
G05
G00X6.9813Y-4.0738
M15
G01X6.9951Y-4.0738
M16
G05
M30
