%TF.GenerationSoftware,KiCad,Pcbnew,8.0.2*%
%TF.CreationDate,2024-06-27T22:03:59-04:00*%
%TF.ProjectId,HackerMouseProject,4861636b-6572-44d6-9f75-736550726f6a,rev?*%
%TF.SameCoordinates,Original*%
%TF.FileFunction,Copper,L2,Inr*%
%TF.FilePolarity,Positive*%
%FSLAX46Y46*%
G04 Gerber Fmt 4.6, Leading zero omitted, Abs format (unit mm)*
G04 Created by KiCad (PCBNEW 8.0.2) date 2024-06-27 22:03:59*
%MOMM*%
%LPD*%
G01*
G04 APERTURE LIST*
%TA.AperFunction,ComponentPad*%
%ADD10R,1.450000X1.450000*%
%TD*%
%TA.AperFunction,ComponentPad*%
%ADD11C,1.450000*%
%TD*%
%TA.AperFunction,ComponentPad*%
%ADD12O,3.000000X1.500000*%
%TD*%
%TA.AperFunction,ComponentPad*%
%ADD13O,1.500000X3.000000*%
%TD*%
%TA.AperFunction,ComponentPad*%
%ADD14R,1.498000X1.498000*%
%TD*%
%TA.AperFunction,ComponentPad*%
%ADD15C,1.498000*%
%TD*%
%TA.AperFunction,ComponentPad*%
%ADD16O,0.775000X1.550000*%
%TD*%
%TA.AperFunction,ComponentPad*%
%ADD17O,1.300000X0.950000*%
%TD*%
%TA.AperFunction,ViaPad*%
%ADD18C,0.350000*%
%TD*%
G04 APERTURE END LIST*
D10*
%TO.N,+5V*%
%TO.C,J6*%
X168000000Y-104770000D03*
D11*
%TO.N,GND*%
X168000000Y-102230000D03*
%TD*%
D12*
%TO.N,/JOY_X*%
%TO.C,S1*%
X184000000Y-44250000D03*
%TO.N,GND*%
X184000000Y-46250000D03*
%TO.N,+3V3*%
X184000000Y-42250000D03*
D13*
%TO.N,/JOY_Y*%
X175000000Y-53250000D03*
%TO.N,+3V3*%
X177000000Y-53250000D03*
%TO.N,GND*%
X173000000Y-53250000D03*
%TD*%
D10*
%TO.N,/GPIO21*%
%TO.C,J5*%
X162000000Y-49810000D03*
D11*
%TO.N,/GPIO33*%
X162000000Y-47270000D03*
%TO.N,/GPIO34*%
X162000000Y-44730000D03*
%TO.N,/GPIO35*%
X162000000Y-42190000D03*
%TD*%
D14*
%TO.N,/BOOT*%
%TO.C,SW3*%
X161750000Y-93250000D03*
D15*
%TO.N,unconnected-(SW3-Pad2)*%
X168250000Y-93250000D03*
%TO.N,unconnected-(SW3-Pad3)*%
X161750000Y-97750000D03*
%TO.N,GND*%
X168250000Y-97750000D03*
%TD*%
D10*
%TO.N,/GPIO36*%
%TO.C,J4*%
X188000000Y-49810000D03*
D11*
%TO.N,/GPIO37*%
X188000000Y-47270000D03*
%TO.N,/GPIO38*%
X188000000Y-44730000D03*
%TO.N,/GPIO45*%
X188000000Y-42190000D03*
%TD*%
D14*
%TO.N,Net-(R1-Pad2)*%
%TO.C,SW1*%
X181750000Y-93250000D03*
D15*
%TO.N,unconnected-(SW1-Pad2)*%
X188250000Y-93250000D03*
%TO.N,unconnected-(SW1-Pad3)*%
X181750000Y-97750000D03*
%TO.N,GND*%
X188250000Y-97750000D03*
%TD*%
D16*
%TO.N,GND*%
%TO.C,J1*%
X171500000Y-106750000D03*
X178500000Y-106750000D03*
D17*
X172500000Y-104050000D03*
X177500000Y-104050000D03*
%TD*%
D10*
%TO.N,/ESP_RX*%
%TO.C,J2*%
X182000000Y-104770000D03*
D11*
%TO.N,/ESP_TX*%
X182000000Y-102230000D03*
%TD*%
D10*
%TO.N,/CS1*%
%TO.C,J3*%
X162000000Y-73650000D03*
D11*
%TO.N,/SCK*%
X162000000Y-71110000D03*
%TO.N,/MOSI*%
X162000000Y-68570000D03*
%TO.N,/MISO*%
X162000000Y-66030000D03*
%TO.N,+5V*%
X162000000Y-63490000D03*
%TO.N,GND*%
X162000000Y-60950000D03*
%TD*%
D18*
%TO.N,GND*%
X180000000Y-77000000D03*
X175500000Y-76750000D03*
X175750000Y-77750000D03*
X176750000Y-80750000D03*
X176500000Y-82500000D03*
X186000000Y-98250000D03*
X188500000Y-69000000D03*
X188500000Y-67250000D03*
X186750000Y-69000000D03*
X186750000Y-67250000D03*
X178500000Y-60750000D03*
X183250000Y-60750000D03*
X184000000Y-59250000D03*
X185250000Y-58000000D03*
X182000000Y-59250000D03*
X183000000Y-58000000D03*
X181250000Y-58000000D03*
X180250000Y-59250000D03*
X178500000Y-59250000D03*
X179500000Y-58000000D03*
X188750000Y-55000000D03*
X187500000Y-53750000D03*
X186500000Y-56750000D03*
X185500000Y-55500000D03*
X186500000Y-54750000D03*
X187500000Y-55750000D03*
X185500000Y-53500000D03*
X184500000Y-56750000D03*
X183500000Y-55750000D03*
X182500000Y-56750000D03*
X181500000Y-55750000D03*
X180500000Y-56750000D03*
X184500000Y-54500000D03*
X183500000Y-53500000D03*
X182500000Y-54500000D03*
X186250000Y-52500000D03*
X184250000Y-52500000D03*
X185250000Y-51500000D03*
X183000000Y-35500000D03*
X181500000Y-48750000D03*
X180000000Y-51250000D03*
X169750000Y-55250000D03*
X169000000Y-47500000D03*
X169000000Y-52750000D03*
X174750000Y-50750000D03*
X175250000Y-49000000D03*
X174500000Y-46750000D03*
X176000000Y-45250000D03*
X178000000Y-43500000D03*
X180250000Y-40500000D03*
X172500000Y-39000000D03*
X173000000Y-42000000D03*
X169500000Y-36000000D03*
X169500000Y-40000000D03*
X167500000Y-37250000D03*
X164500000Y-41500000D03*
X167750000Y-44500000D03*
X165750000Y-45500000D03*
X165750000Y-48750000D03*
X168000000Y-59000000D03*
X166000000Y-56750000D03*
X161000000Y-53250000D03*
X161000000Y-56250000D03*
X161250000Y-58750000D03*
X164250000Y-62000000D03*
X164250000Y-63500000D03*
X164500000Y-65000000D03*
X167500000Y-65500000D03*
X168000000Y-71500000D03*
X164500000Y-70000000D03*
X164500000Y-71750000D03*
X161750000Y-82000000D03*
X161750000Y-80750000D03*
X161750000Y-79500000D03*
X161750000Y-77750000D03*
X168000000Y-77000000D03*
X168000000Y-79000000D03*
X170750000Y-75000000D03*
X169000000Y-75000000D03*
X183250000Y-76750000D03*
X186000000Y-79250000D03*
X183000000Y-80750000D03*
X183000000Y-82750000D03*
X185250000Y-77250000D03*
X188000000Y-74750000D03*
X188000000Y-75750000D03*
X188000000Y-77000000D03*
X188000000Y-78750000D03*
X188000000Y-80750000D03*
X188000000Y-82750000D03*
X188000000Y-85250000D03*
X188000000Y-87250000D03*
X188000000Y-89000000D03*
X188000000Y-90750000D03*
X182750000Y-87250000D03*
X181500000Y-87500000D03*
X181250000Y-88750000D03*
X180000000Y-91750000D03*
X170500000Y-99500000D03*
X170500000Y-102250000D03*
X178250000Y-102000000D03*
X177750000Y-98500000D03*
X182000000Y-107750000D03*
X168500000Y-107500000D03*
X182000000Y-100000000D03*
X186000000Y-101250000D03*
X179750000Y-94250000D03*
X182250000Y-95500000D03*
X186000000Y-95500000D03*
X161750000Y-85000000D03*
X161750000Y-83500000D03*
X176350000Y-84390000D03*
X173180000Y-85080000D03*
X176150000Y-86070000D03*
X175710000Y-87410000D03*
X175710000Y-87410000D03*
X173640000Y-91060000D03*
X176610000Y-91610000D03*
X176960000Y-93150000D03*
X172970000Y-92830000D03*
X170260000Y-95220000D03*
X165020000Y-93740000D03*
X165870000Y-97640000D03*
X165630000Y-99940000D03*
X161610000Y-100350000D03*
X162310000Y-101510000D03*
X189750000Y-61620000D03*
X168750000Y-81500000D03*
X168750000Y-83750000D03*
X168750000Y-84500000D03*
X168750000Y-83000000D03*
X168750000Y-82250000D03*
X168750000Y-85250000D03*
X185500000Y-62000000D03*
X183000000Y-62000000D03*
X184250000Y-62000000D03*
X181750000Y-62000000D03*
X185500000Y-62750000D03*
X184750000Y-62750000D03*
X184000000Y-62750000D03*
X183250000Y-62750000D03*
X182500000Y-62750000D03*
X181750000Y-62750000D03*
X178000000Y-62750000D03*
X178750000Y-62250000D03*
X179500000Y-62250000D03*
X179500000Y-63000000D03*
X178750000Y-63000000D03*
X178000000Y-63500000D03*
X177250000Y-63500000D03*
X177250000Y-64250000D03*
X185250000Y-65000000D03*
X181500000Y-67250000D03*
X181500000Y-65750000D03*
X181500000Y-65000000D03*
X180750000Y-65750000D03*
X180000000Y-67250000D03*
X179250000Y-65750000D03*
X185500000Y-65750000D03*
X186500000Y-65500000D03*
X187500000Y-65500000D03*
X188500000Y-65500000D03*
X189500000Y-66000000D03*
X189000000Y-65000000D03*
X188000000Y-65000000D03*
X187000000Y-65000000D03*
X186000000Y-65000000D03*
X184500000Y-65000000D03*
X183750000Y-65000000D03*
X183000000Y-65000000D03*
X182250000Y-65000000D03*
X180750000Y-65000000D03*
X180000000Y-65000000D03*
X179250000Y-65000000D03*
X178500000Y-65000000D03*
X178500000Y-65750000D03*
X178500000Y-66500000D03*
X178500000Y-67250000D03*
X171500000Y-67000000D03*
X172500000Y-68750000D03*
X172500000Y-69750000D03*
X177500000Y-70500000D03*
X172500000Y-71750000D03*
X172500000Y-72500000D03*
%TO.N,+3V3*%
X177500000Y-69250000D03*
X177500000Y-72500000D03*
%TO.N,/ESP_RX*%
X179750000Y-71250000D03*
%TO.N,/ESP_TX*%
X177500000Y-71750000D03*
%TO.N,/GPIO37*%
X178000000Y-76000000D03*
X171500000Y-51750000D03*
X173250000Y-48500000D03*
%TO.N,/GPIO38*%
X179500000Y-73250000D03*
X177750000Y-57250000D03*
%TO.N,/GPIO45*%
X179500000Y-70500000D03*
%TO.N,/BUT_1*%
X174000000Y-56000000D03*
%TO.N,/BUT_2*%
X168000000Y-56000000D03*
%TO.N,/GPIO36*%
X177113910Y-76113910D03*
%TO.N,/GPIO35*%
X176250000Y-76000000D03*
%TO.N,/GPIO34*%
X175750000Y-75750000D03*
%TO.N,/GPIO33*%
X175500000Y-73500000D03*
%TO.N,/GPIO21*%
X170250000Y-73500000D03*
%TO.N,/BUT_2*%
X173000000Y-65750000D03*
X170337500Y-59500000D03*
%TO.N,/BUT_1*%
X174000000Y-60000000D03*
X173750000Y-65500000D03*
%TO.N,/JOY_Y*%
X174500000Y-65500000D03*
%TO.N,/JOY_X*%
X175000000Y-66000000D03*
%TO.N,+3V3*%
X166000000Y-65250000D03*
X166000000Y-72000000D03*
%TO.N,GND*%
X185000000Y-74500000D03*
X186000000Y-71250000D03*
X185500000Y-70750000D03*
X184250000Y-69250000D03*
X184000000Y-71250000D03*
X185250000Y-69250000D03*
X183250000Y-69250000D03*
X182000000Y-74500000D03*
X183500000Y-75000000D03*
X187500000Y-70750000D03*
X181500000Y-70250000D03*
X181500000Y-72250000D03*
X186000000Y-73500000D03*
X185500000Y-75000000D03*
X181500000Y-68750000D03*
X185500000Y-74000000D03*
X185000000Y-71250000D03*
X181000000Y-69750000D03*
X188000000Y-72250000D03*
X186500000Y-70750000D03*
X180000000Y-72250000D03*
X182234959Y-69225614D03*
X185500000Y-73000000D03*
X180500000Y-71750000D03*
X186000000Y-70250000D03*
X184000000Y-74500000D03*
X185500000Y-69750000D03*
X183000000Y-71250000D03*
X182000000Y-72750000D03*
X182500000Y-75000000D03*
X186000000Y-72500000D03*
X186000000Y-74500000D03*
X188000000Y-73250000D03*
X183000000Y-74500000D03*
X180000000Y-70250000D03*
X188000000Y-71250000D03*
X184500000Y-75000000D03*
X180500000Y-70750000D03*
%TO.N,+3V3*%
X168750000Y-86750000D03*
X165250000Y-86750000D03*
%TO.N,/RESET*%
X176500000Y-68500000D03*
X185750000Y-85000000D03*
%TO.N,/MISO*%
X168250000Y-68000000D03*
%TO.N,/CS1*%
X168500000Y-69750000D03*
%TO.N,/BOOT*%
X174750000Y-97000000D03*
X173500000Y-68500000D03*
%TO.N,/SPICS0*%
X173000000Y-81000000D03*
X173250000Y-73500000D03*
%TO.N,/SPIQ*%
X174250000Y-73500000D03*
X174250000Y-82250000D03*
%TO.N,GND*%
X181500000Y-71250000D03*
X182000000Y-71750000D03*
%TD*%
%TA.AperFunction,Conductor*%
%TO.N,GND*%
G36*
X189692539Y-34270185D02*
G01*
X189738294Y-34322989D01*
X189749500Y-34374500D01*
X189749500Y-59299829D01*
X189787636Y-59391897D01*
X189858103Y-59462364D01*
X189923452Y-59489432D01*
X189977856Y-59533273D01*
X189999921Y-59599567D01*
X190000000Y-59603993D01*
X190000000Y-77646006D01*
X189980315Y-77713045D01*
X189927511Y-77758800D01*
X189923453Y-77760567D01*
X189858102Y-77787636D01*
X189787636Y-77858102D01*
X189749500Y-77950170D01*
X189749500Y-93212890D01*
X189739249Y-93247799D01*
X189747069Y-93262677D01*
X189749500Y-93287109D01*
X189749500Y-97718629D01*
X189741411Y-97746174D01*
X189747069Y-97756938D01*
X189749500Y-97781370D01*
X189749500Y-108625500D01*
X189729815Y-108692539D01*
X189677011Y-108738294D01*
X189625500Y-108749500D01*
X160374500Y-108749500D01*
X160307461Y-108729815D01*
X160261706Y-108677011D01*
X160250500Y-108625500D01*
X160250500Y-105500000D01*
X160744473Y-105500000D01*
X160764563Y-105832136D01*
X160764563Y-105832141D01*
X160764564Y-105832142D01*
X160824544Y-106159441D01*
X160824545Y-106159445D01*
X160824546Y-106159449D01*
X160923530Y-106477104D01*
X160923534Y-106477116D01*
X160923537Y-106477123D01*
X161060102Y-106780557D01*
X161192760Y-107000000D01*
X161232251Y-107065326D01*
X161437460Y-107327255D01*
X161672744Y-107562539D01*
X161934673Y-107767748D01*
X161934678Y-107767751D01*
X161934682Y-107767754D01*
X162219443Y-107939898D01*
X162522877Y-108076463D01*
X162522890Y-108076467D01*
X162522895Y-108076469D01*
X162734665Y-108142458D01*
X162840559Y-108175456D01*
X163167858Y-108235436D01*
X163500000Y-108255527D01*
X163832142Y-108235436D01*
X164159441Y-108175456D01*
X164477123Y-108076463D01*
X164780557Y-107939898D01*
X165065318Y-107767754D01*
X165327252Y-107562542D01*
X165562542Y-107327252D01*
X165767754Y-107065318D01*
X165939898Y-106780557D01*
X166076463Y-106477123D01*
X166139420Y-106275084D01*
X170612500Y-106275084D01*
X170612500Y-106500000D01*
X171250000Y-106500000D01*
X171250000Y-107000000D01*
X170612500Y-107000000D01*
X170612500Y-107224915D01*
X170646604Y-107396366D01*
X170646606Y-107396374D01*
X170713506Y-107557886D01*
X170713511Y-107557895D01*
X170810633Y-107703247D01*
X170810636Y-107703251D01*
X170934248Y-107826863D01*
X170934252Y-107826866D01*
X171079604Y-107923988D01*
X171079617Y-107923995D01*
X171241120Y-107990891D01*
X171241128Y-107990893D01*
X171250000Y-107992658D01*
X171250000Y-107124728D01*
X171288060Y-107216614D01*
X171358386Y-107286940D01*
X171450272Y-107325000D01*
X171549728Y-107325000D01*
X171641614Y-107286940D01*
X171711940Y-107216614D01*
X171750000Y-107124728D01*
X171750000Y-107992657D01*
X171758871Y-107990893D01*
X171758879Y-107990891D01*
X171920382Y-107923995D01*
X171920395Y-107923988D01*
X172065747Y-107826866D01*
X172065751Y-107826863D01*
X172189363Y-107703251D01*
X172189366Y-107703247D01*
X172286488Y-107557895D01*
X172286493Y-107557886D01*
X172353393Y-107396374D01*
X172353395Y-107396366D01*
X172387499Y-107224915D01*
X172387500Y-107224912D01*
X172387500Y-107000000D01*
X171750000Y-107000000D01*
X171750000Y-106500000D01*
X172387500Y-106500000D01*
X172387500Y-106275088D01*
X172387499Y-106275084D01*
X177612500Y-106275084D01*
X177612500Y-106500000D01*
X178250000Y-106500000D01*
X178250000Y-107000000D01*
X177612500Y-107000000D01*
X177612500Y-107224915D01*
X177646604Y-107396366D01*
X177646606Y-107396374D01*
X177713506Y-107557886D01*
X177713511Y-107557895D01*
X177810633Y-107703247D01*
X177810636Y-107703251D01*
X177934248Y-107826863D01*
X177934252Y-107826866D01*
X178079604Y-107923988D01*
X178079617Y-107923995D01*
X178241120Y-107990891D01*
X178241128Y-107990893D01*
X178250000Y-107992658D01*
X178250000Y-107124728D01*
X178288060Y-107216614D01*
X178358386Y-107286940D01*
X178450272Y-107325000D01*
X178549728Y-107325000D01*
X178641614Y-107286940D01*
X178711940Y-107216614D01*
X178750000Y-107124728D01*
X178750000Y-107992657D01*
X178758871Y-107990893D01*
X178758879Y-107990891D01*
X178920382Y-107923995D01*
X178920395Y-107923988D01*
X179065747Y-107826866D01*
X179065751Y-107826863D01*
X179189363Y-107703251D01*
X179189366Y-107703247D01*
X179286488Y-107557895D01*
X179286493Y-107557886D01*
X179353393Y-107396374D01*
X179353395Y-107396366D01*
X179387499Y-107224915D01*
X179387500Y-107224912D01*
X179387500Y-107000000D01*
X178750000Y-107000000D01*
X178750000Y-106500000D01*
X179387500Y-106500000D01*
X179387500Y-106275088D01*
X179387499Y-106275084D01*
X179353395Y-106103633D01*
X179353393Y-106103625D01*
X179286493Y-105942113D01*
X179286488Y-105942104D01*
X179189366Y-105796752D01*
X179189363Y-105796748D01*
X179065751Y-105673136D01*
X179065747Y-105673133D01*
X178920395Y-105576011D01*
X178920385Y-105576006D01*
X178758871Y-105509105D01*
X178750000Y-105507339D01*
X178750000Y-106375272D01*
X178711940Y-106283386D01*
X178641614Y-106213060D01*
X178549728Y-106175000D01*
X178450272Y-106175000D01*
X178358386Y-106213060D01*
X178288060Y-106283386D01*
X178250000Y-106375272D01*
X178250000Y-105507340D01*
X178249999Y-105507339D01*
X178241128Y-105509105D01*
X178079614Y-105576006D01*
X178079604Y-105576011D01*
X177934252Y-105673133D01*
X177934248Y-105673136D01*
X177810636Y-105796748D01*
X177810633Y-105796752D01*
X177713511Y-105942104D01*
X177713506Y-105942113D01*
X177646606Y-106103625D01*
X177646604Y-106103633D01*
X177612500Y-106275084D01*
X172387499Y-106275084D01*
X172353395Y-106103633D01*
X172353393Y-106103625D01*
X172286493Y-105942113D01*
X172286488Y-105942104D01*
X172189366Y-105796752D01*
X172189363Y-105796748D01*
X172065751Y-105673136D01*
X172065747Y-105673133D01*
X171920395Y-105576011D01*
X171920385Y-105576006D01*
X171758871Y-105509105D01*
X171750000Y-105507339D01*
X171750000Y-106375272D01*
X171711940Y-106283386D01*
X171641614Y-106213060D01*
X171549728Y-106175000D01*
X171450272Y-106175000D01*
X171358386Y-106213060D01*
X171288060Y-106283386D01*
X171250000Y-106375272D01*
X171250000Y-105507340D01*
X171249999Y-105507339D01*
X171241128Y-105509105D01*
X171079614Y-105576006D01*
X171079604Y-105576011D01*
X170934252Y-105673133D01*
X170934248Y-105673136D01*
X170810636Y-105796748D01*
X170810633Y-105796752D01*
X170713511Y-105942104D01*
X170713506Y-105942113D01*
X170646606Y-106103625D01*
X170646604Y-106103633D01*
X170612500Y-106275084D01*
X166139420Y-106275084D01*
X166175456Y-106159441D01*
X166235436Y-105832142D01*
X166255527Y-105500000D01*
X166235436Y-105167858D01*
X166175456Y-104840559D01*
X166076463Y-104522877D01*
X165939898Y-104219443D01*
X165767754Y-103934682D01*
X165767751Y-103934678D01*
X165767748Y-103934673D01*
X165562539Y-103672744D01*
X165327255Y-103437460D01*
X165065326Y-103232251D01*
X164988758Y-103185964D01*
X164780557Y-103060102D01*
X164477123Y-102923537D01*
X164477116Y-102923534D01*
X164477104Y-102923530D01*
X164159449Y-102824546D01*
X164159445Y-102824545D01*
X164159441Y-102824544D01*
X163832142Y-102764564D01*
X163832141Y-102764563D01*
X163832136Y-102764563D01*
X163500000Y-102744473D01*
X163167863Y-102764563D01*
X163167858Y-102764564D01*
X162840559Y-102824544D01*
X162840556Y-102824544D01*
X162840550Y-102824546D01*
X162522895Y-102923530D01*
X162522879Y-102923536D01*
X162522877Y-102923537D01*
X162329656Y-103010498D01*
X162219447Y-103060100D01*
X162219445Y-103060101D01*
X161934673Y-103232251D01*
X161672744Y-103437460D01*
X161437460Y-103672744D01*
X161232251Y-103934673D01*
X161194496Y-103997128D01*
X161060102Y-104219443D01*
X160928504Y-104511842D01*
X160923536Y-104522880D01*
X160923530Y-104522895D01*
X160824546Y-104840550D01*
X160824544Y-104840556D01*
X160824544Y-104840559D01*
X160797610Y-104987531D01*
X160764563Y-105167863D01*
X160744473Y-105500000D01*
X160250500Y-105500000D01*
X160250500Y-102229999D01*
X166770321Y-102229999D01*
X166770321Y-102230000D01*
X166789002Y-102443527D01*
X166789004Y-102443537D01*
X166844477Y-102650567D01*
X166844481Y-102650576D01*
X166935066Y-102844838D01*
X166935067Y-102844840D01*
X166974825Y-102901620D01*
X166974826Y-102901621D01*
X167476212Y-102400234D01*
X167487482Y-102442292D01*
X167559890Y-102567708D01*
X167662292Y-102670110D01*
X167787708Y-102742518D01*
X167829764Y-102753787D01*
X167328377Y-103255173D01*
X167385160Y-103294933D01*
X167413435Y-103308117D01*
X167465875Y-103354289D01*
X167485028Y-103421482D01*
X167464813Y-103488364D01*
X167411648Y-103533699D01*
X167361033Y-103544500D01*
X167227130Y-103544500D01*
X167227123Y-103544501D01*
X167167516Y-103550908D01*
X167032671Y-103601202D01*
X167032664Y-103601206D01*
X166917455Y-103687452D01*
X166917452Y-103687455D01*
X166831206Y-103802664D01*
X166831202Y-103802671D01*
X166780908Y-103937517D01*
X166774501Y-103997116D01*
X166774501Y-103997123D01*
X166774500Y-103997135D01*
X166774500Y-105542870D01*
X166774501Y-105542876D01*
X166780908Y-105602483D01*
X166831202Y-105737328D01*
X166831206Y-105737335D01*
X166917452Y-105852544D01*
X166917455Y-105852547D01*
X167032664Y-105938793D01*
X167032671Y-105938797D01*
X167167517Y-105989091D01*
X167167516Y-105989091D01*
X167174444Y-105989835D01*
X167227127Y-105995500D01*
X168772872Y-105995499D01*
X168832483Y-105989091D01*
X168967331Y-105938796D01*
X169082546Y-105852546D01*
X169168796Y-105737331D01*
X169219091Y-105602483D01*
X169225500Y-105542873D01*
X169225499Y-103997128D01*
X169219091Y-103937517D01*
X169218030Y-103934673D01*
X169168797Y-103802671D01*
X169168793Y-103802664D01*
X169166799Y-103800000D01*
X171380626Y-103800000D01*
X172209943Y-103800000D01*
X172169225Y-103816866D01*
X172091866Y-103894225D01*
X172050000Y-103995299D01*
X172050000Y-104104701D01*
X172091866Y-104205775D01*
X172169225Y-104283134D01*
X172209943Y-104300000D01*
X171380626Y-104300000D01*
X171387466Y-104334389D01*
X171387468Y-104334397D01*
X171460964Y-104511833D01*
X171460969Y-104511842D01*
X171567667Y-104671526D01*
X171567670Y-104671530D01*
X171703469Y-104807329D01*
X171703473Y-104807332D01*
X171863157Y-104914030D01*
X171863166Y-104914035D01*
X172040602Y-104987531D01*
X172040610Y-104987533D01*
X172228966Y-105024999D01*
X172228970Y-105025000D01*
X172250000Y-105025000D01*
X172250000Y-104316591D01*
X172270299Y-104325000D01*
X172729701Y-104325000D01*
X172750000Y-104316591D01*
X172750000Y-105025000D01*
X172771030Y-105025000D01*
X172771033Y-105024999D01*
X172959389Y-104987533D01*
X172959397Y-104987531D01*
X173136833Y-104914035D01*
X173136842Y-104914030D01*
X173296526Y-104807332D01*
X173296530Y-104807329D01*
X173432329Y-104671530D01*
X173432332Y-104671526D01*
X173539030Y-104511842D01*
X173539035Y-104511833D01*
X173612531Y-104334397D01*
X173612533Y-104334389D01*
X173619374Y-104300000D01*
X172790057Y-104300000D01*
X172830775Y-104283134D01*
X172908134Y-104205775D01*
X172950000Y-104104701D01*
X172950000Y-103995299D01*
X172908134Y-103894225D01*
X172830775Y-103816866D01*
X172790057Y-103800000D01*
X173619374Y-103800000D01*
X176380626Y-103800000D01*
X177209943Y-103800000D01*
X177169225Y-103816866D01*
X177091866Y-103894225D01*
X177050000Y-103995299D01*
X177050000Y-104104701D01*
X177091866Y-104205775D01*
X177169225Y-104283134D01*
X177209943Y-104300000D01*
X176380626Y-104300000D01*
X176387466Y-104334389D01*
X176387468Y-104334397D01*
X176460964Y-104511833D01*
X176460969Y-104511842D01*
X176567667Y-104671526D01*
X176567670Y-104671530D01*
X176703469Y-104807329D01*
X176703473Y-104807332D01*
X176863157Y-104914030D01*
X176863166Y-104914035D01*
X177040602Y-104987531D01*
X177040610Y-104987533D01*
X177228966Y-105024999D01*
X177228970Y-105025000D01*
X177250000Y-105025000D01*
X177250000Y-104316591D01*
X177270299Y-104325000D01*
X177729701Y-104325000D01*
X177750000Y-104316591D01*
X177750000Y-105025000D01*
X177771030Y-105025000D01*
X177771033Y-105024999D01*
X177959389Y-104987533D01*
X177959397Y-104987531D01*
X178136833Y-104914035D01*
X178136842Y-104914030D01*
X178296526Y-104807332D01*
X178296530Y-104807329D01*
X178432329Y-104671530D01*
X178432332Y-104671526D01*
X178539030Y-104511842D01*
X178539035Y-104511833D01*
X178612531Y-104334397D01*
X178612533Y-104334389D01*
X178619374Y-104300000D01*
X177790057Y-104300000D01*
X177830775Y-104283134D01*
X177908134Y-104205775D01*
X177950000Y-104104701D01*
X177950000Y-103995299D01*
X177908134Y-103894225D01*
X177830775Y-103816866D01*
X177790057Y-103800000D01*
X178619374Y-103800000D01*
X178612533Y-103765610D01*
X178612531Y-103765602D01*
X178539035Y-103588166D01*
X178539030Y-103588157D01*
X178432332Y-103428473D01*
X178432329Y-103428469D01*
X178296530Y-103292670D01*
X178296526Y-103292667D01*
X178136842Y-103185969D01*
X178136833Y-103185964D01*
X177959397Y-103112468D01*
X177959389Y-103112466D01*
X177771033Y-103075000D01*
X177750000Y-103075000D01*
X177750000Y-103783408D01*
X177729701Y-103775000D01*
X177270299Y-103775000D01*
X177250000Y-103783408D01*
X177250000Y-103075000D01*
X177228966Y-103075000D01*
X177040610Y-103112466D01*
X177040602Y-103112468D01*
X176863166Y-103185964D01*
X176863157Y-103185969D01*
X176703473Y-103292667D01*
X176703469Y-103292670D01*
X176567670Y-103428469D01*
X176567667Y-103428473D01*
X176460969Y-103588157D01*
X176460964Y-103588166D01*
X176387468Y-103765602D01*
X176387466Y-103765610D01*
X176380626Y-103800000D01*
X173619374Y-103800000D01*
X173612533Y-103765610D01*
X173612531Y-103765602D01*
X173539035Y-103588166D01*
X173539030Y-103588157D01*
X173432332Y-103428473D01*
X173432329Y-103428469D01*
X173296530Y-103292670D01*
X173296526Y-103292667D01*
X173136842Y-103185969D01*
X173136833Y-103185964D01*
X172959397Y-103112468D01*
X172959389Y-103112466D01*
X172771033Y-103075000D01*
X172750000Y-103075000D01*
X172750000Y-103783408D01*
X172729701Y-103775000D01*
X172270299Y-103775000D01*
X172250000Y-103783408D01*
X172250000Y-103075000D01*
X172228966Y-103075000D01*
X172040610Y-103112466D01*
X172040602Y-103112468D01*
X171863166Y-103185964D01*
X171863157Y-103185969D01*
X171703473Y-103292667D01*
X171703469Y-103292670D01*
X171567670Y-103428469D01*
X171567667Y-103428473D01*
X171460969Y-103588157D01*
X171460964Y-103588166D01*
X171387468Y-103765602D01*
X171387466Y-103765610D01*
X171380626Y-103800000D01*
X169166799Y-103800000D01*
X169082547Y-103687455D01*
X169082544Y-103687452D01*
X168967335Y-103601206D01*
X168967328Y-103601202D01*
X168832482Y-103550908D01*
X168832483Y-103550908D01*
X168772883Y-103544501D01*
X168772881Y-103544500D01*
X168772873Y-103544500D01*
X168772865Y-103544500D01*
X168638968Y-103544500D01*
X168571929Y-103524815D01*
X168526174Y-103472011D01*
X168516230Y-103402853D01*
X168545255Y-103339297D01*
X168586565Y-103308117D01*
X168614839Y-103294932D01*
X168671621Y-103255173D01*
X168170235Y-102753787D01*
X168212292Y-102742518D01*
X168337708Y-102670110D01*
X168440110Y-102567708D01*
X168512518Y-102442292D01*
X168523787Y-102400234D01*
X169025173Y-102901621D01*
X169064933Y-102844839D01*
X169155518Y-102650576D01*
X169155522Y-102650567D01*
X169210995Y-102443537D01*
X169210997Y-102443527D01*
X169229679Y-102230000D01*
X169229679Y-102229999D01*
X169229679Y-102229998D01*
X180769819Y-102229998D01*
X180769819Y-102230001D01*
X180788507Y-102443613D01*
X180788509Y-102443624D01*
X180844005Y-102650739D01*
X180844007Y-102650743D01*
X180844008Y-102650747D01*
X180887713Y-102744473D01*
X180934631Y-102845090D01*
X180934632Y-102845091D01*
X181057627Y-103020745D01*
X181209255Y-103172373D01*
X181384909Y-103295368D01*
X181412252Y-103308118D01*
X181464691Y-103354288D01*
X181483845Y-103421481D01*
X181463631Y-103488363D01*
X181410467Y-103533698D01*
X181359850Y-103544500D01*
X181227130Y-103544500D01*
X181227123Y-103544501D01*
X181167516Y-103550908D01*
X181032671Y-103601202D01*
X181032664Y-103601206D01*
X180917455Y-103687452D01*
X180917452Y-103687455D01*
X180831206Y-103802664D01*
X180831202Y-103802671D01*
X180780908Y-103937517D01*
X180774501Y-103997116D01*
X180774501Y-103997123D01*
X180774500Y-103997135D01*
X180774500Y-105542870D01*
X180774501Y-105542876D01*
X180780908Y-105602483D01*
X180831202Y-105737328D01*
X180831206Y-105737335D01*
X180917452Y-105852544D01*
X180917455Y-105852547D01*
X181032664Y-105938793D01*
X181032671Y-105938797D01*
X181167517Y-105989091D01*
X181167516Y-105989091D01*
X181174444Y-105989835D01*
X181227127Y-105995500D01*
X182772872Y-105995499D01*
X182832483Y-105989091D01*
X182967331Y-105938796D01*
X183082546Y-105852546D01*
X183168796Y-105737331D01*
X183219091Y-105602483D01*
X183225500Y-105542873D01*
X183225500Y-105500000D01*
X183744473Y-105500000D01*
X183764563Y-105832136D01*
X183764563Y-105832141D01*
X183764564Y-105832142D01*
X183824544Y-106159441D01*
X183824545Y-106159445D01*
X183824546Y-106159449D01*
X183923530Y-106477104D01*
X183923534Y-106477116D01*
X183923537Y-106477123D01*
X184060102Y-106780557D01*
X184192760Y-107000000D01*
X184232251Y-107065326D01*
X184437460Y-107327255D01*
X184672744Y-107562539D01*
X184934673Y-107767748D01*
X184934678Y-107767751D01*
X184934682Y-107767754D01*
X185219443Y-107939898D01*
X185522877Y-108076463D01*
X185522890Y-108076467D01*
X185522895Y-108076469D01*
X185734665Y-108142458D01*
X185840559Y-108175456D01*
X186167858Y-108235436D01*
X186500000Y-108255527D01*
X186832142Y-108235436D01*
X187159441Y-108175456D01*
X187477123Y-108076463D01*
X187780557Y-107939898D01*
X188065318Y-107767754D01*
X188327252Y-107562542D01*
X188562542Y-107327252D01*
X188767754Y-107065318D01*
X188939898Y-106780557D01*
X189076463Y-106477123D01*
X189175456Y-106159441D01*
X189235436Y-105832142D01*
X189255527Y-105500000D01*
X189235436Y-105167858D01*
X189175456Y-104840559D01*
X189076463Y-104522877D01*
X188939898Y-104219443D01*
X188767754Y-103934682D01*
X188767751Y-103934678D01*
X188767748Y-103934673D01*
X188562539Y-103672744D01*
X188327255Y-103437460D01*
X188065326Y-103232251D01*
X187988758Y-103185964D01*
X187780557Y-103060102D01*
X187477123Y-102923537D01*
X187477116Y-102923534D01*
X187477104Y-102923530D01*
X187159449Y-102824546D01*
X187159445Y-102824545D01*
X187159441Y-102824544D01*
X186832142Y-102764564D01*
X186832141Y-102764563D01*
X186832136Y-102764563D01*
X186500000Y-102744473D01*
X186167863Y-102764563D01*
X186167858Y-102764564D01*
X185840559Y-102824544D01*
X185840556Y-102824544D01*
X185840550Y-102824546D01*
X185522895Y-102923530D01*
X185522879Y-102923536D01*
X185522877Y-102923537D01*
X185329656Y-103010498D01*
X185219447Y-103060100D01*
X185219445Y-103060101D01*
X184934673Y-103232251D01*
X184672744Y-103437460D01*
X184437460Y-103672744D01*
X184232251Y-103934673D01*
X184194496Y-103997128D01*
X184060102Y-104219443D01*
X183928504Y-104511842D01*
X183923536Y-104522880D01*
X183923530Y-104522895D01*
X183824546Y-104840550D01*
X183824544Y-104840556D01*
X183824544Y-104840559D01*
X183797610Y-104987531D01*
X183764563Y-105167863D01*
X183744473Y-105500000D01*
X183225500Y-105500000D01*
X183225499Y-103997128D01*
X183219091Y-103937517D01*
X183218030Y-103934673D01*
X183168797Y-103802671D01*
X183168793Y-103802664D01*
X183082547Y-103687455D01*
X183082544Y-103687452D01*
X182967335Y-103601206D01*
X182967328Y-103601202D01*
X182832482Y-103550908D01*
X182832483Y-103550908D01*
X182772883Y-103544501D01*
X182772881Y-103544500D01*
X182772873Y-103544500D01*
X182772865Y-103544500D01*
X182640152Y-103544500D01*
X182573113Y-103524815D01*
X182527358Y-103472011D01*
X182517414Y-103402853D01*
X182546439Y-103339297D01*
X182587746Y-103308119D01*
X182615091Y-103295368D01*
X182790745Y-103172373D01*
X182942373Y-103020745D01*
X183065368Y-102845091D01*
X183155992Y-102650747D01*
X183211492Y-102443619D01*
X183230181Y-102230000D01*
X183211492Y-102016381D01*
X183155992Y-101809253D01*
X183065368Y-101614910D01*
X182942373Y-101439255D01*
X182790745Y-101287627D01*
X182672492Y-101204825D01*
X182615090Y-101164631D01*
X182517919Y-101119320D01*
X182420747Y-101074008D01*
X182420743Y-101074007D01*
X182420739Y-101074005D01*
X182213624Y-101018509D01*
X182213620Y-101018508D01*
X182213619Y-101018508D01*
X182213618Y-101018507D01*
X182213613Y-101018507D01*
X182000002Y-100999819D01*
X181999998Y-100999819D01*
X181786386Y-101018507D01*
X181786375Y-101018509D01*
X181579260Y-101074005D01*
X181579251Y-101074009D01*
X181384910Y-101164631D01*
X181384908Y-101164632D01*
X181209259Y-101287623D01*
X181209253Y-101287628D01*
X181057628Y-101439253D01*
X181057623Y-101439259D01*
X180934632Y-101614908D01*
X180934631Y-101614910D01*
X180844009Y-101809251D01*
X180844005Y-101809260D01*
X180788509Y-102016375D01*
X180788507Y-102016386D01*
X180769819Y-102229998D01*
X169229679Y-102229998D01*
X169210997Y-102016472D01*
X169210995Y-102016462D01*
X169155522Y-101809432D01*
X169155518Y-101809423D01*
X169064933Y-101615162D01*
X169025172Y-101558379D01*
X168523787Y-102059764D01*
X168512518Y-102017708D01*
X168440110Y-101892292D01*
X168337708Y-101789890D01*
X168212292Y-101717482D01*
X168170235Y-101706212D01*
X168671621Y-101204826D01*
X168671620Y-101204825D01*
X168614840Y-101165067D01*
X168614838Y-101165066D01*
X168420576Y-101074481D01*
X168420567Y-101074477D01*
X168213537Y-101019004D01*
X168213527Y-101019002D01*
X168000001Y-101000321D01*
X167999999Y-101000321D01*
X167786472Y-101019002D01*
X167786462Y-101019004D01*
X167579432Y-101074477D01*
X167579423Y-101074481D01*
X167385162Y-101165066D01*
X167328378Y-101204826D01*
X167829765Y-101706212D01*
X167787708Y-101717482D01*
X167662292Y-101789890D01*
X167559890Y-101892292D01*
X167487482Y-102017708D01*
X167476212Y-102059764D01*
X166974826Y-101558378D01*
X166935066Y-101615162D01*
X166844481Y-101809423D01*
X166844477Y-101809432D01*
X166789004Y-102016462D01*
X166789002Y-102016472D01*
X166770321Y-102229999D01*
X160250500Y-102229999D01*
X160250500Y-97787109D01*
X160260750Y-97752199D01*
X160257387Y-97745801D01*
X160489381Y-97745801D01*
X160493477Y-97752174D01*
X160498028Y-97776302D01*
X160514781Y-97967796D01*
X160514783Y-97967807D01*
X160571366Y-98178979D01*
X160571368Y-98178983D01*
X160571369Y-98178987D01*
X160663649Y-98376882D01*
X160663768Y-98377137D01*
X160663770Y-98377141D01*
X160789167Y-98556226D01*
X160789172Y-98556232D01*
X160943767Y-98710827D01*
X160943773Y-98710832D01*
X161122858Y-98836229D01*
X161122860Y-98836230D01*
X161122863Y-98836232D01*
X161321013Y-98928631D01*
X161532198Y-98985218D01*
X161687770Y-98998828D01*
X161749998Y-99004273D01*
X161750000Y-99004273D01*
X161750002Y-99004273D01*
X161804450Y-98999509D01*
X161967802Y-98985218D01*
X162178987Y-98928631D01*
X162377137Y-98836232D01*
X162556231Y-98710829D01*
X162710829Y-98556231D01*
X162836232Y-98377137D01*
X162928631Y-98178987D01*
X162985218Y-97967802D01*
X163004273Y-97750000D01*
X163004273Y-97749999D01*
X166996229Y-97749999D01*
X166996229Y-97750000D01*
X167015276Y-97967710D01*
X167015278Y-97967720D01*
X167071838Y-98178807D01*
X167071843Y-98178821D01*
X167164200Y-98376882D01*
X167164201Y-98376884D01*
X167207592Y-98438853D01*
X167771119Y-97875326D01*
X167788734Y-97941063D01*
X167853902Y-98053937D01*
X167946063Y-98146098D01*
X168058937Y-98211266D01*
X168124672Y-98228880D01*
X167561145Y-98792406D01*
X167623115Y-98835798D01*
X167623117Y-98835799D01*
X167821178Y-98928156D01*
X167821192Y-98928161D01*
X168032279Y-98984721D01*
X168032289Y-98984723D01*
X168249999Y-99003771D01*
X168250001Y-99003771D01*
X168467710Y-98984723D01*
X168467720Y-98984721D01*
X168678807Y-98928161D01*
X168678821Y-98928156D01*
X168876883Y-98835799D01*
X168876890Y-98835795D01*
X168938853Y-98792406D01*
X168375327Y-98228879D01*
X168441063Y-98211266D01*
X168553937Y-98146098D01*
X168646098Y-98053937D01*
X168711266Y-97941063D01*
X168728880Y-97875327D01*
X169292406Y-98438853D01*
X169335795Y-98376890D01*
X169335799Y-98376883D01*
X169428156Y-98178821D01*
X169428161Y-98178807D01*
X169484721Y-97967720D01*
X169484723Y-97967710D01*
X169503771Y-97750000D01*
X169503771Y-97749999D01*
X169503771Y-97749998D01*
X180495727Y-97749998D01*
X180495727Y-97750001D01*
X180514781Y-97967796D01*
X180514783Y-97967807D01*
X180571366Y-98178979D01*
X180571368Y-98178983D01*
X180571369Y-98178987D01*
X180663649Y-98376882D01*
X180663768Y-98377137D01*
X180663770Y-98377141D01*
X180789167Y-98556226D01*
X180789172Y-98556232D01*
X180943767Y-98710827D01*
X180943773Y-98710832D01*
X181122858Y-98836229D01*
X181122860Y-98836230D01*
X181122863Y-98836232D01*
X181321013Y-98928631D01*
X181532198Y-98985218D01*
X181687770Y-98998828D01*
X181749998Y-99004273D01*
X181750000Y-99004273D01*
X181750002Y-99004273D01*
X181804450Y-98999509D01*
X181967802Y-98985218D01*
X182178987Y-98928631D01*
X182377137Y-98836232D01*
X182556231Y-98710829D01*
X182710829Y-98556231D01*
X182836232Y-98377137D01*
X182928631Y-98178987D01*
X182985218Y-97967802D01*
X183004273Y-97750000D01*
X183004273Y-97749999D01*
X186996229Y-97749999D01*
X186996229Y-97750000D01*
X187015276Y-97967710D01*
X187015278Y-97967720D01*
X187071838Y-98178807D01*
X187071843Y-98178821D01*
X187164200Y-98376882D01*
X187164201Y-98376884D01*
X187207592Y-98438853D01*
X187771119Y-97875326D01*
X187788734Y-97941063D01*
X187853902Y-98053937D01*
X187946063Y-98146098D01*
X188058937Y-98211266D01*
X188124672Y-98228880D01*
X187561145Y-98792406D01*
X187623115Y-98835798D01*
X187623117Y-98835799D01*
X187821178Y-98928156D01*
X187821192Y-98928161D01*
X188032279Y-98984721D01*
X188032289Y-98984723D01*
X188249999Y-99003771D01*
X188250001Y-99003771D01*
X188467710Y-98984723D01*
X188467720Y-98984721D01*
X188678807Y-98928161D01*
X188678821Y-98928156D01*
X188876883Y-98835799D01*
X188876890Y-98835795D01*
X188938853Y-98792406D01*
X188375327Y-98228879D01*
X188441063Y-98211266D01*
X188553937Y-98146098D01*
X188646098Y-98053937D01*
X188711266Y-97941063D01*
X188728880Y-97875327D01*
X189292406Y-98438853D01*
X189335795Y-98376890D01*
X189335799Y-98376883D01*
X189428156Y-98178821D01*
X189428161Y-98178807D01*
X189484721Y-97967720D01*
X189484723Y-97967710D01*
X189501972Y-97770562D01*
X189507827Y-97755593D01*
X189506523Y-97753564D01*
X189501972Y-97729437D01*
X189484723Y-97532289D01*
X189484721Y-97532279D01*
X189428161Y-97321192D01*
X189428156Y-97321178D01*
X189335801Y-97123121D01*
X189292405Y-97061145D01*
X188728879Y-97624671D01*
X188711266Y-97558937D01*
X188646098Y-97446063D01*
X188553937Y-97353902D01*
X188441063Y-97288734D01*
X188375326Y-97271119D01*
X188938853Y-96707592D01*
X188876884Y-96664201D01*
X188876882Y-96664200D01*
X188678821Y-96571843D01*
X188678807Y-96571838D01*
X188467720Y-96515278D01*
X188467710Y-96515276D01*
X188250001Y-96496229D01*
X188249999Y-96496229D01*
X188032289Y-96515276D01*
X188032279Y-96515278D01*
X187821192Y-96571838D01*
X187821178Y-96571843D01*
X187623114Y-96664202D01*
X187561145Y-96707591D01*
X188124673Y-97271119D01*
X188058937Y-97288734D01*
X187946063Y-97353902D01*
X187853902Y-97446063D01*
X187788734Y-97558937D01*
X187771119Y-97624673D01*
X187207591Y-97061145D01*
X187164202Y-97123114D01*
X187071843Y-97321178D01*
X187071838Y-97321192D01*
X187015278Y-97532279D01*
X187015276Y-97532289D01*
X186996229Y-97749999D01*
X183004273Y-97749999D01*
X183001528Y-97718629D01*
X182994321Y-97636243D01*
X182985218Y-97532198D01*
X182928631Y-97321013D01*
X182836232Y-97122864D01*
X182750202Y-97000000D01*
X182710830Y-96943770D01*
X182710826Y-96943766D01*
X182556231Y-96789171D01*
X182556227Y-96789168D01*
X182556226Y-96789167D01*
X182377141Y-96663770D01*
X182377137Y-96663768D01*
X182377133Y-96663766D01*
X182178987Y-96571369D01*
X182178983Y-96571368D01*
X182178979Y-96571366D01*
X181967807Y-96514783D01*
X181967803Y-96514782D01*
X181967802Y-96514782D01*
X181967801Y-96514781D01*
X181967796Y-96514781D01*
X181750002Y-96495727D01*
X181749998Y-96495727D01*
X181532203Y-96514781D01*
X181532192Y-96514783D01*
X181321020Y-96571366D01*
X181321011Y-96571370D01*
X181122866Y-96663766D01*
X180943766Y-96789172D01*
X180789172Y-96943766D01*
X180663766Y-97122866D01*
X180571370Y-97321011D01*
X180571366Y-97321020D01*
X180514783Y-97532192D01*
X180514781Y-97532203D01*
X180495727Y-97749998D01*
X169503771Y-97749998D01*
X169484723Y-97532289D01*
X169484721Y-97532279D01*
X169428161Y-97321192D01*
X169428156Y-97321178D01*
X169335801Y-97123121D01*
X169292405Y-97061145D01*
X168728879Y-97624671D01*
X168711266Y-97558937D01*
X168646098Y-97446063D01*
X168553937Y-97353902D01*
X168441063Y-97288734D01*
X168375326Y-97271119D01*
X168646446Y-96999999D01*
X174069539Y-96999999D01*
X174069539Y-97000000D01*
X174089311Y-97162842D01*
X174089312Y-97162845D01*
X174147483Y-97316228D01*
X174173488Y-97353902D01*
X174240668Y-97451229D01*
X174240670Y-97451231D01*
X174240672Y-97451233D01*
X174363451Y-97560006D01*
X174363452Y-97560006D01*
X174363454Y-97560008D01*
X174508705Y-97636242D01*
X174508707Y-97636242D01*
X174508708Y-97636243D01*
X174667978Y-97675500D01*
X174667979Y-97675500D01*
X174832022Y-97675500D01*
X174991291Y-97636243D01*
X174991291Y-97636242D01*
X174991295Y-97636242D01*
X175136546Y-97560008D01*
X175259332Y-97451229D01*
X175352518Y-97316226D01*
X175410688Y-97162845D01*
X175430461Y-97000000D01*
X175410688Y-96837155D01*
X175352518Y-96683774D01*
X175259332Y-96548771D01*
X175259329Y-96548768D01*
X175259327Y-96548766D01*
X175136548Y-96439993D01*
X174991291Y-96363756D01*
X174832022Y-96324500D01*
X174832021Y-96324500D01*
X174667979Y-96324500D01*
X174667978Y-96324500D01*
X174508708Y-96363756D01*
X174363451Y-96439993D01*
X174240672Y-96548766D01*
X174240666Y-96548773D01*
X174147483Y-96683771D01*
X174089312Y-96837154D01*
X174089311Y-96837157D01*
X174069539Y-96999999D01*
X168646446Y-96999999D01*
X168938853Y-96707592D01*
X168876884Y-96664201D01*
X168876882Y-96664200D01*
X168678821Y-96571843D01*
X168678807Y-96571838D01*
X168467720Y-96515278D01*
X168467710Y-96515276D01*
X168250001Y-96496229D01*
X168249999Y-96496229D01*
X168032289Y-96515276D01*
X168032279Y-96515278D01*
X167821192Y-96571838D01*
X167821178Y-96571843D01*
X167623114Y-96664202D01*
X167561145Y-96707591D01*
X168124673Y-97271119D01*
X168058937Y-97288734D01*
X167946063Y-97353902D01*
X167853902Y-97446063D01*
X167788734Y-97558937D01*
X167771119Y-97624673D01*
X167207591Y-97061145D01*
X167164202Y-97123114D01*
X167071843Y-97321178D01*
X167071838Y-97321192D01*
X167015278Y-97532279D01*
X167015276Y-97532289D01*
X166996229Y-97749999D01*
X163004273Y-97749999D01*
X163001528Y-97718629D01*
X162994321Y-97636243D01*
X162985218Y-97532198D01*
X162928631Y-97321013D01*
X162836232Y-97122864D01*
X162750202Y-97000000D01*
X162710830Y-96943770D01*
X162710826Y-96943766D01*
X162556231Y-96789171D01*
X162556227Y-96789168D01*
X162556226Y-96789167D01*
X162377141Y-96663770D01*
X162377137Y-96663768D01*
X162377133Y-96663766D01*
X162178987Y-96571369D01*
X162178983Y-96571368D01*
X162178979Y-96571366D01*
X161967807Y-96514783D01*
X161967803Y-96514782D01*
X161967802Y-96514782D01*
X161967801Y-96514781D01*
X161967796Y-96514781D01*
X161750002Y-96495727D01*
X161749998Y-96495727D01*
X161532203Y-96514781D01*
X161532192Y-96514783D01*
X161321020Y-96571366D01*
X161321011Y-96571370D01*
X161122866Y-96663766D01*
X160943766Y-96789172D01*
X160789172Y-96943766D01*
X160663766Y-97122866D01*
X160571370Y-97321011D01*
X160571366Y-97321020D01*
X160514783Y-97532192D01*
X160514781Y-97532203D01*
X160498028Y-97723697D01*
X160489381Y-97745801D01*
X160257387Y-97745801D01*
X160252931Y-97737322D01*
X160250500Y-97712890D01*
X160250500Y-92453135D01*
X160500500Y-92453135D01*
X160500500Y-94046870D01*
X160500501Y-94046876D01*
X160506908Y-94106483D01*
X160557202Y-94241328D01*
X160557206Y-94241335D01*
X160643452Y-94356544D01*
X160643455Y-94356547D01*
X160758664Y-94442793D01*
X160758671Y-94442797D01*
X160893517Y-94493091D01*
X160893516Y-94493091D01*
X160900444Y-94493835D01*
X160953127Y-94499500D01*
X162546872Y-94499499D01*
X162606483Y-94493091D01*
X162741331Y-94442796D01*
X162856546Y-94356546D01*
X162942796Y-94241331D01*
X162993091Y-94106483D01*
X162999500Y-94046873D01*
X162999499Y-93249998D01*
X166995727Y-93249998D01*
X166995727Y-93250001D01*
X167014781Y-93467796D01*
X167014783Y-93467807D01*
X167071366Y-93678979D01*
X167071368Y-93678983D01*
X167071369Y-93678987D01*
X167163768Y-93877137D01*
X167163770Y-93877141D01*
X167289167Y-94056226D01*
X167289172Y-94056232D01*
X167443767Y-94210827D01*
X167443773Y-94210832D01*
X167622858Y-94336229D01*
X167622860Y-94336230D01*
X167622863Y-94336232D01*
X167821013Y-94428631D01*
X168032198Y-94485218D01*
X168187770Y-94498828D01*
X168249998Y-94504273D01*
X168250000Y-94504273D01*
X168250002Y-94504273D01*
X168304579Y-94499498D01*
X168467802Y-94485218D01*
X168678987Y-94428631D01*
X168877137Y-94336232D01*
X169056231Y-94210829D01*
X169210829Y-94056231D01*
X169336232Y-93877137D01*
X169428631Y-93678987D01*
X169485218Y-93467802D01*
X169504273Y-93250000D01*
X169504080Y-93247799D01*
X169485218Y-93032203D01*
X169485218Y-93032198D01*
X169428631Y-92821013D01*
X169336232Y-92622864D01*
X169217387Y-92453135D01*
X180500500Y-92453135D01*
X180500500Y-94046870D01*
X180500501Y-94046876D01*
X180506908Y-94106483D01*
X180557202Y-94241328D01*
X180557206Y-94241335D01*
X180643452Y-94356544D01*
X180643455Y-94356547D01*
X180758664Y-94442793D01*
X180758671Y-94442797D01*
X180893517Y-94493091D01*
X180893516Y-94493091D01*
X180900444Y-94493835D01*
X180953127Y-94499500D01*
X182546872Y-94499499D01*
X182606483Y-94493091D01*
X182741331Y-94442796D01*
X182856546Y-94356546D01*
X182942796Y-94241331D01*
X182993091Y-94106483D01*
X182999500Y-94046873D01*
X182999499Y-93249998D01*
X186995727Y-93249998D01*
X186995727Y-93250001D01*
X187014781Y-93467796D01*
X187014783Y-93467807D01*
X187071366Y-93678979D01*
X187071368Y-93678983D01*
X187071369Y-93678987D01*
X187163768Y-93877137D01*
X187163770Y-93877141D01*
X187289167Y-94056226D01*
X187289172Y-94056232D01*
X187443767Y-94210827D01*
X187443773Y-94210832D01*
X187622858Y-94336229D01*
X187622860Y-94336230D01*
X187622863Y-94336232D01*
X187821013Y-94428631D01*
X188032198Y-94485218D01*
X188187770Y-94498828D01*
X188249998Y-94504273D01*
X188250000Y-94504273D01*
X188250002Y-94504273D01*
X188304579Y-94499498D01*
X188467802Y-94485218D01*
X188678987Y-94428631D01*
X188877137Y-94336232D01*
X189056231Y-94210829D01*
X189210829Y-94056231D01*
X189336232Y-93877137D01*
X189428631Y-93678987D01*
X189485218Y-93467802D01*
X189501972Y-93276302D01*
X189510618Y-93254197D01*
X189506523Y-93247825D01*
X189501972Y-93223697D01*
X189485218Y-93032203D01*
X189485218Y-93032198D01*
X189428631Y-92821013D01*
X189336232Y-92622864D01*
X189210829Y-92443769D01*
X189056231Y-92289171D01*
X189056227Y-92289168D01*
X189056226Y-92289167D01*
X188877141Y-92163770D01*
X188877137Y-92163768D01*
X188877133Y-92163766D01*
X188678987Y-92071369D01*
X188678983Y-92071368D01*
X188678979Y-92071366D01*
X188467807Y-92014783D01*
X188467803Y-92014782D01*
X188467802Y-92014782D01*
X188467801Y-92014781D01*
X188467796Y-92014781D01*
X188250002Y-91995727D01*
X188249998Y-91995727D01*
X188032203Y-92014781D01*
X188032192Y-92014783D01*
X187821020Y-92071366D01*
X187821011Y-92071370D01*
X187622866Y-92163766D01*
X187443766Y-92289172D01*
X187289172Y-92443766D01*
X187163766Y-92622866D01*
X187071370Y-92821011D01*
X187071366Y-92821020D01*
X187014783Y-93032192D01*
X187014781Y-93032203D01*
X186995727Y-93249998D01*
X182999499Y-93249998D01*
X182999499Y-92453128D01*
X182993091Y-92393517D01*
X182954172Y-92289171D01*
X182942797Y-92258671D01*
X182942793Y-92258664D01*
X182856547Y-92143455D01*
X182856544Y-92143452D01*
X182741335Y-92057206D01*
X182741328Y-92057202D01*
X182606482Y-92006908D01*
X182606483Y-92006908D01*
X182546883Y-92000501D01*
X182546881Y-92000500D01*
X182546873Y-92000500D01*
X182546864Y-92000500D01*
X180953129Y-92000500D01*
X180953123Y-92000501D01*
X180893516Y-92006908D01*
X180758671Y-92057202D01*
X180758664Y-92057206D01*
X180643455Y-92143452D01*
X180643452Y-92143455D01*
X180557206Y-92258664D01*
X180557202Y-92258671D01*
X180506908Y-92393517D01*
X180501506Y-92443766D01*
X180500501Y-92453123D01*
X180500500Y-92453135D01*
X169217387Y-92453135D01*
X169210829Y-92443769D01*
X169056231Y-92289171D01*
X169056227Y-92289168D01*
X169056226Y-92289167D01*
X168877141Y-92163770D01*
X168877137Y-92163768D01*
X168877133Y-92163766D01*
X168678987Y-92071369D01*
X168678983Y-92071368D01*
X168678979Y-92071366D01*
X168467807Y-92014783D01*
X168467803Y-92014782D01*
X168467802Y-92014782D01*
X168467801Y-92014781D01*
X168467796Y-92014781D01*
X168250002Y-91995727D01*
X168249998Y-91995727D01*
X168032203Y-92014781D01*
X168032192Y-92014783D01*
X167821020Y-92071366D01*
X167821011Y-92071370D01*
X167622866Y-92163766D01*
X167443766Y-92289172D01*
X167289172Y-92443766D01*
X167163766Y-92622866D01*
X167071370Y-92821011D01*
X167071366Y-92821020D01*
X167014783Y-93032192D01*
X167014781Y-93032203D01*
X166995727Y-93249998D01*
X162999499Y-93249998D01*
X162999499Y-92453128D01*
X162993091Y-92393517D01*
X162954172Y-92289171D01*
X162942797Y-92258671D01*
X162942793Y-92258664D01*
X162856547Y-92143455D01*
X162856544Y-92143452D01*
X162741335Y-92057206D01*
X162741328Y-92057202D01*
X162606482Y-92006908D01*
X162606483Y-92006908D01*
X162546883Y-92000501D01*
X162546881Y-92000500D01*
X162546873Y-92000500D01*
X162546864Y-92000500D01*
X160953129Y-92000500D01*
X160953123Y-92000501D01*
X160893516Y-92006908D01*
X160758671Y-92057202D01*
X160758664Y-92057206D01*
X160643455Y-92143452D01*
X160643452Y-92143455D01*
X160557206Y-92258664D01*
X160557202Y-92258671D01*
X160506908Y-92393517D01*
X160501506Y-92443766D01*
X160500501Y-92453123D01*
X160500500Y-92453135D01*
X160250500Y-92453135D01*
X160250500Y-86749999D01*
X164569539Y-86749999D01*
X164569539Y-86750000D01*
X164589311Y-86912842D01*
X164589312Y-86912845D01*
X164647482Y-87066226D01*
X164740668Y-87201229D01*
X164740670Y-87201231D01*
X164740672Y-87201233D01*
X164863451Y-87310006D01*
X164863452Y-87310006D01*
X164863454Y-87310008D01*
X165008705Y-87386242D01*
X165008707Y-87386242D01*
X165008708Y-87386243D01*
X165167978Y-87425500D01*
X165167979Y-87425500D01*
X165332022Y-87425500D01*
X165491291Y-87386243D01*
X165491291Y-87386242D01*
X165491295Y-87386242D01*
X165636546Y-87310008D01*
X165759332Y-87201229D01*
X165852518Y-87066226D01*
X165910688Y-86912845D01*
X165930461Y-86750000D01*
X165930461Y-86749999D01*
X168069539Y-86749999D01*
X168069539Y-86750000D01*
X168089311Y-86912842D01*
X168089312Y-86912845D01*
X168147482Y-87066226D01*
X168240668Y-87201229D01*
X168240670Y-87201231D01*
X168240672Y-87201233D01*
X168363451Y-87310006D01*
X168363452Y-87310006D01*
X168363454Y-87310008D01*
X168508705Y-87386242D01*
X168508707Y-87386242D01*
X168508708Y-87386243D01*
X168667978Y-87425500D01*
X168667979Y-87425500D01*
X168832022Y-87425500D01*
X168991291Y-87386243D01*
X168991291Y-87386242D01*
X168991295Y-87386242D01*
X169136546Y-87310008D01*
X169259332Y-87201229D01*
X169352518Y-87066226D01*
X169410688Y-86912845D01*
X169430461Y-86750000D01*
X169410688Y-86587155D01*
X169352518Y-86433774D01*
X169259332Y-86298771D01*
X169259329Y-86298768D01*
X169259327Y-86298766D01*
X169136548Y-86189993D01*
X168991291Y-86113756D01*
X168832022Y-86074500D01*
X168832021Y-86074500D01*
X168667979Y-86074500D01*
X168667978Y-86074500D01*
X168508708Y-86113756D01*
X168363451Y-86189993D01*
X168240672Y-86298766D01*
X168240666Y-86298773D01*
X168147483Y-86433771D01*
X168089312Y-86587154D01*
X168089311Y-86587157D01*
X168069539Y-86749999D01*
X165930461Y-86749999D01*
X165910688Y-86587155D01*
X165852518Y-86433774D01*
X165759332Y-86298771D01*
X165759329Y-86298768D01*
X165759327Y-86298766D01*
X165636548Y-86189993D01*
X165491291Y-86113756D01*
X165332022Y-86074500D01*
X165332021Y-86074500D01*
X165167979Y-86074500D01*
X165167978Y-86074500D01*
X165008708Y-86113756D01*
X164863451Y-86189993D01*
X164740672Y-86298766D01*
X164740666Y-86298773D01*
X164647483Y-86433771D01*
X164589312Y-86587154D01*
X164589311Y-86587157D01*
X164569539Y-86749999D01*
X160250500Y-86749999D01*
X160250500Y-84999999D01*
X185069539Y-84999999D01*
X185069539Y-85000000D01*
X185089311Y-85162842D01*
X185089312Y-85162845D01*
X185147482Y-85316226D01*
X185240668Y-85451229D01*
X185240670Y-85451231D01*
X185240672Y-85451233D01*
X185363451Y-85560006D01*
X185363452Y-85560006D01*
X185363454Y-85560008D01*
X185508705Y-85636242D01*
X185508707Y-85636242D01*
X185508708Y-85636243D01*
X185667978Y-85675500D01*
X185667979Y-85675500D01*
X185832022Y-85675500D01*
X185991291Y-85636243D01*
X185991291Y-85636242D01*
X185991295Y-85636242D01*
X186136546Y-85560008D01*
X186259332Y-85451229D01*
X186352518Y-85316226D01*
X186410688Y-85162845D01*
X186430461Y-85000000D01*
X186410688Y-84837155D01*
X186352518Y-84683774D01*
X186259332Y-84548771D01*
X186259329Y-84548768D01*
X186259327Y-84548766D01*
X186136548Y-84439993D01*
X185991291Y-84363756D01*
X185832022Y-84324500D01*
X185832021Y-84324500D01*
X185667979Y-84324500D01*
X185667978Y-84324500D01*
X185508708Y-84363756D01*
X185363451Y-84439993D01*
X185240672Y-84548766D01*
X185240666Y-84548773D01*
X185147483Y-84683771D01*
X185089312Y-84837154D01*
X185089311Y-84837157D01*
X185069539Y-84999999D01*
X160250500Y-84999999D01*
X160250500Y-82249999D01*
X173569539Y-82249999D01*
X173569539Y-82250000D01*
X173589311Y-82412842D01*
X173589312Y-82412845D01*
X173647482Y-82566226D01*
X173740668Y-82701229D01*
X173740670Y-82701231D01*
X173740672Y-82701233D01*
X173863451Y-82810006D01*
X173863452Y-82810006D01*
X173863454Y-82810008D01*
X174008705Y-82886242D01*
X174008707Y-82886242D01*
X174008708Y-82886243D01*
X174167978Y-82925500D01*
X174167979Y-82925500D01*
X174332022Y-82925500D01*
X174491291Y-82886243D01*
X174491291Y-82886242D01*
X174491295Y-82886242D01*
X174636546Y-82810008D01*
X174759332Y-82701229D01*
X174852518Y-82566226D01*
X174910688Y-82412845D01*
X174930461Y-82250000D01*
X174910688Y-82087155D01*
X174852518Y-81933774D01*
X174759332Y-81798771D01*
X174759329Y-81798768D01*
X174759327Y-81798766D01*
X174636548Y-81689993D01*
X174491291Y-81613756D01*
X174332022Y-81574500D01*
X174332021Y-81574500D01*
X174167979Y-81574500D01*
X174167978Y-81574500D01*
X174008708Y-81613756D01*
X173863451Y-81689993D01*
X173740672Y-81798766D01*
X173740666Y-81798773D01*
X173647483Y-81933771D01*
X173589312Y-82087154D01*
X173589311Y-82087157D01*
X173569539Y-82249999D01*
X160250500Y-82249999D01*
X160250500Y-80999999D01*
X172319539Y-80999999D01*
X172319539Y-81000000D01*
X172339311Y-81162842D01*
X172339312Y-81162845D01*
X172397482Y-81316226D01*
X172490668Y-81451229D01*
X172490670Y-81451231D01*
X172490672Y-81451233D01*
X172613451Y-81560006D01*
X172613452Y-81560006D01*
X172613454Y-81560008D01*
X172758705Y-81636242D01*
X172758707Y-81636242D01*
X172758708Y-81636243D01*
X172917978Y-81675500D01*
X172917979Y-81675500D01*
X173082022Y-81675500D01*
X173241291Y-81636243D01*
X173241291Y-81636242D01*
X173241295Y-81636242D01*
X173386546Y-81560008D01*
X173509332Y-81451229D01*
X173602518Y-81316226D01*
X173660688Y-81162845D01*
X173680461Y-81000000D01*
X173660688Y-80837155D01*
X173602518Y-80683774D01*
X173509332Y-80548771D01*
X173509329Y-80548768D01*
X173509327Y-80548766D01*
X173386548Y-80439993D01*
X173241291Y-80363756D01*
X173082022Y-80324500D01*
X173082021Y-80324500D01*
X172917979Y-80324500D01*
X172917978Y-80324500D01*
X172758708Y-80363756D01*
X172613451Y-80439993D01*
X172490672Y-80548766D01*
X172490666Y-80548773D01*
X172397483Y-80683771D01*
X172339312Y-80837154D01*
X172339311Y-80837157D01*
X172319539Y-80999999D01*
X160250500Y-80999999D01*
X160250500Y-75749999D01*
X175069539Y-75749999D01*
X175069539Y-75750000D01*
X175089311Y-75912842D01*
X175089312Y-75912845D01*
X175147482Y-76066226D01*
X175240668Y-76201229D01*
X175240670Y-76201231D01*
X175240672Y-76201233D01*
X175363451Y-76310006D01*
X175363452Y-76310006D01*
X175363454Y-76310008D01*
X175508705Y-76386242D01*
X175508707Y-76386242D01*
X175508708Y-76386243D01*
X175667979Y-76425500D01*
X175675423Y-76426404D01*
X175675156Y-76428600D01*
X175731638Y-76445185D01*
X175746826Y-76456685D01*
X175863451Y-76560006D01*
X175863452Y-76560006D01*
X175863454Y-76560008D01*
X176008705Y-76636242D01*
X176008707Y-76636242D01*
X176008708Y-76636243D01*
X176167978Y-76675500D01*
X176167979Y-76675500D01*
X176332022Y-76675500D01*
X176363516Y-76667736D01*
X176491295Y-76636242D01*
X176537046Y-76612229D01*
X176605552Y-76598503D01*
X176670606Y-76623994D01*
X176676881Y-76629194D01*
X176727364Y-76673918D01*
X176872615Y-76750152D01*
X176872617Y-76750152D01*
X176872618Y-76750153D01*
X177031888Y-76789410D01*
X177031889Y-76789410D01*
X177195932Y-76789410D01*
X177235749Y-76779595D01*
X177355205Y-76750152D01*
X177500456Y-76673918D01*
X177559170Y-76621900D01*
X177622402Y-76592179D01*
X177691666Y-76601361D01*
X177699024Y-76604919D01*
X177745307Y-76629210D01*
X177758705Y-76636242D01*
X177865878Y-76662658D01*
X177917978Y-76675500D01*
X177917979Y-76675500D01*
X178082022Y-76675500D01*
X178241291Y-76636243D01*
X178241291Y-76636242D01*
X178241295Y-76636242D01*
X178386546Y-76560008D01*
X178509332Y-76451229D01*
X178602518Y-76316226D01*
X178660688Y-76162845D01*
X178680461Y-76000000D01*
X178660688Y-75837155D01*
X178602518Y-75683774D01*
X178509332Y-75548771D01*
X178509329Y-75548768D01*
X178509327Y-75548766D01*
X178386548Y-75439993D01*
X178241291Y-75363756D01*
X178082022Y-75324500D01*
X178082021Y-75324500D01*
X177917979Y-75324500D01*
X177917978Y-75324500D01*
X177758708Y-75363756D01*
X177613453Y-75439992D01*
X177554738Y-75492010D01*
X177491505Y-75521731D01*
X177422241Y-75512547D01*
X177414892Y-75508994D01*
X177355205Y-75477668D01*
X177355202Y-75477667D01*
X177195932Y-75438410D01*
X177195931Y-75438410D01*
X177031889Y-75438410D01*
X177031888Y-75438410D01*
X176872616Y-75477667D01*
X176826860Y-75501681D01*
X176758352Y-75515404D01*
X176693299Y-75489911D01*
X176687011Y-75484699D01*
X176636548Y-75439993D01*
X176491291Y-75363756D01*
X176332020Y-75324499D01*
X176324577Y-75323596D01*
X176324843Y-75321399D01*
X176268362Y-75304815D01*
X176253174Y-75293315D01*
X176136548Y-75189993D01*
X175991291Y-75113756D01*
X175832022Y-75074500D01*
X175832021Y-75074500D01*
X175667979Y-75074500D01*
X175667978Y-75074500D01*
X175508708Y-75113756D01*
X175363451Y-75189993D01*
X175240672Y-75298766D01*
X175240666Y-75298773D01*
X175147483Y-75433771D01*
X175089312Y-75587154D01*
X175089311Y-75587157D01*
X175069539Y-75749999D01*
X160250500Y-75749999D01*
X160250500Y-63489998D01*
X160769819Y-63489998D01*
X160769819Y-63490001D01*
X160788507Y-63703613D01*
X160788509Y-63703624D01*
X160844005Y-63910739D01*
X160844007Y-63910743D01*
X160844008Y-63910747D01*
X160889320Y-64007919D01*
X160934631Y-64105090D01*
X161057627Y-64280745D01*
X161209254Y-64432372D01*
X161384909Y-64555368D01*
X161582740Y-64647618D01*
X161635179Y-64693790D01*
X161654331Y-64760984D01*
X161634115Y-64827865D01*
X161582740Y-64872382D01*
X161384910Y-64964631D01*
X161384908Y-64964632D01*
X161209259Y-65087623D01*
X161209253Y-65087628D01*
X161057628Y-65239253D01*
X161057623Y-65239259D01*
X160934632Y-65414908D01*
X160934631Y-65414910D01*
X160844009Y-65609251D01*
X160844005Y-65609260D01*
X160788509Y-65816375D01*
X160788507Y-65816386D01*
X160769819Y-66029998D01*
X160769819Y-66030001D01*
X160788507Y-66243613D01*
X160788509Y-66243624D01*
X160844005Y-66450739D01*
X160844007Y-66450743D01*
X160844008Y-66450747D01*
X160844233Y-66451229D01*
X160934631Y-66645090D01*
X161057627Y-66820745D01*
X161209254Y-66972372D01*
X161384909Y-67095368D01*
X161582740Y-67187618D01*
X161635179Y-67233790D01*
X161654331Y-67300984D01*
X161634115Y-67367865D01*
X161582740Y-67412382D01*
X161384910Y-67504631D01*
X161384908Y-67504632D01*
X161209259Y-67627623D01*
X161209253Y-67627628D01*
X161057628Y-67779253D01*
X161057623Y-67779259D01*
X160934632Y-67954908D01*
X160934631Y-67954910D01*
X160844009Y-68149251D01*
X160844005Y-68149260D01*
X160788509Y-68356375D01*
X160788507Y-68356386D01*
X160769819Y-68569998D01*
X160769819Y-68570001D01*
X160788507Y-68783613D01*
X160788509Y-68783624D01*
X160844005Y-68990739D01*
X160844007Y-68990743D01*
X160844008Y-68990747D01*
X160876304Y-69060006D01*
X160934631Y-69185090D01*
X161014232Y-69298771D01*
X161057627Y-69360745D01*
X161209255Y-69512373D01*
X161316053Y-69587154D01*
X161384909Y-69635368D01*
X161582740Y-69727618D01*
X161635179Y-69773790D01*
X161654331Y-69840984D01*
X161634115Y-69907865D01*
X161582740Y-69952382D01*
X161384910Y-70044631D01*
X161384908Y-70044632D01*
X161209259Y-70167623D01*
X161209253Y-70167628D01*
X161057628Y-70319253D01*
X161057623Y-70319259D01*
X160934632Y-70494908D01*
X160934631Y-70494910D01*
X160844009Y-70689251D01*
X160844005Y-70689260D01*
X160788509Y-70896375D01*
X160788507Y-70896386D01*
X160769819Y-71109998D01*
X160769819Y-71110001D01*
X160788507Y-71323613D01*
X160788509Y-71323624D01*
X160844005Y-71530739D01*
X160844007Y-71530743D01*
X160844008Y-71530747D01*
X160889320Y-71627919D01*
X160934631Y-71725090D01*
X161013102Y-71837157D01*
X161057627Y-71900745D01*
X161209255Y-72052373D01*
X161384909Y-72175368D01*
X161412252Y-72188118D01*
X161464691Y-72234288D01*
X161483845Y-72301481D01*
X161463631Y-72368363D01*
X161410467Y-72413698D01*
X161359850Y-72424500D01*
X161227130Y-72424500D01*
X161227123Y-72424501D01*
X161167516Y-72430908D01*
X161032671Y-72481202D01*
X161032664Y-72481206D01*
X160917455Y-72567452D01*
X160917452Y-72567455D01*
X160831206Y-72682664D01*
X160831202Y-72682671D01*
X160780908Y-72817517D01*
X160775937Y-72863758D01*
X160774501Y-72877123D01*
X160774500Y-72877135D01*
X160774500Y-74422870D01*
X160774501Y-74422876D01*
X160780908Y-74482483D01*
X160831202Y-74617328D01*
X160831206Y-74617335D01*
X160917452Y-74732544D01*
X160917455Y-74732547D01*
X161032664Y-74818793D01*
X161032671Y-74818797D01*
X161167517Y-74869091D01*
X161167516Y-74869091D01*
X161174444Y-74869835D01*
X161227127Y-74875500D01*
X162772872Y-74875499D01*
X162832483Y-74869091D01*
X162967331Y-74818796D01*
X163082546Y-74732546D01*
X163168796Y-74617331D01*
X163219091Y-74482483D01*
X163225500Y-74422873D01*
X163225499Y-73499999D01*
X169569539Y-73499999D01*
X169569539Y-73500000D01*
X169589311Y-73662842D01*
X169589312Y-73662845D01*
X169647483Y-73816228D01*
X169695811Y-73886243D01*
X169740668Y-73951229D01*
X169740670Y-73951231D01*
X169740672Y-73951233D01*
X169863451Y-74060006D01*
X169863452Y-74060006D01*
X169863454Y-74060008D01*
X170008705Y-74136242D01*
X170008707Y-74136242D01*
X170008708Y-74136243D01*
X170167978Y-74175500D01*
X170167979Y-74175500D01*
X170332022Y-74175500D01*
X170491291Y-74136243D01*
X170491291Y-74136242D01*
X170491295Y-74136242D01*
X170636546Y-74060008D01*
X170759332Y-73951229D01*
X170852518Y-73816226D01*
X170910688Y-73662845D01*
X170930461Y-73500000D01*
X170930461Y-73499999D01*
X172569539Y-73499999D01*
X172569539Y-73500000D01*
X172589311Y-73662842D01*
X172589312Y-73662845D01*
X172647483Y-73816228D01*
X172695811Y-73886243D01*
X172740668Y-73951229D01*
X172740670Y-73951231D01*
X172740672Y-73951233D01*
X172863451Y-74060006D01*
X172863452Y-74060006D01*
X172863454Y-74060008D01*
X173008705Y-74136242D01*
X173008707Y-74136242D01*
X173008708Y-74136243D01*
X173167978Y-74175500D01*
X173167979Y-74175500D01*
X173332022Y-74175500D01*
X173491291Y-74136243D01*
X173491291Y-74136242D01*
X173491295Y-74136242D01*
X173636546Y-74060008D01*
X173667772Y-74032343D01*
X173731004Y-74002622D01*
X173800268Y-74011804D01*
X173832228Y-74032344D01*
X173863451Y-74060006D01*
X173863452Y-74060006D01*
X173863454Y-74060008D01*
X174008705Y-74136242D01*
X174008707Y-74136242D01*
X174008708Y-74136243D01*
X174167978Y-74175500D01*
X174167979Y-74175500D01*
X174332022Y-74175500D01*
X174491291Y-74136243D01*
X174491291Y-74136242D01*
X174491295Y-74136242D01*
X174636546Y-74060008D01*
X174759332Y-73951229D01*
X174772951Y-73931498D01*
X174827231Y-73887509D01*
X174896680Y-73879849D01*
X174959245Y-73910951D01*
X174977046Y-73931494D01*
X174990666Y-73951226D01*
X174990668Y-73951229D01*
X174990672Y-73951233D01*
X175113451Y-74060006D01*
X175113452Y-74060006D01*
X175113454Y-74060008D01*
X175258705Y-74136242D01*
X175258707Y-74136242D01*
X175258708Y-74136243D01*
X175417978Y-74175500D01*
X175417979Y-74175500D01*
X175582022Y-74175500D01*
X175741291Y-74136243D01*
X175741291Y-74136242D01*
X175741295Y-74136242D01*
X175886546Y-74060008D01*
X176009332Y-73951229D01*
X176102518Y-73816226D01*
X176160688Y-73662845D01*
X176180461Y-73500000D01*
X176160688Y-73337155D01*
X176127634Y-73249999D01*
X178819539Y-73249999D01*
X178819539Y-73250000D01*
X178839311Y-73412842D01*
X178839312Y-73412845D01*
X178897482Y-73566226D01*
X178990668Y-73701229D01*
X178990670Y-73701231D01*
X178990672Y-73701233D01*
X179113451Y-73810006D01*
X179113452Y-73810006D01*
X179113454Y-73810008D01*
X179258705Y-73886242D01*
X179258707Y-73886242D01*
X179258708Y-73886243D01*
X179417978Y-73925500D01*
X179417979Y-73925500D01*
X179582022Y-73925500D01*
X179741291Y-73886243D01*
X179741291Y-73886242D01*
X179741295Y-73886242D01*
X179886546Y-73810008D01*
X180009332Y-73701229D01*
X180102518Y-73566226D01*
X180160688Y-73412845D01*
X180180461Y-73250000D01*
X180179617Y-73243053D01*
X180163764Y-73112490D01*
X180160688Y-73087155D01*
X180102518Y-72933774D01*
X180009332Y-72798771D01*
X180009329Y-72798768D01*
X180009327Y-72798766D01*
X179886548Y-72689993D01*
X179741291Y-72613756D01*
X179582022Y-72574500D01*
X179582021Y-72574500D01*
X179417979Y-72574500D01*
X179417978Y-72574500D01*
X179258708Y-72613756D01*
X179113451Y-72689993D01*
X178990672Y-72798766D01*
X178990666Y-72798773D01*
X178897483Y-72933771D01*
X178839312Y-73087154D01*
X178839311Y-73087157D01*
X178819539Y-73249999D01*
X176127634Y-73249999D01*
X176102518Y-73183774D01*
X176009332Y-73048771D01*
X176009329Y-73048768D01*
X176009327Y-73048766D01*
X175886548Y-72939993D01*
X175838129Y-72914580D01*
X175741295Y-72863758D01*
X175741294Y-72863757D01*
X175741291Y-72863756D01*
X175582022Y-72824500D01*
X175582021Y-72824500D01*
X175417979Y-72824500D01*
X175417978Y-72824500D01*
X175258708Y-72863756D01*
X175113451Y-72939993D01*
X174990672Y-73048766D01*
X174990666Y-73048773D01*
X174977050Y-73068500D01*
X174922767Y-73112490D01*
X174853318Y-73120150D01*
X174790753Y-73089046D01*
X174772950Y-73068500D01*
X174759333Y-73048773D01*
X174759332Y-73048771D01*
X174759329Y-73048768D01*
X174759327Y-73048766D01*
X174636548Y-72939993D01*
X174588129Y-72914580D01*
X174491295Y-72863758D01*
X174491294Y-72863757D01*
X174491291Y-72863756D01*
X174332022Y-72824500D01*
X174332021Y-72824500D01*
X174167979Y-72824500D01*
X174167978Y-72824500D01*
X174008708Y-72863756D01*
X173863451Y-72939993D01*
X173832225Y-72967657D01*
X173768992Y-72997377D01*
X173699728Y-72988192D01*
X173667775Y-72967657D01*
X173636548Y-72939993D01*
X173588129Y-72914580D01*
X173491295Y-72863758D01*
X173491294Y-72863757D01*
X173491291Y-72863756D01*
X173332022Y-72824500D01*
X173332021Y-72824500D01*
X173167979Y-72824500D01*
X173167978Y-72824500D01*
X173008708Y-72863756D01*
X172863451Y-72939993D01*
X172740672Y-73048766D01*
X172740666Y-73048773D01*
X172647483Y-73183771D01*
X172589312Y-73337154D01*
X172589311Y-73337157D01*
X172569539Y-73499999D01*
X170930461Y-73499999D01*
X170910688Y-73337155D01*
X170852518Y-73183774D01*
X170759332Y-73048771D01*
X170759329Y-73048768D01*
X170759327Y-73048766D01*
X170636548Y-72939993D01*
X170588129Y-72914580D01*
X170491295Y-72863758D01*
X170491294Y-72863757D01*
X170491291Y-72863756D01*
X170332022Y-72824500D01*
X170332021Y-72824500D01*
X170167979Y-72824500D01*
X170167978Y-72824500D01*
X170008708Y-72863756D01*
X169863451Y-72939993D01*
X169740672Y-73048766D01*
X169740666Y-73048773D01*
X169647483Y-73183771D01*
X169589312Y-73337154D01*
X169589311Y-73337157D01*
X169569539Y-73499999D01*
X163225499Y-73499999D01*
X163225499Y-72877128D01*
X163219091Y-72817517D01*
X163218610Y-72816228D01*
X163168797Y-72682671D01*
X163168793Y-72682664D01*
X163082547Y-72567455D01*
X163082544Y-72567452D01*
X162967335Y-72481206D01*
X162967328Y-72481202D01*
X162832482Y-72430908D01*
X162832483Y-72430908D01*
X162772883Y-72424501D01*
X162772881Y-72424500D01*
X162772873Y-72424500D01*
X162772865Y-72424500D01*
X162640152Y-72424500D01*
X162573113Y-72404815D01*
X162527358Y-72352011D01*
X162517414Y-72282853D01*
X162546439Y-72219297D01*
X162587746Y-72188119D01*
X162615091Y-72175368D01*
X162790745Y-72052373D01*
X162843119Y-71999999D01*
X165319539Y-71999999D01*
X165319539Y-72000000D01*
X165339311Y-72162842D01*
X165339312Y-72162845D01*
X165397483Y-72316228D01*
X165458631Y-72404815D01*
X165490668Y-72451229D01*
X165490670Y-72451231D01*
X165490672Y-72451233D01*
X165613451Y-72560006D01*
X165613452Y-72560006D01*
X165613454Y-72560008D01*
X165758705Y-72636242D01*
X165758707Y-72636242D01*
X165758708Y-72636243D01*
X165917978Y-72675500D01*
X165917979Y-72675500D01*
X166082022Y-72675500D01*
X166241291Y-72636243D01*
X166241291Y-72636242D01*
X166241295Y-72636242D01*
X166386546Y-72560008D01*
X166509332Y-72451229D01*
X166602518Y-72316226D01*
X166660688Y-72162845D01*
X166680461Y-72000000D01*
X166660688Y-71837155D01*
X166627634Y-71749999D01*
X176819539Y-71749999D01*
X176819539Y-71750000D01*
X176839311Y-71912842D01*
X176839312Y-71912845D01*
X176897485Y-72066234D01*
X176898087Y-72067380D01*
X176898273Y-72068311D01*
X176900142Y-72073238D01*
X176899322Y-72073548D01*
X176911809Y-72135889D01*
X176899840Y-72176647D01*
X176900142Y-72176762D01*
X176898658Y-72180673D01*
X176898087Y-72182620D01*
X176897485Y-72183765D01*
X176839312Y-72337154D01*
X176839311Y-72337157D01*
X176819539Y-72499999D01*
X176819539Y-72500000D01*
X176839311Y-72662842D01*
X176839312Y-72662845D01*
X176897483Y-72816228D01*
X176976055Y-72930059D01*
X176990668Y-72951229D01*
X176990670Y-72951231D01*
X176990672Y-72951233D01*
X177113451Y-73060006D01*
X177113452Y-73060006D01*
X177113454Y-73060008D01*
X177258705Y-73136242D01*
X177258707Y-73136242D01*
X177258708Y-73136243D01*
X177417978Y-73175500D01*
X177417979Y-73175500D01*
X177582022Y-73175500D01*
X177741291Y-73136243D01*
X177741291Y-73136242D01*
X177741295Y-73136242D01*
X177886546Y-73060008D01*
X178009332Y-72951229D01*
X178102518Y-72816226D01*
X178160688Y-72662845D01*
X178180461Y-72500000D01*
X178160688Y-72337155D01*
X178102518Y-72183774D01*
X178102512Y-72183765D01*
X178101917Y-72182631D01*
X178101730Y-72181698D01*
X178099858Y-72176762D01*
X178100678Y-72176450D01*
X178088189Y-72114123D01*
X178100160Y-72073352D01*
X178099858Y-72073238D01*
X178101344Y-72069317D01*
X178101917Y-72067369D01*
X178102512Y-72066234D01*
X178102518Y-72066226D01*
X178160688Y-71912845D01*
X178180461Y-71750000D01*
X178177436Y-71725091D01*
X178160688Y-71587157D01*
X178160688Y-71587155D01*
X178102518Y-71433774D01*
X178009332Y-71298771D01*
X178009329Y-71298768D01*
X178009327Y-71298766D01*
X177886548Y-71189993D01*
X177741291Y-71113756D01*
X177582022Y-71074500D01*
X177582021Y-71074500D01*
X177417979Y-71074500D01*
X177417978Y-71074500D01*
X177258708Y-71113756D01*
X177113451Y-71189993D01*
X176990672Y-71298766D01*
X176990666Y-71298773D01*
X176897483Y-71433771D01*
X176839312Y-71587154D01*
X176839311Y-71587157D01*
X176819539Y-71749999D01*
X166627634Y-71749999D01*
X166602518Y-71683774D01*
X166509332Y-71548771D01*
X166509329Y-71548768D01*
X166509327Y-71548766D01*
X166386548Y-71439993D01*
X166241291Y-71363756D01*
X166082022Y-71324500D01*
X166082021Y-71324500D01*
X165917979Y-71324500D01*
X165917978Y-71324500D01*
X165758708Y-71363756D01*
X165613451Y-71439993D01*
X165490672Y-71548766D01*
X165490666Y-71548773D01*
X165397483Y-71683771D01*
X165339312Y-71837154D01*
X165339311Y-71837157D01*
X165319539Y-71999999D01*
X162843119Y-71999999D01*
X162942373Y-71900745D01*
X163065368Y-71725091D01*
X163155992Y-71530747D01*
X163211492Y-71323619D01*
X163230181Y-71110000D01*
X163211492Y-70896381D01*
X163155992Y-70689253D01*
X163067741Y-70499999D01*
X178819539Y-70499999D01*
X178819539Y-70500000D01*
X178839311Y-70662842D01*
X178839312Y-70662845D01*
X178853089Y-70699173D01*
X178897483Y-70816228D01*
X178990666Y-70951226D01*
X178990668Y-70951229D01*
X179045920Y-71000178D01*
X179083046Y-71059368D01*
X179086788Y-71107939D01*
X179069539Y-71249999D01*
X179069539Y-71250000D01*
X179089311Y-71412842D01*
X179089312Y-71412845D01*
X179134023Y-71530739D01*
X179147483Y-71566228D01*
X179226055Y-71680059D01*
X179240668Y-71701229D01*
X179240670Y-71701231D01*
X179240672Y-71701233D01*
X179363451Y-71810006D01*
X179363452Y-71810006D01*
X179363454Y-71810008D01*
X179508705Y-71886242D01*
X179508707Y-71886242D01*
X179508708Y-71886243D01*
X179667978Y-71925500D01*
X179667979Y-71925500D01*
X179832022Y-71925500D01*
X179991291Y-71886243D01*
X179991291Y-71886242D01*
X179991295Y-71886242D01*
X180136546Y-71810008D01*
X180259332Y-71701229D01*
X180352518Y-71566226D01*
X180410688Y-71412845D01*
X180430461Y-71250000D01*
X180410688Y-71087155D01*
X180352518Y-70933774D01*
X180259332Y-70798771D01*
X180204078Y-70749820D01*
X180166953Y-70690631D01*
X180163211Y-70642063D01*
X180180461Y-70500000D01*
X180160688Y-70337155D01*
X180102518Y-70183774D01*
X180009332Y-70048771D01*
X180009329Y-70048768D01*
X180009327Y-70048766D01*
X179886548Y-69939993D01*
X179784134Y-69886242D01*
X179741295Y-69863758D01*
X179741294Y-69863757D01*
X179741291Y-69863756D01*
X179582022Y-69824500D01*
X179582021Y-69824500D01*
X179417979Y-69824500D01*
X179417978Y-69824500D01*
X179258708Y-69863756D01*
X179113451Y-69939993D01*
X178990672Y-70048766D01*
X178990666Y-70048773D01*
X178897483Y-70183771D01*
X178839312Y-70337154D01*
X178839311Y-70337157D01*
X178819539Y-70499999D01*
X163067741Y-70499999D01*
X163065368Y-70494910D01*
X162942373Y-70319255D01*
X162790745Y-70167627D01*
X162615091Y-70044632D01*
X162420747Y-69954008D01*
X162420744Y-69954007D01*
X162417259Y-69952382D01*
X162364820Y-69906210D01*
X162345668Y-69839016D01*
X162365884Y-69772135D01*
X162391430Y-69749999D01*
X167819539Y-69749999D01*
X167819539Y-69750000D01*
X167839311Y-69912842D01*
X167839312Y-69912845D01*
X167897482Y-70066226D01*
X167990668Y-70201229D01*
X167990670Y-70201231D01*
X167990672Y-70201233D01*
X168113451Y-70310006D01*
X168113452Y-70310006D01*
X168113454Y-70310008D01*
X168258705Y-70386242D01*
X168258707Y-70386242D01*
X168258708Y-70386243D01*
X168417978Y-70425500D01*
X168417979Y-70425500D01*
X168582022Y-70425500D01*
X168741291Y-70386243D01*
X168741291Y-70386242D01*
X168741295Y-70386242D01*
X168886546Y-70310008D01*
X169009332Y-70201229D01*
X169102518Y-70066226D01*
X169160688Y-69912845D01*
X169180461Y-69750000D01*
X169160688Y-69587155D01*
X169102518Y-69433774D01*
X169009332Y-69298771D01*
X169009329Y-69298768D01*
X169009327Y-69298766D01*
X168886548Y-69189993D01*
X168741291Y-69113756D01*
X168582022Y-69074500D01*
X168582021Y-69074500D01*
X168417979Y-69074500D01*
X168417978Y-69074500D01*
X168258708Y-69113756D01*
X168113451Y-69189993D01*
X167990672Y-69298766D01*
X167990666Y-69298773D01*
X167897483Y-69433771D01*
X167839312Y-69587154D01*
X167839311Y-69587157D01*
X167819539Y-69749999D01*
X162391430Y-69749999D01*
X162417259Y-69727618D01*
X162420744Y-69725992D01*
X162420747Y-69725992D01*
X162615091Y-69635368D01*
X162790745Y-69512373D01*
X162942373Y-69360745D01*
X163065368Y-69185091D01*
X163155992Y-68990747D01*
X163211492Y-68783619D01*
X163230181Y-68570000D01*
X163211492Y-68356381D01*
X163155992Y-68149253D01*
X163086393Y-67999999D01*
X167569539Y-67999999D01*
X167569539Y-68000000D01*
X167589311Y-68162842D01*
X167589312Y-68162845D01*
X167647483Y-68316228D01*
X167675195Y-68356375D01*
X167740668Y-68451229D01*
X167740670Y-68451231D01*
X167740672Y-68451233D01*
X167863451Y-68560006D01*
X167863452Y-68560006D01*
X167863454Y-68560008D01*
X168008705Y-68636242D01*
X168008707Y-68636242D01*
X168008708Y-68636243D01*
X168167978Y-68675500D01*
X168167979Y-68675500D01*
X168332022Y-68675500D01*
X168491291Y-68636243D01*
X168491291Y-68636242D01*
X168491295Y-68636242D01*
X168636546Y-68560008D01*
X168704282Y-68499999D01*
X172819539Y-68499999D01*
X172819539Y-68500000D01*
X172839311Y-68662842D01*
X172839312Y-68662845D01*
X172897482Y-68816226D01*
X172990668Y-68951229D01*
X172990670Y-68951231D01*
X172990672Y-68951233D01*
X173113451Y-69060006D01*
X173113452Y-69060006D01*
X173113454Y-69060008D01*
X173258705Y-69136242D01*
X173258707Y-69136242D01*
X173258708Y-69136243D01*
X173417978Y-69175500D01*
X173417979Y-69175500D01*
X173582022Y-69175500D01*
X173741291Y-69136243D01*
X173741291Y-69136242D01*
X173741295Y-69136242D01*
X173886546Y-69060008D01*
X174009332Y-68951229D01*
X174102518Y-68816226D01*
X174160688Y-68662845D01*
X174180461Y-68500000D01*
X174180461Y-68499999D01*
X175819539Y-68499999D01*
X175819539Y-68500000D01*
X175839311Y-68662842D01*
X175839312Y-68662845D01*
X175897482Y-68816226D01*
X175990668Y-68951229D01*
X175990670Y-68951231D01*
X175990672Y-68951233D01*
X176113451Y-69060006D01*
X176113452Y-69060006D01*
X176113454Y-69060008D01*
X176258705Y-69136242D01*
X176258707Y-69136242D01*
X176258708Y-69136243D01*
X176417978Y-69175500D01*
X176417979Y-69175500D01*
X176582020Y-69175500D01*
X176582021Y-69175500D01*
X176667954Y-69154319D01*
X176737755Y-69157388D01*
X176794818Y-69197707D01*
X176820725Y-69259769D01*
X176839311Y-69412843D01*
X176839312Y-69412845D01*
X176897483Y-69566228D01*
X176945207Y-69635367D01*
X176990668Y-69701229D01*
X176990670Y-69701231D01*
X176990672Y-69701233D01*
X177113451Y-69810006D01*
X177113452Y-69810006D01*
X177113454Y-69810008D01*
X177258705Y-69886242D01*
X177258707Y-69886242D01*
X177258708Y-69886243D01*
X177417978Y-69925500D01*
X177417979Y-69925500D01*
X177582022Y-69925500D01*
X177741291Y-69886243D01*
X177741291Y-69886242D01*
X177741295Y-69886242D01*
X177886546Y-69810008D01*
X178009332Y-69701229D01*
X178102518Y-69566226D01*
X178160688Y-69412845D01*
X178180461Y-69250000D01*
X178160688Y-69087155D01*
X178102518Y-68933774D01*
X178009332Y-68798771D01*
X178009329Y-68798768D01*
X178009327Y-68798766D01*
X177886548Y-68689993D01*
X177741291Y-68613756D01*
X177582022Y-68574500D01*
X177582021Y-68574500D01*
X177417979Y-68574500D01*
X177417977Y-68574500D01*
X177332044Y-68595680D01*
X177262242Y-68592611D01*
X177205180Y-68552290D01*
X177179274Y-68490230D01*
X177160688Y-68337155D01*
X177102518Y-68183774D01*
X177009332Y-68048771D01*
X177009329Y-68048768D01*
X177009327Y-68048766D01*
X176886548Y-67939993D01*
X176741291Y-67863756D01*
X176582022Y-67824500D01*
X176582021Y-67824500D01*
X176417979Y-67824500D01*
X176417978Y-67824500D01*
X176258708Y-67863756D01*
X176113451Y-67939993D01*
X175990672Y-68048766D01*
X175990666Y-68048773D01*
X175897483Y-68183771D01*
X175839312Y-68337154D01*
X175839311Y-68337157D01*
X175819539Y-68499999D01*
X174180461Y-68499999D01*
X174160688Y-68337155D01*
X174102518Y-68183774D01*
X174009332Y-68048771D01*
X174009329Y-68048768D01*
X174009327Y-68048766D01*
X173886548Y-67939993D01*
X173741291Y-67863756D01*
X173582022Y-67824500D01*
X173582021Y-67824500D01*
X173417979Y-67824500D01*
X173417978Y-67824500D01*
X173258708Y-67863756D01*
X173113451Y-67939993D01*
X172990672Y-68048766D01*
X172990666Y-68048773D01*
X172897483Y-68183771D01*
X172839312Y-68337154D01*
X172839311Y-68337157D01*
X172819539Y-68499999D01*
X168704282Y-68499999D01*
X168759332Y-68451229D01*
X168852518Y-68316226D01*
X168910688Y-68162845D01*
X168930461Y-68000000D01*
X168910688Y-67837155D01*
X168852518Y-67683774D01*
X168759332Y-67548771D01*
X168759329Y-67548768D01*
X168759327Y-67548766D01*
X168636548Y-67439993D01*
X168491291Y-67363756D01*
X168332022Y-67324500D01*
X168332021Y-67324500D01*
X168167979Y-67324500D01*
X168167978Y-67324500D01*
X168008708Y-67363756D01*
X167863451Y-67439993D01*
X167740672Y-67548766D01*
X167740666Y-67548773D01*
X167647483Y-67683771D01*
X167589312Y-67837154D01*
X167589311Y-67837157D01*
X167569539Y-67999999D01*
X163086393Y-67999999D01*
X163065368Y-67954910D01*
X163054922Y-67939992D01*
X162942376Y-67779259D01*
X162942371Y-67779253D01*
X162790745Y-67627627D01*
X162678130Y-67548773D01*
X162615091Y-67504632D01*
X162420747Y-67414008D01*
X162420744Y-67414007D01*
X162417259Y-67412382D01*
X162364820Y-67366210D01*
X162345668Y-67299016D01*
X162365884Y-67232135D01*
X162417259Y-67187618D01*
X162420744Y-67185992D01*
X162420747Y-67185992D01*
X162615091Y-67095368D01*
X162790745Y-66972373D01*
X162942373Y-66820745D01*
X163065368Y-66645091D01*
X163155992Y-66450747D01*
X163211492Y-66243619D01*
X163230181Y-66030000D01*
X163211492Y-65816381D01*
X163155992Y-65609253D01*
X163065368Y-65414910D01*
X163029550Y-65363757D01*
X162949896Y-65249999D01*
X165319539Y-65249999D01*
X165319539Y-65250000D01*
X165339311Y-65412842D01*
X165339312Y-65412845D01*
X165397483Y-65566228D01*
X165427180Y-65609251D01*
X165490668Y-65701229D01*
X165490670Y-65701231D01*
X165490672Y-65701233D01*
X165613451Y-65810006D01*
X165613452Y-65810006D01*
X165613454Y-65810008D01*
X165758705Y-65886242D01*
X165758707Y-65886242D01*
X165758708Y-65886243D01*
X165917978Y-65925500D01*
X165917979Y-65925500D01*
X166082022Y-65925500D01*
X166241291Y-65886243D01*
X166241291Y-65886242D01*
X166241295Y-65886242D01*
X166386546Y-65810008D01*
X166454282Y-65749999D01*
X172319539Y-65749999D01*
X172319539Y-65750000D01*
X172339311Y-65912842D01*
X172339312Y-65912845D01*
X172383742Y-66029998D01*
X172397483Y-66066228D01*
X172448293Y-66139839D01*
X172490668Y-66201229D01*
X172490670Y-66201231D01*
X172490672Y-66201233D01*
X172613451Y-66310006D01*
X172613452Y-66310006D01*
X172613454Y-66310008D01*
X172758705Y-66386242D01*
X172758707Y-66386242D01*
X172758708Y-66386243D01*
X172917978Y-66425500D01*
X172917979Y-66425500D01*
X173082022Y-66425500D01*
X173241291Y-66386243D01*
X173241291Y-66386242D01*
X173241295Y-66386242D01*
X173386546Y-66310008D01*
X173461484Y-66243619D01*
X173514947Y-66196255D01*
X173516509Y-66198018D01*
X173565932Y-66167005D01*
X173629258Y-66165956D01*
X173649841Y-66171029D01*
X173667976Y-66175499D01*
X173667977Y-66175500D01*
X173667979Y-66175500D01*
X173832022Y-66175500D01*
X173911658Y-66155871D01*
X173991295Y-66136242D01*
X174067374Y-66096311D01*
X174135881Y-66082586D01*
X174182624Y-66096311D01*
X174258705Y-66136242D01*
X174273304Y-66139840D01*
X174333683Y-66174994D01*
X174359572Y-66216266D01*
X174397482Y-66316226D01*
X174490668Y-66451229D01*
X174490670Y-66451231D01*
X174490672Y-66451233D01*
X174613451Y-66560006D01*
X174613452Y-66560006D01*
X174613454Y-66560008D01*
X174758705Y-66636242D01*
X174758707Y-66636242D01*
X174758708Y-66636243D01*
X174917978Y-66675500D01*
X174917979Y-66675500D01*
X175082022Y-66675500D01*
X175241291Y-66636243D01*
X175241291Y-66636242D01*
X175241295Y-66636242D01*
X175386546Y-66560008D01*
X175509332Y-66451229D01*
X175602518Y-66316226D01*
X175660688Y-66162845D01*
X175680461Y-66000000D01*
X175660688Y-65837155D01*
X175602518Y-65683774D01*
X175509332Y-65548771D01*
X175509329Y-65548768D01*
X175509327Y-65548766D01*
X175386546Y-65439992D01*
X175386544Y-65439990D01*
X175241294Y-65363757D01*
X175226690Y-65360157D01*
X175166310Y-65324998D01*
X175140427Y-65283732D01*
X175127634Y-65249999D01*
X175102518Y-65183774D01*
X175009332Y-65048771D01*
X175009329Y-65048768D01*
X175009327Y-65048766D01*
X174886548Y-64939993D01*
X174817375Y-64903688D01*
X174741295Y-64863758D01*
X174741294Y-64863757D01*
X174741291Y-64863756D01*
X174582022Y-64824500D01*
X174582021Y-64824500D01*
X174417979Y-64824500D01*
X174417978Y-64824500D01*
X174258707Y-64863757D01*
X174182625Y-64903688D01*
X174114117Y-64917412D01*
X174067375Y-64903688D01*
X173991295Y-64863758D01*
X173991292Y-64863757D01*
X173832022Y-64824500D01*
X173832021Y-64824500D01*
X173667979Y-64824500D01*
X173667978Y-64824500D01*
X173508708Y-64863756D01*
X173363451Y-64939993D01*
X173235054Y-65053744D01*
X173233497Y-65051987D01*
X173184018Y-65083008D01*
X173120743Y-65084044D01*
X173082022Y-65074500D01*
X173082021Y-65074500D01*
X172917979Y-65074500D01*
X172917978Y-65074500D01*
X172758708Y-65113756D01*
X172613451Y-65189993D01*
X172490672Y-65298766D01*
X172490666Y-65298773D01*
X172397483Y-65433771D01*
X172339312Y-65587154D01*
X172339311Y-65587157D01*
X172319539Y-65749999D01*
X166454282Y-65749999D01*
X166509332Y-65701229D01*
X166602518Y-65566226D01*
X166660688Y-65412845D01*
X166680461Y-65250000D01*
X166660688Y-65087155D01*
X166602518Y-64933774D01*
X166509332Y-64798771D01*
X166509329Y-64798768D01*
X166509327Y-64798766D01*
X166386548Y-64689993D01*
X166338129Y-64664580D01*
X166241295Y-64613758D01*
X166241294Y-64613757D01*
X166241291Y-64613756D01*
X166082022Y-64574500D01*
X166082021Y-64574500D01*
X165917979Y-64574500D01*
X165917978Y-64574500D01*
X165758708Y-64613756D01*
X165613451Y-64689993D01*
X165490672Y-64798766D01*
X165490666Y-64798773D01*
X165397483Y-64933771D01*
X165339312Y-65087154D01*
X165339311Y-65087157D01*
X165319539Y-65249999D01*
X162949896Y-65249999D01*
X162942376Y-65239259D01*
X162942371Y-65239253D01*
X162790745Y-65087627D01*
X162735246Y-65048766D01*
X162615091Y-64964632D01*
X162420747Y-64874008D01*
X162420744Y-64874007D01*
X162417259Y-64872382D01*
X162364820Y-64826210D01*
X162345668Y-64759016D01*
X162365884Y-64692135D01*
X162417259Y-64647618D01*
X162420744Y-64645992D01*
X162420747Y-64645992D01*
X162615091Y-64555368D01*
X162790745Y-64432373D01*
X162942373Y-64280745D01*
X163065368Y-64105091D01*
X163155992Y-63910747D01*
X163211492Y-63703619D01*
X163230181Y-63490000D01*
X163211492Y-63276381D01*
X163155992Y-63069253D01*
X163065368Y-62874910D01*
X162942373Y-62699255D01*
X162790745Y-62547627D01*
X162615091Y-62424632D01*
X162615092Y-62424632D01*
X162615090Y-62424631D01*
X162416667Y-62332105D01*
X162364228Y-62285933D01*
X162345076Y-62218739D01*
X162365292Y-62151858D01*
X162416668Y-62107341D01*
X162614836Y-62014934D01*
X162614838Y-62014933D01*
X162671621Y-61975173D01*
X162170235Y-61473787D01*
X162212292Y-61462518D01*
X162337708Y-61390110D01*
X162440110Y-61287708D01*
X162512518Y-61162292D01*
X162523787Y-61120234D01*
X163025173Y-61621621D01*
X163064933Y-61564839D01*
X163155518Y-61370576D01*
X163155522Y-61370567D01*
X163210995Y-61163537D01*
X163210997Y-61163527D01*
X163229679Y-60950000D01*
X163229679Y-60949999D01*
X163210997Y-60736472D01*
X163210995Y-60736462D01*
X163155522Y-60529432D01*
X163155518Y-60529423D01*
X163064933Y-60335162D01*
X163025172Y-60278379D01*
X162523787Y-60779764D01*
X162512518Y-60737708D01*
X162440110Y-60612292D01*
X162337708Y-60509890D01*
X162212292Y-60437482D01*
X162170235Y-60426212D01*
X162671621Y-59924826D01*
X162671620Y-59924825D01*
X162614840Y-59885067D01*
X162614838Y-59885066D01*
X162420576Y-59794481D01*
X162420567Y-59794477D01*
X162213537Y-59739004D01*
X162213527Y-59739002D01*
X162000001Y-59720321D01*
X161999999Y-59720321D01*
X161786472Y-59739002D01*
X161786462Y-59739004D01*
X161579432Y-59794477D01*
X161579423Y-59794481D01*
X161385162Y-59885066D01*
X161328378Y-59924826D01*
X161829765Y-60426212D01*
X161787708Y-60437482D01*
X161662292Y-60509890D01*
X161559890Y-60612292D01*
X161487482Y-60737708D01*
X161476212Y-60779764D01*
X160974826Y-60278378D01*
X160935066Y-60335162D01*
X160844481Y-60529423D01*
X160844477Y-60529432D01*
X160789004Y-60736462D01*
X160789002Y-60736472D01*
X160770321Y-60949999D01*
X160770321Y-60950000D01*
X160789002Y-61163527D01*
X160789004Y-61163537D01*
X160844477Y-61370567D01*
X160844481Y-61370576D01*
X160935066Y-61564838D01*
X160935067Y-61564840D01*
X160974825Y-61621620D01*
X160974826Y-61621621D01*
X161476212Y-61120234D01*
X161487482Y-61162292D01*
X161559890Y-61287708D01*
X161662292Y-61390110D01*
X161787708Y-61462518D01*
X161829764Y-61473787D01*
X161328377Y-61975173D01*
X161385161Y-62014933D01*
X161385165Y-62014935D01*
X161583331Y-62107341D01*
X161635771Y-62153513D01*
X161654923Y-62220706D01*
X161634708Y-62287588D01*
X161583332Y-62332105D01*
X161384910Y-62424631D01*
X161384908Y-62424632D01*
X161209259Y-62547623D01*
X161209253Y-62547628D01*
X161057628Y-62699253D01*
X161057623Y-62699259D01*
X160934632Y-62874908D01*
X160934631Y-62874910D01*
X160844009Y-63069251D01*
X160844005Y-63069260D01*
X160788509Y-63276375D01*
X160788507Y-63276386D01*
X160769819Y-63489998D01*
X160250500Y-63489998D01*
X160250500Y-59499999D01*
X169657039Y-59499999D01*
X169657039Y-59500000D01*
X169676811Y-59662842D01*
X169676812Y-59662845D01*
X169705695Y-59739004D01*
X169734983Y-59816228D01*
X169809943Y-59924825D01*
X169828168Y-59951229D01*
X169828170Y-59951231D01*
X169828172Y-59951233D01*
X169950951Y-60060006D01*
X169950952Y-60060006D01*
X169950954Y-60060008D01*
X170096205Y-60136242D01*
X170096207Y-60136242D01*
X170096208Y-60136243D01*
X170255478Y-60175500D01*
X170255479Y-60175500D01*
X170419522Y-60175500D01*
X170578791Y-60136243D01*
X170578791Y-60136242D01*
X170578795Y-60136242D01*
X170724046Y-60060008D01*
X170791782Y-59999999D01*
X173319539Y-59999999D01*
X173319539Y-60000000D01*
X173339311Y-60162842D01*
X173339312Y-60162845D01*
X173383128Y-60278379D01*
X173397483Y-60316228D01*
X173455307Y-60400000D01*
X173490668Y-60451229D01*
X173490670Y-60451231D01*
X173490672Y-60451233D01*
X173613451Y-60560006D01*
X173613452Y-60560006D01*
X173613454Y-60560008D01*
X173758705Y-60636242D01*
X173758707Y-60636242D01*
X173758708Y-60636243D01*
X173917978Y-60675500D01*
X173917979Y-60675500D01*
X174082022Y-60675500D01*
X174241291Y-60636243D01*
X174241291Y-60636242D01*
X174241295Y-60636242D01*
X174386546Y-60560008D01*
X174509332Y-60451229D01*
X174602518Y-60316226D01*
X174660688Y-60162845D01*
X174680461Y-60000000D01*
X174660688Y-59837155D01*
X174602518Y-59683774D01*
X174509332Y-59548771D01*
X174509329Y-59548768D01*
X174509327Y-59548766D01*
X174386548Y-59439993D01*
X174241291Y-59363756D01*
X174082022Y-59324500D01*
X174082021Y-59324500D01*
X173917979Y-59324500D01*
X173917978Y-59324500D01*
X173758708Y-59363756D01*
X173613451Y-59439993D01*
X173490672Y-59548766D01*
X173490666Y-59548773D01*
X173397483Y-59683771D01*
X173339312Y-59837154D01*
X173339311Y-59837157D01*
X173319539Y-59999999D01*
X170791782Y-59999999D01*
X170846832Y-59951229D01*
X170940018Y-59816226D01*
X170998188Y-59662845D01*
X171017961Y-59500000D01*
X170998188Y-59337155D01*
X170940018Y-59183774D01*
X170846832Y-59048771D01*
X170846829Y-59048768D01*
X170846827Y-59048766D01*
X170724048Y-58939993D01*
X170578791Y-58863756D01*
X170419522Y-58824500D01*
X170419521Y-58824500D01*
X170255479Y-58824500D01*
X170255478Y-58824500D01*
X170096208Y-58863756D01*
X169950951Y-58939993D01*
X169828172Y-59048766D01*
X169828166Y-59048773D01*
X169734983Y-59183771D01*
X169676812Y-59337154D01*
X169676811Y-59337157D01*
X169657039Y-59499999D01*
X160250500Y-59499999D01*
X160250500Y-57249999D01*
X177069539Y-57249999D01*
X177069539Y-57250000D01*
X177089311Y-57412842D01*
X177089312Y-57412845D01*
X177147482Y-57566226D01*
X177240668Y-57701229D01*
X177240670Y-57701231D01*
X177240672Y-57701233D01*
X177363451Y-57810006D01*
X177363452Y-57810006D01*
X177363454Y-57810008D01*
X177508705Y-57886242D01*
X177508707Y-57886242D01*
X177508708Y-57886243D01*
X177667978Y-57925500D01*
X177667979Y-57925500D01*
X177832022Y-57925500D01*
X177991291Y-57886243D01*
X177991291Y-57886242D01*
X177991295Y-57886242D01*
X178136546Y-57810008D01*
X178259332Y-57701229D01*
X178352518Y-57566226D01*
X178410688Y-57412845D01*
X178430461Y-57250000D01*
X178410688Y-57087155D01*
X178352518Y-56933774D01*
X178259332Y-56798771D01*
X178259329Y-56798768D01*
X178259327Y-56798766D01*
X178136548Y-56689993D01*
X177991291Y-56613756D01*
X177832022Y-56574500D01*
X177832021Y-56574500D01*
X177667979Y-56574500D01*
X177667978Y-56574500D01*
X177508708Y-56613756D01*
X177363451Y-56689993D01*
X177240672Y-56798766D01*
X177240666Y-56798773D01*
X177147483Y-56933771D01*
X177089312Y-57087154D01*
X177089311Y-57087157D01*
X177069539Y-57249999D01*
X160250500Y-57249999D01*
X160250500Y-55999999D01*
X167319539Y-55999999D01*
X167319539Y-56000000D01*
X167339311Y-56162842D01*
X167339312Y-56162845D01*
X167397482Y-56316226D01*
X167490668Y-56451229D01*
X167490670Y-56451231D01*
X167490672Y-56451233D01*
X167613451Y-56560006D01*
X167613452Y-56560006D01*
X167613454Y-56560008D01*
X167758705Y-56636242D01*
X167758707Y-56636242D01*
X167758708Y-56636243D01*
X167917978Y-56675500D01*
X167917979Y-56675500D01*
X168082022Y-56675500D01*
X168241291Y-56636243D01*
X168241291Y-56636242D01*
X168241295Y-56636242D01*
X168386546Y-56560008D01*
X168509332Y-56451229D01*
X168602518Y-56316226D01*
X168660688Y-56162845D01*
X168680461Y-56000000D01*
X168680461Y-55999999D01*
X173319539Y-55999999D01*
X173319539Y-56000000D01*
X173339311Y-56162842D01*
X173339312Y-56162845D01*
X173397482Y-56316226D01*
X173490668Y-56451229D01*
X173490670Y-56451231D01*
X173490672Y-56451233D01*
X173613451Y-56560006D01*
X173613452Y-56560006D01*
X173613454Y-56560008D01*
X173758705Y-56636242D01*
X173758707Y-56636242D01*
X173758708Y-56636243D01*
X173917978Y-56675500D01*
X173917979Y-56675500D01*
X174082022Y-56675500D01*
X174241291Y-56636243D01*
X174241291Y-56636242D01*
X174241295Y-56636242D01*
X174386546Y-56560008D01*
X174509332Y-56451229D01*
X174602518Y-56316226D01*
X174660688Y-56162845D01*
X174680461Y-56000000D01*
X174660688Y-55837155D01*
X174602518Y-55683774D01*
X174509332Y-55548771D01*
X174509329Y-55548768D01*
X174509327Y-55548766D01*
X174386548Y-55439993D01*
X174241291Y-55363756D01*
X174082022Y-55324500D01*
X174082021Y-55324500D01*
X173917979Y-55324500D01*
X173917978Y-55324500D01*
X173758708Y-55363756D01*
X173613451Y-55439993D01*
X173490672Y-55548766D01*
X173490666Y-55548773D01*
X173397483Y-55683771D01*
X173339312Y-55837154D01*
X173339311Y-55837157D01*
X173319539Y-55999999D01*
X168680461Y-55999999D01*
X168660688Y-55837155D01*
X168602518Y-55683774D01*
X168509332Y-55548771D01*
X168509329Y-55548768D01*
X168509327Y-55548766D01*
X168386548Y-55439993D01*
X168241291Y-55363756D01*
X168082022Y-55324500D01*
X168082021Y-55324500D01*
X167917979Y-55324500D01*
X167917978Y-55324500D01*
X167758708Y-55363756D01*
X167613451Y-55439993D01*
X167490672Y-55548766D01*
X167490666Y-55548773D01*
X167397483Y-55683771D01*
X167339312Y-55837154D01*
X167339311Y-55837157D01*
X167319539Y-55999999D01*
X160250500Y-55999999D01*
X160250500Y-51749999D01*
X170819539Y-51749999D01*
X170819539Y-51750000D01*
X170839311Y-51912842D01*
X170839312Y-51912845D01*
X170897482Y-52066226D01*
X170990668Y-52201229D01*
X170990670Y-52201231D01*
X170990672Y-52201233D01*
X171113451Y-52310006D01*
X171113452Y-52310006D01*
X171113454Y-52310008D01*
X171258705Y-52386242D01*
X171258707Y-52386242D01*
X171258708Y-52386243D01*
X171417978Y-52425500D01*
X171417979Y-52425500D01*
X171582022Y-52425500D01*
X171596322Y-52421975D01*
X171666124Y-52425042D01*
X171723187Y-52465361D01*
X171749394Y-52530129D01*
X171750000Y-52542371D01*
X171750000Y-53000000D01*
X172624722Y-53000000D01*
X172580667Y-53076306D01*
X172550000Y-53190756D01*
X172550000Y-53309244D01*
X172580667Y-53423694D01*
X172624722Y-53500000D01*
X171750000Y-53500000D01*
X171750000Y-54098382D01*
X171780778Y-54292705D01*
X171841581Y-54479835D01*
X171930904Y-54655143D01*
X172046555Y-54814321D01*
X172185678Y-54953444D01*
X172344856Y-55069095D01*
X172520162Y-55158418D01*
X172707283Y-55219218D01*
X172750000Y-55225984D01*
X172750000Y-53625277D01*
X172826306Y-53669333D01*
X172940756Y-53700000D01*
X173059244Y-53700000D01*
X173173694Y-53669333D01*
X173250000Y-53625277D01*
X173250000Y-55225983D01*
X173292716Y-55219218D01*
X173479837Y-55158418D01*
X173655143Y-55069095D01*
X173814321Y-54953444D01*
X173814322Y-54953443D01*
X173911965Y-54855801D01*
X173973288Y-54822316D01*
X174042980Y-54827300D01*
X174087327Y-54855801D01*
X174185354Y-54953828D01*
X174344595Y-55069524D01*
X174427455Y-55111743D01*
X174519970Y-55158882D01*
X174519972Y-55158882D01*
X174519975Y-55158884D01*
X174620317Y-55191487D01*
X174707173Y-55219709D01*
X174901578Y-55250500D01*
X174901583Y-55250500D01*
X175098422Y-55250500D01*
X175292826Y-55219709D01*
X175294337Y-55219218D01*
X175480025Y-55158884D01*
X175655405Y-55069524D01*
X175814646Y-54953828D01*
X175912319Y-54856155D01*
X175973642Y-54822670D01*
X176043334Y-54827654D01*
X176087681Y-54856155D01*
X176185354Y-54953828D01*
X176344595Y-55069524D01*
X176427455Y-55111743D01*
X176519970Y-55158882D01*
X176519972Y-55158882D01*
X176519975Y-55158884D01*
X176620317Y-55191487D01*
X176707173Y-55219709D01*
X176901578Y-55250500D01*
X176901583Y-55250500D01*
X177098422Y-55250500D01*
X177292826Y-55219709D01*
X177294337Y-55219218D01*
X177480025Y-55158884D01*
X177655405Y-55069524D01*
X177814646Y-54953828D01*
X177953828Y-54814646D01*
X178069524Y-54655405D01*
X178158884Y-54480025D01*
X178219709Y-54292826D01*
X178219728Y-54292705D01*
X178250500Y-54098422D01*
X178250500Y-52401577D01*
X178219709Y-52207173D01*
X178191487Y-52120317D01*
X178158884Y-52019975D01*
X178158882Y-52019972D01*
X178158882Y-52019970D01*
X178069523Y-51844594D01*
X177953828Y-51685354D01*
X177814646Y-51546172D01*
X177655405Y-51430476D01*
X177480029Y-51341117D01*
X177292826Y-51280290D01*
X177098422Y-51249500D01*
X177098417Y-51249500D01*
X176901583Y-51249500D01*
X176901578Y-51249500D01*
X176707173Y-51280290D01*
X176519970Y-51341117D01*
X176344594Y-51430476D01*
X176332894Y-51438977D01*
X176185354Y-51546172D01*
X176185352Y-51546174D01*
X176185351Y-51546174D01*
X176087681Y-51643845D01*
X176026358Y-51677330D01*
X175956666Y-51672346D01*
X175912319Y-51643845D01*
X175814648Y-51546174D01*
X175814646Y-51546172D01*
X175655405Y-51430476D01*
X175480029Y-51341117D01*
X175292826Y-51280290D01*
X175098422Y-51249500D01*
X175098417Y-51249500D01*
X174901583Y-51249500D01*
X174901578Y-51249500D01*
X174707173Y-51280290D01*
X174519970Y-51341117D01*
X174344594Y-51430476D01*
X174332894Y-51438977D01*
X174185354Y-51546172D01*
X174185352Y-51546174D01*
X174185350Y-51546175D01*
X174087325Y-51644199D01*
X174026002Y-51677683D01*
X173956310Y-51672698D01*
X173911964Y-51644198D01*
X173814321Y-51546555D01*
X173655143Y-51430904D01*
X173479835Y-51341581D01*
X173292705Y-51280778D01*
X173250000Y-51274014D01*
X173250000Y-52874722D01*
X173173694Y-52830667D01*
X173059244Y-52800000D01*
X172940756Y-52800000D01*
X172826306Y-52830667D01*
X172750000Y-52874722D01*
X172750000Y-51274014D01*
X172749999Y-51274014D01*
X172707294Y-51280778D01*
X172520164Y-51341581D01*
X172344856Y-51430904D01*
X172284357Y-51474860D01*
X172218550Y-51498340D01*
X172150496Y-51482515D01*
X172108184Y-51438977D01*
X172106779Y-51439947D01*
X172090104Y-51415789D01*
X172009332Y-51298771D01*
X172009329Y-51298768D01*
X172009327Y-51298766D01*
X171886548Y-51189993D01*
X171741291Y-51113756D01*
X171582022Y-51074500D01*
X171582021Y-51074500D01*
X171417979Y-51074500D01*
X171417978Y-51074500D01*
X171258708Y-51113756D01*
X171113451Y-51189993D01*
X170990672Y-51298766D01*
X170990666Y-51298773D01*
X170897483Y-51433771D01*
X170839312Y-51587154D01*
X170839311Y-51587157D01*
X170819539Y-51749999D01*
X160250500Y-51749999D01*
X160250500Y-42189998D01*
X160769819Y-42189998D01*
X160769819Y-42190001D01*
X160788507Y-42403613D01*
X160788509Y-42403624D01*
X160844005Y-42610739D01*
X160844007Y-42610743D01*
X160844008Y-42610747D01*
X160889320Y-42707919D01*
X160934631Y-42805090D01*
X161057627Y-42980745D01*
X161209254Y-43132372D01*
X161384909Y-43255368D01*
X161582740Y-43347618D01*
X161635179Y-43393790D01*
X161654331Y-43460984D01*
X161634115Y-43527865D01*
X161582740Y-43572382D01*
X161384910Y-43664631D01*
X161384908Y-43664632D01*
X161209259Y-43787623D01*
X161209253Y-43787628D01*
X161057628Y-43939253D01*
X161057623Y-43939259D01*
X160934632Y-44114908D01*
X160934631Y-44114910D01*
X160844009Y-44309251D01*
X160844005Y-44309260D01*
X160788509Y-44516375D01*
X160788507Y-44516386D01*
X160769819Y-44729998D01*
X160769819Y-44730001D01*
X160788507Y-44943613D01*
X160788509Y-44943624D01*
X160844005Y-45150739D01*
X160844007Y-45150743D01*
X160844008Y-45150747D01*
X160868760Y-45203828D01*
X160934631Y-45345090D01*
X161057627Y-45520745D01*
X161209254Y-45672372D01*
X161384909Y-45795368D01*
X161582740Y-45887618D01*
X161635179Y-45933790D01*
X161654331Y-46000984D01*
X161634115Y-46067865D01*
X161582740Y-46112382D01*
X161384910Y-46204631D01*
X161384908Y-46204632D01*
X161209259Y-46327623D01*
X161209253Y-46327628D01*
X161057628Y-46479253D01*
X161057623Y-46479259D01*
X160934632Y-46654908D01*
X160934631Y-46654910D01*
X160844009Y-46849251D01*
X160844005Y-46849260D01*
X160788509Y-47056375D01*
X160788507Y-47056386D01*
X160769819Y-47269998D01*
X160769819Y-47270001D01*
X160788507Y-47483613D01*
X160788509Y-47483624D01*
X160844005Y-47690739D01*
X160844007Y-47690743D01*
X160844008Y-47690747D01*
X160889320Y-47787919D01*
X160934631Y-47885090D01*
X160934632Y-47885091D01*
X161057627Y-48060745D01*
X161209255Y-48212373D01*
X161384909Y-48335368D01*
X161412252Y-48348118D01*
X161464691Y-48394288D01*
X161483845Y-48461481D01*
X161463631Y-48528363D01*
X161410467Y-48573698D01*
X161359850Y-48584500D01*
X161227130Y-48584500D01*
X161227123Y-48584501D01*
X161167516Y-48590908D01*
X161032671Y-48641202D01*
X161032664Y-48641206D01*
X160917455Y-48727452D01*
X160917452Y-48727455D01*
X160831206Y-48842664D01*
X160831202Y-48842671D01*
X160780908Y-48977517D01*
X160774501Y-49037116D01*
X160774501Y-49037123D01*
X160774500Y-49037135D01*
X160774500Y-50582870D01*
X160774501Y-50582876D01*
X160780908Y-50642483D01*
X160831202Y-50777328D01*
X160831206Y-50777335D01*
X160917452Y-50892544D01*
X160917455Y-50892547D01*
X161032664Y-50978793D01*
X161032671Y-50978797D01*
X161167517Y-51029091D01*
X161167516Y-51029091D01*
X161174444Y-51029835D01*
X161227127Y-51035500D01*
X162772872Y-51035499D01*
X162832483Y-51029091D01*
X162967331Y-50978796D01*
X163082546Y-50892546D01*
X163168796Y-50777331D01*
X163219091Y-50642483D01*
X163225500Y-50582873D01*
X163225500Y-50146530D01*
X167949500Y-50146530D01*
X167949500Y-50353469D01*
X167989868Y-50556412D01*
X167989870Y-50556420D01*
X168000828Y-50582876D01*
X168069059Y-50747598D01*
X168126541Y-50833626D01*
X168184024Y-50919657D01*
X168330342Y-51065975D01*
X168330345Y-51065977D01*
X168502402Y-51180941D01*
X168693580Y-51260130D01*
X168887818Y-51298766D01*
X168896530Y-51300499D01*
X168896534Y-51300500D01*
X168896535Y-51300500D01*
X169103466Y-51300500D01*
X169103467Y-51300499D01*
X169306420Y-51260130D01*
X169497598Y-51180941D01*
X169669655Y-51065977D01*
X169815977Y-50919655D01*
X169930941Y-50747598D01*
X170010130Y-50556420D01*
X170050500Y-50353465D01*
X170050500Y-50146535D01*
X170010130Y-49943580D01*
X169930941Y-49752402D01*
X169815977Y-49580345D01*
X169815975Y-49580342D01*
X169669657Y-49434024D01*
X169583626Y-49376541D01*
X169497598Y-49319059D01*
X169306420Y-49239870D01*
X169306412Y-49239868D01*
X169103469Y-49199500D01*
X169103465Y-49199500D01*
X168896535Y-49199500D01*
X168896530Y-49199500D01*
X168693587Y-49239868D01*
X168693579Y-49239870D01*
X168502403Y-49319058D01*
X168330342Y-49434024D01*
X168184024Y-49580342D01*
X168069058Y-49752403D01*
X167989870Y-49943579D01*
X167989868Y-49943587D01*
X167949500Y-50146530D01*
X163225500Y-50146530D01*
X163225499Y-49037128D01*
X163219091Y-48977517D01*
X163209286Y-48951229D01*
X163168797Y-48842671D01*
X163168793Y-48842664D01*
X163082547Y-48727455D01*
X163082544Y-48727452D01*
X162967335Y-48641206D01*
X162967328Y-48641202D01*
X162832482Y-48590908D01*
X162832483Y-48590908D01*
X162772883Y-48584501D01*
X162772881Y-48584500D01*
X162772873Y-48584500D01*
X162772865Y-48584500D01*
X162640152Y-48584500D01*
X162573113Y-48564815D01*
X162527358Y-48512011D01*
X162525631Y-48499999D01*
X172569539Y-48499999D01*
X172569539Y-48500000D01*
X172589311Y-48662842D01*
X172589312Y-48662845D01*
X172613815Y-48727455D01*
X172647483Y-48816228D01*
X172726055Y-48930059D01*
X172740668Y-48951229D01*
X172740670Y-48951231D01*
X172740672Y-48951233D01*
X172863451Y-49060006D01*
X172863452Y-49060006D01*
X172863454Y-49060008D01*
X173008705Y-49136242D01*
X173008707Y-49136242D01*
X173008708Y-49136243D01*
X173167978Y-49175500D01*
X173167979Y-49175500D01*
X173332022Y-49175500D01*
X173491291Y-49136243D01*
X173491291Y-49136242D01*
X173491295Y-49136242D01*
X173636546Y-49060008D01*
X173759332Y-48951229D01*
X173852518Y-48816226D01*
X173910688Y-48662845D01*
X173930461Y-48500000D01*
X173910688Y-48337155D01*
X173852518Y-48183774D01*
X173759332Y-48048771D01*
X173759329Y-48048768D01*
X173759327Y-48048766D01*
X173636548Y-47939993D01*
X173531941Y-47885091D01*
X173491295Y-47863758D01*
X173491294Y-47863757D01*
X173491291Y-47863756D01*
X173332022Y-47824500D01*
X173332021Y-47824500D01*
X173167979Y-47824500D01*
X173167978Y-47824500D01*
X173008708Y-47863756D01*
X172863451Y-47939993D01*
X172740672Y-48048766D01*
X172740666Y-48048773D01*
X172647483Y-48183771D01*
X172589312Y-48337154D01*
X172589311Y-48337157D01*
X172569539Y-48499999D01*
X162525631Y-48499999D01*
X162517414Y-48442853D01*
X162546439Y-48379297D01*
X162587746Y-48348119D01*
X162615091Y-48335368D01*
X162790745Y-48212373D01*
X162942373Y-48060745D01*
X163065368Y-47885091D01*
X163155992Y-47690747D01*
X163211492Y-47483619D01*
X163230181Y-47270000D01*
X163211492Y-47056381D01*
X163155992Y-46849253D01*
X163065368Y-46654910D01*
X162975318Y-46526306D01*
X162942376Y-46479259D01*
X162942371Y-46479253D01*
X162790745Y-46327627D01*
X162790739Y-46327623D01*
X162615091Y-46204632D01*
X162420747Y-46114008D01*
X162420744Y-46114007D01*
X162417259Y-46112382D01*
X162364820Y-46066210D01*
X162345668Y-45999016D01*
X162365884Y-45932135D01*
X162417259Y-45887618D01*
X162420744Y-45885992D01*
X162420747Y-45885992D01*
X162615091Y-45795368D01*
X162790745Y-45672373D01*
X162942373Y-45520745D01*
X163065368Y-45345091D01*
X163155992Y-45150747D01*
X163211492Y-44943619D01*
X163227511Y-44760517D01*
X163230181Y-44730001D01*
X163230181Y-44729998D01*
X163224841Y-44668966D01*
X163211492Y-44516381D01*
X163155992Y-44309253D01*
X163065368Y-44114910D01*
X162954919Y-43957173D01*
X162942376Y-43939259D01*
X162942371Y-43939253D01*
X162790745Y-43787627D01*
X162765528Y-43769970D01*
X162615091Y-43664632D01*
X162420747Y-43574008D01*
X162420744Y-43574007D01*
X162417259Y-43572382D01*
X162364820Y-43526210D01*
X162345668Y-43459016D01*
X162365884Y-43392135D01*
X162417259Y-43347618D01*
X162420744Y-43345992D01*
X162420747Y-43345992D01*
X162615091Y-43255368D01*
X162790745Y-43132373D01*
X162942373Y-42980745D01*
X163065368Y-42805091D01*
X163155992Y-42610747D01*
X163209433Y-42411304D01*
X165849500Y-42411304D01*
X165849500Y-42588695D01*
X165884103Y-42762658D01*
X165884106Y-42762667D01*
X165951983Y-42926540D01*
X165951990Y-42926553D01*
X166050535Y-43074034D01*
X166050538Y-43074038D01*
X166175961Y-43199461D01*
X166175965Y-43199464D01*
X166323446Y-43298009D01*
X166323459Y-43298016D01*
X166419221Y-43337681D01*
X166487334Y-43365894D01*
X166487336Y-43365894D01*
X166487341Y-43365896D01*
X166661304Y-43400499D01*
X166661307Y-43400500D01*
X166661309Y-43400500D01*
X166838693Y-43400500D01*
X166838694Y-43400499D01*
X166896682Y-43388964D01*
X167012658Y-43365896D01*
X167012661Y-43365894D01*
X167012666Y-43365894D01*
X167176547Y-43298013D01*
X167324035Y-43199464D01*
X167449464Y-43074035D01*
X167548013Y-42926547D01*
X167615894Y-42762666D01*
X167621696Y-42733501D01*
X167638964Y-42646682D01*
X167650500Y-42588691D01*
X167650500Y-42421153D01*
X169949500Y-42421153D01*
X169949500Y-42578846D01*
X169980261Y-42733489D01*
X169980264Y-42733501D01*
X170040602Y-42879172D01*
X170040609Y-42879185D01*
X170128210Y-43010288D01*
X170128213Y-43010292D01*
X170239707Y-43121786D01*
X170239711Y-43121789D01*
X170370814Y-43209390D01*
X170370827Y-43209397D01*
X170516498Y-43269735D01*
X170516503Y-43269737D01*
X170649400Y-43296172D01*
X170671153Y-43300499D01*
X170671156Y-43300500D01*
X170671158Y-43300500D01*
X170828844Y-43300500D01*
X170828845Y-43300499D01*
X170983497Y-43269737D01*
X171129179Y-43209394D01*
X171260289Y-43121789D01*
X171371789Y-43010289D01*
X171459394Y-42879179D01*
X171519737Y-42733497D01*
X171550500Y-42578842D01*
X171550500Y-42421158D01*
X171550500Y-42421155D01*
X171550499Y-42421153D01*
X171519738Y-42266510D01*
X171519737Y-42266503D01*
X171472136Y-42151583D01*
X171472134Y-42151577D01*
X181999500Y-42151577D01*
X181999500Y-42348422D01*
X182030290Y-42542826D01*
X182091117Y-42730029D01*
X182167110Y-42879172D01*
X182180476Y-42905405D01*
X182296172Y-43064646D01*
X182296174Y-43064648D01*
X182393845Y-43162319D01*
X182427330Y-43223642D01*
X182422346Y-43293334D01*
X182393845Y-43337681D01*
X182296174Y-43435351D01*
X182296174Y-43435352D01*
X182296172Y-43435354D01*
X182277551Y-43460984D01*
X182180476Y-43594594D01*
X182091117Y-43769970D01*
X182030290Y-43957173D01*
X181999500Y-44151577D01*
X181999500Y-44348422D01*
X182030290Y-44542826D01*
X182091117Y-44730029D01*
X182180476Y-44905405D01*
X182296172Y-45064646D01*
X182296174Y-45064648D01*
X182394198Y-45162672D01*
X182427683Y-45223995D01*
X182422699Y-45293687D01*
X182394199Y-45338033D01*
X182296557Y-45435676D01*
X182296555Y-45435678D01*
X182180904Y-45594856D01*
X182091581Y-45770162D01*
X182030781Y-45957283D01*
X182024016Y-46000000D01*
X183624722Y-46000000D01*
X183580667Y-46076306D01*
X183550000Y-46190756D01*
X183550000Y-46309244D01*
X183580667Y-46423694D01*
X183624722Y-46500000D01*
X182024016Y-46500000D01*
X182030781Y-46542716D01*
X182091581Y-46729837D01*
X182180904Y-46905143D01*
X182296555Y-47064321D01*
X182435678Y-47203444D01*
X182594856Y-47319095D01*
X182770164Y-47408418D01*
X182957294Y-47469221D01*
X183151618Y-47500000D01*
X183750000Y-47500000D01*
X183750000Y-46625277D01*
X183826306Y-46669333D01*
X183940756Y-46700000D01*
X184059244Y-46700000D01*
X184173694Y-46669333D01*
X184250000Y-46625277D01*
X184250000Y-47500000D01*
X184848382Y-47500000D01*
X185042705Y-47469221D01*
X185229835Y-47408418D01*
X185405143Y-47319095D01*
X185564321Y-47203444D01*
X185703444Y-47064321D01*
X185819095Y-46905143D01*
X185908418Y-46729837D01*
X185969218Y-46542716D01*
X185975984Y-46500000D01*
X184375278Y-46500000D01*
X184419333Y-46423694D01*
X184450000Y-46309244D01*
X184450000Y-46190756D01*
X184419333Y-46076306D01*
X184375278Y-46000000D01*
X185975984Y-46000000D01*
X185969218Y-45957283D01*
X185908418Y-45770162D01*
X185819095Y-45594856D01*
X185703444Y-45435678D01*
X185605801Y-45338035D01*
X185572316Y-45276712D01*
X185577300Y-45207020D01*
X185605801Y-45162673D01*
X185617735Y-45150739D01*
X185703828Y-45064646D01*
X185819524Y-44905405D01*
X185908884Y-44730025D01*
X185969709Y-44542826D01*
X185973897Y-44516386D01*
X186000500Y-44348422D01*
X186000500Y-44151577D01*
X185969709Y-43957173D01*
X185914620Y-43787628D01*
X185908884Y-43769975D01*
X185908882Y-43769972D01*
X185908882Y-43769970D01*
X185819523Y-43594594D01*
X185703828Y-43435354D01*
X185606155Y-43337681D01*
X185572670Y-43276358D01*
X185577654Y-43206666D01*
X185606155Y-43162319D01*
X185646688Y-43121786D01*
X185703828Y-43064646D01*
X185819524Y-42905405D01*
X185908884Y-42730025D01*
X185969709Y-42542826D01*
X186000500Y-42348422D01*
X186000500Y-42189998D01*
X186769819Y-42189998D01*
X186769819Y-42190001D01*
X186788507Y-42403613D01*
X186788509Y-42403624D01*
X186844005Y-42610739D01*
X186844007Y-42610743D01*
X186844008Y-42610747D01*
X186889320Y-42707919D01*
X186934631Y-42805090D01*
X187057627Y-42980745D01*
X187209254Y-43132372D01*
X187384909Y-43255368D01*
X187582740Y-43347618D01*
X187635179Y-43393790D01*
X187654331Y-43460984D01*
X187634115Y-43527865D01*
X187582740Y-43572382D01*
X187384910Y-43664631D01*
X187384908Y-43664632D01*
X187209259Y-43787623D01*
X187209253Y-43787628D01*
X187057628Y-43939253D01*
X187057623Y-43939259D01*
X186934632Y-44114908D01*
X186934631Y-44114910D01*
X186844009Y-44309251D01*
X186844005Y-44309260D01*
X186788509Y-44516375D01*
X186788507Y-44516386D01*
X186769819Y-44729998D01*
X186769819Y-44730001D01*
X186788507Y-44943613D01*
X186788509Y-44943624D01*
X186844005Y-45150739D01*
X186844007Y-45150743D01*
X186844008Y-45150747D01*
X186868760Y-45203828D01*
X186934631Y-45345090D01*
X187057627Y-45520745D01*
X187209254Y-45672372D01*
X187384909Y-45795368D01*
X187582740Y-45887618D01*
X187635179Y-45933790D01*
X187654331Y-46000984D01*
X187634115Y-46067865D01*
X187582740Y-46112382D01*
X187384910Y-46204631D01*
X187384908Y-46204632D01*
X187209259Y-46327623D01*
X187209253Y-46327628D01*
X187057628Y-46479253D01*
X187057623Y-46479259D01*
X186934632Y-46654908D01*
X186934631Y-46654910D01*
X186844009Y-46849251D01*
X186844005Y-46849260D01*
X186788509Y-47056375D01*
X186788507Y-47056386D01*
X186769819Y-47269998D01*
X186769819Y-47270001D01*
X186788507Y-47483613D01*
X186788509Y-47483624D01*
X186844005Y-47690739D01*
X186844007Y-47690743D01*
X186844008Y-47690747D01*
X186889320Y-47787919D01*
X186934631Y-47885090D01*
X186934632Y-47885091D01*
X187057627Y-48060745D01*
X187209255Y-48212373D01*
X187384909Y-48335368D01*
X187412252Y-48348118D01*
X187464691Y-48394288D01*
X187483845Y-48461481D01*
X187463631Y-48528363D01*
X187410467Y-48573698D01*
X187359850Y-48584500D01*
X187227130Y-48584500D01*
X187227123Y-48584501D01*
X187167516Y-48590908D01*
X187032671Y-48641202D01*
X187032664Y-48641206D01*
X186917455Y-48727452D01*
X186917452Y-48727455D01*
X186831206Y-48842664D01*
X186831202Y-48842671D01*
X186780908Y-48977517D01*
X186774501Y-49037116D01*
X186774501Y-49037123D01*
X186774500Y-49037135D01*
X186774500Y-50582870D01*
X186774501Y-50582876D01*
X186780908Y-50642483D01*
X186831202Y-50777328D01*
X186831206Y-50777335D01*
X186917452Y-50892544D01*
X186917455Y-50892547D01*
X187032664Y-50978793D01*
X187032671Y-50978797D01*
X187167517Y-51029091D01*
X187167516Y-51029091D01*
X187174444Y-51029835D01*
X187227127Y-51035500D01*
X188772872Y-51035499D01*
X188832483Y-51029091D01*
X188967331Y-50978796D01*
X189082546Y-50892546D01*
X189168796Y-50777331D01*
X189219091Y-50642483D01*
X189225500Y-50582873D01*
X189225499Y-49037128D01*
X189219091Y-48977517D01*
X189209286Y-48951229D01*
X189168797Y-48842671D01*
X189168793Y-48842664D01*
X189082547Y-48727455D01*
X189082544Y-48727452D01*
X188967335Y-48641206D01*
X188967328Y-48641202D01*
X188832482Y-48590908D01*
X188832483Y-48590908D01*
X188772883Y-48584501D01*
X188772881Y-48584500D01*
X188772873Y-48584500D01*
X188772865Y-48584500D01*
X188640152Y-48584500D01*
X188573113Y-48564815D01*
X188527358Y-48512011D01*
X188517414Y-48442853D01*
X188546439Y-48379297D01*
X188587746Y-48348119D01*
X188615091Y-48335368D01*
X188790745Y-48212373D01*
X188942373Y-48060745D01*
X189065368Y-47885091D01*
X189155992Y-47690747D01*
X189211492Y-47483619D01*
X189230181Y-47270000D01*
X189211492Y-47056381D01*
X189155992Y-46849253D01*
X189065368Y-46654910D01*
X188975318Y-46526306D01*
X188942376Y-46479259D01*
X188942371Y-46479253D01*
X188790745Y-46327627D01*
X188790739Y-46327623D01*
X188615091Y-46204632D01*
X188420747Y-46114008D01*
X188420744Y-46114007D01*
X188417259Y-46112382D01*
X188364820Y-46066210D01*
X188345668Y-45999016D01*
X188365884Y-45932135D01*
X188417259Y-45887618D01*
X188420744Y-45885992D01*
X188420747Y-45885992D01*
X188615091Y-45795368D01*
X188790745Y-45672373D01*
X188942373Y-45520745D01*
X189065368Y-45345091D01*
X189155992Y-45150747D01*
X189211492Y-44943619D01*
X189227511Y-44760517D01*
X189230181Y-44730001D01*
X189230181Y-44729998D01*
X189224841Y-44668966D01*
X189211492Y-44516381D01*
X189155992Y-44309253D01*
X189065368Y-44114910D01*
X188954919Y-43957173D01*
X188942376Y-43939259D01*
X188942371Y-43939253D01*
X188790745Y-43787627D01*
X188765528Y-43769970D01*
X188615091Y-43664632D01*
X188420747Y-43574008D01*
X188420744Y-43574007D01*
X188417259Y-43572382D01*
X188364820Y-43526210D01*
X188345668Y-43459016D01*
X188365884Y-43392135D01*
X188417259Y-43347618D01*
X188420744Y-43345992D01*
X188420747Y-43345992D01*
X188615091Y-43255368D01*
X188790745Y-43132373D01*
X188942373Y-42980745D01*
X189065368Y-42805091D01*
X189155992Y-42610747D01*
X189211492Y-42403619D01*
X189230181Y-42190000D01*
X189226819Y-42151577D01*
X189219985Y-42073459D01*
X189211492Y-41976381D01*
X189161714Y-41790606D01*
X189155994Y-41769260D01*
X189155993Y-41769259D01*
X189155992Y-41769253D01*
X189065368Y-41574910D01*
X188967648Y-41435352D01*
X188942376Y-41399259D01*
X188942371Y-41399253D01*
X188790745Y-41247627D01*
X188615090Y-41124631D01*
X188517919Y-41079320D01*
X188420747Y-41034008D01*
X188420743Y-41034007D01*
X188420739Y-41034005D01*
X188213624Y-40978509D01*
X188213620Y-40978508D01*
X188213619Y-40978508D01*
X188213618Y-40978507D01*
X188213613Y-40978507D01*
X188000002Y-40959819D01*
X187999998Y-40959819D01*
X187786386Y-40978507D01*
X187786375Y-40978509D01*
X187579260Y-41034005D01*
X187579251Y-41034009D01*
X187384910Y-41124631D01*
X187384908Y-41124632D01*
X187209259Y-41247623D01*
X187209253Y-41247628D01*
X187057628Y-41399253D01*
X187057623Y-41399259D01*
X186934632Y-41574908D01*
X186934631Y-41574910D01*
X186844009Y-41769251D01*
X186844005Y-41769260D01*
X186788509Y-41976375D01*
X186788507Y-41976386D01*
X186769819Y-42189998D01*
X186000500Y-42189998D01*
X186000500Y-42151577D01*
X185969709Y-41957173D01*
X185941487Y-41870317D01*
X185908884Y-41769975D01*
X185908882Y-41769972D01*
X185908882Y-41769970D01*
X185861743Y-41677455D01*
X185819524Y-41594595D01*
X185703828Y-41435354D01*
X185564646Y-41296172D01*
X185405405Y-41180476D01*
X185230029Y-41091117D01*
X185042826Y-41030290D01*
X184848422Y-40999500D01*
X184848417Y-40999500D01*
X183151583Y-40999500D01*
X183151578Y-40999500D01*
X182957173Y-41030290D01*
X182769970Y-41091117D01*
X182594594Y-41180476D01*
X182503741Y-41246485D01*
X182435354Y-41296172D01*
X182435352Y-41296174D01*
X182435351Y-41296174D01*
X182296174Y-41435351D01*
X182296174Y-41435352D01*
X182296172Y-41435354D01*
X182246485Y-41503741D01*
X182180476Y-41594594D01*
X182091117Y-41769970D01*
X182030290Y-41957173D01*
X181999500Y-42151577D01*
X171472134Y-42151577D01*
X171459397Y-42120827D01*
X171459390Y-42120814D01*
X171371789Y-41989711D01*
X171371786Y-41989707D01*
X171260292Y-41878213D01*
X171260288Y-41878210D01*
X171129185Y-41790609D01*
X171129172Y-41790602D01*
X170983501Y-41730264D01*
X170983489Y-41730261D01*
X170828845Y-41699500D01*
X170828842Y-41699500D01*
X170671158Y-41699500D01*
X170671155Y-41699500D01*
X170516510Y-41730261D01*
X170516498Y-41730264D01*
X170370827Y-41790602D01*
X170370814Y-41790609D01*
X170239711Y-41878210D01*
X170239707Y-41878213D01*
X170128213Y-41989707D01*
X170128210Y-41989711D01*
X170040609Y-42120814D01*
X170040602Y-42120827D01*
X169980264Y-42266498D01*
X169980261Y-42266510D01*
X169949500Y-42421153D01*
X167650500Y-42421153D01*
X167650500Y-42411309D01*
X167650500Y-42411306D01*
X167650499Y-42411304D01*
X167615896Y-42237341D01*
X167615893Y-42237332D01*
X167548016Y-42073459D01*
X167548009Y-42073446D01*
X167449464Y-41925965D01*
X167449461Y-41925961D01*
X167324038Y-41800538D01*
X167324034Y-41800535D01*
X167176553Y-41701990D01*
X167176540Y-41701983D01*
X167012667Y-41634106D01*
X167012658Y-41634103D01*
X166838694Y-41599500D01*
X166838691Y-41599500D01*
X166661309Y-41599500D01*
X166661306Y-41599500D01*
X166487341Y-41634103D01*
X166487332Y-41634106D01*
X166323459Y-41701983D01*
X166323446Y-41701990D01*
X166175965Y-41800535D01*
X166175961Y-41800538D01*
X166050538Y-41925961D01*
X166050535Y-41925965D01*
X165951990Y-42073446D01*
X165951983Y-42073459D01*
X165884106Y-42237332D01*
X165884103Y-42237341D01*
X165849500Y-42411304D01*
X163209433Y-42411304D01*
X163211492Y-42403619D01*
X163230181Y-42190000D01*
X163226819Y-42151577D01*
X163219985Y-42073459D01*
X163211492Y-41976381D01*
X163161714Y-41790606D01*
X163155994Y-41769260D01*
X163155993Y-41769259D01*
X163155992Y-41769253D01*
X163065368Y-41574910D01*
X162967648Y-41435352D01*
X162942376Y-41399259D01*
X162942371Y-41399253D01*
X162790745Y-41247627D01*
X162615090Y-41124631D01*
X162517919Y-41079320D01*
X162420747Y-41034008D01*
X162420743Y-41034007D01*
X162420739Y-41034005D01*
X162213624Y-40978509D01*
X162213620Y-40978508D01*
X162213619Y-40978508D01*
X162213618Y-40978507D01*
X162213613Y-40978507D01*
X162000002Y-40959819D01*
X161999998Y-40959819D01*
X161786386Y-40978507D01*
X161786375Y-40978509D01*
X161579260Y-41034005D01*
X161579251Y-41034009D01*
X161384910Y-41124631D01*
X161384908Y-41124632D01*
X161209259Y-41247623D01*
X161209253Y-41247628D01*
X161057628Y-41399253D01*
X161057623Y-41399259D01*
X160934632Y-41574908D01*
X160934631Y-41574910D01*
X160844009Y-41769251D01*
X160844005Y-41769260D01*
X160788509Y-41976375D01*
X160788507Y-41976386D01*
X160769819Y-42189998D01*
X160250500Y-42189998D01*
X160250500Y-37500000D01*
X160744473Y-37500000D01*
X160764563Y-37832136D01*
X160764563Y-37832141D01*
X160764564Y-37832142D01*
X160824544Y-38159441D01*
X160824545Y-38159445D01*
X160824546Y-38159449D01*
X160923530Y-38477104D01*
X160923534Y-38477116D01*
X160923537Y-38477123D01*
X161060102Y-38780557D01*
X161232246Y-39065318D01*
X161232251Y-39065326D01*
X161437460Y-39327255D01*
X161672744Y-39562539D01*
X161934673Y-39767748D01*
X161934678Y-39767751D01*
X161934682Y-39767754D01*
X162219443Y-39939898D01*
X162522877Y-40076463D01*
X162522890Y-40076467D01*
X162522895Y-40076469D01*
X162734665Y-40142458D01*
X162840559Y-40175456D01*
X163167858Y-40235436D01*
X163500000Y-40255527D01*
X163832142Y-40235436D01*
X164159441Y-40175456D01*
X164477123Y-40076463D01*
X164780557Y-39939898D01*
X165065318Y-39767754D01*
X165327252Y-39562542D01*
X165562542Y-39327252D01*
X165767238Y-39065977D01*
X165767748Y-39065326D01*
X165767748Y-39065324D01*
X165767754Y-39065318D01*
X165939898Y-38780557D01*
X165993570Y-38661304D01*
X173099500Y-38661304D01*
X173099500Y-38838695D01*
X173134103Y-39012658D01*
X173134106Y-39012667D01*
X173201983Y-39176540D01*
X173201990Y-39176553D01*
X173300535Y-39324034D01*
X173300538Y-39324038D01*
X173425961Y-39449461D01*
X173425965Y-39449464D01*
X173573446Y-39548009D01*
X173573459Y-39548016D01*
X173608529Y-39562542D01*
X173737334Y-39615894D01*
X173737336Y-39615894D01*
X173737341Y-39615896D01*
X173911304Y-39650499D01*
X173911307Y-39650500D01*
X173911309Y-39650500D01*
X174088693Y-39650500D01*
X174088694Y-39650499D01*
X174146682Y-39638964D01*
X174262658Y-39615896D01*
X174262661Y-39615894D01*
X174262666Y-39615894D01*
X174426547Y-39548013D01*
X174574035Y-39449464D01*
X174699464Y-39324035D01*
X174798013Y-39176547D01*
X174865894Y-39012666D01*
X174871696Y-38983501D01*
X174900499Y-38838695D01*
X174900500Y-38838693D01*
X174900500Y-38671153D01*
X177199500Y-38671153D01*
X177199500Y-38828846D01*
X177230261Y-38983489D01*
X177230264Y-38983501D01*
X177290602Y-39129172D01*
X177290609Y-39129185D01*
X177378210Y-39260288D01*
X177378213Y-39260292D01*
X177489707Y-39371786D01*
X177489711Y-39371789D01*
X177620814Y-39459390D01*
X177620827Y-39459397D01*
X177766498Y-39519735D01*
X177766503Y-39519737D01*
X177908635Y-39548009D01*
X177921153Y-39550499D01*
X177921156Y-39550500D01*
X177921158Y-39550500D01*
X178078844Y-39550500D01*
X178078845Y-39550499D01*
X178233497Y-39519737D01*
X178379179Y-39459394D01*
X178510289Y-39371789D01*
X178621789Y-39260289D01*
X178709394Y-39129179D01*
X178769737Y-38983497D01*
X178800500Y-38828842D01*
X178800500Y-38671158D01*
X178800500Y-38671155D01*
X178800499Y-38671153D01*
X178769738Y-38516510D01*
X178769737Y-38516503D01*
X178757654Y-38487332D01*
X178709397Y-38370827D01*
X178709390Y-38370814D01*
X178621789Y-38239711D01*
X178621786Y-38239707D01*
X178528609Y-38146530D01*
X179949500Y-38146530D01*
X179949500Y-38353469D01*
X179976129Y-38487341D01*
X179989870Y-38556420D01*
X180069059Y-38747598D01*
X180123344Y-38828842D01*
X180184024Y-38919657D01*
X180330342Y-39065975D01*
X180330345Y-39065977D01*
X180502402Y-39180941D01*
X180693580Y-39260130D01*
X180896530Y-39300499D01*
X180896534Y-39300500D01*
X180896535Y-39300500D01*
X181103466Y-39300500D01*
X181103467Y-39300499D01*
X181306420Y-39260130D01*
X181497598Y-39180941D01*
X181669655Y-39065977D01*
X181815977Y-38919655D01*
X181930941Y-38747598D01*
X182010130Y-38556420D01*
X182050500Y-38353465D01*
X182050500Y-38146535D01*
X182010130Y-37943580D01*
X181930941Y-37752402D01*
X181815977Y-37580345D01*
X181815975Y-37580342D01*
X181735633Y-37500000D01*
X183744473Y-37500000D01*
X183764563Y-37832136D01*
X183764563Y-37832141D01*
X183764564Y-37832142D01*
X183824544Y-38159441D01*
X183824545Y-38159445D01*
X183824546Y-38159449D01*
X183923530Y-38477104D01*
X183923534Y-38477116D01*
X183923537Y-38477123D01*
X184060102Y-38780557D01*
X184232246Y-39065318D01*
X184232251Y-39065326D01*
X184437460Y-39327255D01*
X184672744Y-39562539D01*
X184934673Y-39767748D01*
X184934678Y-39767751D01*
X184934682Y-39767754D01*
X185219443Y-39939898D01*
X185522877Y-40076463D01*
X185522890Y-40076467D01*
X185522895Y-40076469D01*
X185734665Y-40142458D01*
X185840559Y-40175456D01*
X186167858Y-40235436D01*
X186500000Y-40255527D01*
X186832142Y-40235436D01*
X187159441Y-40175456D01*
X187477123Y-40076463D01*
X187780557Y-39939898D01*
X188065318Y-39767754D01*
X188327252Y-39562542D01*
X188562542Y-39327252D01*
X188767238Y-39065977D01*
X188767748Y-39065326D01*
X188767748Y-39065324D01*
X188767754Y-39065318D01*
X188939898Y-38780557D01*
X189076463Y-38477123D01*
X189175456Y-38159441D01*
X189235436Y-37832142D01*
X189255527Y-37500000D01*
X189235436Y-37167858D01*
X189175456Y-36840559D01*
X189076463Y-36522877D01*
X188939898Y-36219443D01*
X188767754Y-35934682D01*
X188767751Y-35934678D01*
X188767748Y-35934673D01*
X188562539Y-35672744D01*
X188327255Y-35437460D01*
X188065326Y-35232251D01*
X188065318Y-35232246D01*
X187780557Y-35060102D01*
X187477123Y-34923537D01*
X187477116Y-34923534D01*
X187477104Y-34923530D01*
X187159449Y-34824546D01*
X187159445Y-34824545D01*
X187159441Y-34824544D01*
X186832142Y-34764564D01*
X186832141Y-34764563D01*
X186832136Y-34764563D01*
X186500000Y-34744473D01*
X186167863Y-34764563D01*
X186167858Y-34764564D01*
X185840559Y-34824544D01*
X185840556Y-34824544D01*
X185840550Y-34824546D01*
X185522895Y-34923530D01*
X185522879Y-34923536D01*
X185522877Y-34923537D01*
X185329656Y-35010498D01*
X185219447Y-35060100D01*
X185219445Y-35060101D01*
X184934673Y-35232251D01*
X184672744Y-35437460D01*
X184437460Y-35672744D01*
X184232251Y-35934673D01*
X184060101Y-36219445D01*
X184060100Y-36219447D01*
X183923536Y-36522880D01*
X183923530Y-36522895D01*
X183824546Y-36840550D01*
X183824544Y-36840556D01*
X183824544Y-36840559D01*
X183776122Y-37104786D01*
X183764563Y-37167863D01*
X183744473Y-37500000D01*
X181735633Y-37500000D01*
X181669657Y-37434024D01*
X181583626Y-37376541D01*
X181497598Y-37319059D01*
X181306420Y-37239870D01*
X181306412Y-37239868D01*
X181103469Y-37199500D01*
X181103465Y-37199500D01*
X180896535Y-37199500D01*
X180896530Y-37199500D01*
X180693587Y-37239868D01*
X180693579Y-37239870D01*
X180502403Y-37319058D01*
X180330342Y-37434024D01*
X180184024Y-37580342D01*
X180069058Y-37752403D01*
X179989870Y-37943579D01*
X179989868Y-37943587D01*
X179949500Y-38146530D01*
X178528609Y-38146530D01*
X178510292Y-38128213D01*
X178510288Y-38128210D01*
X178379185Y-38040609D01*
X178379172Y-38040602D01*
X178233501Y-37980264D01*
X178233489Y-37980261D01*
X178078845Y-37949500D01*
X178078842Y-37949500D01*
X177921158Y-37949500D01*
X177921155Y-37949500D01*
X177766510Y-37980261D01*
X177766498Y-37980264D01*
X177620827Y-38040602D01*
X177620814Y-38040609D01*
X177489711Y-38128210D01*
X177489707Y-38128213D01*
X177378213Y-38239707D01*
X177378210Y-38239711D01*
X177290609Y-38370814D01*
X177290602Y-38370827D01*
X177230264Y-38516498D01*
X177230261Y-38516510D01*
X177199500Y-38671153D01*
X174900500Y-38671153D01*
X174900500Y-38661306D01*
X174900499Y-38661304D01*
X174865896Y-38487341D01*
X174865893Y-38487332D01*
X174861664Y-38477123D01*
X174817636Y-38370827D01*
X174798016Y-38323459D01*
X174798009Y-38323446D01*
X174699464Y-38175965D01*
X174699461Y-38175961D01*
X174574038Y-38050538D01*
X174574034Y-38050535D01*
X174426553Y-37951990D01*
X174426540Y-37951983D01*
X174262667Y-37884106D01*
X174262658Y-37884103D01*
X174088694Y-37849500D01*
X174088691Y-37849500D01*
X173911309Y-37849500D01*
X173911306Y-37849500D01*
X173737341Y-37884103D01*
X173737332Y-37884106D01*
X173573459Y-37951983D01*
X173573446Y-37951990D01*
X173425965Y-38050535D01*
X173425961Y-38050538D01*
X173300538Y-38175961D01*
X173300535Y-38175965D01*
X173201990Y-38323446D01*
X173201983Y-38323459D01*
X173134106Y-38487332D01*
X173134103Y-38487341D01*
X173099500Y-38661304D01*
X165993570Y-38661304D01*
X166076463Y-38477123D01*
X166175456Y-38159441D01*
X166235436Y-37832142D01*
X166255527Y-37500000D01*
X166235436Y-37167858D01*
X166175456Y-36840559D01*
X166076463Y-36522877D01*
X165939898Y-36219443D01*
X165767754Y-35934682D01*
X165767751Y-35934678D01*
X165767748Y-35934673D01*
X165562539Y-35672744D01*
X165327255Y-35437460D01*
X165065326Y-35232251D01*
X165065318Y-35232246D01*
X164780557Y-35060102D01*
X164477123Y-34923537D01*
X164477116Y-34923534D01*
X164477104Y-34923530D01*
X164159449Y-34824546D01*
X164159445Y-34824545D01*
X164159441Y-34824544D01*
X163832142Y-34764564D01*
X163832141Y-34764563D01*
X163832136Y-34764563D01*
X163500000Y-34744473D01*
X163167863Y-34764563D01*
X163167858Y-34764564D01*
X162840559Y-34824544D01*
X162840556Y-34824544D01*
X162840550Y-34824546D01*
X162522895Y-34923530D01*
X162522879Y-34923536D01*
X162522877Y-34923537D01*
X162329656Y-35010498D01*
X162219447Y-35060100D01*
X162219445Y-35060101D01*
X161934673Y-35232251D01*
X161672744Y-35437460D01*
X161437460Y-35672744D01*
X161232251Y-35934673D01*
X161060101Y-36219445D01*
X161060100Y-36219447D01*
X160923536Y-36522880D01*
X160923530Y-36522895D01*
X160824546Y-36840550D01*
X160824544Y-36840556D01*
X160824544Y-36840559D01*
X160776122Y-37104786D01*
X160764563Y-37167863D01*
X160744473Y-37500000D01*
X160250500Y-37500000D01*
X160250500Y-34374500D01*
X160270185Y-34307461D01*
X160322989Y-34261706D01*
X160374500Y-34250500D01*
X189625500Y-34250500D01*
X189692539Y-34270185D01*
G37*
%TD.AperFunction*%
%TD*%
M02*
