%TF.GenerationSoftware,KiCad,Pcbnew,8.0.2*%
%TF.CreationDate,2024-06-27T22:03:59-04:00*%
%TF.ProjectId,HackerMouseProject,4861636b-6572-44d6-9f75-736550726f6a,rev?*%
%TF.SameCoordinates,Original*%
%TF.FileFunction,Paste,Top*%
%TF.FilePolarity,Positive*%
%FSLAX46Y46*%
G04 Gerber Fmt 4.6, Leading zero omitted, Abs format (unit mm)*
G04 Created by KiCad (PCBNEW 8.0.2) date 2024-06-27 22:03:59*
%MOMM*%
%LPD*%
G01*
G04 APERTURE LIST*
G04 Aperture macros list*
%AMRoundRect*
0 Rectangle with rounded corners*
0 $1 Rounding radius*
0 $2 $3 $4 $5 $6 $7 $8 $9 X,Y pos of 4 corners*
0 Add a 4 corners polygon primitive as box body*
4,1,4,$2,$3,$4,$5,$6,$7,$8,$9,$2,$3,0*
0 Add four circle primitives for the rounded corners*
1,1,$1+$1,$2,$3*
1,1,$1+$1,$4,$5*
1,1,$1+$1,$6,$7*
1,1,$1+$1,$8,$9*
0 Add four rect primitives between the rounded corners*
20,1,$1+$1,$2,$3,$4,$5,0*
20,1,$1+$1,$4,$5,$6,$7,0*
20,1,$1+$1,$6,$7,$8,$9,0*
20,1,$1+$1,$8,$9,$2,$3,0*%
G04 Aperture macros list end*
%ADD10C,0.010000*%
%ADD11RoundRect,0.127500X-0.483250X-0.127500X0.483250X-0.127500X0.483250X0.127500X-0.483250X0.127500X0*%
%ADD12RoundRect,0.165000X-0.453250X-0.165000X0.453250X-0.165000X0.453250X0.165000X-0.453250X0.165000X0*%
%ADD13RoundRect,0.237500X0.237500X-0.300000X0.237500X0.300000X-0.237500X0.300000X-0.237500X-0.300000X0*%
%ADD14RoundRect,0.237500X-0.237500X0.250000X-0.237500X-0.250000X0.237500X-0.250000X0.237500X0.250000X0*%
%ADD15RoundRect,0.237500X0.300000X0.237500X-0.300000X0.237500X-0.300000X-0.237500X0.300000X-0.237500X0*%
%ADD16RoundRect,0.237500X-0.250000X-0.237500X0.250000X-0.237500X0.250000X0.237500X-0.250000X0.237500X0*%
%ADD17RoundRect,0.237500X-0.300000X-0.237500X0.300000X-0.237500X0.300000X0.237500X-0.300000X0.237500X0*%
%ADD18RoundRect,0.237500X0.250000X0.237500X-0.250000X0.237500X-0.250000X-0.237500X0.250000X-0.237500X0*%
%ADD19RoundRect,0.027500X-0.082500X0.377500X-0.082500X-0.377500X0.082500X-0.377500X0.082500X0.377500X0*%
%ADD20RoundRect,0.027500X-0.377500X0.082500X-0.377500X-0.082500X0.377500X-0.082500X0.377500X0.082500X0*%
%ADD21RoundRect,0.150000X0.150000X0.200000X-0.150000X0.200000X-0.150000X-0.200000X0.150000X-0.200000X0*%
%ADD22RoundRect,0.237500X-0.237500X0.300000X-0.237500X-0.300000X0.237500X-0.300000X0.237500X0.300000X0*%
%ADD23RoundRect,0.150000X-0.150000X-0.200000X0.150000X-0.200000X0.150000X0.200000X-0.150000X0.200000X0*%
%ADD24R,0.850000X0.750000*%
%ADD25R,0.900000X0.600000*%
%ADD26R,0.400000X1.350000*%
%ADD27R,1.500000X1.550000*%
%ADD28RoundRect,0.072500X-0.732500X-0.217500X0.732500X-0.217500X0.732500X0.217500X-0.732500X0.217500X0*%
G04 APERTURE END LIST*
D10*
%TO.C,U1*%
X174755000Y-70755000D02*
X173485000Y-70755000D01*
X173485000Y-69485000D01*
X174755000Y-69485000D01*
X174755000Y-70755000D01*
G36*
X174755000Y-70755000D02*
G01*
X173485000Y-70755000D01*
X173485000Y-69485000D01*
X174755000Y-69485000D01*
X174755000Y-70755000D01*
G37*
X174755000Y-72515000D02*
X173485000Y-72515000D01*
X173485000Y-71245000D01*
X174755000Y-71245000D01*
X174755000Y-72515000D01*
G36*
X174755000Y-72515000D02*
G01*
X173485000Y-72515000D01*
X173485000Y-71245000D01*
X174755000Y-71245000D01*
X174755000Y-72515000D01*
G37*
X176515000Y-70755000D02*
X175245000Y-70755000D01*
X175245000Y-69485000D01*
X176515000Y-69485000D01*
X176515000Y-70755000D01*
G36*
X176515000Y-70755000D02*
G01*
X175245000Y-70755000D01*
X175245000Y-69485000D01*
X176515000Y-69485000D01*
X176515000Y-70755000D01*
G37*
X176515000Y-72515000D02*
X175245000Y-72515000D01*
X175245000Y-71245000D01*
X176515000Y-71245000D01*
X176515000Y-72515000D01*
G36*
X176515000Y-72515000D02*
G01*
X175245000Y-72515000D01*
X175245000Y-71245000D01*
X176515000Y-71245000D01*
X176515000Y-72515000D01*
G37*
%TO.C,J1*%
X172700000Y-107525000D02*
X171555000Y-107525000D01*
X171529000Y-107524000D01*
X171503000Y-107522000D01*
X171477000Y-107519000D01*
X171451000Y-107514000D01*
X171426000Y-107508000D01*
X171400000Y-107501000D01*
X171376000Y-107492000D01*
X171352000Y-107482000D01*
X171328000Y-107471000D01*
X171305000Y-107458000D01*
X171283000Y-107444000D01*
X171261000Y-107430000D01*
X171240000Y-107414000D01*
X171220000Y-107397000D01*
X171201000Y-107379000D01*
X171183000Y-107360000D01*
X171166000Y-107340000D01*
X171150000Y-107319000D01*
X171136000Y-107297000D01*
X171122000Y-107275000D01*
X171109000Y-107252000D01*
X171098000Y-107228000D01*
X171088000Y-107204000D01*
X171079000Y-107180000D01*
X171072000Y-107154000D01*
X171066000Y-107129000D01*
X171061000Y-107103000D01*
X171058000Y-107077000D01*
X171056000Y-107051000D01*
X171055000Y-107025000D01*
X171055000Y-106475000D01*
X171056000Y-106449000D01*
X171058000Y-106423000D01*
X171061000Y-106397000D01*
X171066000Y-106371000D01*
X171072000Y-106346000D01*
X171079000Y-106320000D01*
X171088000Y-106296000D01*
X171098000Y-106272000D01*
X171109000Y-106248000D01*
X171122000Y-106225000D01*
X171136000Y-106203000D01*
X171150000Y-106181000D01*
X171166000Y-106160000D01*
X171183000Y-106140000D01*
X171201000Y-106121000D01*
X171220000Y-106103000D01*
X171240000Y-106086000D01*
X171261000Y-106070000D01*
X171283000Y-106056000D01*
X171305000Y-106042000D01*
X171328000Y-106029000D01*
X171352000Y-106018000D01*
X171376000Y-106008000D01*
X171400000Y-105999000D01*
X171426000Y-105992000D01*
X171451000Y-105986000D01*
X171477000Y-105981000D01*
X171503000Y-105978000D01*
X171529000Y-105976000D01*
X171555000Y-105975000D01*
X172700000Y-105975000D01*
X172700000Y-107525000D01*
G36*
X172700000Y-107525000D02*
G01*
X171555000Y-107525000D01*
X171529000Y-107524000D01*
X171503000Y-107522000D01*
X171477000Y-107519000D01*
X171451000Y-107514000D01*
X171426000Y-107508000D01*
X171400000Y-107501000D01*
X171376000Y-107492000D01*
X171352000Y-107482000D01*
X171328000Y-107471000D01*
X171305000Y-107458000D01*
X171283000Y-107444000D01*
X171261000Y-107430000D01*
X171240000Y-107414000D01*
X171220000Y-107397000D01*
X171201000Y-107379000D01*
X171183000Y-107360000D01*
X171166000Y-107340000D01*
X171150000Y-107319000D01*
X171136000Y-107297000D01*
X171122000Y-107275000D01*
X171109000Y-107252000D01*
X171098000Y-107228000D01*
X171088000Y-107204000D01*
X171079000Y-107180000D01*
X171072000Y-107154000D01*
X171066000Y-107129000D01*
X171061000Y-107103000D01*
X171058000Y-107077000D01*
X171056000Y-107051000D01*
X171055000Y-107025000D01*
X171055000Y-106475000D01*
X171056000Y-106449000D01*
X171058000Y-106423000D01*
X171061000Y-106397000D01*
X171066000Y-106371000D01*
X171072000Y-106346000D01*
X171079000Y-106320000D01*
X171088000Y-106296000D01*
X171098000Y-106272000D01*
X171109000Y-106248000D01*
X171122000Y-106225000D01*
X171136000Y-106203000D01*
X171150000Y-106181000D01*
X171166000Y-106160000D01*
X171183000Y-106140000D01*
X171201000Y-106121000D01*
X171220000Y-106103000D01*
X171240000Y-106086000D01*
X171261000Y-106070000D01*
X171283000Y-106056000D01*
X171305000Y-106042000D01*
X171328000Y-106029000D01*
X171352000Y-106018000D01*
X171376000Y-106008000D01*
X171400000Y-105999000D01*
X171426000Y-105992000D01*
X171451000Y-105986000D01*
X171477000Y-105981000D01*
X171503000Y-105978000D01*
X171529000Y-105976000D01*
X171555000Y-105975000D01*
X172700000Y-105975000D01*
X172700000Y-107525000D01*
G37*
X178471000Y-105976000D02*
X178497000Y-105978000D01*
X178523000Y-105981000D01*
X178549000Y-105986000D01*
X178574000Y-105992000D01*
X178600000Y-105999000D01*
X178624000Y-106008000D01*
X178648000Y-106018000D01*
X178672000Y-106029000D01*
X178695000Y-106042000D01*
X178717000Y-106056000D01*
X178739000Y-106070000D01*
X178760000Y-106086000D01*
X178780000Y-106103000D01*
X178799000Y-106121000D01*
X178817000Y-106140000D01*
X178834000Y-106160000D01*
X178850000Y-106181000D01*
X178864000Y-106203000D01*
X178878000Y-106225000D01*
X178891000Y-106248000D01*
X178902000Y-106272000D01*
X178912000Y-106296000D01*
X178921000Y-106320000D01*
X178928000Y-106346000D01*
X178934000Y-106371000D01*
X178939000Y-106397000D01*
X178942000Y-106423000D01*
X178944000Y-106449000D01*
X178945000Y-106475000D01*
X178945000Y-107025000D01*
X178944000Y-107051000D01*
X178942000Y-107077000D01*
X178939000Y-107103000D01*
X178934000Y-107129000D01*
X178928000Y-107154000D01*
X178921000Y-107180000D01*
X178912000Y-107204000D01*
X178902000Y-107228000D01*
X178891000Y-107252000D01*
X178878000Y-107275000D01*
X178864000Y-107297000D01*
X178850000Y-107319000D01*
X178834000Y-107340000D01*
X178817000Y-107360000D01*
X178799000Y-107379000D01*
X178780000Y-107397000D01*
X178760000Y-107414000D01*
X178739000Y-107430000D01*
X178717000Y-107444000D01*
X178695000Y-107458000D01*
X178672000Y-107471000D01*
X178648000Y-107482000D01*
X178624000Y-107492000D01*
X178600000Y-107501000D01*
X178574000Y-107508000D01*
X178549000Y-107514000D01*
X178523000Y-107519000D01*
X178497000Y-107522000D01*
X178471000Y-107524000D01*
X178445000Y-107525000D01*
X177300000Y-107525000D01*
X177300000Y-105975000D01*
X178445000Y-105975000D01*
X178471000Y-105976000D01*
G36*
X178471000Y-105976000D02*
G01*
X178497000Y-105978000D01*
X178523000Y-105981000D01*
X178549000Y-105986000D01*
X178574000Y-105992000D01*
X178600000Y-105999000D01*
X178624000Y-106008000D01*
X178648000Y-106018000D01*
X178672000Y-106029000D01*
X178695000Y-106042000D01*
X178717000Y-106056000D01*
X178739000Y-106070000D01*
X178760000Y-106086000D01*
X178780000Y-106103000D01*
X178799000Y-106121000D01*
X178817000Y-106140000D01*
X178834000Y-106160000D01*
X178850000Y-106181000D01*
X178864000Y-106203000D01*
X178878000Y-106225000D01*
X178891000Y-106248000D01*
X178902000Y-106272000D01*
X178912000Y-106296000D01*
X178921000Y-106320000D01*
X178928000Y-106346000D01*
X178934000Y-106371000D01*
X178939000Y-106397000D01*
X178942000Y-106423000D01*
X178944000Y-106449000D01*
X178945000Y-106475000D01*
X178945000Y-107025000D01*
X178944000Y-107051000D01*
X178942000Y-107077000D01*
X178939000Y-107103000D01*
X178934000Y-107129000D01*
X178928000Y-107154000D01*
X178921000Y-107180000D01*
X178912000Y-107204000D01*
X178902000Y-107228000D01*
X178891000Y-107252000D01*
X178878000Y-107275000D01*
X178864000Y-107297000D01*
X178850000Y-107319000D01*
X178834000Y-107340000D01*
X178817000Y-107360000D01*
X178799000Y-107379000D01*
X178780000Y-107397000D01*
X178760000Y-107414000D01*
X178739000Y-107430000D01*
X178717000Y-107444000D01*
X178695000Y-107458000D01*
X178672000Y-107471000D01*
X178648000Y-107482000D01*
X178624000Y-107492000D01*
X178600000Y-107501000D01*
X178574000Y-107508000D01*
X178549000Y-107514000D01*
X178523000Y-107519000D01*
X178497000Y-107522000D01*
X178471000Y-107524000D01*
X178445000Y-107525000D01*
X177300000Y-107525000D01*
X177300000Y-105975000D01*
X178445000Y-105975000D01*
X178471000Y-105976000D01*
G37*
%TD*%
D11*
%TO.C,AE1*%
X190113250Y-63870000D03*
D12*
X190020750Y-61645000D03*
%TD*%
D13*
%TO.C,L4*%
X188500000Y-63862500D03*
X188500000Y-62137500D03*
%TD*%
D14*
%TO.C,R4*%
X173500000Y-96087500D03*
X173500000Y-97912500D03*
%TD*%
D15*
%TO.C,C7*%
X178612500Y-77500000D03*
X176887500Y-77500000D03*
%TD*%
D16*
%TO.C,R1*%
X184187500Y-90475000D03*
X186012500Y-90475000D03*
%TD*%
D13*
%TO.C,C5*%
X169990000Y-63862500D03*
X169990000Y-62137500D03*
%TD*%
D17*
%TO.C,C12*%
X182637500Y-68000000D03*
X184362500Y-68000000D03*
%TD*%
D18*
%TO.C,R10*%
X171325000Y-90000000D03*
X169500000Y-90000000D03*
%TD*%
D16*
%TO.C,R2*%
X182587500Y-70250000D03*
X184412500Y-70250000D03*
%TD*%
D14*
%TO.C,R3*%
X176000000Y-96087500D03*
X176000000Y-97912500D03*
%TD*%
D16*
%TO.C,R7*%
X168587500Y-57750000D03*
X170412500Y-57750000D03*
%TD*%
D19*
%TO.C,U1*%
X177600000Y-67555000D03*
X177200000Y-67555000D03*
X176800000Y-67555000D03*
X176400000Y-67555000D03*
X176000000Y-67555000D03*
X175600000Y-67555000D03*
X175200000Y-67555000D03*
X174800000Y-67555000D03*
X174400000Y-67555000D03*
X174000000Y-67555000D03*
X173600000Y-67555000D03*
X173200000Y-67555000D03*
X172800000Y-67555000D03*
X172400000Y-67555000D03*
D20*
X171555000Y-68400000D03*
X171555000Y-68800000D03*
X171555000Y-69200000D03*
X171555000Y-69600000D03*
X171555000Y-70000000D03*
X171555000Y-70400000D03*
X171555000Y-70800000D03*
X171555000Y-71200000D03*
X171555000Y-71600000D03*
X171555000Y-72000000D03*
X171555000Y-72400000D03*
X171555000Y-72800000D03*
X171555000Y-73200000D03*
X171555000Y-73600000D03*
D19*
X172400000Y-74445000D03*
X172800000Y-74445000D03*
X173200000Y-74445000D03*
X173600000Y-74445000D03*
X174000000Y-74445000D03*
X174400000Y-74445000D03*
X174800000Y-74445000D03*
X175200000Y-74445000D03*
X175600000Y-74445000D03*
X176000000Y-74445000D03*
X176400000Y-74445000D03*
X176800000Y-74445000D03*
X177200000Y-74445000D03*
X177600000Y-74445000D03*
D20*
X178445000Y-73600000D03*
X178445000Y-73200000D03*
X178445000Y-72800000D03*
X178445000Y-72400000D03*
X178445000Y-72000000D03*
X178445000Y-71600000D03*
X178445000Y-71200000D03*
X178445000Y-70800000D03*
X178445000Y-70400000D03*
X178445000Y-70000000D03*
X178445000Y-69600000D03*
X178445000Y-69200000D03*
X178445000Y-68800000D03*
X178445000Y-68400000D03*
%TD*%
D15*
%TO.C,L2*%
X173862500Y-64000000D03*
X172137500Y-64000000D03*
%TD*%
%TO.C,C16*%
X186000000Y-86500000D03*
X184275000Y-86500000D03*
%TD*%
D13*
%TO.C,C6*%
X176000000Y-63862500D03*
X176000000Y-62137500D03*
%TD*%
D18*
%TO.C,R8*%
X186000000Y-88500000D03*
X184175000Y-88500000D03*
%TD*%
D21*
%TO.C,D1*%
X175800000Y-101000000D03*
X177200000Y-101000000D03*
%TD*%
D16*
%TO.C,R9*%
X162087500Y-90000000D03*
X163912500Y-90000000D03*
%TD*%
D13*
%TO.C,C15*%
X188500000Y-59362500D03*
X188500000Y-57637500D03*
%TD*%
D22*
%TO.C,C10*%
X181000000Y-73387500D03*
X181000000Y-75112500D03*
%TD*%
D17*
%TO.C,C11*%
X182637500Y-66000000D03*
X184362500Y-66000000D03*
%TD*%
D15*
%TO.C,C1*%
X171862500Y-77000000D03*
X170137500Y-77000000D03*
%TD*%
D23*
%TO.C,D2*%
X173700000Y-101000000D03*
X172300000Y-101000000D03*
%TD*%
D13*
%TO.C,C8*%
X166250000Y-70362500D03*
X166250000Y-68637500D03*
%TD*%
D22*
%TO.C,C9*%
X187000000Y-72025000D03*
X187000000Y-73750000D03*
%TD*%
D24*
%TO.C,Y1*%
X184425000Y-72225000D03*
X183075000Y-72225000D03*
X183075000Y-73275000D03*
X184425000Y-73275000D03*
%TD*%
D25*
%TO.C,PS1*%
X173600000Y-88187500D03*
X173600000Y-89137500D03*
X173600000Y-90087500D03*
X176400000Y-90087500D03*
X176400000Y-88187500D03*
%TD*%
D13*
%TO.C,C3*%
X166000000Y-63862500D03*
X166000000Y-62137500D03*
%TD*%
D15*
%TO.C,C17*%
X171287500Y-88000000D03*
X169562500Y-88000000D03*
%TD*%
D26*
%TO.C,J1*%
X173700000Y-104075000D03*
X174350000Y-104075000D03*
X175000000Y-104075000D03*
X175650000Y-104075000D03*
X176300000Y-104075000D03*
D27*
X176000000Y-106750000D03*
X174000000Y-106750000D03*
%TD*%
D13*
%TO.C,C4*%
X168000000Y-63862500D03*
X168000000Y-62137500D03*
%TD*%
D16*
%TO.C,R6*%
X174087500Y-57750000D03*
X175912500Y-57750000D03*
%TD*%
D13*
%TO.C,C14*%
X186500000Y-63862500D03*
X186500000Y-62137500D03*
%TD*%
D17*
%TO.C,L3*%
X182637500Y-64000000D03*
X184362500Y-64000000D03*
%TD*%
D15*
%TO.C,C2*%
X171862500Y-79000000D03*
X170137500Y-79000000D03*
%TD*%
D28*
%TO.C,U2*%
X171395000Y-81595000D03*
X171395000Y-82865000D03*
X171395000Y-84135000D03*
X171395000Y-85405000D03*
X178605000Y-85405000D03*
X178605000Y-84135000D03*
X178605000Y-82865000D03*
X178605000Y-81595000D03*
%TD*%
D22*
%TO.C,C18*%
X178500000Y-88275000D03*
X178500000Y-90000000D03*
%TD*%
D16*
%TO.C,R5*%
X165087500Y-73750000D03*
X166912500Y-73750000D03*
%TD*%
D13*
%TO.C,C13*%
X180500000Y-63862500D03*
X180500000Y-62137500D03*
%TD*%
M02*
