M48
; DRILL file {KiCad 8.0.4-8.0.4-0~ubuntu22.04.1} date 2024-09-06T10:46:16-0400
; FORMAT={-:-/ absolute / metric / decimal}
; #@! TF.CreationDate,2024-09-06T10:46:16-04:00
; #@! TF.GenerationSoftware,Kicad,Pcbnew,8.0.4-8.0.4-0~ubuntu22.04.1
; #@! TF.FileFunction,Plated,1,2,PTH
FMAT,2
METRIC
; #@! TA.AperFunction,Plated,PTH,ViaDrill
T1C0.300
; #@! TA.AperFunction,Plated,PTH,ComponentDrill
T2C1.000
; #@! TA.AperFunction,Plated,PTH,ComponentDrill
T3C2.200
; #@! TA.AperFunction,Plated,PTH,ComponentDrill
T4C2.700
; #@! TA.AperFunction,Plated,PTH,ComponentDrill
T5C3.200
%
G90
G05
T1
X73.5Y-34.5
X73.5Y-77.5
X73.5Y-84.5
X73.5Y-127.5
X73.5Y-134.5
X73.5Y-177.5
X73.5Y-184.5
X73.5Y-227.5
X73.5Y-234.5
X73.5Y-277.5
X73.598Y-52.582
X73.598Y-102.582
X73.598Y-152.582
X73.598Y-202.582
X73.598Y-252.582
X80.2Y-67.6
X80.2Y-117.6
X80.2Y-167.6
X80.2Y-217.6
X80.2Y-267.6
X80.4Y-69.6
X80.4Y-119.6
X80.4Y-169.6
X80.4Y-219.6
X80.4Y-269.6
X80.5Y-66.2
X80.5Y-116.2
X80.5Y-166.2
X80.5Y-216.2
X80.5Y-266.2
X81.8Y-72.7
X81.8Y-122.7
X81.8Y-172.7
X81.8Y-222.7
X81.8Y-272.7
X83.4Y-63.3
X83.4Y-113.3
X83.4Y-163.3
X83.4Y-213.3
X83.4Y-263.3
X83.5Y-34.5
X83.5Y-73.7
X83.5Y-77.5
X83.5Y-84.5
X83.5Y-123.7
X83.5Y-127.5
X83.5Y-134.5
X83.5Y-173.7
X83.5Y-177.5
X83.5Y-184.5
X83.5Y-223.7
X83.5Y-227.5
X83.5Y-234.5
X83.5Y-273.7
X83.5Y-277.5
X84.9Y-74.5
X84.9Y-124.5
X84.9Y-174.5
X84.9Y-224.5
X84.9Y-274.5
X85.2Y-62.5
X85.2Y-112.5
X85.2Y-162.5
X85.2Y-212.5
X85.2Y-262.5
X86.9Y-62.5
X86.9Y-112.5
X86.9Y-162.5
X86.9Y-212.5
X86.9Y-262.5
X88.8Y-73.8
X88.8Y-123.8
X88.8Y-173.8
X88.8Y-223.8
X88.8Y-273.8
X90.2Y-64.2
X90.2Y-114.2
X90.2Y-164.2
X90.2Y-214.2
X90.2Y-264.2
X90.326Y-72.426
X90.326Y-122.426
X90.326Y-172.426
X90.326Y-222.426
X90.326Y-272.426
X91.3Y-65.8
X91.3Y-115.8
X91.3Y-165.8
X91.3Y-215.8
X91.3Y-265.8
X91.5Y-71.2
X91.5Y-121.2
X91.5Y-171.2
X91.5Y-221.2
X91.5Y-271.2
X92.0Y-67.2
X92.0Y-117.2
X92.0Y-167.2
X92.0Y-217.2
X92.0Y-267.2
X93.5Y-34.5
X93.5Y-77.5
X93.5Y-84.5
X93.5Y-127.5
X93.5Y-134.5
X93.5Y-177.5
X93.5Y-184.5
X93.5Y-227.5
X93.5Y-234.5
X93.5Y-277.5
X96.402Y-59.317
X96.402Y-109.317
X96.402Y-159.317
X96.402Y-209.317
X96.402Y-259.317
X98.998Y-52.633
X98.998Y-102.633
X98.998Y-152.633
X98.998Y-202.633
X98.998Y-252.633
X103.5Y-34.5
X103.5Y-77.5
X103.5Y-84.5
X103.5Y-127.5
X103.5Y-134.5
X103.5Y-177.5
X103.5Y-184.5
X103.5Y-227.5
X103.5Y-234.5
X103.5Y-277.5
X104.9Y-72.4
X104.9Y-122.4
X104.9Y-172.4
X104.9Y-222.4
X104.9Y-272.4
X105.05Y-50.0
X105.05Y-100.0
X105.05Y-150.0
X105.05Y-200.0
X105.05Y-250.0
X106.05Y-50.0
X106.05Y-100.0
X106.05Y-150.0
X106.05Y-200.0
X106.05Y-250.0
X107.05Y-49.0
X107.05Y-50.0
X107.05Y-99.0
X107.05Y-100.0
X107.05Y-149.0
X107.05Y-150.0
X107.05Y-199.0
X107.05Y-200.0
X107.05Y-249.0
X107.05Y-250.0
X107.9Y-44.65
X107.9Y-94.65
X107.9Y-144.65
X107.9Y-194.65
X107.9Y-244.65
X108.05Y-49.0
X108.05Y-50.0
X108.05Y-99.0
X108.05Y-100.0
X108.05Y-149.0
X108.05Y-150.0
X108.05Y-199.0
X108.05Y-200.0
X108.05Y-249.0
X108.05Y-250.0
X108.9Y-69.9
X108.9Y-119.9
X108.9Y-169.9
X108.9Y-219.9
X108.9Y-269.9
X109.05Y-49.0
X109.05Y-50.0
X109.05Y-99.0
X109.05Y-100.0
X109.05Y-149.0
X109.05Y-150.0
X109.05Y-199.0
X109.05Y-200.0
X109.05Y-249.0
X109.05Y-250.0
X110.05Y-49.0
X110.05Y-50.0
X110.05Y-99.0
X110.05Y-100.0
X110.05Y-149.0
X110.05Y-150.0
X110.05Y-199.0
X110.05Y-200.0
X110.05Y-249.0
X110.05Y-250.0
X110.26Y-37.98
X110.26Y-87.98
X110.26Y-137.98
X110.26Y-187.98
X110.26Y-237.98
X111.8Y-39.8
X111.8Y-89.8
X111.8Y-139.8
X111.8Y-189.8
X111.8Y-239.8
X112.9Y-67.5
X112.9Y-117.5
X112.9Y-167.5
X112.9Y-217.5
X112.9Y-267.5
X113.5Y-34.5
X113.5Y-77.5
X113.5Y-84.5
X113.5Y-127.5
X113.5Y-134.5
X113.5Y-177.5
X113.5Y-184.5
X113.5Y-227.5
X113.5Y-234.5
X113.5Y-277.5
X117.1Y-64.7
X117.1Y-114.7
X117.1Y-164.7
X117.1Y-214.7
X117.1Y-264.7
X118.365Y-45.424
X118.365Y-95.424
X118.365Y-145.424
X118.365Y-195.424
X118.365Y-245.424
X119.115Y-38.924
X119.115Y-88.924
X119.115Y-138.924
X119.115Y-188.924
X119.115Y-238.924
X120.071Y-47.88
X120.071Y-97.88
X120.071Y-147.88
X120.071Y-197.88
X120.071Y-247.88
X121.615Y-37.424
X121.615Y-87.424
X121.615Y-137.424
X121.615Y-187.424
X121.615Y-237.424
X121.802Y-59.317
X121.802Y-109.317
X121.802Y-159.317
X121.802Y-209.317
X121.802Y-259.317
X123.5Y-34.5
X123.5Y-77.5
X123.5Y-84.5
X123.5Y-127.5
X123.5Y-134.5
X123.5Y-177.5
X123.5Y-184.5
X123.5Y-227.5
X123.5Y-234.5
X123.5Y-277.5
X124.373Y-52.658
X124.373Y-102.658
X124.373Y-152.658
X124.373Y-202.658
X124.373Y-252.658
X124.615Y-38.924
X124.615Y-88.924
X124.615Y-138.924
X124.615Y-188.924
X124.615Y-238.924
X126.115Y-44.424
X126.115Y-94.424
X126.115Y-144.424
X126.115Y-194.424
X126.115Y-244.424
X131.115Y-37.424
X131.115Y-87.424
X131.115Y-137.424
X131.115Y-187.424
X131.115Y-237.424
X133.5Y-34.5
X133.5Y-77.5
X133.5Y-84.5
X133.5Y-127.5
X133.5Y-134.5
X133.5Y-177.5
X133.5Y-184.5
X133.5Y-227.5
X133.5Y-234.5
X133.5Y-277.5
X141.4Y-45.4
X141.4Y-95.4
X141.4Y-145.4
X141.4Y-195.4
X141.4Y-245.4
X141.7Y-44.1
X141.7Y-94.1
X141.7Y-144.1
X141.7Y-194.1
X141.7Y-244.1
X141.8Y-46.7
X141.8Y-96.7
X141.8Y-146.7
X141.8Y-196.7
X141.8Y-246.7
X143.5Y-34.5
X143.5Y-49.2
X143.5Y-77.5
X143.5Y-84.5
X143.5Y-99.2
X143.5Y-127.5
X143.5Y-134.5
X143.5Y-149.2
X143.5Y-177.5
X143.5Y-184.5
X143.5Y-199.2
X143.5Y-227.5
X143.5Y-234.5
X143.5Y-249.2
X143.5Y-277.5
X147.177Y-59.317
X147.177Y-109.317
X147.177Y-159.317
X147.177Y-209.317
X147.177Y-259.317
X148.5Y-38.0
X148.5Y-74.0
X148.5Y-88.0
X148.5Y-124.0
X148.5Y-138.0
X148.5Y-174.0
X148.5Y-188.0
X148.5Y-224.0
X148.5Y-238.0
X148.5Y-274.0
X149.823Y-52.683
X149.823Y-102.683
X149.823Y-152.683
X149.823Y-202.683
X149.823Y-252.683
X153.5Y-34.5
X153.5Y-62.8
X153.5Y-77.5
X153.5Y-84.5
X153.5Y-112.8
X153.5Y-127.5
X153.5Y-134.5
X153.5Y-162.8
X153.5Y-177.5
X153.5Y-184.5
X153.5Y-212.8
X153.5Y-227.5
X153.5Y-234.5
X153.5Y-262.8
X153.5Y-277.5
X155.2Y-65.3
X155.2Y-115.3
X155.2Y-165.3
X155.2Y-215.3
X155.2Y-265.3
X155.3Y-67.9
X155.3Y-117.9
X155.3Y-167.9
X155.3Y-217.9
X155.3Y-267.9
X155.6Y-66.6
X155.6Y-116.6
X155.6Y-166.6
X155.6Y-216.6
X155.6Y-266.6
X163.5Y-34.5
X163.5Y-77.5
X163.5Y-84.5
X163.5Y-127.5
X163.5Y-134.5
X163.5Y-177.5
X163.5Y-184.5
X163.5Y-227.5
X163.5Y-234.5
X163.5Y-277.5
X165.885Y-74.576
X165.885Y-124.576
X165.885Y-174.576
X165.885Y-224.576
X165.885Y-274.576
X170.885Y-67.576
X170.885Y-117.576
X170.885Y-167.576
X170.885Y-217.576
X170.885Y-267.576
X172.385Y-73.076
X172.385Y-123.076
X172.385Y-173.076
X172.385Y-223.076
X172.385Y-273.076
X172.627Y-59.342
X172.627Y-109.342
X172.627Y-159.342
X172.627Y-209.342
X172.627Y-259.342
X173.5Y-34.5
X173.5Y-77.5
X173.5Y-84.5
X173.5Y-127.5
X173.5Y-134.5
X173.5Y-177.5
X173.5Y-184.5
X173.5Y-227.5
X173.5Y-234.5
X173.5Y-277.5
X175.198Y-52.683
X175.198Y-102.683
X175.198Y-152.683
X175.198Y-202.683
X175.198Y-252.683
X175.385Y-74.576
X175.385Y-124.576
X175.385Y-174.576
X175.385Y-224.576
X175.385Y-274.576
X176.929Y-64.12
X176.929Y-114.12
X176.929Y-164.12
X176.929Y-214.12
X176.929Y-264.12
X177.885Y-73.076
X177.885Y-123.076
X177.885Y-173.076
X177.885Y-223.076
X177.885Y-273.076
X178.635Y-66.576
X178.635Y-116.576
X178.635Y-166.576
X178.635Y-216.576
X178.635Y-266.576
X179.9Y-47.3
X179.9Y-97.3
X179.9Y-147.3
X179.9Y-197.3
X179.9Y-247.3
X183.5Y-34.5
X183.5Y-77.5
X183.5Y-84.5
X183.5Y-127.5
X183.5Y-134.5
X183.5Y-177.5
X183.5Y-184.5
X183.5Y-227.5
X183.5Y-234.5
X183.5Y-277.5
X184.1Y-44.5
X184.1Y-94.5
X184.1Y-144.5
X184.1Y-194.5
X184.1Y-244.5
X185.2Y-72.2
X185.2Y-122.2
X185.2Y-172.2
X185.2Y-222.2
X185.2Y-272.2
X186.74Y-74.02
X186.74Y-124.02
X186.74Y-174.02
X186.74Y-224.02
X186.74Y-274.02
X186.95Y-62.0
X186.95Y-63.0
X186.95Y-112.0
X186.95Y-113.0
X186.95Y-162.0
X186.95Y-163.0
X186.95Y-212.0
X186.95Y-213.0
X186.95Y-262.0
X186.95Y-263.0
X187.95Y-62.0
X187.95Y-63.0
X187.95Y-112.0
X187.95Y-113.0
X187.95Y-162.0
X187.95Y-163.0
X187.95Y-212.0
X187.95Y-213.0
X187.95Y-262.0
X187.95Y-263.0
X188.1Y-42.1
X188.1Y-92.1
X188.1Y-142.1
X188.1Y-192.1
X188.1Y-242.1
X188.95Y-62.0
X188.95Y-63.0
X188.95Y-112.0
X188.95Y-113.0
X188.95Y-162.0
X188.95Y-163.0
X188.95Y-212.0
X188.95Y-213.0
X188.95Y-262.0
X188.95Y-263.0
X189.1Y-67.35
X189.1Y-117.35
X189.1Y-167.35
X189.1Y-217.35
X189.1Y-267.35
X189.95Y-62.0
X189.95Y-63.0
X189.95Y-112.0
X189.95Y-113.0
X189.95Y-162.0
X189.95Y-163.0
X189.95Y-212.0
X189.95Y-213.0
X189.95Y-262.0
X189.95Y-263.0
X190.95Y-62.0
X190.95Y-112.0
X190.95Y-162.0
X190.95Y-212.0
X190.95Y-262.0
X191.95Y-62.0
X191.95Y-112.0
X191.95Y-162.0
X191.95Y-212.0
X191.95Y-262.0
X192.1Y-39.6
X192.1Y-89.6
X192.1Y-139.6
X192.1Y-189.6
X192.1Y-239.6
X193.5Y-34.5
X193.5Y-77.5
X193.5Y-84.5
X193.5Y-127.5
X193.5Y-134.5
X193.5Y-177.5
X193.5Y-184.5
X193.5Y-227.5
X193.5Y-234.5
X193.5Y-277.5
X198.002Y-59.367
X198.002Y-109.367
X198.002Y-159.367
X198.002Y-209.367
X198.002Y-259.367
X200.598Y-52.683
X200.598Y-102.683
X200.598Y-152.683
X200.598Y-202.683
X200.598Y-252.683
X203.5Y-34.5
X203.5Y-77.5
X203.5Y-84.5
X203.5Y-127.5
X203.5Y-134.5
X203.5Y-177.5
X203.5Y-184.5
X203.5Y-227.5
X203.5Y-234.5
X203.5Y-277.5
X205.0Y-44.8
X205.0Y-94.8
X205.0Y-144.8
X205.0Y-194.8
X205.0Y-244.8
X205.5Y-40.8
X205.5Y-90.8
X205.5Y-140.8
X205.5Y-190.8
X205.5Y-240.8
X205.7Y-46.2
X205.7Y-96.2
X205.7Y-146.2
X205.7Y-196.2
X205.7Y-246.2
X206.674Y-39.574
X206.674Y-89.574
X206.674Y-139.574
X206.674Y-189.574
X206.674Y-239.574
X206.8Y-47.8
X206.8Y-97.8
X206.8Y-147.8
X206.8Y-197.8
X206.8Y-247.8
X208.2Y-38.2
X208.2Y-88.2
X208.2Y-138.2
X208.2Y-188.2
X208.2Y-238.2
X210.1Y-49.5
X210.1Y-99.5
X210.1Y-149.5
X210.1Y-199.5
X210.1Y-249.5
X211.8Y-49.5
X211.8Y-99.5
X211.8Y-149.5
X211.8Y-199.5
X211.8Y-249.5
X212.1Y-37.5
X212.1Y-87.5
X212.1Y-137.5
X212.1Y-187.5
X212.1Y-237.5
X213.5Y-34.5
X213.5Y-38.3
X213.5Y-77.5
X213.5Y-84.5
X213.5Y-88.3
X213.5Y-127.5
X213.5Y-134.5
X213.5Y-138.3
X213.5Y-177.5
X213.5Y-184.5
X213.5Y-188.3
X213.5Y-227.5
X213.5Y-234.5
X213.5Y-238.3
X213.5Y-277.5
X213.6Y-48.7
X213.6Y-98.7
X213.6Y-148.7
X213.6Y-198.7
X213.6Y-248.7
X215.2Y-39.3
X215.2Y-89.3
X215.2Y-139.3
X215.2Y-189.3
X215.2Y-239.3
X216.5Y-45.8
X216.5Y-95.8
X216.5Y-145.8
X216.5Y-195.8
X216.5Y-245.8
X216.6Y-42.4
X216.6Y-92.4
X216.6Y-142.4
X216.6Y-192.4
X216.6Y-242.4
X216.8Y-44.4
X216.8Y-94.4
X216.8Y-144.4
X216.8Y-194.4
X216.8Y-244.4
X223.402Y-59.418
X223.402Y-109.418
X223.402Y-159.418
X223.402Y-209.418
X223.402Y-259.418
X223.5Y-34.5
X223.5Y-77.5
X223.5Y-84.5
X223.5Y-127.5
X223.5Y-134.5
X223.5Y-177.5
X223.5Y-184.5
X223.5Y-227.5
X223.5Y-234.5
X223.5Y-277.5
T2
X131.395Y-50.4
X131.395Y-100.4
X131.395Y-150.4
X131.395Y-200.4
X131.395Y-250.4
X165.605Y-61.6
X165.605Y-111.6
X165.605Y-161.6
X165.605Y-211.6
X165.605Y-261.6
T3
X74.555Y-73.9
X74.555Y-123.9
X74.555Y-173.9
X74.555Y-223.9
X74.555Y-273.9
X222.445Y-38.1
X222.445Y-88.1
X222.445Y-138.1
X222.445Y-188.1
X222.445Y-238.1
T4
X74.555Y-68.1
X74.555Y-118.1
X74.555Y-168.1
X74.555Y-218.1
X74.555Y-268.1
X222.445Y-43.9
X222.445Y-93.9
X222.445Y-143.9
X222.445Y-193.9
X222.445Y-243.9
T5
X74.555Y-61.3
X74.555Y-111.3
X74.555Y-161.3
X74.555Y-211.3
X74.555Y-261.3
X222.445Y-50.7
X222.445Y-100.7
X222.445Y-150.7
X222.445Y-200.7
X222.445Y-250.7
M30
