M48
; DRILL file {KiCad 8.0.4-8.0.4-0~ubuntu22.04.1} date 2024-09-06T10:46:16-0400
; FORMAT={-:-/ absolute / metric / decimal}
; #@! TF.CreationDate,2024-09-06T10:46:16-04:00
; #@! TF.GenerationSoftware,Kicad,Pcbnew,8.0.4-8.0.4-0~ubuntu22.04.1
; #@! TF.FileFunction,NonPlated,1,2,NPTH
FMAT,2
METRIC
; #@! TA.AperFunction,NonPlated,NPTH,ComponentDrill
T1C0.900
; #@! TA.AperFunction,NonPlated,NPTH,ComponentDrill
T2C1.200
%
G90
G05
T1
X73.895Y-42.0
X73.895Y-45.0
X73.895Y-92.0
X73.895Y-95.0
X73.895Y-142.0
X73.895Y-145.0
X73.895Y-192.0
X73.895Y-195.0
X73.895Y-242.0
X73.895Y-245.0
X223.105Y-67.0
X223.105Y-70.0
X223.105Y-117.0
X223.105Y-120.0
X223.105Y-167.0
X223.105Y-170.0
X223.105Y-217.0
X223.105Y-220.0
X223.105Y-267.0
X223.105Y-270.0
T2
X83.445Y-43.5
X83.445Y-93.5
X83.445Y-143.5
X83.445Y-193.5
X83.445Y-243.5
X90.945Y-43.5
X90.945Y-93.5
X90.945Y-143.5
X90.945Y-193.5
X90.945Y-243.5
X206.055Y-68.5
X206.055Y-118.5
X206.055Y-168.5
X206.055Y-218.5
X206.055Y-268.5
X213.555Y-68.5
X213.555Y-118.5
X213.555Y-168.5
X213.555Y-218.5
X213.555Y-268.5
M30
