%TF.GenerationSoftware,KiCad,Pcbnew,8.0.1-rc1*%
%TF.CreationDate,2024-09-02T14:56:06-04:00*%
%TF.ProjectId,Ruler_CCI_V1,52756c65-725f-4434-9349-5f56312e6b69,rev?*%
%TF.SameCoordinates,Original*%
%TF.FileFunction,Copper,L2,Bot*%
%TF.FilePolarity,Positive*%
%FSLAX46Y46*%
G04 Gerber Fmt 4.6, Leading zero omitted, Abs format (unit mm)*
G04 Created by KiCad (PCBNEW 8.0.1-rc1) date 2024-09-02 14:56:06*
%MOMM*%
%LPD*%
G01*
G04 APERTURE LIST*
%TA.AperFunction,ViaPad*%
%ADD10C,0.600000*%
%TD*%
%TA.AperFunction,Conductor*%
%ADD11C,0.200000*%
%TD*%
%ADD12C,0.300000*%
%ADD13C,0.350000*%
G04 APERTURE END LIST*
D10*
%TO.N,GND*%
X152000000Y-96300000D03*
X156200000Y-93500000D03*
X113800000Y-93100000D03*
X91215000Y-87923582D03*
X80000000Y-93650000D03*
X103215000Y-86423582D03*
X164200000Y-88600000D03*
X120600000Y-87000000D03*
X113900000Y-95700000D03*
X160200000Y-91100000D03*
X82360000Y-86980000D03*
%TO.N,Net-(U2-CV)*%
X98215000Y-93423582D03*
X93715000Y-86423582D03*
%TO.N,+6.8V*%
X80150000Y-98000000D03*
X78150000Y-99000000D03*
X105600000Y-83500000D03*
X65600000Y-83500000D03*
X187300000Y-88300000D03*
X182200000Y-98500000D03*
X165600000Y-83500000D03*
X95600000Y-83500000D03*
X135600000Y-83500000D03*
X121825400Y-106629800D03*
X81150000Y-99000000D03*
X79150000Y-99000000D03*
X115600000Y-98200000D03*
X85600000Y-83500000D03*
X195600000Y-83500000D03*
X188600000Y-94800000D03*
X80150000Y-99000000D03*
X96715000Y-87923582D03*
X177100000Y-93800000D03*
X147200000Y-106629800D03*
X79150000Y-98000000D03*
X155600000Y-83500000D03*
X92171250Y-96879832D03*
X45600000Y-106528200D03*
X71000000Y-106579000D03*
X77150000Y-99000000D03*
X81150000Y-98000000D03*
X82150000Y-99000000D03*
X185600000Y-83500000D03*
X45600000Y-83500000D03*
X180300000Y-87200000D03*
X75600000Y-83500000D03*
X175600000Y-83500000D03*
X96374600Y-106604400D03*
X83900000Y-88800000D03*
X125600000Y-83500000D03*
X145600000Y-83500000D03*
X82150000Y-98000000D03*
X55600000Y-83500000D03*
X172600000Y-106629800D03*
X115600000Y-83500000D03*
%TO.N,Net-(D11-A)*%
X184200000Y-86500000D03*
X183900000Y-98500000D03*
%TO.N,PWM*%
X90465000Y-94423582D03*
X113500000Y-94400000D03*
%TO.N,Net-(D12-A)*%
X188700000Y-91400000D03*
X177800000Y-95200000D03*
%TO.N,Net-(D13-A)*%
X185700000Y-97700000D03*
X178774265Y-88574265D03*
%TO.N,Net-(D14-A)*%
X185600000Y-87300000D03*
X178900000Y-96800000D03*
%TO.N,Net-(D15-A)*%
X188900000Y-93400000D03*
X177600000Y-89800000D03*
%TD*%
D11*
%TO.N,Net-(U2-CV)*%
X93715000Y-86423582D02*
X93715000Y-92923582D01*
X94215000Y-93423582D02*
X98215000Y-93423582D01*
X93715000Y-92923582D02*
X94215000Y-93423582D01*
%TO.N,+6.8V*%
X185600000Y-83500000D02*
X187300000Y-85200000D01*
X71098000Y-101632600D02*
X96447200Y-101632600D01*
X188801077Y-94800000D02*
X188600000Y-94800000D01*
X188600000Y-96500000D02*
X188600000Y-94800000D01*
X182200000Y-98500000D02*
X182800000Y-99100000D01*
X187300000Y-87800000D02*
X187300000Y-88300000D01*
X181600000Y-85900000D02*
X185400000Y-85900000D01*
X176300000Y-93000000D02*
X177100000Y-93800000D01*
X85600000Y-92436400D02*
X90043432Y-96879832D01*
X187300000Y-85200000D02*
X187300000Y-88300000D01*
X95600000Y-83500000D02*
X95600000Y-86808582D01*
X175600000Y-85900000D02*
X176540000Y-86840000D01*
X176880000Y-94020000D02*
X176880000Y-96280000D01*
X45600000Y-83500000D02*
X85600000Y-83500000D01*
X185400000Y-85900000D02*
X187300000Y-87800000D01*
X176300000Y-88747452D02*
X176300000Y-93000000D01*
X179940000Y-86840000D02*
X180300000Y-87200000D01*
X189820000Y-90820000D02*
X187300000Y-88300000D01*
X189820000Y-93781077D02*
X189820000Y-90820000D01*
X195600000Y-83500000D02*
X195600000Y-88001077D01*
X96447200Y-101632600D02*
X96472600Y-101658000D01*
X188801077Y-94800000D02*
X189820000Y-93781077D01*
X90043432Y-96879832D02*
X92171250Y-96879832D01*
X179100000Y-98500000D02*
X182200000Y-98500000D01*
X85600000Y-92436400D02*
X85600000Y-83500000D01*
X186000000Y-99100000D02*
X188600000Y-96500000D01*
X182800000Y-99100000D02*
X186000000Y-99100000D01*
X176540000Y-86840000D02*
X179940000Y-86840000D01*
X85600000Y-83500000D02*
X195600000Y-83500000D01*
X178207452Y-86840000D02*
X176300000Y-88747452D01*
X182200000Y-98500000D02*
X179016600Y-101683400D01*
X85600000Y-87100000D02*
X83900000Y-88800000D01*
X179940000Y-86840000D02*
X178207452Y-86840000D01*
X177100000Y-93800000D02*
X176880000Y-94020000D01*
X195600000Y-88001077D02*
X188801077Y-94800000D01*
X176880000Y-96280000D02*
X179100000Y-98500000D01*
X85600000Y-83500000D02*
X85600000Y-87100000D01*
X95600000Y-86808582D02*
X96715000Y-87923582D01*
X172596400Y-101581800D02*
X172698000Y-101683400D01*
X115600000Y-98200000D02*
X115600000Y-83500000D01*
X175600000Y-83500000D02*
X175600000Y-85900000D01*
X179016600Y-101683400D02*
X172698000Y-101683400D01*
X180300000Y-87200000D02*
X181600000Y-85900000D01*
%TO.N,Net-(D11-A)*%
X182800000Y-97400000D02*
X178651471Y-97400000D01*
X183900000Y-98500000D02*
X182800000Y-97400000D01*
X177200000Y-95948529D02*
X177200000Y-94800000D01*
X178340000Y-87160000D02*
X179400000Y-87160000D01*
X180140000Y-87900000D02*
X182800000Y-87900000D01*
X176680000Y-91480000D02*
X176680000Y-88820000D01*
X177200000Y-94800000D02*
X178600000Y-93400000D01*
X176680000Y-88820000D02*
X178340000Y-87160000D01*
X178600000Y-93400000D02*
X176680000Y-91480000D01*
X178651471Y-97400000D02*
X177200000Y-95948529D01*
X179400000Y-87160000D02*
X180140000Y-87900000D01*
X182800000Y-87900000D02*
X184200000Y-86500000D01*
%TO.N,PWM*%
X113476418Y-94423582D02*
X113500000Y-94400000D01*
X90465000Y-94423582D02*
X113476418Y-94423582D01*
%TO.N,Net-(D12-A)*%
X177000000Y-90200000D02*
X179400000Y-92600000D01*
X179400000Y-92600000D02*
X179400000Y-93600000D01*
X188700000Y-91400000D02*
X182900000Y-91400000D01*
X178567452Y-87480000D02*
X177000000Y-89047452D01*
X177000000Y-89047452D02*
X177000000Y-90200000D01*
X182900000Y-91400000D02*
X178980000Y-87480000D01*
X179400000Y-93600000D02*
X177800000Y-95200000D01*
X178980000Y-87480000D02*
X178567452Y-87480000D01*
%TO.N,Net-(D13-A)*%
X185700000Y-97200000D02*
X185700000Y-97700000D01*
X178774265Y-88574265D02*
X178774265Y-90274265D01*
X178774265Y-90274265D02*
X185700000Y-97200000D01*
%TO.N,Net-(D14-A)*%
X188400000Y-94000000D02*
X189148529Y-94000000D01*
X189500000Y-93648529D02*
X189500000Y-91348529D01*
X186600000Y-95800000D02*
X188400000Y-94000000D01*
X185600000Y-87448529D02*
X185600000Y-87300000D01*
X189148529Y-94000000D02*
X189500000Y-93648529D01*
X189500000Y-91348529D02*
X185600000Y-87448529D01*
X186600000Y-98000000D02*
X186600000Y-95800000D01*
X178900000Y-96800000D02*
X183951471Y-96800000D01*
X185451471Y-98300000D02*
X186300000Y-98300000D01*
X186300000Y-98300000D02*
X186600000Y-98000000D01*
X183951471Y-96800000D02*
X185451471Y-98300000D01*
%TO.N,Net-(D15-A)*%
X188900000Y-93400000D02*
X182700000Y-93400000D01*
X179374265Y-88325736D02*
X178848529Y-87800000D01*
X182700000Y-93400000D02*
X179374265Y-90074265D01*
X178700000Y-87800000D02*
X177600000Y-88900000D01*
X177600000Y-88900000D02*
X177600000Y-89800000D01*
X178848529Y-87800000D02*
X178700000Y-87800000D01*
X179374265Y-90074265D02*
X179374265Y-88325736D01*
%TD*%
%TA.AperFunction,Conductor*%
%TO.N,+6.8V*%
G36*
X82367628Y-99257967D02*
G01*
X82367627Y-99257967D01*
X82295667Y-99960813D01*
X82286383Y-99996802D01*
X82003174Y-100661271D01*
X82003169Y-100661284D01*
X81981392Y-100723267D01*
X81972727Y-100754231D01*
X81972727Y-100754233D01*
X81959173Y-100818513D01*
X81959173Y-100962393D01*
X81959174Y-100962397D01*
X81969118Y-101031555D01*
X82009653Y-101169604D01*
X82087441Y-101290643D01*
X82088942Y-101292375D01*
X82116797Y-101324522D01*
X82145821Y-101388078D01*
X82146438Y-101418353D01*
X82128002Y-101598429D01*
X82101592Y-101663115D01*
X82044403Y-101703254D01*
X82004647Y-101709800D01*
X76480920Y-101709800D01*
X76413881Y-101690115D01*
X76368126Y-101637311D01*
X76358182Y-101568153D01*
X76387207Y-101504597D01*
X76424462Y-101476789D01*
X76423942Y-101475829D01*
X76489251Y-101440416D01*
X76489252Y-101440414D01*
X76489256Y-101440413D01*
X76604689Y-101354528D01*
X76691251Y-101239599D01*
X76722381Y-101182984D01*
X76723477Y-101181178D01*
X76724906Y-101178390D01*
X76724916Y-101178374D01*
X76724918Y-101178371D01*
X76775593Y-101043710D01*
X77062921Y-99741251D01*
X77074789Y-99633087D01*
X77074866Y-99580016D01*
X77063315Y-99471831D01*
X77013033Y-99337022D01*
X76979548Y-99275699D01*
X76966274Y-99257967D01*
X76953222Y-99240531D01*
X76947496Y-99232194D01*
X76912197Y-99176017D01*
X76889961Y-99140629D01*
X76877920Y-99115627D01*
X76865188Y-99079242D01*
X76859012Y-99052179D01*
X76854697Y-99013883D01*
X76854696Y-98986125D01*
X76859011Y-98947815D01*
X76865186Y-98920761D01*
X76877920Y-98884370D01*
X76889958Y-98859372D01*
X76910474Y-98826721D01*
X76927776Y-98805027D01*
X76955027Y-98777776D01*
X76976726Y-98760471D01*
X77054985Y-98711297D01*
X77067232Y-98704535D01*
X77077712Y-98699499D01*
X77124175Y-98670398D01*
X77212244Y-98600480D01*
X77298806Y-98485551D01*
X77298808Y-98485548D01*
X77298811Y-98485543D01*
X77310357Y-98464542D01*
X77332471Y-98424326D01*
X77332472Y-98424323D01*
X77332481Y-98424296D01*
X77332723Y-98423746D01*
X77333282Y-98422170D01*
X77383148Y-98289663D01*
X77534677Y-97602787D01*
X77568341Y-97541562D01*
X77629762Y-97508257D01*
X77655765Y-97505500D01*
X78598640Y-97505500D01*
X78608786Y-97504955D01*
X78652678Y-97502603D01*
X78652686Y-97502602D01*
X78652688Y-97502602D01*
X78652689Y-97502602D01*
X78659682Y-97501849D01*
X78679036Y-97499769D01*
X78679046Y-97499767D01*
X78679049Y-97499767D01*
X78688648Y-97498211D01*
X78732448Y-97491114D01*
X78867257Y-97440832D01*
X78928580Y-97407347D01*
X79043762Y-97321123D01*
X79485948Y-96878936D01*
X79528624Y-96824535D01*
X82367628Y-99257967D01*
G37*
%TD.AperFunction*%
%TD*%
%TA.AperFunction,Conductor*%
%TO.N,+6.8V*%
G36*
X95597548Y-83416703D02*
G01*
X95600000Y-83423870D01*
X95600000Y-83588908D01*
X95596573Y-83597181D01*
X95588924Y-83600591D01*
X95360210Y-83612808D01*
X95351766Y-83609828D01*
X95347903Y-83601749D01*
X95350883Y-83593305D01*
X95352413Y-83591882D01*
X95581133Y-83414621D01*
X95589771Y-83412263D01*
X95597548Y-83416703D01*
G37*
%TD.AperFunction*%
%TD*%
%TA.AperFunction,Conductor*%
%TO.N,Net-(D14-A)*%
G36*
X185873532Y-87190390D02*
G01*
X185879844Y-87196742D01*
X185880388Y-87198413D01*
X186004377Y-87706652D01*
X186003008Y-87715502D01*
X186001283Y-87717698D01*
X185871542Y-87847439D01*
X185863269Y-87850866D01*
X185856445Y-87848669D01*
X185667609Y-87713045D01*
X185399019Y-87520140D01*
X185394298Y-87512530D01*
X185396341Y-87503812D01*
X185397535Y-87502399D01*
X185597629Y-87300967D01*
X185601480Y-87298394D01*
X185864577Y-87190363D01*
X185873532Y-87190390D01*
G37*
%TD.AperFunction*%
%TD*%
%TA.AperFunction,Conductor*%
%TO.N,Net-(U2-CV)*%
G36*
X98098641Y-93150632D02*
G01*
X98104503Y-93156730D01*
X98214115Y-93419071D01*
X98214142Y-93428026D01*
X98214115Y-93428093D01*
X98104503Y-93690433D01*
X98098151Y-93696745D01*
X98089694Y-93696911D01*
X97955947Y-93648075D01*
X97622687Y-93526388D01*
X97616091Y-93520332D01*
X97615000Y-93515398D01*
X97615000Y-93331765D01*
X97618427Y-93323492D01*
X97622687Y-93320775D01*
X98089697Y-93150251D01*
X98098641Y-93150632D01*
G37*
%TD.AperFunction*%
%TD*%
%TA.AperFunction,Conductor*%
%TO.N,Net-(D11-A)*%
G36*
X183553864Y-98008475D02*
G01*
X184004671Y-98218123D01*
X184010726Y-98224718D01*
X184010559Y-98233175D01*
X183902563Y-98496184D01*
X183896251Y-98502536D01*
X183896184Y-98502563D01*
X183633175Y-98610559D01*
X183624220Y-98610532D01*
X183618123Y-98604671D01*
X183408475Y-98153865D01*
X183408095Y-98144920D01*
X183410810Y-98140662D01*
X183540661Y-98010811D01*
X183548933Y-98007385D01*
X183553864Y-98008475D01*
G37*
%TD.AperFunction*%
%TD*%
%TA.AperFunction,Conductor*%
%TO.N,GND*%
G36*
X195604043Y-80500765D02*
G01*
X195852895Y-80517075D01*
X195868953Y-80519190D01*
X196076105Y-80560395D01*
X196109535Y-80567045D01*
X196125202Y-80571243D01*
X196294947Y-80628863D01*
X196357481Y-80650091D01*
X196372458Y-80656294D01*
X196581799Y-80759529D01*
X196592460Y-80764787D01*
X196606508Y-80772897D01*
X196810464Y-80909177D01*
X196823328Y-80919048D01*
X197007749Y-81080781D01*
X197019218Y-81092250D01*
X197180951Y-81276671D01*
X197190825Y-81289539D01*
X197327102Y-81493492D01*
X197335212Y-81507539D01*
X197443702Y-81727534D01*
X197449909Y-81742520D01*
X197528756Y-81974797D01*
X197532954Y-81990464D01*
X197580807Y-82231035D01*
X197582925Y-82247116D01*
X197599235Y-82495956D01*
X197599500Y-82504066D01*
X197599500Y-102495933D01*
X197599235Y-102504043D01*
X197582925Y-102752883D01*
X197580807Y-102768964D01*
X197532954Y-103009535D01*
X197528756Y-103025202D01*
X197449909Y-103257479D01*
X197443702Y-103272465D01*
X197335212Y-103492460D01*
X197327102Y-103506507D01*
X197190825Y-103710460D01*
X197180951Y-103723328D01*
X197019218Y-103907749D01*
X197007749Y-103919218D01*
X196823328Y-104080951D01*
X196810460Y-104090825D01*
X196606507Y-104227102D01*
X196592460Y-104235212D01*
X196372465Y-104343702D01*
X196357479Y-104349909D01*
X196125202Y-104428756D01*
X196109535Y-104432954D01*
X195868964Y-104480807D01*
X195852883Y-104482925D01*
X195604043Y-104499235D01*
X195595933Y-104499500D01*
X45604067Y-104499500D01*
X45595957Y-104499235D01*
X45347116Y-104482925D01*
X45331035Y-104480807D01*
X45090464Y-104432954D01*
X45074797Y-104428756D01*
X44842520Y-104349909D01*
X44827534Y-104343702D01*
X44607539Y-104235212D01*
X44593492Y-104227102D01*
X44389539Y-104090825D01*
X44376671Y-104080951D01*
X44192250Y-103919218D01*
X44180781Y-103907749D01*
X44019048Y-103723328D01*
X44009174Y-103710460D01*
X43872897Y-103506507D01*
X43864787Y-103492460D01*
X43758855Y-103277652D01*
X43756294Y-103272458D01*
X43750090Y-103257479D01*
X43671243Y-103025202D01*
X43667045Y-103009535D01*
X43659186Y-102970026D01*
X43619190Y-102768953D01*
X43617075Y-102752895D01*
X43600765Y-102504043D01*
X43600500Y-102495933D01*
X43600500Y-101581803D01*
X44892435Y-101581803D01*
X44912630Y-101761049D01*
X44912631Y-101761054D01*
X44972211Y-101931323D01*
X45036051Y-102032923D01*
X45068184Y-102084062D01*
X45195738Y-102211616D01*
X45348478Y-102307589D01*
X45493653Y-102358388D01*
X45518745Y-102367168D01*
X45518750Y-102367169D01*
X45697996Y-102387365D01*
X45698000Y-102387365D01*
X45698004Y-102387365D01*
X45877249Y-102367169D01*
X45877252Y-102367168D01*
X45877255Y-102367168D01*
X46047522Y-102307589D01*
X46200262Y-102211616D01*
X46327816Y-102084062D01*
X46423789Y-101931322D01*
X46483368Y-101761055D01*
X46483369Y-101761049D01*
X46503565Y-101581803D01*
X46503565Y-101581796D01*
X46483369Y-101402550D01*
X46483368Y-101402545D01*
X46459340Y-101333876D01*
X46423789Y-101232278D01*
X46327816Y-101079538D01*
X46200262Y-100951984D01*
X46172935Y-100934813D01*
X46047523Y-100856011D01*
X45877254Y-100796431D01*
X45877249Y-100796430D01*
X45698004Y-100776235D01*
X45697996Y-100776235D01*
X45518750Y-100796430D01*
X45518745Y-100796431D01*
X45348476Y-100856011D01*
X45195737Y-100951984D01*
X45068184Y-101079537D01*
X44972211Y-101232276D01*
X44912631Y-101402545D01*
X44912630Y-101402550D01*
X44892435Y-101581796D01*
X44892435Y-101581803D01*
X43600500Y-101581803D01*
X43600500Y-94068995D01*
X45294499Y-94068995D01*
X45321418Y-94204322D01*
X45321421Y-94204332D01*
X45374221Y-94331804D01*
X45374228Y-94331817D01*
X45450885Y-94446541D01*
X45450888Y-94446545D01*
X45548454Y-94544111D01*
X45548458Y-94544114D01*
X45663182Y-94620771D01*
X45663195Y-94620778D01*
X45790667Y-94673578D01*
X45790672Y-94673580D01*
X45790676Y-94673580D01*
X45790677Y-94673581D01*
X45926004Y-94700500D01*
X45926007Y-94700500D01*
X46063995Y-94700500D01*
X46155041Y-94682389D01*
X46199328Y-94673580D01*
X46326811Y-94620775D01*
X46441542Y-94544114D01*
X46539114Y-94446542D01*
X46615775Y-94331811D01*
X46668580Y-94204328D01*
X46681460Y-94139578D01*
X46695500Y-94068995D01*
X46695500Y-93931004D01*
X46668581Y-93795677D01*
X46668580Y-93795676D01*
X46668580Y-93795672D01*
X46640323Y-93727453D01*
X46615778Y-93668195D01*
X46615771Y-93668182D01*
X46539114Y-93553458D01*
X46539111Y-93553454D01*
X46441545Y-93455888D01*
X46441541Y-93455885D01*
X46326817Y-93379228D01*
X46326804Y-93379221D01*
X46199332Y-93326421D01*
X46199322Y-93326418D01*
X46063995Y-93299500D01*
X46063993Y-93299500D01*
X45926007Y-93299500D01*
X45926005Y-93299500D01*
X45790677Y-93326418D01*
X45790667Y-93326421D01*
X45663195Y-93379221D01*
X45663182Y-93379228D01*
X45548458Y-93455885D01*
X45548454Y-93455888D01*
X45450888Y-93553454D01*
X45450885Y-93553458D01*
X45374228Y-93668182D01*
X45374221Y-93668195D01*
X45321421Y-93795667D01*
X45321418Y-93795677D01*
X45294500Y-93931004D01*
X45294500Y-93931007D01*
X45294500Y-94068993D01*
X45294500Y-94068995D01*
X45294499Y-94068995D01*
X43600500Y-94068995D01*
X43600500Y-92583771D01*
X54694500Y-92583771D01*
X54727182Y-92748074D01*
X54727184Y-92748082D01*
X54791295Y-92902860D01*
X54884373Y-93042162D01*
X55002837Y-93160626D01*
X55095494Y-93222537D01*
X55142137Y-93253703D01*
X55296918Y-93317816D01*
X55461228Y-93350499D01*
X55461232Y-93350500D01*
X55461233Y-93350500D01*
X55628768Y-93350500D01*
X55628769Y-93350499D01*
X55793082Y-93317816D01*
X55947863Y-93253703D01*
X56087162Y-93160626D01*
X56205626Y-93042162D01*
X56298703Y-92902863D01*
X56362816Y-92748082D01*
X56395499Y-92583771D01*
X62194500Y-92583771D01*
X62227182Y-92748074D01*
X62227184Y-92748082D01*
X62291295Y-92902860D01*
X62384373Y-93042162D01*
X62502837Y-93160626D01*
X62595494Y-93222537D01*
X62642137Y-93253703D01*
X62796918Y-93317816D01*
X62961228Y-93350499D01*
X62961232Y-93350500D01*
X62961233Y-93350500D01*
X63128768Y-93350500D01*
X63128769Y-93350499D01*
X63293082Y-93317816D01*
X63447863Y-93253703D01*
X63587162Y-93160626D01*
X63705626Y-93042162D01*
X63798703Y-92902863D01*
X63862816Y-92748082D01*
X63895500Y-92583767D01*
X63895500Y-92416233D01*
X63862816Y-92251918D01*
X63798703Y-92097137D01*
X63734132Y-92000500D01*
X63705626Y-91957837D01*
X63587162Y-91839373D01*
X63447860Y-91746295D01*
X63293082Y-91682184D01*
X63293074Y-91682182D01*
X63128771Y-91649500D01*
X63128767Y-91649500D01*
X62961233Y-91649500D01*
X62961228Y-91649500D01*
X62796925Y-91682182D01*
X62796917Y-91682184D01*
X62642139Y-91746295D01*
X62502837Y-91839373D01*
X62384373Y-91957837D01*
X62291295Y-92097139D01*
X62227184Y-92251917D01*
X62227182Y-92251925D01*
X62194500Y-92416228D01*
X62194500Y-92583771D01*
X56395499Y-92583771D01*
X56395500Y-92583767D01*
X56395500Y-92416233D01*
X56362816Y-92251918D01*
X56298703Y-92097137D01*
X56234132Y-92000500D01*
X56205626Y-91957837D01*
X56087162Y-91839373D01*
X55947860Y-91746295D01*
X55793082Y-91682184D01*
X55793074Y-91682182D01*
X55628771Y-91649500D01*
X55628767Y-91649500D01*
X55461233Y-91649500D01*
X55461228Y-91649500D01*
X55296925Y-91682182D01*
X55296917Y-91682184D01*
X55142139Y-91746295D01*
X55002837Y-91839373D01*
X54884373Y-91957837D01*
X54791295Y-92097139D01*
X54727184Y-92251917D01*
X54727182Y-92251925D01*
X54694500Y-92416228D01*
X54694500Y-92583771D01*
X43600500Y-92583771D01*
X43600500Y-91068995D01*
X45294499Y-91068995D01*
X45321418Y-91204322D01*
X45321421Y-91204332D01*
X45374221Y-91331804D01*
X45374228Y-91331817D01*
X45450885Y-91446541D01*
X45450888Y-91446545D01*
X45548454Y-91544111D01*
X45548458Y-91544114D01*
X45663182Y-91620771D01*
X45663195Y-91620778D01*
X45790667Y-91673578D01*
X45790672Y-91673580D01*
X45790676Y-91673580D01*
X45790677Y-91673581D01*
X45926004Y-91700500D01*
X45926007Y-91700500D01*
X46063995Y-91700500D01*
X46156083Y-91682182D01*
X46199328Y-91673580D01*
X46326811Y-91620775D01*
X46441542Y-91544114D01*
X46539114Y-91446542D01*
X46615775Y-91331811D01*
X46668580Y-91204328D01*
X46695500Y-91068993D01*
X46695500Y-90931007D01*
X46695500Y-90931004D01*
X46668581Y-90795677D01*
X46668580Y-90795676D01*
X46668580Y-90795672D01*
X46651644Y-90754785D01*
X46615778Y-90668195D01*
X46615771Y-90668182D01*
X46539114Y-90553458D01*
X46539111Y-90553454D01*
X46441545Y-90455888D01*
X46441541Y-90455885D01*
X46326817Y-90379228D01*
X46326804Y-90379221D01*
X46199332Y-90326421D01*
X46199322Y-90326418D01*
X46063995Y-90299500D01*
X46063993Y-90299500D01*
X45926007Y-90299500D01*
X45926005Y-90299500D01*
X45790677Y-90326418D01*
X45790667Y-90326421D01*
X45663195Y-90379221D01*
X45663182Y-90379228D01*
X45548458Y-90455885D01*
X45548454Y-90455888D01*
X45450888Y-90553454D01*
X45450885Y-90553458D01*
X45374228Y-90668182D01*
X45374221Y-90668195D01*
X45321421Y-90795667D01*
X45321418Y-90795677D01*
X45294500Y-90931004D01*
X45294500Y-90931007D01*
X45294500Y-91068993D01*
X45294500Y-91068995D01*
X45294499Y-91068995D01*
X43600500Y-91068995D01*
X43600500Y-83500003D01*
X44794435Y-83500003D01*
X44814630Y-83679249D01*
X44814631Y-83679254D01*
X44874211Y-83849523D01*
X44970184Y-84002262D01*
X45097738Y-84129816D01*
X45188080Y-84186582D01*
X45248426Y-84224500D01*
X45250478Y-84225789D01*
X45334187Y-84255080D01*
X45420745Y-84285368D01*
X45420750Y-84285369D01*
X45599996Y-84305565D01*
X45600000Y-84305565D01*
X45600004Y-84305565D01*
X45779249Y-84285369D01*
X45779250Y-84285368D01*
X45779255Y-84285368D01*
X45858251Y-84257725D01*
X45873651Y-84253431D01*
X45898687Y-84248166D01*
X46249184Y-84120185D01*
X46282495Y-84108022D01*
X46325026Y-84100500D01*
X55017588Y-84100500D01*
X55084627Y-84120185D01*
X55094903Y-84127555D01*
X55097736Y-84129814D01*
X55097738Y-84129816D01*
X55211270Y-84201152D01*
X55248426Y-84224500D01*
X55250478Y-84225789D01*
X55334187Y-84255080D01*
X55420745Y-84285368D01*
X55420750Y-84285369D01*
X55599996Y-84305565D01*
X55600000Y-84305565D01*
X55600004Y-84305565D01*
X55779249Y-84285369D01*
X55779252Y-84285368D01*
X55779255Y-84285368D01*
X55949522Y-84225789D01*
X56102262Y-84129816D01*
X56102267Y-84129810D01*
X56105097Y-84127555D01*
X56107275Y-84126665D01*
X56108158Y-84126111D01*
X56108255Y-84126265D01*
X56169783Y-84101145D01*
X56182412Y-84100500D01*
X65017588Y-84100500D01*
X65084627Y-84120185D01*
X65094903Y-84127555D01*
X65097736Y-84129814D01*
X65097738Y-84129816D01*
X65211270Y-84201152D01*
X65248426Y-84224500D01*
X65250478Y-84225789D01*
X65334187Y-84255080D01*
X65420745Y-84285368D01*
X65420750Y-84285369D01*
X65599996Y-84305565D01*
X65600000Y-84305565D01*
X65600004Y-84305565D01*
X65779249Y-84285369D01*
X65779252Y-84285368D01*
X65779255Y-84285368D01*
X65949522Y-84225789D01*
X66102262Y-84129816D01*
X66102267Y-84129810D01*
X66105097Y-84127555D01*
X66107275Y-84126665D01*
X66108158Y-84126111D01*
X66108255Y-84126265D01*
X66169783Y-84101145D01*
X66182412Y-84100500D01*
X75017588Y-84100500D01*
X75084627Y-84120185D01*
X75094903Y-84127555D01*
X75097736Y-84129814D01*
X75097738Y-84129816D01*
X75211270Y-84201152D01*
X75248426Y-84224500D01*
X75250478Y-84225789D01*
X75334187Y-84255080D01*
X75420745Y-84285368D01*
X75420750Y-84285369D01*
X75599996Y-84305565D01*
X75600000Y-84305565D01*
X75600004Y-84305565D01*
X75779249Y-84285369D01*
X75779252Y-84285368D01*
X75779255Y-84285368D01*
X75949522Y-84225789D01*
X76102262Y-84129816D01*
X76102267Y-84129810D01*
X76105097Y-84127555D01*
X76107275Y-84126665D01*
X76108158Y-84126111D01*
X76108255Y-84126265D01*
X76169783Y-84101145D01*
X76182412Y-84100500D01*
X82879359Y-84100500D01*
X82946398Y-84120185D01*
X82992153Y-84172989D01*
X83002097Y-84242147D01*
X82997652Y-84261684D01*
X81350561Y-89500624D01*
X79159116Y-96471003D01*
X79128505Y-96521494D01*
X78686319Y-96963681D01*
X78624996Y-96997166D01*
X78598638Y-97000000D01*
X77150000Y-97000000D01*
X76889517Y-98180765D01*
X76855852Y-98241990D01*
X76809389Y-98271091D01*
X76800481Y-98274208D01*
X76647737Y-98370184D01*
X76520184Y-98497737D01*
X76424211Y-98650476D01*
X76364631Y-98820745D01*
X76364630Y-98820750D01*
X76344435Y-98999996D01*
X76344435Y-99000003D01*
X76364630Y-99179249D01*
X76364631Y-99179254D01*
X76424211Y-99349523D01*
X76520184Y-99502262D01*
X76535882Y-99517960D01*
X76569367Y-99579283D01*
X76569290Y-99632354D01*
X76281962Y-100934813D01*
X76248297Y-100996038D01*
X76186876Y-101029343D01*
X76160873Y-101032100D01*
X71680412Y-101032100D01*
X71613373Y-101012415D01*
X71603097Y-101005045D01*
X71600263Y-101002785D01*
X71600262Y-101002784D01*
X71528370Y-100957611D01*
X71447523Y-100906811D01*
X71277254Y-100847231D01*
X71277249Y-100847230D01*
X71098004Y-100827035D01*
X71097996Y-100827035D01*
X70918750Y-100847230D01*
X70918745Y-100847231D01*
X70748476Y-100906811D01*
X70595737Y-101002784D01*
X70468184Y-101130337D01*
X70372211Y-101283076D01*
X70312631Y-101453345D01*
X70312630Y-101453350D01*
X70292435Y-101632596D01*
X70292435Y-101632603D01*
X70312630Y-101811849D01*
X70312631Y-101811854D01*
X70372211Y-101982123D01*
X70409779Y-102041911D01*
X70468184Y-102134862D01*
X70595738Y-102262416D01*
X70748478Y-102358389D01*
X70831287Y-102387365D01*
X70918745Y-102417968D01*
X70918750Y-102417969D01*
X71097996Y-102438165D01*
X71098000Y-102438165D01*
X71098004Y-102438165D01*
X71277249Y-102417969D01*
X71277252Y-102417968D01*
X71277255Y-102417968D01*
X71447522Y-102358389D01*
X71600262Y-102262416D01*
X71600267Y-102262410D01*
X71603097Y-102260155D01*
X71605275Y-102259265D01*
X71606158Y-102258711D01*
X71606255Y-102258865D01*
X71667783Y-102233745D01*
X71680412Y-102233100D01*
X95864260Y-102233100D01*
X95931299Y-102252785D01*
X95951941Y-102269419D01*
X95970338Y-102287816D01*
X96010762Y-102313216D01*
X96082652Y-102358388D01*
X96123078Y-102383789D01*
X96278476Y-102438165D01*
X96293345Y-102443368D01*
X96293350Y-102443369D01*
X96472596Y-102463565D01*
X96472600Y-102463565D01*
X96472604Y-102463565D01*
X96651849Y-102443369D01*
X96651852Y-102443368D01*
X96651855Y-102443368D01*
X96822122Y-102383789D01*
X96974862Y-102287816D01*
X97102416Y-102160262D01*
X97198389Y-102007522D01*
X97257968Y-101837255D01*
X97266554Y-101761054D01*
X97275303Y-101683403D01*
X121117835Y-101683403D01*
X121138030Y-101862649D01*
X121138031Y-101862654D01*
X121197611Y-102032923D01*
X121279924Y-102163922D01*
X121293584Y-102185662D01*
X121421138Y-102313216D01*
X121493029Y-102358388D01*
X121533452Y-102383788D01*
X121573878Y-102409189D01*
X121656687Y-102438165D01*
X121744145Y-102468768D01*
X121744150Y-102468769D01*
X121923396Y-102488965D01*
X121923400Y-102488965D01*
X121923404Y-102488965D01*
X122102649Y-102468769D01*
X122102652Y-102468768D01*
X122102655Y-102468768D01*
X122272922Y-102409189D01*
X122425662Y-102313216D01*
X122553216Y-102185662D01*
X122649189Y-102032922D01*
X122708768Y-101862655D01*
X122714492Y-101811854D01*
X122728965Y-101683403D01*
X146492435Y-101683403D01*
X146512630Y-101862649D01*
X146512631Y-101862654D01*
X146572211Y-102032923D01*
X146654524Y-102163922D01*
X146668184Y-102185662D01*
X146795738Y-102313216D01*
X146867629Y-102358388D01*
X146908052Y-102383788D01*
X146948478Y-102409189D01*
X147031287Y-102438165D01*
X147118745Y-102468768D01*
X147118750Y-102468769D01*
X147297996Y-102488965D01*
X147298000Y-102488965D01*
X147298004Y-102488965D01*
X147477249Y-102468769D01*
X147477252Y-102468768D01*
X147477255Y-102468768D01*
X147647522Y-102409189D01*
X147800262Y-102313216D01*
X147927816Y-102185662D01*
X148023789Y-102032922D01*
X148083368Y-101862655D01*
X148089092Y-101811854D01*
X148103565Y-101683403D01*
X148103565Y-101683396D01*
X148083369Y-101504150D01*
X148083368Y-101504145D01*
X148047818Y-101402550D01*
X148023789Y-101333878D01*
X147927816Y-101181138D01*
X147800262Y-101053584D01*
X147789117Y-101046581D01*
X147647523Y-100957611D01*
X147477254Y-100898031D01*
X147477249Y-100898030D01*
X147298004Y-100877835D01*
X147297996Y-100877835D01*
X147118750Y-100898030D01*
X147118745Y-100898031D01*
X146948476Y-100957611D01*
X146795737Y-101053584D01*
X146668184Y-101181137D01*
X146572211Y-101333876D01*
X146512631Y-101504145D01*
X146512630Y-101504150D01*
X146492435Y-101683396D01*
X146492435Y-101683403D01*
X122728965Y-101683403D01*
X122728965Y-101683396D01*
X122708769Y-101504150D01*
X122708768Y-101504145D01*
X122673218Y-101402550D01*
X122649189Y-101333878D01*
X122553216Y-101181138D01*
X122425662Y-101053584D01*
X122414517Y-101046581D01*
X122272923Y-100957611D01*
X122102654Y-100898031D01*
X122102649Y-100898030D01*
X121923404Y-100877835D01*
X121923396Y-100877835D01*
X121744150Y-100898030D01*
X121744145Y-100898031D01*
X121573876Y-100957611D01*
X121421137Y-101053584D01*
X121293584Y-101181137D01*
X121197611Y-101333876D01*
X121138031Y-101504145D01*
X121138030Y-101504150D01*
X121117835Y-101683396D01*
X121117835Y-101683403D01*
X97275303Y-101683403D01*
X97278165Y-101658003D01*
X97278165Y-101657996D01*
X97257969Y-101478750D01*
X97257968Y-101478745D01*
X97198388Y-101308476D01*
X97102415Y-101155737D01*
X96974862Y-101028184D01*
X96822123Y-100932211D01*
X96651854Y-100872631D01*
X96651849Y-100872630D01*
X96472604Y-100852435D01*
X96472596Y-100852435D01*
X96293350Y-100872630D01*
X96293345Y-100872631D01*
X96123077Y-100932211D01*
X96091609Y-100951984D01*
X95995435Y-101012415D01*
X95994354Y-101013094D01*
X95928382Y-101032100D01*
X82582266Y-101032100D01*
X82515227Y-101012415D01*
X82469472Y-100959611D01*
X82459528Y-100890453D01*
X82468193Y-100859485D01*
X85595563Y-93522002D01*
X85639953Y-93468055D01*
X85706469Y-93446667D01*
X85773988Y-93464636D01*
X85797310Y-93482945D01*
X89674716Y-97360352D01*
X89811647Y-97439409D01*
X89964375Y-97480333D01*
X89964378Y-97480333D01*
X90130086Y-97480333D01*
X90130102Y-97480332D01*
X91446225Y-97480332D01*
X91488756Y-97487854D01*
X91872559Y-97627996D01*
X91872562Y-97627997D01*
X91913074Y-97640886D01*
X91914480Y-97641060D01*
X91940206Y-97647078D01*
X91991995Y-97665200D01*
X91991999Y-97665200D01*
X91992001Y-97665201D01*
X92171246Y-97685397D01*
X92171250Y-97685397D01*
X92171254Y-97685397D01*
X92350499Y-97665201D01*
X92350502Y-97665200D01*
X92350505Y-97665200D01*
X92520772Y-97605621D01*
X92673512Y-97509648D01*
X92801066Y-97382094D01*
X92897039Y-97229354D01*
X92956618Y-97059087D01*
X92957612Y-97050265D01*
X92976815Y-96879835D01*
X92976815Y-96879828D01*
X92956619Y-96700582D01*
X92956618Y-96700577D01*
X92938470Y-96648714D01*
X92897039Y-96530310D01*
X92801066Y-96377570D01*
X92673512Y-96250016D01*
X92595413Y-96200943D01*
X92520773Y-96154043D01*
X92350504Y-96094463D01*
X92350499Y-96094462D01*
X92171254Y-96074267D01*
X92171246Y-96074267D01*
X91991996Y-96094463D01*
X91991995Y-96094463D01*
X91913014Y-96122099D01*
X91897588Y-96126401D01*
X91872564Y-96131665D01*
X91488753Y-96271810D01*
X91446222Y-96279332D01*
X90343530Y-96279332D01*
X90276491Y-96259647D01*
X90255849Y-96243013D01*
X88436421Y-94423585D01*
X89659435Y-94423585D01*
X89679630Y-94602831D01*
X89679631Y-94602836D01*
X89739211Y-94773105D01*
X89804238Y-94876594D01*
X89835184Y-94925844D01*
X89962738Y-95053398D01*
X90053080Y-95110164D01*
X90112245Y-95147340D01*
X90115478Y-95149371D01*
X90257844Y-95199187D01*
X90285745Y-95208950D01*
X90285750Y-95208951D01*
X90464996Y-95229147D01*
X90465000Y-95229147D01*
X90465004Y-95229147D01*
X90644249Y-95208951D01*
X90644250Y-95208950D01*
X90644255Y-95208950D01*
X90723251Y-95181307D01*
X90738651Y-95177013D01*
X90763687Y-95171748D01*
X91147495Y-95031604D01*
X91190026Y-95024082D01*
X112790892Y-95024082D01*
X112828644Y-95029969D01*
X112886239Y-95048377D01*
X113221072Y-95155399D01*
X113245374Y-95162320D01*
X113252095Y-95164234D01*
X113252098Y-95164234D01*
X113252103Y-95164236D01*
X113252108Y-95164236D01*
X113257424Y-95165259D01*
X113257331Y-95165740D01*
X113277549Y-95170252D01*
X113281822Y-95171748D01*
X113320748Y-95185369D01*
X113499996Y-95205565D01*
X113500000Y-95205565D01*
X113500004Y-95205565D01*
X113679249Y-95185369D01*
X113679252Y-95185368D01*
X113679255Y-95185368D01*
X113849522Y-95125789D01*
X114002262Y-95029816D01*
X114129816Y-94902262D01*
X114225789Y-94749522D01*
X114285368Y-94579255D01*
X114285369Y-94579249D01*
X114305565Y-94400003D01*
X114305565Y-94399996D01*
X114285369Y-94220750D01*
X114285368Y-94220745D01*
X114268215Y-94171724D01*
X114225789Y-94050478D01*
X114209926Y-94025233D01*
X114174410Y-93968709D01*
X114129816Y-93897738D01*
X114002262Y-93770184D01*
X113958070Y-93742416D01*
X113849523Y-93674211D01*
X113679254Y-93614631D01*
X113679249Y-93614630D01*
X113500004Y-93594435D01*
X113499996Y-93594435D01*
X113320746Y-93614631D01*
X113320745Y-93614631D01*
X113218647Y-93650356D01*
X113208729Y-93653367D01*
X113179543Y-93660911D01*
X113179519Y-93660919D01*
X112814313Y-93813498D01*
X112766512Y-93823082D01*
X99098063Y-93823082D01*
X99031024Y-93803397D01*
X98985269Y-93750593D01*
X98975325Y-93681435D01*
X98981022Y-93658127D01*
X99000366Y-93602844D01*
X99000369Y-93602831D01*
X99020565Y-93423585D01*
X99020565Y-93423578D01*
X99000369Y-93244332D01*
X99000368Y-93244327D01*
X98971080Y-93160626D01*
X98940789Y-93074060D01*
X98844816Y-92921320D01*
X98717262Y-92793766D01*
X98695059Y-92779815D01*
X98564523Y-92697793D01*
X98394254Y-92638213D01*
X98394249Y-92638212D01*
X98215004Y-92618017D01*
X98214996Y-92618017D01*
X98035746Y-92638213D01*
X98035745Y-92638213D01*
X97956764Y-92665849D01*
X97941338Y-92670151D01*
X97916314Y-92675415D01*
X97532503Y-92815560D01*
X97489972Y-92823082D01*
X94515098Y-92823082D01*
X94448059Y-92803397D01*
X94427417Y-92786763D01*
X94351819Y-92711165D01*
X94318334Y-92649842D01*
X94315500Y-92623484D01*
X94315500Y-87148607D01*
X94323022Y-87106076D01*
X94327323Y-87094297D01*
X94463166Y-86722268D01*
X94476071Y-86681699D01*
X94476241Y-86680321D01*
X94482262Y-86654576D01*
X94500368Y-86602837D01*
X94505212Y-86559847D01*
X94520565Y-86423585D01*
X94520565Y-86423578D01*
X94500369Y-86244332D01*
X94500368Y-86244327D01*
X94485970Y-86203181D01*
X94440789Y-86074060D01*
X94344816Y-85921320D01*
X94217262Y-85793766D01*
X94064523Y-85697793D01*
X93894254Y-85638213D01*
X93894249Y-85638212D01*
X93715004Y-85618017D01*
X93714996Y-85618017D01*
X93535750Y-85638212D01*
X93535745Y-85638213D01*
X93365476Y-85697793D01*
X93212737Y-85793766D01*
X93085184Y-85921319D01*
X92989211Y-86074058D01*
X92929631Y-86244327D01*
X92929630Y-86244332D01*
X92909435Y-86423578D01*
X92909435Y-86423585D01*
X92929631Y-86602834D01*
X92957268Y-86681818D01*
X92961570Y-86697245D01*
X92966833Y-86722267D01*
X93050163Y-86950478D01*
X93100311Y-87087819D01*
X93106978Y-87106076D01*
X93114500Y-87148607D01*
X93114500Y-92836912D01*
X93114499Y-92836930D01*
X93114499Y-93002636D01*
X93114498Y-93002636D01*
X93155423Y-93155367D01*
X93167480Y-93176250D01*
X93234477Y-93292294D01*
X93234481Y-93292299D01*
X93553583Y-93611401D01*
X93587068Y-93672724D01*
X93582084Y-93742416D01*
X93540212Y-93798349D01*
X93474748Y-93822766D01*
X93465902Y-93823082D01*
X91190027Y-93823082D01*
X91147496Y-93815560D01*
X90763687Y-93675416D01*
X90752104Y-93671732D01*
X90723111Y-93662509D01*
X90723104Y-93662508D01*
X90723095Y-93662506D01*
X90721718Y-93662336D01*
X90695992Y-93656317D01*
X90644252Y-93638213D01*
X90465004Y-93618017D01*
X90464996Y-93618017D01*
X90285750Y-93638212D01*
X90285745Y-93638213D01*
X90115476Y-93697793D01*
X89962737Y-93793766D01*
X89835184Y-93921319D01*
X89739211Y-94074058D01*
X89679631Y-94244327D01*
X89679630Y-94244332D01*
X89659435Y-94423578D01*
X89659435Y-94423585D01*
X88436421Y-94423585D01*
X86236819Y-92223983D01*
X86203334Y-92162660D01*
X86200500Y-92136302D01*
X86200500Y-92128014D01*
X86210429Y-92079395D01*
X86226868Y-92040826D01*
X86500000Y-91400000D01*
X86500000Y-84224500D01*
X86519685Y-84157461D01*
X86572489Y-84111706D01*
X86624000Y-84100500D01*
X94875308Y-84100500D01*
X94942347Y-84120185D01*
X94988102Y-84172989D01*
X94991764Y-84181910D01*
X94991956Y-84182435D01*
X94999500Y-84225025D01*
X94999500Y-86721912D01*
X94999499Y-86721930D01*
X94999499Y-86887636D01*
X94999498Y-86887636D01*
X94999499Y-86887639D01*
X95040423Y-87040367D01*
X95063849Y-87080942D01*
X95119477Y-87177294D01*
X95119481Y-87177299D01*
X95238349Y-87296167D01*
X95238355Y-87296172D01*
X95777710Y-87835527D01*
X95802465Y-87870919D01*
X95974765Y-88241416D01*
X95981124Y-88253708D01*
X95988026Y-88269719D01*
X95989209Y-88273100D01*
X95989212Y-88273106D01*
X96039199Y-88352660D01*
X96085184Y-88425844D01*
X96212738Y-88553398D01*
X96365478Y-88649371D01*
X96535745Y-88708950D01*
X96535750Y-88708951D01*
X96714996Y-88729147D01*
X96715000Y-88729147D01*
X96715004Y-88729147D01*
X96894249Y-88708951D01*
X96894252Y-88708950D01*
X96894255Y-88708950D01*
X97064522Y-88649371D01*
X97217262Y-88553398D01*
X97344816Y-88425844D01*
X97440789Y-88273104D01*
X97500368Y-88102837D01*
X97502926Y-88080133D01*
X97520565Y-87923585D01*
X97520565Y-87923578D01*
X97500369Y-87744332D01*
X97500368Y-87744327D01*
X97468125Y-87652182D01*
X97440789Y-87574060D01*
X97344816Y-87421320D01*
X97217262Y-87293766D01*
X97121962Y-87233885D01*
X97064524Y-87197794D01*
X97064523Y-87197793D01*
X97064522Y-87197793D01*
X97058125Y-87195554D01*
X97036911Y-87185114D01*
X97036701Y-87185494D01*
X97032830Y-87183345D01*
X96662337Y-87011047D01*
X96626945Y-86986292D01*
X96236819Y-86596166D01*
X96203334Y-86534843D01*
X96200500Y-86508485D01*
X96200500Y-84225025D01*
X96208044Y-84182435D01*
X96208236Y-84181910D01*
X96249748Y-84125710D01*
X96315055Y-84100875D01*
X96324692Y-84100500D01*
X105017588Y-84100500D01*
X105084627Y-84120185D01*
X105094903Y-84127555D01*
X105097736Y-84129814D01*
X105097738Y-84129816D01*
X105211270Y-84201152D01*
X105248426Y-84224500D01*
X105250478Y-84225789D01*
X105334187Y-84255080D01*
X105420745Y-84285368D01*
X105420750Y-84285369D01*
X105599996Y-84305565D01*
X105600000Y-84305565D01*
X105600004Y-84305565D01*
X105779249Y-84285369D01*
X105779252Y-84285368D01*
X105779255Y-84285368D01*
X105949522Y-84225789D01*
X106102262Y-84129816D01*
X106102267Y-84129810D01*
X106105097Y-84127555D01*
X106107275Y-84126665D01*
X106108158Y-84126111D01*
X106108255Y-84126265D01*
X106169783Y-84101145D01*
X106182412Y-84100500D01*
X114875308Y-84100500D01*
X114942347Y-84120185D01*
X114988102Y-84172989D01*
X114991764Y-84181910D01*
X114991956Y-84182435D01*
X114999500Y-84225025D01*
X114999500Y-97474972D01*
X114991978Y-97517503D01*
X114851831Y-97901320D01*
X114838928Y-97941882D01*
X114838925Y-97941894D01*
X114838754Y-97943281D01*
X114832735Y-97969006D01*
X114814631Y-98020745D01*
X114814631Y-98020746D01*
X114794435Y-98199996D01*
X114794435Y-98200003D01*
X114814630Y-98379249D01*
X114814631Y-98379254D01*
X114874211Y-98549523D01*
X114937646Y-98650478D01*
X114970184Y-98702262D01*
X115097738Y-98829816D01*
X115250478Y-98925789D01*
X115406890Y-98980520D01*
X115420745Y-98985368D01*
X115420750Y-98985369D01*
X115599996Y-99005565D01*
X115600000Y-99005565D01*
X115600004Y-99005565D01*
X115779249Y-98985369D01*
X115779252Y-98985368D01*
X115779255Y-98985368D01*
X115949522Y-98925789D01*
X116102262Y-98829816D01*
X116229816Y-98702262D01*
X116325789Y-98549522D01*
X116385368Y-98379255D01*
X116386390Y-98370184D01*
X116405565Y-98200003D01*
X116405565Y-98199996D01*
X116385369Y-98020750D01*
X116385368Y-98020746D01*
X116385368Y-98020745D01*
X116357729Y-97941760D01*
X116353428Y-97926335D01*
X116348166Y-97901312D01*
X116208022Y-97517502D01*
X116200500Y-97474971D01*
X116200500Y-84225025D01*
X116208044Y-84182435D01*
X116208236Y-84181910D01*
X116249748Y-84125710D01*
X116315055Y-84100875D01*
X116324692Y-84100500D01*
X125017588Y-84100500D01*
X125084627Y-84120185D01*
X125094903Y-84127555D01*
X125097736Y-84129814D01*
X125097738Y-84129816D01*
X125211270Y-84201152D01*
X125248426Y-84224500D01*
X125250478Y-84225789D01*
X125334187Y-84255080D01*
X125420745Y-84285368D01*
X125420750Y-84285369D01*
X125599996Y-84305565D01*
X125600000Y-84305565D01*
X125600004Y-84305565D01*
X125779249Y-84285369D01*
X125779252Y-84285368D01*
X125779255Y-84285368D01*
X125949522Y-84225789D01*
X126102262Y-84129816D01*
X126102267Y-84129810D01*
X126105097Y-84127555D01*
X126107275Y-84126665D01*
X126108158Y-84126111D01*
X126108255Y-84126265D01*
X126169783Y-84101145D01*
X126182412Y-84100500D01*
X135017588Y-84100500D01*
X135084627Y-84120185D01*
X135094903Y-84127555D01*
X135097736Y-84129814D01*
X135097738Y-84129816D01*
X135211270Y-84201152D01*
X135248426Y-84224500D01*
X135250478Y-84225789D01*
X135334187Y-84255080D01*
X135420745Y-84285368D01*
X135420750Y-84285369D01*
X135599996Y-84305565D01*
X135600000Y-84305565D01*
X135600004Y-84305565D01*
X135779249Y-84285369D01*
X135779252Y-84285368D01*
X135779255Y-84285368D01*
X135949522Y-84225789D01*
X136102262Y-84129816D01*
X136102267Y-84129810D01*
X136105097Y-84127555D01*
X136107275Y-84126665D01*
X136108158Y-84126111D01*
X136108255Y-84126265D01*
X136169783Y-84101145D01*
X136182412Y-84100500D01*
X145017588Y-84100500D01*
X145084627Y-84120185D01*
X145094903Y-84127555D01*
X145097736Y-84129814D01*
X145097738Y-84129816D01*
X145211270Y-84201152D01*
X145248426Y-84224500D01*
X145250478Y-84225789D01*
X145334187Y-84255080D01*
X145420745Y-84285368D01*
X145420750Y-84285369D01*
X145599996Y-84305565D01*
X145600000Y-84305565D01*
X145600004Y-84305565D01*
X145779249Y-84285369D01*
X145779252Y-84285368D01*
X145779255Y-84285368D01*
X145949522Y-84225789D01*
X146102262Y-84129816D01*
X146102267Y-84129810D01*
X146105097Y-84127555D01*
X146107275Y-84126665D01*
X146108158Y-84126111D01*
X146108255Y-84126265D01*
X146169783Y-84101145D01*
X146182412Y-84100500D01*
X155017588Y-84100500D01*
X155084627Y-84120185D01*
X155094903Y-84127555D01*
X155097736Y-84129814D01*
X155097738Y-84129816D01*
X155211270Y-84201152D01*
X155248426Y-84224500D01*
X155250478Y-84225789D01*
X155334187Y-84255080D01*
X155420745Y-84285368D01*
X155420750Y-84285369D01*
X155599996Y-84305565D01*
X155600000Y-84305565D01*
X155600004Y-84305565D01*
X155779249Y-84285369D01*
X155779252Y-84285368D01*
X155779255Y-84285368D01*
X155949522Y-84225789D01*
X156102262Y-84129816D01*
X156102267Y-84129810D01*
X156105097Y-84127555D01*
X156107275Y-84126665D01*
X156108158Y-84126111D01*
X156108255Y-84126265D01*
X156169783Y-84101145D01*
X156182412Y-84100500D01*
X165017588Y-84100500D01*
X165084627Y-84120185D01*
X165094903Y-84127555D01*
X165097736Y-84129814D01*
X165097738Y-84129816D01*
X165211270Y-84201152D01*
X165248426Y-84224500D01*
X165250478Y-84225789D01*
X165334187Y-84255080D01*
X165420745Y-84285368D01*
X165420750Y-84285369D01*
X165599996Y-84305565D01*
X165600000Y-84305565D01*
X165600004Y-84305565D01*
X165779249Y-84285369D01*
X165779252Y-84285368D01*
X165779255Y-84285368D01*
X165949522Y-84225789D01*
X166102262Y-84129816D01*
X166102267Y-84129810D01*
X166105097Y-84127555D01*
X166107275Y-84126665D01*
X166108158Y-84126111D01*
X166108255Y-84126265D01*
X166169783Y-84101145D01*
X166182412Y-84100500D01*
X174875308Y-84100500D01*
X174942347Y-84120185D01*
X174988102Y-84172989D01*
X174991764Y-84181910D01*
X174991956Y-84182435D01*
X174999500Y-84225025D01*
X174999500Y-85813330D01*
X174999499Y-85813348D01*
X174999499Y-85979054D01*
X174999498Y-85979054D01*
X175040423Y-86131786D01*
X175044152Y-86138244D01*
X175048152Y-86145171D01*
X175048154Y-86145180D01*
X175048157Y-86145179D01*
X175105399Y-86244327D01*
X175119479Y-86268714D01*
X175119481Y-86268717D01*
X175238349Y-86387585D01*
X175238354Y-86387589D01*
X176171284Y-87320520D01*
X176171286Y-87320521D01*
X176171290Y-87320524D01*
X176308209Y-87399573D01*
X176308216Y-87399577D01*
X176460943Y-87440501D01*
X176460945Y-87440501D01*
X176469002Y-87441562D01*
X176468740Y-87443550D01*
X176525393Y-87460186D01*
X176571148Y-87512990D01*
X176581092Y-87582148D01*
X176552067Y-87645704D01*
X176546038Y-87652178D01*
X176211603Y-87986613D01*
X175931286Y-88266930D01*
X175819481Y-88378734D01*
X175819480Y-88378736D01*
X175788167Y-88432972D01*
X175740423Y-88515667D01*
X175699499Y-88668395D01*
X175699499Y-88668397D01*
X175699499Y-88836498D01*
X175699500Y-88836511D01*
X175699500Y-92913330D01*
X175699499Y-92913348D01*
X175699499Y-93079054D01*
X175699498Y-93079054D01*
X175699499Y-93079057D01*
X175740423Y-93231785D01*
X175768152Y-93279813D01*
X175819477Y-93368712D01*
X175819481Y-93368717D01*
X175938349Y-93487585D01*
X175938355Y-93487590D01*
X176162710Y-93711945D01*
X176187465Y-93747337D01*
X176257409Y-93897738D01*
X176267935Y-93920370D01*
X176279499Y-93972659D01*
X176279499Y-94109046D01*
X176279500Y-94109059D01*
X176279500Y-94169297D01*
X176279404Y-94174167D01*
X176275368Y-94276845D01*
X176275075Y-94286774D01*
X176275066Y-94287264D01*
X176275066Y-94287269D01*
X176277867Y-94351218D01*
X176278165Y-94353232D01*
X176279500Y-94371377D01*
X176279500Y-96193330D01*
X176279499Y-96193348D01*
X176279499Y-96359054D01*
X176279498Y-96359054D01*
X176320423Y-96511787D01*
X176331118Y-96530309D01*
X176331119Y-96530310D01*
X176399479Y-96648714D01*
X176399481Y-96648717D01*
X176518349Y-96767585D01*
X176518355Y-96767590D01*
X178615139Y-98864374D01*
X178615149Y-98864385D01*
X178619479Y-98868715D01*
X178619480Y-98868716D01*
X178731284Y-98980520D01*
X178818095Y-99030639D01*
X178818097Y-99030641D01*
X178856151Y-99052611D01*
X178868215Y-99059577D01*
X179020943Y-99100500D01*
X180450903Y-99100500D01*
X180517942Y-99120185D01*
X180563697Y-99172989D01*
X180573641Y-99242147D01*
X180544616Y-99305703D01*
X180538584Y-99312181D01*
X178804184Y-101046581D01*
X178742861Y-101080066D01*
X178716503Y-101082900D01*
X173280412Y-101082900D01*
X173213373Y-101063215D01*
X173203097Y-101055845D01*
X173200263Y-101053585D01*
X173200262Y-101053584D01*
X173119416Y-101002785D01*
X173047523Y-100957611D01*
X172877254Y-100898031D01*
X172877249Y-100898030D01*
X172698004Y-100877835D01*
X172697996Y-100877835D01*
X172518750Y-100898030D01*
X172518745Y-100898031D01*
X172348476Y-100957611D01*
X172195737Y-101053584D01*
X172068184Y-101181137D01*
X171972211Y-101333876D01*
X171912631Y-101504145D01*
X171912630Y-101504150D01*
X171892435Y-101683396D01*
X171892435Y-101683403D01*
X171912630Y-101862649D01*
X171912631Y-101862654D01*
X171972211Y-102032923D01*
X172054524Y-102163922D01*
X172068184Y-102185662D01*
X172195738Y-102313216D01*
X172267629Y-102358388D01*
X172308052Y-102383788D01*
X172348478Y-102409189D01*
X172431287Y-102438165D01*
X172518745Y-102468768D01*
X172518750Y-102468769D01*
X172697996Y-102488965D01*
X172698000Y-102488965D01*
X172698004Y-102488965D01*
X172877249Y-102468769D01*
X172877252Y-102468768D01*
X172877255Y-102468768D01*
X173047522Y-102409189D01*
X173200262Y-102313216D01*
X173200267Y-102313210D01*
X173203097Y-102310955D01*
X173205275Y-102310065D01*
X173206158Y-102309511D01*
X173206255Y-102309665D01*
X173267783Y-102284545D01*
X173280412Y-102283900D01*
X178929931Y-102283900D01*
X178929947Y-102283901D01*
X178937543Y-102283901D01*
X179095654Y-102283901D01*
X179095657Y-102283901D01*
X179248385Y-102242977D01*
X179302703Y-102211616D01*
X179385316Y-102163920D01*
X179497120Y-102052116D01*
X179497120Y-102052114D01*
X179507324Y-102041911D01*
X179507328Y-102041906D01*
X182111948Y-99437285D01*
X182147337Y-99412533D01*
X182147709Y-99412360D01*
X182216797Y-99401939D01*
X182252189Y-99412315D01*
X182252564Y-99412489D01*
X182288054Y-99437289D01*
X182315139Y-99464374D01*
X182315149Y-99464385D01*
X182319479Y-99468715D01*
X182319480Y-99468716D01*
X182431284Y-99580520D01*
X182516668Y-99629816D01*
X182516669Y-99629817D01*
X182548214Y-99648029D01*
X182568215Y-99659577D01*
X182720943Y-99700500D01*
X182879057Y-99700500D01*
X185913331Y-99700500D01*
X185913347Y-99700501D01*
X185920943Y-99700501D01*
X186079054Y-99700501D01*
X186079057Y-99700501D01*
X186231785Y-99659577D01*
X186283332Y-99629816D01*
X186368716Y-99580520D01*
X186480520Y-99468716D01*
X186480520Y-99468714D01*
X186490724Y-99458511D01*
X186490728Y-99458506D01*
X188958506Y-96990728D01*
X188958511Y-96990724D01*
X188968714Y-96980520D01*
X188968716Y-96980520D01*
X189080520Y-96868716D01*
X189135922Y-96772756D01*
X189159577Y-96731785D01*
X189200500Y-96579058D01*
X189200500Y-96420943D01*
X189200500Y-95525024D01*
X189208022Y-95482494D01*
X189304338Y-95218711D01*
X189324573Y-95183056D01*
X189552103Y-94903020D01*
X189563027Y-94888783D01*
X189573709Y-94876602D01*
X190300520Y-94149793D01*
X190300520Y-94149791D01*
X190310724Y-94139588D01*
X190310728Y-94139583D01*
X195958506Y-88491805D01*
X195958511Y-88491801D01*
X195968714Y-88481597D01*
X195968716Y-88481597D01*
X196080520Y-88369793D01*
X196090412Y-88352660D01*
X196139897Y-88266949D01*
X196139900Y-88266940D01*
X196139906Y-88266932D01*
X196159577Y-88232862D01*
X196200500Y-88080134D01*
X196200500Y-87922020D01*
X196200500Y-84225025D01*
X196208022Y-84182494D01*
X196208063Y-84182382D01*
X196348166Y-83798686D01*
X196361071Y-83758117D01*
X196361241Y-83756739D01*
X196367262Y-83730994D01*
X196385368Y-83679255D01*
X196405565Y-83500000D01*
X196385368Y-83320745D01*
X196325789Y-83150478D01*
X196229816Y-82997738D01*
X196102262Y-82870184D01*
X195949523Y-82774211D01*
X195779254Y-82714631D01*
X195779249Y-82714630D01*
X195600004Y-82694435D01*
X195599996Y-82694435D01*
X195420746Y-82714631D01*
X195420745Y-82714631D01*
X195341764Y-82742267D01*
X195326338Y-82746569D01*
X195301314Y-82751833D01*
X194917503Y-82891978D01*
X194874972Y-82899500D01*
X186182412Y-82899500D01*
X186115373Y-82879815D01*
X186105097Y-82872445D01*
X186102263Y-82870185D01*
X186102262Y-82870184D01*
X186045496Y-82834515D01*
X185949523Y-82774211D01*
X185779254Y-82714631D01*
X185779249Y-82714630D01*
X185600004Y-82694435D01*
X185599996Y-82694435D01*
X185420750Y-82714630D01*
X185420745Y-82714631D01*
X185250476Y-82774211D01*
X185097736Y-82870185D01*
X185094903Y-82872445D01*
X185092724Y-82873334D01*
X185091842Y-82873889D01*
X185091744Y-82873734D01*
X185030217Y-82898855D01*
X185017588Y-82899500D01*
X176182412Y-82899500D01*
X176115373Y-82879815D01*
X176105097Y-82872445D01*
X176102263Y-82870185D01*
X176102262Y-82870184D01*
X176045496Y-82834515D01*
X175949523Y-82774211D01*
X175779254Y-82714631D01*
X175779249Y-82714630D01*
X175600004Y-82694435D01*
X175599996Y-82694435D01*
X175420750Y-82714630D01*
X175420745Y-82714631D01*
X175250476Y-82774211D01*
X175097736Y-82870185D01*
X175094903Y-82872445D01*
X175092724Y-82873334D01*
X175091842Y-82873889D01*
X175091744Y-82873734D01*
X175030217Y-82898855D01*
X175017588Y-82899500D01*
X166182412Y-82899500D01*
X166115373Y-82879815D01*
X166105097Y-82872445D01*
X166102263Y-82870185D01*
X166102262Y-82870184D01*
X166045496Y-82834515D01*
X165949523Y-82774211D01*
X165779254Y-82714631D01*
X165779249Y-82714630D01*
X165600004Y-82694435D01*
X165599996Y-82694435D01*
X165420750Y-82714630D01*
X165420745Y-82714631D01*
X165250476Y-82774211D01*
X165097736Y-82870185D01*
X165094903Y-82872445D01*
X165092724Y-82873334D01*
X165091842Y-82873889D01*
X165091744Y-82873734D01*
X165030217Y-82898855D01*
X165017588Y-82899500D01*
X156182412Y-82899500D01*
X156115373Y-82879815D01*
X156105097Y-82872445D01*
X156102263Y-82870185D01*
X156102262Y-82870184D01*
X156045496Y-82834515D01*
X155949523Y-82774211D01*
X155779254Y-82714631D01*
X155779249Y-82714630D01*
X155600004Y-82694435D01*
X155599996Y-82694435D01*
X155420750Y-82714630D01*
X155420745Y-82714631D01*
X155250476Y-82774211D01*
X155097736Y-82870185D01*
X155094903Y-82872445D01*
X155092724Y-82873334D01*
X155091842Y-82873889D01*
X155091744Y-82873734D01*
X155030217Y-82898855D01*
X155017588Y-82899500D01*
X146182412Y-82899500D01*
X146115373Y-82879815D01*
X146105097Y-82872445D01*
X146102263Y-82870185D01*
X146102262Y-82870184D01*
X146045496Y-82834515D01*
X145949523Y-82774211D01*
X145779254Y-82714631D01*
X145779249Y-82714630D01*
X145600004Y-82694435D01*
X145599996Y-82694435D01*
X145420750Y-82714630D01*
X145420745Y-82714631D01*
X145250476Y-82774211D01*
X145097736Y-82870185D01*
X145094903Y-82872445D01*
X145092724Y-82873334D01*
X145091842Y-82873889D01*
X145091744Y-82873734D01*
X145030217Y-82898855D01*
X145017588Y-82899500D01*
X136182412Y-82899500D01*
X136115373Y-82879815D01*
X136105097Y-82872445D01*
X136102263Y-82870185D01*
X136102262Y-82870184D01*
X136045496Y-82834515D01*
X135949523Y-82774211D01*
X135779254Y-82714631D01*
X135779249Y-82714630D01*
X135600004Y-82694435D01*
X135599996Y-82694435D01*
X135420750Y-82714630D01*
X135420745Y-82714631D01*
X135250476Y-82774211D01*
X135097736Y-82870185D01*
X135094903Y-82872445D01*
X135092724Y-82873334D01*
X135091842Y-82873889D01*
X135091744Y-82873734D01*
X135030217Y-82898855D01*
X135017588Y-82899500D01*
X126182412Y-82899500D01*
X126115373Y-82879815D01*
X126105097Y-82872445D01*
X126102263Y-82870185D01*
X126102262Y-82870184D01*
X126045496Y-82834515D01*
X125949523Y-82774211D01*
X125779254Y-82714631D01*
X125779249Y-82714630D01*
X125600004Y-82694435D01*
X125599996Y-82694435D01*
X125420750Y-82714630D01*
X125420745Y-82714631D01*
X125250476Y-82774211D01*
X125097736Y-82870185D01*
X125094903Y-82872445D01*
X125092724Y-82873334D01*
X125091842Y-82873889D01*
X125091744Y-82873734D01*
X125030217Y-82898855D01*
X125017588Y-82899500D01*
X116182412Y-82899500D01*
X116115373Y-82879815D01*
X116105097Y-82872445D01*
X116102263Y-82870185D01*
X116102262Y-82870184D01*
X116045496Y-82834515D01*
X115949523Y-82774211D01*
X115779254Y-82714631D01*
X115779249Y-82714630D01*
X115600004Y-82694435D01*
X115599996Y-82694435D01*
X115420750Y-82714630D01*
X115420745Y-82714631D01*
X115250476Y-82774211D01*
X115097736Y-82870185D01*
X115094903Y-82872445D01*
X115092724Y-82873334D01*
X115091842Y-82873889D01*
X115091744Y-82873734D01*
X115030217Y-82898855D01*
X115017588Y-82899500D01*
X106182412Y-82899500D01*
X106115373Y-82879815D01*
X106105097Y-82872445D01*
X106102263Y-82870185D01*
X106102262Y-82870184D01*
X106045496Y-82834515D01*
X105949523Y-82774211D01*
X105779254Y-82714631D01*
X105779249Y-82714630D01*
X105600004Y-82694435D01*
X105599996Y-82694435D01*
X105420750Y-82714630D01*
X105420745Y-82714631D01*
X105250476Y-82774211D01*
X105097736Y-82870185D01*
X105094903Y-82872445D01*
X105092724Y-82873334D01*
X105091842Y-82873889D01*
X105091744Y-82873734D01*
X105030217Y-82898855D01*
X105017588Y-82899500D01*
X96182412Y-82899500D01*
X96115373Y-82879815D01*
X96105097Y-82872445D01*
X96102263Y-82870185D01*
X96102262Y-82870184D01*
X96045496Y-82834515D01*
X95949523Y-82774211D01*
X95779254Y-82714631D01*
X95779249Y-82714630D01*
X95600004Y-82694435D01*
X95599996Y-82694435D01*
X95420750Y-82714630D01*
X95420745Y-82714631D01*
X95250476Y-82774211D01*
X95097736Y-82870185D01*
X95094903Y-82872445D01*
X95092724Y-82873334D01*
X95091842Y-82873889D01*
X95091744Y-82873734D01*
X95030217Y-82898855D01*
X95017588Y-82899500D01*
X86325027Y-82899500D01*
X86282496Y-82891978D01*
X85898688Y-82751834D01*
X85870918Y-82743000D01*
X85858112Y-82738927D01*
X85858110Y-82738926D01*
X85858108Y-82738926D01*
X85856722Y-82738755D01*
X85830987Y-82732734D01*
X85779256Y-82714632D01*
X85779246Y-82714630D01*
X85600004Y-82694435D01*
X85599996Y-82694435D01*
X85420746Y-82714631D01*
X85420745Y-82714631D01*
X85341764Y-82742267D01*
X85326338Y-82746569D01*
X85301314Y-82751833D01*
X84917503Y-82891978D01*
X84874972Y-82899500D01*
X76182412Y-82899500D01*
X76115373Y-82879815D01*
X76105097Y-82872445D01*
X76102263Y-82870185D01*
X76102262Y-82870184D01*
X76045496Y-82834515D01*
X75949523Y-82774211D01*
X75779254Y-82714631D01*
X75779249Y-82714630D01*
X75600004Y-82694435D01*
X75599996Y-82694435D01*
X75420750Y-82714630D01*
X75420745Y-82714631D01*
X75250476Y-82774211D01*
X75097736Y-82870185D01*
X75094903Y-82872445D01*
X75092724Y-82873334D01*
X75091842Y-82873889D01*
X75091744Y-82873734D01*
X75030217Y-82898855D01*
X75017588Y-82899500D01*
X66182412Y-82899500D01*
X66115373Y-82879815D01*
X66105097Y-82872445D01*
X66102263Y-82870185D01*
X66102262Y-82870184D01*
X66045496Y-82834515D01*
X65949523Y-82774211D01*
X65779254Y-82714631D01*
X65779249Y-82714630D01*
X65600004Y-82694435D01*
X65599996Y-82694435D01*
X65420750Y-82714630D01*
X65420745Y-82714631D01*
X65250476Y-82774211D01*
X65097736Y-82870185D01*
X65094903Y-82872445D01*
X65092724Y-82873334D01*
X65091842Y-82873889D01*
X65091744Y-82873734D01*
X65030217Y-82898855D01*
X65017588Y-82899500D01*
X56182412Y-82899500D01*
X56115373Y-82879815D01*
X56105097Y-82872445D01*
X56102263Y-82870185D01*
X56102262Y-82870184D01*
X56045496Y-82834515D01*
X55949523Y-82774211D01*
X55779254Y-82714631D01*
X55779249Y-82714630D01*
X55600004Y-82694435D01*
X55599996Y-82694435D01*
X55420750Y-82714630D01*
X55420745Y-82714631D01*
X55250476Y-82774211D01*
X55097736Y-82870185D01*
X55094903Y-82872445D01*
X55092724Y-82873334D01*
X55091842Y-82873889D01*
X55091744Y-82873734D01*
X55030217Y-82898855D01*
X55017588Y-82899500D01*
X46325027Y-82899500D01*
X46282496Y-82891978D01*
X45898687Y-82751834D01*
X45887104Y-82748150D01*
X45858111Y-82738927D01*
X45858104Y-82738926D01*
X45858095Y-82738924D01*
X45856718Y-82738754D01*
X45830992Y-82732735D01*
X45779252Y-82714631D01*
X45600004Y-82694435D01*
X45599996Y-82694435D01*
X45420750Y-82714630D01*
X45420745Y-82714631D01*
X45250476Y-82774211D01*
X45097737Y-82870184D01*
X44970184Y-82997737D01*
X44874211Y-83150476D01*
X44814631Y-83320745D01*
X44814630Y-83320750D01*
X44794435Y-83499996D01*
X44794435Y-83500003D01*
X43600500Y-83500003D01*
X43600500Y-82504066D01*
X43600765Y-82495956D01*
X43604819Y-82434108D01*
X43617075Y-82247102D01*
X43619190Y-82231048D01*
X43667045Y-81990462D01*
X43671243Y-81974797D01*
X43694337Y-81906762D01*
X43750093Y-81742512D01*
X43756291Y-81727547D01*
X43864790Y-81507533D01*
X43872893Y-81493498D01*
X44009182Y-81289527D01*
X44019039Y-81276681D01*
X44180786Y-81092244D01*
X44192244Y-81080786D01*
X44376681Y-80919039D01*
X44389527Y-80909182D01*
X44593498Y-80772893D01*
X44607533Y-80764790D01*
X44827547Y-80656291D01*
X44842512Y-80650093D01*
X45006762Y-80594337D01*
X45074797Y-80571243D01*
X45090464Y-80567045D01*
X45331048Y-80519190D01*
X45347102Y-80517075D01*
X45595957Y-80500765D01*
X45604067Y-80500500D01*
X45665892Y-80500500D01*
X195534108Y-80500500D01*
X195595933Y-80500500D01*
X195604043Y-80500765D01*
G37*
%TD.AperFunction*%
%TD*%
%TA.AperFunction,Conductor*%
%TO.N,+6.8V*%
G36*
X85877164Y-83614805D02*
G01*
X85700000Y-84100000D01*
X85500000Y-84100000D01*
X85322836Y-83614805D01*
X85600000Y-83499000D01*
X85877164Y-83614805D01*
G37*
%TD.AperFunction*%
%TD*%
%TA.AperFunction,Conductor*%
%TO.N,+6.8V*%
G36*
X115866851Y-83610496D02*
G01*
X115873163Y-83616848D01*
X115873330Y-83625305D01*
X115702807Y-84092313D01*
X115696751Y-84098909D01*
X115691817Y-84100000D01*
X115508183Y-84100000D01*
X115499910Y-84096573D01*
X115497193Y-84092313D01*
X115326669Y-83625302D01*
X115327050Y-83616358D01*
X115333147Y-83610496D01*
X115595490Y-83500883D01*
X115604444Y-83500857D01*
X115866851Y-83610496D01*
G37*
%TD.AperFunction*%
%TD*%
%TA.AperFunction,Conductor*%
%TO.N,+6.8V*%
G36*
X115700090Y-97603427D02*
G01*
X115702807Y-97607687D01*
X115873330Y-98074694D01*
X115872949Y-98083641D01*
X115866851Y-98089503D01*
X115604511Y-98199115D01*
X115595556Y-98199142D01*
X115595489Y-98199115D01*
X115333148Y-98089503D01*
X115326836Y-98083151D01*
X115326669Y-98074697D01*
X115497193Y-97607686D01*
X115503249Y-97601091D01*
X115508183Y-97600000D01*
X115691817Y-97600000D01*
X115700090Y-97603427D01*
G37*
%TD.AperFunction*%
%TD*%
%TA.AperFunction,Conductor*%
%TO.N,+6.8V*%
G36*
X165597548Y-83416703D02*
G01*
X165600000Y-83423870D01*
X165600000Y-83588908D01*
X165596573Y-83597181D01*
X165588924Y-83600591D01*
X165360210Y-83612808D01*
X165351766Y-83609828D01*
X165347903Y-83601749D01*
X165350883Y-83593305D01*
X165352413Y-83591882D01*
X165581133Y-83414621D01*
X165589771Y-83412263D01*
X165597548Y-83416703D01*
G37*
%TD.AperFunction*%
%TD*%
%TA.AperFunction,Conductor*%
%TO.N,+6.8V*%
G36*
X75597548Y-83416703D02*
G01*
X75600000Y-83423870D01*
X75600000Y-83588908D01*
X75596573Y-83597181D01*
X75588924Y-83600591D01*
X75360210Y-83612808D01*
X75351766Y-83609828D01*
X75347903Y-83601749D01*
X75350883Y-83593305D01*
X75352413Y-83591882D01*
X75581133Y-83414621D01*
X75589771Y-83412263D01*
X75597548Y-83416703D01*
G37*
%TD.AperFunction*%
%TD*%
%TA.AperFunction,Conductor*%
%TO.N,+6.8V*%
G36*
X187575779Y-88189467D02*
G01*
X187581877Y-88195329D01*
X187791523Y-88646132D01*
X187791904Y-88655079D01*
X187789187Y-88659339D01*
X187659339Y-88789187D01*
X187651066Y-88792614D01*
X187646132Y-88791523D01*
X187352736Y-88655079D01*
X187195328Y-88581876D01*
X187189273Y-88575281D01*
X187189439Y-88566825D01*
X187297436Y-88303814D01*
X187303746Y-88297464D01*
X187566825Y-88189440D01*
X187575779Y-88189467D01*
G37*
%TD.AperFunction*%
%TD*%
%TA.AperFunction,Conductor*%
%TO.N,+6.8V*%
G36*
X187305315Y-87669809D02*
G01*
X187307396Y-87672633D01*
X187571208Y-88173879D01*
X187572028Y-88182796D01*
X187566303Y-88189682D01*
X187565365Y-88190124D01*
X187305206Y-88298827D01*
X187296251Y-88298854D01*
X187296204Y-88298835D01*
X187033060Y-88189445D01*
X187026736Y-88183105D01*
X187026516Y-88174752D01*
X187026824Y-88173879D01*
X187157697Y-87802501D01*
X187160456Y-87798122D01*
X187288770Y-87669808D01*
X187297042Y-87666382D01*
X187305315Y-87669809D01*
G37*
%TD.AperFunction*%
%TD*%
%TA.AperFunction,Conductor*%
%TO.N,+6.8V*%
G36*
X195866851Y-83610496D02*
G01*
X195873163Y-83616848D01*
X195873330Y-83625305D01*
X195702807Y-84092313D01*
X195696751Y-84098909D01*
X195691817Y-84100000D01*
X195508183Y-84100000D01*
X195499910Y-84096573D01*
X195497193Y-84092313D01*
X195326669Y-83625302D01*
X195327050Y-83616358D01*
X195333147Y-83610496D01*
X195595490Y-83500883D01*
X195604444Y-83500857D01*
X195866851Y-83610496D01*
G37*
%TD.AperFunction*%
%TD*%
%TA.AperFunction,Conductor*%
%TO.N,+6.8V*%
G36*
X177103399Y-93802415D02*
G01*
X177103446Y-93802462D01*
X177303421Y-94003380D01*
X177306828Y-94011662D01*
X177303382Y-94019927D01*
X177302923Y-94020359D01*
X177043190Y-94252415D01*
X176993096Y-94297173D01*
X176983330Y-94305898D01*
X176975535Y-94308873D01*
X176792169Y-94308873D01*
X176783896Y-94305446D01*
X176780469Y-94297173D01*
X176780478Y-94296714D01*
X176791356Y-94019927D01*
X176799559Y-93811201D01*
X176803308Y-93803070D01*
X176811209Y-93799962D01*
X177095114Y-93799016D01*
X177103399Y-93802415D01*
G37*
%TD.AperFunction*%
%TD*%
%TA.AperFunction,Conductor*%
%TO.N,+6.8V*%
G36*
X155597548Y-83416703D02*
G01*
X155600000Y-83423870D01*
X155600000Y-83588908D01*
X155596573Y-83597181D01*
X155588924Y-83600591D01*
X155360210Y-83612808D01*
X155351766Y-83609828D01*
X155347903Y-83601749D01*
X155350883Y-83593305D01*
X155352413Y-83591882D01*
X155581133Y-83414621D01*
X155589771Y-83412263D01*
X155597548Y-83416703D01*
G37*
%TD.AperFunction*%
%TD*%
%TA.AperFunction,Conductor*%
%TO.N,Net-(D15-A)*%
G36*
X177700090Y-89203427D02*
G01*
X177702807Y-89207687D01*
X177873330Y-89674694D01*
X177872949Y-89683641D01*
X177866851Y-89689503D01*
X177604511Y-89799115D01*
X177595556Y-89799142D01*
X177595489Y-89799115D01*
X177333148Y-89689503D01*
X177326836Y-89683151D01*
X177326669Y-89674697D01*
X177497193Y-89207686D01*
X177503249Y-89201091D01*
X177508183Y-89200000D01*
X177691817Y-89200000D01*
X177700090Y-89203427D01*
G37*
%TD.AperFunction*%
%TD*%
%TA.AperFunction,Conductor*%
%TO.N,+6.8V*%
G36*
X96368864Y-87432057D02*
G01*
X96819671Y-87641705D01*
X96825726Y-87648300D01*
X96825559Y-87656757D01*
X96717563Y-87919766D01*
X96711251Y-87926118D01*
X96711184Y-87926145D01*
X96448175Y-88034141D01*
X96439220Y-88034114D01*
X96433123Y-88028253D01*
X96223475Y-87577447D01*
X96223095Y-87568502D01*
X96225810Y-87564244D01*
X96355661Y-87434393D01*
X96363933Y-87430967D01*
X96368864Y-87432057D01*
G37*
%TD.AperFunction*%
%TD*%
%TA.AperFunction,Conductor*%
%TO.N,+6.8V*%
G36*
X175597548Y-83416703D02*
G01*
X175600000Y-83423870D01*
X175600000Y-83588908D01*
X175596573Y-83597181D01*
X175588924Y-83600591D01*
X175360210Y-83612808D01*
X175351766Y-83609828D01*
X175347903Y-83601749D01*
X175350883Y-83593305D01*
X175352413Y-83591882D01*
X175581133Y-83414621D01*
X175589771Y-83412263D01*
X175597548Y-83416703D01*
G37*
%TD.AperFunction*%
%TD*%
%TA.AperFunction,Conductor*%
%TO.N,+6.8V*%
G36*
X85877164Y-83614805D02*
G01*
X85700000Y-84100000D01*
X85500000Y-84100000D01*
X85322836Y-83614805D01*
X85600000Y-83499000D01*
X85877164Y-83614805D01*
G37*
%TD.AperFunction*%
%TD*%
%TA.AperFunction,Conductor*%
%TO.N,Net-(D12-A)*%
G36*
X178159339Y-94710812D02*
G01*
X178289187Y-94840660D01*
X178292614Y-94848933D01*
X178291523Y-94853867D01*
X178081877Y-95304670D01*
X178075281Y-95310726D01*
X178066824Y-95310559D01*
X177803815Y-95202563D01*
X177797463Y-95196251D01*
X177797436Y-95196184D01*
X177689440Y-94933175D01*
X177689467Y-94924220D01*
X177695326Y-94918124D01*
X178146134Y-94708475D01*
X178155079Y-94708095D01*
X178159339Y-94710812D01*
G37*
%TD.AperFunction*%
%TD*%
%TA.AperFunction,Conductor*%
%TO.N,+6.8V*%
G36*
X135597548Y-83416703D02*
G01*
X135600000Y-83423870D01*
X135600000Y-83588908D01*
X135596573Y-83597181D01*
X135588924Y-83600591D01*
X135360210Y-83612808D01*
X135351766Y-83609828D01*
X135347903Y-83601749D01*
X135350883Y-83593305D01*
X135352413Y-83591882D01*
X135581133Y-83414621D01*
X135589771Y-83412263D01*
X135597548Y-83416703D01*
G37*
%TD.AperFunction*%
%TD*%
%TA.AperFunction,Conductor*%
%TO.N,Net-(D15-A)*%
G36*
X188783641Y-93127050D02*
G01*
X188789503Y-93133148D01*
X188899115Y-93395489D01*
X188899142Y-93404444D01*
X188899115Y-93404511D01*
X188789503Y-93666851D01*
X188783151Y-93673163D01*
X188774694Y-93673329D01*
X188640947Y-93624493D01*
X188307687Y-93502806D01*
X188301091Y-93496750D01*
X188300000Y-93491816D01*
X188300000Y-93308183D01*
X188303427Y-93299910D01*
X188307687Y-93297193D01*
X188774697Y-93126669D01*
X188783641Y-93127050D01*
G37*
%TD.AperFunction*%
%TD*%
%TA.AperFunction,Conductor*%
%TO.N,+6.8V*%
G36*
X187400090Y-87703427D02*
G01*
X187402807Y-87707687D01*
X187573330Y-88174694D01*
X187572949Y-88183641D01*
X187566851Y-88189503D01*
X187304511Y-88299115D01*
X187295556Y-88299142D01*
X187295489Y-88299115D01*
X187033148Y-88189503D01*
X187026836Y-88183151D01*
X187026669Y-88174697D01*
X187197193Y-87707686D01*
X187203249Y-87701091D01*
X187208183Y-87700000D01*
X187391817Y-87700000D01*
X187400090Y-87703427D01*
G37*
%TD.AperFunction*%
%TD*%
%TA.AperFunction,Conductor*%
%TO.N,Net-(D12-A)*%
G36*
X188583641Y-91127050D02*
G01*
X188589503Y-91133148D01*
X188699115Y-91395489D01*
X188699142Y-91404444D01*
X188699115Y-91404511D01*
X188589503Y-91666851D01*
X188583151Y-91673163D01*
X188574694Y-91673329D01*
X188440947Y-91624493D01*
X188107687Y-91502806D01*
X188101091Y-91496750D01*
X188100000Y-91491816D01*
X188100000Y-91308183D01*
X188103427Y-91299910D01*
X188107687Y-91297193D01*
X188574697Y-91126669D01*
X188583641Y-91127050D01*
G37*
%TD.AperFunction*%
%TD*%
%TA.AperFunction,Conductor*%
%TO.N,PWM*%
G36*
X91057313Y-94320775D02*
G01*
X91063909Y-94326831D01*
X91065000Y-94331765D01*
X91065000Y-94515398D01*
X91061573Y-94523671D01*
X91057313Y-94526388D01*
X90590305Y-94696912D01*
X90581358Y-94696531D01*
X90575496Y-94690433D01*
X90465883Y-94428091D01*
X90465857Y-94419138D01*
X90465862Y-94419124D01*
X90575496Y-94156729D01*
X90581848Y-94150418D01*
X90590302Y-94150251D01*
X91057313Y-94320775D01*
G37*
%TD.AperFunction*%
%TD*%
%TA.AperFunction,Conductor*%
%TO.N,+6.8V*%
G36*
X65597548Y-83416703D02*
G01*
X65600000Y-83423870D01*
X65600000Y-83588908D01*
X65596573Y-83597181D01*
X65588924Y-83600591D01*
X65360210Y-83612808D01*
X65351766Y-83609828D01*
X65347903Y-83601749D01*
X65350883Y-83593305D01*
X65352413Y-83591882D01*
X65581133Y-83414621D01*
X65589771Y-83412263D01*
X65597548Y-83416703D01*
G37*
%TD.AperFunction*%
%TD*%
%TA.AperFunction,Conductor*%
%TO.N,+6.8V*%
G36*
X180659339Y-86710812D02*
G01*
X180789187Y-86840660D01*
X180792614Y-86848933D01*
X180791523Y-86853867D01*
X180581877Y-87304670D01*
X180575281Y-87310726D01*
X180566824Y-87310559D01*
X180303815Y-87202563D01*
X180297463Y-87196251D01*
X180297436Y-87196184D01*
X180189440Y-86933175D01*
X180189467Y-86924220D01*
X180195326Y-86918124D01*
X180646134Y-86708475D01*
X180655079Y-86708095D01*
X180659339Y-86710812D01*
G37*
%TD.AperFunction*%
%TD*%
%TA.AperFunction,Conductor*%
%TO.N,PWM*%
G36*
X113389705Y-94133631D02*
G01*
X113499115Y-94395489D01*
X113499142Y-94404444D01*
X113499115Y-94404511D01*
X113389331Y-94667263D01*
X113382979Y-94673575D01*
X113374973Y-94673896D01*
X112912829Y-94526183D01*
X112905992Y-94520400D01*
X112904691Y-94515038D01*
X112904691Y-94331374D01*
X112908118Y-94323101D01*
X112911881Y-94320578D01*
X113374399Y-94127345D01*
X113383353Y-94127319D01*
X113389705Y-94133631D01*
G37*
%TD.AperFunction*%
%TD*%
%TA.AperFunction,Conductor*%
%TO.N,+6.8V*%
G36*
X105597548Y-83416703D02*
G01*
X105600000Y-83423870D01*
X105600000Y-83588908D01*
X105596573Y-83597181D01*
X105588924Y-83600591D01*
X105360210Y-83612808D01*
X105351766Y-83609828D01*
X105347903Y-83601749D01*
X105350883Y-83593305D01*
X105352413Y-83591882D01*
X105581133Y-83414621D01*
X105589771Y-83412263D01*
X105597548Y-83416703D01*
G37*
%TD.AperFunction*%
%TD*%
%TA.AperFunction,Conductor*%
%TO.N,Net-(U2-CV)*%
G36*
X93981851Y-86534078D02*
G01*
X93988163Y-86540430D01*
X93988330Y-86548887D01*
X93817807Y-87015895D01*
X93811751Y-87022491D01*
X93806817Y-87023582D01*
X93623183Y-87023582D01*
X93614910Y-87020155D01*
X93612193Y-87015895D01*
X93441669Y-86548884D01*
X93442050Y-86539940D01*
X93448147Y-86534078D01*
X93710490Y-86424465D01*
X93719444Y-86424439D01*
X93981851Y-86534078D01*
G37*
%TD.AperFunction*%
%TD*%
%TA.AperFunction,Conductor*%
%TO.N,Net-(D13-A)*%
G36*
X185705315Y-97069809D02*
G01*
X185707396Y-97072633D01*
X185971208Y-97573879D01*
X185972028Y-97582796D01*
X185966303Y-97589682D01*
X185965365Y-97590124D01*
X185705206Y-97698827D01*
X185696251Y-97698854D01*
X185696204Y-97698835D01*
X185433060Y-97589445D01*
X185426736Y-97583105D01*
X185426516Y-97574752D01*
X185426824Y-97573879D01*
X185557697Y-97202501D01*
X185560456Y-97198122D01*
X185688770Y-97069808D01*
X185697042Y-97066382D01*
X185705315Y-97069809D01*
G37*
%TD.AperFunction*%
%TD*%
%TA.AperFunction,Conductor*%
%TO.N,+6.8V*%
G36*
X84394974Y-88446447D02*
G01*
X84177164Y-88914805D01*
X83899293Y-88800707D01*
X83785195Y-88522836D01*
X84253553Y-88305026D01*
X84394974Y-88446447D01*
G37*
%TD.AperFunction*%
%TD*%
%TA.AperFunction,Conductor*%
%TO.N,+6.8V*%
G36*
X185597548Y-83416703D02*
G01*
X185600000Y-83423870D01*
X185600000Y-83588908D01*
X185596573Y-83597181D01*
X185588924Y-83600591D01*
X185360210Y-83612808D01*
X185351766Y-83609828D01*
X185347903Y-83601749D01*
X185350883Y-83593305D01*
X185352413Y-83591882D01*
X185581133Y-83414621D01*
X185589771Y-83412263D01*
X185597548Y-83416703D01*
G37*
%TD.AperFunction*%
%TD*%
%TA.AperFunction,Conductor*%
%TO.N,+6.8V*%
G36*
X195483641Y-83227050D02*
G01*
X195489503Y-83233148D01*
X195599115Y-83495489D01*
X195599142Y-83504444D01*
X195599115Y-83504511D01*
X195489503Y-83766851D01*
X195483151Y-83773163D01*
X195474694Y-83773329D01*
X195340947Y-83724493D01*
X195007687Y-83602806D01*
X195001091Y-83596750D01*
X195000000Y-83591816D01*
X195000000Y-83408183D01*
X195003427Y-83399910D01*
X195007687Y-83397193D01*
X195474697Y-83226669D01*
X195483641Y-83227050D01*
G37*
%TD.AperFunction*%
%TD*%
%TA.AperFunction,Conductor*%
%TO.N,+6.8V*%
G36*
X85483642Y-83227050D02*
G01*
X85489503Y-83233147D01*
X85601000Y-83500000D01*
X85485195Y-83777164D01*
X85000000Y-83600000D01*
X85000000Y-83400000D01*
X85474697Y-83226669D01*
X85483642Y-83227050D01*
G37*
%TD.AperFunction*%
%TD*%
%TA.AperFunction,Conductor*%
%TO.N,Net-(D13-A)*%
G36*
X179041116Y-88684761D02*
G01*
X179047428Y-88691113D01*
X179047595Y-88699570D01*
X178877072Y-89166578D01*
X178871016Y-89173174D01*
X178866082Y-89174265D01*
X178682448Y-89174265D01*
X178674175Y-89170838D01*
X178671458Y-89166578D01*
X178500934Y-88699567D01*
X178501315Y-88690623D01*
X178507412Y-88684761D01*
X178769755Y-88575148D01*
X178778709Y-88575122D01*
X179041116Y-88684761D01*
G37*
%TD.AperFunction*%
%TD*%
%TA.AperFunction,Conductor*%
%TO.N,+6.8V*%
G36*
X55597548Y-83416703D02*
G01*
X55600000Y-83423870D01*
X55600000Y-83588908D01*
X55596573Y-83597181D01*
X55588924Y-83600591D01*
X55360210Y-83612808D01*
X55351766Y-83609828D01*
X55347903Y-83601749D01*
X55350883Y-83593305D01*
X55352413Y-83591882D01*
X55581133Y-83414621D01*
X55589771Y-83412263D01*
X55597548Y-83416703D01*
G37*
%TD.AperFunction*%
%TD*%
%TA.AperFunction,Conductor*%
%TO.N,+6.8V*%
G36*
X185875779Y-83389467D02*
G01*
X185881877Y-83395329D01*
X186091523Y-83846132D01*
X186091904Y-83855079D01*
X186089187Y-83859339D01*
X185959339Y-83989187D01*
X185951066Y-83992614D01*
X185946132Y-83991523D01*
X185652736Y-83855079D01*
X185495328Y-83781876D01*
X185489273Y-83775281D01*
X185489439Y-83766825D01*
X185597436Y-83503814D01*
X185603746Y-83497464D01*
X185866825Y-83389440D01*
X185875779Y-83389467D01*
G37*
%TD.AperFunction*%
%TD*%
%TA.AperFunction,Conductor*%
%TO.N,+6.8V*%
G36*
X85946733Y-83307522D02*
G01*
X86109116Y-83366815D01*
X86109120Y-83366816D01*
X86125406Y-83371193D01*
X86194460Y-83389753D01*
X86236991Y-83397275D01*
X86325009Y-83404999D01*
X86325025Y-83404999D01*
X86325027Y-83405000D01*
X86325028Y-83405000D01*
X86339057Y-83405000D01*
X86406096Y-83424685D01*
X86451851Y-83477489D01*
X86461795Y-83546647D01*
X86432770Y-83610203D01*
X86378216Y-83646654D01*
X86372674Y-83648499D01*
X86362495Y-83651887D01*
X86241462Y-83729671D01*
X86241451Y-83729679D01*
X86188659Y-83775423D01*
X86094433Y-83884164D01*
X86094430Y-83884168D01*
X86034664Y-84015034D01*
X86014976Y-84082082D01*
X85994500Y-84224501D01*
X85994500Y-91271441D01*
X85984571Y-91320060D01*
X85745413Y-91881175D01*
X85745407Y-91881189D01*
X85715150Y-91978254D01*
X85715149Y-91978258D01*
X85705222Y-92026872D01*
X85695000Y-92128005D01*
X85695000Y-92136304D01*
X85697897Y-92190352D01*
X85697897Y-92190353D01*
X85700729Y-92216686D01*
X85700732Y-92216713D01*
X85709385Y-92270109D01*
X85709385Y-92270111D01*
X85734177Y-92336578D01*
X85759668Y-92404921D01*
X85793153Y-92466244D01*
X85857977Y-92552838D01*
X85870650Y-92569767D01*
X85895067Y-92635232D01*
X85883376Y-92697309D01*
X85800992Y-92870638D01*
X85754435Y-92922736D01*
X85702074Y-92938404D01*
X85702319Y-92939846D01*
X85693578Y-92941331D01*
X85693577Y-92941331D01*
X85645409Y-92949515D01*
X85551732Y-92965432D01*
X85485211Y-92986821D01*
X85355918Y-93049900D01*
X85355911Y-93049904D01*
X85249610Y-93146864D01*
X85249605Y-93146870D01*
X85205383Y-93200612D01*
X85205230Y-93200796D01*
X85205213Y-93200820D01*
X85130538Y-93323804D01*
X82605095Y-99249036D01*
X82560701Y-99302989D01*
X82494185Y-99324377D01*
X82426666Y-99306408D01*
X82410326Y-99294565D01*
X82367628Y-99257967D01*
X79528624Y-96824535D01*
X79560768Y-96783561D01*
X79591379Y-96733070D01*
X79641345Y-96622613D01*
X80333607Y-94420716D01*
X80372491Y-94362668D01*
X80385917Y-94352920D01*
X80502262Y-94279816D01*
X80629816Y-94152262D01*
X80725789Y-93999522D01*
X80785368Y-93829255D01*
X80786125Y-93822537D01*
X80805565Y-93650003D01*
X80805565Y-93649996D01*
X80785369Y-93470750D01*
X80785366Y-93470737D01*
X80725791Y-93300483D01*
X80722883Y-93294446D01*
X80711527Y-93225505D01*
X80716305Y-93203457D01*
X82397644Y-87855588D01*
X82436528Y-87797540D01*
X82500624Y-87769729D01*
X82502053Y-87769560D01*
X82539249Y-87765369D01*
X82539252Y-87765368D01*
X82539255Y-87765368D01*
X82709522Y-87705789D01*
X82862262Y-87609816D01*
X82989816Y-87482262D01*
X83085789Y-87329522D01*
X83145368Y-87159255D01*
X83156487Y-87060571D01*
X83165565Y-86980003D01*
X83165565Y-86979996D01*
X83145369Y-86800750D01*
X83145368Y-86800745D01*
X83129731Y-86756056D01*
X83085789Y-86630478D01*
X83069424Y-86604434D01*
X83028599Y-86539461D01*
X82989816Y-86477738D01*
X82922017Y-86409939D01*
X82888532Y-86348616D01*
X82891406Y-86285068D01*
X82906052Y-86238486D01*
X83479881Y-84413294D01*
X83490556Y-84373828D01*
X83495001Y-84354291D01*
X83502452Y-84314083D01*
X83502451Y-84170203D01*
X83492507Y-84101045D01*
X83451972Y-83962996D01*
X83374184Y-83841957D01*
X83357145Y-83822293D01*
X83328433Y-83789157D01*
X83328430Y-83789154D01*
X83318551Y-83780594D01*
X83262585Y-83732098D01*
X83246716Y-83718347D01*
X83208942Y-83659569D01*
X83208942Y-83589699D01*
X83209587Y-83587576D01*
X83239696Y-83491807D01*
X83278581Y-83433760D01*
X83342677Y-83405949D01*
X83357987Y-83405000D01*
X84874971Y-83405000D01*
X84874972Y-83405000D01*
X84874973Y-83404999D01*
X84874989Y-83404999D01*
X84949678Y-83398444D01*
X84963008Y-83397275D01*
X85005539Y-83389753D01*
X85090878Y-83366816D01*
X85090882Y-83366815D01*
X85096297Y-83364838D01*
X85160543Y-83341379D01*
X85253266Y-83307522D01*
X85295797Y-83300000D01*
X85904202Y-83300000D01*
X85946733Y-83307522D01*
G37*
%TD.AperFunction*%
%TD*%
%TA.AperFunction,Conductor*%
%TO.N,+6.8V*%
G36*
X181933174Y-98389439D02*
G01*
X182096804Y-98456629D01*
X182196184Y-98497436D01*
X182202536Y-98503748D01*
X182202563Y-98503815D01*
X182310559Y-98766824D01*
X182310532Y-98775779D01*
X182304670Y-98781877D01*
X181853867Y-98991523D01*
X181844920Y-98991904D01*
X181840660Y-98989187D01*
X181710812Y-98859339D01*
X181707385Y-98851066D01*
X181708474Y-98846136D01*
X181918124Y-98395327D01*
X181924718Y-98389273D01*
X181933174Y-98389439D01*
G37*
%TD.AperFunction*%
%TD*%
%TA.AperFunction,Conductor*%
%TO.N,Net-(D11-A)*%
G36*
X183933174Y-86389439D02*
G01*
X184096804Y-86456629D01*
X184196184Y-86497436D01*
X184202536Y-86503748D01*
X184202563Y-86503815D01*
X184310559Y-86766824D01*
X184310532Y-86775779D01*
X184304670Y-86781877D01*
X183853867Y-86991523D01*
X183844920Y-86991904D01*
X183840660Y-86989187D01*
X183710812Y-86859339D01*
X183707385Y-86851066D01*
X183708474Y-86846136D01*
X183918124Y-86395327D01*
X183924718Y-86389273D01*
X183933174Y-86389439D01*
G37*
%TD.AperFunction*%
%TD*%
%TA.AperFunction,Conductor*%
%TO.N,+6.8V*%
G36*
X189027847Y-94437677D02*
G01*
X189029200Y-94438838D01*
X189158968Y-94568606D01*
X189162395Y-94576879D01*
X189159776Y-94584257D01*
X188820285Y-95002096D01*
X188812408Y-95006356D01*
X188803826Y-95003799D01*
X188802958Y-95003019D01*
X188602758Y-94804149D01*
X188599304Y-94795887D01*
X188599304Y-94795820D01*
X188599802Y-94584257D01*
X188599976Y-94510011D01*
X188603422Y-94501748D01*
X188609895Y-94498478D01*
X189019151Y-94435547D01*
X189027847Y-94437677D01*
G37*
%TD.AperFunction*%
%TD*%
%TA.AperFunction,Conductor*%
%TO.N,Net-(D14-A)*%
G36*
X179492313Y-96697193D02*
G01*
X179498909Y-96703249D01*
X179500000Y-96708183D01*
X179500000Y-96891816D01*
X179496573Y-96900089D01*
X179492313Y-96902806D01*
X179025305Y-97073330D01*
X179016358Y-97072949D01*
X179010496Y-97066851D01*
X178900883Y-96804509D01*
X178900857Y-96795556D01*
X178900862Y-96795542D01*
X179010496Y-96533147D01*
X179016848Y-96526836D01*
X179025302Y-96526669D01*
X179492313Y-96697193D01*
G37*
%TD.AperFunction*%
%TD*%
%TA.AperFunction,Conductor*%
%TO.N,+6.8V*%
G36*
X115597548Y-83416703D02*
G01*
X115600000Y-83423870D01*
X115600000Y-83588908D01*
X115596573Y-83597181D01*
X115588924Y-83600591D01*
X115360210Y-83612808D01*
X115351766Y-83609828D01*
X115347903Y-83601749D01*
X115350883Y-83593305D01*
X115352413Y-83591882D01*
X115581133Y-83414621D01*
X115589771Y-83412263D01*
X115597548Y-83416703D01*
G37*
%TD.AperFunction*%
%TD*%
%TA.AperFunction,Conductor*%
%TO.N,+6.8V*%
G36*
X182083641Y-98227050D02*
G01*
X182089503Y-98233148D01*
X182199115Y-98495489D01*
X182199142Y-98504444D01*
X182199115Y-98504511D01*
X182089503Y-98766851D01*
X182083151Y-98773163D01*
X182074694Y-98773329D01*
X181940947Y-98724493D01*
X181607687Y-98602806D01*
X181601091Y-98596750D01*
X181600000Y-98591816D01*
X181600000Y-98408183D01*
X181603427Y-98399910D01*
X181607687Y-98397193D01*
X182074697Y-98226669D01*
X182083641Y-98227050D01*
G37*
%TD.AperFunction*%
%TD*%
%TA.AperFunction,Conductor*%
%TO.N,+6.8V*%
G36*
X92054891Y-96606882D02*
G01*
X92060753Y-96612980D01*
X92170365Y-96875321D01*
X92170392Y-96884276D01*
X92170365Y-96884343D01*
X92060753Y-97146683D01*
X92054401Y-97152995D01*
X92045944Y-97153161D01*
X91912197Y-97104325D01*
X91578937Y-96982638D01*
X91572341Y-96976582D01*
X91571250Y-96971648D01*
X91571250Y-96788015D01*
X91574677Y-96779742D01*
X91578937Y-96777025D01*
X92045947Y-96606501D01*
X92054891Y-96606882D01*
G37*
%TD.AperFunction*%
%TD*%
%TA.AperFunction,Conductor*%
%TO.N,+6.8V*%
G36*
X175866851Y-83610496D02*
G01*
X175873163Y-83616848D01*
X175873330Y-83625305D01*
X175702807Y-84092313D01*
X175696751Y-84098909D01*
X175691817Y-84100000D01*
X175508183Y-84100000D01*
X175499910Y-84096573D01*
X175497193Y-84092313D01*
X175326669Y-83625302D01*
X175327050Y-83616358D01*
X175333147Y-83610496D01*
X175595490Y-83500883D01*
X175604444Y-83500857D01*
X175866851Y-83610496D01*
G37*
%TD.AperFunction*%
%TD*%
%TA.AperFunction,Conductor*%
%TO.N,+6.8V*%
G36*
X182475779Y-98389467D02*
G01*
X182481877Y-98395329D01*
X182691523Y-98846132D01*
X182691904Y-98855079D01*
X182689187Y-98859339D01*
X182559339Y-98989187D01*
X182551066Y-98992614D01*
X182546132Y-98991523D01*
X182252736Y-98855079D01*
X182095328Y-98781876D01*
X182089273Y-98775281D01*
X182089439Y-98766825D01*
X182197436Y-98503814D01*
X182203746Y-98497464D01*
X182466825Y-98389440D01*
X182475779Y-98389467D01*
G37*
%TD.AperFunction*%
%TD*%
%TA.AperFunction,Conductor*%
%TO.N,+6.8V*%
G36*
X189027847Y-94437677D02*
G01*
X189029200Y-94438838D01*
X189158968Y-94568606D01*
X189162395Y-94576879D01*
X189159776Y-94584257D01*
X188820285Y-95002096D01*
X188812408Y-95006356D01*
X188803826Y-95003799D01*
X188802958Y-95003019D01*
X188602758Y-94804149D01*
X188599304Y-94795887D01*
X188599304Y-94795820D01*
X188599802Y-94584257D01*
X188599976Y-94510011D01*
X188603422Y-94501748D01*
X188609895Y-94498478D01*
X189019151Y-94435547D01*
X189027847Y-94437677D01*
G37*
%TD.AperFunction*%
%TD*%
%TA.AperFunction,Conductor*%
%TO.N,+6.8V*%
G36*
X176753864Y-93308475D02*
G01*
X177204671Y-93518123D01*
X177210726Y-93524718D01*
X177210559Y-93533175D01*
X177102563Y-93796184D01*
X177096251Y-93802536D01*
X177096184Y-93802563D01*
X176833175Y-93910559D01*
X176824220Y-93910532D01*
X176818123Y-93904671D01*
X176608475Y-93453865D01*
X176608095Y-93444920D01*
X176610810Y-93440662D01*
X176740661Y-93310811D01*
X176748933Y-93307385D01*
X176753864Y-93308475D01*
G37*
%TD.AperFunction*%
%TD*%
%TA.AperFunction,Conductor*%
%TO.N,+6.8V*%
G36*
X125597548Y-83416703D02*
G01*
X125600000Y-83423870D01*
X125600000Y-83588908D01*
X125596573Y-83597181D01*
X125588924Y-83600591D01*
X125360210Y-83612808D01*
X125351766Y-83609828D01*
X125347903Y-83601749D01*
X125350883Y-83593305D01*
X125352413Y-83591882D01*
X125581133Y-83414621D01*
X125589771Y-83412263D01*
X125597548Y-83416703D01*
G37*
%TD.AperFunction*%
%TD*%
%TA.AperFunction,Conductor*%
%TO.N,+6.8V*%
G36*
X145597548Y-83416703D02*
G01*
X145600000Y-83423870D01*
X145600000Y-83588908D01*
X145596573Y-83597181D01*
X145588924Y-83600591D01*
X145360210Y-83612808D01*
X145351766Y-83609828D01*
X145347903Y-83601749D01*
X145350883Y-83593305D01*
X145352413Y-83591882D01*
X145581133Y-83414621D01*
X145589771Y-83412263D01*
X145597548Y-83416703D01*
G37*
%TD.AperFunction*%
%TD*%
%TA.AperFunction,Conductor*%
%TO.N,+6.8V*%
G36*
X86200000Y-83400000D02*
G01*
X86200000Y-83600000D01*
X85714805Y-83777164D01*
X85599000Y-83500000D01*
X85710497Y-83233145D01*
X85716847Y-83226836D01*
X85725302Y-83226669D01*
X86200000Y-83400000D01*
G37*
%TD.AperFunction*%
%TD*%
%TA.AperFunction,Conductor*%
%TO.N,+6.8V*%
G36*
X188866851Y-94910496D02*
G01*
X188873163Y-94916848D01*
X188873330Y-94925305D01*
X188702807Y-95392313D01*
X188696751Y-95398909D01*
X188691817Y-95400000D01*
X188508183Y-95400000D01*
X188499910Y-95396573D01*
X188497193Y-95392313D01*
X188326669Y-94925302D01*
X188327050Y-94916358D01*
X188333147Y-94910496D01*
X188595490Y-94800883D01*
X188604444Y-94800857D01*
X188866851Y-94910496D01*
G37*
%TD.AperFunction*%
%TD*%
%TA.AperFunction,Conductor*%
%TO.N,+6.8V*%
G36*
X179864411Y-86744943D02*
G01*
X180402779Y-86918949D01*
X180409598Y-86924754D01*
X180410314Y-86933680D01*
X180410004Y-86934526D01*
X180302852Y-87195489D01*
X180296540Y-87201840D01*
X180296510Y-87201852D01*
X180296493Y-87201860D01*
X180033200Y-87310527D01*
X180024245Y-87310516D01*
X180018121Y-87304632D01*
X179850201Y-86942340D01*
X179849116Y-86937420D01*
X179849116Y-86756077D01*
X179852543Y-86747804D01*
X179860816Y-86744377D01*
X179864411Y-86744943D01*
G37*
%TD.AperFunction*%
%TD*%
%TA.AperFunction,Conductor*%
%TO.N,+6.8V*%
G36*
X46192313Y-83397193D02*
G01*
X46198909Y-83403249D01*
X46200000Y-83408183D01*
X46200000Y-83591816D01*
X46196573Y-83600089D01*
X46192313Y-83602806D01*
X45725305Y-83773330D01*
X45716358Y-83772949D01*
X45710496Y-83766851D01*
X45600883Y-83504509D01*
X45600857Y-83495556D01*
X45600862Y-83495542D01*
X45710496Y-83233147D01*
X45716848Y-83226836D01*
X45725302Y-83226669D01*
X46192313Y-83397193D01*
G37*
%TD.AperFunction*%
%TD*%
%TA.AperFunction,Conductor*%
%TO.N,+6.8V*%
G36*
X95866851Y-83610496D02*
G01*
X95873163Y-83616848D01*
X95873330Y-83625305D01*
X95702807Y-84092313D01*
X95696751Y-84098909D01*
X95691817Y-84100000D01*
X95508183Y-84100000D01*
X95499910Y-84096573D01*
X95497193Y-84092313D01*
X95326669Y-83625302D01*
X95327050Y-83616358D01*
X95333147Y-83610496D01*
X95595490Y-83500883D01*
X95604444Y-83500857D01*
X95866851Y-83610496D01*
G37*
%TD.AperFunction*%
%TD*%
D12*
X152000000Y-96300000D03*
X156200000Y-93500000D03*
X113800000Y-93100000D03*
X91215000Y-87923582D03*
X80000000Y-93650000D03*
X103215000Y-86423582D03*
X164200000Y-88600000D03*
X120600000Y-87000000D03*
X113900000Y-95700000D03*
X160200000Y-91100000D03*
X82360000Y-86980000D03*
X98215000Y-93423582D03*
X93715000Y-86423582D03*
X80150000Y-98000000D03*
X78150000Y-99000000D03*
X105600000Y-83500000D03*
X65600000Y-83500000D03*
X187300000Y-88300000D03*
X182200000Y-98500000D03*
X165600000Y-83500000D03*
X95600000Y-83500000D03*
X135600000Y-83500000D03*
X121825400Y-106629800D03*
X81150000Y-99000000D03*
X79150000Y-99000000D03*
X115600000Y-98200000D03*
X85600000Y-83500000D03*
X195600000Y-83500000D03*
X188600000Y-94800000D03*
X80150000Y-99000000D03*
X96715000Y-87923582D03*
X177100000Y-93800000D03*
X147200000Y-106629800D03*
X79150000Y-98000000D03*
X155600000Y-83500000D03*
X92171250Y-96879832D03*
X45600000Y-106528200D03*
X71000000Y-106579000D03*
X77150000Y-99000000D03*
X81150000Y-98000000D03*
X82150000Y-99000000D03*
X185600000Y-83500000D03*
X45600000Y-83500000D03*
X180300000Y-87200000D03*
X75600000Y-83500000D03*
X175600000Y-83500000D03*
X96374600Y-106604400D03*
X83900000Y-88800000D03*
X125600000Y-83500000D03*
X145600000Y-83500000D03*
X82150000Y-98000000D03*
X55600000Y-83500000D03*
X172600000Y-106629800D03*
X115600000Y-83500000D03*
X184200000Y-86500000D03*
X183900000Y-98500000D03*
X90465000Y-94423582D03*
X113500000Y-94400000D03*
X188700000Y-91400000D03*
X177800000Y-95200000D03*
X185700000Y-97700000D03*
X178774265Y-88574265D03*
X185600000Y-87300000D03*
X178900000Y-96800000D03*
X188900000Y-93400000D03*
X177600000Y-89800000D03*
D13*
X55545000Y-92500000D03*
X63045000Y-92500000D03*
X45995000Y-91000000D03*
X45995000Y-94000000D03*
M02*
